<svg xmlns="http://www.w3.org/2000/svg" xmlns:xlink="http://www.w3.org/1999/xlink" viewBox="0 0 92.47 159.05"><defs><style>.cls-1{fill:#f1caff;}.cls-2{fill:#f9acd6;}.cls-3{fill:#f991c5;}.cls-4{fill:#cc3e78;}.cls-5{fill:#994272;}.cls-6{fill:#d14698;}.cls-7{fill:#dd509a;}.cls-8{fill:#56c5d2;}.cls-9{fill:#e079af;}.cls-10{fill:#c66b9f;}.cls-11{fill:#7a2343;}.cls-12{fill:#b9f9d7;}.cls-13{fill:#67d6db;}.cls-14{fill:#66b5dd;}.cls-15{fill:#5170bf;}.cls-16{fill:#73ead3;}.cls-17{fill:#8cf9c4;}.cls-18{fill:#c7f9e9;}.cls-19{fill:#86ceea;}.cls-20{fill:#7676d6;}.cls-21{fill:#635baf;}.cls-22{fill:#69d1c0;}.cls-23{fill:url(#linear-gradient);}.cls-24{fill:#766fce;}.cls-25{fill:#59a9c9;}.cls-26{fill:#89f4df;}.cls-27{fill:#a85caa;}.cls-28{fill:#e080b5;}.cls-29{fill:#53498e;}.cls-30{fill:none;stroke:#fff;stroke-miterlimit:10;}</style><linearGradient id="linear-gradient" x1="20.37" y1="-19.7" x2="88.64" y2="-19.7" gradientTransform="translate(-41.03 77.47) rotate(18.07)" gradientUnits="userSpaceOnUse"><stop offset="0" stop-color="#00a5eb"/><stop offset="0.12" stop-color="#1d90da"/><stop offset="0.37" stop-color="#695bb0"/><stop offset="0.74" stop-color="#e0066d"/><stop offset="0.76" stop-color="#e90068"/><stop offset="1" stop-color="#6e002b"/></linearGradient></defs><title>Asset 1</title><g id="Layer_2" data-name="Layer 2"><g id="Layer_1-2" data-name="Layer 1"><path d="M.22,51.93"/><polygon class="cls-1" points="43.94 66.67 71.81 82.22 57.59 62.59 43.94 66.67"/><polygon class="cls-2" points="67.38 79.75 81.46 107.61 71.81 82.22 67.38 79.75"/><polygon class="cls-3" points="71.81 82.22 85.88 101.65 81.46 107.61 71.81 82.22"/><polygon class="cls-4" points="81.46 107.61 92.37 110.71 85.88 101.65 81.46 107.61"/><polygon class="cls-5" points="92.37 110.71 78.61 129.19 81.46 107.61 92.37 110.71"/><polygon class="cls-3" points="55.59 73.17 58.4 88.97 67.38 79.75 55.59 73.17"/><polygon class="cls-6" points="58.4 88.97 68.78 115.38 63.86 83.36 58.4 88.97"/><polygon class="cls-7" points="63.86 83.36 72.01 88.91 67.38 79.75 63.86 83.36"/><polygon class="cls-7" points="72.01 88.91 65.95 96.97 78.08 100.93 72.01 88.91"/><path class="cls-8" d="M65.95,97"/><polygon class="cls-3" points="81.46 107.61 78.08 100.93 65.95 96.97 81.46 107.61"/><polygon class="cls-9" points="43.94 66.67 58.4 88.97 55.59 73.17 43.94 66.67"/><polygon class="cls-10" points="43.94 66.67 35.66 69.35 54.7 83.27 43.94 66.67"/><polygon class="cls-5" points="54.7 83.27 57.58 99.82 35.66 69.35 54.7 83.27"/><polygon class="cls-11" points="81.46 107.61 68.78 115.38 78.61 129.19 81.46 107.61"/><polygon class="cls-5" points="65.95 96.97 68.78 115.38 81.46 107.61 65.95 96.97"/><polygon class="cls-4" points="63.86 83.36 65.95 96.97 72.01 88.91 63.86 83.36"/><polygon class="cls-11" points="54.7 83.27 57.15 99.22 68.78 115.38 58.4 88.97 54.7 83.27"/><polygon class="cls-12" points="44.04 4.08 71.91 19.63 57.69 0 44.04 4.08"/><polygon class="cls-12" points="67.47 17.15 81.56 45.02 71.91 19.63 67.47 17.15"/><polygon class="cls-13" points="71.91 19.63 85.98 39.06 81.56 45.02 71.91 19.63"/><polygon class="cls-14" points="81.56 45.02 92.47 48.12 85.98 39.06 81.56 45.02"/><polygon class="cls-15" points="92.47 48.12 78.71 66.59 81.56 45.02 92.47 48.12"/><polygon class="cls-16" points="55.69 10.58 58.5 26.38 67.47 17.15 55.69 10.58"/><polygon class="cls-14" points="58.5 26.38 68.88 52.79 63.96 20.77 58.5 26.38"/><polygon class="cls-17" points="63.96 20.77 72.11 26.32 67.47 17.15 63.96 20.77"/><polygon class="cls-18" points="72.11 26.32 66.05 34.38 78.18 38.34 72.11 26.32"/><path class="cls-8" d="M66,34.38"/><polygon class="cls-14" points="81.56 45.02 78.96 38.13 66.05 34.38 81.56 45.02"/><polygon class="cls-19" points="44.04 4.08 58.5 26.38 55.69 10.58 44.04 4.08"/><polygon class="cls-14" points="44.04 4.08 35.76 6.76 54.8 20.67 44.04 4.08"/><polygon class="cls-20" points="54.8 20.67 57.68 37.23 35.76 6.76 54.8 20.67"/><polygon class="cls-21" points="81.56 45.02 68.88 52.79 78.71 66.59 81.56 45.02"/><polygon class="cls-20" points="66.05 34.38 68.88 52.79 81.56 45.02 66.05 34.38"/><polygon class="cls-22" points="63.96 20.77 66.05 34.38 72.11 26.32 63.96 20.77"/><polygon class="cls-21" points="54.8 20.67 57.25 36.63 68.88 52.79 58.5 26.38 54.8 20.67"/><polygon class="cls-4" points="52.46 144.62 71.79 138.76 64.66 148.6 52.46 144.62"/><polygon class="cls-5" points="52.46 144.62 49.49 151.9 31.81 150.88 52.46 144.62"/><polygon class="cls-11" points="49.49 151.9 60.85 153.86 64.66 148.6 52.46 144.62 49.49 151.9"/><polygon class="cls-11" points="49.49 151.9 57.09 159.05 31.81 150.88 49.49 151.9"/><polygon class="cls-5" points="57.09 159.05 49.49 151.9 60.85 153.86 57.09 159.05"/><polyline class="cls-23" points="0.26 140.67 28.57 149.91 27.11 8.53 0 17.38"/><polygon class="cls-13" points="14.36 12.6 7.64 42.72 7.44 14.84 14.36 12.6"/><polygon class="cls-12" points="27.76 8.27 17.22 11.68 27.81 17.69 27.76 8.27"/><polygon class="cls-17" points="24.93 16.05 20.65 50.36 27.81 17.69 24.93 16.05"/><polygon class="cls-17" points="20.65 50.36 28.05 59.23 27.81 17.69 20.65 50.36"/><polygon class="cls-17" points="14.36 12.6 20.65 50.36 24.93 16.05 17.22 11.68 14.36 12.6"/><polygon class="cls-14" points="8.21 56.59 20.65 50.36 18.31 36.33 8.21 56.59"/><polygon class="cls-14" points="20.65 50.36 15.19 62.67 19.46 85.53 20.65 50.36"/><polygon class="cls-14" points="14.36 12.6 7.64 42.72 18.31 36.33 14.36 12.6"/><polygon class="cls-15" points="8.21 56.59 7.75 57.56 15.19 62.67 20.65 50.36 8.21 56.59"/><polygon class="cls-24" points="7.75 57.56 19.46 85.53 15.19 62.67 7.75 57.56"/><polygon class="cls-25" points="7.64 42.72 18.31 36.33 7.75 57.56 7.64 42.72"/><polygon class="cls-21" points="19.46 85.53 14.6 96.82 8.31 83.75 19.46 85.53"/><polygon class="cls-3" points="19.54 85.72 28.24 94.36 19.79 74.59 19.54 85.72"/><polygon class="cls-26" points="20.65 50.36 19.79 74.59 28.05 59.23 20.65 50.36"/><polygon class="cls-21" points="14.6 96.82 7.92 109.95 7.68 58.2 14.6 96.82"/><polygon class="cls-3" points="18.22 102.05 28.38 119.48 28.24 94.36 18.22 102.05"/><polygon class="cls-7" points="25.1 113.85 17.21 132.55 28.38 119.48 25.1 113.85"/><polygon class="cls-27" points="18.22 102.05 8.26 128.56 7.92 109.95 18.22 102.05"/><polygon class="cls-6" points="18.22 102.05 17.21 132.55 25.1 113.85 18.22 102.05"/><polygon class="cls-11" points="8.26 128.56 17.21 132.55 8.36 143.19 8.26 128.56"/><polygon class="cls-4" points="28.38 119.48 17.21 132.55 28.52 143.73 28.38 119.48"/><polygon class="cls-5" points="8.26 128.56 18.22 102.05 17.21 132.55 8.26 128.56"/><polygon class="cls-5" points="20.82 147.26 21.17 136.46 28.55 149.78 20.82 147.26"/><polygon class="cls-5" points="17.21 132.55 14.84 145.3 8.36 143.19 17.21 132.55"/><polygon class="cls-11" points="17.21 132.55 21.17 136.46 20.82 147.26 14.84 145.3 17.21 132.55"/><polygon class="cls-7" points="21.17 136.46 28.55 149.78 28.52 143.73 21.17 136.46"/><polygon class="cls-22" points="24.93 16.05 17.08 28.95 20.65 50.36 24.93 16.05"/><polygon class="cls-18" points="27.95 41.59 20.65 50.36 28.05 59.23 27.95 41.59"/><polygon class="cls-28" points="28.24 94.36 7.92 109.95 19.46 85.53 28.24 94.36"/><polygon class="cls-29" points="7.75 57.56 7.86 83.81 19.46 85.53 7.75 57.56"/><path class="cls-30" d="M8.36,143.19"/><path class="cls-30" d="M7.44,14.84"/><polyline class="cls-1" points="19.79 74.59 28.24 94.36 28.05 59.23"/><polygon class="cls-9" points="19.46 85.53 18.22 102.05 28.24 94.36 19.46 85.53"/><polygon class="cls-18" points="63.96 20.77 55.69 10.58 58.5 26.38 63.96 20.77"/></g></g></svg>