<svg xmlns="http://www.w3.org/2000/svg" viewBox="0 0 442 602"><defs><style>.cls-1{fill:#73b7ef;}.cls-2{fill:#1453ff;}.cls-3{opacity:0.49;}.cls-4{fill:#09ceb2;}</style></defs><title>Asset 2</title><g id="Layer_2" data-name="Layer 2"><g id="Layer_1_copy" data-name="Layer 1 copy"><rect class="cls-1" x="5" y="5" width="432" height="592"/><path d="M432,10V592H10V10H432M442,0H0V602H442V0Z"/><path class="cls-2" d="M5,595V5H78.65c85.84,0,155.67,69.83,155.67,155.67a154.63,154.63,0,0,1-28.37,89.62c-2.7,3.84-5.6,7.58-8.62,11.11l-.36.42-.26.48a48,48,0,0,0,5.18,52.81l.36.45.46.35c4,3.09,7.89,6.39,11.52,9.79l1.27,1.19a157,157,0,0,1,36.29,53,155.74,155.74,0,0,1-117.62,212.9A156.64,156.64,0,0,1,110.93,595Z"/><path d="M78.65,10a150.68,150.68,0,0,1,123.2,237.42c-2.61,3.71-5.41,7.32-8.33,10.73l-.71.83-.52,1A53,53,0,0,0,198,318.28l.73.89.91.7c3.89,3,7.64,6.18,11.14,9.48l1,1a152,152,0,0,1,35.31,51.49A150.74,150.74,0,0,1,133.31,587.88,151.58,151.58,0,0,1,110.88,590H10V10H78.65m0-10H0V600H111A160.62,160.62,0,0,0,217.66,322.06h0Q212,316.72,205.76,312a43,43,0,0,1-4.64-47.3q4.72-5.52,8.91-11.48A160.68,160.68,0,0,0,78.65,0Z"/><path d="M111,600h-6.23c1,0,2.07,0,3.11,0l3.12,0Z"/><path d="M386.44,398.44V591.56h-268V398.44h268m10-10h-288V601.56h288V388.44Z"/><g class="cls-3"><rect class="cls-4" x="113.44" y="393.44" width="278" height="203.12"/><path d="M386.44,398.44V591.56h-268V398.44h268m10-10h-288V601.56h288V388.44Z"/></g></g></g></svg>