<svg id="Layer_1" enable-background="new 0 0 512 512" height="512" viewBox="0 0 512 512" width="512" xmlns="http://www.w3.org/2000/svg"><path d="m308.214 287.067c43.708 0 79.267-35.559 79.267-79.267v-1.066h41.233c25.97 0 47.133-21.004 47.133-47.149 0-20.976-13.778-38.794-32.768-44.881-6.422-64.316-60.853-114.704-126.832-114.704h-.289c-42.909 0-82.926 12.608-116.551 34.307-50.269-31.289-116.248-24.331-158.866 18.287-4.29 4.29-5.565 10.742-3.244 16.347s7.799 9.26 13.866 9.26c27.157 0 49.25 22.094 49.25 49.25 0 0 .005 88.445.005 88.477.201 116.808 93.791 212.119 209.94 215.096 6.938 45.778 46.555 80.976 94.24 80.976h16.083c8.284 0 15-6.716 15-15v-16.067c0-26.602-13.186-50.167-33.35-64.552 20.164-14.385 33.35-37.95 33.35-64.552v-15.496c0-8.284-6.716-15-15-15h-16.645c-47.091 0-86.262 34.532-93.538 79.607-51.067-2.81-91.717-45.05-91.717-97.03 0-62.944 51.291-88.985 74.434-94.509v62.665c-.001 8.285 6.715 15.001 14.999 15.001zm95.821 64.266h1.645v.496c0 27.166-22.101 49.267-49.267 49.267h-15.382c6.782-28.502 32.457-49.763 63.004-49.763zm-47.621 80.334c27.166 0 49.267 22.101 49.267 49.267v1.066h-1.083c-30.859 0-56.788-21.509-63.581-50.333zm1.067-223.867c0 21.938-14.413 40.573-34.267 46.933v-47.999h34.267zm-271.722-151.64c43.758-22.906 82.963-4.083 87.371-2.032-17.83 15.811-33.054 34.564-44.795 55.25-5.487-23.437-21.407-42.903-42.576-53.218zm103.021 247.759c0 20.835 4.976 40.903 14.367 58.852-44.199-33.946-72.733-87.313-72.733-147.227 0-102.309 83.235-185.544 185.544-185.544h.289c53.743 0 97.467 43.724 97.467 97.467 0 8.284 6.732 15 15.016 15 9.438 0 17.117 7.679 17.117 17.133 0 4.577-1.781 8.875-5.021 12.112-3.238 3.238-7.54 5.021-12.112 5.021h-112.756c-70.235 0-127.178 56.824-127.178 127.186z"/><circle cx="356.417" cy="111.4" r="15"/></svg>