<svg xmlns="http://www.w3.org/2000/svg" xmlns:xlink="http://www.w3.org/1999/xlink" width="1440" height="900" viewBox="0 0 1440 900">
  <defs>
    <clipPath id="clip-path">
      <path id="Clip_38" data-name="Clip 38" d="M0,0H54V54H0Z" fill="none"/>
    </clipPath>
    <clipPath id="clip-path-2">
      <path id="Clip_127" data-name="Clip 127" d="M0,0H19V36H0Z" fill="none"/>
    </clipPath>
    <clipPath id="clip-path-3">
      <path id="action_search_24px" data-name="action/search_24px" d="M21.334,23.32h0l-6.666-6.652V15.613l-.36-.373a8.678,8.678,0,1,1,.934-.934l.373.36h1.054l6.653,6.667-1.985,1.985ZM8.666,2.666a6,6,0,1,0,6,6A6.007,6.007,0,0,0,8.666,2.666Z" transform="translate(0 0)" fill="#7e8793"/>
    </clipPath>
    <clipPath id="clip-G-Search_Main">
      <rect width="1440" height="900"/>
    </clipPath>
  </defs>
  <g id="G-Search_Main" clip-path="url(#clip-G-Search_Main)">
    <rect width="1440" height="900" fill="#fff"/>
    <rect id="Rectangle" width="1440" height="900" fill="#f3f6fa"/>
    <path id="Polygon" d="M220.872,45.245A100,100,0,0,1,328.45,25.093L702.11,180.387a100,100,0,0,1,61.568,89.037l8.494,256.851a100,100,0,0,1-81.226,101.538L276.037,706.878A100,100,0,0,1,165.217,647.6L26.841,320.429a100,100,0,0,1,22.9-111.144Z" transform="translate(601 80)" fill="#d5e5f9" opacity="0.5"/>
    <path id="Polygon_Copy" data-name="Polygon Copy" d="M33.206,32.032A70.152,70.152,0,0,1,108.978,17.8l32.893,13.757a78.979,78.979,0,0,1,48.463,70.269h0a59.363,59.363,0,0,1-48.151,60.25l-31.7,6.079a77.569,77.569,0,0,1-86.118-46.126L17.877,106.6A67.347,67.347,0,0,1,33.206,32.032Z" transform="translate(1008 156) rotate(-30)" fill="#f3e1d1" opacity="0.5"/>
    <path id="Polygon_Copy_2" data-name="Polygon Copy 2" d="M29.056,27.761A61.649,61.649,0,0,1,95.238,15.38l29.232,12.109a68.218,68.218,0,0,1,42.073,60.762h0a51.34,51.34,0,0,1-41.732,52.141l-28.558,5.424a67.682,67.682,0,0,1-74.934-40.055L15.7,92.515A58.146,58.146,0,0,1,29.056,27.761Z" transform="translate(556.355 632) rotate(20)" fill="#d7eaf2" opacity="0.5"/>
    <g id="Group_353" data-name="Group 353" transform="translate(120 296)">
      <path id="Fill_1" data-name="Fill 1" d="M39.545,83.208q3.047-4.541,6.056-9.1l-35.955,9.1H.605c.069-6.342.046-15.782.027-21.185C.59,49.667.4,37.333,0,25.041c3.5-1.589,17.05-9.568,22.359-11.928q8.331-3.7,16.886-6.627c5.8-1.982,11.679-3.742,17.569-5.115A40.9,40.9,0,0,1,73.467.511C90.484,3.635,100.973,20.085,118.6,20.755c11.086.42,18.192-6.237,28.324-9.864A33.958,33.958,0,0,1,160.7,9.032c9.139.615,17.268,4.349,24.964,8.118C193.451,20.965,230.828,40.8,237,45.758,229.563,54.13,186.814,85.61,186.509,86c-.752-.428-30.456-20.5-31.818-21.211l-7.406,18.419Z" transform="translate(720 48)" fill="#a74ac2"/>
      <path id="Fill_3" data-name="Fill 3" d="M23.673,1.045l4.572,4.122L30.3,7.021c.578.523,1.439,1.155,1.449,2.008.016,1.367-1.91,2.21-2.913,2.779-1.209.686-2.431,1.352-3.657,2.007-5.462,2.919-11.019,5.661-16.52,8.509C5.85,23.78,3.044,25.254.3,26.84a.622.622,0,0,0,.632,1.071c5.5-3.183,11.226-5.989,16.889-8.878,2.933-1.5,5.865-3,8.763-4.561,1.191-.642,2.378-1.294,3.548-1.972,1.2-.7,2.619-1.623,2.839-3.1.281-1.886-1.709-3.187-2.927-4.285L24.559.168c-.6-.536-1.484.338-.886.877" transform="translate(836 61)" fill="#1f233d"/>
      <path id="Fill_5" data-name="Fill 5" d="M5.588,20.183C4.612,16.332,3.267,12.6,2.2,8.774c-.247-.889-.486-1.783-.687-2.686-.185-.826-.7-2.363.175-2.819a8.836,8.836,0,0,1,1.964-.522l1.863-.459,4.048-1C10.326,1.1,10-.169,9.245.019L2.5,1.679C1.633,1.893.661,2.064.219,3.02a4.228,4.228,0,0,0-.057,2.5,86.687,86.687,0,0,0,2.8,10.022C3.468,17.2,4,18.849,4.422,20.534a.609.609,0,1,0,1.166-.351" transform="translate(821 67)" fill="#1f233d"/>
      <path id="Fill_7" data-name="Fill 7" d="M3.836,41.386A199.808,199.808,0,0,0,2.576,9.443Q2.033,4.939,1.29.461C1.157-.346-.123,0,.01.8A198.935,198.935,0,0,1,2.673,32.335q.02,4.526-.166,9.051c-.033.819,1.3.818,1.328,0" transform="translate(735 87)" fill="#1f233d"/>
      <path id="Fill_9" data-name="Fill 9" d="M45.215.026A68.406,68.406,0,0,0,23.387,10.2,68.668,68.668,0,0,0,7.254,26.846a99.272,99.272,0,0,0-7.181,12.2c-.364.725.729,1.366,1.095.638A86.509,86.509,0,0,1,14.54,19.74,62.466,62.466,0,0,1,32.564,6.148a71.643,71.643,0,0,1,12.988-4.9A.633.633,0,0,0,45.215.026" transform="translate(884 79)" fill="#1f233d"/>
      <path id="Fill_11" data-name="Fill 11" d="M32.793,63H0C13.893,43.032,35,19.666,52.249,2.5c1.375-1.367,3.241-.8,2.6.832a1.428,1.428,0,0,1,.35,0,10.6,10.6,0,0,0,6.161-1.274C63.446,1.033,65.52-.024,67.711.186a1.6,1.6,0,0,1,.339.069c1.2-.849,2.664.588,1.557,1.932-3.384,4.108-6.494,8.48-9.5,12.824s-5.839,8.784-8.55,13.275c-5.478,9.072-10.406,18.373-15.152,27.724C35.384,58.025,33.8,60.979,32.793,63" transform="translate(784 68)" fill="#fff"/>
      <path id="Fill_13" data-name="Fill 13" d="M16.757,0,19,11.855s-3.594,7.552-10.575,9.567S0,19.538,0,19.538V3.818Z" transform="translate(836 52)" fill="#e6775c"/>
      <path id="Fill_15" data-name="Fill 15" d="M22.312,4.7C18.645,1.588,13.981-.448,9.249.085,4.923.571.546,3.774.039,8.7c-.446,4.334,2.987,8.172,6.755,9.043,4.308,1,9-1.076,12.225-4.116a8.838,8.838,0,0,0,2.969-5.791,1.9,1.9,0,0,0,.325-3.14" transform="translate(827 13)" fill="#1f233d"/>
      <path id="Fill_17" data-name="Fill 17" d="M35.909,11.751a12.56,12.56,0,0,0-.451-2.288C32.824.687,22.113-1.365,14.494.79A16.37,16.37,0,0,0,3.747,11c-1.4,3.566-1.592,6.678-2.028,9.266C.868,25.322.494,27.811.085,32.444c-.468,5.3.861,10.542,7.454,11.436,6.714.91,13.522-3.513,18.361-8.1,5.824-5.525,9.244-11.887,9.987-19.956a20.686,20.686,0,0,0,.022-4.071" transform="translate(829 17)" fill="#e6775c"/>
      <path id="Fill_19" data-name="Fill 19" d="M.307,8.046q1.157.083,2.318.249A27.852,27.852,0,0,1,5.84,3.244C7.367,1.35,10.262-1.1,12.78.541a4,4,0,0,1,1.488,3.471c0,.052,0,.1,0,.155a18.142,18.142,0,0,1,4.922-2.9c2.669-1.029,6.263-1.78,8.8-.045,2.906,1.987,2.669,5.991,1.2,8.773a17,17,0,0,1-.9,1.489c2.328-.064,4.992.4,6.461,2.309,2.031,2.635.51,5.874-1.455,7.969-.186.2-.379.389-.573.579,1.519.379,2.99,1.19,3.255,2.738.455,2.658-5.117,4.222-5.422,4.3.758,3.07-.861,5.925-2.4,7.766C26.726,38.85,18.075,47.4,18.075,47.4L17.319,53a10.6,10.6,0,0,1-3.363-12.855c.478.082,2.891-3.719,2.891-3.719s3.26-4.475,4.379-6.067a7.466,7.466,0,0,1-2.886-3.777,6.442,6.442,0,0,1-.322-2.36c-.2.059-.4.114-.61.16a7.63,7.63,0,0,1-5.176-.346,3.24,3.24,0,0,1-1.755-2.972,8.7,8.7,0,0,1-3.028-.09,5.828,5.828,0,0,1-4.194-3.921c-.034-.1-.052-.2-.081-.293a4.067,4.067,0,0,1-.967-.953,3.92,3.92,0,0,1-.27-.427,1.357,1.357,0,0,1-.491.1A1.451,1.451,0,0,1,0,14.068c-.038-.982.218-5.031.3-6.022" transform="translate(837 7)" fill="#1f233d"/>
      <path id="Fill_21" data-name="Fill 21" d="M17.258,13.9c1.464-.87,3.012-1.857,3.563-3.524a3.036,3.036,0,0,0-1.415-3.759c-1.425-.722-3.176-.459-4.694-.253a34.717,34.717,0,0,0-6.36,1.488L8.981,8.9C10.178,7.434,15.4.937,11.242.071,9.56-.279,7.625.747,6.131,1.357A48.374,48.374,0,0,0,.31,4.2.632.632,0,0,0,.963,5.284c1.386-.8,2.809-1.528,4.271-2.183A27.017,27.017,0,0,1,9.787,1.373c.492-.119,1.329-.276,1.654.215.419.633-.368,1.761-.666,2.33a24.612,24.612,0,0,1-2.708,4.1c-.357.439-.049,1.274.629,1.048a34.7,34.7,0,0,1,4.6-1.205,16.139,16.139,0,0,1,4.334-.432c1.429.131,2.411,1.062,1.983,2.511-.408,1.383-1.821,2.18-3,2.883a.632.632,0,0,0,.652,1.082" transform="translate(846 15)" fill="#6772b5"/>
      <path id="Fill_23" data-name="Fill 23" d="M11,0H0S.209,5,4.771,5,11,0,11,0" transform="translate(833 48)" fill="#fff"/>
      <path id="Fill_25" data-name="Fill 25" d="M.639,4a23.748,23.748,0,0,0,5.87-.865,21.965,21.965,0,0,0,5.176-1.977c.727-.41.063-1.477-.668-1.064a20.53,20.53,0,0,1-4.86,1.853,22.25,22.25,0,0,1-5.518.822A.616.616,0,1,0,.639,4" transform="translate(836 58)" fill="#1f233d"/>
      <path id="Fill_27" data-name="Fill 27" d="M3.71.01C7.288-.155,9.859,1.788,9.995,3.538c.112,1.448-1.557,1.78-4.118,1.174C3.09,4.053,1.01,5.815.2,3.528-.44,1.7.36.164,3.71.01" transform="translate(844 33)" fill="#1f233d"/>
      <path id="Fill_29" data-name="Fill 29" d="M4.087.1A8.206,8.206,0,0,0,1.257,1.2C-.831,2.4-.091,6.453,1.82,5.958,3.808,5.443,7.6,5.7,7.954,3.12,8.238,1.058,7.23-.4,4.087.1" transform="translate(834 27)" fill="#1f233d"/>
      <path id="Fill_31" data-name="Fill 31" d="M.013,5.132A5.5,5.5,0,1,0,5.868.013,5.5,5.5,0,0,0,.013,5.132" transform="translate(849 39)" fill="#e6775c"/>
      <path id="Fill_33" data-name="Fill 33" d="M2.533.048C4.78.614,3.938,3.57,3.312,4.689A1.976,1.976,0,0,1,1.174,5.946C-.305,5.552-.058,3.64.181,2.644c.267-1.112.88-2.966,2.352-2.6" transform="translate(836 34)" fill="#1f233d"/>
      <path id="Fill_35" data-name="Fill 35" d="M.493,38.3,24.7.1A.216.216,0,0,1,25,.038l5.9,4.056a.236.236,0,0,1,.063.318L6.758,42.606a2.907,2.907,0,0,1-4.129.88L1.338,42.6a3.185,3.185,0,0,1-.845-4.3" transform="translate(782 39)" fill="#1f233d"/>
      <g id="Group_39" data-name="Group 39" transform="translate(793)">
        <path id="Clip_38-2" data-name="Clip 38" d="M0,0H54V54H0Z" fill="none"/>
        <g id="Group_39-2" data-name="Group 39" clip-path="url(#clip-path)">
          <path id="Fill_37" data-name="Fill 37" d="M12.125,49.53a27,27,0,1,1,37.4-7.655,27,27,0,0,1-37.4,7.655" transform="translate(0 0)" fill="#1f233d"/>
        </g>
      </g>
      <path id="Fill_40" data-name="Fill 40" d="M10.1,41.275A22.5,22.5,0,1,1,41.274,34.9,22.5,22.5,0,0,1,10.1,41.275" transform="translate(797 4)" fill="#e6775c"/>
      <path id="Fill_42" data-name="Fill 42" d="M2,7.38V.62c0-.827-2-.828-2,0V7.38c0,.827,2,.828,2,0" transform="translate(819 10)" fill="#1f233d"/>
      <path id="Fill_44" data-name="Fill 44" d="M2.975,7.087Q2.07,3.809,1.164.529C1.063.16.758-.082.438.026A.759.759,0,0,0,.025.913l1.81,6.558c.1.369.407.611.727.5a.759.759,0,0,0,.412-.887" transform="translate(807 12)" fill="#1f233d"/>
      <path id="Fill_46" data-name="Fill 46" d="M1.165,7.47q.9-3.278,1.81-6.557A.76.76,0,0,0,2.562.026c-.323-.108-.624.133-.727.5Q.931,3.809.025,7.087a.76.76,0,0,0,.413.887c.323.109.624-.133.727-.5" transform="translate(828 12)" fill="#1f233d"/>
      <path id="Fill_48" data-name="Fill 48" d="M0,.62V7.38c0,.827,2,.828,2,0V.62c0-.827-2-.828-2,0" transform="translate(819 37)" fill="#1f233d"/>
      <path id="Fill_50" data-name="Fill 50" d="M.025.913q.9,3.279,1.81,6.558c.1.369.406.611.727.5a.759.759,0,0,0,.412-.887L1.165.529C1.063.161.758-.082.438.026A.759.759,0,0,0,.025.913" transform="translate(829 36)" fill="#1f233d"/>
      <path id="Fill_52" data-name="Fill 52" d="M1.835.53Q.931,3.808.025,7.087a.76.76,0,0,0,.413.887c.323.108.624-.133.727-.5q.9-3.279,1.81-6.557A.76.76,0,0,0,2.562.026c-.323-.109-.624.133-.727.5" transform="translate(807 36)" fill="#1f233d"/>
      <path id="Fill_54" data-name="Fill 54" d="M.512,15.69A33.7,33.7,0,0,0,22.363,24c11.385,0,19.474-6.6,22.326-9.321A20.869,20.869,0,0,0,44.9,9.1V9.093C40.873,5.548,32.975,0,23.048,0,11.942,0,3.5,6.048.107,8.933A21.222,21.222,0,0,0,.512,15.69" transform="translate(797 16)" fill="#fff"/>
      <path id="Fill_56" data-name="Fill 56" d="M0,9.5A9.5,9.5,0,1,0,9.5,0,9.5,9.5,0,0,0,0,9.5" transform="translate(810 18)" fill="#4262ff"/>
      <path id="Fill_58" data-name="Fill 58" d="M5.909,1.984A4.242,4.242,0,0,0,.326.506a.694.694,0,0,0-.238.927A.67.67,0,0,0,1,1.675a2.954,2.954,0,0,1,.276-.141c-.111.049.019-.005.041-.013.049-.016.1-.034.146-.049.1-.03.2-.056.3-.077l.151-.028c.077-.014-.092,0,.037,0a4.338,4.338,0,0,1,.615-.006c.051,0,.1.009.154.015.111.013-.153-.034.037.007.1.022.2.04.3.066s.2.057.3.091l.117.043c.182.067-.105-.058.069.03a4.381,4.381,0,0,1,.509.293c.043.029.085.059.126.09-.094-.071.016.015.033.03.077.068.153.138.224.212s.14.152.2.234c.044.056-.038-.063.025.039.033.053.069.1.1.159a.673.673,0,0,0,.911.243.692.692,0,0,0,.239-.927" transform="translate(845 39)" fill="#1f233d"/>
      <path id="Fill_60" data-name="Fill 60" d="M1.656,1.035c-.052-.14.012.046.016.06q.022.072.04.143.041.159.067.322c0,.019.022.183.013.086s.005.088.005.087c.007.1.009.2.008.3s-.016.221-.017.331c0,.083.018-.107,0,.025-.01.06-.018.119-.029.179a4.641,4.641,0,0,1-.159.609c-.034.1.061-.143-.011.03-.019.045-.037.091-.057.136q-.065.148-.141.29c-.046.086-.1.168-.147.25.075-.119-.027.037-.036.049-.028.038-.057.075-.087.113q-.1.121-.2.232c-.026.027-.053.052-.079.079-.123.125.093-.067-.043.039a3.223,3.223,0,0,1-.5.327.758.758,0,0,0-.215.947A.572.572,0,0,0,.9,5.918,4.069,4.069,0,0,0,2.756,3.545,4.829,4.829,0,0,0,2.693.337.563.563,0,0,0,1.871.088a.774.774,0,0,0-.216.947" transform="translate(855 42)" fill="#1f233d"/>
      <path id="Fill_62" data-name="Fill 62" d="M26.925.219,6.137,25.581.154,32.88c-.52.634.4,1.541.921.9L21.863,8.419l5.983-7.3c.52-.634-.4-1.541-.921-.9" transform="translate(763 91)" fill="#1f233d"/>
      <path id="Fill_64" data-name="Fill 64" d="M11.7,8.711A79.075,79.075,0,0,1,1.132.187a.669.669,0,0,0-.926.964A81.049,81.049,0,0,0,11.036,9.888c.709.478,1.367-.7.661-1.177" transform="translate(863 103)" fill="#1f233d"/>
      <path id="Fill_66" data-name="Fill 66" d="M48.293,21.172c11.577-4.986,23.48-8.952,33.775-12.608C92.685,4.795,109.5-1.148,118.293.193a43.176,43.176,0,0,1,7.48,2.188c2.329.8,4.639,1.663,6.915,2.6,1.594.659,3.126,1.4,4.638,2.184,1.544.715,3.061,1.471,4.537,2.262a6.045,6.045,0,0,1,2.831,2.641,3.829,3.829,0,0,1-.842,4.169c-2.024,2.2-5.3,2.584-8.092,1.949a20.166,20.166,0,0,1-2.338-.7,35.764,35.764,0,0,1-.219,8.577,9.24,9.24,0,0,1-1.559,4.179,2.8,2.8,0,0,1-3.4,1.053c-.741,2.234-2.3,4.976-4.753,5.23-1.815.188-2.787-1.2-3.58-2.588a22.113,22.113,0,0,1-1.744-3.862c-.08-.233-.15-.47-.224-.706a1.38,1.38,0,0,1-.635.568c-4.65,2.17-13.883,1.6-13.883,1.6S67,55.361,57.187,60.836c-2.754,1.535-7.668,4.295-7.668,4.295L49.534,90H12.574c-7.125-5.492-18.821-22.673-8.5-39.06,9.3-14.765,26.628-22.193,44.216-29.768" transform="translate(671 42)" fill="#e6775c"/>
      <path id="Fill_68" data-name="Fill 68" d="M15.048.076.319,7.792C-.4,8.17.231,9.3.952,8.924L15.681,1.208C16.4.829,15.769-.3,15.048.076" transform="translate(705 105)" fill="#1f233d"/>
      <path id="Fill_70" data-name="Fill 70" d="M7.984,13.222A27.473,27.473,0,0,0,1.065.193c-.555-.586-1.444.3-.89.88a26.254,26.254,0,0,1,6.6,12.481c.17.782,1.384.451,1.213-.331" transform="translate(797 45)" fill="#1f233d"/>
      <path id="Fill_72" data-name="Fill 72" d="M5,18.381A50.174,50.174,0,0,0,1.125.336C.809-.42-.257.233.057.984a48.459,48.459,0,0,1,3.705,17.4.619.619,0,1,0,1.237,0" transform="translate(794 53)" fill="#1f233d"/>
      <path id="Fill_74" data-name="Fill 74" d="M.085,9.774c.027,1.078-.115,2.289.539,3.218a4.439,4.439,0,0,0,2.943,1.46,20.754,20.754,0,0,0,3.138.5,15.031,15.031,0,0,0,11.351-3.907,20.7,20.7,0,0,0,3.961-4.464,5.028,5.028,0,0,0,.941-3.3,2.2,2.2,0,0,0-1.241-1.607,2.481,2.481,0,0,0-.36-.735A2.8,2.8,0,0,0,17.872.33,31.186,31.186,0,0,1,11.6,2.215c-2.054.381-4.128.642-6.183,1.012-1.069.192-2.135.413-3.184.7C.895,4.281-.032,4.8,0,6.358.025,7.5.056,8.635.085,9.774" transform="translate(836 60)" fill="#fff"/>
      <path id="Fill_76" data-name="Fill 76" d="M17.988,1.164A18.163,18.163,0,0,1,.973.109.624.624,0,1,0,.3,1.157,19.624,19.624,0,0,0,18.663,2.212c.765-.359.09-1.407-.675-1.048" transform="translate(834 71)" fill="#1f233d"/>
      <path id="Fill_78" data-name="Fill 78" d="M6.953,18.347A27.2,27.2,0,0,0,1.387.3C.851-.408-.41.269.133.983A26.058,26.058,0,0,1,5.5,18.347c-.052.872,1.4.87,1.453,0" transform="translate(841 10)" fill="#6772b5"/>
      <path id="Fill_80" data-name="Fill 80" d="M146.591,209.556c8-6.266,16.351-12.127,23.961-18.88q12.476-11.071,24.288-22.866,6.725-6.742,13.159-13.772-4.525-2.171-9.069-4.3-15.4-7.194-31.064-13.8-15.727-6.647-31.687-12.725-15.886-6.051-31.983-11.529-5.85-1.988-11.729-3.891,2.245-2.128,4.489-4.258,9.38-8.848,18.862-17.59,19.169-17.673,38.708-34.94,9.032-7.988,18.145-15.887a1.678,1.678,0,0,0,.995-.866c.978-.848,1.952-1.7,2.931-2.548a1.583,1.583,0,0,0,.354-2.153,1.564,1.564,0,0,0-2.16-.353c-.711.606-1.416,1.219-2.126,1.826-2.453-4.4-6.361-7.818-10.3-10.916C157.01,15.9,151.6,11.766,146.212,7.6q-4.753-3.668-9.543-7.287a1.515,1.515,0,0,0-2.348,1.654A362.425,362.425,0,0,0,38.674,65.4,206.715,206.715,0,0,0,18.4,86.317c-6,7.332-11.406,15.438-14.82,24.306-3.383,8.789-4.908,18.61-2.178,27.785,2.4,8.055,8.2,14.506,15.148,19.042S119.981,207.035,138.762,216c2.542-2.221,5.165-4.359,7.829-6.444" transform="translate(637 158)" fill="#4262ff"/>
      <path id="Fill_82" data-name="Fill 82" d="M.329,1.161q13.713,6.017,27.9,10.8c.769.259,1.1-.974.334-1.231Q14.544,6.01.964.059C.229-.264-.412.836.329,1.161" transform="translate(700 254)" fill="#1f233d"/>
      <path id="Fill_84" data-name="Fill 84" d="M.2,1.092,17.887,17.819c.6.571,1.519-.339.914-.911L1.113.181C.51-.389-.407.519.2,1.092" transform="translate(705 239)" fill="#1f233d"/>
      <path id="Fill_86" data-name="Fill 86" d="M89.8,4.323a71.616,71.616,0,0,0-12.235-.538C77.14,2.773,76.7,1.768,76.229.774,75.517-.734,73.1.169,73.8,1.712q.495,1.094.951,2.2c-1.8.107-3.6.251-5.386.423-6.8.654-13.548,1.787-20.253,3.1-2.488.487-4.973,1-7.455,1.514q.329-1.26.66-2.519c.389-1.479-2.157-2.249-2.6-.764-.387,1.307-.766,2.616-1.145,3.925l-.73.152a1.561,1.561,0,0,0-1.336,1.677,1.615,1.615,0,0,0,1.16,1.325c-3.575,12.562-6.8,25.229-9.816,37.936q-5.362,22.57-9.763,45.354-4.427,22.888-7.895,45.949T4.226,188.222c-1.581,14.7-2.978,29.441-3.859,44.2a1.81,1.81,0,0,0-.043.7c-.026.443-.056.886-.081,1.328Q.077,237.4,0,240.349c-.05,1.831,2.7,2.364,2.885.438.214-2.23.4-4.462.577-6.7a213.489,213.489,0,0,0,27.49-6.785,212.7,212.7,0,0,0,27.631-11c2.276-1.1,4.539-2.227,6.772-3.412q-.318,1.95-.634,3.9c-.3,1.87-.568,3.737-.777,5.621a1.465,1.465,0,0,0,2.9.44c.871-3.963,1.561-7.975,2.2-11.994,1.484-.851,2.951-1.732,4.39-2.659,1.351-.87.107-3.284-1.353-2.522q-1.214.634-2.424,1.275c.324-2.092.646-4.183.983-6.267q1.8-11.106,3.51-22.226c2.268-14.821,4.364-29.671,6.117-44.564,1.75-14.87,3.154-29.783,4.036-44.732.86-14.589,1.351-29.259.9-43.873-.4-12.95-1.857-26.08-6.364-38.29,3.514-.076,7.033,0,10.544.121a1.453,1.453,0,0,0,1.6-1.188A1.432,1.432,0,0,0,89.8,4.323" transform="translate(758 148)" fill="#4262ff"/>
      <path id="Fill_88" data-name="Fill 88" d="M.211.6A29.479,29.479,0,0,0,8.3,24.37a27.228,27.228,0,0,0,5.77,4.54.631.631,0,0,0,.63-1.092A28.047,28.047,0,0,1,1.493,7.674,26.834,26.834,0,0,1,1.459.6C1.561-.2.311-.2.211.6" transform="translate(809 194)" fill="#1f233d"/>
      <path id="Fill_90" data-name="Fill 90" d="M10.685.611,6.51,49.382,2.348,97.995Q1.175,111.692,0,125.389c-.07.816,1.242.812,1.312,0Q3.4,101,5.49,76.618L9.652,28.005,12,.611c.07-.816-1.242-.812-1.312,0" transform="translate(815 193)" fill="#1f233d"/>
      <path id="Fill_92" data-name="Fill 92" d="M1.27,77.541Q3.505,62.82,5.763,48.1q2.391-15.615,4.78-31.232Q11.77,8.834,12.992.8c.122-.8-1.139-1.143-1.261-.337Q9.494,15.18,7.238,29.9,4.847,45.514,2.458,61.13,1.231,69.166.008,77.2c-.121.8,1.139,1.143,1.261.337" transform="translate(758 280)" fill="#1f233d"/>
      <path id="Fill_94" data-name="Fill 94" d="M3.659.478.015,18.169c-.172.834,1.153,1.191,1.325.353Q3.162,9.676,4.985.831C5.156,0,3.831-.36,3.659.478" transform="translate(781 200)" fill="#1f233d"/>
      <path id="Fill_96" data-name="Fill 96" d="M1.184,4.361c0-.171.01-.34.026-.51-.009.093,0,.031,0-.027.005-.037.011-.075.018-.112.015-.084.031-.167.05-.249a5.008,5.008,0,0,1,.14-.487c.015-.045.032-.088.048-.132.036-.1-.058.133.014-.03.034-.077.067-.154.1-.229a4.769,4.769,0,0,1,.244-.438c.044-.07.089-.14.138-.207-.036.05-.027.036.005,0l.085-.108a4.134,4.134,0,0,1,.331-.363c.058-.057.12-.111.179-.166-.044.041-.035.027.005,0s.086-.066.129-.1A.682.682,0,0,0,2.917.321a.576.576,0,0,0-.81-.229A5.352,5.352,0,0,0,0,4.361.623.623,0,0,0,.592,5a.628.628,0,0,0,.592-.639" transform="translate(834 63)" fill="#1f233d"/>
      <path id="Fill_98" data-name="Fill 98" d="M.82,1.274a3.6,3.6,0,0,1,1.4.085A3.406,3.406,0,0,1,3.5,2,3.286,3.286,0,0,1,4.7,4.373.652.652,0,0,0,5.35,5,.645.645,0,0,0,6,4.373,4.5,4.5,0,0,0,4.363,1.065a4.933,4.933,0,0,0-3.889-1A.63.63,0,0,0,.02.836a.669.669,0,0,0,.8.438" transform="translate(854 58)" fill="#1f233d"/>
      <g id="Rectangle-2" data-name="Rectangle" transform="translate(0 131)" fill="#fff" stroke="#222" stroke-miterlimit="10" stroke-width="1">
        <rect width="1064" height="64" rx="32" stroke="none"/>
        <rect x="0.5" y="0.5" width="1063" height="63" rx="31.5" fill="none"/>
      </g>
      <path id="Fill_110" data-name="Fill 110" d="M.778,53.053A5.183,5.183,0,0,0,5.9,54.583a30.872,30.872,0,0,0,10-3.973q.624-.374,1.231-.77c.069.683,1.3,13.321,2.487,16.173.887,2.127,2.841,4.6,5.464,3.525,2.2-.9,3.082-4.016,3.659-6.094.031-.11.056-.222.086-.333q.573,1.054,1.212,2.072A13,13,0,0,0,33.3,69.14c1.5,1.035,3.555,1.324,4.85-.2,1.22-1.434,1.248-3.739,1.142-5.52A25.464,25.464,0,0,0,38.193,58c.883.915,1.781,1.817,2.714,2.68a6.349,6.349,0,0,0,4.781,2.058,3.853,3.853,0,0,0,3.558-3.383c.209-1.791-.548-3.675-1.048-5.362A83.041,83.041,0,0,0,44.662,44.3a18.329,18.329,0,0,0,8.469-4.476S81.1,42.149,98.916,37.49c3.032-.792,8.085-4.082,9.875-6.705A18.659,18.659,0,0,0,110.478,13C106.412,4.36,97.2-.517,87.153.044,67.675,1.13,33.114,14.965,15.819,31.171a105.177,105.177,0,0,0-14.7,16.453c-1.13,1.638-1.673,3.724-.346,5.429" transform="translate(861 93)" fill="#e6775c"/>
      <path id="Fill_112" data-name="Fill 112" d="M2.888.346a37.627,37.627,0,0,0-2.8,17.013c.058.851,1.275.858,1.216,0A36.149,36.149,0,0,1,3.939,1.02C4.262.244,3.214-.435,2.888.346" transform="translate(877 125)" fill="#1f233d"/>
      <path id="Fill_114" data-name="Fill 114" d="M0,.61Q.578,8,1.153,15.39c.063.811,1.91.816,1.846,0Q2.422,8,1.847.61C1.785-.2-.062-.206,0,.61" transform="translate(887 140)" fill="#1f233d"/>
      <path id="Fill_116" data-name="Fill 116" d="M.01.83l1.8,11.692c.129.837,1.3.482,1.176-.352L1.186.478C1.057-.359-.119,0,.01.83" transform="translate(896 139)" fill="#1f233d"/>
      <path id="Fill_118" data-name="Fill 118" d="M36.5.854c-1.813-1.3-17.135-.985-19.753.081A35.136,35.136,0,0,0,9.807,4.282a11.924,11.924,0,0,0-4.641,6.041,29.277,29.277,0,0,0-1.133,7.76c-.175,2.967-.278,5.939-.291,8.911C3.715,32.932-.731,44.5.1,50.38c.93,6.555,7.316,7.386,9.744,13.559a1.473,1.473,0,0,0,1.743,1.019,2.046,2.046,0,0,0,1.592-1.864c1.819-2.638-5.075-6.915-2.661-9.5,9.845-10.532,13.862-19.811,13.566-27.417-.1-2.684-.421-6.038-1.75-8.358a31.454,31.454,0,0,0,5.955.234c2.55-.159,6.4-.409,7.362-3.269.921-2.735-2.1-4.29-4.256-5.331a22.135,22.135,0,0,0,2.993-.441c1.825-.4,4.009-1.154,4.5-3.184.5-2.064-.777-3.817-2.387-4.973" transform="translate(1175 78)" fill="#ff996b"/>
      <path id="Fill_120" data-name="Fill 120" d="M39.95,55.823c-1.038-2.2-2.131-4.382-3.26-6.541.068-.117.136-.234.2-.352,5.323-9.552.511-20.761-3.7-29.7Q31.435,15.5,29.505,11.86a57.785,57.785,0,0,0-3.806-6.6A12.581,12.581,0,0,0,20.5.789,10.9,10.9,0,0,0,13.936.283C9.145,1.37,5.656,4.807,3.432,9.063A35.949,35.949,0,0,0,.855,15.89a14.049,14.049,0,0,0-.657,6.7A8.022,8.022,0,0,0,.54,23.731,33.421,33.421,0,0,0,.588,35.938a19.557,19.557,0,0,0,2.774,6.727,16.7,16.7,0,0,0,5.4,4.94c.142.084.291.154.435.236a43.933,43.933,0,0,0-1.58,4.646,14.038,14.038,0,0,0-.657,6.7A7.915,7.915,0,0,0,7.3,60.326a33.425,33.425,0,0,0,.048,12.208,19.546,19.546,0,0,0,2.775,6.727,16.7,16.7,0,0,0,5.4,4.939c4.236,2.53,9.355,3.609,14.134,4.595q2.1.434,4.218.78a20.345,20.345,0,0,0,4,.419c2.781-.1,4.531-2.22,5.784-4.468,5.323-9.553.511-20.761-3.7-29.7" transform="translate(1074 72)" fill="#1f233d"/>
      <path id="Fill_122" data-name="Fill 122" d="M40.359,0,0,11.444,2.662,26,44,18.1Z" transform="translate(1182 49)" fill="#1f233d"/>
      <path id="Fill_124" data-name="Fill 124" d="M45,17.852,2.7,22,0,7.739,41.953,0Z" transform="translate(1183 68)" fill="#1f233d"/>
      <g id="Group_128" data-name="Group 128" transform="translate(1216 49)">
        <path id="Clip_127-2" data-name="Clip 127" d="M0,0H19V36H0Z" fill="none"/>
        <g id="Group_128-2" data-name="Group 128" clip-path="url(#clip-path-2)">
          <path id="Fill_126" data-name="Fill 126" d="M.6,19.675c1.837,9.9,7.309,17.171,12.222,16.245s7.407-9.7,5.57-19.6S11.087-.846,6.174.079s-7.407,9.7-5.57,19.6" transform="translate(0)" fill="#1f233d"/>
        </g>
      </g>
      <path id="Fill_129" data-name="Fill 129" d="M4.139.27c-6.124,8.426-5.01,20.056.442,28.51a24.173,24.173,0,0,0,5.532,6.1c.633.487,1.25-.593.626-1.075a25.187,25.187,0,0,1-8-11.572,24.618,24.618,0,0,1-.9-14.046A20.686,20.686,0,0,1,5.209.9C5.68.25,4.605-.372,4.139.27" transform="translate(1215 50)" fill="#6772b5"/>
      <path id="Fill_131" data-name="Fill 131" d="M.509,15.85C2.056,23.822,6.663,29.681,10.8,28.936s6.237-7.812,4.691-15.786S9.336-.681,5.2.064-1.038,7.877.509,15.85" transform="translate(1176 60)" fill="#1f233d"/>
      <path id="Fill_133" data-name="Fill 133" d="M83,23.286,80.826,11.643,78.653,0,2.385,19.207c-1.9.355-2.861,3.724-2.151,7.525s2.823,6.593,4.72,6.238h0Z" transform="translate(1102 64)" fill="#1f233d"/>
      <path id="Fill_135" data-name="Fill 135" d="M.91.445A25.736,25.736,0,0,0,3.816,20.7c.426.686,1.515.055,1.086-.635A24.458,24.458,0,0,1,2.123.779.629.629,0,0,0,.91.445" transform="translate(1176 65)" fill="#6772b5"/>
      <path id="Fill_137" data-name="Fill 137" d="M1.432.3A11.883,11.883,0,0,0,2.965,13.8c.528.595,1.4-.282.872-.874A10.608,10.608,0,0,1,2.5.927C2.883.232,1.818-.392,1.432.3" transform="translate(1102 84)" fill="#6772b5"/>
      <path id="Fill_139" data-name="Fill 139" d="M.652,2l4.106-.452.591-.065A.719.719,0,0,0,6,.742C6,.372,5.7-.036,5.348,0L1.243.454.652.519A.719.719,0,0,0,0,1.258c0,.37.3.778.652.739" transform="translate(1103 96)" fill="#6772b5"/>
      <path id="Fill_141" data-name="Fill 141" d="M.556,15.692C2.064,23.673,6.171,29.609,9.73,28.95s5.221-7.662,3.714-15.642S7.828-.609,4.27.05-.952,7.712.556,15.692" transform="translate(1218 54)" fill="#fff"/>
      <path id="Fill_143" data-name="Fill 143" d="M5.981.406c.64.012,1.286,0,1.938,0L12.005.4q4.2-.01,8.405-.034C25.53.33,30.636.282,35.783,0a24.677,24.677,0,0,0,5.573,10.528c5.276,5.556,14.182,5.844,20.164,10.442A22.591,22.591,0,0,1,70,38c-4.281-.133-67.538-.214-70-.2.118-.725,5.043-30.14,5.981-37.4" transform="translate(1163 416)" fill="#1f233d"/>
      <path id="Fill_145" data-name="Fill 145" d="M.834,3.977l11.69-2.8A.605.605,0,1,0,12.166.023L.476,2.823A.605.605,0,1,0,.834,3.977" transform="translate(1200 430)" fill="#6772b5"/>
      <path id="Fill_147" data-name="Fill 147" d="M.834,3.977l11.69-2.8A.605.605,0,1,0,12.166.023L.476,2.823A.605.605,0,1,0,.834,3.977" transform="translate(1194 427)" fill="#6772b5"/>
      <path id="Fill_149" data-name="Fill 149" d="M6.31,28.371A21.966,21.966,0,0,1,0,25.06C.251,24.489,9.214,4.433,11.237.15,11.914-1.285,24.416,8.044,25,8.622c-1.182,4.389-4.511,14.049-6.225,18.557A17.724,17.724,0,0,1,6.31,28.371" transform="translate(1064 106)" fill="#ff996b"/>
      <path id="Fill_151" data-name="Fill 151" d="M31.568,6.72c2.181,3.067,3.164,10.134,3.265,10.378,1.895,4.578,2.94,5.479,4.347,9.687.022.054.042.108.063.175,2.865,7,2.2,11.7-1.79,13.217-6.352,2.422-16.28-.967-22.067-4.216C8.439,32.049,3.638,26.78,1.063,19.276A19.505,19.505,0,0,1,.105,15.4a12.526,12.526,0,0,1-.087-2.279C.584,4.158,10.58-.273,18.522.013A16.241,16.241,0,0,1,31.568,6.72" transform="translate(1063 74)" fill="#ff996b"/>
      <path id="Fill_153" data-name="Fill 153" d="M.828.022C-.24-.19.8,1.187.3,2.332-.287,3.607.114,4.988.437,6.271q.145.572.318,1.136.087.282.181.562A2.725,2.725,0,0,0,2.394,9.774a1.732,1.732,0,0,0,.893.211,1.685,1.685,0,0,0,.761-.079l.535.028A1.455,1.455,0,0,0,5.231,9.8,9.334,9.334,0,0,0,8.81,7.04C9.436,5.88,8.4,4.608,7.345,3.99,6.219,3.332,2.461.875,1.734.4A2.564,2.564,0,0,0,.828.022" transform="translate(1095 90)" fill="#ff996b"/>
      <path id="Fill_155" data-name="Fill 155" d="M136.075,80.989C135.3,83.474,117.789,200.231,117.162,208h70.855c.824-12.173,1.5-24.358,2.086-36.539.956-19.808,3.308-41.732,3.879-61.542.488-16.928,3.04-35-2.438-51.4-7.457-22.329-28.924-28.961-49.684-33.777C107.537,16.786,36.96,8.92,36.96,8.92,36.789,8.856,15.554,2.829,6.374,0A43.681,43.681,0,0,0,.149,26.338c1.32,15.811,12.2,28.216,25.822,35.306s29.168,9.508,44.123,12c17.742,2.955,62.31,7.045,65.981,7.347" transform="translate(1027 217)" fill="#28594b"/>
      <path id="Fill_157" data-name="Fill 157" d="M69.915,45.671c-4.007-.341-31.09,1.145-34.647,2.7C28.312,51.425,25,59.693,18.695,63.735A22.125,22.125,0,0,1,0,65.857c1.585-3.976,3.044-8.035,4.517-12.071Q10.2,38.223,15.878,22.661q2.84-7.783,5.677-15.566c.848-2.309,1.7-4.616,2.52-6.935,2.976,0,24.242-.36,24.875,0,3.9,2.224,22.459,40.577,20.964,45.511" transform="translate(810 389)" fill="#1f233d"/>
      <path id="Fill_159" data-name="Fill 159" d="M176.191,0s-13.129,9.34-18.514,15.569c-10.4,12.028-15.28,25.149-12.454,40.3a101.824,101.824,0,0,0,3.867,14.381c.451,1.314.929,2.62,1.418,3.921-1.593,3.583-16.533,84.192-19.189,93.461-2.856-.077-119.542-3.738-128.52-3.969C1.736,190.97,1.236,218.3,0,245.6c25.768,1.3,113.786-.921,121.383-1.741a176.267,176.267,0,0,0,20.868-3.171,69.507,69.507,0,0,0,18.385-6.865,65.638,65.638,0,0,0,13.973-10.64,88.371,88.371,0,0,0,19.061-29.022c5.4-12.945,8.181-26.851,9.985-40.712,1.9-14.613,2.958-29.345,4.277-44.02,2.486-27.666,6.607-64.382,9.067-92.05C214.678,15.665,192.993,5.026,176.191,0" transform="translate(855 199)" fill="#28594b"/>
      <path id="Fill_161" data-name="Fill 161" d="M28.485,1.361C24.113-5,11.38,12.866,9.437,15.82c-3.785,5.757-5.974,12.3-7.453,19.005C1.141,38.649.6,42.508.015,46.377a1.014,1.014,0,0,0,.209.827,2.172,2.172,0,0,0,.625,1.4,38.637,38.637,0,0,0,3.078,2.765,12.048,12.048,0,0,1,4.119.232c1.778.372,3.1.764,4.741-.237a9.343,9.343,0,0,0,1.294-.966c1.391-1.724,2.569-3.567,4.066-5.161A49.666,49.666,0,0,0,24.5,34a19.021,19.021,0,0,0,.792-9.3c-.922-1.734-1.977-3.5-2.7-4.642C23.122,19.2,27.484,9.871,28.1,7.9a21.478,21.478,0,0,0,.753-3.121,4.674,4.674,0,0,0-.37-3.42" transform="translate(1164 76)" fill="#ff996b"/>
      <path id="Fill_163" data-name="Fill 163" d="M42.863,7.782c-1.2-1.32-3.11-1.416-4.784-1.193A5.978,5.978,0,0,0,37.538,2c-.594-1.024-3.225-2-5.689-.825A14.771,14.771,0,0,0,28.77,3.312C28.637,1.814,27.989.4,26.3.062a6.1,6.1,0,0,0-3.661.782c-2.745,1.392-5.392,3.9-7.633,5.98a43.766,43.766,0,0,0-7.131,8.551A51.147,51.147,0,0,0,.181,39.046,56.489,56.489,0,0,0,.939,53.939c0,.022.013.041.018.063a1.124,1.124,0,0,0-.126.723,1.318,1.318,0,0,0,.662.973C4.231,58.507,8.55,59.883,12.3,60.612a19.639,19.639,0,0,0,12.117-1.429c1.61-.706-3.575-8.483-1.832-10.26,5.605-5.716,8.66-15.676,9.05-19.191.042-.053.082-.108.125-.16,1.745-2.179,3.595-4.273,5.362-6.435,2.557-3.126,9.613-11.092,5.74-15.356" transform="translate(1106 74)" fill="#ff996b"/>
      <path id="Fill_165" data-name="Fill 165" d="M97.844,0c-.778,1.98-1.494,3.987-2.214,5.989q-1.926,5.357-3.747,10.75Q88.6,26.461,85.67,36.3c-.589-.215-1.179-.429-1.767-.647-3.214-1.2-63.774-19.124-70.2-21.8-6.095-2.538-3.38,2.361-9.775.652C-2.808,12.7.78,30.476,2.567,33.979a92.791,92.791,0,0,0,11.491,17,109.988,109.988,0,0,0,30.374,25.31,104.3,104.3,0,0,0,9.992,4.968c1.863.8,3.75,1.573,5.666,2.256a1.49,1.49,0,0,0,1.2,1.569C77,88.491,94.328,90.446,108.88,82.033c6.615-3.825,11.4-9.748,14.878-16.472,3.616-6.993,6.111-14.623,8.389-22.138A183.146,183.146,0,0,0,138,18.446C124.563,12.4,110.982,6.644,97.844,0" transform="translate(1067 116)" fill="#ffd359"/>
      <path id="Fill_167" data-name="Fill 167" d="M86.16,51.413c1.292-9.376,6.68-16.135,6.84-25.574q-1.755-3.075-3.835-6.014a50.8,50.8,0,0,0-15-14.093C67.53,1.584,63.319-1.467,55.3.738c-4.739,1.3-8.773,4.218-12.185,7.482a83.594,83.594,0,0,0-9.489,11.438A288.9,288.9,0,0,0,15.265,48.213q-4.1,7.28-7.743,14.774C4.535,69.123,0,79.99,0,79.99c1.638.642,47.665,18.991,76.216,29.01,0,0,7.384-39,9.944-57.587" transform="translate(1009 123)" fill="#ffd359"/>
      <path id="Fill_169" data-name="Fill 169" d="M101.959,66.9c-.227-6.853-1.371-13.647-2.333-20.424-2.2-15.5-4.365-31-6.718-46.475Q69.681,1.135,46.427,1.511c-.138.266,1.127,21.507,1.794,31.8q-5.234-5.869-10.624-11.6c-.065-.069-.131-.138-.2-.207a3.142,3.142,0,0,1-1.917-.859c-.364-.354-.741-.675-1.127-.984a2.957,2.957,0,0,1-1.979-.877,45.646,45.646,0,0,0-6.428-4.771c.035.042.067.086.106.125.765.793,1.52,1.594,2.282,2.389a48.742,48.742,0,0,0-5.247-.9,12.473,12.473,0,0,0-6.7,1.039,21.557,21.557,0,0,0-5.125,3.578A34.477,34.477,0,0,0,.234,41.036C-.36,45.523.06,50.409,2.87,54.13a1.344,1.344,0,0,0,1.3.561A123.426,123.426,0,0,0,15.1,67.8,138.537,138.537,0,0,0,30.182,81.551,136.3,136.3,0,0,0,47.547,93.2c6.257,3.516,13.021,6.414,20.175,7.429A33.62,33.62,0,0,0,86.368,98.2,25.41,25.41,0,0,0,99.177,85.189c2.486-5.736,2.987-12.11,2.782-18.29" transform="translate(1053 123)" fill="#ffd359"/>
      <path id="Fill_171" data-name="Fill 171" d="M15.5,6.827C14.253,2.52,10.867-.726,4.878.141A9.778,9.778,0,0,0,0,2.24Q.451,7.716,1.113,13.171c.21,1.712.338,3.48.491,5.252C11.6,23.607,17.871,15.038,15.5,6.827" transform="translate(1103 155)" fill="#1f233d"/>
      <path id="Fill_173" data-name="Fill 173" d="M14.869.754A11.411,11.411,0,0,0,8.857.141c-10.2,1.4-11.9,14.128-3.469,18.278,4.883,2.4,8.923,1.858,11.612-.231A123.009,123.009,0,0,0,14.869.754" transform="translate(1137 157)" fill="#1f233d"/>
      <path id="Fill_175" data-name="Fill 175" d="M18.677,7.186C15.783-3.268-.688-2.2.022,9.648c.3,4.95,5.287,9.471,10.3,9.35,5.52-.133,9.931-6.118,8.355-11.811" transform="translate(1068 150)" fill="#1f233d"/>
      <path id="Fill_177" data-name="Fill 177" d="M3.6.611Q2.286,14.428.97,28.246.487,33.317,0,38.39c-.077.816,1.316.811,1.394,0Q2.714,24.572,4.03,10.755,4.513,5.683,5,.611C5.075-.206,3.68-.2,3.6.611" transform="translate(1066 245)" fill="#1f233d"/>
      <path id="Fill_179" data-name="Fill 179" d="M.125.885C6.384,8.92,13.03,16.649,20.877,23.261c2.329,1.964,4.743,3.829,7.213,5.62.654.475,1.286-.6.639-1.068A122.457,122.457,0,0,1,6.9,7.308C4.954,5,3.071,2.64,1.217.26.73-.364-.369.251.125.885" transform="translate(1061 180)" fill="#1f233d"/>
      <path id="Fill_181" data-name="Fill 181" d="M.432,1.263c9.1,3.543,17.714,9.012,23.289,17.022a36.094,36.094,0,0,1,3.1,5.389c.344.737,1.457.1,1.116-.636C24.2,15.009,17.5,8.7,9.772,4.286a67.336,67.336,0,0,0-9-4.239C0-.253-.332.965.432,1.263" transform="translate(1076 132)" fill="#1f233d"/>
      <path id="Fill_183" data-name="Fill 183" d="M0,.614c1.257,11.674,2.435,23.355,3.6,35.038q.536,5.366,1.078,10.732c.083.816,1.394.824,1.311,0-1.168-11.557-2.3-23.118-3.5-34.672Q1.913,6.162,1.315.614C1.227-.2-.084-.209,0,.614" transform="translate(1100 136)" fill="#1f233d"/>
      <path id="Fill_185" data-name="Fill 185" d="M.013.79c2.64,13.28,4.954,26.887,4.593,40.435a57.347,57.347,0,0,1-1.041,9.986c-.163.792,1.138,1.131,1.3.335A73.883,73.883,0,0,0,5.81,32.69,196.109,196.109,0,0,0,3.349,11.58C2.737,7.861,2.05,4.154,1.315.454,1.157-.341-.145,0,.013.79" transform="translate(1150 151)" fill="#1f233d"/>
      <path id="Fill_187" data-name="Fill 187" d="M.328,1.209,32,16.557l9.029,4.375c.737.357,1.383-.781.641-1.14L10,4.444.97.069C.233-.289-.413.85.328,1.209" transform="translate(1160 130)" fill="#1f233d"/>
      <path id="Fill_189" data-name="Fill 189" d="M.623,3,37.729,1.517l10.647-.425c.829-.033.834-1.124,0-1.091L11.271,1.483.623,1.908C-.205,1.941-.21,3.033.623,3" transform="translate(1100 137)" fill="#1f233d"/>
      <path id="Fill_191" data-name="Fill 191" d="M1.078,12.814,12.82,1.045c.565-.566-.332-1.426-.9-.859L.179,11.955c-.564.565.333,1.426.9.859" transform="translate(1122 77)" fill="#1f233d"/>
      <path id="Fill_193" data-name="Fill 193" d="M1.078,12.814,12.821,1.044c.564-.565-.333-1.425-.9-.859L.179,11.955c-.564.565.333,1.426.9.859" transform="translate(1131 81)" fill="#1f233d"/>
      <path id="Fill_195" data-name="Fill 195" d="M1.344,9.653,5.917,1.036C6.333.252,5.075-.441,4.656.347L.083,8.964c-.416.784.842,1.476,1.26.688" transform="translate(1186 89)" fill="#1f233d"/>
      <path id="Fill_197" data-name="Fill 197" d="M.107.93a13.656,13.656,0,0,1,2.5,6.807,21.24,21.24,0,0,1-1.142,7.485c-.237.781,1.078,1.114,1.315.335A21.922,21.922,0,0,0,3.956,7.519,14.947,14.947,0,0,0,1.285.3C.821-.39-.36.241.107.93" transform="translate(1186 97)" fill="#1f233d"/>
      <path id="Fill_199" data-name="Fill 199" d="M.5,1.395C3.393,2.55,6.245,3.81,9.138,4.965a.684.684,0,0,0,.837-.493A.724.724,0,0,0,9.5,3.605C6.607,2.45,3.754,1.19.863.035A.684.684,0,0,0,.026.528.724.724,0,0,0,.5,1.395" transform="translate(1189 91)" fill="#1f233d"/>
      <path id="Fill_201" data-name="Fill 201" d="M.615,2H69.385c.82,0,.821-2,0-2H.615c-.82,0-.821,2,0,2" transform="translate(1146 407)" fill="#1f233d"/>
      <path id="Fill_203" data-name="Fill 203" d="M1.864.611Q1.5,16.22,1.135,31.827.775,47.232.415,62.638.207,71.514,0,80.389a.569.569,0,1,0,1.136,0q.365-15.607.73-31.215.359-15.406.72-30.811Q2.792,9.487,3,.611a.569.569,0,1,0-1.136,0" transform="translate(874 364)" fill="#1f233d"/>
      <path id="Fill_205" data-name="Fill 205" d="M5.006,0C2.138-.094.1,1.469,0,2.858c-.076,1.15,1.263,1.4,3.31.894,2.225-.548,3.907.832,4.533-.989C8.345,1.305,7.691.1,5.006,0" transform="translate(1088 88)" fill="#1f233d"/>
      <path id="Fill_207" data-name="Fill 207" d="M1.179,2.682a3.634,3.634,0,0,1,.265-.458c.042-.064-.073.084.007-.006.034-.037.065-.076.1-.113.056-.061.115-.12.176-.176.031-.028.065-.053.094-.083.054-.054-.091.064.007-.005.075-.053.149-.107.227-.155s.143-.084.217-.122c.037-.019.075-.036.112-.055-.139.072,0,0,.031-.011a3.067,3.067,0,0,1,.476-.14c.049-.01.1-.018.146-.026-.081.014-.078.008,0,0s.164-.013.246-.013.181,0,.271.011c.02,0,.159.022.061.005s.041.009.061.013a2.628,2.628,0,0,1,.519.163.638.638,0,0,0,.786-.459A.682.682,0,0,0,4.534.244,3.57,3.57,0,0,0,.076,2.018a.685.685,0,0,0,.229.9.637.637,0,0,0,.874-.236" transform="translate(1092 93)" fill="#1f233d"/>
      <path id="Fill_209" data-name="Fill 209" d="M66.953,1.242C57.71-2,49.061,2.127,49.061,2.127a17.331,17.331,0,0,0-5.188,3.557,17.52,17.52,0,0,0-4.387,7.834c-.884,3.337.366,6.481.436,9.826a6.844,6.844,0,0,1-.131,1.475,20.7,20.7,0,0,1-7.043,6.615c-2.522,1.446-13.421,3.6-18.419,9.928a20.716,20.716,0,0,0-4.2,15.16A12.355,12.355,0,0,0,.136,66.635a17.207,17.207,0,0,0,1.786,9.671c3.1,6.575,9.92,10.327,16.776,11.46A19.659,19.659,0,0,0,27.2,87.2a20.667,20.667,0,0,0,2.8-1,13.488,13.488,0,0,0,3.811.72,19.692,19.692,0,0,0,8.369-1.647,15.493,15.493,0,0,0,6.477-4.707,13.029,13.029,0,0,0,2.487-7.449c.079-2.922-.817-5.592-1.659-8.346-.184-.6-.363-1.2-.5-1.816,6.637-2.468,10.721-7.138,11.963-14.137,1.282-7.228-2.438-18.286-.839-19.247,10.346-6.217-.7-10.8,5.694-15.489,5.057-3.711,10.387-9.6,1.144-12.841" transform="translate(1020 69)" fill="#1f233d"/>
      <path id="Fill_211" data-name="Fill 211" d="M.838,9.991C4.084,9.5,6.7,7.506,9.18,5.563c2.643-2.074,5.58-4.349,9.176-4.277a.642.642,0,1,0,0-1.284C11-.145,7.372,7.71.483,8.752-.363,8.88,0,10.118.838,9.991" transform="translate(1071 71)" fill="#6772b5"/>
      <path id="Fill_213" data-name="Fill 213" d="M1.23,11.556A14.838,14.838,0,0,1,13.41,1.305c.783-.082.791-1.385,0-1.3A16.142,16.142,0,0,0,.039,11.21c-.269.79.923,1.13,1.19.346" transform="translate(1030 114)" fill="#6772b5"/>
      <path id="Fill_215" data-name="Fill 215" d="M1.247,27.393a17.4,17.4,0,0,1,8.781-12.776c2.5-1.368,5.208-1.685,7.935-2.285A12.842,12.842,0,0,0,21.9,10.883a10.4,10.4,0,0,0,3-2.95c1.81-2.533,3.28-6.135,6.654-6.692.786-.13.452-1.361-.33-1.232C28.271.5,26.473,3.165,24.96,5.562a14.544,14.544,0,0,1-2.9,3.671,10.221,10.221,0,0,1-4.308,1.84c-2.84.638-5.639.98-8.254,2.388A18.662,18.662,0,0,0,.006,27.393c-.106.813,1.136.8,1.241,0" transform="translate(1039 111)" fill="#6772b5"/>
      <path id="Fill_217" data-name="Fill 217" d="M1.313,18.367a10.676,10.676,0,0,1,2.277-6,16.217,16.217,0,0,1,5.8-3.788C13.336,6.78,17.772,5.093,19.918,1c.394-.752-.736-1.42-1.131-.667C16.474,4.743,11.305,6.092,7.2,8.176a13.439,13.439,0,0,0-5.208,4.14A12.607,12.607,0,0,0,0,18.367c-.079.846,1.231.84,1.31,0" transform="translate(1065 86)" fill="#6772b5"/>
      <path id="Fill_219" data-name="Fill 219" d="M1.17,8.5a6.505,6.505,0,0,0,8.389,1.6A5.093,5.093,0,0,0,10.831,2.5,6.505,6.505,0,0,0,2.442.894,5.092,5.092,0,0,0,1.17,8.5" transform="translate(1077 96)" fill="#ff996b"/>
      <path id="Fill_221" data-name="Fill 221" d="M2.663,4.775a3.13,3.13,0,0,1-.28-.151c-.05-.031-.1-.063-.148-.1.057.042-.01-.008-.028-.024-.089-.076-.176-.154-.257-.238-.032-.034-.063-.068-.094-.1l-.045-.054c.028.034.028.032,0,0-.06-.085-.119-.171-.17-.262-.029-.05-.055-.1-.081-.153-.052-.1.028.074-.016-.03a2.589,2.589,0,0,1-.1-.293c-.015-.055-.028-.111-.04-.167,0-.019-.024-.165-.012-.062a2.416,2.416,0,0,1-.014-.316c0-.047,0-.094.006-.14s.018-.158,0-.069A2.489,2.489,0,0,1,1.564,2c-.034.078.029-.053.036-.066.028-.052.056-.1.087-.155.043-.071.128-.2.15-.225A3.11,3.11,0,0,1,2.3,1.124a.647.647,0,0,0,0-.936.727.727,0,0,0-.975,0,3.384,3.384,0,0,0-1.3,3.017A3.506,3.506,0,0,0,1.968,5.919a.723.723,0,0,0,.943-.238.655.655,0,0,0-.247-.906" transform="translate(1081 98)" fill="#1f233d"/>
      <path id="Fill_223" data-name="Fill 223" d="M.214,1.107A7.583,7.583,0,0,0,7.451,2.671a.661.661,0,0,0,.522-.8.772.772,0,0,0-.919-.454A5.952,5.952,0,0,1,1.27.188a.837.837,0,0,0-1.056,0,.6.6,0,0,0,0,.919" transform="translate(1093 100)" fill="#1f233d"/>
      <path id="Fill_225" data-name="Fill 225" d="M12,10.038a6.472,6.472,0,0,1-2.852,2.415A6.5,6.5,0,1,1,3.91.545,6.423,6.423,0,0,1,6.567,0,6.5,6.5,0,0,0,12,10.038" transform="translate(1076 103)" fill="#ffd359"/>
      <path id="Fill_227" data-name="Fill 227" d="M19.7,6.948C18.713,2.795,15.287-.609,9.365.092,3.02.843-.125,7.225,0,11.987c.2,7.232,9.93,10.573,16.22,5.752A10.659,10.659,0,0,0,19.7,6.948" transform="translate(1107 191)" fill="#1f233d"/>
      <path id="Fill_229" data-name="Fill 229" d="M16.827,3.778A10.493,10.493,0,0,0,5.708.507C-1.485,3.015-1.96,14.585,4.739,18.054c3.938,2.039,8.635.583,11.519-2.469a9.507,9.507,0,0,0,2.736-5.939,8.643,8.643,0,0,0-2.167-5.868" transform="translate(1166 165)" fill="#1f233d"/>
      <path id="Fill_231" data-name="Fill 231" d="M20.842,8.146C19.8,3.222,13.748-.69,8.676.1,3.146.967-1.722,5.989.588,12.489c2.867,8.066,12.64,8.183,17.836,2.847a7.738,7.738,0,0,0,2.418-7.19" transform="translate(1031 164)" fill="#1f233d"/>
      <path id="Fill_233" data-name="Fill 233" d="M.29,13.194C5.181,15.175,10.124,17.016,15.013,19c4.036-1.873,6.975-5.816,5.677-11.151C19.152,1.531,10.94-1.678,5.354.885,1.406,2.7-.368,6.962.063,11.731A11.742,11.742,0,0,0,.29,13.194" transform="translate(1051 197)" fill="#1f233d"/>
      <path id="Fill_235" data-name="Fill 235" d="M23.757.429Q14.5,25.712,5.252,51L.042,65.236c-.279.763.924,1.092,1.2.335Q10.5,40.288,19.748,15L24.958.765c.279-.764-.924-1.093-1.2-.336" transform="translate(817 389)" fill="#6772b5"/>
      <path id="Fill_237" data-name="Fill 237" d="M.02.832,2.733,12.523c.194.836,1.441.482,1.246-.355Q2.624,6.323,1.267.477C1.074-.359-.174,0,.02.832" transform="translate(838 427)" fill="#6772b5"/>
      <path id="Fill_239" data-name="Fill 239" d="M.02.832,2.733,12.523c.194.836,1.441.482,1.247-.355Q2.623,6.323,1.267.477C1.073-.359-.174,0,.02.832" transform="translate(843 424)" fill="#6772b5"/>
      <path id="Fill_241" data-name="Fill 241" d="M.612,2H67.388c.816,0,.817-2,0-2H.612C-.2,0-.2,2,.612,2" transform="translate(1164 447)" fill="#6772b5"/>
      <path id="Fill_243" data-name="Fill 243" d="M.327,1.147Q26.721,12.654,53.78,22.5q7.706,2.8,15.46,5.463c.761.262,1.087-.956.331-1.216Q42.434,17.424,15.9,6.418,8.4,3.305.955.058C.227-.26-.408.827.327,1.147" transform="translate(1015 195)" fill="#1f233d"/>
      <path id="Fill_245" data-name="Fill 245" d="M65,37.8c-2.441-.017-60.757.063-65,.2A22.66,22.66,0,0,1,8.4,20.971c5.93-4.6,14.758-4.886,19.987-10.442A24.755,24.755,0,0,0,33.917,0c5.1.282,10.163.33,15.238.362Q53.322.388,57.487.4l4.051.009c.646,0,1.287.013,1.921,0,.93,7.257,1.424,36.672,1.542,37.4" transform="translate(792 418)" fill="#1f233d"/>
      <path id="Fill_247" data-name="Fill 247" d="M11.662,5.658,1,.076C.24-.321-.425.943.338,1.342L11,6.924c.758.4,1.423-.867.66-1.266" transform="translate(816 432)" fill="#6772b5"/>
      <path id="Fill_249" data-name="Fill 249" d="M11.663,5.658,1,.076C.24-.321-.425.943.338,1.342L11,6.924c.758.4,1.423-.867.66-1.266" transform="translate(821 428)" fill="#6772b5"/>
      <path id="Fill_251" data-name="Fill 251" d="M64.629.052c-13.365.51-26.01,4.985-37.4,11.773a125.746,125.746,0,0,0-11.03,7.39Q15.2,25,14.185,30.78,9.826,55.956,5.6,81.155C3.7,92.514,1.805,103.876,0,115.25c30.13,3.4,60.244,8.061,90.478,10.75q.662-8.078,1.306-16.158c.879-11.17,1.707-22.346,2.544-33.52s1.68-22.347,2.513-33.521q1.175-15.788,2.351-31.576c.512.029,1.476.054,2.807.074C92.162,2.483,77.52-.439,64.629.052" transform="translate(792 302)" fill="#ad462d"/>
      <path id="Fill_253" data-name="Fill 253" d="M.6,1.312,33.613,5.86l33.169,4.569L85.4,12.993c.806.112.8-1.195,0-1.305L52.387,7.141,19.219,2.571.6.007C-.2-.1-.2,1.2.6,1.312" transform="translate(797 393)" fill="#1f233d"/>
      <path id="Fill_255" data-name="Fill 255" d="M139.585,0S39.924,86.874,39.867,86.889c-8.322,2.358-16-.271-24.372,1.025C8.321,89.024,2.373,93.04,0,99.574L50.814,125,147,36.495Z" transform="translate(691 331)" fill="#1f233d"/>
      <path id="Fill_257" data-name="Fill 257" d="M7.884,9.127,1.229.267C.756-.363-.361.238.116.873L6.771,9.734c.472.629,1.59.028,1.113-.607" transform="translate(725 419)" fill="#6772b5"/>
      <path id="Fill_259" data-name="Fill 259" d="M7.884,9.127,1.229.267C.756-.363-.361.238.116.873L6.771,9.734c.472.629,1.59.028,1.113-.607" transform="translate(730 418)" fill="#6772b5"/>
      <path id="Fill_261" data-name="Fill 261" d="M31.572,2.251a149.032,149.032,0,0,0-8.278,12.9Q19.454,21.7,16.1,28.528A194.757,194.757,0,0,0,0,73.48C-.334,75.057,24.2,72.692,24.641,71.1,26,66.222,52.984,5.368,55.976.522c.886-1.436-23.434.408-24.4,1.729" transform="translate(850 227)" fill="#ff996b"/>
      <path id="Fill_263" data-name="Fill 263" d="M20.891,33.492A29,29,0,0,0,29,29.971C28.752,29.288,19.855,5.32,17.822.194,17.14-1.522.779,8.7,0,9.339.988,14.54,4.059,26.03,5.689,31.4a22.523,22.523,0,0,0,15.2,2.091" transform="translate(948 218)" fill="#ff996b"/>
      <path id="Fill_265" data-name="Fill 265" d="M0,11.429S11.837,2.635,18.01.547,26.016,2.38,31.4,11.665C37.131,21.555,0,11.429,0,11.429" transform="translate(950 233)" fill="#f0e1d5"/>
      <path id="Fill_267" data-name="Fill 267" d="M2.909,12.89C1.443,16.95,1.31,20.47.885,23.407.081,29.057.4,31.86.091,36.966c-.007.066-.014.133-.017.214a21.28,21.28,0,0,0,.347,6.214c.783,3.376,2.866,5.988,7.585,6.515,7.523.846,15-4.341,20.295-9.657,6.349-6.4,10-13.678,10.624-22.8a23.353,23.353,0,0,0-.08-4.6,14.927,14.927,0,0,0-.56-2.569C35.111.441,23.1-1.582,14.638,1.058,8.978,2.834,4.954,7.229,2.909,12.89" transform="translate(935 188)" fill="#ff996b"/>
      <path id="Fill_269" data-name="Fill 269" d="M41.8,14.661C40.241,2.281,28.037-1.777,19.248.686,12.34,2.622,2.779,6.142.449,13.538c-.712,2.258-.667,4.289.8,5.122,2.944,1.676,10.59.149,14.553-1.4a5.817,5.817,0,0,0-1.184,2.59,3.69,3.69,0,0,0,1.957,3.908,4.222,4.222,0,0,0,2.564.3c.135,2.009,1.091,3.866,3.577,5.794,0,0-.4,5.891.327,7.229,2.674,4.9,9.681,7.628,13.524,7.911l-2.776-8.227s9.722-8.489,8.01-22.112" transform="translate(934 186)" fill="#1f233d"/>
      <path id="Fill_271" data-name="Fill 271" d="M.949,9.908a30.623,30.623,0,0,0,9.6-8.959L9.453.292C8.608,1.712,7.7,3.45,8.061,5.174a3.313,3.313,0,0,0,2.918,2.612c3.455.432,5.766-2.824,7.845-5.108.557-.612-.338-1.535-.9-.921-1.64,1.8-3.374,4.439-5.959,4.74A2.254,2.254,0,0,1,9.341,5.064C8.929,3.655,9.864,2.1,10.549.949a.639.639,0,0,0-1.1-.657A29.134,29.134,0,0,1,.308,8.783C-.4,9.2.239,10.327.949,9.908" transform="translate(954 199)" fill="#6772b5"/>
      <path id="Fill_273" data-name="Fill 273" d="M11.957,6.266a6.557,6.557,0,0,1-6.668,5.728A5.491,5.491,0,0,1,.043,5.734,6.557,6.557,0,0,1,6.711.006a5.491,5.491,0,0,1,5.246,6.26" transform="translate(950 209)" fill="#ff996b"/>
      <path id="Fill_275" data-name="Fill 275" d="M6.86.2A20.756,20.756,0,0,1,.327,4.759.672.672,0,0,0,1,5.921,21.719,21.719,0,0,0,7.808,1.154C8.409.533,7.462-.42,6.86.2" transform="translate(950 231)" fill="#1f233d"/>
      <path id="Fill_277" data-name="Fill 277" d="M3.4,5.667a3.719,3.719,0,0,0,.224-3.659,3.752,3.752,0,0,0-2.761-2A.708.708,0,0,0,.021.481a.678.678,0,0,0,.478.83,3.182,3.182,0,0,1,.665.168c-.087-.032.026.011.057.026.051.024.1.05.153.077.1.055.2.117.292.179l.056.039c-.038-.03-.038-.03,0,0s.088.072.131.111a3.116,3.116,0,0,1,.242.241c.01.011.115.138.077.089s.069.1.068.1a2.8,2.8,0,0,1,.173.293c.021.04.042.081.06.122-.036-.082.04.113.038.11a2.945,2.945,0,0,1,.094.351,2.255,2.255,0,0,1,.031.58c0,.061-.007.121-.014.181.012-.094-.01.056-.014.073a3.164,3.164,0,0,1-.09.352,1.148,1.148,0,0,1-.1.243,3.082,3.082,0,0,1-.2.347.676.676,0,0,0,.246.923A.7.7,0,0,0,3.4,5.667" transform="translate(955 213)" fill="#1f233d"/>
      <path id="Fill_279" data-name="Fill 279" d="M93.2,67.869c-1.326-3.483-2.942-6.848-4.47-10.246C85.657,50.784,82.38,44.031,78.693,37.5A129.976,129.976,0,0,0,66.3,19.109c-4.672-5.717-9.949-11.41-16.27-15.3A24.313,24.313,0,0,0,39.679.1,28.5,28.5,0,0,0,27.627,1.9a112.44,112.44,0,0,0-10.9,4.774c-3.362,1.592-6.714,3.2-10.04,4.872Q3.34,13.224.009,14.994a212.651,212.651,0,0,0,1.264,23.48C2.467,50.414,10.194,53.425,12.992,65.08c.752,3.134,1.95,35.057,3.241,38.954a36.893,36.893,0,0,0,4.393,9.413,19.016,19.016,0,0,0,8.139,6.773,24.128,24.128,0,0,0,10.409,1.758c7.985-.306,15.384-4.068,22.452-7.457,3.507-1.682,7.007-3.4,10.452-5.21q-1.066,1.172-2.131,2.345-2.054,2.246-4.17,4.434a1.506,1.506,0,1,0,2.323,1.917q6.993-6.79,13.414-14.107c1.478-.933,2.942-1.89,4.372-2.9a1.338,1.338,0,0,0,.012-2.215c2.437-2.914,2.828-7.609,5.145-10.62,0,0,7.215-7,2.157-20.292" transform="translate(929 239)" fill="#f0e1d5"/>
      <path id="Fill_281" data-name="Fill 281" d="M318.818,73.373a173.7,173.7,0,0,0-11.7-22.751q-4.305,2-8.61,4c-7.535,3.5-15.122,6.867-22.708,10.248-6.43,2.865-22.469,10.368-23.89,11.057q-6.936-6.2-13.92-12.345-21.01-18.452-42.5-36.343c-7.913-6.576-15.347-14.5-23.734-20.4C149.115-9.1,128.086,5.812,110.6,21.129,97.8,32.334,8.505,112.324,0,120.066c20.993,21.48,41.18,43.94,62.7,64.934,3.71-3.924,79.883-84.555,87.073-92.273,3.46,3.16,36.48,30,50.02,39.577s27.363,18.794,41.2,27.958c24.1,15.967,54.7,19.047,77.172-2.031A38.108,38.108,0,0,0,327.7,143.94c4.117-10.841,3.889-22.925,2.009-34.216a160.923,160.923,0,0,0-10.888-36.351" transform="translate(713 276)" fill="#ad462d"/>
      <path id="Fill_283" data-name="Fill 283" d="M0,0,43,1.419V19H0Z" transform="translate(858 194)" fill="#1f233d"/>
      <path id="Fill_285" data-name="Fill 285" d="M0,19l43-1.419V0H0Z" transform="translate(858 213)" fill="#1f233d"/>
      <path id="Fill_287" data-name="Fill 287" d="M19,18c0,9.941-4.253,18-9.5,18S0,27.941,0,18,4.254,0,9.5,0,19,8.059,19,18" transform="translate(848 194)" fill="#1f233d"/>
      <path id="Fill_289" data-name="Fill 289" d="M17,17c0,9.389-3.806,17-8.5,17S0,26.389,0,17,3.806,0,8.5,0,17,7.611,17,17" transform="translate(892 195)" fill="#1f233d"/>
      <path id="Fill_291" data-name="Fill 291" d="M13,14.5C13,22.508,10.09,29,6.5,29S0,22.508,0,14.5,2.91,0,6.5,0,13,6.492,13,14.5" transform="translate(852 197)" fill="#fff"/>
      <path id="Fill_293" data-name="Fill 293" d="M0,0,37,1.494V20H0Z" transform="translate(876 192)" fill="#1f233d"/>
      <path id="Fill_295" data-name="Fill 295" d="M0,20l37-1.494V0H0Z" transform="translate(876 213)" fill="#1f233d"/>
      <path id="Fill_297" data-name="Fill 297" d="M20,20c0,11.046-4.477,20-10,20S0,31.046,0,20,4.477,0,10,0,20,8.954,20,20" transform="translate(866 192)" fill="#1f233d"/>
      <path id="Fill_299" data-name="Fill 299" d="M19,18.5C19,28.717,14.747,37,9.5,37S0,28.717,0,18.5,4.253,0,9.5,0,19,8.283,19,18.5" transform="translate(905 193)" fill="#1f233d"/>
      <path id="Fill_301" data-name="Fill 301" d="M0,0,24,.971V13H0Z" transform="translate(910 199)" fill="#1f233d"/>
      <path id="Fill_303" data-name="Fill 303" d="M0,13l24-.971V0H0Z" transform="translate(910 212)" fill="#1f233d"/>
      <path id="Fill_305" data-name="Fill 305" d="M12,12c0,6.628-2.686,12-6,12S0,18.628,0,12,2.686,0,6,0s6,5.373,6,12" transform="translate(928 199)" fill="#1f233d"/>
      <path id="Fill_307" data-name="Fill 307" d="M14,16c0,8.836-3.134,16-7,16S0,24.836,0,16,3.134,0,7,0s7,7.163,7,16" transform="translate(869 196)" fill="#fff"/>
      <path id="Fill_309" data-name="Fill 309" d="M65.863,11.981a49.653,49.653,0,0,0-1.829-8.289A5.428,5.428,0,0,0,62.147.873a3.55,3.55,0,0,0-3.7-.155c-2.21,1.184-3,3.749-2.8,6.131-.789-.685-1.77-2.233-2.6-2.877-.76-.79-4.907-4.049-7.472-3.97-3.313.1-2.85,2.991-2.525,4.137-3.227-2.507-7.732-3.066-9.589-1.618-2.01,1.567-2.186,3.986-1.347,6.237a21.9,21.9,0,0,0,2.021,4.064c2.173,4.7,2.8,6.778,2.327,11.272-3.8,7.7-2.967,16.917-2.967,16.917S17.283,62.588,12.163,74.861c-5.925,14.2-7.579,19.868-10.89,34.986-2.445,11.167-2,29.494,7.012,36.716,6.543,5.244,20.624,6.811,28.606,4.193,7.884-2.586,14.359-7.785,19.788-13.929a154.428,154.428,0,0,0,9.866-12.64c-2.727-5.613-5.721-11.06-7.359-17.161a2.991,2.991,0,0,1-.1-1.089c-.387-.859-.779-1.716-1.159-2.578-2.531-5.735-10.056-3.293-12.477-9.072,3.911-12.418,8.413-24.68,13.511-36.652,3.667-8.609,7.723-18.149,7.844-27.614a1.636,1.636,0,0,0,.117-.538,86.187,86.187,0,0,0-1.063-17.5" transform="translate(866 193)" fill="#ff996b"/>
      <path id="Fill_311" data-name="Fill 311" d="M1.106,23.838,27.795,1.03c.615-.525-.289-1.391-.9-.869L.205,22.969c-.615.525.289,1.392.9.869" transform="translate(881 271)" fill="#1f233d"/>
      <path id="Fill_313" data-name="Fill 313" d="M20.429,2.024C18.543-1.4,13.951.283,11.255,1.537a24.126,24.126,0,0,0-7.415,5.4A1.451,1.451,0,0,0,2.663,8.284s0,.006,0,.009c-.2.251-.411.5-.606.759A1.271,1.271,0,0,0,2.4,10.826c-.217,2.246-.391,4.5-.534,6.75-.1,1.525-.168,3.052-.235,4.578-.062,1.4-.208,2.859-.15,4.272a26.19,26.19,0,0,0-1.4,2.768A1.4,1.4,0,0,0,.89,30.879,1.486,1.486,0,0,0,2.7,30.332C3.9,28.79,4.9,27.1,6,25.485s2.238-3.2,3.407-4.767c2.287-3.06,4.689-6.035,7.111-8.991,2.12-2.588,5.932-6.045,3.915-9.7" transform="translate(924 209)" fill="#ff996b"/>
      <path id="Fill_315" data-name="Fill 315" d="M51.742,0A214.306,214.306,0,0,0,0,30.524L18.6,91S49.879,73.306,64.954,61.284s15.9-43.989,8.5-51.639S51.742,0,51.742,0" transform="translate(902 243)" fill="#f0e1d5"/>
      <path id="Fill_317" data-name="Fill 317" d="M.933,34.912A99.467,99.467,0,0,0,29.745,9.8,100.47,100.47,0,0,0,35.9.929C36.327.241,35.249-.39,34.826.3A98.418,98.418,0,0,1,9.307,27.965a98.238,98.238,0,0,1-9,5.862.627.627,0,0,0,.629,1.084" transform="translate(939 288)" fill="#1f233d"/>
      <path id="Fill_319" data-name="Fill 319" d="M.027.778,13.6,48.072l4.156,14.484a.632.632,0,0,0,1.217-.335L5.4,14.928,1.244.443A.631.631,0,0,0,.027.778" transform="translate(911 266)" fill="#1f233d"/>
      <path id="Fill_321" data-name="Fill 321" d="M9.778.313A71.863,71.863,0,0,0,.1,32.661a70.191,70.191,0,0,0,.164,9.72c.071.822,1.379.83,1.308,0A70.578,70.578,0,0,1,6.642,9.541,69.6,69.6,0,0,1,10.907.965.652.652,0,0,0,9.778.313" transform="translate(986 298)" fill="#1f233d"/>
      <path id="Fill_323" data-name="Fill 323" d="M12.929.185A57.014,57.014,0,0,0,.046,20.225c-.293.773.913,1.108,1.2.343A55.5,55.5,0,0,1,13.812,1.1c.578-.578-.305-1.49-.882-.912" transform="translate(996 298)" fill="#1f233d"/>
      <path id="Fill_325" data-name="Fill 325" d="M.195,1.059l28.738,26.77c.585.545,1.46-.341.872-.889L1.067.171C.482-.374-.393.512.195,1.059" transform="translate(966 352)" fill="#1f233d"/>
      <path id="Fill_327" data-name="Fill 327" d="M.178,1.1,23.4,25.861,46.86,50.88,59.917,64.8c.564.6,1.468-.3.905-.9L37.6,39.138,14.14,14.121,1.083.2C.519-.4-.385.5.178,1.1" transform="translate(728 382)" fill="#1f233d"/>
      <path id="Fill_329" data-name="Fill 329" d="M6.544,34.089a28.789,28.789,0,0,1-3.43-26.4A26.123,26.123,0,0,1,6.878.9C7.375.247,6.22-.373,5.728.273a29.3,29.3,0,0,0-4.131,27,30.26,30.26,0,0,0,3.8,7.438c.465.667,1.619.046,1.151-.625" transform="translate(866 194)" fill="#6772b5"/>
      <path id="Fill_331" data-name="Fill 331" d="M.3,1.208A12.867,12.867,0,0,1,4.679,6.5a19.846,19.846,0,0,1,2.063,6.89c.08.816,1.334.824,1.254,0A21.558,21.558,0,0,0,5.762,5.847,14.061,14.061,0,0,0,.93.1C.24-.334-.391.778.3,1.208" transform="translate(860 194)" fill="#6772b5"/>
      <path id="Fill_333" data-name="Fill 333" d="M1.013,12.942C5.72,10.954,8.488,5.476,9,.629c.088-.842-1.233-.836-1.32,0C7.212,5.052,4.614,10,.347,11.8c-.78.329-.108,1.465.666,1.138" transform="translate(859 218)" fill="#6772b5"/>
      <path id="Fill_335" data-name="Fill 335" d="M1.29,47.569c2.4-6.007,4.722-12.053,7.432-17.928A122.964,122.964,0,0,1,18.5,12.219C21.094,8.384,23.9,4.7,26.842,1.131c.525-.636-.382-1.555-.91-.914A136.435,136.435,0,0,0,12.573,19.3a151.669,151.669,0,0,0-8.34,17.488C2.806,40.254,1.44,43.745.049,47.225c-.308.772.936,1.107,1.241.344" transform="translate(874 230)" fill="#1f233d"/>
      <path id="Fill_337" data-name="Fill 337" d="M.182,1.07A23.751,23.751,0,0,1,6.79,14.547c.108.794,1.312.456,1.2-.332A24.836,24.836,0,0,0,1.065.186C.5-.388-.384.5.182,1.07" transform="translate(909 196)" fill="#1f233d"/>
      <path id="Fill_339" data-name="Fill 339" d="M.193,1.108a18.035,18.035,0,0,1,5.432,13.27c-.022.83,1.347.83,1.369,0A19.314,19.314,0,0,0,1.161.2C.551-.4-.415.508.193,1.108" transform="translate(921 198)" fill="#1f233d"/>
      <path id="Fill_341" data-name="Fill 341" d="M1.068,18.8q2.275-2.452,4.316-5.111A33.3,33.3,0,0,0,9.071,8.105C9.934,6.32,10.429,4.2,9.5,2.34A3.923,3.923,0,0,0,5.315.064c-.8.153-.46,1.381.335,1.229C7.268.983,8.594,2.64,8.731,4.131c.176,1.919-.867,3.709-1.856,5.26A60.128,60.128,0,0,1,.175,17.9c-.555.6.336,1.5.893.9" transform="translate(934 208)" fill="#1f233d"/>
      <path id="Fill_343" data-name="Fill 343" d="M.764,3.963A43.9,43.9,0,0,1,30.235,3.9c.766.27,1.094-1.064.331-1.333A44.975,44.975,0,0,0,.433,2.63C-.328,2.9,0,4.237.764,3.963" transform="translate(951 241)" fill="#1f233d"/>
      <path id="Fill_345" data-name="Fill 345" d="M1.079,49.8C12.845,36.723,24.89,23.883,37.314,11.41q5.2-5.215,10.494-10.333C48.4.506,47.489-.388,46.9.183,34.115,12.515,21.8,25.317,9.774,38.359Q4.939,43.6.169,48.9c-.547.607.36,1.5.91.894" transform="translate(816 369)" fill="#1f233d"/>
      <path id="Fill_347" data-name="Fill 347" d="M.26,1.255,22.115,18.871c.633.51,1.25-.622.625-1.126L.885.129C.253-.381-.364.751.26,1.255" transform="translate(863 369)" fill="#1f233d"/>
      <path id="Fill_349" data-name="Fill 349" d="M.617,2H64.383c.822,0,.823-2,0-2H.617c-.822,0-.823,2,0,2" transform="translate(792 450)" fill="#6772b5"/>
      <path id="Fill_351" data-name="Fill 351" d="M.32,1.194,39.727,21.961l11.311,5.96c.726.383,1.37-.732.643-1.115L12.273,6.039.962.079C.236-.3-.408.811.32,1.194" transform="translate(694 425)" fill="#6772b5"/>
    </g>
    <g id="Group" transform="translate(152 443)">
      <text id="Enter_search_text" data-name="Enter search text" transform="translate(40 24)" fill="#b0b6bd" font-size="20" font-family="Helvetica"><tspan x="0" y="0" xml:space="preserve"> Enter search text</tspan></text>
      <g id="search_24px">
        <g id="_15" data-name=" 15" transform="translate(4 4)">
          <path id="action_search_24px-2" data-name="action/search_24px" d="M21.334,23.32h0l-6.666-6.652V15.613l-.36-.373a8.678,8.678,0,1,1,.934-.934l.373.36h1.054l6.653,6.667-1.985,1.985ZM8.666,2.666a6,6,0,1,0,6,6A6.007,6.007,0,0,0,8.666,2.666Z" transform="translate(0 0)" fill="#086ce8"/>
        </g>
      </g>
    </g>
    <text id="G_Search____" data-name="G Search    " transform="translate(120 534)" fill="#7e8793" font-size="16" font-family="Helvetica"><tspan x="0" y="0">G Search </tspan><tspan y="0" font-family="AppleSDGothicNeo-Regular, Apple SD Gothic Neo"></tspan><tspan y="0"> </tspan><tspan y="0" font-family="AppleSDGothicNeo-Regular, Apple SD Gothic Neo"></tspan><tspan y="0"></tspan><tspan x="0" y="19"> </tspan><tspan font-family="AppleSDGothicNeo-Regular, Apple SD Gothic Neo"><tspan x="0" y="40"></tspan><tspan y="40" font-family="Helvetica"> </tspan><tspan y="40"></tspan><tspan y="40" font-family="Helvetica"> </tspan><tspan y="40"></tspan><tspan y="40" font-family="Helvetica">, </tspan><tspan y="40"></tspan><tspan y="40" font-family="Helvetica">, </tspan><tspan y="40"></tspan><tspan y="40" font-family="Helvetica"> </tspan><tspan y="40"></tspan><tspan y="40" font-family="Helvetica"> </tspan><tspan y="40"></tspan><tspan y="40" font-family="Helvetica"> </tspan><tspan y="40"></tspan><tspan y="40" font-family="Helvetica">. (</tspan><tspan y="40"></tspan><tspan y="40" font-family="Helvetica">: 2022</tspan><tspan y="40"></tspan><tspan y="40" xml:space="preserve" font-family="Helvetica"> + </tspan><tspan y="40"></tspan><tspan y="40" font-family="Helvetica">)</tspan><tspan x="0" y="61"></tspan><tspan y="61" font-family="Helvetica"> </tspan><tspan y="61"></tspan><tspan y="61" font-family="Helvetica"> </tspan><tspan y="61"></tspan><tspan y="61" xml:space="preserve" font-family="Helvetica">  Delimeter + </tspan><tspan y="61"></tspan><tspan y="61" xml:space="preserve" font-family="Helvetica"> And </tspan><tspan y="61"></tspan><tspan y="61" font-family="Helvetica"> </tspan><tspan y="61"></tspan><tspan y="61" font-family="Helvetica"> </tspan><tspan y="61"></tspan><tspan y="61" font-family="Helvetica"> </tspan><tspan y="61"></tspan><tspan y="61" font-family="Helvetica">.</tspan></tspan></text>
    <text id="_." data-name=" ." transform="translate(120 331)" fill="#086ce8" font-size="56" font-family="AppleSDGothicNeo-Regular, Apple SD Gothic Neo"><tspan x="0" y="0"></tspan><tspan y="0" font-family="Helvetica"> </tspan><tspan y="0"></tspan><tspan y="0" font-family="Helvetica">.</tspan></text>
    <g id="Logo" transform="translate(40 32)">
      <text id="G" transform="translate(0 22)" fill="#086ce8" font-size="30" font-family="Helvetica"><tspan x="0" y="0">G</tspan></text>
      <text id="Search" transform="translate(25 21)" fill="#086ce8" font-size="22" font-family="Montserrat-Medium, Montserrat" font-weight="500"><tspan x="0" y="0">Search</tspan></text>
    </g>
    <g id="Logo_Copy" data-name="Logo Copy" transform="translate(120 200)">
      <text id="G-2" data-name="G" transform="translate(0 54)" fill="#086ce8" font-size="72" font-family="Helvetica"><tspan x="0" y="0">G</tspan></text>
      <text id="Search-2" data-name="Search" transform="translate(58 54)" fill="#086ce8" font-size="56" font-family="Montserrat-Regular, Montserrat"><tspan x="0" y="0">Search</tspan></text>
    </g>
  </g>
</svg>
