<svg id="analytics_black_24dp" xmlns="http://www.w3.org/2000/svg" width="24" height="24" viewBox="0 0 24 24">
  <rect id="사각형_704" data-name="사각형 704" width="24" height="24" fill="none"/>
  <path id="패스_1505" data-name="패스 1505" d="M19,3H5A2.006,2.006,0,0,0,3,5V19a2.006,2.006,0,0,0,2,2H19a2.006,2.006,0,0,0,2-2V5A2.006,2.006,0,0,0,19,3ZM8,17H8a1,1,0,0,1-1-1V13a1,1,0,0,1,2,0v3A1,1,0,0,1,8,17Zm4,0h0a1,1,0,0,1-1-1V15a1,1,0,0,1,2,0v1A1,1,0,0,1,12,17Zm0-5a1,1,0,1,1,1-1A1,1,0,0,1,12,12Zm4,5h0a1,1,0,0,1-1-1V8a1,1,0,0,1,2,0v8A1,1,0,0,1,16,17Z" fill="#26282b"/>
</svg>
