<svg id="구성_요소_63_1" data-name="구성 요소 63 – 1" xmlns="http://www.w3.org/2000/svg" width="24" height="24" viewBox="0 0 24 24">
  <rect id="사각형_675" data-name="사각형 675" width="24" height="24" fill="none"/>
  <path id="패스_926" data-name="패스 926" d="M5,2A1,1,0,0,0,3,2V6H2A1,1,0,0,0,1,7v5H7V7A1,1,0,0,0,6,6H5ZM9,16a3.01,3.01,0,0,0,2,2.82V22a1,1,0,0,0,1,1h0a1,1,0,0,0,1-1V18.82A2.991,2.991,0,0,0,15,16V14H9ZM1,16a3.01,3.01,0,0,0,2,2.82V22a1,1,0,0,0,1,1H4a1,1,0,0,0,1-1V18.82A3.01,3.01,0,0,0,7,16V14H1ZM21,6V2a1,1,0,0,0-2,0V6H18a1,1,0,0,0-1,1v5h6V7a1,1,0,0,0-1-1ZM13,2a1,1,0,0,0-2,0V6H10A1,1,0,0,0,9,7v5h6V7a1,1,0,0,0-1-1H13Zm4,14a3.01,3.01,0,0,0,2,2.82V22a1,1,0,0,0,1,1h0a1,1,0,0,0,1-1V18.82A2.991,2.991,0,0,0,23,16V14H17Z" fill="#8fc4ff"/>
</svg>
