<svg width="375" height="812" viewBox="0 0 375 812" fill="none" xmlns="http://www.w3.org/2000/svg">
<g clip-path="url(#clip0)">
<rect width="375" height="812" fill="#36393E"/>
<path d="M16 113C16 107.477 20.4772 103 26 103H349C354.523 103 359 107.477 359 113V241C359 246.523 354.523 251 349 251H26C20.4772 251 16 246.523 16 241V113Z" fill="#44474C"/>
<path d="M16 273C16 267.477 20.4772 263 26 263H349C354.523 263 359 267.477 359 273V402C359 407.523 354.523 412 349 412H26C20.4772 412 16 407.523 16 402V273Z" fill="#44474C"/>
<path d="M16 143L359 143" stroke="#3C4047"/>
<path d="M16 197L359 197" stroke="#3C4047"/>
<path d="M16 304L359 304" stroke="#3C4047"/>
<path d="M16 358L359 358" stroke="#3C4047"/>
<path fill-rule="evenodd" clip-rule="evenodd" d="M40 0H0V40C0 17.9086 17.9086 0 40 0ZM78 0L78.8918 0.216238C80.7796 0.67396 82.3333 2.08608 83.0044 3.9C83.0375 3.98943 83.0457 4.08563 83.0455 4.18098L83.0391 7.96098C83.0391 20.7025 93.3365 31 106.039 31H268.961C281.664 31 291.961 20.7025 291.961 8L291.954 4.18082C291.954 4.08452 291.969 3.99048 292.002 3.9C292.668 2.07301 294.211 0.676168 296.108 0.216238L297 0H78ZM335 0C357.091 0 375 17.9086 375 40V0H335ZM375 772C375 794.091 357.091 812 335 812H375V772ZM40 812C17.9086 812 0 794.091 0 772V812H40Z" fill="black"/>
<path opacity="0.35" d="M336.5 20.0002C336.5 18.8035 337.47 17.8335 338.667 17.8335H355.333C356.53 17.8335 357.5 18.8035 357.5 20.0002V26.0002C357.5 27.1968 356.53 28.1668 355.333 28.1668H338.667C337.47 28.1668 336.5 27.1968 336.5 26.0002V20.0002Z" stroke="white"/>
<path opacity="0.4" d="M359 21V25C359.805 24.6612 360.328 23.8731 360.328 23C360.328 22.1269 359.805 21.3388 359 21Z" fill="white"/>
<path d="M338 20.6668C338 19.9305 338.597 19.3335 339.333 19.3335H354.667C355.403 19.3335 356 19.9304 356 20.6668V25.3335C356 26.0699 355.403 26.6668 354.667 26.6668H339.333C338.597 26.6668 338 26.0699 338 25.3335V20.6668Z" fill="white"/>
<path d="M323.33 19.6079C325.546 19.608 327.677 20.4594 329.283 21.9862C329.404 22.1041 329.597 22.1026 329.716 21.9829L330.872 20.8162C330.933 20.7555 330.966 20.6733 330.966 20.5877C330.965 20.5021 330.931 20.4202 330.87 20.3602C326.655 16.3207 320.005 16.3207 315.79 20.3602C315.729 20.4202 315.694 20.502 315.693 20.5876C315.693 20.6732 315.726 20.7555 315.787 20.8162L316.943 21.9829C317.062 22.1028 317.255 22.1043 317.376 21.9862C318.982 20.4593 321.114 19.6079 323.33 19.6079Z" fill="white"/>
<path d="M323.331 23.4035C324.548 23.4034 325.722 23.8559 326.625 24.6731C326.747 24.7891 326.939 24.7866 327.058 24.6675L328.213 23.5008C328.274 23.4396 328.307 23.3566 328.306 23.2703C328.306 23.1841 328.27 23.1017 328.208 23.0418C325.46 20.4854 321.204 20.4854 318.456 23.0418C318.394 23.1017 318.358 23.1841 318.357 23.2704C318.357 23.3567 318.39 23.4397 318.451 23.5008L319.606 24.6675C319.725 24.7866 319.917 24.7891 320.039 24.6731C320.941 23.8565 322.114 23.404 323.331 23.4035Z" fill="white"/>
<path d="M325.55 26.188C325.612 26.1274 325.646 26.044 325.644 25.9575C325.642 25.871 325.605 25.7891 325.54 25.731C324.265 24.6522 322.397 24.6522 321.121 25.731C321.057 25.789 321.019 25.8709 321.018 25.9575C321.016 26.044 321.05 26.1274 321.111 26.188L323.109 28.2037C323.168 28.2629 323.248 28.2963 323.331 28.2963C323.414 28.2963 323.494 28.2629 323.552 28.2037L325.55 26.188Z" fill="white"/>
<path d="M294.666 24.333H295.666C296.218 24.333 296.666 24.7807 296.666 25.333V27.333C296.666 27.8853 296.218 28.333 295.666 28.333H294.666C294.114 28.333 293.666 27.8853 293.666 27.333V25.333C293.666 24.7807 294.114 24.333 294.666 24.333Z" fill="white"/>
<path d="M299.333 22.333H300.333C300.885 22.333 301.333 22.7807 301.333 23.333V27.333C301.333 27.8853 300.885 28.333 300.333 28.333H299.333C298.781 28.333 298.333 27.8853 298.333 27.333V23.333C298.333 22.7807 298.781 22.333 299.333 22.333Z" fill="white"/>
<path d="M304 20H305C305.552 20 306 20.4477 306 21V27.3333C306 27.8856 305.552 28.3333 305 28.3333H304C303.448 28.3333 303 27.8856 303 27.3333V21C303 20.4477 303.448 20 304 20Z" fill="white"/>
<path d="M308.666 17.6665H309.666C310.218 17.6665 310.666 18.1142 310.666 18.6665V27.3332C310.666 27.8855 310.218 28.3332 309.666 28.3332H308.666C308.114 28.3332 307.666 27.8855 307.666 27.3332V18.6665C307.666 18.1142 308.114 17.6665 308.666 17.6665V17.6665Z" fill="white"/>
<path d="M39.5278 17.29C40.2478 17.29 40.8828 17.455 41.4328 17.785C41.9828 18.105 42.4078 18.56 42.7078 19.15C43.0078 19.74 43.1578 20.425 43.1578 21.205C43.1578 22.225 42.9228 23.19 42.4528 24.1C41.9928 25 41.4078 25.78 40.6978 26.44C39.9878 27.1 39.2578 27.62 38.5078 28L37.1728 26.95C37.8628 26.61 38.5828 26.12 39.3328 25.48C40.0928 24.84 40.6578 24.12 41.0278 23.32C40.5278 23.65 39.9028 23.815 39.1528 23.815C38.5728 23.815 38.0478 23.68 37.5778 23.41C37.1078 23.14 36.7378 22.765 36.4678 22.285C36.2078 21.805 36.0778 21.26 36.0778 20.65C36.0778 19.99 36.2178 19.405 36.4978 18.895C36.7778 18.385 37.1778 17.99 37.6978 17.71C38.2178 17.43 38.8278 17.29 39.5278 17.29ZM39.4978 22.165C39.9778 22.165 40.3728 22.015 40.6828 21.715C40.9928 21.415 41.1478 21.035 41.1478 20.575C41.1478 20.115 40.9928 19.73 40.6828 19.42C40.3728 19.1 39.9778 18.94 39.4978 18.94C39.0278 18.94 38.6328 19.1 38.3128 19.42C38.0028 19.73 37.8478 20.115 37.8478 20.575C37.8478 21.035 38.0028 21.415 38.3128 21.715C38.6328 22.015 39.0278 22.165 39.4978 22.165ZM44.1707 20.5H46.1207V22.54H44.1707V20.5ZM44.1707 25.96H46.1207V28H44.1707V25.96ZM55.0409 24.04V25.6H53.6909V28H51.8459V25.6H46.6109L52.3859 17.5H53.6909V24.04H55.0409ZM51.8459 24.04V20.815L49.5809 24.04H51.8459ZM57.5651 20.215C57.1451 20.495 56.7051 20.675 56.2451 20.755L56.0801 19.135C56.4101 19.065 56.7801 18.865 57.1901 18.535C57.6001 18.195 57.8751 17.85 58.0151 17.5H59.4851V28H57.5651V20.215Z" fill="white"/>
<path d="M339 174.472L343.945 169.5L339 164.527L340.522 163L347 169.5L340.522 176L339 174.472Z" fill="white"/>
<path d="M339 228.472L343.945 223.5L339 218.527L340.522 217L347 223.5L340.522 230L339 228.472Z" fill="white"/>
<path d="M339 339.472L343.945 334.5L339 329.527L340.522 328L347 334.5L340.522 341L339 339.472Z" fill="white"/>
<path d="M339 390.472L343.945 385.5L339 380.527L340.522 379L347 385.5L340.522 392L339 390.472Z" fill="white"/>
<path d="M31.432 127.196C30.4053 127.196 29.5187 126.986 28.772 126.566C28.0347 126.146 27.47 125.553 27.078 124.788C26.686 124.013 26.49 123.113 26.49 122.086C26.49 121.078 26.7047 120.191 27.134 119.426C27.5727 118.651 28.1793 118.054 28.954 117.634C29.7287 117.214 30.6153 117.004 31.614 117.004C32.118 117.004 32.608 117.055 33.084 117.158C33.56 117.261 33.9707 117.401 34.316 117.578L34.12 119.286C33.308 118.913 32.4727 118.726 31.614 118.726C30.5687 118.726 29.78 119.034 29.248 119.65C28.716 120.257 28.45 121.059 28.45 122.058C28.45 123.094 28.7113 123.925 29.234 124.55C29.7567 125.166 30.5127 125.474 31.502 125.474C31.9033 125.474 32.3513 125.423 32.846 125.32V123.57H31.502V122.086H34.638V126.454C34.274 126.669 33.8073 126.846 33.238 126.986C32.678 127.126 32.076 127.196 31.432 127.196ZM39.4145 127.14C38.6025 127.14 37.9072 126.977 37.3285 126.65C36.7592 126.314 36.3298 125.871 36.0405 125.32C35.7605 124.76 35.6205 124.139 35.6205 123.458C35.6205 122.805 35.7558 122.207 36.0265 121.666C36.2972 121.125 36.6892 120.695 37.2025 120.378C37.7158 120.051 38.3272 119.888 39.0365 119.888C39.6898 119.888 40.2405 120.023 40.6885 120.294C41.1458 120.565 41.4865 120.929 41.7105 121.386C41.9438 121.843 42.0605 122.357 42.0605 122.926C42.0605 123.206 42.0232 123.523 41.9485 123.878H37.4265C37.5198 124.494 37.7625 124.956 38.1545 125.264C38.5465 125.563 39.0178 125.712 39.5685 125.712C40.3245 125.712 41.0245 125.521 41.6685 125.138L41.7525 126.608C41.4538 126.767 41.1038 126.897 40.7025 127C40.3105 127.093 39.8812 127.14 39.4145 127.14ZM40.2965 122.702C40.2965 122.338 40.1938 122.016 39.9885 121.736C39.7832 121.456 39.4658 121.316 39.0365 121.316C38.6072 121.316 38.2618 121.442 38.0005 121.694C37.7392 121.946 37.5618 122.282 37.4685 122.702H40.2965ZM46.7736 119.888C47.6416 119.888 48.2996 120.177 48.7476 120.756C49.1956 121.335 49.4196 122.114 49.4196 123.094V127H47.6836V123.234C47.6836 122.581 47.5716 122.1 47.3476 121.792C47.1329 121.475 46.7829 121.316 46.2976 121.316C45.7656 121.316 45.3269 121.517 44.9816 121.918V127H43.2456V120H44.8696L44.8976 120.49C45.4856 120.089 46.1109 119.888 46.7736 119.888ZM54.3442 127.14C53.5322 127.14 52.8369 126.977 52.2582 126.65C51.6889 126.314 51.2595 125.871 50.9702 125.32C50.6902 124.76 50.5502 124.139 50.5502 123.458C50.5502 122.805 50.6855 122.207 50.9562 121.666C51.2269 121.125 51.6189 120.695 52.1322 120.378C52.6455 120.051 53.2569 119.888 53.9662 119.888C54.6195 119.888 55.1702 120.023 55.6182 120.294C56.0755 120.565 56.4162 120.929 56.6402 121.386C56.8735 121.843 56.9902 122.357 56.9902 122.926C56.9902 123.206 56.9529 123.523 56.8782 123.878H52.3562C52.4495 124.494 52.6922 124.956 53.0842 125.264C53.4762 125.563 53.9475 125.712 54.4982 125.712C55.2542 125.712 55.9542 125.521 56.5982 125.138L56.6822 126.608C56.3835 126.767 56.0335 126.897 55.6322 127C55.2402 127.093 54.8109 127.14 54.3442 127.14ZM55.2262 122.702C55.2262 122.338 55.1235 122.016 54.9182 121.736C54.7129 121.456 54.3955 121.316 53.9662 121.316C53.5369 121.316 53.1915 121.442 52.9302 121.694C52.6689 121.946 52.4915 122.282 52.3982 122.702H55.2262ZM58.1753 120H59.7993L59.8413 120.742C60.0466 120.509 60.3079 120.303 60.6253 120.126C60.9519 119.949 61.2926 119.86 61.6473 119.86C61.7593 119.86 61.8619 119.869 61.9553 119.888L61.8293 121.596C61.6519 121.549 61.4513 121.526 61.2273 121.526C60.9379 121.526 60.6719 121.596 60.4293 121.736C60.1866 121.867 60.0139 122.03 59.9113 122.226V127H58.1753V120ZM64.2263 127.14C63.6477 127.14 63.1623 126.953 62.7703 126.58C62.3877 126.197 62.1963 125.684 62.1963 125.04C62.1963 124.433 62.4157 123.948 62.8543 123.584C63.293 123.211 63.811 122.949 64.4083 122.8C65.0057 122.641 65.5797 122.553 66.1303 122.534C66.1117 122.123 66.0043 121.829 65.8083 121.652C65.6217 121.475 65.309 121.386 64.8703 121.386C64.5623 121.386 64.259 121.428 63.9603 121.512C63.671 121.596 63.335 121.731 62.9523 121.918L62.7983 120.504C63.6477 120.093 64.497 119.888 65.3463 119.888C66.1677 119.888 66.793 120.112 67.2223 120.56C67.661 121.008 67.8803 121.722 67.8803 122.702V124.592C67.8803 124.947 67.8943 125.203 67.9223 125.362C67.9597 125.511 68.0157 125.609 68.0903 125.656C68.1743 125.693 68.3097 125.712 68.4963 125.712H68.7203L68.5663 127.14H67.9363C67.5537 127.14 67.2317 127.07 66.9703 126.93C66.709 126.781 66.5083 126.58 66.3683 126.328C66.1443 126.58 65.8363 126.781 65.4443 126.93C65.0617 127.07 64.6557 127.14 64.2263 127.14ZM64.9543 125.81C65.1317 125.81 65.3323 125.768 65.5563 125.684C65.7803 125.591 65.9763 125.465 66.1443 125.306V123.71C65.5843 123.738 65.0897 123.859 64.6603 124.074C64.231 124.289 64.0163 124.587 64.0163 124.97C64.0163 125.259 64.091 125.474 64.2403 125.614C64.3897 125.745 64.6277 125.81 64.9543 125.81ZM71.479 127.14C70.8817 127.14 70.4337 126.972 70.135 126.636C69.8363 126.291 69.687 125.847 69.687 125.306V116.5H71.423V124.592C71.423 124.965 71.4417 125.231 71.479 125.39C71.5257 125.539 71.6003 125.633 71.703 125.67C71.815 125.698 72.0017 125.712 72.263 125.712L72.109 127.14H71.479Z" fill="#AAAAAA"/>
<path d="M27.232 324.8H31.216C33.872 324.8 35.2 326.005 35.2 328.416C35.2 329.664 34.864 330.592 34.192 331.2C33.52 331.808 32.544 332.112 31.264 332.112H29.28V336H27.232V324.8ZM31.024 330.4C31.728 330.4 32.2507 330.24 32.592 329.92C32.944 329.6 33.12 329.109 33.12 328.448C33.12 327.787 32.944 327.301 32.592 326.992C32.24 326.672 31.7013 326.512 30.976 326.512H29.28V330.4H31.024ZM36.7633 324.8H38.8113V336H36.7633V324.8ZM41.2789 324.8H43.2949L48.0789 332.032V324.8H50.1269V336H48.4469L43.3269 328.32V336H41.2789V324.8ZM61.2571 336.224C60.1265 336.224 59.1238 335.984 58.2491 335.504C57.3851 335.024 56.7131 334.347 56.2331 333.472C55.7531 332.587 55.5131 331.563 55.5131 330.4C55.5131 329.248 55.7585 328.235 56.2491 327.36C56.7505 326.475 57.4385 325.792 58.3131 325.312C59.1985 324.821 60.2011 324.576 61.3211 324.576C62.3985 324.576 63.3638 324.795 64.2171 325.232L63.9931 327.184C63.5345 326.981 63.0918 326.827 62.6651 326.72C62.2491 326.603 61.7958 326.544 61.3051 326.544C60.1638 326.544 59.2838 326.896 58.6651 327.6C58.0571 328.304 57.7531 329.237 57.7531 330.4C57.7531 331.563 58.0518 332.496 58.6491 333.2C59.2571 333.904 60.1265 334.256 61.2571 334.256C61.7585 334.256 62.2171 334.203 62.6331 334.096C63.0598 333.989 63.5131 333.829 63.9931 333.616L64.2171 335.568C63.2891 336.005 62.3025 336.224 61.2571 336.224ZM69.1069 336.16C68.2642 336.16 67.5335 335.973 66.9149 335.6C66.2962 335.227 65.8215 334.725 65.4909 334.096C65.1602 333.467 64.9949 332.773 64.9949 332.016C64.9949 331.259 65.1602 330.56 65.4909 329.92C65.8215 329.28 66.2962 328.773 66.9149 328.4C67.5335 328.027 68.2642 327.84 69.1069 327.84C69.9495 327.84 70.6802 328.027 71.2989 328.4C71.9175 328.773 72.3922 329.28 72.7229 329.92C73.0535 330.56 73.2189 331.259 73.2189 332.016C73.2189 332.773 73.0535 333.467 72.7229 334.096C72.3922 334.725 71.9175 335.227 71.2989 335.6C70.6802 335.973 69.9495 336.16 69.1069 336.16ZM69.1069 334.528C69.7575 334.528 70.2642 334.299 70.6269 333.84C71.0002 333.381 71.1869 332.773 71.1869 332.016C71.1869 331.248 71.0002 330.635 70.6269 330.176C70.2642 329.707 69.7575 329.472 69.1069 329.472C68.4562 329.472 67.9442 329.707 67.5709 330.176C67.2082 330.635 67.0269 331.248 67.0269 332.016C67.0269 332.773 67.2082 333.381 67.5709 333.84C67.9442 334.299 68.4562 334.528 69.1069 334.528ZM81.8959 324V336H80.0239L79.9919 335.488C79.6825 335.712 79.3572 335.883 79.0159 336C78.6852 336.107 78.2905 336.16 77.8319 336.16C77.0532 336.16 76.3812 335.973 75.8159 335.6C75.2612 335.227 74.8399 334.725 74.5519 334.096C74.2639 333.467 74.1199 332.773 74.1199 332.016C74.1199 331.259 74.2639 330.565 74.5519 329.936C74.8399 329.307 75.2612 328.805 75.8159 328.432C76.3812 328.059 77.0532 327.872 77.8319 327.872C78.6105 327.872 79.3039 328.085 79.9119 328.512V324H81.8959ZM78.1199 334.528C78.7492 334.528 79.2185 334.304 79.5279 333.856C79.8479 333.408 80.0079 332.795 80.0079 332.016C80.0079 331.237 79.8479 330.624 79.5279 330.176C79.2185 329.728 78.7492 329.504 78.1199 329.504C77.5012 329.504 77.0159 329.733 76.6639 330.192C76.3225 330.651 76.1519 331.259 76.1519 332.016C76.1519 332.773 76.3225 333.381 76.6639 333.84C77.0159 334.299 77.5012 334.528 78.1199 334.528ZM87.5965 336.16C86.6685 336.16 85.8738 335.973 85.2125 335.6C84.5618 335.216 84.0712 334.709 83.7405 334.08C83.4205 333.44 83.2605 332.731 83.2605 331.952C83.2605 331.205 83.4152 330.523 83.7245 329.904C84.0338 329.285 84.4818 328.795 85.0685 328.432C85.6552 328.059 86.3538 327.872 87.1645 327.872C87.9112 327.872 88.5405 328.027 89.0525 328.336C89.5752 328.645 89.9645 329.061 90.2205 329.584C90.4872 330.107 90.6205 330.693 90.6205 331.344C90.6205 331.664 90.5778 332.027 90.4925 332.432H85.3245C85.4312 333.136 85.7085 333.664 86.1565 334.016C86.6045 334.357 87.1432 334.528 87.7725 334.528C88.6365 334.528 89.4365 334.309 90.1725 333.872L90.2685 335.552C89.9272 335.733 89.5272 335.883 89.0685 336C88.6205 336.107 88.1298 336.16 87.5965 336.16ZM88.6045 331.088C88.6045 330.672 88.4872 330.304 88.2525 329.984C88.0178 329.664 87.6552 329.504 87.1645 329.504C86.6738 329.504 86.2792 329.648 85.9805 329.936C85.6818 330.224 85.4792 330.608 85.3725 331.088H88.6045Z" fill="white"/>
<path d="M33.424 383.872C34.8427 384.331 35.552 385.312 35.552 386.816C35.552 387.819 35.2267 388.603 34.576 389.168C33.9253 389.723 33.0347 390 31.904 390H27.232V378.8H31.456C33.5893 378.8 34.656 379.701 34.656 381.504C34.656 382.613 34.2453 383.403 33.424 383.872ZM29.28 383.2H31.152C31.6533 383.2 32.0267 383.099 32.272 382.896C32.5173 382.683 32.64 382.357 32.64 381.92C32.64 381.461 32.5173 381.131 32.272 380.928C32.0267 380.725 31.6533 380.624 31.152 380.624H29.28V383.2ZM31.6 388.176C32.1973 388.176 32.6507 388.059 32.96 387.824C33.28 387.579 33.44 387.168 33.44 386.592C33.44 386.027 33.2747 385.627 32.944 385.392C32.624 385.147 32.176 385.024 31.6 385.024H29.28V388.176H31.6ZM38.6716 390.16C38.0103 390.16 37.4556 389.947 37.0076 389.52C36.5703 389.083 36.3516 388.496 36.3516 387.76C36.3516 387.067 36.6023 386.512 37.1036 386.096C37.605 385.669 38.197 385.371 38.8796 385.2C39.5623 385.019 40.2183 384.917 40.8476 384.896C40.8263 384.427 40.7036 384.091 40.4796 383.888C40.2663 383.685 39.909 383.584 39.4076 383.584C39.0556 383.584 38.709 383.632 38.3676 383.728C38.037 383.824 37.653 383.979 37.2156 384.192L37.0396 382.576C38.0103 382.107 38.981 381.872 39.9516 381.872C40.8903 381.872 41.605 382.128 42.0956 382.64C42.597 383.152 42.8476 383.968 42.8476 385.088V387.248C42.8476 387.653 42.8636 387.947 42.8956 388.128C42.9383 388.299 43.0023 388.411 43.0876 388.464C43.1836 388.507 43.3383 388.528 43.5516 388.528H43.8076L43.6316 390.16H42.9116C42.4743 390.16 42.1063 390.08 41.8076 389.92C41.509 389.749 41.2796 389.52 41.1196 389.232C40.8636 389.52 40.5116 389.749 40.0636 389.92C39.6263 390.08 39.1623 390.16 38.6716 390.16ZM39.5036 388.64C39.7063 388.64 39.9356 388.592 40.1916 388.496C40.4476 388.389 40.6716 388.245 40.8636 388.064V386.24C40.2236 386.272 39.6583 386.411 39.1676 386.656C38.677 386.901 38.4316 387.243 38.4316 387.68C38.4316 388.011 38.517 388.256 38.6876 388.416C38.8583 388.565 39.1303 388.64 39.5036 388.64ZM48.6244 390.16C47.739 390.16 46.9764 389.979 46.3364 389.616C45.707 389.243 45.2324 388.741 44.9124 388.112C44.5924 387.483 44.4324 386.784 44.4324 386.016C44.4324 385.237 44.5924 384.533 44.9124 383.904C45.2324 383.264 45.7124 382.763 46.3524 382.4C46.9924 382.027 47.771 381.84 48.6884 381.84C49.5097 381.84 50.2244 382.011 50.8324 382.352L50.6724 383.952C50.0964 383.653 49.499 383.504 48.8804 383.504C48.123 383.504 47.531 383.733 47.1044 384.192C46.6777 384.651 46.4644 385.259 46.4644 386.016C46.4644 386.741 46.683 387.344 47.1204 387.824C47.5577 388.293 48.139 388.528 48.8644 388.528C49.4724 388.528 50.0804 388.352 50.6884 388L50.8644 389.68C50.5764 389.829 50.235 389.947 49.8404 390.032C49.4564 390.117 49.051 390.16 48.6244 390.16ZM52.1776 378H54.1616V385.28L56.6416 382H58.8816L55.9696 385.84L58.9456 390H56.7056L54.1616 386.448V390H52.1776V378ZM66.9353 382V390H65.0793L65.0473 389.52C64.8019 389.701 64.5193 389.856 64.1993 389.984C63.8793 390.101 63.5699 390.16 63.2713 390.16C62.0873 390.16 61.2233 389.819 60.6793 389.136C60.1459 388.453 59.8793 387.509 59.8793 386.304V382H61.8633V386.304C61.8633 387.051 61.9859 387.605 62.2313 387.968C62.4873 388.32 62.8926 388.496 63.4473 388.496C64.0659 388.496 64.5673 388.272 64.9513 387.824V382H66.9353ZM72.9634 381.872C73.7207 381.872 74.3714 382.059 74.9154 382.432C75.4594 382.805 75.87 383.307 76.1474 383.936C76.4247 384.565 76.5634 385.259 76.5634 386.016C76.5634 386.773 76.4247 387.467 76.1474 388.096C75.87 388.725 75.4594 389.227 74.9154 389.6C74.3714 389.973 73.7207 390.16 72.9634 390.16C72.4834 390.16 72.0727 390.107 71.7314 390C71.4007 389.904 71.0807 389.744 70.7714 389.52V393.872H68.7874V382H70.3874L70.5954 382.736C70.9367 382.448 71.294 382.235 71.6674 382.096C72.0407 381.947 72.4727 381.872 72.9634 381.872ZM72.6594 388.528C73.246 388.528 73.7047 388.299 74.0354 387.84C74.366 387.381 74.5314 386.773 74.5314 386.016C74.5314 385.259 74.366 384.651 74.0354 384.192C73.7047 383.733 73.246 383.504 72.6594 383.504C71.998 383.504 71.502 383.728 71.1714 384.176C70.8407 384.624 70.6754 385.237 70.6754 386.016C70.6754 386.795 70.8407 387.408 71.1714 387.856C71.502 388.304 71.998 388.528 72.6594 388.528ZM80.7694 378.8H82.8974L85.1374 386.752L87.6334 378.8H89.0574L91.6494 386.544L93.7934 378.8H95.9214L92.6414 390H90.8334L88.3374 382.528L85.8574 390H83.9214L80.7694 378.8ZM98.0935 390.16C97.4322 390.16 96.8775 389.947 96.4295 389.52C95.9922 389.083 95.7735 388.496 95.7735 387.76C95.7735 387.067 96.0242 386.512 96.5255 386.096C97.0268 385.669 97.6188 385.371 98.3015 385.2C98.9842 385.019 99.6402 384.917 100.27 384.896C100.248 384.427 100.126 384.091 99.9015 383.888C99.6882 383.685 99.3308 383.584 98.8295 383.584C98.4775 383.584 98.1308 383.632 97.7895 383.728C97.4588 383.824 97.0748 383.979 96.6375 384.192L96.4615 382.576C97.4322 382.107 98.4028 381.872 99.3735 381.872C100.312 381.872 101.027 382.128 101.518 382.64C102.019 383.152 102.27 383.968 102.27 385.088V387.248C102.27 387.653 102.286 387.947 102.318 388.128C102.36 388.299 102.424 388.411 102.51 388.464C102.606 388.507 102.76 388.528 102.974 388.528H103.23L103.054 390.16H102.334C101.896 390.16 101.528 390.08 101.23 389.92C100.931 389.749 100.702 389.52 100.542 389.232C100.286 389.52 99.9335 389.749 99.4855 389.92C99.0482 390.08 98.5842 390.16 98.0935 390.16ZM98.9255 388.64C99.1282 388.64 99.3575 388.592 99.6135 388.496C99.8695 388.389 100.094 388.245 100.286 388.064V386.24C99.6455 386.272 99.0802 386.411 98.5895 386.656C98.0988 386.901 97.8535 387.243 97.8535 387.68C97.8535 388.011 97.9388 388.256 98.1095 388.416C98.2802 388.565 98.5522 388.64 98.9255 388.64ZM106.382 390.16C105.7 390.16 105.188 389.968 104.846 389.584C104.505 389.189 104.334 388.683 104.334 388.064V378H106.318V387.248C106.318 387.675 106.34 387.979 106.382 388.16C106.436 388.331 106.521 388.437 106.638 388.48C106.766 388.512 106.98 388.528 107.278 388.528L107.102 390.16H106.382ZM110.585 390.16C109.903 390.16 109.391 389.968 109.049 389.584C108.708 389.189 108.537 388.683 108.537 388.064V378H110.521V387.248C110.521 387.675 110.543 387.979 110.585 388.16C110.639 388.331 110.724 388.437 110.841 388.48C110.969 388.512 111.183 388.528 111.481 388.528L111.305 390.16H110.585ZM116.518 390.16C115.59 390.16 114.796 389.973 114.134 389.6C113.484 389.216 112.993 388.709 112.662 388.08C112.342 387.44 112.182 386.731 112.182 385.952C112.182 385.205 112.337 384.523 112.646 383.904C112.956 383.285 113.404 382.795 113.99 382.432C114.577 382.059 115.276 381.872 116.086 381.872C116.833 381.872 117.462 382.027 117.974 382.336C118.497 382.645 118.886 383.061 119.142 383.584C119.409 384.107 119.542 384.693 119.542 385.344C119.542 385.664 119.5 386.027 119.414 386.432H114.246C114.353 387.136 114.63 387.664 115.078 388.016C115.526 388.357 116.065 388.528 116.694 388.528C117.558 388.528 118.358 388.309 119.094 387.872L119.19 389.552C118.849 389.733 118.449 389.883 117.99 390C117.542 390.107 117.052 390.16 116.518 390.16ZM117.526 385.088C117.526 384.672 117.409 384.304 117.174 383.984C116.94 383.664 116.577 383.504 116.086 383.504C115.596 383.504 115.201 383.648 114.902 383.936C114.604 384.224 114.401 384.608 114.294 385.088H117.526ZM123.505 390.16C122.801 390.16 122.267 389.957 121.905 389.552C121.542 389.136 121.361 388.64 121.361 388.064V383.632H120.225L120.401 382H121.361V380.24L123.345 380.032V382H125.105V383.632H123.345V387.248C123.345 387.675 123.366 387.973 123.409 388.144C123.462 388.304 123.563 388.411 123.713 388.464C123.873 388.507 124.155 388.528 124.561 388.528H125.105L124.929 390.16H123.505Z" fill="white"/>
<path d="M29.92 287.196C29.3693 287.196 28.7767 287.121 28.142 286.972C27.5167 286.823 27.0267 286.659 26.672 286.482L26.882 284.578C28.114 285.175 29.1967 285.474 30.13 285.474C30.6247 285.474 31.012 285.381 31.292 285.194C31.572 284.998 31.712 284.713 31.712 284.34C31.712 284.06 31.6327 283.831 31.474 283.654C31.3247 283.467 31.1053 283.313 30.816 283.192C30.5267 283.061 30.0647 282.884 29.43 282.66C28.8327 282.455 28.338 282.24 27.946 282.016C27.554 281.783 27.2413 281.489 27.008 281.134C26.784 280.77 26.672 280.327 26.672 279.804C26.672 278.964 26.98 278.287 27.596 277.774C28.212 277.261 29.094 277.004 30.242 277.004C30.7833 277.004 31.32 277.065 31.852 277.186C32.3933 277.307 32.888 277.457 33.336 277.634L33.154 279.468C32.5753 279.216 32.0433 279.029 31.558 278.908C31.082 278.777 30.606 278.712 30.13 278.712C29.598 278.712 29.192 278.801 28.912 278.978C28.632 279.155 28.492 279.412 28.492 279.748C28.492 280.009 28.5667 280.224 28.716 280.392C28.8653 280.56 29.066 280.7 29.318 280.812C29.5793 280.924 29.962 281.059 30.466 281.218C31.5953 281.573 32.4167 281.983 32.93 282.45C33.4527 282.907 33.714 283.537 33.714 284.34C33.714 285.105 33.448 285.773 32.916 286.342C32.384 286.911 31.3853 287.196 29.92 287.196ZM38.3071 287.14C37.4951 287.14 36.7998 286.977 36.2211 286.65C35.6518 286.314 35.2224 285.871 34.9331 285.32C34.6531 284.76 34.5131 284.139 34.5131 283.458C34.5131 282.805 34.6484 282.207 34.9191 281.666C35.1898 281.125 35.5818 280.695 36.0951 280.378C36.6084 280.051 37.2198 279.888 37.9291 279.888C38.5824 279.888 39.1331 280.023 39.5811 280.294C40.0384 280.565 40.3791 280.929 40.6031 281.386C40.8364 281.843 40.9531 282.357 40.9531 282.926C40.9531 283.206 40.9158 283.523 40.8411 283.878H36.3191C36.4124 284.494 36.6551 284.956 37.0471 285.264C37.4391 285.563 37.9104 285.712 38.4611 285.712C39.2171 285.712 39.9171 285.521 40.5611 285.138L40.6451 286.608C40.3464 286.767 39.9964 286.897 39.5951 287C39.2031 287.093 38.7738 287.14 38.3071 287.14ZM39.1891 282.702C39.1891 282.338 39.0864 282.016 38.8811 281.736C38.6758 281.456 38.3584 281.316 37.9291 281.316C37.4998 281.316 37.1544 281.442 36.8931 281.694C36.6318 281.946 36.4544 282.282 36.3611 282.702H39.1891ZM45.3862 287.14C44.6115 287.14 43.9442 286.981 43.3842 286.664C42.8335 286.337 42.4182 285.899 42.1382 285.348C41.8582 284.797 41.7182 284.186 41.7182 283.514C41.7182 282.833 41.8582 282.217 42.1382 281.666C42.4182 281.106 42.8382 280.667 43.3982 280.35C43.9582 280.023 44.6395 279.86 45.4422 279.86C46.1608 279.86 46.7862 280.009 47.3182 280.308L47.1782 281.708C46.6742 281.447 46.1515 281.316 45.6102 281.316C44.9475 281.316 44.4295 281.517 44.0562 281.918C43.6828 282.319 43.4962 282.851 43.4962 283.514C43.4962 284.149 43.6875 284.676 44.0702 285.096C44.4528 285.507 44.9615 285.712 45.5962 285.712C46.1282 285.712 46.6602 285.558 47.1922 285.25L47.3462 286.72C47.0942 286.851 46.7955 286.953 46.4502 287.028C46.1142 287.103 45.7595 287.14 45.3862 287.14ZM54.6133 280V287H52.9893L52.9613 286.58C52.7466 286.739 52.4993 286.874 52.2193 286.986C51.9393 287.089 51.6686 287.14 51.4073 287.14C50.3713 287.14 49.6153 286.841 49.1393 286.244C48.6726 285.647 48.4393 284.821 48.4393 283.766V280H50.1753V283.766C50.1753 284.419 50.2826 284.905 50.4973 285.222C50.7213 285.53 51.0759 285.684 51.5613 285.684C52.1026 285.684 52.5413 285.488 52.8773 285.096V280H54.6133ZM56.2339 280H57.8579L57.8999 280.742C58.1052 280.509 58.3665 280.303 58.6839 280.126C59.0105 279.949 59.3512 279.86 59.7059 279.86C59.8179 279.86 59.9205 279.869 60.0139 279.888L59.8879 281.596C59.7105 281.549 59.5099 281.526 59.2859 281.526C58.9965 281.526 58.7305 281.596 58.4879 281.736C58.2452 281.867 58.0725 282.03 57.9699 282.226V287H56.2339V280ZM60.855 277.2H62.591V278.936H60.855V277.2ZM60.855 280H62.591V287H60.855V280ZM66.5003 287.14C65.8843 287.14 65.4176 286.963 65.1003 286.608C64.7829 286.244 64.6243 285.81 64.6243 285.306V281.428H63.6303L63.7843 280H64.6243V278.46L66.3603 278.278V280H67.9003V281.428H66.3603V284.592C66.3603 284.965 66.3789 285.227 66.4163 285.376C66.4629 285.516 66.5516 285.609 66.6823 285.656C66.8223 285.693 67.0696 285.712 67.4243 285.712H67.9003L67.7463 287.14H66.5003ZM71.1448 286.538L68.2328 280H70.1648L71.9568 284.508L73.7768 280H75.7088L71.3268 290.388H69.5908L71.1448 286.538Z" fill="#AAAAAA"/>
<path d="M28 59.4675L20.583 67.5L28 75.5325L25.7166 78L16 67.5L25.7166 57L28 59.4675Z" fill="white"/>
<path d="M162.163 74.252C161.455 74.252 160.693 74.156 159.877 73.964C159.073 73.772 158.443 73.562 157.987 73.334L158.257 70.886C159.841 71.654 161.233 72.038 162.433 72.038C163.069 72.038 163.567 71.918 163.927 71.678C164.287 71.426 164.467 71.06 164.467 70.58C164.467 70.22 164.365 69.926 164.161 69.698C163.969 69.458 163.687 69.26 163.315 69.104C162.943 68.936 162.349 68.708 161.533 68.42C160.765 68.156 160.129 67.88 159.625 67.592C159.121 67.292 158.719 66.914 158.419 66.458C158.131 65.99 157.987 65.42 157.987 64.748C157.987 63.668 158.383 62.798 159.175 62.138C159.967 61.478 161.101 61.148 162.577 61.148C163.273 61.148 163.963 61.226 164.647 61.382C165.343 61.538 165.979 61.73 166.555 61.958L166.321 64.316C165.577 63.992 164.893 63.752 164.269 63.596C163.657 63.428 163.045 63.344 162.433 63.344C161.749 63.344 161.227 63.458 160.867 63.686C160.507 63.914 160.327 64.244 160.327 64.676C160.327 65.012 160.423 65.288 160.615 65.504C160.807 65.72 161.065 65.9 161.389 66.044C161.725 66.188 162.217 66.362 162.865 66.566C164.317 67.022 165.373 67.55 166.033 68.15C166.705 68.738 167.041 69.548 167.041 70.58C167.041 71.564 166.699 72.422 166.015 73.154C165.331 73.886 164.047 74.252 162.163 74.252ZM173.847 74.18C172.803 74.18 171.909 73.97 171.165 73.55C170.433 73.118 169.881 72.548 169.509 71.84C169.149 71.12 168.969 70.322 168.969 69.446C168.969 68.606 169.143 67.838 169.491 67.142C169.839 66.446 170.343 65.894 171.003 65.486C171.663 65.066 172.449 64.856 173.361 64.856C174.201 64.856 174.909 65.03 175.485 65.378C176.073 65.726 176.511 66.194 176.799 66.782C177.099 67.37 177.249 68.03 177.249 68.762C177.249 69.122 177.201 69.53 177.105 69.986H171.291C171.411 70.778 171.723 71.372 172.227 71.768C172.731 72.152 173.337 72.344 174.045 72.344C175.017 72.344 175.917 72.098 176.745 71.606L176.853 73.496C176.469 73.7 176.019 73.868 175.503 74C174.999 74.12 174.447 74.18 173.847 74.18ZM174.981 68.474C174.981 68.006 174.849 67.592 174.585 67.232C174.321 66.872 173.913 66.692 173.361 66.692C172.809 66.692 172.365 66.854 172.029 67.178C171.693 67.502 171.465 67.934 171.345 68.474H174.981ZM182.606 74.18C181.814 74.18 181.214 73.952 180.806 73.496C180.398 73.028 180.194 72.47 180.194 71.822V66.836H178.916L179.114 65H180.194V63.02L182.426 62.786V65H184.406V66.836H182.426V70.904C182.426 71.384 182.45 71.72 182.498 71.912C182.558 72.092 182.672 72.212 182.84 72.272C183.02 72.32 183.338 72.344 183.794 72.344H184.406L184.208 74.18H182.606ZM189.694 74.18C188.902 74.18 188.302 73.952 187.894 73.496C187.486 73.028 187.282 72.47 187.282 71.822V66.836H186.004L186.202 65H187.282V63.02L189.514 62.786V65H191.494V66.836H189.514V70.904C189.514 71.384 189.538 71.72 189.586 71.912C189.646 72.092 189.76 72.212 189.928 72.272C190.108 72.32 190.426 72.344 190.882 72.344H191.494L191.296 74.18H189.694ZM193.847 61.4H196.079V63.632H193.847V61.4ZM193.847 65H196.079V74H193.847V65ZM203.608 64.856C204.724 64.856 205.57 65.228 206.146 65.972C206.722 66.716 207.01 67.718 207.01 68.978V74H204.778V69.158C204.778 68.318 204.634 67.7 204.346 67.304C204.07 66.896 203.62 66.692 202.996 66.692C202.312 66.692 201.748 66.95 201.304 67.466V74H199.072V65H201.16L201.196 65.63C201.952 65.114 202.756 64.856 203.608 64.856ZM213.467 78.536C212.195 78.536 211.181 78.302 210.425 77.834C209.669 77.378 209.291 76.754 209.291 75.962C209.291 75.098 209.777 74.39 210.749 73.838C210.221 73.514 209.957 73.088 209.957 72.56C209.957 72.284 210.035 72.038 210.191 71.822C210.359 71.606 210.581 71.432 210.857 71.3C210.401 70.976 210.053 70.562 209.813 70.058C209.585 69.554 209.471 69.002 209.471 68.402C209.471 67.742 209.615 67.142 209.903 66.602C210.191 66.05 210.611 65.618 211.163 65.306C211.715 64.982 212.369 64.82 213.125 64.82C213.917 64.82 214.601 65.012 215.177 65.396C215.381 65.288 215.651 65.198 215.987 65.126C216.335 65.042 216.707 65 217.103 65H217.679L217.535 66.404H216.725C216.521 66.404 216.353 66.41 216.221 66.422C216.581 66.974 216.761 67.634 216.761 68.402C216.761 69.062 216.617 69.668 216.329 70.22C216.053 70.76 215.639 71.192 215.087 71.516C214.535 71.828 213.881 71.984 213.125 71.984C212.849 71.984 212.531 71.942 212.171 71.858C212.039 71.918 211.973 72.014 211.973 72.146C211.973 72.302 212.063 72.428 212.243 72.524C212.435 72.608 212.753 72.68 213.197 72.74L214.745 72.938C216.809 73.214 217.841 74.084 217.841 75.548C217.841 76.46 217.451 77.186 216.671 77.726C215.903 78.266 214.835 78.536 213.467 78.536ZM213.125 70.328C213.641 70.328 214.037 70.16 214.313 69.824C214.601 69.476 214.745 69.002 214.745 68.402C214.745 67.802 214.601 67.334 214.313 66.998C214.037 66.65 213.641 66.476 213.125 66.476C212.597 66.476 212.189 66.65 211.901 66.998C211.625 67.334 211.487 67.802 211.487 68.402C211.487 69.002 211.625 69.476 211.901 69.824C212.189 70.16 212.597 70.328 213.125 70.328ZM213.557 76.844C215.093 76.844 215.861 76.466 215.861 75.71C215.861 75.374 215.729 75.122 215.465 74.954C215.201 74.798 214.763 74.672 214.151 74.576L212.171 74.288C211.487 74.564 211.145 74.984 211.145 75.548C211.145 75.98 211.355 76.304 211.775 76.52C212.195 76.736 212.789 76.844 213.557 76.844Z" fill="white"/>
<g filter="url(#filter0_d)">
<rect y="719" width="375" height="93" fill="#474A4F"/>
</g>
<path d="M27 734.375C27 733.069 28.125 732 29.5 732H48.25C48.9403 732 49.5 732.532 49.5 733.188V734.375H29.5V735.563H50.75C51.4403 735.563 52 736.094 52 736.75V748.625C52 749.937 50.8806 751 49.5 751H29.5C28.1194 751 27 749.937 27 748.625V734.375ZM47.625 745.063C48.6606 745.063 49.5 744.265 49.5 743.281C49.5 742.297 48.6606 741.5 47.625 741.5C46.5894 741.5 45.75 742.297 45.75 743.281C45.75 744.265 46.5894 745.063 47.625 745.063Z" fill="#AAAAAA"/>
<path d="M28.08 760.4H29.144L30.264 764.376L31.512 760.4H32.224L33.52 764.272L34.592 760.4H35.656L34.016 766H33.112L31.864 762.264L30.624 766H29.656L28.08 760.4ZM36.7421 766.08C36.4114 766.08 36.1341 765.973 35.9101 765.76C35.6914 765.541 35.5821 765.248 35.5821 764.88C35.5821 764.533 35.7074 764.256 35.9581 764.048C36.2087 763.835 36.5047 763.685 36.8461 763.6C37.1874 763.509 37.5154 763.459 37.8301 763.448C37.8194 763.213 37.7581 763.045 37.6461 762.944C37.5394 762.843 37.3607 762.792 37.1101 762.792C36.9341 762.792 36.7607 762.816 36.5901 762.864C36.4247 762.912 36.2327 762.989 36.0141 763.096L35.9261 762.288C36.4114 762.053 36.8967 761.936 37.3821 761.936C37.8514 761.936 38.2087 762.064 38.4541 762.32C38.7047 762.576 38.8301 762.984 38.8301 763.544V764.624C38.8301 764.827 38.8381 764.973 38.8541 765.064C38.8754 765.149 38.9074 765.205 38.9501 765.232C38.9981 765.253 39.0754 765.264 39.1821 765.264H39.3101L39.2221 766.08H38.8621C38.6434 766.08 38.4594 766.04 38.3101 765.96C38.1607 765.875 38.0461 765.76 37.9661 765.616C37.8381 765.76 37.6621 765.875 37.4381 765.96C37.2194 766.04 36.9874 766.08 36.7421 766.08ZM37.1581 765.32C37.2594 765.32 37.3741 765.296 37.5021 765.248C37.6301 765.195 37.7421 765.123 37.8381 765.032V764.12C37.5181 764.136 37.2354 764.205 36.9901 764.328C36.7447 764.451 36.6221 764.621 36.6221 764.84C36.6221 765.005 36.6647 765.128 36.7501 765.208C36.8354 765.283 36.9714 765.32 37.1581 765.32ZM40.8864 766.08C40.5451 766.08 40.2891 765.984 40.1184 765.792C39.9478 765.595 39.8624 765.341 39.8624 765.032V760H40.8544V764.624C40.8544 764.837 40.8651 764.989 40.8864 765.08C40.9131 765.165 40.9558 765.219 41.0144 765.24C41.0784 765.256 41.1851 765.264 41.3344 765.264L41.2464 766.08H40.8864ZM42.988 766.08C42.6467 766.08 42.3907 765.984 42.22 765.792C42.0493 765.595 41.964 765.341 41.964 765.032V760H42.956V764.624C42.956 764.837 42.9667 764.989 42.988 765.08C43.0147 765.165 43.0573 765.219 43.116 765.24C43.18 765.256 43.2867 765.264 43.436 765.264L43.348 766.08H42.988ZM45.9545 766.08C45.4905 766.08 45.0932 765.987 44.7625 765.8C44.4372 765.608 44.1918 765.355 44.0265 765.04C43.8665 764.72 43.7865 764.365 43.7865 763.976C43.7865 763.603 43.8638 763.261 44.0185 762.952C44.1732 762.643 44.3972 762.397 44.6905 762.216C44.9838 762.029 45.3332 761.936 45.7385 761.936C46.1118 761.936 46.4265 762.013 46.6825 762.168C46.9438 762.323 47.1385 762.531 47.2665 762.792C47.3998 763.053 47.4665 763.347 47.4665 763.672C47.4665 763.832 47.4452 764.013 47.4025 764.216H44.8185C44.8718 764.568 45.0105 764.832 45.2345 765.008C45.4585 765.179 45.7278 765.264 46.0425 765.264C46.4745 765.264 46.8745 765.155 47.2425 764.936L47.2905 765.776C47.1198 765.867 46.9198 765.941 46.6905 766C46.4665 766.053 46.2212 766.08 45.9545 766.08ZM46.4585 763.544C46.4585 763.336 46.3998 763.152 46.2825 762.992C46.1652 762.832 45.9838 762.752 45.7385 762.752C45.4932 762.752 45.2958 762.824 45.1465 762.968C44.9972 763.112 44.8958 763.304 44.8425 763.544H46.4585ZM49.4477 766.08C49.0957 766.08 48.829 765.979 48.6477 765.776C48.4664 765.568 48.3757 765.32 48.3757 765.032V762.816H47.8077L47.8957 762H48.3757V761.12L49.3677 761.016V762H50.2477V762.816H49.3677V764.624C49.3677 764.837 49.3784 764.987 49.3997 765.072C49.4264 765.152 49.477 765.205 49.5517 765.232C49.6317 765.253 49.773 765.264 49.9757 765.264H50.2477L50.1597 766.08H49.4477Z" fill="#AAAAAA"/>
<path d="M329 749H352V746.5H329V749ZM329 742.75H352V740.25H329V742.75ZM329 734V736.5H352V734H329Z" fill="#A6A6A6"/>
<path d="M335.248 766L334.768 762.248L333.336 764.824L331.896 762.256L331.416 766H330.352L331.128 760.4H331.968L333.336 762.952L334.696 760.4H335.536L336.312 766H335.248ZM338.955 766.08C338.491 766.08 338.093 765.987 337.763 765.8C337.437 765.608 337.192 765.355 337.027 765.04C336.867 764.72 336.787 764.365 336.787 763.976C336.787 763.603 336.864 763.261 337.019 762.952C337.173 762.643 337.397 762.397 337.691 762.216C337.984 762.029 338.333 761.936 338.739 761.936C339.112 761.936 339.427 762.013 339.683 762.168C339.944 762.323 340.139 762.531 340.267 762.792C340.4 763.053 340.467 763.347 340.467 763.672C340.467 763.832 340.445 764.013 340.403 764.216H337.819C337.872 764.568 338.011 764.832 338.235 765.008C338.459 765.179 338.728 765.264 339.043 765.264C339.475 765.264 339.875 765.155 340.243 764.936L340.291 765.776C340.12 765.867 339.92 765.941 339.691 766C339.467 766.053 339.221 766.08 338.955 766.08ZM339.459 763.544C339.459 763.336 339.4 763.152 339.283 762.992C339.165 762.832 338.984 762.752 338.739 762.752C338.493 762.752 338.296 762.824 338.147 762.968C337.997 763.112 337.896 763.304 337.843 763.544H339.459ZM343.16 761.936C343.656 761.936 344.032 762.101 344.288 762.432C344.544 762.763 344.672 763.208 344.672 763.768V766H343.68V763.848C343.68 763.475 343.616 763.2 343.488 763.024C343.365 762.843 343.165 762.752 342.888 762.752C342.584 762.752 342.333 762.867 342.136 763.096V766H341.144V762H342.072L342.088 762.28C342.424 762.051 342.781 761.936 343.16 761.936ZM349.015 762V766H348.087L348.071 765.76C347.948 765.851 347.807 765.928 347.647 765.992C347.487 766.051 347.332 766.08 347.183 766.08C346.591 766.08 346.159 765.909 345.887 765.568C345.62 765.227 345.487 764.755 345.487 764.152V762H346.479V764.152C346.479 764.525 346.54 764.803 346.663 764.984C346.791 765.16 346.993 765.248 347.271 765.248C347.58 765.248 347.831 765.136 348.023 764.912V762H349.015Z" fill="#AAAAAA"/>
<path d="M245.52 764.672H243.48L243.016 766H242.024L244.016 760.4H244.984L246.976 766H245.984L245.52 764.672ZM245.2 763.776L244.504 761.776L243.8 763.776H245.2ZM251.018 760V766H250.082L250.066 765.744C249.912 765.856 249.749 765.941 249.578 766C249.413 766.053 249.216 766.08 248.986 766.08C248.597 766.08 248.261 765.987 247.978 765.8C247.701 765.613 247.49 765.363 247.346 765.048C247.202 764.733 247.13 764.387 247.13 764.008C247.13 763.629 247.202 763.283 247.346 762.968C247.49 762.653 247.701 762.403 247.978 762.216C248.261 762.029 248.597 761.936 248.986 761.936C249.376 761.936 249.722 762.043 250.026 762.256V760H251.018ZM249.13 765.264C249.445 765.264 249.68 765.152 249.834 764.928C249.994 764.704 250.074 764.397 250.074 764.008C250.074 763.619 249.994 763.312 249.834 763.088C249.68 762.864 249.445 762.752 249.13 762.752C248.821 762.752 248.578 762.867 248.402 763.096C248.232 763.325 248.146 763.629 248.146 764.008C248.146 764.387 248.232 764.691 248.402 764.92C248.578 765.149 248.821 765.264 249.13 765.264ZM255.589 760V766H254.653L254.637 765.744C254.482 765.856 254.319 765.941 254.149 766C253.983 766.053 253.786 766.08 253.557 766.08C253.167 766.08 252.831 765.987 252.549 765.8C252.271 765.613 252.061 765.363 251.917 765.048C251.773 764.733 251.701 764.387 251.701 764.008C251.701 763.629 251.773 763.283 251.917 762.968C252.061 762.653 252.271 762.403 252.549 762.216C252.831 762.029 253.167 761.936 253.557 761.936C253.946 761.936 254.293 762.043 254.597 762.256V760H255.589ZM253.701 765.264C254.015 765.264 254.25 765.152 254.405 764.928C254.565 764.704 254.645 764.397 254.645 764.008C254.645 763.619 254.565 763.312 254.405 763.088C254.25 762.864 254.015 762.752 253.701 762.752C253.391 762.752 253.149 762.867 252.973 763.096C252.802 763.325 252.717 763.629 252.717 764.008C252.717 764.387 252.802 764.691 252.973 764.92C253.149 765.149 253.391 765.264 253.701 765.264ZM256.511 762H257.439L257.463 762.424C257.58 762.291 257.73 762.173 257.911 762.072C258.098 761.971 258.292 761.92 258.495 761.92C258.559 761.92 258.618 761.925 258.671 761.936L258.599 762.912C258.498 762.885 258.383 762.872 258.255 762.872C258.09 762.872 257.938 762.912 257.799 762.992C257.66 763.067 257.562 763.16 257.503 763.272V766H256.511V762ZM261.009 766.08C260.545 766.08 260.148 765.987 259.817 765.8C259.492 765.608 259.247 765.355 259.081 765.04C258.921 764.72 258.841 764.365 258.841 763.976C258.841 763.603 258.919 763.261 259.073 762.952C259.228 762.643 259.452 762.397 259.745 762.216C260.039 762.029 260.388 761.936 260.793 761.936C261.167 761.936 261.481 762.013 261.737 762.168C261.999 762.323 262.193 762.531 262.321 762.792C262.455 763.053 262.521 763.347 262.521 763.672C262.521 763.832 262.5 764.013 262.457 764.216H259.873C259.927 764.568 260.065 764.832 260.289 765.008C260.513 765.179 260.783 765.264 261.097 765.264C261.529 765.264 261.929 765.155 262.297 764.936L262.345 765.776C262.175 765.867 261.975 765.941 261.745 766C261.521 766.053 261.276 766.08 261.009 766.08ZM261.513 763.544C261.513 763.336 261.455 763.152 261.337 762.992C261.22 762.832 261.039 762.752 260.793 762.752C260.548 762.752 260.351 762.824 260.201 762.968C260.052 763.112 259.951 763.304 259.897 763.544H261.513ZM264.334 766.08C264.078 766.08 263.844 766.056 263.63 766.008C263.422 765.96 263.206 765.885 262.982 765.784L263.07 764.936C263.294 765.069 263.502 765.171 263.694 765.24C263.892 765.304 264.094 765.336 264.302 765.336C264.708 765.336 264.91 765.203 264.91 764.936C264.91 764.792 264.857 764.683 264.75 764.608C264.644 764.528 264.452 764.435 264.174 764.328C263.78 764.184 263.489 764.021 263.302 763.84C263.116 763.653 263.022 763.403 263.022 763.088C263.022 762.741 263.156 762.461 263.422 762.248C263.689 762.029 264.049 761.92 264.502 761.92C264.956 761.92 265.369 762.024 265.742 762.232L265.654 763.08C265.452 762.941 265.26 762.835 265.078 762.76C264.902 762.685 264.716 762.648 264.518 762.648C264.348 762.648 264.214 762.683 264.118 762.752C264.028 762.821 263.982 762.92 263.982 763.048C263.982 763.149 264.009 763.232 264.062 763.296C264.121 763.36 264.201 763.419 264.302 763.472C264.404 763.52 264.572 763.589 264.806 763.68C265.196 763.829 265.476 763.995 265.646 764.176C265.817 764.352 265.902 764.589 265.902 764.888C265.902 765.267 265.766 765.56 265.494 765.768C265.222 765.976 264.836 766.08 264.334 766.08ZM267.717 766.08C267.461 766.08 267.227 766.056 267.013 766.008C266.805 765.96 266.589 765.885 266.365 765.784L266.453 764.936C266.677 765.069 266.885 765.171 267.077 765.24C267.275 765.304 267.477 765.336 267.685 765.336C268.091 765.336 268.293 765.203 268.293 764.936C268.293 764.792 268.24 764.683 268.133 764.608C268.027 764.528 267.835 764.435 267.557 764.328C267.163 764.184 266.872 764.021 266.685 763.84C266.499 763.653 266.405 763.403 266.405 763.088C266.405 762.741 266.539 762.461 266.805 762.248C267.072 762.029 267.432 761.92 267.885 761.92C268.339 761.92 268.752 762.024 269.125 762.232L269.037 763.08C268.835 762.941 268.643 762.835 268.461 762.76C268.285 762.685 268.099 762.648 267.901 762.648C267.731 762.648 267.597 762.683 267.501 762.752C267.411 762.821 267.365 762.92 267.365 763.048C267.365 763.149 267.392 763.232 267.445 763.296C267.504 763.36 267.584 763.419 267.685 763.472C267.787 763.52 267.955 763.589 268.189 763.68C268.579 763.829 268.859 763.995 269.029 764.176C269.2 764.352 269.285 764.589 269.285 764.888C269.285 765.267 269.149 765.56 268.877 765.768C268.605 765.976 268.219 766.08 267.717 766.08ZM275.009 762.936C275.718 763.165 276.073 763.656 276.073 764.408C276.073 764.909 275.91 765.301 275.585 765.584C275.26 765.861 274.814 766 274.249 766H271.913V760.4H274.025C275.092 760.4 275.625 760.851 275.625 761.752C275.625 762.307 275.42 762.701 275.009 762.936ZM272.937 762.6H273.873C274.124 762.6 274.31 762.549 274.433 762.448C274.556 762.341 274.617 762.179 274.617 761.96C274.617 761.731 274.556 761.565 274.433 761.464C274.31 761.363 274.124 761.312 273.873 761.312H272.937V762.6ZM274.097 765.088C274.396 765.088 274.622 765.029 274.777 764.912C274.937 764.789 275.017 764.584 275.017 764.296C275.017 764.013 274.934 763.813 274.769 763.696C274.609 763.573 274.385 763.512 274.097 763.512H272.937V765.088H274.097ZM278.585 766.08C278.163 766.08 277.798 765.987 277.489 765.8C277.179 765.613 276.942 765.363 276.777 765.048C276.611 764.733 276.529 764.387 276.529 764.008C276.529 763.629 276.611 763.28 276.777 762.96C276.942 762.64 277.179 762.387 277.489 762.2C277.798 762.013 278.163 761.92 278.585 761.92C279.006 761.92 279.371 762.013 279.681 762.2C279.99 762.387 280.227 762.64 280.393 762.96C280.558 763.28 280.641 763.629 280.641 764.008C280.641 764.387 280.558 764.733 280.393 765.048C280.227 765.363 279.99 765.613 279.681 765.8C279.371 765.987 279.006 766.08 278.585 766.08ZM278.585 765.264C278.91 765.264 279.163 765.149 279.345 764.92C279.531 764.691 279.625 764.387 279.625 764.008C279.625 763.624 279.531 763.317 279.345 763.088C279.163 762.853 278.91 762.736 278.585 762.736C278.259 762.736 278.003 762.853 277.817 763.088C277.635 763.317 277.545 763.624 277.545 764.008C277.545 764.387 277.635 764.691 277.817 764.92C278.003 765.149 278.259 765.264 278.585 765.264ZM283.147 766.08C282.726 766.08 282.361 765.987 282.051 765.8C281.742 765.613 281.505 765.363 281.339 765.048C281.174 764.733 281.091 764.387 281.091 764.008C281.091 763.629 281.174 763.28 281.339 762.96C281.505 762.64 281.742 762.387 282.051 762.2C282.361 762.013 282.726 761.92 283.147 761.92C283.569 761.92 283.934 762.013 284.243 762.2C284.553 762.387 284.79 762.64 284.955 762.96C285.121 763.28 285.203 763.629 285.203 764.008C285.203 764.387 285.121 764.733 284.955 765.048C284.79 765.363 284.553 765.613 284.243 765.8C283.934 765.987 283.569 766.08 283.147 766.08ZM283.147 765.264C283.473 765.264 283.726 765.149 283.907 764.92C284.094 764.691 284.187 764.387 284.187 764.008C284.187 763.624 284.094 763.317 283.907 763.088C283.726 762.853 283.473 762.736 283.147 762.736C282.822 762.736 282.566 762.853 282.379 763.088C282.198 763.317 282.107 763.624 282.107 764.008C282.107 764.387 282.198 764.691 282.379 764.92C282.566 765.149 282.822 765.264 283.147 765.264ZM285.886 760H286.878V763.64L288.118 762H289.238L287.782 763.92L289.27 766H288.15L286.878 764.224V766H285.886V760Z" fill="url(#paint0_linear)"/>
<path d="M257.2 735.4H255V750.8C255 752.01 255.99 753 257.2 753H272.6V750.8H257.2V735.4ZM274.8 731H261.6C260.39 731 259.4 731.99 259.4 733.2V746.4C259.4 747.61 260.39 748.6 261.6 748.6H274.8C276.01 748.6 277 747.61 277 746.4V733.2C277 731.99 276.01 731 274.8 731ZM273.7 740.9H262.7V738.7H273.7V740.9ZM269.3 745.3H262.7V743.1H269.3V745.3ZM273.7 736.5H262.7V734.3H273.7V736.5Z" fill="url(#paint1_linear)"/>
<path d="M97.24 766.112C96.9253 766.112 96.5867 766.069 96.224 765.984C95.8667 765.899 95.5867 765.805 95.384 765.704L95.504 764.616C96.208 764.957 96.8267 765.128 97.36 765.128C97.6427 765.128 97.864 765.075 98.024 764.968C98.184 764.856 98.264 764.693 98.264 764.48C98.264 764.32 98.2187 764.189 98.128 764.088C98.0427 763.981 97.9173 763.893 97.752 763.824C97.5867 763.749 97.3227 763.648 96.96 763.52C96.6187 763.403 96.336 763.28 96.112 763.152C95.888 763.019 95.7093 762.851 95.576 762.648C95.448 762.44 95.384 762.187 95.384 761.888C95.384 761.408 95.56 761.021 95.912 760.728C96.264 760.435 96.768 760.288 97.424 760.288C97.7333 760.288 98.04 760.323 98.344 760.392C98.6533 760.461 98.936 760.547 99.192 760.648L99.088 761.696C98.7573 761.552 98.4533 761.445 98.176 761.376C97.904 761.301 97.632 761.264 97.36 761.264C97.056 761.264 96.824 761.315 96.664 761.416C96.504 761.517 96.424 761.664 96.424 761.856C96.424 762.005 96.4667 762.128 96.552 762.224C96.6373 762.32 96.752 762.4 96.896 762.464C97.0453 762.528 97.264 762.605 97.552 762.696C98.1973 762.899 98.6667 763.133 98.96 763.4C99.2587 763.661 99.408 764.021 99.408 764.48C99.408 764.917 99.256 765.299 98.952 765.624C98.648 765.949 98.0773 766.112 97.24 766.112ZM99.6503 762H100.618L101.306 764.792L102.058 762.08H102.89L103.634 764.792L104.33 762H105.298L104.13 766H103.298L102.474 763.392L101.65 766H100.818L99.6503 762ZM106.672 766.08C106.341 766.08 106.064 765.973 105.84 765.76C105.621 765.541 105.512 765.248 105.512 764.88C105.512 764.533 105.637 764.256 105.888 764.048C106.138 763.835 106.434 763.685 106.776 763.6C107.117 763.509 107.445 763.459 107.76 763.448C107.749 763.213 107.688 763.045 107.576 762.944C107.469 762.843 107.29 762.792 107.04 762.792C106.864 762.792 106.69 762.816 106.52 762.864C106.354 762.912 106.162 762.989 105.944 763.096L105.856 762.288C106.341 762.053 106.826 761.936 107.312 761.936C107.781 761.936 108.138 762.064 108.384 762.32C108.634 762.576 108.76 762.984 108.76 763.544V764.624C108.76 764.827 108.768 764.973 108.784 765.064C108.805 765.149 108.837 765.205 108.88 765.232C108.928 765.253 109.005 765.264 109.112 765.264H109.24L109.152 766.08H108.792C108.573 766.08 108.389 766.04 108.24 765.96C108.09 765.875 107.976 765.76 107.896 765.616C107.768 765.76 107.592 765.875 107.368 765.96C107.149 766.04 106.917 766.08 106.672 766.08ZM107.088 765.32C107.189 765.32 107.304 765.296 107.432 765.248C107.56 765.195 107.672 765.123 107.768 765.032V764.12C107.448 764.136 107.165 764.205 106.92 764.328C106.674 764.451 106.552 764.621 106.552 764.84C106.552 765.005 106.594 765.128 106.68 765.208C106.765 765.283 106.901 765.32 107.088 765.32ZM111.88 761.936C112.259 761.936 112.584 762.029 112.856 762.216C113.128 762.403 113.333 762.653 113.472 762.968C113.611 763.283 113.68 763.629 113.68 764.008C113.68 764.387 113.611 764.733 113.472 765.048C113.333 765.363 113.128 765.613 112.856 765.8C112.584 765.987 112.259 766.08 111.88 766.08C111.64 766.08 111.435 766.053 111.264 766C111.099 765.952 110.939 765.872 110.784 765.76V767.936H109.792V762H110.592L110.696 762.368C110.867 762.224 111.045 762.117 111.232 762.048C111.419 761.973 111.635 761.936 111.88 761.936ZM111.728 765.264C112.021 765.264 112.251 765.149 112.416 764.92C112.581 764.691 112.664 764.387 112.664 764.008C112.664 763.629 112.581 763.325 112.416 763.096C112.251 762.867 112.021 762.752 111.728 762.752C111.397 762.752 111.149 762.864 110.984 763.088C110.819 763.312 110.736 763.619 110.736 764.008C110.736 764.397 110.819 764.704 110.984 764.928C111.149 765.152 111.397 765.264 111.728 765.264ZM115.506 766.08C115.25 766.08 115.016 766.056 114.802 766.008C114.594 765.96 114.378 765.885 114.154 765.784L114.242 764.936C114.466 765.069 114.674 765.171 114.866 765.24C115.064 765.304 115.266 765.336 115.474 765.336C115.88 765.336 116.082 765.203 116.082 764.936C116.082 764.792 116.029 764.683 115.922 764.608C115.816 764.528 115.624 764.435 115.346 764.328C114.952 764.184 114.661 764.021 114.474 763.84C114.288 763.653 114.194 763.403 114.194 763.088C114.194 762.741 114.328 762.461 114.594 762.248C114.861 762.029 115.221 761.92 115.674 761.92C116.128 761.92 116.541 762.024 116.914 762.232L116.826 763.08C116.624 762.941 116.432 762.835 116.25 762.76C116.074 762.685 115.888 762.648 115.69 762.648C115.52 762.648 115.386 762.683 115.29 762.752C115.2 762.821 115.154 762.92 115.154 763.048C115.154 763.149 115.181 763.232 115.234 763.296C115.293 763.36 115.373 763.419 115.474 763.472C115.576 763.52 115.744 763.589 115.978 763.68C116.368 763.829 116.648 763.995 116.818 764.176C116.989 764.352 117.074 764.589 117.074 764.888C117.074 765.267 116.938 765.56 116.666 765.768C116.394 765.976 116.008 766.08 115.506 766.08Z" fill="#AAAAAA"/>
<path d="M114.35 734.929L102.667 734.929L102.667 738.214L114.35 738.214L114.35 743.143L121 736.571L114.35 730L114.35 734.929ZM91 746.429L97.65 753L97.65 748.071L109.333 748.071L109.333 744.786L97.65 744.786L97.65 739.857L91 746.429Z" fill="#AAAAAA"/>
<path d="M159.616 760.4H161.712C162.245 760.4 162.72 760.512 163.136 760.736C163.557 760.96 163.885 761.283 164.12 761.704C164.355 762.125 164.472 762.624 164.472 763.2C164.472 763.776 164.355 764.275 164.12 764.696C163.885 765.117 163.557 765.44 163.136 765.664C162.72 765.888 162.245 766 161.712 766H159.616V760.4ZM161.712 765.088C162.245 765.088 162.651 764.923 162.928 764.592C163.211 764.256 163.352 763.792 163.352 763.2C163.352 762.608 163.211 762.147 162.928 761.816C162.651 761.48 162.245 761.312 161.712 761.312H160.64V765.088H161.712ZM167.103 766.08C166.639 766.08 166.242 765.987 165.911 765.8C165.586 765.608 165.34 765.355 165.175 765.04C165.015 764.72 164.935 764.365 164.935 763.976C164.935 763.603 165.012 763.261 165.167 762.952C165.322 762.643 165.546 762.397 165.839 762.216C166.132 762.029 166.482 761.936 166.887 761.936C167.26 761.936 167.575 762.013 167.831 762.168C168.092 762.323 168.287 762.531 168.415 762.792C168.548 763.053 168.615 763.347 168.615 763.672C168.615 763.832 168.594 764.013 168.551 764.216H165.967C166.02 764.568 166.159 764.832 166.383 765.008C166.607 765.179 166.876 765.264 167.191 765.264C167.623 765.264 168.023 765.155 168.391 764.936L168.439 765.776C168.268 765.867 168.068 765.941 167.839 766C167.615 766.053 167.37 766.08 167.103 766.08ZM167.607 763.544C167.607 763.336 167.548 763.152 167.431 762.992C167.314 762.832 167.132 762.752 166.887 762.752C166.642 762.752 166.444 762.824 166.295 762.968C166.146 763.112 166.044 763.304 165.991 763.544H167.607ZM170.876 768.016C170.311 768.016 169.86 767.912 169.524 767.704C169.188 767.501 169.02 767.224 169.02 766.872C169.02 766.488 169.236 766.173 169.668 765.928C169.433 765.784 169.316 765.595 169.316 765.36C169.316 765.237 169.351 765.128 169.42 765.032C169.495 764.936 169.593 764.859 169.716 764.8C169.513 764.656 169.359 764.472 169.252 764.248C169.151 764.024 169.1 763.779 169.1 763.512C169.1 763.219 169.164 762.952 169.292 762.712C169.42 762.467 169.607 762.275 169.852 762.136C170.097 761.992 170.388 761.92 170.724 761.92C171.076 761.92 171.38 762.005 171.636 762.176C171.727 762.128 171.847 762.088 171.996 762.056C172.151 762.019 172.316 762 172.492 762H172.748L172.684 762.624H172.324C172.233 762.624 172.159 762.627 172.1 762.632C172.26 762.877 172.34 763.171 172.34 763.512C172.34 763.805 172.276 764.075 172.148 764.32C172.025 764.56 171.841 764.752 171.596 764.896C171.351 765.035 171.06 765.104 170.724 765.104C170.601 765.104 170.46 765.085 170.3 765.048C170.241 765.075 170.212 765.117 170.212 765.176C170.212 765.245 170.252 765.301 170.332 765.344C170.417 765.381 170.559 765.413 170.756 765.44L171.444 765.528C172.361 765.651 172.82 766.037 172.82 766.688C172.82 767.093 172.647 767.416 172.3 767.656C171.959 767.896 171.484 768.016 170.876 768.016ZM170.724 764.368C170.953 764.368 171.129 764.293 171.252 764.144C171.38 763.989 171.444 763.779 171.444 763.512C171.444 763.245 171.38 763.037 171.252 762.888C171.129 762.733 170.953 762.656 170.724 762.656C170.489 762.656 170.308 762.733 170.18 762.888C170.057 763.037 169.996 763.245 169.996 763.512C169.996 763.779 170.057 763.989 170.18 764.144C170.308 764.293 170.489 764.368 170.724 764.368ZM170.916 767.264C171.599 767.264 171.94 767.096 171.94 766.76C171.94 766.611 171.881 766.499 171.764 766.424C171.647 766.355 171.452 766.299 171.18 766.256L170.3 766.128C169.996 766.251 169.844 766.437 169.844 766.688C169.844 766.88 169.937 767.024 170.124 767.12C170.311 767.216 170.575 767.264 170.916 767.264ZM173.3 760.4H174.292V761.392H173.3V760.4ZM173.3 762H174.292V766H173.3V762ZM176.526 766.08C176.174 766.08 175.907 765.979 175.726 765.776C175.544 765.568 175.454 765.32 175.454 765.032V762.816H174.886L174.974 762H175.454V761.12L176.446 761.016V762H177.326V762.816H176.446V764.624C176.446 764.837 176.456 764.987 176.478 765.072C176.504 765.152 176.555 765.205 176.63 765.232C176.71 765.253 176.851 765.264 177.054 765.264H177.326L177.238 766.08H176.526ZM178.836 766.08C178.505 766.08 178.228 765.973 178.004 765.76C177.785 765.541 177.676 765.248 177.676 764.88C177.676 764.533 177.801 764.256 178.052 764.048C178.302 763.835 178.598 763.685 178.94 763.6C179.281 763.509 179.609 763.459 179.924 763.448C179.913 763.213 179.852 763.045 179.74 762.944C179.633 762.843 179.454 762.792 179.204 762.792C179.028 762.792 178.854 762.816 178.684 762.864C178.518 762.912 178.326 762.989 178.108 763.096L178.02 762.288C178.505 762.053 178.99 761.936 179.476 761.936C179.945 761.936 180.302 762.064 180.548 762.32C180.798 762.576 180.924 762.984 180.924 763.544V764.624C180.924 764.827 180.932 764.973 180.948 765.064C180.969 765.149 181.001 765.205 181.044 765.232C181.092 765.253 181.169 765.264 181.276 765.264H181.404L181.316 766.08H180.956C180.737 766.08 180.553 766.04 180.404 765.96C180.254 765.875 180.14 765.76 180.06 765.616C179.932 765.76 179.756 765.875 179.532 765.96C179.313 766.04 179.081 766.08 178.836 766.08ZM179.252 765.32C179.353 765.32 179.468 765.296 179.596 765.248C179.724 765.195 179.836 765.123 179.932 765.032V764.12C179.612 764.136 179.329 764.205 179.084 764.328C178.838 764.451 178.716 764.621 178.716 764.84C178.716 765.005 178.758 765.128 178.844 765.208C178.929 765.283 179.065 765.32 179.252 765.32ZM182.98 766.08C182.639 766.08 182.383 765.984 182.212 765.792C182.042 765.595 181.956 765.341 181.956 765.032V760H182.948V764.624C182.948 764.837 182.959 764.989 182.98 765.08C183.007 765.165 183.05 765.219 183.108 765.24C183.172 765.256 183.279 765.264 183.428 765.264L183.34 766.08H182.98ZM188.911 764.672H186.871L186.407 766H185.415L187.407 760.4H188.375L190.367 766H189.375L188.911 764.672ZM188.591 763.776L187.895 761.776L187.191 763.776H188.591ZM191.991 766.08C191.735 766.08 191.5 766.056 191.287 766.008C191.079 765.96 190.863 765.885 190.639 765.784L190.727 764.936C190.951 765.069 191.159 765.171 191.351 765.24C191.548 765.304 191.751 765.336 191.959 765.336C192.364 765.336 192.567 765.203 192.567 764.936C192.567 764.792 192.513 764.683 192.407 764.608C192.3 764.528 192.108 764.435 191.831 764.328C191.436 764.184 191.145 764.021 190.959 763.84C190.772 763.653 190.679 763.403 190.679 763.088C190.679 762.741 190.812 762.461 191.079 762.248C191.345 762.029 191.705 761.92 192.159 761.92C192.612 761.92 193.025 762.024 193.399 762.232L193.311 763.08C193.108 762.941 192.916 762.835 192.735 762.76C192.559 762.685 192.372 762.648 192.175 762.648C192.004 762.648 191.871 762.683 191.775 762.752C191.684 762.821 191.639 762.92 191.639 763.048C191.639 763.149 191.665 763.232 191.719 763.296C191.777 763.36 191.857 763.419 191.959 763.472C192.06 763.52 192.228 763.589 192.463 763.68C192.852 763.829 193.132 763.995 193.303 764.176C193.473 764.352 193.559 764.589 193.559 764.888C193.559 765.267 193.423 765.56 193.151 765.768C192.879 765.976 192.492 766.08 191.991 766.08ZM195.373 766.08C195.117 766.08 194.883 766.056 194.669 766.008C194.461 765.96 194.245 765.885 194.021 765.784L194.109 764.936C194.333 765.069 194.541 765.171 194.733 765.24C194.931 765.304 195.133 765.336 195.341 765.336C195.747 765.336 195.949 765.203 195.949 764.936C195.949 764.792 195.896 764.683 195.789 764.608C195.683 764.528 195.491 764.435 195.213 764.328C194.819 764.184 194.528 764.021 194.341 763.84C194.155 763.653 194.061 763.403 194.061 763.088C194.061 762.741 194.195 762.461 194.461 762.248C194.728 762.029 195.088 761.92 195.541 761.92C195.995 761.92 196.408 762.024 196.781 762.232L196.693 763.08C196.491 762.941 196.299 762.835 196.117 762.76C195.941 762.685 195.755 762.648 195.557 762.648C195.387 762.648 195.253 762.683 195.157 762.752C195.067 762.821 195.021 762.92 195.021 763.048C195.021 763.149 195.048 763.232 195.101 763.296C195.16 763.36 195.24 763.419 195.341 763.472C195.443 763.52 195.611 763.589 195.845 763.68C196.235 763.829 196.515 763.995 196.685 764.176C196.856 764.352 196.941 764.589 196.941 764.888C196.941 765.267 196.805 765.56 196.533 765.768C196.261 765.976 195.875 766.08 195.373 766.08ZM199.548 766.08C199.084 766.08 198.687 765.987 198.356 765.8C198.031 765.608 197.786 765.355 197.62 765.04C197.46 764.72 197.38 764.365 197.38 763.976C197.38 763.603 197.458 763.261 197.612 762.952C197.767 762.643 197.991 762.397 198.284 762.216C198.578 762.029 198.927 761.936 199.332 761.936C199.706 761.936 200.02 762.013 200.276 762.168C200.538 762.323 200.732 762.531 200.86 762.792C200.994 763.053 201.06 763.347 201.06 763.672C201.06 763.832 201.039 764.013 200.996 764.216H198.412C198.466 764.568 198.604 764.832 198.828 765.008C199.052 765.179 199.322 765.264 199.636 765.264C200.068 765.264 200.468 765.155 200.836 764.936L200.884 765.776C200.714 765.867 200.514 765.941 200.284 766C200.06 766.053 199.815 766.08 199.548 766.08ZM200.052 763.544C200.052 763.336 199.994 763.152 199.876 762.992C199.759 762.832 199.578 762.752 199.332 762.752C199.087 762.752 198.89 762.824 198.74 762.968C198.591 763.112 198.49 763.304 198.436 763.544H200.052ZM203.041 766.08C202.689 766.08 202.423 765.979 202.241 765.776C202.06 765.568 201.969 765.32 201.969 765.032V762.816H201.401L201.489 762H201.969V761.12L202.961 761.016V762H203.841V762.816H202.961V764.624C202.961 764.837 202.972 764.987 202.993 765.072C203.02 765.152 203.071 765.205 203.145 765.232C203.225 765.253 203.367 765.264 203.569 765.264H203.841L203.753 766.08H203.041Z" fill="#AAAAAA"/>
<path d="M192.515 738.195C193.71 739.489 194.407 741.182 194.506 742.925H196C195.901 740.784 195.054 738.693 193.61 737.099L192.515 738.195Z" fill="#AAAAAA"/>
<path d="M179.866 750.144C181.509 751.787 183.7 752.783 186.041 752.883V751.389C184.397 751.289 182.804 750.692 181.559 749.646C181.011 749.845 180.464 749.994 179.866 750.144Z" fill="#AAAAAA"/>
<path d="M187.037 751.338V752.832C189.178 752.732 191.27 751.886 192.863 750.442L191.817 749.396C190.473 750.541 188.78 751.239 187.037 751.338Z" fill="#AAAAAA"/>
<path d="M192.515 748.701L193.56 749.746C195.004 748.153 195.851 746.061 195.95 743.92H194.457C194.357 745.663 193.66 747.356 192.515 748.701Z" fill="#AAAAAA"/>
<path d="M182.854 745.911C181.51 747.106 179.867 747.754 178.074 747.903V749.397C180.215 749.297 182.307 748.451 183.9 747.007L182.854 745.911Z" fill="#AAAAAA"/>
<path d="M186.987 739.438C186.887 737.297 186.04 735.205 184.596 733.612L183.551 734.658C184.746 736.002 185.393 737.645 185.543 739.438H186.987Z" fill="#AAAAAA"/>
<path d="M177.079 732.019V730.525C174.938 730.625 172.846 731.471 171.253 732.915L172.299 733.961C173.643 732.816 175.336 732.119 177.079 732.019Z" fill="#AAAAAA"/>
<path d="M178.074 732.019C179.817 732.119 181.51 732.816 182.854 734.011L183.9 732.965C182.307 731.471 180.215 730.625 178.074 730.525V732.019Z" fill="#AAAAAA"/>
<path d="M169.659 739.438C169.758 737.695 170.456 736.002 171.651 734.658L170.605 733.612C169.111 735.205 168.265 737.297 168.165 739.438H169.659Z" fill="#AAAAAA"/>
<path d="M192.863 736.403C191.12 734.809 188.879 733.963 186.539 733.963C186.439 733.963 186.29 733.963 186.141 733.963C186.489 734.461 186.788 734.959 186.987 735.457C188.73 735.556 190.423 736.254 191.767 737.449L192.863 736.403Z" fill="#AAAAAA"/>
<path d="M190.572 742.127L188.78 743.322C188.531 743.472 188.232 743.422 188.083 743.173L188.033 743.123L187.684 742.376C187.485 743.422 187.037 744.468 186.489 745.414H190.025C190.074 744.318 190.274 743.223 190.572 742.127Z" fill="#AAAAAA"/>
<path d="M184.597 746.261C186.041 744.668 186.888 742.577 186.988 740.436H185.494C185.394 742.178 184.697 743.871 183.502 745.216L184.597 746.261Z" fill="#AAAAAA"/>
<path d="M171.253 746.957C172.846 748.401 174.938 749.248 177.079 749.347V747.854C175.336 747.754 173.643 747.057 172.299 745.862L171.253 746.957Z" fill="#AAAAAA"/>
<path d="M179.418 739.939C179.268 739.889 179.169 739.789 179.119 739.64L177.575 736.204L176.032 739.64C175.932 739.889 175.633 739.988 175.384 739.889C175.335 739.889 175.335 739.839 175.335 739.839L173.542 738.644C173.891 739.69 174.04 740.785 174.09 741.93H181.061C181.111 740.835 181.31 739.739 181.609 738.644L179.816 739.839C179.716 739.939 179.567 739.939 179.418 739.939Z" fill="#AAAAAA"/>
<path d="M177.576 732.966C173.741 732.966 170.604 736.103 170.604 739.937C170.604 743.772 173.741 746.909 177.576 746.909C181.41 746.909 184.547 743.772 184.547 739.937C184.547 736.103 181.41 732.966 177.576 732.966Z" fill="#AAAAAA"/>
<path d="M169.659 740.436H168.165C168.265 742.577 169.111 744.668 170.555 746.261L171.601 745.216C170.456 743.871 169.758 742.178 169.659 740.436Z" fill="#AAAAAA"/>
<path d="M187.435 736.501C187.485 736.7 187.535 736.849 187.585 737.048C188.083 738.891 189.128 745.165 182.506 749.099C185.643 751.289 189.975 750.543 192.216 747.406C193.062 746.21 193.46 744.816 193.46 743.372C193.51 739.936 190.921 736.999 187.435 736.501Z" fill="#AAAAAA"/>
<rect x="120" y="799" width="135" height="5" rx="2.5" fill="#D6D9E4"/>
<path d="M36.496 176L35.536 168.496L32.672 173.648L29.792 168.512L28.832 176H26.704L28.256 164.8H29.936L32.672 169.904L35.392 164.8H37.072L38.624 176H36.496ZM42.2815 175.472L38.9535 168H41.1615L43.2095 173.152L45.2895 168H47.4975L42.4895 179.872H40.5055L42.2815 175.472ZM52.357 164.8H56.341C58.997 164.8 60.325 166.005 60.325 168.416C60.325 169.664 59.989 170.592 59.317 171.2C58.645 171.808 57.669 172.112 56.389 172.112H54.405V176H52.357V164.8ZM56.149 170.4C56.853 170.4 57.3757 170.24 57.717 169.92C58.069 169.6 58.245 169.109 58.245 168.448C58.245 167.787 58.069 167.301 57.717 166.992C57.365 166.672 56.8263 166.512 56.101 166.512H54.405V170.4H56.149ZM61.4593 168H63.3153L63.3633 168.848C63.5979 168.581 63.8966 168.347 64.2593 168.144C64.6326 167.941 65.0219 167.84 65.4273 167.84C65.5553 167.84 65.6726 167.851 65.7793 167.872L65.6353 169.824C65.4326 169.771 65.2033 169.744 64.9473 169.744C64.6166 169.744 64.3126 169.824 64.0353 169.984C63.7579 170.133 63.5606 170.32 63.4433 170.544V176H61.4593V168ZM70.2319 176.16C69.3892 176.16 68.6585 175.973 68.0399 175.6C67.4212 175.227 66.9465 174.725 66.6159 174.096C66.2852 173.467 66.1199 172.773 66.1199 172.016C66.1199 171.259 66.2852 170.56 66.6159 169.92C66.9465 169.28 67.4212 168.773 68.0399 168.4C68.6585 168.027 69.3892 167.84 70.2319 167.84C71.0745 167.84 71.8052 168.027 72.4239 168.4C73.0425 168.773 73.5172 169.28 73.8479 169.92C74.1785 170.56 74.3439 171.259 74.3439 172.016C74.3439 172.773 74.1785 173.467 73.8479 174.096C73.5172 174.725 73.0425 175.227 72.4239 175.6C71.8052 175.973 71.0745 176.16 70.2319 176.16ZM70.2319 174.528C70.8825 174.528 71.3892 174.299 71.7519 173.84C72.1252 173.381 72.3119 172.773 72.3119 172.016C72.3119 171.248 72.1252 170.635 71.7519 170.176C71.3892 169.707 70.8825 169.472 70.2319 169.472C69.5812 169.472 69.0692 169.707 68.6959 170.176C68.3332 170.635 68.1519 171.248 68.1519 172.016C68.1519 172.773 68.3332 173.381 68.6959 173.84C69.0692 174.299 69.5812 174.528 70.2319 174.528ZM76.1111 169.632H74.9751L75.1511 168H76.1111V166.304C76.1111 165.589 76.3191 165.029 76.7351 164.624C77.1618 164.208 77.7645 164 78.5431 164C78.9805 164 79.4125 164.048 79.8391 164.144L79.6631 165.744C79.4818 165.691 79.2738 165.664 79.0391 165.664C78.4098 165.664 78.0951 165.995 78.0951 166.656V168H79.8551V169.632H78.0951V176H76.1111V169.632ZM81.0686 164.8H83.0526V166.784H81.0686V164.8ZM81.0686 168H83.0526V176H81.0686V168ZM86.9604 176.16C86.2777 176.16 85.7657 175.968 85.4244 175.584C85.083 175.189 84.9124 174.683 84.9124 174.064V164H86.8964V173.248C86.8964 173.675 86.9177 173.979 86.9604 174.16C87.0137 174.331 87.099 174.437 87.2164 174.48C87.3444 174.512 87.5577 174.528 87.8564 174.528L87.6804 176.16H86.9604ZM92.8934 176.16C91.9654 176.16 91.1707 175.973 90.5094 175.6C89.8587 175.216 89.368 174.709 89.0374 174.08C88.7174 173.44 88.5574 172.731 88.5574 171.952C88.5574 171.205 88.712 170.523 89.0214 169.904C89.3307 169.285 89.7787 168.795 90.3654 168.432C90.952 168.059 91.6507 167.872 92.4614 167.872C93.208 167.872 93.8374 168.027 94.3494 168.336C94.872 168.645 95.2614 169.061 95.5174 169.584C95.784 170.107 95.9174 170.693 95.9174 171.344C95.9174 171.664 95.8747 172.027 95.7894 172.432H90.6214C90.728 173.136 91.0054 173.664 91.4534 174.016C91.9014 174.357 92.44 174.528 93.0694 174.528C93.9334 174.528 94.7334 174.309 95.4694 173.872L95.5654 175.552C95.224 175.733 94.824 175.883 94.3654 176C93.9174 176.107 93.4267 176.16 92.8934 176.16ZM93.9014 171.088C93.9014 170.672 93.784 170.304 93.5494 169.984C93.3147 169.664 92.952 169.504 92.4614 169.504C91.9707 169.504 91.576 169.648 91.2774 169.936C90.9787 170.224 90.776 170.608 90.6694 171.088H93.9014Z" fill="white"/>
<path d="M32.304 230.224C31.1733 230.224 30.1707 229.984 29.296 229.504C28.432 229.024 27.76 228.347 27.28 227.472C26.8 226.587 26.56 225.563 26.56 224.4C26.56 223.248 26.8053 222.235 27.296 221.36C27.7973 220.475 28.4853 219.792 29.36 219.312C30.2453 218.821 31.248 218.576 32.368 218.576C33.4453 218.576 34.4107 218.795 35.264 219.232L35.04 221.184C34.5813 220.981 34.1387 220.827 33.712 220.72C33.296 220.603 32.8427 220.544 32.352 220.544C31.2107 220.544 30.3307 220.896 29.712 221.6C29.104 222.304 28.8 223.237 28.8 224.4C28.8 225.563 29.0987 226.496 29.696 227.2C30.304 227.904 31.1733 228.256 32.304 228.256C32.8053 228.256 33.264 228.203 33.68 228.096C34.1067 227.989 34.56 227.829 35.04 227.616L35.264 229.568C34.336 230.005 33.3493 230.224 32.304 230.224ZM40.71 221.872C41.7233 221.872 42.4753 222.203 42.966 222.864C43.4673 223.515 43.718 224.411 43.718 225.552V230H41.734V225.696C41.734 224.939 41.6113 224.384 41.366 224.032C41.1207 223.68 40.7313 223.504 40.198 223.504C39.5687 223.504 39.0513 223.733 38.646 224.192V230H36.662V218H38.646V222.512C38.966 222.309 39.2913 222.155 39.622 222.048C39.9527 221.931 40.3153 221.872 40.71 221.872ZM47.2185 230.16C46.5572 230.16 46.0025 229.947 45.5545 229.52C45.1172 229.083 44.8985 228.496 44.8985 227.76C44.8985 227.067 45.1492 226.512 45.6505 226.096C46.1518 225.669 46.7438 225.371 47.4265 225.2C48.1092 225.019 48.7652 224.917 49.3945 224.896C49.3732 224.427 49.2505 224.091 49.0265 223.888C48.8132 223.685 48.4558 223.584 47.9545 223.584C47.6025 223.584 47.2558 223.632 46.9145 223.728C46.5838 223.824 46.1998 223.979 45.7625 224.192L45.5865 222.576C46.5572 222.107 47.5278 221.872 48.4985 221.872C49.4372 221.872 50.1518 222.128 50.6425 222.64C51.1438 223.152 51.3945 223.968 51.3945 225.088V227.248C51.3945 227.653 51.4105 227.947 51.4425 228.128C51.4852 228.299 51.5492 228.411 51.6345 228.464C51.7305 228.507 51.8852 228.528 52.0985 228.528H52.3545L52.1785 230.16H51.4585C51.0212 230.16 50.6532 230.08 50.3545 229.92C50.0558 229.749 49.8265 229.52 49.6665 229.232C49.4105 229.52 49.0585 229.749 48.6105 229.92C48.1732 230.08 47.7092 230.16 47.2185 230.16ZM48.0505 228.64C48.2532 228.64 48.4825 228.592 48.7385 228.496C48.9945 228.389 49.2185 228.245 49.4105 228.064V226.24C48.7705 226.272 48.2052 226.411 47.7145 226.656C47.2238 226.901 46.9785 227.243 46.9785 227.68C46.9785 228.011 47.0638 228.256 47.2345 228.416C47.4052 228.565 47.6772 228.64 48.0505 228.64ZM57.4913 221.872C58.4833 221.872 59.2353 222.203 59.7473 222.864C60.2593 223.525 60.5153 224.416 60.5153 225.536V230H58.5313V225.696C58.5313 224.949 58.4033 224.4 58.1473 224.048C57.9019 223.685 57.5019 223.504 56.9473 223.504C56.3393 223.504 55.8379 223.733 55.4433 224.192V230H53.4593V222H55.3153L55.3473 222.56C56.0193 222.101 56.7339 221.872 57.4913 221.872ZM65.4554 234.032C64.3247 234.032 63.4234 233.824 62.7514 233.408C62.0794 233.003 61.7434 232.448 61.7434 231.744C61.7434 230.976 62.1754 230.347 63.0394 229.856C62.57 229.568 62.3354 229.189 62.3354 228.72C62.3354 228.475 62.4047 228.256 62.5434 228.064C62.6927 227.872 62.89 227.717 63.1354 227.6C62.73 227.312 62.4207 226.944 62.2074 226.496C62.0047 226.048 61.9034 225.557 61.9034 225.024C61.9034 224.437 62.0314 223.904 62.2874 223.424C62.5434 222.933 62.9167 222.549 63.4074 222.272C63.898 221.984 64.4794 221.84 65.1514 221.84C65.8554 221.84 66.4634 222.011 66.9754 222.352C67.1567 222.256 67.3967 222.176 67.6954 222.112C68.0047 222.037 68.3354 222 68.6874 222H69.1994L69.0714 223.248H68.3514C68.17 223.248 68.0207 223.253 67.9034 223.264C68.2234 223.755 68.3834 224.341 68.3834 225.024C68.3834 225.611 68.2554 226.149 67.9994 226.64C67.754 227.12 67.386 227.504 66.8954 227.792C66.4047 228.069 65.8234 228.208 65.1514 228.208C64.906 228.208 64.6234 228.171 64.3034 228.096C64.186 228.149 64.1274 228.235 64.1274 228.352C64.1274 228.491 64.2074 228.603 64.3674 228.688C64.538 228.763 64.8207 228.827 65.2154 228.88L66.5914 229.056C68.426 229.301 69.3434 230.075 69.3434 231.376C69.3434 232.187 68.9967 232.832 68.3034 233.312C67.6207 233.792 66.6714 234.032 65.4554 234.032ZM65.1514 226.736C65.61 226.736 65.962 226.587 66.2074 226.288C66.4634 225.979 66.5914 225.557 66.5914 225.024C66.5914 224.491 66.4634 224.075 66.2074 223.776C65.962 223.467 65.61 223.312 65.1514 223.312C64.682 223.312 64.3194 223.467 64.0634 223.776C63.818 224.075 63.6954 224.491 63.6954 225.024C63.6954 225.557 63.818 225.979 64.0634 226.288C64.3194 226.587 64.682 226.736 65.1514 226.736ZM65.5354 232.528C66.9007 232.528 67.5834 232.192 67.5834 231.52C67.5834 231.221 67.466 230.997 67.2314 230.848C66.9967 230.709 66.6074 230.597 66.0634 230.512L64.3034 230.256C63.6954 230.501 63.3914 230.875 63.3914 231.376C63.3914 231.76 63.578 232.048 63.9514 232.24C64.3247 232.432 64.8527 232.528 65.5354 232.528ZM74.0965 230.16C73.1685 230.16 72.3738 229.973 71.7125 229.6C71.0618 229.216 70.5712 228.709 70.2405 228.08C69.9205 227.44 69.7605 226.731 69.7605 225.952C69.7605 225.205 69.9152 224.523 70.2245 223.904C70.5338 223.285 70.9818 222.795 71.5685 222.432C72.1552 222.059 72.8538 221.872 73.6645 221.872C74.4112 221.872 75.0405 222.027 75.5525 222.336C76.0752 222.645 76.4645 223.061 76.7205 223.584C76.9872 224.107 77.1205 224.693 77.1205 225.344C77.1205 225.664 77.0778 226.027 76.9925 226.432H71.8245C71.9312 227.136 72.2085 227.664 72.6565 228.016C73.1045 228.357 73.6432 228.528 74.2725 228.528C75.1365 228.528 75.9365 228.309 76.6725 227.872L76.7685 229.552C76.4272 229.733 76.0272 229.883 75.5685 230C75.1205 230.107 74.6298 230.16 74.0965 230.16ZM75.1045 225.088C75.1045 224.672 74.9872 224.304 74.7525 223.984C74.5178 223.664 74.1552 223.504 73.6645 223.504C73.1738 223.504 72.7792 223.648 72.4805 223.936C72.1818 224.224 71.9792 224.608 71.8725 225.088H75.1045ZM86.2446 221.872C87.002 221.872 87.6526 222.059 88.1966 222.432C88.7406 222.805 89.1513 223.307 89.4286 223.936C89.706 224.565 89.8446 225.259 89.8446 226.016C89.8446 226.773 89.706 227.467 89.4286 228.096C89.1513 228.725 88.7406 229.227 88.1966 229.6C87.6526 229.973 87.002 230.16 86.2446 230.16C85.7646 230.16 85.354 230.107 85.0126 230C84.682 229.904 84.362 229.744 84.0526 229.52V233.872H82.0686V222H83.6686L83.8766 222.736C84.218 222.448 84.5753 222.235 84.9486 222.096C85.322 221.947 85.754 221.872 86.2446 221.872ZM85.9406 228.528C86.5273 228.528 86.986 228.299 87.3166 227.84C87.6473 227.381 87.8126 226.773 87.8126 226.016C87.8126 225.259 87.6473 224.651 87.3166 224.192C86.986 223.733 86.5273 223.504 85.9406 223.504C85.2793 223.504 84.7833 223.728 84.4526 224.176C84.122 224.624 83.9566 225.237 83.9566 226.016C83.9566 226.795 84.122 227.408 84.4526 227.856C84.7833 228.304 85.2793 228.528 85.9406 228.528ZM92.9529 230.16C92.2915 230.16 91.7369 229.947 91.2889 229.52C90.8515 229.083 90.6329 228.496 90.6329 227.76C90.6329 227.067 90.8835 226.512 91.3849 226.096C91.8862 225.669 92.4782 225.371 93.1609 225.2C93.8435 225.019 94.4995 224.917 95.1289 224.896C95.1075 224.427 94.9849 224.091 94.7609 223.888C94.5475 223.685 94.1902 223.584 93.6889 223.584C93.3369 223.584 92.9902 223.632 92.6489 223.728C92.3182 223.824 91.9342 223.979 91.4969 224.192L91.3209 222.576C92.2915 222.107 93.2622 221.872 94.2329 221.872C95.1715 221.872 95.8862 222.128 96.3769 222.64C96.8782 223.152 97.1289 223.968 97.1289 225.088V227.248C97.1289 227.653 97.1449 227.947 97.1769 228.128C97.2195 228.299 97.2835 228.411 97.3689 228.464C97.4649 228.507 97.6195 228.528 97.8329 228.528H98.0889L97.9129 230.16H97.1929C96.7555 230.16 96.3875 230.08 96.0889 229.92C95.7902 229.749 95.5609 229.52 95.4009 229.232C95.1449 229.52 94.7929 229.749 94.3449 229.92C93.9075 230.08 93.4435 230.16 92.9529 230.16ZM93.7849 228.64C93.9875 228.64 94.2169 228.592 94.4729 228.496C94.7289 228.389 94.9529 228.245 95.1449 228.064V226.24C94.5049 226.272 93.9395 226.411 93.4489 226.656C92.9582 226.901 92.7129 227.243 92.7129 227.68C92.7129 228.011 92.7982 228.256 92.9689 228.416C93.1395 228.565 93.4115 228.64 93.7849 228.64ZM101.466 230.16C100.954 230.16 100.484 230.112 100.058 230.016C99.6416 229.92 99.2096 229.771 98.7616 229.568L98.9376 227.872C99.3856 228.139 99.8016 228.341 100.186 228.48C100.58 228.608 100.986 228.672 101.402 228.672C102.212 228.672 102.618 228.405 102.618 227.872C102.618 227.584 102.511 227.365 102.298 227.216C102.084 227.056 101.7 226.869 101.146 226.656C100.356 226.368 99.775 226.043 99.4016 225.68C99.0283 225.307 98.8416 224.805 98.8416 224.176C98.8416 223.483 99.1083 222.923 99.6416 222.496C100.175 222.059 100.895 221.84 101.802 221.84C102.708 221.84 103.535 222.048 104.282 222.464L104.106 224.16C103.7 223.883 103.316 223.669 102.954 223.52C102.602 223.371 102.228 223.296 101.834 223.296C101.492 223.296 101.226 223.365 101.034 223.504C100.852 223.643 100.762 223.84 100.762 224.096C100.762 224.299 100.815 224.464 100.922 224.592C101.039 224.72 101.199 224.837 101.402 224.944C101.604 225.04 101.94 225.179 102.41 225.36C103.188 225.659 103.748 225.989 104.09 226.352C104.431 226.704 104.602 227.179 104.602 227.776C104.602 228.533 104.33 229.12 103.786 229.536C103.242 229.952 102.468 230.16 101.466 230.16ZM108.231 230.16C107.719 230.16 107.25 230.112 106.823 230.016C106.407 229.92 105.975 229.771 105.527 229.568L105.703 227.872C106.151 228.139 106.567 228.341 106.951 228.48C107.346 228.608 107.751 228.672 108.167 228.672C108.978 228.672 109.383 228.405 109.383 227.872C109.383 227.584 109.277 227.365 109.063 227.216C108.85 227.056 108.466 226.869 107.911 226.656C107.122 226.368 106.541 226.043 106.167 225.68C105.794 225.307 105.607 224.805 105.607 224.176C105.607 223.483 105.874 222.923 106.407 222.496C106.941 222.059 107.661 221.84 108.567 221.84C109.474 221.84 110.301 222.048 111.047 222.464L110.871 224.16C110.466 223.883 110.082 223.669 109.719 223.52C109.367 223.371 108.994 223.296 108.599 223.296C108.258 223.296 107.991 223.365 107.799 223.504C107.618 223.643 107.527 223.84 107.527 224.096C107.527 224.299 107.581 224.464 107.687 224.592C107.805 224.72 107.965 224.837 108.167 224.944C108.37 225.04 108.706 225.179 109.175 225.36C109.954 225.659 110.514 225.989 110.855 226.352C111.197 226.704 111.367 227.179 111.367 227.776C111.367 228.533 111.095 229.12 110.551 229.536C110.007 229.952 109.234 230.16 108.231 230.16ZM111.957 222H113.893L115.269 227.584L116.773 222.16H118.437L119.925 227.584L121.317 222H123.253L120.917 230H119.253L117.605 224.784L115.957 230H114.293L111.957 222ZM127.873 230.16C127.03 230.16 126.299 229.973 125.681 229.6C125.062 229.227 124.587 228.725 124.257 228.096C123.926 227.467 123.761 226.773 123.761 226.016C123.761 225.259 123.926 224.56 124.257 223.92C124.587 223.28 125.062 222.773 125.681 222.4C126.299 222.027 127.03 221.84 127.873 221.84C128.715 221.84 129.446 222.027 130.065 222.4C130.683 222.773 131.158 223.28 131.489 223.92C131.819 224.56 131.985 225.259 131.985 226.016C131.985 226.773 131.819 227.467 131.489 228.096C131.158 228.725 130.683 229.227 130.065 229.6C129.446 229.973 128.715 230.16 127.873 230.16ZM127.873 228.528C128.523 228.528 129.03 228.299 129.393 227.84C129.766 227.381 129.953 226.773 129.953 226.016C129.953 225.248 129.766 224.635 129.393 224.176C129.03 223.707 128.523 223.472 127.873 223.472C127.222 223.472 126.71 223.707 126.337 224.176C125.974 224.635 125.793 225.248 125.793 226.016C125.793 226.773 125.974 227.381 126.337 227.84C126.71 228.299 127.222 228.528 127.873 228.528ZM133.366 222H135.222L135.27 222.848C135.504 222.581 135.803 222.347 136.166 222.144C136.539 221.941 136.928 221.84 137.334 221.84C137.462 221.84 137.579 221.851 137.686 221.872L137.542 223.824C137.339 223.771 137.11 223.744 136.854 223.744C136.523 223.744 136.219 223.824 135.942 223.984C135.664 224.133 135.467 224.32 135.35 224.544V230H133.366V222ZM145.802 218V230H143.93L143.898 229.488C143.589 229.712 143.263 229.883 142.922 230C142.591 230.107 142.197 230.16 141.738 230.16C140.959 230.16 140.287 229.973 139.722 229.6C139.167 229.227 138.746 228.725 138.458 228.096C138.17 227.467 138.026 226.773 138.026 226.016C138.026 225.259 138.17 224.565 138.458 223.936C138.746 223.307 139.167 222.805 139.722 222.432C140.287 222.059 140.959 221.872 141.738 221.872C142.517 221.872 143.21 222.085 143.818 222.512V218H145.802ZM142.026 228.528C142.655 228.528 143.125 228.304 143.434 227.856C143.754 227.408 143.914 226.795 143.914 226.016C143.914 225.237 143.754 224.624 143.434 224.176C143.125 223.728 142.655 223.504 142.026 223.504C141.407 223.504 140.922 223.733 140.57 224.192C140.229 224.651 140.058 225.259 140.058 226.016C140.058 226.773 140.229 227.381 140.57 227.84C140.922 228.299 141.407 228.528 142.026 228.528Z" fill="white"/>
<path d="M340 77C340.962 77 341.75 76.1692 341.75 75.1538H338.25C338.25 76.1692 339.029 77 340 77ZM345.25 71.4615V66.8462C345.25 64.0123 343.815 61.64 341.312 61.0123V60.3846C341.312 59.6185 340.726 59 340 59C339.274 59 338.687 59.6185 338.687 60.3846V61.0123C336.176 61.64 334.75 64.0031 334.75 66.8462V71.4615L333 73.3077V74.2308H347V73.3077L345.25 71.4615Z" fill="white"/>
<path d="M309.2 61H294.8C293.81 61 293.009 61.7875 293.009 62.75L293 73.25C293 74.2125 293.81 75 294.8 75H309.2C310.19 75 311 74.2125 311 73.25V62.75C311 61.7875 310.19 61 309.2 61ZM309.2 64.5L302 68.875L294.8 64.5V62.75L302 67.125L309.2 62.75V64.5Z" fill="white"/>
<circle opacity="0.3" cx="313.5" cy="59.5" r="12.5" fill="url(#paint2_linear)"/>
<circle cx="313.5" cy="59.5" r="7.5" fill="url(#paint3_linear)"/>
<path d="M313.28 60.17C313.667 59.5767 313.93 59.13 314.07 58.83C314.217 58.53 314.29 58.2467 314.29 57.98C314.29 57.6933 314.207 57.47 314.04 57.31C313.88 57.1433 313.657 57.06 313.37 57.06C313.05 57.06 312.753 57.1367 312.48 57.29C312.207 57.4433 311.94 57.65 311.68 57.91L311.52 56.62C311.833 56.3667 312.16 56.1767 312.5 56.05C312.84 55.9233 313.217 55.86 313.63 55.86C314.037 55.86 314.383 55.9467 314.67 56.12C314.957 56.2867 315.17 56.5133 315.31 56.8C315.457 57.0867 315.53 57.4033 315.53 57.75C315.53 58.1433 315.443 58.5467 315.27 58.96C315.103 59.3733 314.807 59.9033 314.38 60.55L313.56 61.8H315.78V63H311.44L313.28 60.17Z" fill="white"/>
</g>
<defs>
<filter id="filter0_d" x="-20" y="698" width="415" height="133" filterUnits="userSpaceOnUse" color-interpolation-filters="sRGB">
<feFlood flood-opacity="0" result="BackgroundImageFix"/>
<feColorMatrix in="SourceAlpha" type="matrix" values="0 0 0 0 0 0 0 0 0 0 0 0 0 0 0 0 0 0 127 0"/>
<feOffset dy="-1"/>
<feGaussianBlur stdDeviation="10"/>
<feColorMatrix type="matrix" values="0 0 0 0 0 0 0 0 0 0 0 0 0 0 0 0 0 0 0.1 0"/>
<feBlend mode="normal" in2="BackgroundImageFix" result="effect1_dropShadow"/>
<feBlend mode="normal" in="SourceGraphic" in2="effect1_dropShadow" result="shape"/>
</filter>
<linearGradient id="paint0_linear" x1="266" y1="758" x2="266" y2="768" gradientUnits="userSpaceOnUse">
<stop stop-color="#926CB3"/>
<stop offset="1" stop-color="#E18B8B"/>
</linearGradient>
<linearGradient id="paint1_linear" x1="266" y1="731" x2="266" y2="753" gradientUnits="userSpaceOnUse">
<stop stop-color="#926CB3"/>
<stop offset="1" stop-color="#E18B8B"/>
</linearGradient>
<linearGradient id="paint2_linear" x1="313.5" y1="47" x2="313.5" y2="72" gradientUnits="userSpaceOnUse">
<stop stop-color="#926CB3"/>
<stop offset="1" stop-color="#E18B8B"/>
</linearGradient>
<linearGradient id="paint3_linear" x1="313.5" y1="52" x2="313.5" y2="67" gradientUnits="userSpaceOnUse">
<stop stop-color="#926CB3"/>
<stop offset="1" stop-color="#E18B8B"/>
</linearGradient>
<clipPath id="clip0">
<rect width="375" height="812" fill="white"/>
</clipPath>
</defs>
</svg>
