<svg width="375" height="812" viewBox="0 0 375 812" fill="none" xmlns="http://www.w3.org/2000/svg">
<g clip-path="url(#clip0)">
<rect width="375" height="812" fill="#36393E"/>
<path opacity="0.35" d="M338.667 17.8335H355.333C356.53 17.8335 357.5 18.8035 357.5 20.0002V26.0002C357.5 27.1968 356.53 28.1668 355.333 28.1668H338.667C337.47 28.1668 336.5 27.1968 336.5 26.0002V20.0002C336.5 18.8035 337.47 17.8335 338.667 17.8335Z" stroke="white"/>
<path opacity="0.4" d="M359 21V25C359.805 24.6612 360.328 23.8731 360.328 23C360.328 22.1269 359.805 21.3388 359 21" fill="white"/>
<path d="M338 20.6668C338 19.9305 338.597 19.3335 339.333 19.3335H354.667C355.403 19.3335 356 19.9304 356 20.6668V25.3335C356 26.0699 355.403 26.6668 354.667 26.6668H339.333C338.597 26.6668 338 26.0699 338 25.3335V20.6668Z" fill="white"/>
<path d="M323.33 19.6079C325.546 19.608 327.677 20.4594 329.283 21.9862C329.404 22.1041 329.597 22.1026 329.716 21.9829L330.872 20.8162C330.933 20.7555 330.966 20.6733 330.966 20.5877C330.965 20.5021 330.931 20.4202 330.87 20.3602C326.655 16.3207 320.005 16.3207 315.79 20.3602C315.729 20.4202 315.694 20.502 315.693 20.5876C315.693 20.6732 315.726 20.7555 315.787 20.8162L316.943 21.9829C317.062 22.1028 317.255 22.1043 317.376 21.9862C318.982 20.4593 321.114 19.6079 323.33 19.6079V19.6079Z" fill="white"/>
<path d="M323.331 23.4035C324.548 23.4034 325.722 23.8559 326.625 24.6731C326.747 24.7891 326.939 24.7866 327.058 24.6675L328.213 23.5008C328.274 23.4396 328.307 23.3566 328.306 23.2703C328.306 23.1841 328.27 23.1017 328.208 23.0418C325.46 20.4854 321.204 20.4854 318.456 23.0418C318.394 23.1017 318.358 23.1841 318.357 23.2704C318.357 23.3567 318.39 23.4397 318.451 23.5008L319.606 24.6675C319.725 24.7866 319.917 24.7891 320.039 24.6731C320.941 23.8565 322.114 23.404 323.331 23.4035V23.4035Z" fill="white"/>
<path d="M325.55 26.188C325.612 26.1274 325.646 26.044 325.644 25.9575C325.642 25.871 325.605 25.7891 325.54 25.731C324.265 24.6522 322.397 24.6522 321.121 25.731C321.057 25.789 321.019 25.8709 321.018 25.9575C321.016 26.044 321.05 26.1274 321.111 26.188L323.109 28.2037C323.168 28.2629 323.248 28.2963 323.331 28.2963C323.414 28.2963 323.494 28.2629 323.552 28.2037L325.55 26.188Z" fill="white"/>
<path d="M294.666 24.333H295.666C296.218 24.333 296.666 24.7807 296.666 25.333V27.333C296.666 27.8853 296.218 28.333 295.666 28.333H294.666C294.114 28.333 293.666 27.8853 293.666 27.333V25.333C293.666 24.7807 294.114 24.333 294.666 24.333V24.333Z" fill="white"/>
<path d="M299.333 22.333H300.333C300.885 22.333 301.333 22.7807 301.333 23.333V27.333C301.333 27.8853 300.885 28.333 300.333 28.333H299.333C298.781 28.333 298.333 27.8853 298.333 27.333V23.333C298.333 22.7807 298.781 22.333 299.333 22.333Z" fill="white"/>
<path d="M304 20H305C305.552 20 306 20.4477 306 21V27.3333C306 27.8856 305.552 28.3333 305 28.3333H304C303.448 28.3333 303 27.8856 303 27.3333V21C303 20.4477 303.448 20 304 20Z" fill="white"/>
<path d="M308.666 17.6665H309.666C310.218 17.6665 310.666 18.1142 310.666 18.6665V27.3332C310.666 27.8855 310.218 28.3332 309.666 28.3332H308.666C308.114 28.3332 307.666 27.8855 307.666 27.3332V18.6665C307.666 18.1142 308.114 17.6665 308.666 17.6665V17.6665Z" fill="white"/>
<path d="M39.5278 17.29C40.2478 17.29 40.8828 17.455 41.4328 17.785C41.9828 18.105 42.4078 18.56 42.7078 19.15C43.0078 19.74 43.1578 20.425 43.1578 21.205C43.1578 22.225 42.9228 23.19 42.4528 24.1C41.9928 25 41.4078 25.78 40.6978 26.44C39.9878 27.1 39.2578 27.62 38.5078 28L37.1728 26.95C37.8628 26.61 38.5828 26.12 39.3328 25.48C40.0928 24.84 40.6578 24.12 41.0278 23.32C40.5278 23.65 39.9028 23.815 39.1528 23.815C38.5728 23.815 38.0478 23.68 37.5778 23.41C37.1078 23.14 36.7378 22.765 36.4678 22.285C36.2078 21.805 36.0778 21.26 36.0778 20.65C36.0778 19.99 36.2178 19.405 36.4978 18.895C36.7778 18.385 37.1778 17.99 37.6978 17.71C38.2178 17.43 38.8278 17.29 39.5278 17.29ZM39.4978 22.165C39.9778 22.165 40.3728 22.015 40.6828 21.715C40.9928 21.415 41.1478 21.035 41.1478 20.575C41.1478 20.115 40.9928 19.73 40.6828 19.42C40.3728 19.1 39.9778 18.94 39.4978 18.94C39.0278 18.94 38.6328 19.1 38.3128 19.42C38.0028 19.73 37.8478 20.115 37.8478 20.575C37.8478 21.035 38.0028 21.415 38.3128 21.715C38.6328 22.015 39.0278 22.165 39.4978 22.165ZM44.1707 20.5H46.1207V22.54H44.1707V20.5ZM44.1707 25.96H46.1207V28H44.1707V25.96ZM55.0409 24.04V25.6H53.6909V28H51.8459V25.6H46.6109L52.3859 17.5H53.6909V24.04H55.0409ZM51.8459 24.04V20.815L49.5809 24.04H51.8459ZM57.5651 20.215C57.1451 20.495 56.7051 20.675 56.2451 20.755L56.0801 19.135C56.4101 19.065 56.7801 18.865 57.1901 18.535C57.6001 18.195 57.8751 17.85 58.0151 17.5H59.4851V28H57.5651V20.215Z" fill="white"/>
<path d="M28 59.4675L20.583 67.5L28 75.5325L25.7166 78L16 67.5L25.7166 57L28 59.4675Z" fill="white"/>
<path d="M159.505 61.4H161.809V74H159.505V61.4ZM175.083 64.856C176.283 64.856 177.171 65.222 177.747 65.954C178.335 66.674 178.629 67.688 178.629 68.996V74H176.397V69.158C176.397 68.306 176.265 67.682 176.001 67.286C175.737 66.89 175.305 66.692 174.705 66.692C174.117 66.692 173.673 66.896 173.373 67.304C173.073 67.7 172.923 68.264 172.923 68.996V74H170.691V69.158C170.691 68.306 170.553 67.682 170.277 67.286C170.001 66.89 169.563 66.692 168.963 66.692C168.255 66.692 167.673 66.95 167.217 67.466V74H164.985V65H166.893L166.965 65.72C167.781 65.144 168.663 64.856 169.611 64.856C170.763 64.856 171.621 65.27 172.185 66.098C172.497 65.702 172.905 65.396 173.409 65.18C173.913 64.964 174.471 64.856 175.083 64.856ZM186.228 64.856C187.08 64.856 187.812 65.066 188.424 65.486C189.036 65.906 189.498 66.47 189.81 67.178C190.122 67.886 190.278 68.666 190.278 69.518C190.278 70.37 190.122 71.15 189.81 71.858C189.498 72.566 189.036 73.13 188.424 73.55C187.812 73.97 187.08 74.18 186.228 74.18C185.688 74.18 185.226 74.12 184.842 74C184.47 73.892 184.11 73.712 183.762 73.46V78.356H181.53V65H183.33L183.564 65.828C183.948 65.504 184.35 65.264 184.77 65.108C185.19 64.94 185.676 64.856 186.228 64.856ZM185.886 72.344C186.546 72.344 187.062 72.086 187.434 71.57C187.806 71.054 187.992 70.37 187.992 69.518C187.992 68.666 187.806 67.982 187.434 67.466C187.062 66.95 186.546 66.692 185.886 66.692C185.142 66.692 184.584 66.944 184.212 67.448C183.84 67.952 183.654 68.642 183.654 69.518C183.654 70.394 183.84 71.084 184.212 71.588C184.584 72.092 185.142 72.344 185.886 72.344ZM196.816 74.18C195.868 74.18 195.046 73.97 194.35 73.55C193.654 73.13 193.12 72.566 192.748 71.858C192.376 71.15 192.19 70.37 192.19 69.518C192.19 68.666 192.376 67.88 192.748 67.16C193.12 66.44 193.654 65.87 194.35 65.45C195.046 65.03 195.868 64.82 196.816 64.82C197.764 64.82 198.586 65.03 199.282 65.45C199.978 65.87 200.512 66.44 200.884 67.16C201.256 67.88 201.442 68.666 201.442 69.518C201.442 70.37 201.256 71.15 200.884 71.858C200.512 72.566 199.978 73.13 199.282 73.55C198.586 73.97 197.764 74.18 196.816 74.18ZM196.816 72.344C197.548 72.344 198.118 72.086 198.526 71.57C198.946 71.054 199.156 70.37 199.156 69.518C199.156 68.654 198.946 67.964 198.526 67.448C198.118 66.92 197.548 66.656 196.816 66.656C196.084 66.656 195.508 66.92 195.088 67.448C194.68 67.964 194.476 68.654 194.476 69.518C194.476 70.37 194.68 71.054 195.088 71.57C195.508 72.086 196.084 72.344 196.816 72.344ZM203.896 65H205.984L206.038 65.954C206.302 65.654 206.638 65.39 207.046 65.162C207.466 64.934 207.904 64.82 208.36 64.82C208.504 64.82 208.636 64.832 208.756 64.856L208.594 67.052C208.366 66.992 208.108 66.962 207.82 66.962C207.448 66.962 207.106 67.052 206.794 67.232C206.482 67.4 206.26 67.61 206.128 67.862V74H203.896V65ZM213.671 74.18C212.879 74.18 212.279 73.952 211.871 73.496C211.463 73.028 211.259 72.47 211.259 71.822V66.836H209.981L210.179 65H211.259V63.02L213.491 62.786V65H215.471V66.836H213.491V70.904C213.491 71.384 213.515 71.72 213.563 71.912C213.623 72.092 213.737 72.212 213.905 72.272C214.085 72.32 214.403 72.344 214.859 72.344H215.471L215.273 74.18H213.671Z" fill="white"/>
<path d="M340 77C340.962 77 341.75 76.1692 341.75 75.1538H338.25C338.25 76.1692 339.029 77 340 77ZM345.25 71.4615V66.8462C345.25 64.0123 343.815 61.64 341.312 61.0123V60.3846C341.312 59.6185 340.726 59 340 59C339.274 59 338.687 59.6185 338.687 60.3846V61.0123C336.176 61.64 334.75 64.0031 334.75 66.8462V71.4615L333 73.3077V74.2308H347V73.3077L345.25 71.4615Z" fill="white"/>
<path d="M309.2 61H294.8C293.81 61 293.009 61.7875 293.009 62.75L293 73.25C293 74.2125 293.81 75 294.8 75H309.2C310.19 75 311 74.2125 311 73.25V62.75C311 61.7875 310.19 61 309.2 61ZM309.2 64.5L302 68.875L294.8 64.5V62.75L302 67.125L309.2 62.75V64.5Z" fill="white"/>
<circle opacity="0.3" cx="313.5" cy="59.5" r="12.5" fill="url(#paint0_linear)"/>
<circle cx="313.5" cy="59.5" r="7.5" fill="url(#paint1_linear)"/>
<path d="M313.28 60.17C313.667 59.5767 313.93 59.13 314.07 58.83C314.217 58.53 314.29 58.2467 314.29 57.98C314.29 57.6933 314.207 57.47 314.04 57.31C313.88 57.1433 313.657 57.06 313.37 57.06C313.05 57.06 312.753 57.1367 312.48 57.29C312.207 57.4433 311.94 57.65 311.68 57.91L311.52 56.62C311.833 56.3667 312.16 56.1767 312.5 56.05C312.84 55.9233 313.217 55.86 313.63 55.86C314.037 55.86 314.383 55.9467 314.67 56.12C314.957 56.2867 315.17 56.5133 315.31 56.8C315.457 57.0867 315.53 57.4033 315.53 57.75C315.53 58.1433 315.443 58.5467 315.27 58.96C315.103 59.3733 314.807 59.9033 314.38 60.55L313.56 61.8H315.78V63H311.44L313.28 60.17Z" fill="white"/>
<g filter="url(#filter0_d)">
<rect y="719" width="375" height="93" fill="#474A4F"/>
</g>
<path d="M27 734.375C27 733.069 28.125 732 29.5 732H48.25C48.9403 732 49.5 732.532 49.5 733.188V734.375H29.5V735.563H50.75C51.4403 735.563 52 736.094 52 736.75V748.625C52 749.937 50.8806 751 49.5 751H29.5C28.1194 751 27 749.937 27 748.625V734.375ZM47.625 745.063C48.6606 745.063 49.5 744.265 49.5 743.281C49.5 742.297 48.6606 741.5 47.625 741.5C46.5894 741.5 45.75 742.297 45.75 743.281C45.75 744.265 46.5894 745.063 47.625 745.063Z" fill="url(#paint2_linear)"/>
<path d="M28.08 760.4H29.144L30.264 764.376L31.512 760.4H32.224L33.52 764.272L34.592 760.4H35.656L34.016 766H33.112L31.864 762.264L30.624 766H29.656L28.08 760.4ZM36.7421 766.08C36.4114 766.08 36.1341 765.973 35.9101 765.76C35.6914 765.541 35.5821 765.248 35.5821 764.88C35.5821 764.533 35.7074 764.256 35.9581 764.048C36.2087 763.835 36.5047 763.685 36.8461 763.6C37.1874 763.509 37.5154 763.459 37.8301 763.448C37.8194 763.213 37.7581 763.045 37.6461 762.944C37.5394 762.843 37.3607 762.792 37.1101 762.792C36.9341 762.792 36.7607 762.816 36.5901 762.864C36.4247 762.912 36.2327 762.989 36.0141 763.096L35.9261 762.288C36.4114 762.053 36.8967 761.936 37.3821 761.936C37.8514 761.936 38.2087 762.064 38.4541 762.32C38.7047 762.576 38.8301 762.984 38.8301 763.544V764.624C38.8301 764.827 38.8381 764.973 38.8541 765.064C38.8754 765.149 38.9074 765.205 38.9501 765.232C38.9981 765.253 39.0754 765.264 39.1821 765.264H39.3101L39.2221 766.08H38.8621C38.6434 766.08 38.4594 766.04 38.3101 765.96C38.1607 765.875 38.0461 765.76 37.9661 765.616C37.8381 765.76 37.6621 765.875 37.4381 765.96C37.2194 766.04 36.9874 766.08 36.7421 766.08ZM37.1581 765.32C37.2594 765.32 37.3741 765.296 37.5021 765.248C37.6301 765.195 37.7421 765.123 37.8381 765.032V764.12C37.5181 764.136 37.2354 764.205 36.9901 764.328C36.7447 764.451 36.6221 764.621 36.6221 764.84C36.6221 765.005 36.6647 765.128 36.7501 765.208C36.8354 765.283 36.9714 765.32 37.1581 765.32ZM40.8864 766.08C40.5451 766.08 40.2891 765.984 40.1184 765.792C39.9478 765.595 39.8624 765.341 39.8624 765.032V760H40.8544V764.624C40.8544 764.837 40.8651 764.989 40.8864 765.08C40.9131 765.165 40.9558 765.219 41.0144 765.24C41.0784 765.256 41.1851 765.264 41.3344 765.264L41.2464 766.08H40.8864ZM42.988 766.08C42.6467 766.08 42.3907 765.984 42.22 765.792C42.0493 765.595 41.964 765.341 41.964 765.032V760H42.956V764.624C42.956 764.837 42.9667 764.989 42.988 765.08C43.0147 765.165 43.0573 765.219 43.116 765.24C43.18 765.256 43.2867 765.264 43.436 765.264L43.348 766.08H42.988ZM45.9545 766.08C45.4905 766.08 45.0932 765.987 44.7625 765.8C44.4372 765.608 44.1918 765.355 44.0265 765.04C43.8665 764.72 43.7865 764.365 43.7865 763.976C43.7865 763.603 43.8638 763.261 44.0185 762.952C44.1732 762.643 44.3972 762.397 44.6905 762.216C44.9838 762.029 45.3332 761.936 45.7385 761.936C46.1118 761.936 46.4265 762.013 46.6825 762.168C46.9438 762.323 47.1385 762.531 47.2665 762.792C47.3998 763.053 47.4665 763.347 47.4665 763.672C47.4665 763.832 47.4452 764.013 47.4025 764.216H44.8185C44.8718 764.568 45.0105 764.832 45.2345 765.008C45.4585 765.179 45.7278 765.264 46.0425 765.264C46.4745 765.264 46.8745 765.155 47.2425 764.936L47.2905 765.776C47.1198 765.867 46.9198 765.941 46.6905 766C46.4665 766.053 46.2212 766.08 45.9545 766.08ZM46.4585 763.544C46.4585 763.336 46.3998 763.152 46.2825 762.992C46.1652 762.832 45.9838 762.752 45.7385 762.752C45.4932 762.752 45.2958 762.824 45.1465 762.968C44.9972 763.112 44.8958 763.304 44.8425 763.544H46.4585ZM49.4477 766.08C49.0957 766.08 48.829 765.979 48.6477 765.776C48.4664 765.568 48.3757 765.32 48.3757 765.032V762.816H47.8077L47.8957 762H48.3757V761.12L49.3677 761.016V762H50.2477V762.816H49.3677V764.624C49.3677 764.837 49.3784 764.987 49.3997 765.072C49.4264 765.152 49.477 765.205 49.5517 765.232C49.6317 765.253 49.773 765.264 49.9757 765.264H50.2477L50.1597 766.08H49.4477Z" fill="url(#paint3_linear)"/>
<path d="M329 749H352V746.5H329V749ZM329 742.75H352V740.25H329V742.75ZM329 734V736.5H352V734H329Z" fill="#A6A6A6"/>
<path d="M335.248 766L334.768 762.248L333.336 764.824L331.896 762.256L331.416 766H330.352L331.128 760.4H331.968L333.336 762.952L334.696 760.4H335.536L336.312 766H335.248ZM338.955 766.08C338.491 766.08 338.093 765.987 337.763 765.8C337.437 765.608 337.192 765.355 337.027 765.04C336.867 764.72 336.787 764.365 336.787 763.976C336.787 763.603 336.864 763.261 337.019 762.952C337.173 762.643 337.397 762.397 337.691 762.216C337.984 762.029 338.333 761.936 338.739 761.936C339.112 761.936 339.427 762.013 339.683 762.168C339.944 762.323 340.139 762.531 340.267 762.792C340.4 763.053 340.467 763.347 340.467 763.672C340.467 763.832 340.445 764.013 340.403 764.216H337.819C337.872 764.568 338.011 764.832 338.235 765.008C338.459 765.179 338.728 765.264 339.043 765.264C339.475 765.264 339.875 765.155 340.243 764.936L340.291 765.776C340.12 765.867 339.92 765.941 339.691 766C339.467 766.053 339.221 766.08 338.955 766.08ZM339.459 763.544C339.459 763.336 339.4 763.152 339.283 762.992C339.165 762.832 338.984 762.752 338.739 762.752C338.493 762.752 338.296 762.824 338.147 762.968C337.997 763.112 337.896 763.304 337.843 763.544H339.459ZM343.16 761.936C343.656 761.936 344.032 762.101 344.288 762.432C344.544 762.763 344.672 763.208 344.672 763.768V766H343.68V763.848C343.68 763.475 343.616 763.2 343.488 763.024C343.365 762.843 343.165 762.752 342.888 762.752C342.584 762.752 342.333 762.867 342.136 763.096V766H341.144V762H342.072L342.088 762.28C342.424 762.051 342.781 761.936 343.16 761.936ZM349.015 762V766H348.087L348.071 765.76C347.948 765.851 347.807 765.928 347.647 765.992C347.487 766.051 347.332 766.08 347.183 766.08C346.591 766.08 346.159 765.909 345.887 765.568C345.62 765.227 345.487 764.755 345.487 764.152V762H346.479V764.152C346.479 764.525 346.54 764.803 346.663 764.984C346.791 765.16 346.993 765.248 347.271 765.248C347.58 765.248 347.831 765.136 348.023 764.912V762H349.015Z" fill="#AAAAAA"/>
<path d="M245.52 764.672H243.48L243.016 766H242.024L244.016 760.4H244.984L246.976 766H245.984L245.52 764.672ZM245.2 763.776L244.504 761.776L243.8 763.776H245.2ZM251.018 760V766H250.082L250.066 765.744C249.912 765.856 249.749 765.941 249.578 766C249.413 766.053 249.216 766.08 248.986 766.08C248.597 766.08 248.261 765.987 247.978 765.8C247.701 765.613 247.49 765.363 247.346 765.048C247.202 764.733 247.13 764.387 247.13 764.008C247.13 763.629 247.202 763.283 247.346 762.968C247.49 762.653 247.701 762.403 247.978 762.216C248.261 762.029 248.597 761.936 248.986 761.936C249.376 761.936 249.722 762.043 250.026 762.256V760H251.018ZM249.13 765.264C249.445 765.264 249.68 765.152 249.834 764.928C249.994 764.704 250.074 764.397 250.074 764.008C250.074 763.619 249.994 763.312 249.834 763.088C249.68 762.864 249.445 762.752 249.13 762.752C248.821 762.752 248.578 762.867 248.402 763.096C248.232 763.325 248.146 763.629 248.146 764.008C248.146 764.387 248.232 764.691 248.402 764.92C248.578 765.149 248.821 765.264 249.13 765.264ZM255.589 760V766H254.653L254.637 765.744C254.482 765.856 254.319 765.941 254.149 766C253.983 766.053 253.786 766.08 253.557 766.08C253.167 766.08 252.831 765.987 252.549 765.8C252.271 765.613 252.061 765.363 251.917 765.048C251.773 764.733 251.701 764.387 251.701 764.008C251.701 763.629 251.773 763.283 251.917 762.968C252.061 762.653 252.271 762.403 252.549 762.216C252.831 762.029 253.167 761.936 253.557 761.936C253.946 761.936 254.293 762.043 254.597 762.256V760H255.589ZM253.701 765.264C254.015 765.264 254.25 765.152 254.405 764.928C254.565 764.704 254.645 764.397 254.645 764.008C254.645 763.619 254.565 763.312 254.405 763.088C254.25 762.864 254.015 762.752 253.701 762.752C253.391 762.752 253.149 762.867 252.973 763.096C252.802 763.325 252.717 763.629 252.717 764.008C252.717 764.387 252.802 764.691 252.973 764.92C253.149 765.149 253.391 765.264 253.701 765.264ZM256.511 762H257.439L257.463 762.424C257.58 762.291 257.73 762.173 257.911 762.072C258.098 761.971 258.292 761.92 258.495 761.92C258.559 761.92 258.618 761.925 258.671 761.936L258.599 762.912C258.498 762.885 258.383 762.872 258.255 762.872C258.09 762.872 257.938 762.912 257.799 762.992C257.66 763.067 257.562 763.16 257.503 763.272V766H256.511V762ZM261.009 766.08C260.545 766.08 260.148 765.987 259.817 765.8C259.492 765.608 259.247 765.355 259.081 765.04C258.921 764.72 258.841 764.365 258.841 763.976C258.841 763.603 258.919 763.261 259.073 762.952C259.228 762.643 259.452 762.397 259.745 762.216C260.039 762.029 260.388 761.936 260.793 761.936C261.167 761.936 261.481 762.013 261.737 762.168C261.999 762.323 262.193 762.531 262.321 762.792C262.455 763.053 262.521 763.347 262.521 763.672C262.521 763.832 262.5 764.013 262.457 764.216H259.873C259.927 764.568 260.065 764.832 260.289 765.008C260.513 765.179 260.783 765.264 261.097 765.264C261.529 765.264 261.929 765.155 262.297 764.936L262.345 765.776C262.175 765.867 261.975 765.941 261.745 766C261.521 766.053 261.276 766.08 261.009 766.08ZM261.513 763.544C261.513 763.336 261.455 763.152 261.337 762.992C261.22 762.832 261.039 762.752 260.793 762.752C260.548 762.752 260.351 762.824 260.201 762.968C260.052 763.112 259.951 763.304 259.897 763.544H261.513ZM264.334 766.08C264.078 766.08 263.844 766.056 263.63 766.008C263.422 765.96 263.206 765.885 262.982 765.784L263.07 764.936C263.294 765.069 263.502 765.171 263.694 765.24C263.892 765.304 264.094 765.336 264.302 765.336C264.708 765.336 264.91 765.203 264.91 764.936C264.91 764.792 264.857 764.683 264.75 764.608C264.644 764.528 264.452 764.435 264.174 764.328C263.78 764.184 263.489 764.021 263.302 763.84C263.116 763.653 263.022 763.403 263.022 763.088C263.022 762.741 263.156 762.461 263.422 762.248C263.689 762.029 264.049 761.92 264.502 761.92C264.956 761.92 265.369 762.024 265.742 762.232L265.654 763.08C265.452 762.941 265.26 762.835 265.078 762.76C264.902 762.685 264.716 762.648 264.518 762.648C264.348 762.648 264.214 762.683 264.118 762.752C264.028 762.821 263.982 762.92 263.982 763.048C263.982 763.149 264.009 763.232 264.062 763.296C264.121 763.36 264.201 763.419 264.302 763.472C264.404 763.52 264.572 763.589 264.806 763.68C265.196 763.829 265.476 763.995 265.646 764.176C265.817 764.352 265.902 764.589 265.902 764.888C265.902 765.267 265.766 765.56 265.494 765.768C265.222 765.976 264.836 766.08 264.334 766.08ZM267.717 766.08C267.461 766.08 267.227 766.056 267.013 766.008C266.805 765.96 266.589 765.885 266.365 765.784L266.453 764.936C266.677 765.069 266.885 765.171 267.077 765.24C267.275 765.304 267.477 765.336 267.685 765.336C268.091 765.336 268.293 765.203 268.293 764.936C268.293 764.792 268.24 764.683 268.133 764.608C268.027 764.528 267.835 764.435 267.557 764.328C267.163 764.184 266.872 764.021 266.685 763.84C266.499 763.653 266.405 763.403 266.405 763.088C266.405 762.741 266.539 762.461 266.805 762.248C267.072 762.029 267.432 761.92 267.885 761.92C268.339 761.92 268.752 762.024 269.125 762.232L269.037 763.08C268.835 762.941 268.643 762.835 268.461 762.76C268.285 762.685 268.099 762.648 267.901 762.648C267.731 762.648 267.597 762.683 267.501 762.752C267.411 762.821 267.365 762.92 267.365 763.048C267.365 763.149 267.392 763.232 267.445 763.296C267.504 763.36 267.584 763.419 267.685 763.472C267.787 763.52 267.955 763.589 268.189 763.68C268.579 763.829 268.859 763.995 269.029 764.176C269.2 764.352 269.285 764.589 269.285 764.888C269.285 765.267 269.149 765.56 268.877 765.768C268.605 765.976 268.219 766.08 267.717 766.08ZM275.009 762.936C275.718 763.165 276.073 763.656 276.073 764.408C276.073 764.909 275.91 765.301 275.585 765.584C275.26 765.861 274.814 766 274.249 766H271.913V760.4H274.025C275.092 760.4 275.625 760.851 275.625 761.752C275.625 762.307 275.42 762.701 275.009 762.936ZM272.937 762.6H273.873C274.124 762.6 274.31 762.549 274.433 762.448C274.556 762.341 274.617 762.179 274.617 761.96C274.617 761.731 274.556 761.565 274.433 761.464C274.31 761.363 274.124 761.312 273.873 761.312H272.937V762.6ZM274.097 765.088C274.396 765.088 274.622 765.029 274.777 764.912C274.937 764.789 275.017 764.584 275.017 764.296C275.017 764.013 274.934 763.813 274.769 763.696C274.609 763.573 274.385 763.512 274.097 763.512H272.937V765.088H274.097ZM278.585 766.08C278.163 766.08 277.798 765.987 277.489 765.8C277.179 765.613 276.942 765.363 276.777 765.048C276.611 764.733 276.529 764.387 276.529 764.008C276.529 763.629 276.611 763.28 276.777 762.96C276.942 762.64 277.179 762.387 277.489 762.2C277.798 762.013 278.163 761.92 278.585 761.92C279.006 761.92 279.371 762.013 279.681 762.2C279.99 762.387 280.227 762.64 280.393 762.96C280.558 763.28 280.641 763.629 280.641 764.008C280.641 764.387 280.558 764.733 280.393 765.048C280.227 765.363 279.99 765.613 279.681 765.8C279.371 765.987 279.006 766.08 278.585 766.08ZM278.585 765.264C278.91 765.264 279.163 765.149 279.345 764.92C279.531 764.691 279.625 764.387 279.625 764.008C279.625 763.624 279.531 763.317 279.345 763.088C279.163 762.853 278.91 762.736 278.585 762.736C278.259 762.736 278.003 762.853 277.817 763.088C277.635 763.317 277.545 763.624 277.545 764.008C277.545 764.387 277.635 764.691 277.817 764.92C278.003 765.149 278.259 765.264 278.585 765.264ZM283.147 766.08C282.726 766.08 282.361 765.987 282.051 765.8C281.742 765.613 281.505 765.363 281.339 765.048C281.174 764.733 281.091 764.387 281.091 764.008C281.091 763.629 281.174 763.28 281.339 762.96C281.505 762.64 281.742 762.387 282.051 762.2C282.361 762.013 282.726 761.92 283.147 761.92C283.569 761.92 283.934 762.013 284.243 762.2C284.553 762.387 284.79 762.64 284.955 762.96C285.121 763.28 285.203 763.629 285.203 764.008C285.203 764.387 285.121 764.733 284.955 765.048C284.79 765.363 284.553 765.613 284.243 765.8C283.934 765.987 283.569 766.08 283.147 766.08ZM283.147 765.264C283.473 765.264 283.726 765.149 283.907 764.92C284.094 764.691 284.187 764.387 284.187 764.008C284.187 763.624 284.094 763.317 283.907 763.088C283.726 762.853 283.473 762.736 283.147 762.736C282.822 762.736 282.566 762.853 282.379 763.088C282.198 763.317 282.107 763.624 282.107 764.008C282.107 764.387 282.198 764.691 282.379 764.92C282.566 765.149 282.822 765.264 283.147 765.264ZM285.886 760H286.878V763.64L288.118 762H289.238L287.782 763.92L289.27 766H288.15L286.878 764.224V766H285.886V760Z" fill="#AAAAAA"/>
<path d="M257.2 735.4H255V750.8C255 752.01 255.99 753 257.2 753H272.6V750.8H257.2V735.4ZM274.8 731H261.6C260.39 731 259.4 731.99 259.4 733.2V746.4C259.4 747.61 260.39 748.6 261.6 748.6H274.8C276.01 748.6 277 747.61 277 746.4V733.2C277 731.99 276.01 731 274.8 731ZM273.7 740.9H262.7V738.7H273.7V740.9ZM269.3 745.3H262.7V743.1H269.3V745.3ZM273.7 736.5H262.7V734.3H273.7V736.5Z" fill="#AAAAAA"/>
<path d="M97.24 766.112C96.9253 766.112 96.5867 766.069 96.224 765.984C95.8667 765.899 95.5867 765.805 95.384 765.704L95.504 764.616C96.208 764.957 96.8267 765.128 97.36 765.128C97.6427 765.128 97.864 765.075 98.024 764.968C98.184 764.856 98.264 764.693 98.264 764.48C98.264 764.32 98.2187 764.189 98.128 764.088C98.0427 763.981 97.9173 763.893 97.752 763.824C97.5867 763.749 97.3227 763.648 96.96 763.52C96.6187 763.403 96.336 763.28 96.112 763.152C95.888 763.019 95.7093 762.851 95.576 762.648C95.448 762.44 95.384 762.187 95.384 761.888C95.384 761.408 95.56 761.021 95.912 760.728C96.264 760.435 96.768 760.288 97.424 760.288C97.7333 760.288 98.04 760.323 98.344 760.392C98.6533 760.461 98.936 760.547 99.192 760.648L99.088 761.696C98.7573 761.552 98.4533 761.445 98.176 761.376C97.904 761.301 97.632 761.264 97.36 761.264C97.056 761.264 96.824 761.315 96.664 761.416C96.504 761.517 96.424 761.664 96.424 761.856C96.424 762.005 96.4667 762.128 96.552 762.224C96.6373 762.32 96.752 762.4 96.896 762.464C97.0453 762.528 97.264 762.605 97.552 762.696C98.1973 762.899 98.6667 763.133 98.96 763.4C99.2587 763.661 99.408 764.021 99.408 764.48C99.408 764.917 99.256 765.299 98.952 765.624C98.648 765.949 98.0773 766.112 97.24 766.112ZM99.6503 762H100.618L101.306 764.792L102.058 762.08H102.89L103.634 764.792L104.33 762H105.298L104.13 766H103.298L102.474 763.392L101.65 766H100.818L99.6503 762ZM106.672 766.08C106.341 766.08 106.064 765.973 105.84 765.76C105.621 765.541 105.512 765.248 105.512 764.88C105.512 764.533 105.637 764.256 105.888 764.048C106.138 763.835 106.434 763.685 106.776 763.6C107.117 763.509 107.445 763.459 107.76 763.448C107.749 763.213 107.688 763.045 107.576 762.944C107.469 762.843 107.29 762.792 107.04 762.792C106.864 762.792 106.69 762.816 106.52 762.864C106.354 762.912 106.162 762.989 105.944 763.096L105.856 762.288C106.341 762.053 106.826 761.936 107.312 761.936C107.781 761.936 108.138 762.064 108.384 762.32C108.634 762.576 108.76 762.984 108.76 763.544V764.624C108.76 764.827 108.768 764.973 108.784 765.064C108.805 765.149 108.837 765.205 108.88 765.232C108.928 765.253 109.005 765.264 109.112 765.264H109.24L109.152 766.08H108.792C108.573 766.08 108.389 766.04 108.24 765.96C108.09 765.875 107.976 765.76 107.896 765.616C107.768 765.76 107.592 765.875 107.368 765.96C107.149 766.04 106.917 766.08 106.672 766.08ZM107.088 765.32C107.189 765.32 107.304 765.296 107.432 765.248C107.56 765.195 107.672 765.123 107.768 765.032V764.12C107.448 764.136 107.165 764.205 106.92 764.328C106.674 764.451 106.552 764.621 106.552 764.84C106.552 765.005 106.594 765.128 106.68 765.208C106.765 765.283 106.901 765.32 107.088 765.32ZM111.88 761.936C112.259 761.936 112.584 762.029 112.856 762.216C113.128 762.403 113.333 762.653 113.472 762.968C113.611 763.283 113.68 763.629 113.68 764.008C113.68 764.387 113.611 764.733 113.472 765.048C113.333 765.363 113.128 765.613 112.856 765.8C112.584 765.987 112.259 766.08 111.88 766.08C111.64 766.08 111.435 766.053 111.264 766C111.099 765.952 110.939 765.872 110.784 765.76V767.936H109.792V762H110.592L110.696 762.368C110.867 762.224 111.045 762.117 111.232 762.048C111.419 761.973 111.635 761.936 111.88 761.936ZM111.728 765.264C112.021 765.264 112.251 765.149 112.416 764.92C112.581 764.691 112.664 764.387 112.664 764.008C112.664 763.629 112.581 763.325 112.416 763.096C112.251 762.867 112.021 762.752 111.728 762.752C111.397 762.752 111.149 762.864 110.984 763.088C110.819 763.312 110.736 763.619 110.736 764.008C110.736 764.397 110.819 764.704 110.984 764.928C111.149 765.152 111.397 765.264 111.728 765.264ZM115.506 766.08C115.25 766.08 115.016 766.056 114.802 766.008C114.594 765.96 114.378 765.885 114.154 765.784L114.242 764.936C114.466 765.069 114.674 765.171 114.866 765.24C115.064 765.304 115.266 765.336 115.474 765.336C115.88 765.336 116.082 765.203 116.082 764.936C116.082 764.792 116.029 764.683 115.922 764.608C115.816 764.528 115.624 764.435 115.346 764.328C114.952 764.184 114.661 764.021 114.474 763.84C114.288 763.653 114.194 763.403 114.194 763.088C114.194 762.741 114.328 762.461 114.594 762.248C114.861 762.029 115.221 761.92 115.674 761.92C116.128 761.92 116.541 762.024 116.914 762.232L116.826 763.08C116.624 762.941 116.432 762.835 116.25 762.76C116.074 762.685 115.888 762.648 115.69 762.648C115.52 762.648 115.386 762.683 115.29 762.752C115.2 762.821 115.154 762.92 115.154 763.048C115.154 763.149 115.181 763.232 115.234 763.296C115.293 763.36 115.373 763.419 115.474 763.472C115.576 763.52 115.744 763.589 115.978 763.68C116.368 763.829 116.648 763.995 116.818 764.176C116.989 764.352 117.074 764.589 117.074 764.888C117.074 765.267 116.938 765.56 116.666 765.768C116.394 765.976 116.008 766.08 115.506 766.08Z" fill="#AAAAAA"/>
<path d="M114.35 734.929L102.667 734.929L102.667 738.214L114.35 738.214L114.35 743.143L121 736.571L114.35 730L114.35 734.929V734.929ZM91 746.429L97.65 753L97.65 748.071L109.333 748.071L109.333 744.786L97.65 744.786L97.65 739.857L91 746.429Z" fill="#AAAAAA"/>
<path d="M159.616 760.4H161.712C162.245 760.4 162.72 760.512 163.136 760.736C163.557 760.96 163.885 761.283 164.12 761.704C164.355 762.125 164.472 762.624 164.472 763.2C164.472 763.776 164.355 764.275 164.12 764.696C163.885 765.117 163.557 765.44 163.136 765.664C162.72 765.888 162.245 766 161.712 766H159.616V760.4ZM161.712 765.088C162.245 765.088 162.651 764.923 162.928 764.592C163.211 764.256 163.352 763.792 163.352 763.2C163.352 762.608 163.211 762.147 162.928 761.816C162.651 761.48 162.245 761.312 161.712 761.312H160.64V765.088H161.712ZM167.103 766.08C166.639 766.08 166.242 765.987 165.911 765.8C165.586 765.608 165.34 765.355 165.175 765.04C165.015 764.72 164.935 764.365 164.935 763.976C164.935 763.603 165.012 763.261 165.167 762.952C165.322 762.643 165.546 762.397 165.839 762.216C166.132 762.029 166.482 761.936 166.887 761.936C167.26 761.936 167.575 762.013 167.831 762.168C168.092 762.323 168.287 762.531 168.415 762.792C168.548 763.053 168.615 763.347 168.615 763.672C168.615 763.832 168.594 764.013 168.551 764.216H165.967C166.02 764.568 166.159 764.832 166.383 765.008C166.607 765.179 166.876 765.264 167.191 765.264C167.623 765.264 168.023 765.155 168.391 764.936L168.439 765.776C168.268 765.867 168.068 765.941 167.839 766C167.615 766.053 167.37 766.08 167.103 766.08ZM167.607 763.544C167.607 763.336 167.548 763.152 167.431 762.992C167.314 762.832 167.132 762.752 166.887 762.752C166.642 762.752 166.444 762.824 166.295 762.968C166.146 763.112 166.044 763.304 165.991 763.544H167.607ZM170.876 768.016C170.311 768.016 169.86 767.912 169.524 767.704C169.188 767.501 169.02 767.224 169.02 766.872C169.02 766.488 169.236 766.173 169.668 765.928C169.433 765.784 169.316 765.595 169.316 765.36C169.316 765.237 169.351 765.128 169.42 765.032C169.495 764.936 169.593 764.859 169.716 764.8C169.513 764.656 169.359 764.472 169.252 764.248C169.151 764.024 169.1 763.779 169.1 763.512C169.1 763.219 169.164 762.952 169.292 762.712C169.42 762.467 169.607 762.275 169.852 762.136C170.097 761.992 170.388 761.92 170.724 761.92C171.076 761.92 171.38 762.005 171.636 762.176C171.727 762.128 171.847 762.088 171.996 762.056C172.151 762.019 172.316 762 172.492 762H172.748L172.684 762.624H172.324C172.233 762.624 172.159 762.627 172.1 762.632C172.26 762.877 172.34 763.171 172.34 763.512C172.34 763.805 172.276 764.075 172.148 764.32C172.025 764.56 171.841 764.752 171.596 764.896C171.351 765.035 171.06 765.104 170.724 765.104C170.601 765.104 170.46 765.085 170.3 765.048C170.241 765.075 170.212 765.117 170.212 765.176C170.212 765.245 170.252 765.301 170.332 765.344C170.417 765.381 170.559 765.413 170.756 765.44L171.444 765.528C172.361 765.651 172.82 766.037 172.82 766.688C172.82 767.093 172.647 767.416 172.3 767.656C171.959 767.896 171.484 768.016 170.876 768.016ZM170.724 764.368C170.953 764.368 171.129 764.293 171.252 764.144C171.38 763.989 171.444 763.779 171.444 763.512C171.444 763.245 171.38 763.037 171.252 762.888C171.129 762.733 170.953 762.656 170.724 762.656C170.489 762.656 170.308 762.733 170.18 762.888C170.057 763.037 169.996 763.245 169.996 763.512C169.996 763.779 170.057 763.989 170.18 764.144C170.308 764.293 170.489 764.368 170.724 764.368ZM170.916 767.264C171.599 767.264 171.94 767.096 171.94 766.76C171.94 766.611 171.881 766.499 171.764 766.424C171.647 766.355 171.452 766.299 171.18 766.256L170.3 766.128C169.996 766.251 169.844 766.437 169.844 766.688C169.844 766.88 169.937 767.024 170.124 767.12C170.311 767.216 170.575 767.264 170.916 767.264ZM173.3 760.4H174.292V761.392H173.3V760.4ZM173.3 762H174.292V766H173.3V762ZM176.526 766.08C176.174 766.08 175.907 765.979 175.726 765.776C175.544 765.568 175.454 765.32 175.454 765.032V762.816H174.886L174.974 762H175.454V761.12L176.446 761.016V762H177.326V762.816H176.446V764.624C176.446 764.837 176.456 764.987 176.478 765.072C176.504 765.152 176.555 765.205 176.63 765.232C176.71 765.253 176.851 765.264 177.054 765.264H177.326L177.238 766.08H176.526ZM178.836 766.08C178.505 766.08 178.228 765.973 178.004 765.76C177.785 765.541 177.676 765.248 177.676 764.88C177.676 764.533 177.801 764.256 178.052 764.048C178.302 763.835 178.598 763.685 178.94 763.6C179.281 763.509 179.609 763.459 179.924 763.448C179.913 763.213 179.852 763.045 179.74 762.944C179.633 762.843 179.454 762.792 179.204 762.792C179.028 762.792 178.854 762.816 178.684 762.864C178.518 762.912 178.326 762.989 178.108 763.096L178.02 762.288C178.505 762.053 178.99 761.936 179.476 761.936C179.945 761.936 180.302 762.064 180.548 762.32C180.798 762.576 180.924 762.984 180.924 763.544V764.624C180.924 764.827 180.932 764.973 180.948 765.064C180.969 765.149 181.001 765.205 181.044 765.232C181.092 765.253 181.169 765.264 181.276 765.264H181.404L181.316 766.08H180.956C180.737 766.08 180.553 766.04 180.404 765.96C180.254 765.875 180.14 765.76 180.06 765.616C179.932 765.76 179.756 765.875 179.532 765.96C179.313 766.04 179.081 766.08 178.836 766.08ZM179.252 765.32C179.353 765.32 179.468 765.296 179.596 765.248C179.724 765.195 179.836 765.123 179.932 765.032V764.12C179.612 764.136 179.329 764.205 179.084 764.328C178.838 764.451 178.716 764.621 178.716 764.84C178.716 765.005 178.758 765.128 178.844 765.208C178.929 765.283 179.065 765.32 179.252 765.32ZM182.98 766.08C182.639 766.08 182.383 765.984 182.212 765.792C182.042 765.595 181.956 765.341 181.956 765.032V760H182.948V764.624C182.948 764.837 182.959 764.989 182.98 765.08C183.007 765.165 183.05 765.219 183.108 765.24C183.172 765.256 183.279 765.264 183.428 765.264L183.34 766.08H182.98ZM188.911 764.672H186.871L186.407 766H185.415L187.407 760.4H188.375L190.367 766H189.375L188.911 764.672ZM188.591 763.776L187.895 761.776L187.191 763.776H188.591ZM191.991 766.08C191.735 766.08 191.5 766.056 191.287 766.008C191.079 765.96 190.863 765.885 190.639 765.784L190.727 764.936C190.951 765.069 191.159 765.171 191.351 765.24C191.548 765.304 191.751 765.336 191.959 765.336C192.364 765.336 192.567 765.203 192.567 764.936C192.567 764.792 192.513 764.683 192.407 764.608C192.3 764.528 192.108 764.435 191.831 764.328C191.436 764.184 191.145 764.021 190.959 763.84C190.772 763.653 190.679 763.403 190.679 763.088C190.679 762.741 190.812 762.461 191.079 762.248C191.345 762.029 191.705 761.92 192.159 761.92C192.612 761.92 193.025 762.024 193.399 762.232L193.311 763.08C193.108 762.941 192.916 762.835 192.735 762.76C192.559 762.685 192.372 762.648 192.175 762.648C192.004 762.648 191.871 762.683 191.775 762.752C191.684 762.821 191.639 762.92 191.639 763.048C191.639 763.149 191.665 763.232 191.719 763.296C191.777 763.36 191.857 763.419 191.959 763.472C192.06 763.52 192.228 763.589 192.463 763.68C192.852 763.829 193.132 763.995 193.303 764.176C193.473 764.352 193.559 764.589 193.559 764.888C193.559 765.267 193.423 765.56 193.151 765.768C192.879 765.976 192.492 766.08 191.991 766.08ZM195.373 766.08C195.117 766.08 194.883 766.056 194.669 766.008C194.461 765.96 194.245 765.885 194.021 765.784L194.109 764.936C194.333 765.069 194.541 765.171 194.733 765.24C194.931 765.304 195.133 765.336 195.341 765.336C195.747 765.336 195.949 765.203 195.949 764.936C195.949 764.792 195.896 764.683 195.789 764.608C195.683 764.528 195.491 764.435 195.213 764.328C194.819 764.184 194.528 764.021 194.341 763.84C194.155 763.653 194.061 763.403 194.061 763.088C194.061 762.741 194.195 762.461 194.461 762.248C194.728 762.029 195.088 761.92 195.541 761.92C195.995 761.92 196.408 762.024 196.781 762.232L196.693 763.08C196.491 762.941 196.299 762.835 196.117 762.76C195.941 762.685 195.755 762.648 195.557 762.648C195.387 762.648 195.253 762.683 195.157 762.752C195.067 762.821 195.021 762.92 195.021 763.048C195.021 763.149 195.048 763.232 195.101 763.296C195.16 763.36 195.24 763.419 195.341 763.472C195.443 763.52 195.611 763.589 195.845 763.68C196.235 763.829 196.515 763.995 196.685 764.176C196.856 764.352 196.941 764.589 196.941 764.888C196.941 765.267 196.805 765.56 196.533 765.768C196.261 765.976 195.875 766.08 195.373 766.08ZM199.548 766.08C199.084 766.08 198.687 765.987 198.356 765.8C198.031 765.608 197.786 765.355 197.62 765.04C197.46 764.72 197.38 764.365 197.38 763.976C197.38 763.603 197.458 763.261 197.612 762.952C197.767 762.643 197.991 762.397 198.284 762.216C198.578 762.029 198.927 761.936 199.332 761.936C199.706 761.936 200.02 762.013 200.276 762.168C200.538 762.323 200.732 762.531 200.86 762.792C200.994 763.053 201.06 763.347 201.06 763.672C201.06 763.832 201.039 764.013 200.996 764.216H198.412C198.466 764.568 198.604 764.832 198.828 765.008C199.052 765.179 199.322 765.264 199.636 765.264C200.068 765.264 200.468 765.155 200.836 764.936L200.884 765.776C200.714 765.867 200.514 765.941 200.284 766C200.06 766.053 199.815 766.08 199.548 766.08ZM200.052 763.544C200.052 763.336 199.994 763.152 199.876 762.992C199.759 762.832 199.578 762.752 199.332 762.752C199.087 762.752 198.89 762.824 198.74 762.968C198.591 763.112 198.49 763.304 198.436 763.544H200.052ZM203.041 766.08C202.689 766.08 202.423 765.979 202.241 765.776C202.06 765.568 201.969 765.32 201.969 765.032V762.816H201.401L201.489 762H201.969V761.12L202.961 761.016V762H203.841V762.816H202.961V764.624C202.961 764.837 202.972 764.987 202.993 765.072C203.02 765.152 203.071 765.205 203.145 765.232C203.225 765.253 203.367 765.264 203.569 765.264H203.841L203.753 766.08H203.041Z" fill="#AAAAAA"/>
<path d="M192.515 738.195C193.71 739.489 194.407 741.182 194.506 742.925H196C195.901 740.784 195.054 738.693 193.61 737.099L192.515 738.195Z" fill="#AAAAAA"/>
<path d="M179.866 750.144C181.509 751.787 183.7 752.783 186.041 752.883V751.389C184.397 751.289 182.804 750.692 181.559 749.646C181.011 749.845 180.464 749.995 179.866 750.144Z" fill="#AAAAAA"/>
<path d="M187.037 751.338V752.832C189.178 752.732 191.27 751.886 192.863 750.442L191.817 749.396C190.473 750.541 188.78 751.239 187.037 751.338Z" fill="#AAAAAA"/>
<path d="M192.515 748.701L193.56 749.746C195.004 748.153 195.851 746.062 195.95 743.92H194.457C194.357 745.663 193.66 747.356 192.515 748.701Z" fill="#AAAAAA"/>
<path d="M182.854 745.911C181.51 747.106 179.867 747.754 178.074 747.903V749.397C180.215 749.297 182.307 748.451 183.9 747.007L182.854 745.911Z" fill="#AAAAAA"/>
<path d="M186.987 739.438C186.887 737.297 186.04 735.205 184.596 733.612L183.551 734.658C184.746 736.002 185.393 737.645 185.543 739.438H186.987Z" fill="#AAAAAA"/>
<path d="M177.079 732.019V730.525C174.938 730.625 172.846 731.471 171.253 732.915L172.299 733.961C173.643 732.816 175.336 732.119 177.079 732.019Z" fill="#AAAAAA"/>
<path d="M178.074 732.019C179.817 732.119 181.51 732.816 182.854 734.011L183.9 732.965C182.307 731.471 180.215 730.625 178.074 730.525V732.019Z" fill="#AAAAAA"/>
<path d="M169.659 739.438C169.758 737.695 170.456 736.002 171.651 734.658L170.605 733.612C169.111 735.205 168.265 737.297 168.165 739.438H169.659Z" fill="#AAAAAA"/>
<path d="M192.863 736.403C191.12 734.809 188.879 733.963 186.539 733.963C186.439 733.963 186.29 733.963 186.141 733.963C186.489 734.461 186.788 734.959 186.987 735.457C188.73 735.556 190.423 736.253 191.767 737.448L192.863 736.403Z" fill="#AAAAAA"/>
<path d="M190.572 742.127L188.78 743.322C188.531 743.472 188.232 743.422 188.083 743.173L188.033 743.123L187.684 742.376C187.485 743.422 187.037 744.468 186.489 745.414H190.025C190.074 744.318 190.274 743.223 190.572 742.127Z" fill="#AAAAAA"/>
<path d="M184.597 746.261C186.041 744.668 186.888 742.577 186.988 740.436H185.494C185.394 742.178 184.697 743.871 183.502 745.216L184.597 746.261Z" fill="#AAAAAA"/>
<path d="M171.253 746.957C172.846 748.401 174.938 749.248 177.079 749.347V747.854C175.336 747.754 173.643 747.057 172.299 745.862L171.253 746.957Z" fill="#AAAAAA"/>
<path d="M179.418 739.939C179.268 739.889 179.169 739.789 179.119 739.64L177.575 736.204L176.032 739.64C175.932 739.889 175.633 739.988 175.384 739.889C175.335 739.889 175.335 739.839 175.335 739.839L173.542 738.644C173.891 739.69 174.04 740.785 174.09 741.93H181.061C181.111 740.835 181.31 739.739 181.609 738.644L179.816 739.839C179.716 739.939 179.567 739.939 179.418 739.939Z" fill="#AAAAAA"/>
<path d="M177.576 732.966C173.741 732.966 170.604 736.103 170.604 739.937C170.604 743.772 173.741 746.909 177.576 746.909C181.41 746.909 184.547 743.772 184.547 739.937C184.547 736.103 181.41 732.966 177.576 732.966Z" fill="#AAAAAA"/>
<path d="M169.659 740.436H168.165C168.265 742.577 169.111 744.668 170.555 746.261L171.601 745.216C170.456 743.871 169.758 742.178 169.659 740.436Z" fill="#AAAAAA"/>
<path d="M187.435 736.501C187.485 736.7 187.535 736.849 187.585 737.048C188.083 738.891 189.128 745.165 182.506 749.099C185.643 751.289 189.975 750.543 192.216 747.406C193.062 746.211 193.46 744.816 193.46 743.372C193.51 739.937 190.921 736.999 187.435 736.501Z" fill="#AAAAAA"/>
<rect x="120" y="799" width="135" height="5" rx="2.5" fill="#D6D9E4"/>
<path d="M16 113C16 107.477 20.4772 103 26 103H349C354.523 103 359 107.477 359 113V133C359 138.523 354.523 143 349 143H26C20.4772 143 16 138.523 16 133V113Z" fill="#44474C"/>
<path d="M16 164C16 158.477 20.4772 154 26 154H349C354.523 154 359 158.477 359 164V207H16V164Z" fill="#44474C"/>
<path d="M31.1528 176.2H32.9448V186H31.1528V176.2ZM33.0848 180.82L36.7108 176.2H38.8108L35.1568 180.82L38.8108 186H36.7108L33.0848 180.82ZM43.246 186.14C42.434 186.14 41.7386 185.977 41.16 185.65C40.5906 185.314 40.1613 184.871 39.872 184.32C39.592 183.76 39.452 183.139 39.452 182.458C39.452 181.805 39.5873 181.207 39.858 180.666C40.1286 180.125 40.5206 179.695 41.034 179.378C41.5473 179.051 42.1586 178.888 42.868 178.888C43.5213 178.888 44.072 179.023 44.52 179.294C44.9773 179.565 45.318 179.929 45.542 180.386C45.7753 180.843 45.892 181.357 45.892 181.926C45.892 182.206 45.8546 182.523 45.78 182.878H41.258C41.3513 183.494 41.594 183.956 41.986 184.264C42.378 184.563 42.8493 184.712 43.4 184.712C44.156 184.712 44.856 184.521 45.5 184.138L45.584 185.608C45.2853 185.767 44.9353 185.897 44.534 186C44.142 186.093 43.7126 186.14 43.246 186.14ZM44.128 181.702C44.128 181.338 44.0253 181.016 43.82 180.736C43.6146 180.456 43.2973 180.316 42.868 180.316C42.4386 180.316 42.0933 180.442 41.832 180.694C41.5706 180.946 41.3933 181.282 41.3 181.702H44.128ZM49.7953 185.538L46.8833 179H48.8153L50.6073 183.508L52.4273 179H54.3593L49.9773 189.388H48.2413L49.7953 185.538ZM57.8342 186.14C57.3862 186.14 56.9755 186.098 56.6022 186.014C56.2382 185.93 55.8602 185.799 55.4682 185.622L55.6222 184.138C56.0142 184.371 56.3782 184.549 56.7142 184.67C57.0595 184.782 57.4142 184.838 57.7782 184.838C58.4875 184.838 58.8422 184.605 58.8422 184.138C58.8422 183.886 58.7488 183.695 58.5622 183.564C58.3755 183.424 58.0395 183.261 57.5542 183.074C56.8635 182.822 56.3548 182.537 56.0282 182.22C55.7015 181.893 55.5382 181.455 55.5382 180.904C55.5382 180.297 55.7715 179.807 56.2382 179.434C56.7048 179.051 57.3348 178.86 58.1282 178.86C58.9215 178.86 59.6448 179.042 60.2982 179.406L60.1442 180.89C59.7895 180.647 59.4535 180.461 59.1362 180.33C58.8282 180.199 58.5015 180.134 58.1562 180.134C57.8575 180.134 57.6242 180.195 57.4562 180.316C57.2975 180.437 57.2182 180.61 57.2182 180.834C57.2182 181.011 57.2648 181.156 57.3582 181.268C57.4608 181.38 57.6008 181.483 57.7782 181.576C57.9555 181.66 58.2495 181.781 58.6602 181.94C59.3415 182.201 59.8315 182.491 60.1302 182.808C60.4288 183.116 60.5782 183.531 60.5782 184.054C60.5782 184.717 60.3402 185.23 59.8642 185.594C59.3882 185.958 58.7115 186.14 57.8342 186.14ZM64.7481 186.14C64.1321 186.14 63.6654 185.963 63.3481 185.608C63.0308 185.244 62.8721 184.81 62.8721 184.306V180.428H61.8781L62.0321 179H62.8721V177.46L64.6081 177.278V179H66.1481V180.428H64.6081V183.592C64.6081 183.965 64.6268 184.227 64.6641 184.376C64.7108 184.516 64.7994 184.609 64.9301 184.656C65.0701 184.693 65.3174 184.712 65.6721 184.712H66.1481L65.9941 186.14H64.7481ZM71.1566 186.14C70.4193 186.14 69.7799 185.977 69.2386 185.65C68.6973 185.323 68.2819 184.885 67.9926 184.334C67.7033 183.783 67.5586 183.177 67.5586 182.514C67.5586 181.851 67.7033 181.24 67.9926 180.68C68.2819 180.12 68.6973 179.677 69.2386 179.35C69.7799 179.023 70.4193 178.86 71.1566 178.86C71.8939 178.86 72.5333 179.023 73.0746 179.35C73.6159 179.677 74.0313 180.12 74.3206 180.68C74.6099 181.24 74.7546 181.851 74.7546 182.514C74.7546 183.177 74.6099 183.783 74.3206 184.334C74.0313 184.885 73.6159 185.323 73.0746 185.65C72.5333 185.977 71.8939 186.14 71.1566 186.14ZM71.1566 184.712C71.7259 184.712 72.1693 184.511 72.4866 184.11C72.8133 183.709 72.9766 183.177 72.9766 182.514C72.9766 181.842 72.8133 181.305 72.4866 180.904C72.1693 180.493 71.7259 180.288 71.1566 180.288C70.5873 180.288 70.1393 180.493 69.8126 180.904C69.4953 181.305 69.3366 181.842 69.3366 182.514C69.3366 183.177 69.4953 183.709 69.8126 184.11C70.1393 184.511 70.5873 184.712 71.1566 184.712ZM76.663 179H78.287L78.329 179.742C78.5343 179.509 78.7956 179.303 79.113 179.126C79.4396 178.949 79.7803 178.86 80.135 178.86C80.247 178.86 80.3496 178.869 80.443 178.888L80.317 180.596C80.1396 180.549 79.939 180.526 79.715 180.526C79.4256 180.526 79.1596 180.596 78.917 180.736C78.6743 180.867 78.5016 181.03 78.399 181.226V186H76.663V179ZM85.235 186.14C84.423 186.14 83.7277 185.977 83.149 185.65C82.5797 185.314 82.1504 184.871 81.861 184.32C81.581 183.76 81.441 183.139 81.441 182.458C81.441 181.805 81.5764 181.207 81.847 180.666C82.1177 180.125 82.5097 179.695 83.023 179.378C83.5364 179.051 84.1477 178.888 84.857 178.888C85.5104 178.888 86.061 179.023 86.509 179.294C86.9664 179.565 87.307 179.929 87.531 180.386C87.7644 180.843 87.881 181.357 87.881 181.926C87.881 182.206 87.8437 182.523 87.769 182.878H83.247C83.3404 183.494 83.583 183.956 83.975 184.264C84.367 184.563 84.8384 184.712 85.389 184.712C86.145 184.712 86.845 184.521 87.489 184.138L87.573 185.608C87.2744 185.767 86.9244 185.897 86.523 186C86.131 186.093 85.7017 186.14 85.235 186.14ZM86.117 181.702C86.117 181.338 86.0144 181.016 85.809 180.736C85.6037 180.456 85.2864 180.316 84.857 180.316C84.4277 180.316 84.0824 180.442 83.821 180.694C83.5597 180.946 83.3824 181.282 83.289 181.702H86.117ZM96.4386 176.2H98.1886L94.4366 187.19H92.6866L96.4386 176.2ZM108.87 180.638C110.112 181.039 110.732 181.898 110.732 183.214C110.732 184.091 110.448 184.777 109.878 185.272C109.309 185.757 108.53 186 107.54 186H103.452V176.2H107.148C109.015 176.2 109.948 176.989 109.948 178.566C109.948 179.537 109.589 180.227 108.87 180.638ZM105.244 180.05H106.882C107.321 180.05 107.648 179.961 107.862 179.784C108.077 179.597 108.184 179.313 108.184 178.93C108.184 178.529 108.077 178.239 107.862 178.062C107.648 177.885 107.321 177.796 106.882 177.796H105.244V180.05ZM107.274 184.404C107.797 184.404 108.194 184.301 108.464 184.096C108.744 183.881 108.884 183.522 108.884 183.018C108.884 182.523 108.74 182.173 108.45 181.968C108.17 181.753 107.778 181.646 107.274 181.646H105.244V184.404H107.274ZM112.916 176.2H114.708V186H112.916V176.2ZM117.567 176.2H121.053C123.377 176.2 124.539 177.255 124.539 179.364C124.539 180.456 124.245 181.268 123.657 181.8C123.069 182.332 122.215 182.598 121.095 182.598H119.359V186H117.567V176.2ZM120.885 181.1C121.501 181.1 121.959 180.96 122.257 180.68C122.565 180.4 122.719 179.971 122.719 179.392C122.719 178.813 122.565 178.389 122.257 178.118C121.949 177.838 121.478 177.698 120.843 177.698H119.359V181.1H120.885ZM130.499 180.82C131.04 180.997 131.465 181.291 131.773 181.702C132.09 182.113 132.249 182.617 132.249 183.214C132.249 184.157 131.932 184.889 131.297 185.412C130.672 185.935 129.827 186.196 128.763 186.196C128.222 186.196 127.708 186.135 127.223 186.014C126.747 185.893 126.341 185.743 126.005 185.566L126.439 184.054C127.242 184.455 128.016 184.656 128.763 184.656C129.286 184.656 129.696 184.535 129.995 184.292C130.303 184.049 130.457 183.69 130.457 183.214C130.457 182.225 129.855 181.73 128.651 181.73H127.657V180.05H128.637C129.141 180.05 129.524 179.938 129.785 179.714C130.056 179.481 130.191 179.154 130.191 178.734C130.191 178.37 130.065 178.081 129.813 177.866C129.57 177.651 129.22 177.544 128.763 177.544C128.39 177.544 128.026 177.6 127.671 177.712C127.326 177.824 126.966 177.987 126.593 178.202L126.327 176.62C127.111 176.209 127.984 176.004 128.945 176.004C129.878 176.004 130.602 176.237 131.115 176.704C131.638 177.161 131.899 177.763 131.899 178.51C131.899 179.042 131.778 179.509 131.535 179.91C131.292 180.302 130.947 180.605 130.499 180.82ZM139.964 180.666C140.431 180.918 140.795 181.263 141.056 181.702C141.317 182.141 141.448 182.635 141.448 183.186C141.448 183.774 141.308 184.297 141.028 184.754C140.748 185.211 140.347 185.566 139.824 185.818C139.301 186.07 138.695 186.196 138.004 186.196C137.304 186.196 136.693 186.07 136.17 185.818C135.657 185.566 135.26 185.211 134.98 184.754C134.7 184.297 134.56 183.774 134.56 183.186C134.56 182.626 134.691 182.131 134.952 181.702C135.223 181.263 135.596 180.918 136.072 180.666C135.736 180.433 135.475 180.143 135.288 179.798C135.101 179.443 135.008 179.061 135.008 178.65C135.008 178.193 135.115 177.763 135.33 177.362C135.545 176.961 135.876 176.634 136.324 176.382C136.772 176.13 137.332 176.004 138.004 176.004C138.676 176.004 139.231 176.13 139.67 176.382C140.109 176.634 140.431 176.961 140.636 177.362C140.841 177.763 140.944 178.193 140.944 178.65C140.944 179.07 140.86 179.453 140.692 179.798C140.524 180.143 140.281 180.433 139.964 180.666ZM138.004 177.404C137.556 177.404 137.206 177.521 136.954 177.754C136.702 177.978 136.576 178.281 136.576 178.664C136.576 179.028 136.702 179.331 136.954 179.574C137.215 179.817 137.565 179.938 138.004 179.938C138.443 179.938 138.779 179.817 139.012 179.574C139.255 179.331 139.376 179.028 139.376 178.664C139.376 178.281 139.255 177.978 139.012 177.754C138.779 177.521 138.443 177.404 138.004 177.404ZM138.004 184.656C138.564 184.656 139.003 184.516 139.32 184.236C139.637 183.947 139.796 183.559 139.796 183.074C139.796 182.617 139.633 182.243 139.306 181.954C138.989 181.665 138.555 181.52 138.004 181.52C137.453 181.52 137.015 181.665 136.688 181.954C136.371 182.243 136.212 182.617 136.212 183.074C136.212 183.559 136.371 183.947 136.688 184.236C137.005 184.516 137.444 184.656 138.004 184.656Z" fill="white"/>
<g filter="url(#filter1_d)">
<rect x="16" y="326" width="343" height="52" rx="10" fill="url(#paint4_linear)"/>
</g>
<path d="M163.092 358.252C161.82 358.252 160.692 357.982 159.708 357.442C158.736 356.902 157.98 356.14 157.44 355.156C156.9 354.16 156.63 353.008 156.63 351.7C156.63 350.404 156.906 349.264 157.458 348.28C158.022 347.284 158.796 346.516 159.78 345.976C160.776 345.424 161.904 345.148 163.164 345.148C164.376 345.148 165.462 345.394 166.422 345.886L166.17 348.082C165.654 347.854 165.156 347.68 164.676 347.56C164.208 347.428 163.698 347.362 163.146 347.362C161.862 347.362 160.872 347.758 160.176 348.55C159.492 349.342 159.15 350.392 159.15 351.7C159.15 353.008 159.486 354.058 160.158 354.85C160.842 355.642 161.82 356.038 163.092 356.038C163.656 356.038 164.172 355.978 164.64 355.858C165.12 355.738 165.63 355.558 166.17 355.318L166.422 357.514C165.378 358.006 164.268 358.252 163.092 358.252ZM171.923 358.18C170.975 358.18 170.153 357.97 169.457 357.55C168.761 357.13 168.227 356.566 167.855 355.858C167.483 355.15 167.297 354.37 167.297 353.518C167.297 352.666 167.483 351.88 167.855 351.16C168.227 350.44 168.761 349.87 169.457 349.45C170.153 349.03 170.975 348.82 171.923 348.82C172.871 348.82 173.693 349.03 174.389 349.45C175.085 349.87 175.619 350.44 175.991 351.16C176.363 351.88 176.549 352.666 176.549 353.518C176.549 354.37 176.363 355.15 175.991 355.858C175.619 356.566 175.085 357.13 174.389 357.55C173.693 357.97 172.871 358.18 171.923 358.18ZM171.923 356.344C172.655 356.344 173.225 356.086 173.633 355.57C174.053 355.054 174.263 354.37 174.263 353.518C174.263 352.654 174.053 351.964 173.633 351.448C173.225 350.92 172.655 350.656 171.923 350.656C171.191 350.656 170.615 350.92 170.195 351.448C169.787 351.964 169.583 352.654 169.583 353.518C169.583 354.37 169.787 355.054 170.195 355.57C170.615 356.086 171.191 356.344 171.923 356.344ZM182.639 348.856C183.755 348.856 184.601 349.228 185.177 349.972C185.753 350.716 186.041 351.718 186.041 352.978V358H183.809V353.158C183.809 352.318 183.665 351.7 183.377 351.304C183.101 350.896 182.651 350.692 182.027 350.692C181.343 350.692 180.779 350.95 180.335 351.466V358H178.103V349H180.191L180.227 349.63C180.983 349.114 181.787 348.856 182.639 348.856ZM188.486 350.836H187.208L187.406 349H188.486V347.092C188.486 346.288 188.72 345.658 189.188 345.202C189.668 344.734 190.346 344.5 191.222 344.5C191.714 344.5 192.2 344.554 192.68 344.662L192.482 346.462C192.278 346.402 192.044 346.372 191.78 346.372C191.072 346.372 190.718 346.744 190.718 347.488V349H192.698V350.836H190.718V358H188.486V350.836ZM194.064 345.4H196.296V347.632H194.064V345.4ZM194.064 349H196.296V358H194.064V349ZM198.388 349H200.476L200.53 349.954C200.794 349.654 201.13 349.39 201.538 349.162C201.958 348.934 202.396 348.82 202.852 348.82C202.996 348.82 203.128 348.832 203.248 348.856L203.086 351.052C202.858 350.992 202.6 350.962 202.312 350.962C201.94 350.962 201.598 351.052 201.286 351.232C200.974 351.4 200.752 351.61 200.62 351.862V358H198.388V349ZM214.427 348.856C215.627 348.856 216.515 349.222 217.091 349.954C217.679 350.674 217.973 351.688 217.973 352.996V358H215.741V353.158C215.741 352.306 215.609 351.682 215.345 351.286C215.081 350.89 214.649 350.692 214.049 350.692C213.461 350.692 213.017 350.896 212.717 351.304C212.417 351.7 212.267 352.264 212.267 352.996V358H210.035V353.158C210.035 352.306 209.897 351.682 209.621 351.286C209.345 350.89 208.907 350.692 208.307 350.692C207.599 350.692 207.017 350.95 206.561 351.466V358H204.329V349H206.237L206.309 349.72C207.125 349.144 208.007 348.856 208.955 348.856C210.107 348.856 210.965 349.27 211.529 350.098C211.841 349.702 212.249 349.396 212.753 349.18C213.257 348.964 213.815 348.856 214.427 348.856Z" fill="white"/>
<path d="M16 207H359V306C359 311.523 354.523 316 349 316H26C20.4772 316 16 311.523 16 306V207Z" fill="#52565C"/>
<rect x="29.9688" y="220.334" width="314.985" height="28.9536" rx="5.5" transform="rotate(-0.127425 29.9688 220.334)" fill="white" fill-opacity="0.1"/>
<rect x="30" y="267" width="315" height="29" rx="5.5" fill="white" fill-opacity="0.1"/>
<path d="M45.4904 232H47.8004C48.5471 232 49.1271 232.183 49.5404 232.55C49.9604 232.91 50.1704 233.483 50.1704 234.27C50.1704 235.043 49.9604 235.617 49.5404 235.99C49.1204 236.363 48.5404 236.55 47.8004 236.55H46.4904V239H45.4904V232ZM47.6604 235.7C48.1738 235.7 48.5571 235.583 48.8104 235.35C49.0638 235.117 49.1904 234.76 49.1904 234.28C49.1904 233.793 49.0671 233.433 48.8204 233.2C48.5804 232.967 48.1938 232.85 47.6604 232.85H46.4904V235.7H47.6604ZM52.7343 239.1C52.2943 239.1 51.9709 238.987 51.7643 238.76C51.5643 238.533 51.4643 238.253 51.4643 237.92V231.5H52.3643V237.4C52.3643 237.693 52.3809 237.907 52.4143 238.04C52.4543 238.173 52.5276 238.263 52.6343 238.31C52.7409 238.357 52.9143 238.38 53.1543 238.38L53.0243 239.1H52.7343ZM56.6387 239.1C56.0787 239.1 55.5987 238.987 55.1987 238.76C54.8054 238.527 54.5054 238.213 54.2987 237.82C54.092 237.427 53.9887 236.99 53.9887 236.51C53.9887 236.05 54.082 235.63 54.2687 235.25C54.462 234.863 54.7387 234.56 55.0987 234.34C55.4654 234.113 55.8954 234 56.3887 234C57.0154 234 57.522 234.183 57.9087 234.55C58.302 234.917 58.4987 235.423 58.4987 236.07C58.4987 236.237 58.4854 236.397 58.4587 236.55H54.9087C54.9687 237.183 55.162 237.633 55.4887 237.9C55.8154 238.167 56.2354 238.3 56.7487 238.3C57.262 238.3 57.732 238.203 58.1587 238.01L58.2787 238.72C57.712 238.973 57.1654 239.1 56.6387 239.1ZM57.5687 235.93C57.5687 235.577 57.4687 235.3 57.2687 235.1C57.0687 234.9 56.7687 234.8 56.3687 234.8C55.982 234.8 55.6787 234.897 55.4587 235.09C55.2387 235.277 55.082 235.557 54.9887 235.93H57.5687ZM61.0459 239.1C60.5926 239.1 60.2259 238.967 59.9459 238.7C59.6726 238.433 59.5359 238.093 59.5359 237.68C59.5359 237.06 59.8292 236.617 60.4159 236.35C61.0026 236.083 61.6859 235.943 62.4659 235.93C62.4659 235.49 62.3792 235.193 62.2059 235.04C62.0392 234.88 61.7692 234.8 61.3959 234.8C61.1892 234.8 60.9826 234.833 60.7759 234.9C60.5692 234.96 60.3459 235.073 60.1059 235.24L59.9759 234.51C60.1759 234.357 60.4226 234.233 60.7159 234.14C61.0092 234.047 61.3159 234 61.6359 234C62.0559 234 62.3892 234.073 62.6359 234.22C62.8892 234.367 63.0726 234.61 63.1859 234.95C63.3059 235.29 63.3659 235.757 63.3659 236.35V237.35C63.3659 237.617 63.3759 237.82 63.3959 237.96C63.4226 238.093 63.4759 238.197 63.5559 238.27C63.6359 238.343 63.7592 238.38 63.9259 238.38H64.0159L63.8759 239.1H63.8059C63.5259 239.1 63.3059 239.073 63.1459 239.02C62.9859 238.967 62.8626 238.89 62.7759 238.79C62.6959 238.69 62.6192 238.553 62.5459 238.38C62.1326 238.86 61.6326 239.1 61.0459 239.1ZM61.2159 238.38C61.4559 238.38 61.6859 238.32 61.9059 238.2C62.1326 238.08 62.3192 237.92 62.4659 237.72V236.55C61.7459 236.577 61.2292 236.673 60.9159 236.84C60.6092 237 60.4559 237.263 60.4559 237.63C60.4559 237.883 60.5226 238.073 60.6559 238.2C60.7959 238.32 60.9826 238.38 61.2159 238.38ZM66.6006 239.1C66.2139 239.1 65.8739 239.057 65.5806 238.97C65.2939 238.877 65.0739 238.777 64.9206 238.67L65.0306 237.8C65.1639 237.92 65.3673 238.033 65.6406 238.14C65.9206 238.247 66.2273 238.3 66.5606 238.3C66.8739 238.3 67.1139 238.247 67.2806 238.14C67.4539 238.033 67.5406 237.883 67.5406 237.69C67.5406 237.463 67.4473 237.293 67.2606 237.18C67.0739 237.06 66.8406 236.96 66.5606 236.88C66.2539 236.8 65.9939 236.717 65.7806 236.63C65.5739 236.537 65.3939 236.397 65.2406 236.21C65.0939 236.023 65.0206 235.777 65.0206 235.47C65.0206 235.05 65.1706 234.7 65.4706 234.42C65.7706 234.14 66.2339 234 66.8606 234C67.1473 234 67.3906 234.03 67.5906 234.09C67.7906 234.143 67.9906 234.22 68.1906 234.32L68.0806 235.14C67.9206 235.007 67.7439 234.903 67.5506 234.83C67.3573 234.75 67.1339 234.71 66.8806 234.71C66.5873 234.71 66.3539 234.767 66.1806 234.88C66.0139 234.987 65.9306 235.15 65.9306 235.37C65.9306 235.517 65.9706 235.637 66.0506 235.73C66.1306 235.817 66.2439 235.89 66.3906 235.95C66.5373 236.01 66.7639 236.087 67.0706 236.18C67.4506 236.293 67.7773 236.453 68.0506 236.66C68.3306 236.867 68.4706 237.193 68.4706 237.64C68.4706 238.04 68.3273 238.383 68.0406 238.67C67.7606 238.957 67.2806 239.1 66.6006 239.1ZM72.2012 239.1C71.6412 239.1 71.1612 238.987 70.7612 238.76C70.3679 238.527 70.0679 238.213 69.8612 237.82C69.6545 237.427 69.5512 236.99 69.5512 236.51C69.5512 236.05 69.6445 235.63 69.8312 235.25C70.0245 234.863 70.3012 234.56 70.6612 234.34C71.0279 234.113 71.4579 234 71.9512 234C72.5779 234 73.0845 234.183 73.4712 234.55C73.8645 234.917 74.0612 235.423 74.0612 236.07C74.0612 236.237 74.0479 236.397 74.0212 236.55H70.4712C70.5312 237.183 70.7245 237.633 71.0512 237.9C71.3779 238.167 71.7979 238.3 72.3112 238.3C72.8245 238.3 73.2945 238.203 73.7212 238.01L73.8412 238.72C73.2745 238.973 72.7279 239.1 72.2012 239.1ZM73.1312 235.93C73.1312 235.577 73.0312 235.3 72.8312 235.1C72.6312 234.9 72.3312 234.8 71.9312 234.8C71.5445 234.8 71.2412 234.897 71.0212 235.09C70.8012 235.277 70.6445 235.557 70.5512 235.93H73.1312ZM80.5645 239.1C80.0045 239.1 79.5245 238.987 79.1245 238.76C78.7312 238.527 78.4312 238.213 78.2245 237.82C78.0178 237.427 77.9145 236.99 77.9145 236.51C77.9145 236.05 78.0078 235.63 78.1945 235.25C78.3878 234.863 78.6645 234.56 79.0245 234.34C79.3912 234.113 79.8212 234 80.3145 234C80.9412 234 81.4478 234.183 81.8345 234.55C82.2278 234.917 82.4245 235.423 82.4245 236.07C82.4245 236.237 82.4112 236.397 82.3845 236.55H78.8345C78.8945 237.183 79.0878 237.633 79.4145 237.9C79.7412 238.167 80.1612 238.3 80.6745 238.3C81.1878 238.3 81.6578 238.203 82.0845 238.01L82.2045 238.72C81.6378 238.973 81.0912 239.1 80.5645 239.1ZM81.4945 235.93C81.4945 235.577 81.3945 235.3 81.1945 235.1C80.9945 234.9 80.6945 234.8 80.2945 234.8C79.9078 234.8 79.6045 234.897 79.3845 235.09C79.1645 235.277 79.0078 235.557 78.9145 235.93H81.4945ZM86.2517 234C87.585 234 88.2517 234.767 88.2517 236.3V239H87.3517V236.3C87.3517 235.773 87.2517 235.393 87.0517 235.16C86.8583 234.92 86.5317 234.8 86.0717 234.8C85.7783 234.8 85.5117 234.853 85.2717 234.96C85.0317 235.067 84.8517 235.227 84.7317 235.44V239H83.8317V234.1H84.5317L84.6317 234.62C84.8917 234.387 85.1517 234.227 85.4117 234.14C85.6783 234.047 85.9583 234 86.2517 234ZM91.5295 239.1C91.0962 239.1 90.7728 238.987 90.5595 238.76C90.3528 238.533 90.2495 238.257 90.2495 237.93V234.8H89.4095L89.4895 234.1H90.2495V232.89L91.1495 232.8V234.1H92.4395V234.8H91.1495V237.38C91.1495 237.72 91.1695 237.953 91.2095 238.08C91.2495 238.207 91.3328 238.29 91.4595 238.33C91.5928 238.363 91.8328 238.38 92.1795 238.38H92.4095L92.3395 239.1H91.5295ZM96.0196 239.1C95.4596 239.1 94.9796 238.987 94.5796 238.76C94.1862 238.527 93.8862 238.213 93.6796 237.82C93.4729 237.427 93.3696 236.99 93.3696 236.51C93.3696 236.05 93.4629 235.63 93.6496 235.25C93.8429 234.863 94.1196 234.56 94.4796 234.34C94.8462 234.113 95.2762 234 95.7696 234C96.3962 234 96.9029 234.183 97.2896 234.55C97.6829 234.917 97.8796 235.423 97.8796 236.07C97.8796 236.237 97.8662 236.397 97.8396 236.55H94.2896C94.3496 237.183 94.5429 237.633 94.8696 237.9C95.1962 238.167 95.6162 238.3 96.1296 238.3C96.6429 238.3 97.1129 238.203 97.5396 238.01L97.6596 238.72C97.0929 238.973 96.5462 239.1 96.0196 239.1ZM96.9496 235.93C96.9496 235.577 96.8496 235.3 96.6496 235.1C96.4496 234.9 96.1496 234.8 95.7496 234.8C95.3629 234.8 95.0596 234.897 94.8396 235.09C94.6196 235.277 94.4629 235.557 94.3696 235.93H96.9496ZM99.2868 234.1H100.027L100.137 234.91C100.39 234.597 100.63 234.367 100.857 234.22C101.09 234.073 101.333 234 101.587 234C101.667 234 101.743 234.01 101.817 234.03L101.727 235.02C101.64 235 101.54 234.99 101.427 234.99C101.18 234.99 100.947 235.047 100.727 235.16C100.507 235.267 100.347 235.393 100.247 235.54V239H99.2868V234.1ZM106.747 232L106.387 233.07H106.737V234.13H105.657V233.17L106.177 232H106.747ZM108.347 232L107.987 233.07H108.337V234.13H107.257V233.17L107.777 232H108.347ZM109.951 232H112.261C113.008 232 113.588 232.183 114.001 232.55C114.421 232.91 114.631 233.483 114.631 234.27C114.631 235.043 114.421 235.617 114.001 235.99C113.581 236.363 113.001 236.55 112.261 236.55H110.951V239H109.951V232ZM112.121 235.7C112.635 235.7 113.018 235.583 113.271 235.35C113.525 235.117 113.651 234.76 113.651 234.28C113.651 233.793 113.528 233.433 113.281 233.2C113.041 232.967 112.655 232.85 112.121 232.85H110.951V235.7H112.121ZM115.906 234.1H116.646L116.756 234.91C117.009 234.597 117.249 234.367 117.476 234.22C117.709 234.073 117.953 234 118.206 234C118.286 234 118.363 234.01 118.436 234.03L118.346 235.02C118.259 235 118.159 234.99 118.046 234.99C117.799 234.99 117.566 235.047 117.346 235.16C117.126 235.267 116.966 235.393 116.866 235.54V239H115.906V234.1ZM119.57 232H120.47V233H119.57V232ZM119.57 234.1H120.47V239H119.57V234.1ZM121.669 234.1H122.669L124.039 238.01L125.399 234.1H126.409L124.549 239H123.539L121.669 234.1ZM128.692 239.1C128.239 239.1 127.872 238.967 127.592 238.7C127.319 238.433 127.182 238.093 127.182 237.68C127.182 237.06 127.476 236.617 128.062 236.35C128.649 236.083 129.332 235.943 130.112 235.93C130.112 235.49 130.026 235.193 129.852 235.04C129.686 234.88 129.416 234.8 129.042 234.8C128.836 234.8 128.629 234.833 128.422 234.9C128.216 234.96 127.992 235.073 127.752 235.24L127.622 234.51C127.822 234.357 128.069 234.233 128.362 234.14C128.656 234.047 128.962 234 129.282 234C129.702 234 130.036 234.073 130.282 234.22C130.536 234.367 130.719 234.61 130.832 234.95C130.952 235.29 131.012 235.757 131.012 236.35V237.35C131.012 237.617 131.022 237.82 131.042 237.96C131.069 238.093 131.122 238.197 131.202 238.27C131.282 238.343 131.406 238.38 131.572 238.38H131.662L131.522 239.1H131.452C131.172 239.1 130.952 239.073 130.792 239.02C130.632 238.967 130.509 238.89 130.422 238.79C130.342 238.69 130.266 238.553 130.192 238.38C129.779 238.86 129.279 239.1 128.692 239.1ZM128.862 238.38C129.102 238.38 129.332 238.32 129.552 238.2C129.779 238.08 129.966 237.92 130.112 237.72V236.55C129.392 236.577 128.876 236.673 128.562 236.84C128.256 237 128.102 237.263 128.102 237.63C128.102 237.883 128.169 238.073 128.302 238.2C128.442 238.32 128.629 238.38 128.862 238.38ZM134.449 239.1C134.016 239.1 133.693 238.987 133.479 238.76C133.273 238.533 133.169 238.257 133.169 237.93V234.8H132.329L132.409 234.1H133.169V232.89L134.069 232.8V234.1H135.359V234.8H134.069V237.38C134.069 237.72 134.089 237.953 134.129 238.08C134.169 238.207 134.253 238.29 134.379 238.33C134.513 238.363 134.753 238.38 135.099 238.38H135.329L135.259 239.1H134.449ZM138.939 239.1C138.379 239.1 137.899 238.987 137.499 238.76C137.106 238.527 136.806 238.213 136.599 237.82C136.393 237.427 136.289 236.99 136.289 236.51C136.289 236.05 136.383 235.63 136.569 235.25C136.763 234.863 137.039 234.56 137.399 234.34C137.766 234.113 138.196 234 138.689 234C139.316 234 139.823 234.183 140.209 234.55C140.603 234.917 140.799 235.423 140.799 236.07C140.799 236.237 140.786 236.397 140.759 236.55H137.209C137.269 237.183 137.463 237.633 137.789 237.9C138.116 238.167 138.536 238.3 139.049 238.3C139.563 238.3 140.033 238.203 140.459 238.01L140.579 238.72C140.013 238.973 139.466 239.1 138.939 239.1ZM139.869 235.93C139.869 235.577 139.769 235.3 139.569 235.1C139.369 234.9 139.069 234.8 138.669 234.8C138.283 234.8 137.979 234.897 137.759 235.09C137.539 235.277 137.383 235.557 137.289 235.93H139.869ZM145.143 232H146.093V239H145.143V232ZM146.193 235.29L148.783 232H149.933L147.273 235.27L149.963 239H148.783L146.193 235.29ZM153.125 239.1C152.565 239.1 152.085 238.987 151.685 238.76C151.292 238.527 150.992 238.213 150.785 237.82C150.578 237.427 150.475 236.99 150.475 236.51C150.475 236.05 150.568 235.63 150.755 235.25C150.948 234.863 151.225 234.56 151.585 234.34C151.952 234.113 152.382 234 152.875 234C153.502 234 154.008 234.183 154.395 234.55C154.788 234.917 154.985 235.423 154.985 236.07C154.985 236.237 154.972 236.397 154.945 236.55H151.395C151.455 237.183 151.648 237.633 151.975 237.9C152.302 238.167 152.722 238.3 153.235 238.3C153.748 238.3 154.218 238.203 154.645 238.01L154.765 238.72C154.198 238.973 153.652 239.1 153.125 239.1ZM154.055 235.93C154.055 235.577 153.955 235.3 153.755 235.1C153.555 234.9 153.255 234.8 152.855 234.8C152.468 234.8 152.165 234.897 151.945 235.09C151.725 235.277 151.568 235.557 151.475 235.93H154.055ZM157.843 238.78L155.803 234.1H156.803L158.333 237.74L159.713 234.1H160.713L157.713 241.42H156.713L157.843 238.78ZM166.608 232H167.558L164.878 239.85H163.928L166.608 232ZM172.927 235.47L170.587 232H171.687L173.477 234.65L175.257 232H176.357L174.027 235.47L176.397 239H175.297L173.477 236.29L171.647 239H170.547L172.927 235.47ZM177.735 232H180.045C180.791 232 181.371 232.183 181.785 232.55C182.205 232.91 182.415 233.483 182.415 234.27C182.415 235.043 182.205 235.617 181.785 235.99C181.365 236.363 180.785 236.55 180.045 236.55H178.735V239H177.735V232ZM179.905 235.7C180.418 235.7 180.801 235.583 181.055 235.35C181.308 235.117 181.435 234.76 181.435 234.28C181.435 233.793 181.311 233.433 181.065 233.2C180.825 232.967 180.438 232.85 179.905 232.85H178.735V235.7H179.905ZM183.957 232H186.227C186.987 232 187.581 232.177 188.007 232.53C188.434 232.877 188.647 233.41 188.647 234.13C188.647 235.063 188.241 235.72 187.427 236.1L188.997 239H187.837L186.417 236.27H186.367H184.957V239H183.957V232ZM186.217 235.42C186.684 235.42 187.041 235.307 187.287 235.08C187.534 234.853 187.657 234.537 187.657 234.13C187.657 233.723 187.534 233.41 187.287 233.19C187.047 232.963 186.691 232.85 186.217 232.85H184.957V235.42H186.217ZM195.694 232L193.184 239H192.184L189.674 232H190.674L192.684 237.67L194.694 232H195.694ZM201.563 232H202.513L199.833 239.85H198.883L201.563 232ZM205.502 232H206.502L207.982 237.77L209.692 232.14H210.692L212.402 237.77L213.882 232H214.882L212.902 239H211.892L210.192 233.37L208.492 239H207.482L205.502 232ZM216.225 232H217.175V239H216.225V232ZM219.274 232H223.544V232.86H220.224V234.91H222.784V235.77H220.224V239H219.274V232ZM224.508 234.13L224.868 233.06H224.518V232H225.598V232.96L225.078 234.13H224.508ZM226.108 234.13L226.468 233.06H226.118V232H227.198V232.96L226.678 234.13H226.108ZM227.229 237.94H228.309V239H227.229V237.94Z" fill="#969696" fill-opacity="0.7"/>
<path d="M45.0432 278H47.3532C48.0998 278 48.6798 278.183 49.0932 278.55C49.5132 278.91 49.7232 279.483 49.7232 280.27C49.7232 281.043 49.5132 281.617 49.0932 281.99C48.6732 282.363 48.0932 282.55 47.3532 282.55H46.0432V285H45.0432V278ZM47.2132 281.7C47.7265 281.7 48.1098 281.583 48.3632 281.35C48.6165 281.117 48.7432 280.76 48.7432 280.28C48.7432 279.793 48.6198 279.433 48.3732 279.2C48.1332 278.967 47.7465 278.85 47.2132 278.85H46.0432V281.7H47.2132ZM52.287 285.1C51.847 285.1 51.5237 284.987 51.317 284.76C51.117 284.533 51.017 284.253 51.017 283.92V277.5H51.917V283.4C51.917 283.693 51.9337 283.907 51.967 284.04C52.007 284.173 52.0803 284.263 52.187 284.31C52.2937 284.357 52.467 284.38 52.707 284.38L52.577 285.1H52.287ZM56.1914 285.1C55.6314 285.1 55.1514 284.987 54.7514 284.76C54.3581 284.527 54.0581 284.213 53.8514 283.82C53.6448 283.427 53.5414 282.99 53.5414 282.51C53.5414 282.05 53.6348 281.63 53.8214 281.25C54.0148 280.863 54.2914 280.56 54.6514 280.34C55.0181 280.113 55.4481 280 55.9414 280C56.5681 280 57.0748 280.183 57.4614 280.55C57.8548 280.917 58.0514 281.423 58.0514 282.07C58.0514 282.237 58.0381 282.397 58.0114 282.55H54.4614C54.5214 283.183 54.7148 283.633 55.0414 283.9C55.3681 284.167 55.7881 284.3 56.3014 284.3C56.8148 284.3 57.2848 284.203 57.7114 284.01L57.8314 284.72C57.2648 284.973 56.7181 285.1 56.1914 285.1ZM57.1214 281.93C57.1214 281.577 57.0214 281.3 56.8214 281.1C56.6214 280.9 56.3214 280.8 55.9214 280.8C55.5348 280.8 55.2314 280.897 55.0114 281.09C54.7914 281.277 54.6348 281.557 54.5414 281.93H57.1214ZM60.5986 285.1C60.1453 285.1 59.7786 284.967 59.4986 284.7C59.2253 284.433 59.0886 284.093 59.0886 283.68C59.0886 283.06 59.382 282.617 59.9686 282.35C60.5553 282.083 61.2386 281.943 62.0186 281.93C62.0186 281.49 61.932 281.193 61.7586 281.04C61.592 280.88 61.322 280.8 60.9486 280.8C60.742 280.8 60.5353 280.833 60.3286 280.9C60.122 280.96 59.8986 281.073 59.6586 281.24L59.5286 280.51C59.7286 280.357 59.9753 280.233 60.2686 280.14C60.562 280.047 60.8686 280 61.1886 280C61.6086 280 61.942 280.073 62.1886 280.22C62.442 280.367 62.6253 280.61 62.7386 280.95C62.8586 281.29 62.9186 281.757 62.9186 282.35V283.35C62.9186 283.617 62.9286 283.82 62.9486 283.96C62.9753 284.093 63.0286 284.197 63.1086 284.27C63.1886 284.343 63.312 284.38 63.4786 284.38H63.5686L63.4286 285.1H63.3586C63.0786 285.1 62.8586 285.073 62.6986 285.02C62.5386 284.967 62.4153 284.89 62.3286 284.79C62.2486 284.69 62.172 284.553 62.0986 284.38C61.6853 284.86 61.1853 285.1 60.5986 285.1ZM60.7686 284.38C61.0086 284.38 61.2386 284.32 61.4586 284.2C61.6853 284.08 61.872 283.92 62.0186 283.72V282.55C61.2986 282.577 60.782 282.673 60.4686 282.84C60.162 283 60.0086 283.263 60.0086 283.63C60.0086 283.883 60.0753 284.073 60.2086 284.2C60.3486 284.32 60.5353 284.38 60.7686 284.38ZM66.1533 285.1C65.7667 285.1 65.4267 285.057 65.1333 284.97C64.8467 284.877 64.6267 284.777 64.4733 284.67L64.5833 283.8C64.7167 283.92 64.92 284.033 65.1933 284.14C65.4733 284.247 65.78 284.3 66.1133 284.3C66.4267 284.3 66.6667 284.247 66.8333 284.14C67.0067 284.033 67.0933 283.883 67.0933 283.69C67.0933 283.463 67 283.293 66.8133 283.18C66.6267 283.06 66.3933 282.96 66.1133 282.88C65.8067 282.8 65.5467 282.717 65.3333 282.63C65.1267 282.537 64.9467 282.397 64.7933 282.21C64.6467 282.023 64.5733 281.777 64.5733 281.47C64.5733 281.05 64.7233 280.7 65.0233 280.42C65.3233 280.14 65.7867 280 66.4133 280C66.7 280 66.9433 280.03 67.1433 280.09C67.3433 280.143 67.5433 280.22 67.7433 280.32L67.6333 281.14C67.4733 281.007 67.2967 280.903 67.1033 280.83C66.91 280.75 66.6867 280.71 66.4333 280.71C66.14 280.71 65.9067 280.767 65.7333 280.88C65.5667 280.987 65.4833 281.15 65.4833 281.37C65.4833 281.517 65.5233 281.637 65.6033 281.73C65.6833 281.817 65.7967 281.89 65.9433 281.95C66.09 282.01 66.3167 282.087 66.6233 282.18C67.0033 282.293 67.33 282.453 67.6033 282.66C67.8833 282.867 68.0233 283.193 68.0233 283.64C68.0233 284.04 67.88 284.383 67.5933 284.67C67.3133 284.957 66.8333 285.1 66.1533 285.1ZM71.7539 285.1C71.1939 285.1 70.7139 284.987 70.3139 284.76C69.9206 284.527 69.6206 284.213 69.4139 283.82C69.2073 283.427 69.1039 282.99 69.1039 282.51C69.1039 282.05 69.1973 281.63 69.3839 281.25C69.5773 280.863 69.8539 280.56 70.2139 280.34C70.5806 280.113 71.0106 280 71.5039 280C72.1306 280 72.6373 280.183 73.0239 280.55C73.4173 280.917 73.6139 281.423 73.6139 282.07C73.6139 282.237 73.6006 282.397 73.5739 282.55H70.0239C70.0839 283.183 70.2773 283.633 70.6039 283.9C70.9306 284.167 71.3506 284.3 71.8639 284.3C72.3773 284.3 72.8473 284.203 73.2739 284.01L73.3939 284.72C72.8273 284.973 72.2806 285.1 71.7539 285.1ZM72.6839 281.93C72.6839 281.577 72.5839 281.3 72.3839 281.1C72.1839 280.9 71.8839 280.8 71.4839 280.8C71.0973 280.8 70.7939 280.897 70.5739 281.09C70.3539 281.277 70.1973 281.557 70.1039 281.93H72.6839ZM80.1172 285.1C79.5572 285.1 79.0772 284.987 78.6772 284.76C78.2839 284.527 77.9839 284.213 77.7772 283.82C77.5706 283.427 77.4672 282.99 77.4672 282.51C77.4672 282.05 77.5606 281.63 77.7472 281.25C77.9406 280.863 78.2172 280.56 78.5772 280.34C78.9439 280.113 79.3739 280 79.8672 280C80.4939 280 81.0006 280.183 81.3872 280.55C81.7806 280.917 81.9772 281.423 81.9772 282.07C81.9772 282.237 81.9639 282.397 81.9372 282.55H78.3872C78.4472 283.183 78.6406 283.633 78.9672 283.9C79.2939 284.167 79.7139 284.3 80.2272 284.3C80.7406 284.3 81.2106 284.203 81.6372 284.01L81.7572 284.72C81.1906 284.973 80.6439 285.1 80.1172 285.1ZM81.0472 281.93C81.0472 281.577 80.9472 281.3 80.7472 281.1C80.5472 280.9 80.2472 280.8 79.8472 280.8C79.4606 280.8 79.1572 280.897 78.9372 281.09C78.7172 281.277 78.5606 281.557 78.4672 281.93H81.0472ZM85.8044 280C87.1377 280 87.8044 280.767 87.8044 282.3V285H86.9044V282.3C86.9044 281.773 86.8044 281.393 86.6044 281.16C86.4111 280.92 86.0844 280.8 85.6244 280.8C85.3311 280.8 85.0644 280.853 84.8244 280.96C84.5844 281.067 84.4044 281.227 84.2844 281.44V285H83.3844V280.1H84.0844L84.1844 280.62C84.4444 280.387 84.7044 280.227 84.9644 280.14C85.2311 280.047 85.5111 280 85.8044 280ZM91.0822 285.1C90.6489 285.1 90.3256 284.987 90.1122 284.76C89.9056 284.533 89.8022 284.257 89.8022 283.93V280.8H88.9622L89.0422 280.1H89.8022V278.89L90.7022 278.8V280.1H91.9922V280.8H90.7022V283.38C90.7022 283.72 90.7222 283.953 90.7622 284.08C90.8022 284.207 90.8856 284.29 91.0122 284.33C91.1456 284.363 91.3856 284.38 91.7322 284.38H91.9622L91.8922 285.1H91.0822ZM95.5723 285.1C95.0123 285.1 94.5323 284.987 94.1323 284.76C93.739 284.527 93.439 284.213 93.2323 283.82C93.0256 283.427 92.9223 282.99 92.9223 282.51C92.9223 282.05 93.0156 281.63 93.2023 281.25C93.3956 280.863 93.6723 280.56 94.0323 280.34C94.399 280.113 94.829 280 95.3223 280C95.949 280 96.4556 280.183 96.8423 280.55C97.2356 280.917 97.4323 281.423 97.4323 282.07C97.4323 282.237 97.419 282.397 97.3923 282.55H93.8423C93.9023 283.183 94.0956 283.633 94.4223 283.9C94.749 284.167 95.169 284.3 95.6823 284.3C96.1956 284.3 96.6656 284.203 97.0923 284.01L97.2123 284.72C96.6456 284.973 96.099 285.1 95.5723 285.1ZM96.5023 281.93C96.5023 281.577 96.4023 281.3 96.2023 281.1C96.0023 280.9 95.7023 280.8 95.3023 280.8C94.9156 280.8 94.6123 280.897 94.3923 281.09C94.1723 281.277 94.0156 281.557 93.9223 281.93H96.5023ZM98.8395 280.1H99.5795L99.6895 280.91C99.9428 280.597 100.183 280.367 100.409 280.22C100.643 280.073 100.886 280 101.139 280C101.219 280 101.296 280.01 101.369 280.03L101.279 281.02C101.193 281 101.093 280.99 100.979 280.99C100.733 280.99 100.499 281.047 100.279 281.16C100.059 281.267 99.8995 281.393 99.7995 281.54V285H98.8395V280.1ZM106.3 278L105.94 279.07H106.29V280.13H105.21V279.17L105.73 278H106.3ZM107.9 278L107.54 279.07H107.89V280.13H106.81V279.17L107.33 278H107.9ZM109.504 278H111.814C112.561 278 113.141 278.183 113.554 278.55C113.974 278.91 114.184 279.483 114.184 280.27C114.184 281.043 113.974 281.617 113.554 281.99C113.134 282.363 112.554 282.55 111.814 282.55H110.504V285H109.504V278ZM111.674 281.7C112.187 281.7 112.571 281.583 112.824 281.35C113.077 281.117 113.204 280.76 113.204 280.28C113.204 279.793 113.081 279.433 112.834 279.2C112.594 278.967 112.207 278.85 111.674 278.85H110.504V281.7H111.674ZM116.54 285.1C116.087 285.1 115.72 284.967 115.44 284.7C115.167 284.433 115.03 284.093 115.03 283.68C115.03 283.06 115.323 282.617 115.91 282.35C116.497 282.083 117.18 281.943 117.96 281.93C117.96 281.49 117.873 281.193 117.7 281.04C117.533 280.88 117.263 280.8 116.89 280.8C116.683 280.8 116.477 280.833 116.27 280.9C116.063 280.96 115.84 281.073 115.6 281.24L115.47 280.51C115.67 280.357 115.917 280.233 116.21 280.14C116.503 280.047 116.81 280 117.13 280C117.55 280 117.883 280.073 118.13 280.22C118.383 280.367 118.567 280.61 118.68 280.95C118.8 281.29 118.86 281.757 118.86 282.35V283.35C118.86 283.617 118.87 283.82 118.89 283.96C118.917 284.093 118.97 284.197 119.05 284.27C119.13 284.343 119.253 284.38 119.42 284.38H119.51L119.37 285.1H119.3C119.02 285.1 118.8 285.073 118.64 285.02C118.48 284.967 118.357 284.89 118.27 284.79C118.19 284.69 118.113 284.553 118.04 284.38C117.627 284.86 117.127 285.1 116.54 285.1ZM116.71 284.38C116.95 284.38 117.18 284.32 117.4 284.2C117.627 284.08 117.813 283.92 117.96 283.72V282.55C117.24 282.577 116.723 282.673 116.41 282.84C116.103 283 115.95 283.263 115.95 283.63C115.95 283.883 116.017 284.073 116.15 284.2C116.29 284.32 116.477 284.38 116.71 284.38ZM122.095 285.1C121.708 285.1 121.368 285.057 121.075 284.97C120.788 284.877 120.568 284.777 120.415 284.67L120.525 283.8C120.658 283.92 120.861 284.033 121.135 284.14C121.415 284.247 121.721 284.3 122.055 284.3C122.368 284.3 122.608 284.247 122.775 284.14C122.948 284.033 123.035 283.883 123.035 283.69C123.035 283.463 122.941 283.293 122.755 283.18C122.568 283.06 122.335 282.96 122.055 282.88C121.748 282.8 121.488 282.717 121.275 282.63C121.068 282.537 120.888 282.397 120.735 282.21C120.588 282.023 120.515 281.777 120.515 281.47C120.515 281.05 120.665 280.7 120.965 280.42C121.265 280.14 121.728 280 122.355 280C122.641 280 122.885 280.03 123.085 280.09C123.285 280.143 123.485 280.22 123.685 280.32L123.575 281.14C123.415 281.007 123.238 280.903 123.045 280.83C122.851 280.75 122.628 280.71 122.375 280.71C122.081 280.71 121.848 280.767 121.675 280.88C121.508 280.987 121.425 281.15 121.425 281.37C121.425 281.517 121.465 281.637 121.545 281.73C121.625 281.817 121.738 281.89 121.885 281.95C122.031 282.01 122.258 282.087 122.565 282.18C122.945 282.293 123.271 282.453 123.545 282.66C123.825 282.867 123.965 283.193 123.965 283.64C123.965 284.04 123.821 284.383 123.535 284.67C123.255 284.957 122.775 285.1 122.095 285.1ZM126.735 285.1C126.349 285.1 126.009 285.057 125.715 284.97C125.429 284.877 125.209 284.777 125.055 284.67L125.165 283.8C125.299 283.92 125.502 284.033 125.775 284.14C126.055 284.247 126.362 284.3 126.695 284.3C127.009 284.3 127.249 284.247 127.415 284.14C127.589 284.033 127.675 283.883 127.675 283.69C127.675 283.463 127.582 283.293 127.395 283.18C127.209 283.06 126.975 282.96 126.695 282.88C126.389 282.8 126.129 282.717 125.915 282.63C125.709 282.537 125.529 282.397 125.375 282.21C125.229 282.023 125.155 281.777 125.155 281.47C125.155 281.05 125.305 280.7 125.605 280.42C125.905 280.14 126.369 280 126.995 280C127.282 280 127.525 280.03 127.725 280.09C127.925 280.143 128.125 280.22 128.325 280.32L128.215 281.14C128.055 281.007 127.879 280.903 127.685 280.83C127.492 280.75 127.269 280.71 127.015 280.71C126.722 280.71 126.489 280.767 126.315 280.88C126.149 280.987 126.065 281.15 126.065 281.37C126.065 281.517 126.105 281.637 126.185 281.73C126.265 281.817 126.379 281.89 126.525 281.95C126.672 282.01 126.899 282.087 127.205 282.18C127.585 282.293 127.912 282.453 128.185 282.66C128.465 282.867 128.605 283.193 128.605 283.64C128.605 284.04 128.462 284.383 128.175 284.67C127.895 284.957 127.415 285.1 126.735 285.1ZM129.496 280.1H130.556L131.496 284.01L132.536 280.25H133.466L134.516 284.01L135.456 280.1H136.516L135.036 285H134.026L133.006 281.38L131.976 285H130.966L129.496 280.1ZM139.823 285.1C139.323 285.1 138.89 284.99 138.523 284.77C138.157 284.543 137.877 284.237 137.683 283.85C137.49 283.463 137.393 283.03 137.393 282.55C137.393 282.07 137.49 281.637 137.683 281.25C137.877 280.863 138.157 280.56 138.523 280.34C138.89 280.113 139.323 280 139.823 280C140.317 280 140.747 280.113 141.113 280.34C141.487 280.56 141.77 280.863 141.963 281.25C142.157 281.637 142.253 282.07 142.253 282.55C142.253 283.03 142.157 283.463 141.963 283.85C141.77 284.237 141.487 284.543 141.113 284.77C140.747 284.99 140.317 285.1 139.823 285.1ZM139.823 284.3C140.303 284.3 140.673 284.147 140.933 283.84C141.2 283.533 141.333 283.103 141.333 282.55C141.333 281.997 141.2 281.567 140.933 281.26C140.673 280.953 140.303 280.8 139.823 280.8C139.343 280.8 138.97 280.953 138.703 281.26C138.443 281.567 138.313 281.997 138.313 282.55C138.313 283.103 138.443 283.533 138.703 283.84C138.97 284.147 139.343 284.3 139.823 284.3ZM143.681 280.1H144.421L144.531 280.91C144.785 280.597 145.025 280.367 145.251 280.22C145.485 280.073 145.728 280 145.981 280C146.061 280 146.138 280.01 146.211 280.03L146.121 281.02C146.035 281 145.935 280.99 145.821 280.99C145.575 280.99 145.341 281.047 145.121 281.16C144.901 281.267 144.741 281.393 144.641 281.54V285H143.681V280.1ZM151.558 277.5V285H150.758L150.658 284.4C150.492 284.627 150.275 284.8 150.008 284.92C149.742 285.04 149.458 285.1 149.158 285.1C148.745 285.1 148.368 284.987 148.028 284.76C147.688 284.533 147.418 284.227 147.218 283.84C147.025 283.453 146.928 283.027 146.928 282.56C146.928 282.107 147.018 281.683 147.198 281.29C147.385 280.897 147.648 280.583 147.988 280.35C148.328 280.117 148.718 280 149.158 280C149.452 280 149.728 280.053 149.988 280.16C150.248 280.267 150.472 280.43 150.658 280.65V277.5H151.558ZM149.318 284.3C149.558 284.3 149.788 284.24 150.008 284.12C150.228 283.993 150.408 283.8 150.548 283.54C150.688 283.28 150.758 282.953 150.758 282.56C150.758 282.193 150.688 281.877 150.548 281.61C150.408 281.343 150.225 281.143 149.998 281.01C149.778 280.87 149.552 280.8 149.318 280.8C148.865 280.8 148.505 280.967 148.238 281.3C147.978 281.627 147.848 282.047 147.848 282.56C147.848 283.053 147.982 283.467 148.248 283.8C148.515 284.133 148.872 284.3 149.318 284.3ZM152.955 280.13L153.315 279.06H152.965V278H154.045V278.96L153.525 280.13H152.955ZM154.555 280.13L154.915 279.06H154.565V278H155.645V278.96L155.125 280.13H154.555ZM155.677 283.94H156.757V285H155.677V283.94Z" fill="#969696" fill-opacity="0.7"/>
<g clip-path="url(#clip1)">
<path d="M54.6256 126.524C52.9556 133.22 46.1726 137.296 39.4746 135.626C32.7796 133.956 28.7036 127.174 30.3746 120.477C32.0416 113.78 38.8256 109.705 45.5216 111.374C52.2186 113.044 56.2956 119.827 54.6256 126.524Z" fill="#F7931A"/>
<path d="M47.744 122.266C47.989 120.628 46.742 119.748 45.037 119.16L45.59 116.942L44.24 116.605L43.701 118.765C43.3412 118.677 42.9805 118.592 42.619 118.511L43.162 116.337L41.812 116L41.258 118.218C40.97 118.153 40.6827 118.085 40.396 118.015L40.398 118.008L38.535 117.543L38.176 118.985C38.176 118.985 39.178 119.215 39.156 119.229C39.704 119.366 39.803 119.728 39.786 120.015L39.156 122.542C39.194 122.552 39.243 122.565 39.296 122.587C39.252 122.576 39.203 122.563 39.154 122.552L38.271 126.092C38.204 126.258 38.034 126.507 37.651 126.412C37.665 126.432 36.671 126.168 36.671 126.168L36 127.713L37.757 128.152C38.084 128.233 38.405 128.319 38.72 128.4L38.161 130.644L39.51 130.98L40.063 128.76C40.432 128.86 40.79 128.953 41.14 129.04L40.588 131.25L41.938 131.586L42.498 129.346C44.8 129.782 46.532 129.606 47.26 127.523C47.848 125.847 47.231 124.879 46.02 124.248C46.902 124.045 47.567 123.465 47.744 122.266V122.266ZM44.658 126.592C44.241 128.269 41.418 127.362 40.502 127.135L41.244 124.163C42.159 124.391 45.094 124.843 44.658 126.593V126.592ZM45.076 122.242C44.696 123.767 42.346 122.992 41.583 122.802L42.255 120.106C43.018 120.296 45.473 120.65 45.076 122.242V122.242Z" fill="white"/>
</g>
<path d="M94.496 123.638C95.7373 124.039 96.358 124.898 96.358 126.214C96.358 127.091 96.0733 127.777 95.504 128.272C94.9347 128.757 94.1553 129 93.166 129H89.078V119.2H92.774C94.6407 119.2 95.574 119.989 95.574 121.566C95.574 122.537 95.2147 123.227 94.496 123.638ZM90.87 123.05H92.508C92.9467 123.05 93.2733 122.961 93.488 122.784C93.7027 122.597 93.81 122.313 93.81 121.93C93.81 121.529 93.7027 121.239 93.488 121.062C93.2733 120.885 92.9467 120.796 92.508 120.796H90.87V123.05ZM92.9 127.404C93.4227 127.404 93.8193 127.301 94.09 127.096C94.37 126.881 94.51 126.522 94.51 126.018C94.51 125.523 94.3653 125.173 94.076 124.968C93.796 124.753 93.404 124.646 92.9 124.646H90.87V127.404H92.9ZM98.1936 119.2H99.9296V120.936H98.1936V119.2ZM98.1936 122H99.9296V129H98.1936V122ZM104.539 129.14C103.923 129.14 103.456 128.963 103.139 128.608C102.822 128.244 102.663 127.81 102.663 127.306V123.428H101.669L101.823 122H102.663V120.46L104.399 120.278V122H105.939V123.428H104.399V126.592C104.399 126.965 104.418 127.227 104.455 127.376C104.502 127.516 104.59 127.609 104.721 127.656C104.861 127.693 105.108 127.712 105.463 127.712H105.939L105.785 129.14H104.539ZM111.017 129.14C110.243 129.14 109.575 128.981 109.015 128.664C108.465 128.337 108.049 127.899 107.769 127.348C107.489 126.797 107.349 126.186 107.349 125.514C107.349 124.833 107.489 124.217 107.769 123.666C108.049 123.106 108.469 122.667 109.029 122.35C109.589 122.023 110.271 121.86 111.073 121.86C111.792 121.86 112.417 122.009 112.949 122.308L112.809 123.708C112.305 123.447 111.783 123.316 111.241 123.316C110.579 123.316 110.061 123.517 109.687 123.918C109.314 124.319 109.127 124.851 109.127 125.514C109.127 126.149 109.319 126.676 109.701 127.096C110.084 127.507 110.593 127.712 111.227 127.712C111.759 127.712 112.291 127.558 112.823 127.25L112.977 128.72C112.725 128.851 112.427 128.953 112.081 129.028C111.745 129.103 111.391 129.14 111.017 129.14ZM117.964 129.14C117.226 129.14 116.587 128.977 116.046 128.65C115.504 128.323 115.089 127.885 114.8 127.334C114.51 126.783 114.366 126.177 114.366 125.514C114.366 124.851 114.51 124.24 114.8 123.68C115.089 123.12 115.504 122.677 116.046 122.35C116.587 122.023 117.226 121.86 117.964 121.86C118.701 121.86 119.34 122.023 119.882 122.35C120.423 122.677 120.838 123.12 121.128 123.68C121.417 124.24 121.562 124.851 121.562 125.514C121.562 126.177 121.417 126.783 121.128 127.334C120.838 127.885 120.423 128.323 119.882 128.65C119.34 128.977 118.701 129.14 117.964 129.14ZM117.964 127.712C118.533 127.712 118.976 127.511 119.294 127.11C119.62 126.709 119.784 126.177 119.784 125.514C119.784 124.842 119.62 124.305 119.294 123.904C118.976 123.493 118.533 123.288 117.964 123.288C117.394 123.288 116.946 123.493 116.62 123.904C116.302 124.305 116.144 124.842 116.144 125.514C116.144 126.177 116.302 126.709 116.62 127.11C116.946 127.511 117.394 127.712 117.964 127.712ZM123.47 119.2H125.206V120.936H123.47V119.2ZM123.47 122H125.206V129H123.47V122ZM131.061 121.888C131.929 121.888 132.587 122.177 133.035 122.756C133.483 123.335 133.707 124.114 133.707 125.094V129H131.971V125.234C131.971 124.581 131.859 124.1 131.635 123.792C131.421 123.475 131.071 123.316 130.585 123.316C130.053 123.316 129.615 123.517 129.269 123.918V129H127.533V122H129.157L129.185 122.49C129.773 122.089 130.399 121.888 131.061 121.888Z" fill="white"/>
</g>
<defs>
<filter id="filter0_d" x="-20" y="698" width="415" height="133" filterUnits="userSpaceOnUse" color-interpolation-filters="sRGB">
<feFlood flood-opacity="0" result="BackgroundImageFix"/>
<feColorMatrix in="SourceAlpha" type="matrix" values="0 0 0 0 0 0 0 0 0 0 0 0 0 0 0 0 0 0 127 0"/>
<feOffset dy="-1"/>
<feGaussianBlur stdDeviation="10"/>
<feColorMatrix type="matrix" values="0 0 0 0 0 0 0 0 0 0 0 0 0 0 0 0 0 0 0.1 0"/>
<feBlend mode="normal" in2="BackgroundImageFix" result="effect1_dropShadow"/>
<feBlend mode="normal" in="SourceGraphic" in2="effect1_dropShadow" result="shape"/>
</filter>
<filter id="filter1_d" x="8" y="322" width="359" height="68" filterUnits="userSpaceOnUse" color-interpolation-filters="sRGB">
<feFlood flood-opacity="0" result="BackgroundImageFix"/>
<feColorMatrix in="SourceAlpha" type="matrix" values="0 0 0 0 0 0 0 0 0 0 0 0 0 0 0 0 0 0 127 0"/>
<feOffset dy="4"/>
<feGaussianBlur stdDeviation="4"/>
<feColorMatrix type="matrix" values="0 0 0 0 0.886275 0 0 0 0 0.509804 0 0 0 0 0.529412 0 0 0 0.26 0"/>
<feBlend mode="normal" in2="BackgroundImageFix" result="effect1_dropShadow"/>
<feBlend mode="normal" in="SourceGraphic" in2="effect1_dropShadow" result="shape"/>
</filter>
<linearGradient id="paint0_linear" x1="313.5" y1="47" x2="313.5" y2="72" gradientUnits="userSpaceOnUse">
<stop stop-color="#926CB3"/>
<stop offset="1" stop-color="#E18B8B"/>
</linearGradient>
<linearGradient id="paint1_linear" x1="313.5" y1="52" x2="313.5" y2="67" gradientUnits="userSpaceOnUse">
<stop stop-color="#926CB3"/>
<stop offset="1" stop-color="#E18B8B"/>
</linearGradient>
<linearGradient id="paint2_linear" x1="39.5" y1="732" x2="39.5" y2="751" gradientUnits="userSpaceOnUse">
<stop stop-color="#926CB3"/>
<stop offset="1" stop-color="#E18B8B"/>
</linearGradient>
<linearGradient id="paint3_linear" x1="39.5" y1="758" x2="39.5" y2="768" gradientUnits="userSpaceOnUse">
<stop stop-color="#926CB3"/>
<stop offset="1" stop-color="#E18B8B"/>
</linearGradient>
<linearGradient id="paint4_linear" x1="187.5" y1="326" x2="187.5" y2="378" gradientUnits="userSpaceOnUse">
<stop stop-color="#926CB3"/>
<stop offset="1" stop-color="#E18B8B"/>
</linearGradient>
<clipPath id="clip0">
<rect width="375" height="812" fill="white"/>
</clipPath>
<clipPath id="clip1">
<rect width="25" height="25" fill="white" transform="translate(30 111)"/>
</clipPath>
</defs>
</svg>
