<svg width="375" height="798" viewBox="0 0 375 798" fill="none" xmlns="http://www.w3.org/2000/svg">
<path opacity="0.35" d="M336.5 6.00016C336.5 4.80354 337.47 3.8335 338.667 3.8335H355.333C356.53 3.8335 357.5 4.80355 357.5 6.00016V12.0002C357.5 13.1968 356.53 14.1668 355.333 14.1668H338.667C337.47 14.1668 336.5 13.1968 336.5 12.0002V6.00016Z" stroke="white"/>
<path opacity="0.4" d="M359 7V11C359.805 10.6612 360.328 9.87313 360.328 9C360.328 8.12687 359.805 7.33878 359 7Z" fill="white"/>
<path d="M338 6.66683C338 5.93045 338.597 5.3335 339.333 5.3335H354.667C355.403 5.3335 356 5.93045 356 6.66683V11.3335C356 12.0699 355.403 12.6668 354.667 12.6668H339.333C338.597 12.6668 338 12.0699 338 11.3335V6.66683Z" fill="white"/>
<path d="M323.33 5.60789C325.546 5.60799 327.677 6.45943 329.283 7.98623C329.404 8.1041 329.597 8.10261 329.716 7.98289L330.872 6.81623C330.933 6.7555 330.966 6.67325 330.966 6.58767C330.965 6.50209 330.931 6.42024 330.87 6.36023C326.655 2.32068 320.005 2.32068 315.79 6.36023C315.729 6.4202 315.694 6.50202 315.693 6.5876C315.693 6.67318 315.726 6.75546 315.787 6.81623L316.943 7.98289C317.062 8.1028 317.255 8.10428 317.376 7.98623C318.982 6.45933 321.114 5.60789 323.33 5.60789Z" fill="white"/>
<path d="M323.331 9.40347C324.548 9.40339 325.722 9.85592 326.625 10.6731C326.747 10.7891 326.939 10.7866 327.058 10.6675L328.213 9.5008C328.274 9.4396 328.307 9.35659 328.306 9.27032C328.306 9.18406 328.27 9.10174 328.208 9.0418C325.46 6.48542 321.204 6.48542 318.456 9.0418C318.394 9.10174 318.358 9.1841 318.357 9.27039C318.357 9.35668 318.39 9.43969 318.451 9.5008L319.606 10.6675C319.725 10.7866 319.917 10.7891 320.039 10.6731C320.941 9.85646 322.114 9.40397 323.331 9.40347Z" fill="white"/>
<path d="M325.55 12.188C325.612 12.1274 325.646 12.044 325.644 11.9575C325.642 11.871 325.605 11.7891 325.54 11.731C324.265 10.6522 322.397 10.6522 321.121 11.731C321.057 11.789 321.019 11.8709 321.018 11.9575C321.016 12.044 321.05 12.1274 321.111 12.188L323.109 14.2037C323.168 14.2629 323.248 14.2963 323.331 14.2963C323.414 14.2963 323.494 14.2629 323.552 14.2037L325.55 12.188Z" fill="white"/>
<path d="M294.666 10.333H295.666C296.218 10.333 296.666 10.7807 296.666 11.333V13.333C296.666 13.8853 296.218 14.333 295.666 14.333H294.666C294.114 14.333 293.666 13.8853 293.666 13.333V11.333C293.666 10.7807 294.114 10.333 294.666 10.333Z" fill="white"/>
<path d="M299.332 8.33301H300.332C300.884 8.33301 301.332 8.78072 301.332 9.33301V13.333C301.332 13.8853 300.884 14.333 300.332 14.333H299.332C298.78 14.333 298.332 13.8853 298.332 13.333V9.33301C298.332 8.78072 298.78 8.33301 299.332 8.33301Z" fill="white"/>
<path d="M304 6H305C305.552 6 306 6.44772 306 7V13.3333C306 13.8856 305.552 14.3333 305 14.3333H304C303.448 14.3333 303 13.8856 303 13.3333V7C303 6.44772 303.448 6 304 6Z" fill="white"/>
<path d="M308.666 3.6665H309.666C310.218 3.6665 310.666 4.11422 310.666 4.6665V13.3332C310.666 13.8855 310.218 14.3332 309.666 14.3332H308.666C308.114 14.3332 307.666 13.8855 307.666 13.3332V4.6665C307.666 4.11422 308.114 3.6665 308.666 3.6665V3.6665Z" fill="white"/>
<path d="M39.5278 3.29C40.2478 3.29 40.8828 3.455 41.4328 3.785C41.9828 4.105 42.4078 4.56 42.7078 5.15C43.0078 5.74 43.1578 6.425 43.1578 7.205C43.1578 8.225 42.9228 9.19 42.4528 10.1C41.9928 11 41.4078 11.78 40.6978 12.44C39.9878 13.1 39.2578 13.62 38.5078 14L37.1728 12.95C37.8628 12.61 38.5828 12.12 39.3328 11.48C40.0928 10.84 40.6578 10.12 41.0278 9.32C40.5278 9.65 39.9028 9.815 39.1528 9.815C38.5728 9.815 38.0478 9.68 37.5778 9.41C37.1078 9.14 36.7378 8.765 36.4678 8.285C36.2078 7.805 36.0778 7.26 36.0778 6.65C36.0778 5.99 36.2178 5.405 36.4978 4.895C36.7778 4.385 37.1778 3.99 37.6978 3.71C38.2178 3.43 38.8278 3.29 39.5278 3.29ZM39.4978 8.165C39.9778 8.165 40.3728 8.015 40.6828 7.715C40.9928 7.415 41.1478 7.035 41.1478 6.575C41.1478 6.115 40.9928 5.73 40.6828 5.42C40.3728 5.1 39.9778 4.94 39.4978 4.94C39.0278 4.94 38.6328 5.1 38.3128 5.42C38.0028 5.73 37.8478 6.115 37.8478 6.575C37.8478 7.035 38.0028 7.415 38.3128 7.715C38.6328 8.015 39.0278 8.165 39.4978 8.165ZM44.1707 6.5H46.1207V8.54H44.1707V6.5ZM44.1707 11.96H46.1207V14H44.1707V11.96ZM55.0409 10.04V11.6H53.6909V14H51.8459V11.6H46.6109L52.3859 3.5H53.6909V10.04H55.0409ZM51.8459 10.04V6.815L49.5809 10.04H51.8459ZM57.5651 6.215C57.1451 6.495 56.7051 6.675 56.2451 6.755L56.0801 5.135C56.4101 5.065 56.7801 4.865 57.1901 4.535C57.6001 4.195 57.8751 3.85 58.0151 3.5H59.4851V14H57.5651V6.215Z" fill="white"/>
<path d="M163.894 60L162.814 51.558L159.592 57.354L156.352 51.576L155.272 60H152.878L154.624 47.4H156.514L159.592 53.142L162.652 47.4H164.542L166.288 60H163.894ZM173.134 60.18C172.09 60.18 171.196 59.97 170.452 59.55C169.72 59.118 169.168 58.548 168.796 57.84C168.436 57.12 168.256 56.322 168.256 55.446C168.256 54.606 168.43 53.838 168.778 53.142C169.126 52.446 169.63 51.894 170.29 51.486C170.95 51.066 171.736 50.856 172.648 50.856C173.488 50.856 174.196 51.03 174.772 51.378C175.36 51.726 175.798 52.194 176.086 52.782C176.386 53.37 176.536 54.03 176.536 54.762C176.536 55.122 176.488 55.53 176.392 55.986H170.578C170.698 56.778 171.01 57.372 171.514 57.768C172.018 58.152 172.624 58.344 173.332 58.344C174.304 58.344 175.204 58.098 176.032 57.606L176.14 59.496C175.756 59.7 175.306 59.868 174.79 60C174.286 60.12 173.734 60.18 173.134 60.18ZM174.268 54.474C174.268 54.006 174.136 53.592 173.872 53.232C173.608 52.872 173.2 52.692 172.648 52.692C172.096 52.692 171.652 52.854 171.316 53.178C170.98 53.502 170.752 53.934 170.632 54.474H174.268ZM181.515 60.18C180.939 60.18 180.411 60.126 179.931 60.018C179.463 59.91 178.977 59.742 178.473 59.514L178.671 57.606C179.175 57.906 179.643 58.134 180.075 58.29C180.519 58.434 180.975 58.506 181.443 58.506C182.355 58.506 182.811 58.206 182.811 57.606C182.811 57.282 182.691 57.036 182.451 56.868C182.211 56.688 181.779 56.478 181.155 56.238C180.267 55.914 179.613 55.548 179.193 55.14C178.773 54.72 178.563 54.156 178.563 53.448C178.563 52.668 178.863 52.038 179.463 51.558C180.063 51.066 180.873 50.82 181.893 50.82C182.913 50.82 183.843 51.054 184.683 51.522L184.485 53.43C184.029 53.118 183.597 52.878 183.189 52.71C182.793 52.542 182.373 52.458 181.929 52.458C181.545 52.458 181.245 52.536 181.029 52.692C180.825 52.848 180.723 53.07 180.723 53.358C180.723 53.586 180.783 53.772 180.903 53.916C181.035 54.06 181.215 54.192 181.443 54.312C181.671 54.42 182.049 54.576 182.577 54.78C183.453 55.116 184.083 55.488 184.467 55.896C184.851 56.292 185.043 56.826 185.043 57.498C185.043 58.35 184.737 59.01 184.125 59.478C183.513 59.946 182.643 60.18 181.515 60.18ZM190.027 60.18C189.451 60.18 188.923 60.126 188.443 60.018C187.975 59.91 187.489 59.742 186.985 59.514L187.183 57.606C187.687 57.906 188.155 58.134 188.587 58.29C189.031 58.434 189.487 58.506 189.955 58.506C190.867 58.506 191.323 58.206 191.323 57.606C191.323 57.282 191.203 57.036 190.963 56.868C190.723 56.688 190.291 56.478 189.667 56.238C188.779 55.914 188.125 55.548 187.705 55.14C187.285 54.72 187.075 54.156 187.075 53.448C187.075 52.668 187.375 52.038 187.975 51.558C188.575 51.066 189.385 50.82 190.405 50.82C191.425 50.82 192.355 51.054 193.195 51.522L192.997 53.43C192.541 53.118 192.109 52.878 191.701 52.71C191.305 52.542 190.885 52.458 190.441 52.458C190.057 52.458 189.757 52.536 189.541 52.692C189.337 52.848 189.235 53.07 189.235 53.358C189.235 53.586 189.295 53.772 189.415 53.916C189.547 54.06 189.727 54.192 189.955 54.312C190.183 54.42 190.561 54.576 191.089 54.78C191.965 55.116 192.595 55.488 192.979 55.896C193.363 56.292 193.555 56.826 193.555 57.498C193.555 58.35 193.249 59.01 192.637 59.478C192.025 59.946 191.155 60.18 190.027 60.18ZM197.926 60.18C197.182 60.18 196.558 59.94 196.054 59.46C195.562 58.968 195.316 58.308 195.316 57.48C195.316 56.7 195.598 56.076 196.162 55.608C196.726 55.128 197.392 54.792 198.16 54.6C198.928 54.396 199.666 54.282 200.374 54.258C200.35 53.73 200.212 53.352 199.96 53.124C199.72 52.896 199.318 52.782 198.754 52.782C198.358 52.782 197.968 52.836 197.584 52.944C197.212 53.052 196.78 53.226 196.288 53.466L196.09 51.648C197.182 51.12 198.274 50.856 199.366 50.856C200.422 50.856 201.226 51.144 201.778 51.72C202.342 52.296 202.624 53.214 202.624 54.474V56.904C202.624 57.36 202.642 57.69 202.678 57.894C202.726 58.086 202.798 58.212 202.894 58.272C203.002 58.32 203.176 58.344 203.416 58.344H203.704L203.506 60.18H202.696C202.204 60.18 201.79 60.09 201.454 59.91C201.118 59.718 200.86 59.46 200.68 59.136C200.392 59.46 199.996 59.718 199.492 59.91C199 60.09 198.478 60.18 197.926 60.18ZM198.862 58.47C199.09 58.47 199.348 58.416 199.636 58.308C199.924 58.188 200.176 58.026 200.392 57.822V55.77C199.672 55.806 199.036 55.962 198.484 56.238C197.932 56.514 197.656 56.898 197.656 57.39C197.656 57.762 197.752 58.038 197.944 58.218C198.136 58.386 198.442 58.47 198.862 58.47ZM209.411 64.536C208.139 64.536 207.125 64.302 206.369 63.834C205.613 63.378 205.235 62.754 205.235 61.962C205.235 61.098 205.721 60.39 206.693 59.838C206.165 59.514 205.901 59.088 205.901 58.56C205.901 58.284 205.979 58.038 206.135 57.822C206.303 57.606 206.525 57.432 206.801 57.3C206.345 56.976 205.997 56.562 205.757 56.058C205.529 55.554 205.415 55.002 205.415 54.402C205.415 53.742 205.559 53.142 205.847 52.602C206.135 52.05 206.555 51.618 207.107 51.306C207.659 50.982 208.313 50.82 209.069 50.82C209.861 50.82 210.545 51.012 211.121 51.396C211.325 51.288 211.595 51.198 211.931 51.126C212.279 51.042 212.651 51 213.047 51H213.623L213.479 52.404H212.669C212.465 52.404 212.297 52.41 212.165 52.422C212.525 52.974 212.705 53.634 212.705 54.402C212.705 55.062 212.561 55.668 212.273 56.22C211.997 56.76 211.583 57.192 211.031 57.516C210.479 57.828 209.825 57.984 209.069 57.984C208.793 57.984 208.475 57.942 208.115 57.858C207.983 57.918 207.917 58.014 207.917 58.146C207.917 58.302 208.007 58.428 208.187 58.524C208.379 58.608 208.697 58.68 209.141 58.74L210.689 58.938C212.753 59.214 213.785 60.084 213.785 61.548C213.785 62.46 213.395 63.186 212.615 63.726C211.847 64.266 210.779 64.536 209.411 64.536ZM209.069 56.328C209.585 56.328 209.981 56.16 210.257 55.824C210.545 55.476 210.689 55.002 210.689 54.402C210.689 53.802 210.545 53.334 210.257 52.998C209.981 52.65 209.585 52.476 209.069 52.476C208.541 52.476 208.133 52.65 207.845 52.998C207.569 53.334 207.431 53.802 207.431 54.402C207.431 55.002 207.569 55.476 207.845 55.824C208.133 56.16 208.541 56.328 209.069 56.328ZM209.501 62.844C211.037 62.844 211.805 62.466 211.805 61.71C211.805 61.374 211.673 61.122 211.409 60.954C211.145 60.798 210.707 60.672 210.095 60.576L208.115 60.288C207.431 60.564 207.089 60.984 207.089 61.548C207.089 61.98 207.299 62.304 207.719 62.52C208.139 62.736 208.733 62.844 209.501 62.844ZM220.032 60.18C218.988 60.18 218.094 59.97 217.35 59.55C216.618 59.118 216.066 58.548 215.694 57.84C215.334 57.12 215.154 56.322 215.154 55.446C215.154 54.606 215.328 53.838 215.676 53.142C216.024 52.446 216.528 51.894 217.188 51.486C217.848 51.066 218.634 50.856 219.546 50.856C220.386 50.856 221.094 51.03 221.67 51.378C222.258 51.726 222.696 52.194 222.984 52.782C223.284 53.37 223.434 54.03 223.434 54.762C223.434 55.122 223.386 55.53 223.29 55.986H217.476C217.596 56.778 217.908 57.372 218.412 57.768C218.916 58.152 219.522 58.344 220.23 58.344C221.202 58.344 222.102 58.098 222.93 57.606L223.038 59.496C222.654 59.7 222.204 59.868 221.688 60C221.184 60.12 220.632 60.18 220.032 60.18ZM221.166 54.474C221.166 54.006 221.034 53.592 220.77 53.232C220.506 52.872 220.098 52.692 219.546 52.692C218.994 52.692 218.55 52.854 218.214 53.178C217.878 53.502 217.65 53.934 217.53 54.474H221.166Z" fill="white"/>
<g filter="url(#filter0_d)">
<rect y="705" width="375" height="93" fill="#474A4F"/>
</g>
<path d="M27 720.375C27 719.069 28.125 718 29.5 718H48.25C48.9403 718 49.5 718.532 49.5 719.188V720.375H29.5V721.563H50.75C51.4403 721.563 52 722.094 52 722.75V734.625C52 735.937 50.8806 737 49.5 737H29.5C28.1194 737 27 735.937 27 734.625V720.375ZM47.625 731.063C48.6606 731.063 49.5 730.265 49.5 729.281C49.5 728.297 48.6606 727.5 47.625 727.5C46.5894 727.5 45.75 728.297 45.75 729.281C45.75 730.265 46.5894 731.063 47.625 731.063Z" fill="#AAAAAA"/>
<path d="M28.08 746.4H29.144L30.264 750.376L31.512 746.4H32.224L33.52 750.272L34.592 746.4H35.656L34.016 752H33.112L31.864 748.264L30.624 752H29.656L28.08 746.4ZM36.7421 752.08C36.4114 752.08 36.1341 751.973 35.9101 751.76C35.6914 751.541 35.5821 751.248 35.5821 750.88C35.5821 750.533 35.7074 750.256 35.9581 750.048C36.2087 749.835 36.5047 749.685 36.8461 749.6C37.1874 749.509 37.5154 749.459 37.8301 749.448C37.8194 749.213 37.7581 749.045 37.6461 748.944C37.5394 748.843 37.3607 748.792 37.1101 748.792C36.9341 748.792 36.7607 748.816 36.5901 748.864C36.4247 748.912 36.2327 748.989 36.0141 749.096L35.9261 748.288C36.4114 748.053 36.8967 747.936 37.3821 747.936C37.8514 747.936 38.2087 748.064 38.4541 748.32C38.7047 748.576 38.8301 748.984 38.8301 749.544V750.624C38.8301 750.827 38.8381 750.973 38.8541 751.064C38.8754 751.149 38.9074 751.205 38.9501 751.232C38.9981 751.253 39.0754 751.264 39.1821 751.264H39.3101L39.2221 752.08H38.8621C38.6434 752.08 38.4594 752.04 38.3101 751.96C38.1607 751.875 38.0461 751.76 37.9661 751.616C37.8381 751.76 37.6621 751.875 37.4381 751.96C37.2194 752.04 36.9874 752.08 36.7421 752.08ZM37.1581 751.32C37.2594 751.32 37.3741 751.296 37.5021 751.248C37.6301 751.195 37.7421 751.123 37.8381 751.032V750.12C37.5181 750.136 37.2354 750.205 36.9901 750.328C36.7447 750.451 36.6221 750.621 36.6221 750.84C36.6221 751.005 36.6647 751.128 36.7501 751.208C36.8354 751.283 36.9714 751.32 37.1581 751.32ZM40.8864 752.08C40.5451 752.08 40.2891 751.984 40.1184 751.792C39.9478 751.595 39.8624 751.341 39.8624 751.032V746H40.8544V750.624C40.8544 750.837 40.8651 750.989 40.8864 751.08C40.9131 751.165 40.9558 751.219 41.0144 751.24C41.0784 751.256 41.1851 751.264 41.3344 751.264L41.2464 752.08H40.8864ZM42.988 752.08C42.6467 752.08 42.3907 751.984 42.22 751.792C42.0493 751.595 41.964 751.341 41.964 751.032V746H42.956V750.624C42.956 750.837 42.9667 750.989 42.988 751.08C43.0147 751.165 43.0573 751.219 43.116 751.24C43.18 751.256 43.2867 751.264 43.436 751.264L43.348 752.08H42.988ZM45.9545 752.08C45.4905 752.08 45.0932 751.987 44.7625 751.8C44.4372 751.608 44.1918 751.355 44.0265 751.04C43.8665 750.72 43.7865 750.365 43.7865 749.976C43.7865 749.603 43.8638 749.261 44.0185 748.952C44.1732 748.643 44.3972 748.397 44.6905 748.216C44.9838 748.029 45.3332 747.936 45.7385 747.936C46.1118 747.936 46.4265 748.013 46.6825 748.168C46.9438 748.323 47.1385 748.531 47.2665 748.792C47.3998 749.053 47.4665 749.347 47.4665 749.672C47.4665 749.832 47.4452 750.013 47.4025 750.216H44.8185C44.8718 750.568 45.0105 750.832 45.2345 751.008C45.4585 751.179 45.7278 751.264 46.0425 751.264C46.4745 751.264 46.8745 751.155 47.2425 750.936L47.2905 751.776C47.1198 751.867 46.9198 751.941 46.6905 752C46.4665 752.053 46.2212 752.08 45.9545 752.08ZM46.4585 749.544C46.4585 749.336 46.3998 749.152 46.2825 748.992C46.1652 748.832 45.9838 748.752 45.7385 748.752C45.4932 748.752 45.2958 748.824 45.1465 748.968C44.9972 749.112 44.8958 749.304 44.8425 749.544H46.4585ZM49.4477 752.08C49.0957 752.08 48.829 751.979 48.6477 751.776C48.4664 751.568 48.3757 751.32 48.3757 751.032V748.816H47.8077L47.8957 748H48.3757V747.12L49.3677 747.016V748H50.2477V748.816H49.3677V750.624C49.3677 750.837 49.3784 750.987 49.3997 751.072C49.4264 751.152 49.477 751.205 49.5517 751.232C49.6317 751.253 49.773 751.264 49.9757 751.264H50.2477L50.1597 752.08H49.4477Z" fill="#AAAAAA"/>
<path d="M329 735H352V732.5H329V735ZM329 728.75H352V726.25H329V728.75ZM329 720V722.5H352V720H329Z" fill="#A6A6A6"/>
<path d="M335.248 752L334.768 748.248L333.336 750.824L331.896 748.256L331.416 752H330.352L331.128 746.4H331.968L333.336 748.952L334.696 746.4H335.536L336.312 752H335.248ZM338.955 752.08C338.491 752.08 338.093 751.987 337.763 751.8C337.437 751.608 337.192 751.355 337.027 751.04C336.867 750.72 336.787 750.365 336.787 749.976C336.787 749.603 336.864 749.261 337.019 748.952C337.173 748.643 337.397 748.397 337.691 748.216C337.984 748.029 338.333 747.936 338.739 747.936C339.112 747.936 339.427 748.013 339.683 748.168C339.944 748.323 340.139 748.531 340.267 748.792C340.4 749.053 340.467 749.347 340.467 749.672C340.467 749.832 340.445 750.013 340.403 750.216H337.819C337.872 750.568 338.011 750.832 338.235 751.008C338.459 751.179 338.728 751.264 339.043 751.264C339.475 751.264 339.875 751.155 340.243 750.936L340.291 751.776C340.12 751.867 339.92 751.941 339.691 752C339.467 752.053 339.221 752.08 338.955 752.08ZM339.459 749.544C339.459 749.336 339.4 749.152 339.283 748.992C339.165 748.832 338.984 748.752 338.739 748.752C338.493 748.752 338.296 748.824 338.147 748.968C337.997 749.112 337.896 749.304 337.843 749.544H339.459ZM343.16 747.936C343.656 747.936 344.032 748.101 344.288 748.432C344.544 748.763 344.672 749.208 344.672 749.768V752H343.68V749.848C343.68 749.475 343.616 749.2 343.488 749.024C343.365 748.843 343.165 748.752 342.888 748.752C342.584 748.752 342.333 748.867 342.136 749.096V752H341.144V748H342.072L342.088 748.28C342.424 748.051 342.781 747.936 343.16 747.936ZM349.015 748V752H348.087L348.071 751.76C347.948 751.851 347.807 751.928 347.647 751.992C347.487 752.051 347.332 752.08 347.183 752.08C346.591 752.08 346.159 751.909 345.887 751.568C345.62 751.227 345.487 750.755 345.487 750.152V748H346.479V750.152C346.479 750.525 346.54 750.803 346.663 750.984C346.791 751.16 346.993 751.248 347.271 751.248C347.58 751.248 347.831 751.136 348.023 750.912V748H349.015Z" fill="#AAAAAA"/>
<path d="M245.52 750.672H243.48L243.016 752H242.024L244.016 746.4H244.984L246.976 752H245.984L245.52 750.672ZM245.2 749.776L244.504 747.776L243.8 749.776H245.2ZM251.018 746V752H250.082L250.066 751.744C249.912 751.856 249.749 751.941 249.578 752C249.413 752.053 249.216 752.08 248.986 752.08C248.597 752.08 248.261 751.987 247.978 751.8C247.701 751.613 247.49 751.363 247.346 751.048C247.202 750.733 247.13 750.387 247.13 750.008C247.13 749.629 247.202 749.283 247.346 748.968C247.49 748.653 247.701 748.403 247.978 748.216C248.261 748.029 248.597 747.936 248.986 747.936C249.376 747.936 249.722 748.043 250.026 748.256V746H251.018ZM249.13 751.264C249.445 751.264 249.68 751.152 249.834 750.928C249.994 750.704 250.074 750.397 250.074 750.008C250.074 749.619 249.994 749.312 249.834 749.088C249.68 748.864 249.445 748.752 249.13 748.752C248.821 748.752 248.578 748.867 248.402 749.096C248.232 749.325 248.146 749.629 248.146 750.008C248.146 750.387 248.232 750.691 248.402 750.92C248.578 751.149 248.821 751.264 249.13 751.264ZM255.589 746V752H254.653L254.637 751.744C254.482 751.856 254.319 751.941 254.149 752C253.983 752.053 253.786 752.08 253.557 752.08C253.167 752.08 252.831 751.987 252.549 751.8C252.271 751.613 252.061 751.363 251.917 751.048C251.773 750.733 251.701 750.387 251.701 750.008C251.701 749.629 251.773 749.283 251.917 748.968C252.061 748.653 252.271 748.403 252.549 748.216C252.831 748.029 253.167 747.936 253.557 747.936C253.946 747.936 254.293 748.043 254.597 748.256V746H255.589ZM253.701 751.264C254.015 751.264 254.25 751.152 254.405 750.928C254.565 750.704 254.645 750.397 254.645 750.008C254.645 749.619 254.565 749.312 254.405 749.088C254.25 748.864 254.015 748.752 253.701 748.752C253.391 748.752 253.149 748.867 252.973 749.096C252.802 749.325 252.717 749.629 252.717 750.008C252.717 750.387 252.802 750.691 252.973 750.92C253.149 751.149 253.391 751.264 253.701 751.264ZM256.511 748H257.439L257.463 748.424C257.58 748.291 257.73 748.173 257.911 748.072C258.098 747.971 258.292 747.92 258.495 747.92C258.559 747.92 258.618 747.925 258.671 747.936L258.599 748.912C258.498 748.885 258.383 748.872 258.255 748.872C258.09 748.872 257.938 748.912 257.799 748.992C257.66 749.067 257.562 749.16 257.503 749.272V752H256.511V748ZM261.009 752.08C260.545 752.08 260.148 751.987 259.817 751.8C259.492 751.608 259.247 751.355 259.081 751.04C258.921 750.72 258.841 750.365 258.841 749.976C258.841 749.603 258.919 749.261 259.073 748.952C259.228 748.643 259.452 748.397 259.745 748.216C260.039 748.029 260.388 747.936 260.793 747.936C261.167 747.936 261.481 748.013 261.737 748.168C261.999 748.323 262.193 748.531 262.321 748.792C262.455 749.053 262.521 749.347 262.521 749.672C262.521 749.832 262.5 750.013 262.457 750.216H259.873C259.927 750.568 260.065 750.832 260.289 751.008C260.513 751.179 260.783 751.264 261.097 751.264C261.529 751.264 261.929 751.155 262.297 750.936L262.345 751.776C262.175 751.867 261.975 751.941 261.745 752C261.521 752.053 261.276 752.08 261.009 752.08ZM261.513 749.544C261.513 749.336 261.455 749.152 261.337 748.992C261.22 748.832 261.039 748.752 260.793 748.752C260.548 748.752 260.351 748.824 260.201 748.968C260.052 749.112 259.951 749.304 259.897 749.544H261.513ZM264.334 752.08C264.078 752.08 263.844 752.056 263.63 752.008C263.422 751.96 263.206 751.885 262.982 751.784L263.07 750.936C263.294 751.069 263.502 751.171 263.694 751.24C263.892 751.304 264.094 751.336 264.302 751.336C264.708 751.336 264.91 751.203 264.91 750.936C264.91 750.792 264.857 750.683 264.75 750.608C264.644 750.528 264.452 750.435 264.174 750.328C263.78 750.184 263.489 750.021 263.302 749.84C263.116 749.653 263.022 749.403 263.022 749.088C263.022 748.741 263.156 748.461 263.422 748.248C263.689 748.029 264.049 747.92 264.502 747.92C264.956 747.92 265.369 748.024 265.742 748.232L265.654 749.08C265.452 748.941 265.26 748.835 265.078 748.76C264.902 748.685 264.716 748.648 264.518 748.648C264.348 748.648 264.214 748.683 264.118 748.752C264.028 748.821 263.982 748.92 263.982 749.048C263.982 749.149 264.009 749.232 264.062 749.296C264.121 749.36 264.201 749.419 264.302 749.472C264.404 749.52 264.572 749.589 264.806 749.68C265.196 749.829 265.476 749.995 265.646 750.176C265.817 750.352 265.902 750.589 265.902 750.888C265.902 751.267 265.766 751.56 265.494 751.768C265.222 751.976 264.836 752.08 264.334 752.08ZM267.717 752.08C267.461 752.08 267.227 752.056 267.013 752.008C266.805 751.96 266.589 751.885 266.365 751.784L266.453 750.936C266.677 751.069 266.885 751.171 267.077 751.24C267.275 751.304 267.477 751.336 267.685 751.336C268.091 751.336 268.293 751.203 268.293 750.936C268.293 750.792 268.24 750.683 268.133 750.608C268.027 750.528 267.835 750.435 267.557 750.328C267.163 750.184 266.872 750.021 266.685 749.84C266.499 749.653 266.405 749.403 266.405 749.088C266.405 748.741 266.539 748.461 266.805 748.248C267.072 748.029 267.432 747.92 267.885 747.92C268.339 747.92 268.752 748.024 269.125 748.232L269.037 749.08C268.835 748.941 268.643 748.835 268.461 748.76C268.285 748.685 268.099 748.648 267.901 748.648C267.731 748.648 267.597 748.683 267.501 748.752C267.411 748.821 267.365 748.92 267.365 749.048C267.365 749.149 267.392 749.232 267.445 749.296C267.504 749.36 267.584 749.419 267.685 749.472C267.787 749.52 267.955 749.589 268.189 749.68C268.579 749.829 268.859 749.995 269.029 750.176C269.2 750.352 269.285 750.589 269.285 750.888C269.285 751.267 269.149 751.56 268.877 751.768C268.605 751.976 268.219 752.08 267.717 752.08ZM275.009 748.936C275.718 749.165 276.073 749.656 276.073 750.408C276.073 750.909 275.91 751.301 275.585 751.584C275.26 751.861 274.814 752 274.249 752H271.913V746.4H274.025C275.092 746.4 275.625 746.851 275.625 747.752C275.625 748.307 275.42 748.701 275.009 748.936ZM272.937 748.6H273.873C274.124 748.6 274.31 748.549 274.433 748.448C274.556 748.341 274.617 748.179 274.617 747.96C274.617 747.731 274.556 747.565 274.433 747.464C274.31 747.363 274.124 747.312 273.873 747.312H272.937V748.6ZM274.097 751.088C274.396 751.088 274.622 751.029 274.777 750.912C274.937 750.789 275.017 750.584 275.017 750.296C275.017 750.013 274.934 749.813 274.769 749.696C274.609 749.573 274.385 749.512 274.097 749.512H272.937V751.088H274.097ZM278.585 752.08C278.163 752.08 277.798 751.987 277.489 751.8C277.179 751.613 276.942 751.363 276.777 751.048C276.611 750.733 276.529 750.387 276.529 750.008C276.529 749.629 276.611 749.28 276.777 748.96C276.942 748.64 277.179 748.387 277.489 748.2C277.798 748.013 278.163 747.92 278.585 747.92C279.006 747.92 279.371 748.013 279.681 748.2C279.99 748.387 280.227 748.64 280.393 748.96C280.558 749.28 280.641 749.629 280.641 750.008C280.641 750.387 280.558 750.733 280.393 751.048C280.227 751.363 279.99 751.613 279.681 751.8C279.371 751.987 279.006 752.08 278.585 752.08ZM278.585 751.264C278.91 751.264 279.163 751.149 279.345 750.92C279.531 750.691 279.625 750.387 279.625 750.008C279.625 749.624 279.531 749.317 279.345 749.088C279.163 748.853 278.91 748.736 278.585 748.736C278.259 748.736 278.003 748.853 277.817 749.088C277.635 749.317 277.545 749.624 277.545 750.008C277.545 750.387 277.635 750.691 277.817 750.92C278.003 751.149 278.259 751.264 278.585 751.264ZM283.147 752.08C282.726 752.08 282.361 751.987 282.051 751.8C281.742 751.613 281.505 751.363 281.339 751.048C281.174 750.733 281.091 750.387 281.091 750.008C281.091 749.629 281.174 749.28 281.339 748.96C281.505 748.64 281.742 748.387 282.051 748.2C282.361 748.013 282.726 747.92 283.147 747.92C283.569 747.92 283.934 748.013 284.243 748.2C284.553 748.387 284.79 748.64 284.955 748.96C285.121 749.28 285.203 749.629 285.203 750.008C285.203 750.387 285.121 750.733 284.955 751.048C284.79 751.363 284.553 751.613 284.243 751.8C283.934 751.987 283.569 752.08 283.147 752.08ZM283.147 751.264C283.473 751.264 283.726 751.149 283.907 750.92C284.094 750.691 284.187 750.387 284.187 750.008C284.187 749.624 284.094 749.317 283.907 749.088C283.726 748.853 283.473 748.736 283.147 748.736C282.822 748.736 282.566 748.853 282.379 749.088C282.198 749.317 282.107 749.624 282.107 750.008C282.107 750.387 282.198 750.691 282.379 750.92C282.566 751.149 282.822 751.264 283.147 751.264ZM285.886 746H286.878V749.64L288.118 748H289.238L287.782 749.92L289.27 752H288.15L286.878 750.224V752H285.886V746Z" fill="#AAAAAA"/>
<path d="M257.2 721.4H255V736.8C255 738.01 255.99 739 257.2 739H272.6V736.8H257.2V721.4ZM274.8 717H261.6C260.39 717 259.4 717.99 259.4 719.2V732.4C259.4 733.61 260.39 734.6 261.6 734.6H274.8C276.01 734.6 277 733.61 277 732.4V719.2C277 717.99 276.01 717 274.8 717ZM273.7 726.9H262.7V724.7H273.7V726.9ZM269.3 731.3H262.7V729.1H269.3V731.3ZM273.7 722.5H262.7V720.3H273.7V722.5Z" fill="#AAAAAA"/>
<path d="M97.24 752.112C96.9253 752.112 96.5867 752.069 96.224 751.984C95.8667 751.899 95.5867 751.805 95.384 751.704L95.504 750.616C96.208 750.957 96.8267 751.128 97.36 751.128C97.6427 751.128 97.864 751.075 98.024 750.968C98.184 750.856 98.264 750.693 98.264 750.48C98.264 750.32 98.2187 750.189 98.128 750.088C98.0427 749.981 97.9173 749.893 97.752 749.824C97.5867 749.749 97.3227 749.648 96.96 749.52C96.6187 749.403 96.336 749.28 96.112 749.152C95.888 749.019 95.7093 748.851 95.576 748.648C95.448 748.44 95.384 748.187 95.384 747.888C95.384 747.408 95.56 747.021 95.912 746.728C96.264 746.435 96.768 746.288 97.424 746.288C97.7333 746.288 98.04 746.323 98.344 746.392C98.6533 746.461 98.936 746.547 99.192 746.648L99.088 747.696C98.7573 747.552 98.4533 747.445 98.176 747.376C97.904 747.301 97.632 747.264 97.36 747.264C97.056 747.264 96.824 747.315 96.664 747.416C96.504 747.517 96.424 747.664 96.424 747.856C96.424 748.005 96.4667 748.128 96.552 748.224C96.6373 748.32 96.752 748.4 96.896 748.464C97.0453 748.528 97.264 748.605 97.552 748.696C98.1973 748.899 98.6667 749.133 98.96 749.4C99.2587 749.661 99.408 750.021 99.408 750.48C99.408 750.917 99.256 751.299 98.952 751.624C98.648 751.949 98.0773 752.112 97.24 752.112ZM99.6503 748H100.618L101.306 750.792L102.058 748.08H102.89L103.634 750.792L104.33 748H105.298L104.13 752H103.298L102.474 749.392L101.65 752H100.818L99.6503 748ZM106.672 752.08C106.341 752.08 106.064 751.973 105.84 751.76C105.621 751.541 105.512 751.248 105.512 750.88C105.512 750.533 105.637 750.256 105.888 750.048C106.138 749.835 106.434 749.685 106.776 749.6C107.117 749.509 107.445 749.459 107.76 749.448C107.749 749.213 107.688 749.045 107.576 748.944C107.469 748.843 107.29 748.792 107.04 748.792C106.864 748.792 106.69 748.816 106.52 748.864C106.354 748.912 106.162 748.989 105.944 749.096L105.856 748.288C106.341 748.053 106.826 747.936 107.312 747.936C107.781 747.936 108.138 748.064 108.384 748.32C108.634 748.576 108.76 748.984 108.76 749.544V750.624C108.76 750.827 108.768 750.973 108.784 751.064C108.805 751.149 108.837 751.205 108.88 751.232C108.928 751.253 109.005 751.264 109.112 751.264H109.24L109.152 752.08H108.792C108.573 752.08 108.389 752.04 108.24 751.96C108.09 751.875 107.976 751.76 107.896 751.616C107.768 751.76 107.592 751.875 107.368 751.96C107.149 752.04 106.917 752.08 106.672 752.08ZM107.088 751.32C107.189 751.32 107.304 751.296 107.432 751.248C107.56 751.195 107.672 751.123 107.768 751.032V750.12C107.448 750.136 107.165 750.205 106.92 750.328C106.674 750.451 106.552 750.621 106.552 750.84C106.552 751.005 106.594 751.128 106.68 751.208C106.765 751.283 106.901 751.32 107.088 751.32ZM111.88 747.936C112.259 747.936 112.584 748.029 112.856 748.216C113.128 748.403 113.333 748.653 113.472 748.968C113.611 749.283 113.68 749.629 113.68 750.008C113.68 750.387 113.611 750.733 113.472 751.048C113.333 751.363 113.128 751.613 112.856 751.8C112.584 751.987 112.259 752.08 111.88 752.08C111.64 752.08 111.435 752.053 111.264 752C111.099 751.952 110.939 751.872 110.784 751.76V753.936H109.792V748H110.592L110.696 748.368C110.867 748.224 111.045 748.117 111.232 748.048C111.419 747.973 111.635 747.936 111.88 747.936ZM111.728 751.264C112.021 751.264 112.251 751.149 112.416 750.92C112.581 750.691 112.664 750.387 112.664 750.008C112.664 749.629 112.581 749.325 112.416 749.096C112.251 748.867 112.021 748.752 111.728 748.752C111.397 748.752 111.149 748.864 110.984 749.088C110.819 749.312 110.736 749.619 110.736 750.008C110.736 750.397 110.819 750.704 110.984 750.928C111.149 751.152 111.397 751.264 111.728 751.264ZM115.506 752.08C115.25 752.08 115.016 752.056 114.802 752.008C114.594 751.96 114.378 751.885 114.154 751.784L114.242 750.936C114.466 751.069 114.674 751.171 114.866 751.24C115.064 751.304 115.266 751.336 115.474 751.336C115.88 751.336 116.082 751.203 116.082 750.936C116.082 750.792 116.029 750.683 115.922 750.608C115.816 750.528 115.624 750.435 115.346 750.328C114.952 750.184 114.661 750.021 114.474 749.84C114.288 749.653 114.194 749.403 114.194 749.088C114.194 748.741 114.328 748.461 114.594 748.248C114.861 748.029 115.221 747.92 115.674 747.92C116.128 747.92 116.541 748.024 116.914 748.232L116.826 749.08C116.624 748.941 116.432 748.835 116.25 748.76C116.074 748.685 115.888 748.648 115.69 748.648C115.52 748.648 115.386 748.683 115.29 748.752C115.2 748.821 115.154 748.92 115.154 749.048C115.154 749.149 115.181 749.232 115.234 749.296C115.293 749.36 115.373 749.419 115.474 749.472C115.576 749.52 115.744 749.589 115.978 749.68C116.368 749.829 116.648 749.995 116.818 750.176C116.989 750.352 117.074 750.589 117.074 750.888C117.074 751.267 116.938 751.56 116.666 751.768C116.394 751.976 116.008 752.08 115.506 752.08Z" fill="#AAAAAA"/>
<path d="M114.35 720.929L102.667 720.929L102.667 724.214L114.35 724.214L114.35 729.143L121 722.571L114.35 716L114.35 720.929ZM91 732.429L97.65 739L97.65 734.071L109.333 734.071L109.333 730.786L97.65 730.786L97.65 725.857L91 732.429Z" fill="#AAAAAA"/>
<path d="M159.616 746.4H161.712C162.245 746.4 162.72 746.512 163.136 746.736C163.557 746.96 163.885 747.283 164.12 747.704C164.355 748.125 164.472 748.624 164.472 749.2C164.472 749.776 164.355 750.275 164.12 750.696C163.885 751.117 163.557 751.44 163.136 751.664C162.72 751.888 162.245 752 161.712 752H159.616V746.4ZM161.712 751.088C162.245 751.088 162.651 750.923 162.928 750.592C163.211 750.256 163.352 749.792 163.352 749.2C163.352 748.608 163.211 748.147 162.928 747.816C162.651 747.48 162.245 747.312 161.712 747.312H160.64V751.088H161.712ZM167.103 752.08C166.639 752.08 166.242 751.987 165.911 751.8C165.586 751.608 165.34 751.355 165.175 751.04C165.015 750.72 164.935 750.365 164.935 749.976C164.935 749.603 165.012 749.261 165.167 748.952C165.322 748.643 165.546 748.397 165.839 748.216C166.132 748.029 166.482 747.936 166.887 747.936C167.26 747.936 167.575 748.013 167.831 748.168C168.092 748.323 168.287 748.531 168.415 748.792C168.548 749.053 168.615 749.347 168.615 749.672C168.615 749.832 168.594 750.013 168.551 750.216H165.967C166.02 750.568 166.159 750.832 166.383 751.008C166.607 751.179 166.876 751.264 167.191 751.264C167.623 751.264 168.023 751.155 168.391 750.936L168.439 751.776C168.268 751.867 168.068 751.941 167.839 752C167.615 752.053 167.37 752.08 167.103 752.08ZM167.607 749.544C167.607 749.336 167.548 749.152 167.431 748.992C167.314 748.832 167.132 748.752 166.887 748.752C166.642 748.752 166.444 748.824 166.295 748.968C166.146 749.112 166.044 749.304 165.991 749.544H167.607ZM170.876 754.016C170.311 754.016 169.86 753.912 169.524 753.704C169.188 753.501 169.02 753.224 169.02 752.872C169.02 752.488 169.236 752.173 169.668 751.928C169.433 751.784 169.316 751.595 169.316 751.36C169.316 751.237 169.351 751.128 169.42 751.032C169.495 750.936 169.593 750.859 169.716 750.8C169.513 750.656 169.359 750.472 169.252 750.248C169.151 750.024 169.1 749.779 169.1 749.512C169.1 749.219 169.164 748.952 169.292 748.712C169.42 748.467 169.607 748.275 169.852 748.136C170.097 747.992 170.388 747.92 170.724 747.92C171.076 747.92 171.38 748.005 171.636 748.176C171.727 748.128 171.847 748.088 171.996 748.056C172.151 748.019 172.316 748 172.492 748H172.748L172.684 748.624H172.324C172.233 748.624 172.159 748.627 172.1 748.632C172.26 748.877 172.34 749.171 172.34 749.512C172.34 749.805 172.276 750.075 172.148 750.32C172.025 750.56 171.841 750.752 171.596 750.896C171.351 751.035 171.06 751.104 170.724 751.104C170.601 751.104 170.46 751.085 170.3 751.048C170.241 751.075 170.212 751.117 170.212 751.176C170.212 751.245 170.252 751.301 170.332 751.344C170.417 751.381 170.559 751.413 170.756 751.44L171.444 751.528C172.361 751.651 172.82 752.037 172.82 752.688C172.82 753.093 172.647 753.416 172.3 753.656C171.959 753.896 171.484 754.016 170.876 754.016ZM170.724 750.368C170.953 750.368 171.129 750.293 171.252 750.144C171.38 749.989 171.444 749.779 171.444 749.512C171.444 749.245 171.38 749.037 171.252 748.888C171.129 748.733 170.953 748.656 170.724 748.656C170.489 748.656 170.308 748.733 170.18 748.888C170.057 749.037 169.996 749.245 169.996 749.512C169.996 749.779 170.057 749.989 170.18 750.144C170.308 750.293 170.489 750.368 170.724 750.368ZM170.916 753.264C171.599 753.264 171.94 753.096 171.94 752.76C171.94 752.611 171.881 752.499 171.764 752.424C171.647 752.355 171.452 752.299 171.18 752.256L170.3 752.128C169.996 752.251 169.844 752.437 169.844 752.688C169.844 752.88 169.937 753.024 170.124 753.12C170.311 753.216 170.575 753.264 170.916 753.264ZM173.3 746.4H174.292V747.392H173.3V746.4ZM173.3 748H174.292V752H173.3V748ZM176.526 752.08C176.174 752.08 175.907 751.979 175.726 751.776C175.544 751.568 175.454 751.32 175.454 751.032V748.816H174.886L174.974 748H175.454V747.12L176.446 747.016V748H177.326V748.816H176.446V750.624C176.446 750.837 176.456 750.987 176.478 751.072C176.504 751.152 176.555 751.205 176.63 751.232C176.71 751.253 176.851 751.264 177.054 751.264H177.326L177.238 752.08H176.526ZM178.836 752.08C178.505 752.08 178.228 751.973 178.004 751.76C177.785 751.541 177.676 751.248 177.676 750.88C177.676 750.533 177.801 750.256 178.052 750.048C178.302 749.835 178.598 749.685 178.94 749.6C179.281 749.509 179.609 749.459 179.924 749.448C179.913 749.213 179.852 749.045 179.74 748.944C179.633 748.843 179.454 748.792 179.204 748.792C179.028 748.792 178.854 748.816 178.684 748.864C178.518 748.912 178.326 748.989 178.108 749.096L178.02 748.288C178.505 748.053 178.99 747.936 179.476 747.936C179.945 747.936 180.302 748.064 180.548 748.32C180.798 748.576 180.924 748.984 180.924 749.544V750.624C180.924 750.827 180.932 750.973 180.948 751.064C180.969 751.149 181.001 751.205 181.044 751.232C181.092 751.253 181.169 751.264 181.276 751.264H181.404L181.316 752.08H180.956C180.737 752.08 180.553 752.04 180.404 751.96C180.254 751.875 180.14 751.76 180.06 751.616C179.932 751.76 179.756 751.875 179.532 751.96C179.313 752.04 179.081 752.08 178.836 752.08ZM179.252 751.32C179.353 751.32 179.468 751.296 179.596 751.248C179.724 751.195 179.836 751.123 179.932 751.032V750.12C179.612 750.136 179.329 750.205 179.084 750.328C178.838 750.451 178.716 750.621 178.716 750.84C178.716 751.005 178.758 751.128 178.844 751.208C178.929 751.283 179.065 751.32 179.252 751.32ZM182.98 752.08C182.639 752.08 182.383 751.984 182.212 751.792C182.042 751.595 181.956 751.341 181.956 751.032V746H182.948V750.624C182.948 750.837 182.959 750.989 182.98 751.08C183.007 751.165 183.05 751.219 183.108 751.24C183.172 751.256 183.279 751.264 183.428 751.264L183.34 752.08H182.98ZM188.911 750.672H186.871L186.407 752H185.415L187.407 746.4H188.375L190.367 752H189.375L188.911 750.672ZM188.591 749.776L187.895 747.776L187.191 749.776H188.591ZM191.991 752.08C191.735 752.08 191.5 752.056 191.287 752.008C191.079 751.96 190.863 751.885 190.639 751.784L190.727 750.936C190.951 751.069 191.159 751.171 191.351 751.24C191.548 751.304 191.751 751.336 191.959 751.336C192.364 751.336 192.567 751.203 192.567 750.936C192.567 750.792 192.513 750.683 192.407 750.608C192.3 750.528 192.108 750.435 191.831 750.328C191.436 750.184 191.145 750.021 190.959 749.84C190.772 749.653 190.679 749.403 190.679 749.088C190.679 748.741 190.812 748.461 191.079 748.248C191.345 748.029 191.705 747.92 192.159 747.92C192.612 747.92 193.025 748.024 193.399 748.232L193.311 749.08C193.108 748.941 192.916 748.835 192.735 748.76C192.559 748.685 192.372 748.648 192.175 748.648C192.004 748.648 191.871 748.683 191.775 748.752C191.684 748.821 191.639 748.92 191.639 749.048C191.639 749.149 191.665 749.232 191.719 749.296C191.777 749.36 191.857 749.419 191.959 749.472C192.06 749.52 192.228 749.589 192.463 749.68C192.852 749.829 193.132 749.995 193.303 750.176C193.473 750.352 193.559 750.589 193.559 750.888C193.559 751.267 193.423 751.56 193.151 751.768C192.879 751.976 192.492 752.08 191.991 752.08ZM195.373 752.08C195.117 752.08 194.883 752.056 194.669 752.008C194.461 751.96 194.245 751.885 194.021 751.784L194.109 750.936C194.333 751.069 194.541 751.171 194.733 751.24C194.931 751.304 195.133 751.336 195.341 751.336C195.747 751.336 195.949 751.203 195.949 750.936C195.949 750.792 195.896 750.683 195.789 750.608C195.683 750.528 195.491 750.435 195.213 750.328C194.819 750.184 194.528 750.021 194.341 749.84C194.155 749.653 194.061 749.403 194.061 749.088C194.061 748.741 194.195 748.461 194.461 748.248C194.728 748.029 195.088 747.92 195.541 747.92C195.995 747.92 196.408 748.024 196.781 748.232L196.693 749.08C196.491 748.941 196.299 748.835 196.117 748.76C195.941 748.685 195.755 748.648 195.557 748.648C195.387 748.648 195.253 748.683 195.157 748.752C195.067 748.821 195.021 748.92 195.021 749.048C195.021 749.149 195.048 749.232 195.101 749.296C195.16 749.36 195.24 749.419 195.341 749.472C195.443 749.52 195.611 749.589 195.845 749.68C196.235 749.829 196.515 749.995 196.685 750.176C196.856 750.352 196.941 750.589 196.941 750.888C196.941 751.267 196.805 751.56 196.533 751.768C196.261 751.976 195.875 752.08 195.373 752.08ZM199.548 752.08C199.084 752.08 198.687 751.987 198.356 751.8C198.031 751.608 197.786 751.355 197.62 751.04C197.46 750.72 197.38 750.365 197.38 749.976C197.38 749.603 197.458 749.261 197.612 748.952C197.767 748.643 197.991 748.397 198.284 748.216C198.578 748.029 198.927 747.936 199.332 747.936C199.706 747.936 200.02 748.013 200.276 748.168C200.538 748.323 200.732 748.531 200.86 748.792C200.994 749.053 201.06 749.347 201.06 749.672C201.06 749.832 201.039 750.013 200.996 750.216H198.412C198.466 750.568 198.604 750.832 198.828 751.008C199.052 751.179 199.322 751.264 199.636 751.264C200.068 751.264 200.468 751.155 200.836 750.936L200.884 751.776C200.714 751.867 200.514 751.941 200.284 752C200.06 752.053 199.815 752.08 199.548 752.08ZM200.052 749.544C200.052 749.336 199.994 749.152 199.876 748.992C199.759 748.832 199.578 748.752 199.332 748.752C199.087 748.752 198.89 748.824 198.74 748.968C198.591 749.112 198.49 749.304 198.436 749.544H200.052ZM203.041 752.08C202.689 752.08 202.423 751.979 202.241 751.776C202.06 751.568 201.969 751.32 201.969 751.032V748.816H201.401L201.489 748H201.969V747.12L202.961 747.016V748H203.841V748.816H202.961V750.624C202.961 750.837 202.972 750.987 202.993 751.072C203.02 751.152 203.071 751.205 203.145 751.232C203.225 751.253 203.367 751.264 203.569 751.264H203.841L203.753 752.08H203.041Z" fill="url(#paint0_linear)"/>
<path d="M192.514 724.195C193.709 725.489 194.406 727.182 194.505 728.925H195.999C195.9 726.784 195.053 724.693 193.609 723.099L192.514 724.195Z" fill="url(#paint1_linear)"/>
<path d="M179.865 736.144C181.508 737.787 183.699 738.783 186.04 738.883V737.389C184.396 737.289 182.803 736.692 181.558 735.646C181.01 735.845 180.463 735.995 179.865 736.144Z" fill="url(#paint2_linear)"/>
<path d="M187.035 737.338V738.832C189.176 738.732 191.268 737.886 192.861 736.442L191.815 735.396C190.471 736.541 188.778 737.239 187.035 737.338Z" fill="url(#paint3_linear)"/>
<path d="M192.514 734.7L193.559 735.746C195.003 734.153 195.85 732.061 195.949 729.92H194.456C194.356 731.663 193.659 733.356 192.514 734.7Z" fill="url(#paint4_linear)"/>
<path d="M182.852 731.911C181.508 733.106 179.865 733.754 178.072 733.903V735.397C180.213 735.297 182.305 734.451 183.898 733.007L182.852 731.911Z" fill="url(#paint5_linear)"/>
<path d="M186.987 725.438C186.887 723.297 186.04 721.205 184.596 719.612L183.551 720.658C184.746 722.002 185.393 723.645 185.543 725.438H186.987Z" fill="url(#paint6_linear)"/>
<path d="M177.078 718.019V716.525C174.937 716.625 172.845 717.471 171.252 718.915L172.298 719.961C173.642 718.816 175.335 718.119 177.078 718.019Z" fill="url(#paint7_linear)"/>
<path d="M178.072 718.019C179.815 718.119 181.508 718.816 182.852 720.011L183.898 718.965C182.305 717.471 180.213 716.625 178.072 716.525V718.019Z" fill="url(#paint8_linear)"/>
<path d="M169.658 725.438C169.757 723.695 170.455 722.002 171.65 720.658L170.604 719.612C169.11 721.205 168.264 723.297 168.164 725.438H169.658Z" fill="url(#paint9_linear)"/>
<path d="M192.861 722.403C191.118 720.809 188.877 719.963 186.537 719.963C186.437 719.963 186.288 719.963 186.139 719.963C186.487 720.461 186.786 720.959 186.985 721.457C188.728 721.556 190.421 722.253 191.765 723.448L192.861 722.403Z" fill="url(#paint10_linear)"/>
<path d="M190.571 728.127L188.779 729.322C188.53 729.472 188.231 729.422 188.082 729.173L188.032 729.123L187.683 728.376C187.484 729.422 187.036 730.468 186.488 731.414H190.024C190.073 730.318 190.273 729.223 190.571 728.127Z" fill="url(#paint11_linear)"/>
<path d="M184.595 732.261C186.039 730.668 186.886 728.577 186.986 726.436H185.492C185.392 728.178 184.695 729.871 183.5 731.216L184.595 732.261Z" fill="url(#paint12_linear)"/>
<path d="M171.252 732.957C172.845 734.401 174.937 735.248 177.078 735.347V733.854C175.335 733.754 173.642 733.057 172.298 731.862L171.252 732.957Z" fill="url(#paint13_linear)"/>
<path d="M179.417 725.939C179.267 725.889 179.168 725.789 179.118 725.64L177.574 722.204L176.031 725.64C175.931 725.889 175.632 725.988 175.383 725.889C175.334 725.889 175.334 725.839 175.334 725.839L173.541 724.644C173.89 725.69 174.039 726.785 174.089 727.93H181.06C181.11 726.835 181.309 725.739 181.608 724.644L179.815 725.839C179.715 725.939 179.566 725.939 179.417 725.939Z" fill="url(#paint14_linear)"/>
<path d="M177.575 718.966C173.741 718.966 170.604 722.103 170.604 725.937C170.604 729.772 173.741 732.909 177.575 732.909C181.409 732.909 184.546 729.772 184.546 725.937C184.546 722.103 181.409 718.966 177.575 718.966Z" fill="url(#paint15_linear)"/>
<path d="M169.658 726.436H168.164C168.264 728.577 169.11 730.668 170.554 732.261L171.6 731.216C170.455 729.871 169.757 728.178 169.658 726.436Z" fill="url(#paint16_linear)"/>
<path d="M187.433 722.501C187.483 722.7 187.533 722.849 187.583 723.048C188.081 724.891 189.126 731.165 182.504 735.099C185.641 737.289 189.973 736.543 192.214 733.406C193.06 732.211 193.459 730.816 193.459 729.372C193.508 725.937 190.919 722.999 187.433 722.501Z" fill="url(#paint17_linear)"/>
<rect x="120" y="785" width="135" height="5" rx="2.5" fill="#D6D9E4"/>
<path d="M16 100C16 94.4772 20.4772 90 26 90H349C354.523 90 359 94.4772 359 100V159C359 164.523 354.523 169 349 169H26C20.4772 169 16 164.523 16 159V100Z" fill="#44474C"/>
<rect x="26" y="121" width="323" height="38" rx="5.5" fill="white" fill-opacity="0.1"/>
<path d="M42.19 136.86H40.15V136H45.18V136.86H43.14V143H42.19V136.86ZM47.0924 142.78L45.0524 138.1H46.0524L47.5824 141.74L48.9624 138.1H49.9624L46.9624 145.42H45.9624L47.0924 142.78ZM53.6313 138C54.0646 138 54.4413 138.113 54.7613 138.34C55.0879 138.56 55.3379 138.863 55.5113 139.25C55.6846 139.637 55.7713 140.07 55.7713 140.55C55.7713 141.037 55.6879 141.473 55.5213 141.86C55.3613 142.24 55.1213 142.543 54.8013 142.77C54.4813 142.99 54.0913 143.1 53.6313 143.1C53.2913 143.1 52.9813 143.04 52.7013 142.92C52.4213 142.8 52.2013 142.627 52.0413 142.4V145.42H51.1413V138.1H51.8413L51.9413 138.78C52.3546 138.26 52.9179 138 53.6313 138ZM53.4613 142.3C53.8946 142.3 54.2346 142.147 54.4813 141.84C54.7279 141.527 54.8513 141.097 54.8513 140.55C54.8513 140.003 54.7279 139.577 54.4813 139.27C54.2346 138.957 53.8946 138.8 53.4613 138.8C53.0346 138.8 52.6813 138.95 52.4013 139.25C52.1279 139.55 51.9913 139.983 51.9913 140.55C51.9913 141.137 52.1279 141.577 52.4013 141.87C52.6746 142.157 53.0279 142.3 53.4613 142.3ZM59.5577 143.1C58.9977 143.1 58.5177 142.987 58.1177 142.76C57.7243 142.527 57.4243 142.213 57.2177 141.82C57.011 141.427 56.9077 140.99 56.9077 140.51C56.9077 140.05 57.001 139.63 57.1877 139.25C57.381 138.863 57.6577 138.56 58.0177 138.34C58.3843 138.113 58.8143 138 59.3077 138C59.9343 138 60.441 138.183 60.8277 138.55C61.221 138.917 61.4177 139.423 61.4177 140.07C61.4177 140.237 61.4043 140.397 61.3777 140.55H57.8277C57.8877 141.183 58.081 141.633 58.4077 141.9C58.7343 142.167 59.1543 142.3 59.6677 142.3C60.181 142.3 60.651 142.203 61.0777 142.01L61.1977 142.72C60.631 142.973 60.0843 143.1 59.5577 143.1ZM60.4877 139.93C60.4877 139.577 60.3877 139.3 60.1877 139.1C59.9877 138.9 59.6877 138.8 59.2877 138.8C58.901 138.8 58.5977 138.897 58.3777 139.09C58.1577 139.277 58.001 139.557 57.9077 139.93H60.4877ZM67.9109 138C68.5309 138 69.0043 138.203 69.3309 138.61C69.6576 139.017 69.8209 139.57 69.8209 140.27V143H68.9209V140.38C68.9209 139.84 68.8209 139.443 68.6209 139.19C68.4276 138.93 68.1243 138.8 67.7109 138.8C67.4576 138.8 67.2243 138.86 67.0109 138.98C66.7976 139.093 66.6176 139.257 66.4709 139.47V143H65.5609V135.5H66.4709V138.57C66.6643 138.383 66.8743 138.243 67.1009 138.15C67.3343 138.05 67.6043 138 67.9109 138ZM73.8409 143.1C73.2809 143.1 72.8009 142.987 72.4009 142.76C72.0075 142.527 71.7075 142.213 71.5009 141.82C71.2942 141.427 71.1909 140.99 71.1909 140.51C71.1909 140.05 71.2842 139.63 71.4709 139.25C71.6642 138.863 71.9409 138.56 72.3009 138.34C72.6675 138.113 73.0975 138 73.5909 138C74.2175 138 74.7242 138.183 75.1109 138.55C75.5042 138.917 75.7009 139.423 75.7009 140.07C75.7009 140.237 75.6875 140.397 75.6609 140.55H72.1109C72.1709 141.183 72.3642 141.633 72.6909 141.9C73.0175 142.167 73.4375 142.3 73.9509 142.3C74.4642 142.3 74.9342 142.203 75.3609 142.01L75.4809 142.72C74.9142 142.973 74.3675 143.1 73.8409 143.1ZM74.7709 139.93C74.7709 139.577 74.6709 139.3 74.4709 139.1C74.2709 138.9 73.9709 138.8 73.5709 138.8C73.1842 138.8 72.8809 138.897 72.6609 139.09C72.4409 139.277 72.2842 139.557 72.1909 139.93H74.7709ZM77.108 138.1H77.848L77.958 138.91C78.2114 138.597 78.4514 138.367 78.678 138.22C78.9114 138.073 79.1547 138 79.408 138C79.488 138 79.5647 138.01 79.638 138.03L79.548 139.02C79.4614 139 79.3614 138.99 79.248 138.99C79.0014 138.99 78.768 139.047 78.548 139.16C78.328 139.267 78.168 139.393 78.068 139.54V143H77.108V138.1ZM82.9952 143.1C82.4352 143.1 81.9552 142.987 81.5552 142.76C81.1618 142.527 80.8618 142.213 80.6552 141.82C80.4485 141.427 80.3452 140.99 80.3452 140.51C80.3452 140.05 80.4385 139.63 80.6252 139.25C80.8185 138.863 81.0952 138.56 81.4552 138.34C81.8218 138.113 82.2518 138 82.7452 138C83.3718 138 83.8785 138.183 84.2652 138.55C84.6585 138.917 84.8552 139.423 84.8552 140.07C84.8552 140.237 84.8418 140.397 84.8152 140.55H81.2652C81.3252 141.183 81.5185 141.633 81.8452 141.9C82.1718 142.167 82.5918 142.3 83.1052 142.3C83.6185 142.3 84.0885 142.203 84.5152 142.01L84.6352 142.72C84.0685 142.973 83.5218 143.1 82.9952 143.1ZM83.9252 139.93C83.9252 139.577 83.8252 139.3 83.6252 139.1C83.4252 138.9 83.1252 138.8 82.7252 138.8C82.3385 138.8 82.0352 138.897 81.8152 139.09C81.5952 139.277 81.4385 139.557 81.3452 139.93H83.9252Z" fill="#969696" fill-opacity="0.7"/>
<path d="M28.9 110.1C28.3467 110.1 27.87 109.987 27.47 109.76C27.0767 109.527 26.78 109.213 26.58 108.82C26.38 108.427 26.28 107.99 26.28 107.51C26.28 107.023 26.38 106.583 26.58 106.19C26.78 105.79 27.08 105.477 27.48 105.25C27.88 105.017 28.3667 104.9 28.94 104.9C29.4533 104.9 29.9 105.007 30.28 105.22L30.18 106.22C29.82 106.033 29.4467 105.94 29.06 105.94C28.5867 105.94 28.2167 106.083 27.95 106.37C27.6833 106.657 27.55 107.037 27.55 107.51C27.55 107.963 27.6867 108.34 27.96 108.64C28.2333 108.933 28.5967 109.08 29.05 109.08C29.43 109.08 29.81 108.97 30.19 108.75L30.3 109.8C30.12 109.893 29.9067 109.967 29.66 110.02C29.42 110.073 29.1667 110.1 28.9 110.1ZM34.1508 104.92C34.7841 104.92 35.2541 105.127 35.5608 105.54C35.8741 105.947 36.0308 106.507 36.0308 107.22V110H34.7908V107.31C34.7908 106.837 34.7141 106.49 34.5608 106.27C34.4074 106.05 34.1641 105.94 33.8308 105.94C33.4374 105.94 33.1141 106.083 32.8608 106.37V110H31.6208V102.5H32.8608V105.32C33.0608 105.193 33.2641 105.097 33.4708 105.03C33.6774 104.957 33.9041 104.92 34.1508 104.92ZM38.7186 110.1C38.3053 110.1 37.9586 109.967 37.6786 109.7C37.4053 109.427 37.2686 109.06 37.2686 108.6C37.2686 108.167 37.4253 107.82 37.7386 107.56C38.0519 107.293 38.4219 107.107 38.8486 107C39.2753 106.887 39.6853 106.823 40.0786 106.81C40.0653 106.517 39.9886 106.307 39.8486 106.18C39.7153 106.053 39.4919 105.99 39.1786 105.99C38.9586 105.99 38.7419 106.02 38.5286 106.08C38.3219 106.14 38.0819 106.237 37.8086 106.37L37.6986 105.36C38.3053 105.067 38.9119 104.92 39.5186 104.92C40.1053 104.92 40.5519 105.08 40.8586 105.4C41.1719 105.72 41.3286 106.23 41.3286 106.93V108.28C41.3286 108.533 41.3386 108.717 41.3586 108.83C41.3853 108.937 41.4253 109.007 41.4786 109.04C41.5386 109.067 41.6353 109.08 41.7686 109.08H41.9286L41.8186 110.1H41.3686C41.0953 110.1 40.8653 110.05 40.6786 109.95C40.4919 109.843 40.3486 109.7 40.2486 109.52C40.0886 109.7 39.8686 109.843 39.5886 109.95C39.3153 110.05 39.0253 110.1 38.7186 110.1ZM39.2386 109.15C39.3653 109.15 39.5086 109.12 39.6686 109.06C39.8286 108.993 39.9686 108.903 40.0886 108.79V107.65C39.6886 107.67 39.3353 107.757 39.0286 107.91C38.7219 108.063 38.5686 108.277 38.5686 108.55C38.5686 108.757 38.6219 108.91 38.7286 109.01C38.8353 109.103 39.0053 109.15 39.2386 109.15ZM45.6391 104.92C46.2591 104.92 46.7291 105.127 47.0491 105.54C47.3691 105.953 47.5291 106.51 47.5291 107.21V110H46.2891V107.31C46.2891 106.843 46.2091 106.5 46.0491 106.28C45.8957 106.053 45.6457 105.94 45.2991 105.94C44.9191 105.94 44.6057 106.083 44.3591 106.37V110H43.1191V105H44.2791L44.2991 105.35C44.7191 105.063 45.1657 104.92 45.6391 104.92ZM51.6566 104.92C52.2766 104.92 52.7466 105.127 53.0666 105.54C53.3866 105.953 53.5466 106.51 53.5466 107.21V110H52.3066V107.31C52.3066 106.843 52.2266 106.5 52.0666 106.28C51.9133 106.053 51.6633 105.94 51.3166 105.94C50.9366 105.94 50.6233 106.083 50.3766 106.37V110H49.1366V105H50.2966L50.3166 105.35C50.7366 105.063 51.1833 104.92 51.6566 104.92ZM57.5642 110.1C56.9842 110.1 56.4876 109.983 56.0742 109.75C55.6676 109.51 55.3609 109.193 55.1542 108.8C54.9542 108.4 54.8542 107.957 54.8542 107.47C54.8542 107.003 54.9509 106.577 55.1442 106.19C55.3376 105.803 55.6176 105.497 55.9842 105.27C56.3509 105.037 56.7876 104.92 57.2942 104.92C57.7609 104.92 58.1542 105.017 58.4742 105.21C58.8009 105.403 59.0442 105.663 59.2042 105.99C59.3709 106.317 59.4542 106.683 59.4542 107.09C59.4542 107.29 59.4276 107.517 59.3742 107.77H56.1442C56.2109 108.21 56.3842 108.54 56.6642 108.76C56.9442 108.973 57.2809 109.08 57.6742 109.08C58.2142 109.08 58.7142 108.943 59.1742 108.67L59.2342 109.72C59.0209 109.833 58.7709 109.927 58.4842 110C58.2042 110.067 57.8976 110.1 57.5642 110.1ZM58.1942 106.93C58.1942 106.67 58.1209 106.44 57.9742 106.24C57.8276 106.04 57.6009 105.94 57.2942 105.94C56.9876 105.94 56.7409 106.03 56.5542 106.21C56.3676 106.39 56.2409 106.63 56.1742 106.93H58.1942ZM62.0807 110.1C61.654 110.1 61.334 109.98 61.1207 109.74C60.9074 109.493 60.8007 109.177 60.8007 108.79V102.5H62.0407V108.28C62.0407 108.547 62.054 108.737 62.0807 108.85C62.114 108.957 62.1674 109.023 62.2407 109.05C62.3207 109.07 62.454 109.08 62.6407 109.08L62.5307 110.1H62.0807ZM69.1938 104.92C69.8138 104.92 70.2838 105.127 70.6038 105.54C70.9238 105.953 71.0838 106.51 71.0838 107.21V110H69.8438V107.31C69.8438 106.843 69.7638 106.5 69.6038 106.28C69.4504 106.053 69.2004 105.94 68.8538 105.94C68.4738 105.94 68.1604 106.083 67.9138 106.37V110H66.6738V105H67.8338L67.8538 105.35C68.2738 105.063 68.7204 104.92 69.1938 104.92ZM73.7713 110.1C73.358 110.1 73.0113 109.967 72.7313 109.7C72.458 109.427 72.3213 109.06 72.3213 108.6C72.3213 108.167 72.478 107.82 72.7913 107.56C73.1047 107.293 73.4747 107.107 73.9013 107C74.328 106.887 74.738 106.823 75.1313 106.81C75.118 106.517 75.0413 106.307 74.9013 106.18C74.768 106.053 74.5447 105.99 74.2313 105.99C74.0113 105.99 73.7947 106.02 73.5813 106.08C73.3747 106.14 73.1347 106.237 72.8613 106.37L72.7513 105.36C73.358 105.067 73.9647 104.92 74.5713 104.92C75.158 104.92 75.6047 105.08 75.9113 105.4C76.2247 105.72 76.3813 106.23 76.3813 106.93V108.28C76.3813 108.533 76.3913 108.717 76.4113 108.83C76.438 108.937 76.478 109.007 76.5313 109.04C76.5913 109.067 76.688 109.08 76.8213 109.08H76.9813L76.8713 110.1H76.4213C76.148 110.1 75.918 110.05 75.7313 109.95C75.5447 109.843 75.4013 109.7 75.3013 109.52C75.1413 109.7 74.9213 109.843 74.6413 109.95C74.368 110.05 74.078 110.1 73.7713 110.1ZM74.2913 109.15C74.418 109.15 74.5613 109.12 74.7213 109.06C74.8813 108.993 75.0213 108.903 75.1413 108.79V107.65C74.7413 107.67 74.388 107.757 74.0813 107.91C73.7747 108.063 73.6213 108.277 73.6213 108.55C73.6213 108.757 73.6747 108.91 73.7813 109.01C73.888 109.103 74.058 109.15 74.2913 109.15ZM83.7818 104.92C84.4485 104.92 84.9418 105.123 85.2618 105.53C85.5885 105.93 85.7518 106.493 85.7518 107.22V110H84.5118V107.31C84.5118 106.837 84.4385 106.49 84.2918 106.27C84.1451 106.05 83.9051 105.94 83.5718 105.94C83.2451 105.94 82.9985 106.053 82.8318 106.28C82.6651 106.5 82.5818 106.813 82.5818 107.22V110H81.3418V107.31C81.3418 106.837 81.2651 106.49 81.1118 106.27C80.9585 106.05 80.7151 105.94 80.3818 105.94C79.9885 105.94 79.6651 106.083 79.4118 106.37V110H78.1718V105H79.2318L79.2718 105.4C79.7251 105.08 80.2151 104.92 80.7418 104.92C81.3818 104.92 81.8585 105.15 82.1718 105.61C82.3451 105.39 82.5718 105.22 82.8518 105.1C83.1318 104.98 83.4418 104.92 83.7818 104.92ZM89.7732 110.1C89.1932 110.1 88.6965 109.983 88.2832 109.75C87.8765 109.51 87.5699 109.193 87.3632 108.8C87.1632 108.4 87.0632 107.957 87.0632 107.47C87.0632 107.003 87.1599 106.577 87.3532 106.19C87.5465 105.803 87.8265 105.497 88.1932 105.27C88.5599 105.037 88.9965 104.92 89.5032 104.92C89.9699 104.92 90.3632 105.017 90.6832 105.21C91.0099 105.403 91.2532 105.663 91.4132 105.99C91.5799 106.317 91.6632 106.683 91.6632 107.09C91.6632 107.29 91.6365 107.517 91.5832 107.77H88.3532C88.4199 108.21 88.5932 108.54 88.8732 108.76C89.1532 108.973 89.4899 109.08 89.8832 109.08C90.4232 109.08 90.9232 108.943 91.3832 108.67L91.4432 109.72C91.2299 109.833 90.9799 109.927 90.6932 110C90.4132 110.067 90.1065 110.1 89.7732 110.1ZM90.4032 106.93C90.4032 106.67 90.3299 106.44 90.1832 106.24C90.0365 106.04 89.8099 105.94 89.5032 105.94C89.1965 105.94 88.9499 106.03 88.7632 106.21C88.5765 106.39 88.4499 106.63 88.3832 106.93H90.4032Z" fill="white"/>
<path d="M28 45.4675L20.583 53.5L28 61.5325L25.7166 64L16 53.5L25.7166 43L28 45.4675Z" fill="white"/>
<g filter="url(#filter1_d)">
<rect x="16" y="181" width="343" height="52" rx="10" fill="url(#paint18_linear)"/>
</g>
<path d="M169.092 213.252C167.82 213.252 166.692 212.982 165.708 212.442C164.736 211.902 163.98 211.14 163.44 210.156C162.9 209.16 162.63 208.008 162.63 206.7C162.63 205.404 162.906 204.264 163.458 203.28C164.022 202.284 164.796 201.516 165.78 200.976C166.776 200.424 167.904 200.148 169.164 200.148C170.376 200.148 171.462 200.394 172.422 200.886L172.17 203.082C171.654 202.854 171.156 202.68 170.676 202.56C170.208 202.428 169.698 202.362 169.146 202.362C167.862 202.362 166.872 202.758 166.176 203.55C165.492 204.342 165.15 205.392 165.15 206.7C165.15 208.008 165.486 209.058 166.158 209.85C166.842 210.642 167.82 211.038 169.092 211.038C169.656 211.038 170.172 210.978 170.64 210.858C171.12 210.738 171.63 210.558 172.17 210.318L172.422 212.514C171.378 213.006 170.268 213.252 169.092 213.252ZM174.013 204H176.101L176.155 204.954C176.419 204.654 176.755 204.39 177.163 204.162C177.583 203.934 178.021 203.82 178.477 203.82C178.621 203.82 178.753 203.832 178.873 203.856L178.711 206.052C178.483 205.992 178.225 205.962 177.937 205.962C177.565 205.962 177.223 206.052 176.911 206.232C176.599 206.4 176.377 206.61 176.245 206.862V213H174.013V204ZM184.134 213.18C183.09 213.18 182.196 212.97 181.452 212.55C180.72 212.118 180.168 211.548 179.796 210.84C179.436 210.12 179.256 209.322 179.256 208.446C179.256 207.606 179.43 206.838 179.778 206.142C180.126 205.446 180.63 204.894 181.29 204.486C181.95 204.066 182.736 203.856 183.648 203.856C184.488 203.856 185.196 204.03 185.772 204.378C186.36 204.726 186.798 205.194 187.086 205.782C187.386 206.37 187.536 207.03 187.536 207.762C187.536 208.122 187.488 208.53 187.392 208.986H181.578C181.698 209.778 182.01 210.372 182.514 210.768C183.018 211.152 183.624 211.344 184.332 211.344C185.304 211.344 186.204 211.098 187.032 210.606L187.14 212.496C186.756 212.7 186.306 212.868 185.79 213C185.286 213.12 184.734 213.18 184.134 213.18ZM185.268 207.474C185.268 207.006 185.136 206.592 184.872 206.232C184.608 205.872 184.2 205.692 183.648 205.692C183.096 205.692 182.652 205.854 182.316 206.178C181.98 206.502 181.752 206.934 181.632 207.474H185.268ZM191.004 213.18C190.26 213.18 189.636 212.94 189.132 212.46C188.64 211.968 188.394 211.308 188.394 210.48C188.394 209.7 188.676 209.076 189.24 208.608C189.804 208.128 190.47 207.792 191.238 207.6C192.006 207.396 192.744 207.282 193.452 207.258C193.428 206.73 193.29 206.352 193.038 206.124C192.798 205.896 192.396 205.782 191.832 205.782C191.436 205.782 191.046 205.836 190.662 205.944C190.29 206.052 189.858 206.226 189.366 206.466L189.168 204.648C190.26 204.12 191.352 203.856 192.444 203.856C193.5 203.856 194.304 204.144 194.856 204.72C195.42 205.296 195.702 206.214 195.702 207.474V209.904C195.702 210.36 195.72 210.69 195.756 210.894C195.804 211.086 195.876 211.212 195.972 211.272C196.08 211.32 196.254 211.344 196.494 211.344H196.782L196.584 213.18H195.774C195.282 213.18 194.868 213.09 194.532 212.91C194.196 212.718 193.938 212.46 193.758 212.136C193.47 212.46 193.074 212.718 192.57 212.91C192.078 213.09 191.556 213.18 191.004 213.18ZM191.94 211.47C192.168 211.47 192.426 211.416 192.714 211.308C193.002 211.188 193.254 211.026 193.47 210.822V208.77C192.75 208.806 192.114 208.962 191.562 209.238C191.01 209.514 190.734 209.898 190.734 210.39C190.734 210.762 190.83 211.038 191.022 211.218C191.214 211.386 191.52 211.47 191.94 211.47ZM200.818 213.18C200.026 213.18 199.426 212.952 199.018 212.496C198.61 212.028 198.406 211.47 198.406 210.822V205.836H197.128L197.326 204H198.406V202.02L200.638 201.786V204H202.618V205.836H200.638V209.904C200.638 210.384 200.662 210.72 200.71 210.912C200.77 211.092 200.884 211.212 201.052 211.272C201.232 211.32 201.55 211.344 202.006 211.344H202.618L202.42 213.18H200.818ZM208.409 213.18C207.365 213.18 206.471 212.97 205.727 212.55C204.995 212.118 204.443 211.548 204.071 210.84C203.711 210.12 203.531 209.322 203.531 208.446C203.531 207.606 203.705 206.838 204.053 206.142C204.401 205.446 204.905 204.894 205.565 204.486C206.225 204.066 207.011 203.856 207.923 203.856C208.763 203.856 209.471 204.03 210.047 204.378C210.635 204.726 211.073 205.194 211.361 205.782C211.661 206.37 211.811 207.03 211.811 207.762C211.811 208.122 211.763 208.53 211.667 208.986H205.853C205.973 209.778 206.285 210.372 206.789 210.768C207.293 211.152 207.899 211.344 208.607 211.344C209.579 211.344 210.479 211.098 211.307 210.606L211.415 212.496C211.031 212.7 210.581 212.868 210.065 213C209.561 213.12 209.009 213.18 208.409 213.18ZM209.543 207.474C209.543 207.006 209.411 206.592 209.147 206.232C208.883 205.872 208.475 205.692 207.923 205.692C207.371 205.692 206.927 205.854 206.591 206.178C206.255 206.502 206.027 206.934 205.907 207.474H209.543Z" fill="white"/>
<path d="M340 63C340.962 63 341.75 62.1692 341.75 61.1538H338.25C338.25 62.1692 339.029 63 340 63ZM345.25 57.4615V52.8462C345.25 50.0123 343.815 47.64 341.312 47.0123V46.3846C341.312 45.6185 340.726 45 340 45C339.274 45 338.687 45.6185 338.687 46.3846V47.0123C336.176 47.64 334.75 50.0031 334.75 52.8462V57.4615L333 59.3077V60.2308H347V59.3077L345.25 57.4615Z" fill="white"/>
<path d="M309.2 47H294.8C293.81 47 293.009 47.7875 293.009 48.75L293 59.25C293 60.2125 293.81 61 294.8 61H309.2C310.19 61 311 60.2125 311 59.25V48.75C311 47.7875 310.19 47 309.2 47ZM309.2 50.5L302 54.875L294.8 50.5V48.75L302 53.125L309.2 48.75V50.5Z" fill="url(#paint19_linear)"/>
<circle opacity="0.3" cx="313.5" cy="45.5" r="12.5" fill="url(#paint20_linear)"/>
<circle cx="313.5" cy="45.5" r="7.5" fill="url(#paint21_linear)"/>
<path d="M313.28 46.17C313.667 45.5767 313.93 45.13 314.07 44.83C314.217 44.53 314.29 44.2467 314.29 43.98C314.29 43.6933 314.207 43.47 314.04 43.31C313.88 43.1433 313.657 43.06 313.37 43.06C313.05 43.06 312.753 43.1367 312.48 43.29C312.207 43.4433 311.94 43.65 311.68 43.91L311.52 42.62C311.833 42.3667 312.16 42.1767 312.5 42.05C312.84 41.9233 313.217 41.86 313.63 41.86C314.037 41.86 314.383 41.9467 314.67 42.12C314.957 42.2867 315.17 42.5133 315.31 42.8C315.457 43.0867 315.53 43.4033 315.53 43.75C315.53 44.1433 315.443 44.5467 315.27 44.96C315.103 45.3733 314.807 45.9033 314.38 46.55L313.56 47.8H315.78V49H311.44L313.28 46.17Z" fill="white"/>
<defs>
<filter id="filter0_d" x="-20" y="684" width="415" height="133" filterUnits="userSpaceOnUse" color-interpolation-filters="sRGB">
<feFlood flood-opacity="0" result="BackgroundImageFix"/>
<feColorMatrix in="SourceAlpha" type="matrix" values="0 0 0 0 0 0 0 0 0 0 0 0 0 0 0 0 0 0 127 0"/>
<feOffset dy="-1"/>
<feGaussianBlur stdDeviation="10"/>
<feColorMatrix type="matrix" values="0 0 0 0 0 0 0 0 0 0 0 0 0 0 0 0 0 0 0.1 0"/>
<feBlend mode="normal" in2="BackgroundImageFix" result="effect1_dropShadow"/>
<feBlend mode="normal" in="SourceGraphic" in2="effect1_dropShadow" result="shape"/>
</filter>
<filter id="filter1_d" x="8" y="177" width="359" height="68" filterUnits="userSpaceOnUse" color-interpolation-filters="sRGB">
<feFlood flood-opacity="0" result="BackgroundImageFix"/>
<feColorMatrix in="SourceAlpha" type="matrix" values="0 0 0 0 0 0 0 0 0 0 0 0 0 0 0 0 0 0 127 0"/>
<feOffset dy="4"/>
<feGaussianBlur stdDeviation="4"/>
<feColorMatrix type="matrix" values="0 0 0 0 0.886275 0 0 0 0 0.509804 0 0 0 0 0.529412 0 0 0 0.26 0"/>
<feBlend mode="normal" in2="BackgroundImageFix" result="effect1_dropShadow"/>
<feBlend mode="normal" in="SourceGraphic" in2="effect1_dropShadow" result="shape"/>
</filter>
<linearGradient id="paint0_linear" x1="182" y1="744" x2="182" y2="754" gradientUnits="userSpaceOnUse">
<stop stop-color="#926CB3"/>
<stop offset="1" stop-color="#E18B8B"/>
</linearGradient>
<linearGradient id="paint1_linear" x1="194.256" y1="723.099" x2="194.256" y2="728.925" gradientUnits="userSpaceOnUse">
<stop stop-color="#926CB3"/>
<stop offset="1" stop-color="#E18B8B"/>
</linearGradient>
<linearGradient id="paint2_linear" x1="182.952" y1="735.646" x2="182.952" y2="738.883" gradientUnits="userSpaceOnUse">
<stop stop-color="#926CB3"/>
<stop offset="1" stop-color="#E18B8B"/>
</linearGradient>
<linearGradient id="paint3_linear" x1="189.948" y1="735.396" x2="189.948" y2="738.832" gradientUnits="userSpaceOnUse">
<stop stop-color="#926CB3"/>
<stop offset="1" stop-color="#E18B8B"/>
</linearGradient>
<linearGradient id="paint4_linear" x1="194.232" y1="729.92" x2="194.232" y2="735.746" gradientUnits="userSpaceOnUse">
<stop stop-color="#926CB3"/>
<stop offset="1" stop-color="#E18B8B"/>
</linearGradient>
<linearGradient id="paint5_linear" x1="180.985" y1="731.911" x2="180.985" y2="735.397" gradientUnits="userSpaceOnUse">
<stop stop-color="#926CB3"/>
<stop offset="1" stop-color="#E18B8B"/>
</linearGradient>
<linearGradient id="paint6_linear" x1="185.269" y1="719.612" x2="185.269" y2="725.438" gradientUnits="userSpaceOnUse">
<stop stop-color="#926CB3"/>
<stop offset="1" stop-color="#E18B8B"/>
</linearGradient>
<linearGradient id="paint7_linear" x1="174.165" y1="716.525" x2="174.165" y2="719.961" gradientUnits="userSpaceOnUse">
<stop stop-color="#926CB3"/>
<stop offset="1" stop-color="#E18B8B"/>
</linearGradient>
<linearGradient id="paint8_linear" x1="180.985" y1="716.525" x2="180.985" y2="720.011" gradientUnits="userSpaceOnUse">
<stop stop-color="#926CB3"/>
<stop offset="1" stop-color="#E18B8B"/>
</linearGradient>
<linearGradient id="paint9_linear" x1="169.907" y1="719.612" x2="169.907" y2="725.438" gradientUnits="userSpaceOnUse">
<stop stop-color="#926CB3"/>
<stop offset="1" stop-color="#E18B8B"/>
</linearGradient>
<linearGradient id="paint10_linear" x1="189.5" y1="719.963" x2="189.5" y2="723.448" gradientUnits="userSpaceOnUse">
<stop stop-color="#926CB3"/>
<stop offset="1" stop-color="#E18B8B"/>
</linearGradient>
<linearGradient id="paint11_linear" x1="188.53" y1="728.127" x2="188.53" y2="731.414" gradientUnits="userSpaceOnUse">
<stop stop-color="#926CB3"/>
<stop offset="1" stop-color="#E18B8B"/>
</linearGradient>
<linearGradient id="paint12_linear" x1="185.243" y1="726.436" x2="185.243" y2="732.261" gradientUnits="userSpaceOnUse">
<stop stop-color="#926CB3"/>
<stop offset="1" stop-color="#E18B8B"/>
</linearGradient>
<linearGradient id="paint13_linear" x1="174.165" y1="731.862" x2="174.165" y2="735.347" gradientUnits="userSpaceOnUse">
<stop stop-color="#926CB3"/>
<stop offset="1" stop-color="#E18B8B"/>
</linearGradient>
<linearGradient id="paint14_linear" x1="177.574" y1="722.204" x2="177.574" y2="727.93" gradientUnits="userSpaceOnUse">
<stop stop-color="#926CB3"/>
<stop offset="1" stop-color="#E18B8B"/>
</linearGradient>
<linearGradient id="paint15_linear" x1="177.575" y1="718.966" x2="177.575" y2="732.909" gradientUnits="userSpaceOnUse">
<stop stop-color="#926CB3"/>
<stop offset="1" stop-color="#E18B8B"/>
</linearGradient>
<linearGradient id="paint16_linear" x1="169.882" y1="726.436" x2="169.882" y2="732.261" gradientUnits="userSpaceOnUse">
<stop stop-color="#926CB3"/>
<stop offset="1" stop-color="#E18B8B"/>
</linearGradient>
<linearGradient id="paint17_linear" x1="187.982" y1="722.501" x2="187.982" y2="736.354" gradientUnits="userSpaceOnUse">
<stop stop-color="#926CB3"/>
<stop offset="1" stop-color="#E18B8B"/>
</linearGradient>
<linearGradient id="paint18_linear" x1="187.5" y1="181" x2="187.5" y2="233" gradientUnits="userSpaceOnUse">
<stop stop-color="#926CB3"/>
<stop offset="1" stop-color="#E18B8B"/>
</linearGradient>
<linearGradient id="paint19_linear" x1="302" y1="47" x2="302" y2="61" gradientUnits="userSpaceOnUse">
<stop stop-color="#926CB3"/>
<stop offset="1" stop-color="#E18B8B"/>
</linearGradient>
<linearGradient id="paint20_linear" x1="313.5" y1="33" x2="313.5" y2="58" gradientUnits="userSpaceOnUse">
<stop stop-color="#926CB3"/>
<stop offset="1" stop-color="#E18B8B"/>
</linearGradient>
<linearGradient id="paint21_linear" x1="313.5" y1="38" x2="313.5" y2="53" gradientUnits="userSpaceOnUse">
<stop stop-color="#926CB3"/>
<stop offset="1" stop-color="#E18B8B"/>
</linearGradient>
</defs>
</svg>
