<svg width="375" height="812" viewBox="0 0 375 812" fill="none" xmlns="http://www.w3.org/2000/svg">
<g clip-path="url(#clip0)">
<rect width="375" height="812" fill="#36393E"/>
<path opacity="0.35" d="M336.5 20.0002C336.5 18.8035 337.47 17.8335 338.667 17.8335H355.333C356.53 17.8335 357.5 18.8035 357.5 20.0002V26.0002C357.5 27.1968 356.53 28.1668 355.333 28.1668H338.667C337.47 28.1668 336.5 27.1968 336.5 26.0002V20.0002Z" stroke="white"/>
<path opacity="0.4" d="M359 21V25C359.805 24.6612 360.328 23.8731 360.328 23C360.328 22.1269 359.805 21.3388 359 21Z" fill="white"/>
<path d="M338 20.6668C338 19.9305 338.597 19.3335 339.333 19.3335H354.667C355.403 19.3335 356 19.9304 356 20.6668V25.3335C356 26.0699 355.403 26.6668 354.667 26.6668H339.333C338.597 26.6668 338 26.0699 338 25.3335V20.6668Z" fill="white"/>
<path d="M323.33 19.6079C325.546 19.608 327.678 20.4594 329.283 21.9862C329.404 22.1041 329.598 22.1026 329.717 21.9829L330.873 20.8162C330.933 20.7555 330.967 20.6733 330.966 20.5877C330.966 20.5021 330.931 20.4202 330.87 20.3602C326.655 16.3207 320.005 16.3207 315.79 20.3602C315.729 20.4202 315.694 20.502 315.694 20.5876C315.693 20.6732 315.727 20.7555 315.787 20.8162L316.943 21.9829C317.062 22.1028 317.256 22.1043 317.377 21.9862C318.983 20.4593 321.114 19.6079 323.33 19.6079Z" fill="white"/>
<path d="M323.33 23.4035C324.548 23.4034 325.722 23.8559 326.624 24.6731C326.746 24.7891 326.939 24.7866 327.058 24.6675L328.212 23.5008C328.273 23.4396 328.307 23.3566 328.306 23.2703C328.305 23.1841 328.27 23.1017 328.208 23.0418C325.459 20.4854 321.203 20.4854 318.455 23.0418C318.393 23.1017 318.358 23.1841 318.357 23.2704C318.356 23.3567 318.39 23.4397 318.451 23.5008L319.605 24.6675C319.724 24.7866 319.917 24.7891 320.039 24.6731C320.94 23.8565 322.114 23.404 323.33 23.4035Z" fill="white"/>
<path d="M325.549 26.188C325.611 26.1274 325.645 26.044 325.643 25.9575C325.642 25.871 325.604 25.7891 325.54 25.731C324.264 24.6522 322.396 24.6522 321.121 25.731C321.056 25.789 321.019 25.8709 321.017 25.9575C321.015 26.044 321.049 26.1274 321.111 26.188L323.109 28.2037C323.167 28.2629 323.247 28.2963 323.33 28.2963C323.414 28.2963 323.493 28.2629 323.552 28.2037L325.549 26.188Z" fill="white"/>
<path d="M294.667 24.333H295.667C296.219 24.333 296.667 24.7807 296.667 25.333V27.333C296.667 27.8853 296.219 28.333 295.667 28.333H294.667C294.114 28.333 293.667 27.8853 293.667 27.333V25.333C293.667 24.7807 294.114 24.333 294.667 24.333Z" fill="white"/>
<path d="M299.333 22.333H300.333C300.885 22.333 301.333 22.7807 301.333 23.333V27.333C301.333 27.8853 300.885 28.333 300.333 28.333H299.333C298.781 28.333 298.333 27.8853 298.333 27.333V23.333C298.333 22.7807 298.781 22.333 299.333 22.333Z" fill="white"/>
<path d="M304 20H305C305.552 20 306 20.4477 306 21V27.3333C306 27.8856 305.552 28.3333 305 28.3333H304C303.448 28.3333 303 27.8856 303 27.3333V21C303 20.4477 303.448 20 304 20Z" fill="white"/>
<path d="M308.667 17.6665H309.667C310.219 17.6665 310.667 18.1142 310.667 18.6665V27.3332C310.667 27.8855 310.219 28.3332 309.667 28.3332H308.667C308.114 28.3332 307.667 27.8855 307.667 27.3332V18.6665C307.667 18.1142 308.114 17.6665 308.667 17.6665V17.6665Z" fill="white"/>
<path d="M39.5278 17.29C40.2478 17.29 40.8828 17.455 41.4328 17.785C41.9828 18.105 42.4078 18.56 42.7078 19.15C43.0078 19.74 43.1578 20.425 43.1578 21.205C43.1578 22.225 42.9228 23.19 42.4528 24.1C41.9928 25 41.4078 25.78 40.6978 26.44C39.9878 27.1 39.2578 27.62 38.5078 28L37.1728 26.95C37.8628 26.61 38.5828 26.12 39.3328 25.48C40.0928 24.84 40.6578 24.12 41.0278 23.32C40.5278 23.65 39.9028 23.815 39.1528 23.815C38.5728 23.815 38.0478 23.68 37.5778 23.41C37.1078 23.14 36.7378 22.765 36.4678 22.285C36.2078 21.805 36.0778 21.26 36.0778 20.65C36.0778 19.99 36.2178 19.405 36.4978 18.895C36.7778 18.385 37.1778 17.99 37.6978 17.71C38.2178 17.43 38.8278 17.29 39.5278 17.29ZM39.4978 22.165C39.9778 22.165 40.3728 22.015 40.6828 21.715C40.9928 21.415 41.1478 21.035 41.1478 20.575C41.1478 20.115 40.9928 19.73 40.6828 19.42C40.3728 19.1 39.9778 18.94 39.4978 18.94C39.0278 18.94 38.6328 19.1 38.3128 19.42C38.0028 19.73 37.8478 20.115 37.8478 20.575C37.8478 21.035 38.0028 21.415 38.3128 21.715C38.6328 22.015 39.0278 22.165 39.4978 22.165ZM44.1707 20.5H46.1207V22.54H44.1707V20.5ZM44.1707 25.96H46.1207V28H44.1707V25.96ZM55.0409 24.04V25.6H53.6909V28H51.8459V25.6H46.6109L52.3859 17.5H53.6909V24.04H55.0409ZM51.8459 24.04V20.815L49.5809 24.04H51.8459ZM57.5651 20.215C57.1451 20.495 56.7051 20.675 56.2451 20.755L56.0801 19.135C56.4101 19.065 56.7801 18.865 57.1901 18.535C57.6001 18.195 57.8751 17.85 58.0151 17.5H59.4851V28H57.5651V20.215Z" fill="white"/>
<g filter="url(#filter0_d)">
<rect y="719" width="375" height="93" fill="#474A4F"/>
</g>
<path d="M27 734.375C27 733.069 28.125 732 29.5 732H48.25C48.9403 732 49.5 732.532 49.5 733.188V734.375H29.5V735.563H50.75C51.4403 735.563 52 736.094 52 736.75V748.625C52 749.937 50.8806 751 49.5 751H29.5C28.1194 751 27 749.937 27 748.625V734.375ZM47.625 745.063C48.6606 745.063 49.5 744.265 49.5 743.281C49.5 742.297 48.6606 741.5 47.625 741.5C46.5894 741.5 45.75 742.297 45.75 743.281C45.75 744.265 46.5894 745.063 47.625 745.063Z" fill="#AAAAAA"/>
<path d="M28.08 760.4H29.144L30.264 764.376L31.512 760.4H32.224L33.52 764.272L34.592 760.4H35.656L34.016 766H33.112L31.864 762.264L30.624 766H29.656L28.08 760.4ZM36.7421 766.08C36.4114 766.08 36.1341 765.973 35.9101 765.76C35.6914 765.541 35.5821 765.248 35.5821 764.88C35.5821 764.533 35.7074 764.256 35.9581 764.048C36.2087 763.835 36.5047 763.685 36.8461 763.6C37.1874 763.509 37.5154 763.459 37.8301 763.448C37.8194 763.213 37.7581 763.045 37.6461 762.944C37.5394 762.843 37.3607 762.792 37.1101 762.792C36.9341 762.792 36.7607 762.816 36.5901 762.864C36.4247 762.912 36.2327 762.989 36.0141 763.096L35.9261 762.288C36.4114 762.053 36.8967 761.936 37.3821 761.936C37.8514 761.936 38.2087 762.064 38.4541 762.32C38.7047 762.576 38.8301 762.984 38.8301 763.544V764.624C38.8301 764.827 38.8381 764.973 38.8541 765.064C38.8754 765.149 38.9074 765.205 38.9501 765.232C38.9981 765.253 39.0754 765.264 39.1821 765.264H39.3101L39.2221 766.08H38.8621C38.6434 766.08 38.4594 766.04 38.3101 765.96C38.1607 765.875 38.0461 765.76 37.9661 765.616C37.8381 765.76 37.6621 765.875 37.4381 765.96C37.2194 766.04 36.9874 766.08 36.7421 766.08ZM37.1581 765.32C37.2594 765.32 37.3741 765.296 37.5021 765.248C37.6301 765.195 37.7421 765.123 37.8381 765.032V764.12C37.5181 764.136 37.2354 764.205 36.9901 764.328C36.7447 764.451 36.6221 764.621 36.6221 764.84C36.6221 765.005 36.6647 765.128 36.7501 765.208C36.8354 765.283 36.9714 765.32 37.1581 765.32ZM40.8864 766.08C40.5451 766.08 40.2891 765.984 40.1184 765.792C39.9478 765.595 39.8624 765.341 39.8624 765.032V760H40.8544V764.624C40.8544 764.837 40.8651 764.989 40.8864 765.08C40.9131 765.165 40.9558 765.219 41.0144 765.24C41.0784 765.256 41.1851 765.264 41.3344 765.264L41.2464 766.08H40.8864ZM42.988 766.08C42.6467 766.08 42.3907 765.984 42.22 765.792C42.0493 765.595 41.964 765.341 41.964 765.032V760H42.956V764.624C42.956 764.837 42.9667 764.989 42.988 765.08C43.0147 765.165 43.0573 765.219 43.116 765.24C43.18 765.256 43.2867 765.264 43.436 765.264L43.348 766.08H42.988ZM45.9545 766.08C45.4905 766.08 45.0932 765.987 44.7625 765.8C44.4372 765.608 44.1918 765.355 44.0265 765.04C43.8665 764.72 43.7865 764.365 43.7865 763.976C43.7865 763.603 43.8638 763.261 44.0185 762.952C44.1732 762.643 44.3972 762.397 44.6905 762.216C44.9838 762.029 45.3332 761.936 45.7385 761.936C46.1118 761.936 46.4265 762.013 46.6825 762.168C46.9438 762.323 47.1385 762.531 47.2665 762.792C47.3998 763.053 47.4665 763.347 47.4665 763.672C47.4665 763.832 47.4452 764.013 47.4025 764.216H44.8185C44.8718 764.568 45.0105 764.832 45.2345 765.008C45.4585 765.179 45.7278 765.264 46.0425 765.264C46.4745 765.264 46.8745 765.155 47.2425 764.936L47.2905 765.776C47.1198 765.867 46.9198 765.941 46.6905 766C46.4665 766.053 46.2212 766.08 45.9545 766.08ZM46.4585 763.544C46.4585 763.336 46.3998 763.152 46.2825 762.992C46.1652 762.832 45.9838 762.752 45.7385 762.752C45.4932 762.752 45.2958 762.824 45.1465 762.968C44.9972 763.112 44.8958 763.304 44.8425 763.544H46.4585ZM49.4477 766.08C49.0957 766.08 48.829 765.979 48.6477 765.776C48.4664 765.568 48.3757 765.32 48.3757 765.032V762.816H47.8077L47.8957 762H48.3757V761.12L49.3677 761.016V762H50.2477V762.816H49.3677V764.624C49.3677 764.837 49.3784 764.987 49.3997 765.072C49.4264 765.152 49.477 765.205 49.5517 765.232C49.6317 765.253 49.773 765.264 49.9757 765.264H50.2477L50.1597 766.08H49.4477Z" fill="#AAAAAA"/>
<path d="M329 749H352V746.5H329V749ZM329 742.75H352V740.25H329V742.75ZM329 734V736.5H352V734H329Z" fill="#A6A6A6"/>
<path d="M335.248 766L334.768 762.248L333.336 764.824L331.896 762.256L331.416 766H330.352L331.128 760.4H331.968L333.336 762.952L334.696 760.4H335.536L336.312 766H335.248ZM338.955 766.08C338.491 766.08 338.093 765.987 337.763 765.8C337.437 765.608 337.192 765.355 337.027 765.04C336.867 764.72 336.787 764.365 336.787 763.976C336.787 763.603 336.864 763.261 337.019 762.952C337.173 762.643 337.397 762.397 337.691 762.216C337.984 762.029 338.333 761.936 338.739 761.936C339.112 761.936 339.427 762.013 339.683 762.168C339.944 762.323 340.139 762.531 340.267 762.792C340.4 763.053 340.467 763.347 340.467 763.672C340.467 763.832 340.445 764.013 340.403 764.216H337.819C337.872 764.568 338.011 764.832 338.235 765.008C338.459 765.179 338.728 765.264 339.043 765.264C339.475 765.264 339.875 765.155 340.243 764.936L340.291 765.776C340.12 765.867 339.92 765.941 339.691 766C339.467 766.053 339.221 766.08 338.955 766.08ZM339.459 763.544C339.459 763.336 339.4 763.152 339.283 762.992C339.165 762.832 338.984 762.752 338.739 762.752C338.493 762.752 338.296 762.824 338.147 762.968C337.997 763.112 337.896 763.304 337.843 763.544H339.459ZM343.16 761.936C343.656 761.936 344.032 762.101 344.288 762.432C344.544 762.763 344.672 763.208 344.672 763.768V766H343.68V763.848C343.68 763.475 343.616 763.2 343.488 763.024C343.365 762.843 343.165 762.752 342.888 762.752C342.584 762.752 342.333 762.867 342.136 763.096V766H341.144V762H342.072L342.088 762.28C342.424 762.051 342.781 761.936 343.16 761.936ZM349.015 762V766H348.087L348.071 765.76C347.948 765.851 347.807 765.928 347.647 765.992C347.487 766.051 347.332 766.08 347.183 766.08C346.591 766.08 346.159 765.909 345.887 765.568C345.62 765.227 345.487 764.755 345.487 764.152V762H346.479V764.152C346.479 764.525 346.54 764.803 346.663 764.984C346.791 765.16 346.993 765.248 347.271 765.248C347.58 765.248 347.831 765.136 348.023 764.912V762H349.015Z" fill="#AAAAAA"/>
<path d="M245.52 764.672H243.48L243.016 766H242.024L244.016 760.4H244.984L246.976 766H245.984L245.52 764.672ZM245.2 763.776L244.504 761.776L243.8 763.776H245.2ZM251.018 760V766H250.082L250.066 765.744C249.912 765.856 249.749 765.941 249.578 766C249.413 766.053 249.216 766.08 248.986 766.08C248.597 766.08 248.261 765.987 247.978 765.8C247.701 765.613 247.49 765.363 247.346 765.048C247.202 764.733 247.13 764.387 247.13 764.008C247.13 763.629 247.202 763.283 247.346 762.968C247.49 762.653 247.701 762.403 247.978 762.216C248.261 762.029 248.597 761.936 248.986 761.936C249.376 761.936 249.722 762.043 250.026 762.256V760H251.018ZM249.13 765.264C249.445 765.264 249.68 765.152 249.834 764.928C249.994 764.704 250.074 764.397 250.074 764.008C250.074 763.619 249.994 763.312 249.834 763.088C249.68 762.864 249.445 762.752 249.13 762.752C248.821 762.752 248.578 762.867 248.402 763.096C248.232 763.325 248.146 763.629 248.146 764.008C248.146 764.387 248.232 764.691 248.402 764.92C248.578 765.149 248.821 765.264 249.13 765.264ZM255.589 760V766H254.653L254.637 765.744C254.482 765.856 254.319 765.941 254.149 766C253.983 766.053 253.786 766.08 253.557 766.08C253.167 766.08 252.831 765.987 252.549 765.8C252.271 765.613 252.061 765.363 251.917 765.048C251.773 764.733 251.701 764.387 251.701 764.008C251.701 763.629 251.773 763.283 251.917 762.968C252.061 762.653 252.271 762.403 252.549 762.216C252.831 762.029 253.167 761.936 253.557 761.936C253.946 761.936 254.293 762.043 254.597 762.256V760H255.589ZM253.701 765.264C254.015 765.264 254.25 765.152 254.405 764.928C254.565 764.704 254.645 764.397 254.645 764.008C254.645 763.619 254.565 763.312 254.405 763.088C254.25 762.864 254.015 762.752 253.701 762.752C253.391 762.752 253.149 762.867 252.973 763.096C252.802 763.325 252.717 763.629 252.717 764.008C252.717 764.387 252.802 764.691 252.973 764.92C253.149 765.149 253.391 765.264 253.701 765.264ZM256.511 762H257.439L257.463 762.424C257.58 762.291 257.73 762.173 257.911 762.072C258.098 761.971 258.292 761.92 258.495 761.92C258.559 761.92 258.618 761.925 258.671 761.936L258.599 762.912C258.498 762.885 258.383 762.872 258.255 762.872C258.09 762.872 257.938 762.912 257.799 762.992C257.66 763.067 257.562 763.16 257.503 763.272V766H256.511V762ZM261.009 766.08C260.545 766.08 260.148 765.987 259.817 765.8C259.492 765.608 259.247 765.355 259.081 765.04C258.921 764.72 258.841 764.365 258.841 763.976C258.841 763.603 258.919 763.261 259.073 762.952C259.228 762.643 259.452 762.397 259.745 762.216C260.039 762.029 260.388 761.936 260.793 761.936C261.167 761.936 261.481 762.013 261.737 762.168C261.999 762.323 262.193 762.531 262.321 762.792C262.455 763.053 262.521 763.347 262.521 763.672C262.521 763.832 262.5 764.013 262.457 764.216H259.873C259.927 764.568 260.065 764.832 260.289 765.008C260.513 765.179 260.783 765.264 261.097 765.264C261.529 765.264 261.929 765.155 262.297 764.936L262.345 765.776C262.175 765.867 261.975 765.941 261.745 766C261.521 766.053 261.276 766.08 261.009 766.08ZM261.513 763.544C261.513 763.336 261.455 763.152 261.337 762.992C261.22 762.832 261.039 762.752 260.793 762.752C260.548 762.752 260.351 762.824 260.201 762.968C260.052 763.112 259.951 763.304 259.897 763.544H261.513ZM264.334 766.08C264.078 766.08 263.844 766.056 263.63 766.008C263.422 765.96 263.206 765.885 262.982 765.784L263.07 764.936C263.294 765.069 263.502 765.171 263.694 765.24C263.892 765.304 264.094 765.336 264.302 765.336C264.708 765.336 264.91 765.203 264.91 764.936C264.91 764.792 264.857 764.683 264.75 764.608C264.644 764.528 264.452 764.435 264.174 764.328C263.78 764.184 263.489 764.021 263.302 763.84C263.116 763.653 263.022 763.403 263.022 763.088C263.022 762.741 263.156 762.461 263.422 762.248C263.689 762.029 264.049 761.92 264.502 761.92C264.956 761.92 265.369 762.024 265.742 762.232L265.654 763.08C265.452 762.941 265.26 762.835 265.078 762.76C264.902 762.685 264.716 762.648 264.518 762.648C264.348 762.648 264.214 762.683 264.118 762.752C264.028 762.821 263.982 762.92 263.982 763.048C263.982 763.149 264.009 763.232 264.062 763.296C264.121 763.36 264.201 763.419 264.302 763.472C264.404 763.52 264.572 763.589 264.806 763.68C265.196 763.829 265.476 763.995 265.646 764.176C265.817 764.352 265.902 764.589 265.902 764.888C265.902 765.267 265.766 765.56 265.494 765.768C265.222 765.976 264.836 766.08 264.334 766.08ZM267.717 766.08C267.461 766.08 267.227 766.056 267.013 766.008C266.805 765.96 266.589 765.885 266.365 765.784L266.453 764.936C266.677 765.069 266.885 765.171 267.077 765.24C267.275 765.304 267.477 765.336 267.685 765.336C268.091 765.336 268.293 765.203 268.293 764.936C268.293 764.792 268.24 764.683 268.133 764.608C268.027 764.528 267.835 764.435 267.557 764.328C267.163 764.184 266.872 764.021 266.685 763.84C266.499 763.653 266.405 763.403 266.405 763.088C266.405 762.741 266.539 762.461 266.805 762.248C267.072 762.029 267.432 761.92 267.885 761.92C268.339 761.92 268.752 762.024 269.125 762.232L269.037 763.08C268.835 762.941 268.643 762.835 268.461 762.76C268.285 762.685 268.099 762.648 267.901 762.648C267.731 762.648 267.597 762.683 267.501 762.752C267.411 762.821 267.365 762.92 267.365 763.048C267.365 763.149 267.392 763.232 267.445 763.296C267.504 763.36 267.584 763.419 267.685 763.472C267.787 763.52 267.955 763.589 268.189 763.68C268.579 763.829 268.859 763.995 269.029 764.176C269.2 764.352 269.285 764.589 269.285 764.888C269.285 765.267 269.149 765.56 268.877 765.768C268.605 765.976 268.219 766.08 267.717 766.08ZM275.009 762.936C275.718 763.165 276.073 763.656 276.073 764.408C276.073 764.909 275.91 765.301 275.585 765.584C275.26 765.861 274.814 766 274.249 766H271.913V760.4H274.025C275.092 760.4 275.625 760.851 275.625 761.752C275.625 762.307 275.42 762.701 275.009 762.936ZM272.937 762.6H273.873C274.124 762.6 274.31 762.549 274.433 762.448C274.556 762.341 274.617 762.179 274.617 761.96C274.617 761.731 274.556 761.565 274.433 761.464C274.31 761.363 274.124 761.312 273.873 761.312H272.937V762.6ZM274.097 765.088C274.396 765.088 274.622 765.029 274.777 764.912C274.937 764.789 275.017 764.584 275.017 764.296C275.017 764.013 274.934 763.813 274.769 763.696C274.609 763.573 274.385 763.512 274.097 763.512H272.937V765.088H274.097ZM278.585 766.08C278.163 766.08 277.798 765.987 277.489 765.8C277.179 765.613 276.942 765.363 276.777 765.048C276.611 764.733 276.529 764.387 276.529 764.008C276.529 763.629 276.611 763.28 276.777 762.96C276.942 762.64 277.179 762.387 277.489 762.2C277.798 762.013 278.163 761.92 278.585 761.92C279.006 761.92 279.371 762.013 279.681 762.2C279.99 762.387 280.227 762.64 280.393 762.96C280.558 763.28 280.641 763.629 280.641 764.008C280.641 764.387 280.558 764.733 280.393 765.048C280.227 765.363 279.99 765.613 279.681 765.8C279.371 765.987 279.006 766.08 278.585 766.08ZM278.585 765.264C278.91 765.264 279.163 765.149 279.345 764.92C279.531 764.691 279.625 764.387 279.625 764.008C279.625 763.624 279.531 763.317 279.345 763.088C279.163 762.853 278.91 762.736 278.585 762.736C278.259 762.736 278.003 762.853 277.817 763.088C277.635 763.317 277.545 763.624 277.545 764.008C277.545 764.387 277.635 764.691 277.817 764.92C278.003 765.149 278.259 765.264 278.585 765.264ZM283.147 766.08C282.726 766.08 282.361 765.987 282.051 765.8C281.742 765.613 281.505 765.363 281.339 765.048C281.174 764.733 281.091 764.387 281.091 764.008C281.091 763.629 281.174 763.28 281.339 762.96C281.505 762.64 281.742 762.387 282.051 762.2C282.361 762.013 282.726 761.92 283.147 761.92C283.569 761.92 283.934 762.013 284.243 762.2C284.553 762.387 284.79 762.64 284.955 762.96C285.121 763.28 285.203 763.629 285.203 764.008C285.203 764.387 285.121 764.733 284.955 765.048C284.79 765.363 284.553 765.613 284.243 765.8C283.934 765.987 283.569 766.08 283.147 766.08ZM283.147 765.264C283.473 765.264 283.726 765.149 283.907 764.92C284.094 764.691 284.187 764.387 284.187 764.008C284.187 763.624 284.094 763.317 283.907 763.088C283.726 762.853 283.473 762.736 283.147 762.736C282.822 762.736 282.566 762.853 282.379 763.088C282.198 763.317 282.107 763.624 282.107 764.008C282.107 764.387 282.198 764.691 282.379 764.92C282.566 765.149 282.822 765.264 283.147 765.264ZM285.886 760H286.878V763.64L288.118 762H289.238L287.782 763.92L289.27 766H288.15L286.878 764.224V766H285.886V760Z" fill="url(#paint0_linear)"/>
<path d="M257.2 735.4H255V750.8C255 752.01 255.99 753 257.2 753H272.6V750.8H257.2V735.4ZM274.8 731H261.6C260.39 731 259.4 731.99 259.4 733.2V746.4C259.4 747.61 260.39 748.6 261.6 748.6H274.8C276.01 748.6 277 747.61 277 746.4V733.2C277 731.99 276.01 731 274.8 731ZM273.7 740.9H262.7V738.7H273.7V740.9ZM269.3 745.3H262.7V743.1H269.3V745.3ZM273.7 736.5H262.7V734.3H273.7V736.5Z" fill="url(#paint1_linear)"/>
<path d="M97.24 766.112C96.9253 766.112 96.5867 766.069 96.224 765.984C95.8667 765.899 95.5867 765.805 95.384 765.704L95.504 764.616C96.208 764.957 96.8267 765.128 97.36 765.128C97.6427 765.128 97.864 765.075 98.024 764.968C98.184 764.856 98.264 764.693 98.264 764.48C98.264 764.32 98.2187 764.189 98.128 764.088C98.0427 763.981 97.9173 763.893 97.752 763.824C97.5867 763.749 97.3227 763.648 96.96 763.52C96.6187 763.403 96.336 763.28 96.112 763.152C95.888 763.019 95.7093 762.851 95.576 762.648C95.448 762.44 95.384 762.187 95.384 761.888C95.384 761.408 95.56 761.021 95.912 760.728C96.264 760.435 96.768 760.288 97.424 760.288C97.7333 760.288 98.04 760.323 98.344 760.392C98.6533 760.461 98.936 760.547 99.192 760.648L99.088 761.696C98.7573 761.552 98.4533 761.445 98.176 761.376C97.904 761.301 97.632 761.264 97.36 761.264C97.056 761.264 96.824 761.315 96.664 761.416C96.504 761.517 96.424 761.664 96.424 761.856C96.424 762.005 96.4667 762.128 96.552 762.224C96.6373 762.32 96.752 762.4 96.896 762.464C97.0453 762.528 97.264 762.605 97.552 762.696C98.1973 762.899 98.6667 763.133 98.96 763.4C99.2587 763.661 99.408 764.021 99.408 764.48C99.408 764.917 99.256 765.299 98.952 765.624C98.648 765.949 98.0773 766.112 97.24 766.112ZM99.6503 762H100.618L101.306 764.792L102.058 762.08H102.89L103.634 764.792L104.33 762H105.298L104.13 766H103.298L102.474 763.392L101.65 766H100.818L99.6503 762ZM106.672 766.08C106.341 766.08 106.064 765.973 105.84 765.76C105.621 765.541 105.512 765.248 105.512 764.88C105.512 764.533 105.637 764.256 105.888 764.048C106.138 763.835 106.434 763.685 106.776 763.6C107.117 763.509 107.445 763.459 107.76 763.448C107.749 763.213 107.688 763.045 107.576 762.944C107.469 762.843 107.29 762.792 107.04 762.792C106.864 762.792 106.69 762.816 106.52 762.864C106.354 762.912 106.162 762.989 105.944 763.096L105.856 762.288C106.341 762.053 106.826 761.936 107.312 761.936C107.781 761.936 108.138 762.064 108.384 762.32C108.634 762.576 108.76 762.984 108.76 763.544V764.624C108.76 764.827 108.768 764.973 108.784 765.064C108.805 765.149 108.837 765.205 108.88 765.232C108.928 765.253 109.005 765.264 109.112 765.264H109.24L109.152 766.08H108.792C108.573 766.08 108.389 766.04 108.24 765.96C108.09 765.875 107.976 765.76 107.896 765.616C107.768 765.76 107.592 765.875 107.368 765.96C107.149 766.04 106.917 766.08 106.672 766.08ZM107.088 765.32C107.189 765.32 107.304 765.296 107.432 765.248C107.56 765.195 107.672 765.123 107.768 765.032V764.12C107.448 764.136 107.165 764.205 106.92 764.328C106.674 764.451 106.552 764.621 106.552 764.84C106.552 765.005 106.594 765.128 106.68 765.208C106.765 765.283 106.901 765.32 107.088 765.32ZM111.88 761.936C112.259 761.936 112.584 762.029 112.856 762.216C113.128 762.403 113.333 762.653 113.472 762.968C113.611 763.283 113.68 763.629 113.68 764.008C113.68 764.387 113.611 764.733 113.472 765.048C113.333 765.363 113.128 765.613 112.856 765.8C112.584 765.987 112.259 766.08 111.88 766.08C111.64 766.08 111.435 766.053 111.264 766C111.099 765.952 110.939 765.872 110.784 765.76V767.936H109.792V762H110.592L110.696 762.368C110.867 762.224 111.045 762.117 111.232 762.048C111.419 761.973 111.635 761.936 111.88 761.936ZM111.728 765.264C112.021 765.264 112.251 765.149 112.416 764.92C112.581 764.691 112.664 764.387 112.664 764.008C112.664 763.629 112.581 763.325 112.416 763.096C112.251 762.867 112.021 762.752 111.728 762.752C111.397 762.752 111.149 762.864 110.984 763.088C110.819 763.312 110.736 763.619 110.736 764.008C110.736 764.397 110.819 764.704 110.984 764.928C111.149 765.152 111.397 765.264 111.728 765.264ZM115.506 766.08C115.25 766.08 115.016 766.056 114.802 766.008C114.594 765.96 114.378 765.885 114.154 765.784L114.242 764.936C114.466 765.069 114.674 765.171 114.866 765.24C115.064 765.304 115.266 765.336 115.474 765.336C115.88 765.336 116.082 765.203 116.082 764.936C116.082 764.792 116.029 764.683 115.922 764.608C115.816 764.528 115.624 764.435 115.346 764.328C114.952 764.184 114.661 764.021 114.474 763.84C114.288 763.653 114.194 763.403 114.194 763.088C114.194 762.741 114.328 762.461 114.594 762.248C114.861 762.029 115.221 761.92 115.674 761.92C116.128 761.92 116.541 762.024 116.914 762.232L116.826 763.08C116.624 762.941 116.432 762.835 116.25 762.76C116.074 762.685 115.888 762.648 115.69 762.648C115.52 762.648 115.386 762.683 115.29 762.752C115.2 762.821 115.154 762.92 115.154 763.048C115.154 763.149 115.181 763.232 115.234 763.296C115.293 763.36 115.373 763.419 115.474 763.472C115.576 763.52 115.744 763.589 115.978 763.68C116.368 763.829 116.648 763.995 116.818 764.176C116.989 764.352 117.074 764.589 117.074 764.888C117.074 765.267 116.938 765.56 116.666 765.768C116.394 765.976 116.008 766.08 115.506 766.08Z" fill="#AAAAAA"/>
<path d="M114.35 734.929L102.667 734.929L102.667 738.214L114.35 738.214L114.35 743.143L121 736.571L114.35 730L114.35 734.929ZM91 746.429L97.65 753L97.65 748.071L109.333 748.071L109.333 744.786L97.65 744.786L97.65 739.857L91 746.429Z" fill="#AAAAAA"/>
<path d="M159.616 760.4H161.712C162.245 760.4 162.72 760.512 163.136 760.736C163.557 760.96 163.885 761.283 164.12 761.704C164.355 762.125 164.472 762.624 164.472 763.2C164.472 763.776 164.355 764.275 164.12 764.696C163.885 765.117 163.557 765.44 163.136 765.664C162.72 765.888 162.245 766 161.712 766H159.616V760.4ZM161.712 765.088C162.245 765.088 162.651 764.923 162.928 764.592C163.211 764.256 163.352 763.792 163.352 763.2C163.352 762.608 163.211 762.147 162.928 761.816C162.651 761.48 162.245 761.312 161.712 761.312H160.64V765.088H161.712ZM167.103 766.08C166.639 766.08 166.242 765.987 165.911 765.8C165.586 765.608 165.34 765.355 165.175 765.04C165.015 764.72 164.935 764.365 164.935 763.976C164.935 763.603 165.012 763.261 165.167 762.952C165.322 762.643 165.546 762.397 165.839 762.216C166.132 762.029 166.482 761.936 166.887 761.936C167.26 761.936 167.575 762.013 167.831 762.168C168.092 762.323 168.287 762.531 168.415 762.792C168.548 763.053 168.615 763.347 168.615 763.672C168.615 763.832 168.594 764.013 168.551 764.216H165.967C166.02 764.568 166.159 764.832 166.383 765.008C166.607 765.179 166.876 765.264 167.191 765.264C167.623 765.264 168.023 765.155 168.391 764.936L168.439 765.776C168.268 765.867 168.068 765.941 167.839 766C167.615 766.053 167.37 766.08 167.103 766.08ZM167.607 763.544C167.607 763.336 167.548 763.152 167.431 762.992C167.314 762.832 167.132 762.752 166.887 762.752C166.642 762.752 166.444 762.824 166.295 762.968C166.146 763.112 166.044 763.304 165.991 763.544H167.607ZM170.876 768.016C170.311 768.016 169.86 767.912 169.524 767.704C169.188 767.501 169.02 767.224 169.02 766.872C169.02 766.488 169.236 766.173 169.668 765.928C169.433 765.784 169.316 765.595 169.316 765.36C169.316 765.237 169.351 765.128 169.42 765.032C169.495 764.936 169.593 764.859 169.716 764.8C169.513 764.656 169.359 764.472 169.252 764.248C169.151 764.024 169.1 763.779 169.1 763.512C169.1 763.219 169.164 762.952 169.292 762.712C169.42 762.467 169.607 762.275 169.852 762.136C170.097 761.992 170.388 761.92 170.724 761.92C171.076 761.92 171.38 762.005 171.636 762.176C171.727 762.128 171.847 762.088 171.996 762.056C172.151 762.019 172.316 762 172.492 762H172.748L172.684 762.624H172.324C172.233 762.624 172.159 762.627 172.1 762.632C172.26 762.877 172.34 763.171 172.34 763.512C172.34 763.805 172.276 764.075 172.148 764.32C172.025 764.56 171.841 764.752 171.596 764.896C171.351 765.035 171.06 765.104 170.724 765.104C170.601 765.104 170.46 765.085 170.3 765.048C170.241 765.075 170.212 765.117 170.212 765.176C170.212 765.245 170.252 765.301 170.332 765.344C170.417 765.381 170.559 765.413 170.756 765.44L171.444 765.528C172.361 765.651 172.82 766.037 172.82 766.688C172.82 767.093 172.647 767.416 172.3 767.656C171.959 767.896 171.484 768.016 170.876 768.016ZM170.724 764.368C170.953 764.368 171.129 764.293 171.252 764.144C171.38 763.989 171.444 763.779 171.444 763.512C171.444 763.245 171.38 763.037 171.252 762.888C171.129 762.733 170.953 762.656 170.724 762.656C170.489 762.656 170.308 762.733 170.18 762.888C170.057 763.037 169.996 763.245 169.996 763.512C169.996 763.779 170.057 763.989 170.18 764.144C170.308 764.293 170.489 764.368 170.724 764.368ZM170.916 767.264C171.599 767.264 171.94 767.096 171.94 766.76C171.94 766.611 171.881 766.499 171.764 766.424C171.647 766.355 171.452 766.299 171.18 766.256L170.3 766.128C169.996 766.251 169.844 766.437 169.844 766.688C169.844 766.88 169.937 767.024 170.124 767.12C170.311 767.216 170.575 767.264 170.916 767.264ZM173.3 760.4H174.292V761.392H173.3V760.4ZM173.3 762H174.292V766H173.3V762ZM176.526 766.08C176.174 766.08 175.907 765.979 175.726 765.776C175.544 765.568 175.454 765.32 175.454 765.032V762.816H174.886L174.974 762H175.454V761.12L176.446 761.016V762H177.326V762.816H176.446V764.624C176.446 764.837 176.456 764.987 176.478 765.072C176.504 765.152 176.555 765.205 176.63 765.232C176.71 765.253 176.851 765.264 177.054 765.264H177.326L177.238 766.08H176.526ZM178.836 766.08C178.505 766.08 178.228 765.973 178.004 765.76C177.785 765.541 177.676 765.248 177.676 764.88C177.676 764.533 177.801 764.256 178.052 764.048C178.302 763.835 178.598 763.685 178.94 763.6C179.281 763.509 179.609 763.459 179.924 763.448C179.913 763.213 179.852 763.045 179.74 762.944C179.633 762.843 179.454 762.792 179.204 762.792C179.028 762.792 178.854 762.816 178.684 762.864C178.518 762.912 178.326 762.989 178.108 763.096L178.02 762.288C178.505 762.053 178.99 761.936 179.476 761.936C179.945 761.936 180.302 762.064 180.548 762.32C180.798 762.576 180.924 762.984 180.924 763.544V764.624C180.924 764.827 180.932 764.973 180.948 765.064C180.969 765.149 181.001 765.205 181.044 765.232C181.092 765.253 181.169 765.264 181.276 765.264H181.404L181.316 766.08H180.956C180.737 766.08 180.553 766.04 180.404 765.96C180.254 765.875 180.14 765.76 180.06 765.616C179.932 765.76 179.756 765.875 179.532 765.96C179.313 766.04 179.081 766.08 178.836 766.08ZM179.252 765.32C179.353 765.32 179.468 765.296 179.596 765.248C179.724 765.195 179.836 765.123 179.932 765.032V764.12C179.612 764.136 179.329 764.205 179.084 764.328C178.838 764.451 178.716 764.621 178.716 764.84C178.716 765.005 178.758 765.128 178.844 765.208C178.929 765.283 179.065 765.32 179.252 765.32ZM182.98 766.08C182.639 766.08 182.383 765.984 182.212 765.792C182.042 765.595 181.956 765.341 181.956 765.032V760H182.948V764.624C182.948 764.837 182.959 764.989 182.98 765.08C183.007 765.165 183.05 765.219 183.108 765.24C183.172 765.256 183.279 765.264 183.428 765.264L183.34 766.08H182.98ZM188.911 764.672H186.871L186.407 766H185.415L187.407 760.4H188.375L190.367 766H189.375L188.911 764.672ZM188.591 763.776L187.895 761.776L187.191 763.776H188.591ZM191.991 766.08C191.735 766.08 191.5 766.056 191.287 766.008C191.079 765.96 190.863 765.885 190.639 765.784L190.727 764.936C190.951 765.069 191.159 765.171 191.351 765.24C191.548 765.304 191.751 765.336 191.959 765.336C192.364 765.336 192.567 765.203 192.567 764.936C192.567 764.792 192.513 764.683 192.407 764.608C192.3 764.528 192.108 764.435 191.831 764.328C191.436 764.184 191.145 764.021 190.959 763.84C190.772 763.653 190.679 763.403 190.679 763.088C190.679 762.741 190.812 762.461 191.079 762.248C191.345 762.029 191.705 761.92 192.159 761.92C192.612 761.92 193.025 762.024 193.399 762.232L193.311 763.08C193.108 762.941 192.916 762.835 192.735 762.76C192.559 762.685 192.372 762.648 192.175 762.648C192.004 762.648 191.871 762.683 191.775 762.752C191.684 762.821 191.639 762.92 191.639 763.048C191.639 763.149 191.665 763.232 191.719 763.296C191.777 763.36 191.857 763.419 191.959 763.472C192.06 763.52 192.228 763.589 192.463 763.68C192.852 763.829 193.132 763.995 193.303 764.176C193.473 764.352 193.559 764.589 193.559 764.888C193.559 765.267 193.423 765.56 193.151 765.768C192.879 765.976 192.492 766.08 191.991 766.08ZM195.373 766.08C195.117 766.08 194.883 766.056 194.669 766.008C194.461 765.96 194.245 765.885 194.021 765.784L194.109 764.936C194.333 765.069 194.541 765.171 194.733 765.24C194.931 765.304 195.133 765.336 195.341 765.336C195.747 765.336 195.949 765.203 195.949 764.936C195.949 764.792 195.896 764.683 195.789 764.608C195.683 764.528 195.491 764.435 195.213 764.328C194.819 764.184 194.528 764.021 194.341 763.84C194.155 763.653 194.061 763.403 194.061 763.088C194.061 762.741 194.195 762.461 194.461 762.248C194.728 762.029 195.088 761.92 195.541 761.92C195.995 761.92 196.408 762.024 196.781 762.232L196.693 763.08C196.491 762.941 196.299 762.835 196.117 762.76C195.941 762.685 195.755 762.648 195.557 762.648C195.387 762.648 195.253 762.683 195.157 762.752C195.067 762.821 195.021 762.92 195.021 763.048C195.021 763.149 195.048 763.232 195.101 763.296C195.16 763.36 195.24 763.419 195.341 763.472C195.443 763.52 195.611 763.589 195.845 763.68C196.235 763.829 196.515 763.995 196.685 764.176C196.856 764.352 196.941 764.589 196.941 764.888C196.941 765.267 196.805 765.56 196.533 765.768C196.261 765.976 195.875 766.08 195.373 766.08ZM199.548 766.08C199.084 766.08 198.687 765.987 198.356 765.8C198.031 765.608 197.786 765.355 197.62 765.04C197.46 764.72 197.38 764.365 197.38 763.976C197.38 763.603 197.458 763.261 197.612 762.952C197.767 762.643 197.991 762.397 198.284 762.216C198.578 762.029 198.927 761.936 199.332 761.936C199.706 761.936 200.02 762.013 200.276 762.168C200.538 762.323 200.732 762.531 200.86 762.792C200.994 763.053 201.06 763.347 201.06 763.672C201.06 763.832 201.039 764.013 200.996 764.216H198.412C198.466 764.568 198.604 764.832 198.828 765.008C199.052 765.179 199.322 765.264 199.636 765.264C200.068 765.264 200.468 765.155 200.836 764.936L200.884 765.776C200.714 765.867 200.514 765.941 200.284 766C200.06 766.053 199.815 766.08 199.548 766.08ZM200.052 763.544C200.052 763.336 199.994 763.152 199.876 762.992C199.759 762.832 199.578 762.752 199.332 762.752C199.087 762.752 198.89 762.824 198.74 762.968C198.591 763.112 198.49 763.304 198.436 763.544H200.052ZM203.041 766.08C202.689 766.08 202.423 765.979 202.241 765.776C202.06 765.568 201.969 765.32 201.969 765.032V762.816H201.401L201.489 762H201.969V761.12L202.961 761.016V762H203.841V762.816H202.961V764.624C202.961 764.837 202.972 764.987 202.993 765.072C203.02 765.152 203.071 765.205 203.145 765.232C203.225 765.253 203.367 765.264 203.569 765.264H203.841L203.753 766.08H203.041Z" fill="#AAAAAA"/>
<path d="M192.515 738.195C193.71 739.489 194.407 741.182 194.506 742.925H196C195.901 740.784 195.054 738.693 193.61 737.099L192.515 738.195Z" fill="#AAAAAA"/>
<path d="M179.866 750.144C181.51 751.787 183.701 752.783 186.041 752.883V751.389C184.398 751.289 182.804 750.692 181.559 749.646C181.012 749.845 180.464 749.994 179.866 750.144Z" fill="#AAAAAA"/>
<path d="M187.037 751.338V752.832C189.178 752.732 191.27 751.886 192.863 750.442L191.817 749.396C190.473 750.541 188.78 751.239 187.037 751.338Z" fill="#AAAAAA"/>
<path d="M192.515 748.701L193.56 749.746C195.004 748.153 195.851 746.061 195.95 743.92H194.457C194.357 745.663 193.66 747.356 192.515 748.701Z" fill="#AAAAAA"/>
<path d="M182.854 745.911C181.51 747.106 179.867 747.754 178.074 747.903V749.397C180.215 749.297 182.306 748.451 183.9 747.007L182.854 745.911Z" fill="#AAAAAA"/>
<path d="M186.987 739.438C186.887 737.297 186.041 735.205 184.597 733.612L183.551 734.658C184.746 736.002 185.393 737.645 185.543 739.438H186.987Z" fill="#AAAAAA"/>
<path d="M177.079 732.019V730.525C174.938 730.625 172.846 731.471 171.253 732.915L172.299 733.961C173.643 732.816 175.336 732.119 177.079 732.019Z" fill="#AAAAAA"/>
<path d="M178.074 732.019C179.817 732.119 181.51 732.816 182.854 734.011L183.9 732.965C182.306 731.471 180.215 730.625 178.074 730.525V732.019Z" fill="#AAAAAA"/>
<path d="M169.659 739.438C169.758 737.695 170.456 736.002 171.651 734.658L170.605 733.612C169.111 735.205 168.265 737.297 168.165 739.438H169.659Z" fill="#AAAAAA"/>
<path d="M192.863 736.403C191.12 734.809 188.879 733.963 186.539 733.963C186.439 733.963 186.29 733.963 186.14 733.963C186.489 734.461 186.788 734.959 186.987 735.457C188.73 735.556 190.423 736.254 191.767 737.449L192.863 736.403Z" fill="#AAAAAA"/>
<path d="M190.572 742.127L188.78 743.322C188.531 743.472 188.232 743.422 188.083 743.173L188.033 743.123L187.684 742.376C187.485 743.422 187.037 744.468 186.489 745.414H190.025C190.074 744.318 190.274 743.223 190.572 742.127Z" fill="#AAAAAA"/>
<path d="M184.597 746.261C186.041 744.668 186.887 742.577 186.987 740.436H185.493C185.394 742.178 184.697 743.871 183.501 745.216L184.597 746.261Z" fill="#AAAAAA"/>
<path d="M171.253 746.957C172.846 748.401 174.938 749.248 177.079 749.347V747.854C175.336 747.754 173.643 747.057 172.299 745.862L171.253 746.957Z" fill="#AAAAAA"/>
<path d="M179.418 739.939C179.269 739.889 179.169 739.789 179.119 739.64L177.576 736.204L176.032 739.64C175.933 739.889 175.634 739.988 175.385 739.889C175.335 739.889 175.335 739.839 175.335 739.839L173.542 738.644C173.891 739.69 174.04 740.785 174.09 741.93H181.061C181.111 740.835 181.31 739.739 181.609 738.644L179.816 739.839C179.717 739.939 179.568 739.939 179.418 739.939Z" fill="#AAAAAA"/>
<path d="M177.576 732.966C173.742 732.966 170.605 736.103 170.605 739.937C170.605 743.772 173.742 746.909 177.576 746.909C181.41 746.909 184.547 743.772 184.547 739.937C184.547 736.103 181.41 732.966 177.576 732.966Z" fill="#AAAAAA"/>
<path d="M169.659 740.436H168.165C168.265 742.577 169.111 744.668 170.555 746.261L171.601 745.216C170.456 743.871 169.758 742.178 169.659 740.436Z" fill="#AAAAAA"/>
<path d="M187.435 736.501C187.485 736.7 187.535 736.849 187.584 737.048C188.082 738.891 189.128 745.165 182.505 749.099C185.642 751.289 189.974 750.543 192.215 747.406C193.062 746.21 193.46 744.816 193.46 743.372C193.51 739.936 190.921 736.999 187.435 736.501Z" fill="#AAAAAA"/>
<rect x="120" y="799" width="135" height="5" rx="2.5" fill="#D6D9E4"/>
<path fill-rule="evenodd" clip-rule="evenodd" d="M40 0H0V40C0 17.9086 17.9086 0 40 0ZM78 0L78.8918 0.216238C80.7796 0.67396 82.3333 2.08608 83.0044 3.9C83.0375 3.98943 83.0457 4.08563 83.0455 4.18098L83.0391 7.96098C83.0391 20.7025 93.3365 31 106.039 31H268.961C281.664 31 291.961 20.7025 291.961 8L291.954 4.18082C291.954 4.08452 291.969 3.99048 292.002 3.9C292.668 2.07301 294.211 0.676168 296.108 0.216238L297 0H78ZM335 0C357.091 0 375 17.9086 375 40V0H335ZM375 772C375 794.091 357.091 812 335 812H375V772ZM40 812C17.9086 812 0 794.091 0 772V812H40Z" fill="black"/>
<rect x="29" y="709" width="297" height="10" fill="#36393E"/>
<path d="M16 113C16 107.477 20.4772 103 26 103H349C354.523 103 359 107.477 359 113V243C359 248.523 354.523 253 349 253H26C20.4772 253 16 248.523 16 243V113Z" fill="#44474C"/>
<path d="M16 273C16 267.477 20.4772 263 26 263H349C354.523 263 359 267.477 359 273V298C359 303.523 354.523 308 349 308H26C20.4772 308 16 303.523 16 298V273Z" fill="#44474C"/>
<path d="M16 328C16 322.477 20.4772 318 26 318H349C354.523 318 359 322.477 359 328V387C359 392.523 354.523 397 349 397H26C20.4772 397 16 392.523 16 387V328Z" fill="#44474C"/>
<path d="M28 59.4675L20.583 67.5L28 75.5325L25.7166 78L16 67.5L25.7166 57L28 59.4675Z" fill="white"/>
<path d="M31.4 287.34H28.85L28.27 289H27.03L29.52 282H30.73L33.22 289H31.98L31.4 287.34ZM31 286.22L30.13 283.72L29.25 286.22H31ZM38.7728 281.5V289H37.6028L37.5828 288.68C37.3895 288.82 37.1861 288.927 36.9728 289C36.7661 289.067 36.5195 289.1 36.2328 289.1C35.7461 289.1 35.3261 288.983 34.9728 288.75C34.6261 288.517 34.3628 288.203 34.1828 287.81C34.0028 287.417 33.9128 286.983 33.9128 286.51C33.9128 286.037 34.0028 285.603 34.1828 285.21C34.3628 284.817 34.6261 284.503 34.9728 284.27C35.3261 284.037 35.7461 283.92 36.2328 283.92C36.7195 283.92 37.1528 284.053 37.5328 284.32V281.5H38.7728ZM36.4128 288.08C36.8061 288.08 37.0995 287.94 37.2928 287.66C37.4928 287.38 37.5928 286.997 37.5928 286.51C37.5928 286.023 37.4928 285.64 37.2928 285.36C37.0995 285.08 36.8061 284.94 36.4128 284.94C36.0261 284.94 35.7228 285.083 35.5028 285.37C35.2895 285.657 35.1828 286.037 35.1828 286.51C35.1828 286.983 35.2895 287.363 35.5028 287.65C35.7228 287.937 36.0261 288.08 36.4128 288.08ZM44.9857 281.5V289H43.8157L43.7957 288.68C43.6024 288.82 43.399 288.927 43.1857 289C42.979 289.067 42.7324 289.1 42.4457 289.1C41.959 289.1 41.539 288.983 41.1857 288.75C40.839 288.517 40.5757 288.203 40.3957 287.81C40.2157 287.417 40.1257 286.983 40.1257 286.51C40.1257 286.037 40.2157 285.603 40.3957 285.21C40.5757 284.817 40.839 284.503 41.1857 284.27C41.539 284.037 41.959 283.92 42.4457 283.92C42.9324 283.92 43.3657 284.053 43.7457 284.32V281.5H44.9857ZM42.6257 288.08C43.019 288.08 43.3124 287.94 43.5057 287.66C43.7057 287.38 43.8057 286.997 43.8057 286.51C43.8057 286.023 43.7057 285.64 43.5057 285.36C43.3124 285.08 43.019 284.94 42.6257 284.94C42.239 284.94 41.9357 285.083 41.7157 285.37C41.5024 285.657 41.3957 286.037 41.3957 286.51C41.3957 286.983 41.5024 287.363 41.7157 287.65C41.9357 287.937 42.239 288.08 42.6257 288.08ZM46.6386 284H47.7986L47.8286 284.53C47.9753 284.363 48.1619 284.217 48.3886 284.09C48.6219 283.963 48.8653 283.9 49.1186 283.9C49.1986 283.9 49.2719 283.907 49.3386 283.92L49.2486 285.14C49.1219 285.107 48.9786 285.09 48.8186 285.09C48.6119 285.09 48.4219 285.14 48.2486 285.24C48.0753 285.333 47.9519 285.45 47.8786 285.59V289H46.6386V284ZM52.7615 289.1C52.1815 289.1 51.6848 288.983 51.2715 288.75C50.8648 288.51 50.5582 288.193 50.3515 287.8C50.1515 287.4 50.0515 286.957 50.0515 286.47C50.0515 286.003 50.1482 285.577 50.3415 285.19C50.5348 284.803 50.8148 284.497 51.1815 284.27C51.5482 284.037 51.9848 283.92 52.4915 283.92C52.9582 283.92 53.3515 284.017 53.6715 284.21C53.9982 284.403 54.2415 284.663 54.4015 284.99C54.5682 285.317 54.6515 285.683 54.6515 286.09C54.6515 286.29 54.6248 286.517 54.5715 286.77H51.3415C51.4082 287.21 51.5815 287.54 51.8615 287.76C52.1415 287.973 52.4782 288.08 52.8715 288.08C53.4115 288.08 53.9115 287.943 54.3715 287.67L54.4315 288.72C54.2182 288.833 53.9682 288.927 53.6815 289C53.4015 289.067 53.0948 289.1 52.7615 289.1ZM53.3915 285.93C53.3915 285.67 53.3182 285.44 53.1715 285.24C53.0248 285.04 52.7982 284.94 52.4915 284.94C52.1848 284.94 51.9382 285.03 51.7515 285.21C51.5648 285.39 51.4382 285.63 51.3715 285.93H53.3915ZM57.418 289.1C57.098 289.1 56.8046 289.07 56.538 289.01C56.278 288.95 56.008 288.857 55.728 288.73L55.838 287.67C56.118 287.837 56.378 287.963 56.618 288.05C56.8646 288.13 57.118 288.17 57.378 288.17C57.8846 288.17 58.138 288.003 58.138 287.67C58.138 287.49 58.0713 287.353 57.938 287.26C57.8046 287.16 57.5646 287.043 57.218 286.91C56.7246 286.73 56.3613 286.527 56.128 286.3C55.8946 286.067 55.778 285.753 55.778 285.36C55.778 284.927 55.9446 284.577 56.278 284.31C56.6113 284.037 57.0613 283.9 57.628 283.9C58.1946 283.9 58.7113 284.03 59.178 284.29L59.068 285.35C58.8146 285.177 58.5746 285.043 58.348 284.95C58.128 284.857 57.8946 284.81 57.648 284.81C57.4346 284.81 57.268 284.853 57.148 284.94C57.0346 285.027 56.978 285.15 56.978 285.31C56.978 285.437 57.0113 285.54 57.078 285.62C57.1513 285.7 57.2513 285.773 57.378 285.84C57.5046 285.9 57.7146 285.987 58.008 286.1C58.4946 286.287 58.8446 286.493 59.058 286.72C59.2713 286.94 59.378 287.237 59.378 287.61C59.378 288.083 59.208 288.45 58.868 288.71C58.528 288.97 58.0446 289.1 57.418 289.1ZM62.1465 289.1C61.8265 289.1 61.5332 289.07 61.2665 289.01C61.0065 288.95 60.7365 288.857 60.4565 288.73L60.5665 287.67C60.8465 287.837 61.1065 287.963 61.3465 288.05C61.5932 288.13 61.8465 288.17 62.1065 288.17C62.6132 288.17 62.8665 288.003 62.8665 287.67C62.8665 287.49 62.7998 287.353 62.6665 287.26C62.5332 287.16 62.2932 287.043 61.9465 286.91C61.4532 286.73 61.0898 286.527 60.8565 286.3C60.6232 286.067 60.5065 285.753 60.5065 285.36C60.5065 284.927 60.6732 284.577 61.0065 284.31C61.3398 284.037 61.7898 283.9 62.3565 283.9C62.9232 283.9 63.4398 284.03 63.9065 284.29L63.7965 285.35C63.5432 285.177 63.3032 285.043 63.0765 284.95C62.8565 284.857 62.6232 284.81 62.3765 284.81C62.1632 284.81 61.9965 284.853 61.8765 284.94C61.7632 285.027 61.7065 285.15 61.7065 285.31C61.7065 285.437 61.7398 285.54 61.8065 285.62C61.8798 285.7 61.9798 285.773 62.1065 285.84C62.2332 285.9 62.4432 285.987 62.7365 286.1C63.2232 286.287 63.5732 286.493 63.7865 286.72C63.9998 286.94 64.1065 287.237 64.1065 287.61C64.1065 288.083 63.9365 288.45 63.5965 288.71C63.2565 288.97 62.7732 289.1 62.1465 289.1Z" fill="white"/>
<rect x="26" y="134" width="323" height="38" rx="5.5" fill="white" fill-opacity="0.1"/>
<path d="M42.8638 149.86H40.8238V149H45.8538V149.86H43.8138V156H42.8638V149.86ZM47.7663 155.78L45.7263 151.1H46.7263L48.2563 154.74L49.6363 151.1H50.6363L47.6363 158.42H46.6363L47.7663 155.78ZM54.3051 151C54.7384 151 55.1151 151.113 55.4351 151.34C55.7617 151.56 56.0117 151.863 56.1851 152.25C56.3584 152.637 56.4451 153.07 56.4451 153.55C56.4451 154.037 56.3617 154.473 56.1951 154.86C56.0351 155.24 55.7951 155.543 55.4751 155.77C55.1551 155.99 54.7651 156.1 54.3051 156.1C53.9651 156.1 53.6551 156.04 53.3751 155.92C53.0951 155.8 52.8751 155.627 52.7151 155.4V158.42H51.8151V151.1H52.5151L52.6151 151.78C53.0284 151.26 53.5917 151 54.3051 151ZM54.1351 155.3C54.5684 155.3 54.9084 155.147 55.1551 154.84C55.4017 154.527 55.5251 154.097 55.5251 153.55C55.5251 153.003 55.4017 152.577 55.1551 152.27C54.9084 151.957 54.5684 151.8 54.1351 151.8C53.7084 151.8 53.3551 151.95 53.0751 152.25C52.8017 152.55 52.6651 152.983 52.6651 153.55C52.6651 154.137 52.8017 154.577 53.0751 154.87C53.3484 155.157 53.7017 155.3 54.1351 155.3ZM60.2315 156.1C59.6715 156.1 59.1915 155.987 58.7915 155.76C58.3982 155.527 58.0982 155.213 57.8915 154.82C57.6848 154.427 57.5815 153.99 57.5815 153.51C57.5815 153.05 57.6748 152.63 57.8615 152.25C58.0548 151.863 58.3315 151.56 58.6915 151.34C59.0582 151.113 59.4882 151 59.9815 151C60.6082 151 61.1148 151.183 61.5015 151.55C61.8948 151.917 62.0915 152.423 62.0915 153.07C62.0915 153.237 62.0782 153.397 62.0515 153.55H58.5015C58.5615 154.183 58.7548 154.633 59.0815 154.9C59.4082 155.167 59.8282 155.3 60.3415 155.3C60.8548 155.3 61.3248 155.203 61.7515 155.01L61.8715 155.72C61.3048 155.973 60.7582 156.1 60.2315 156.1ZM61.1615 152.93C61.1615 152.577 61.0615 152.3 60.8615 152.1C60.6615 151.9 60.3615 151.8 59.9615 151.8C59.5748 151.8 59.2715 151.897 59.0515 152.09C58.8315 152.277 58.6748 152.557 58.5815 152.93H61.1615ZM68.5848 151C69.2048 151 69.6781 151.203 70.0048 151.61C70.3314 152.017 70.4948 152.57 70.4948 153.27V156H69.5948V153.38C69.5948 152.84 69.4948 152.443 69.2948 152.19C69.1014 151.93 68.7981 151.8 68.3848 151.8C68.1314 151.8 67.8981 151.86 67.6848 151.98C67.4714 152.093 67.2914 152.257 67.1448 152.47V156H66.2348V148.5H67.1448V151.57C67.3381 151.383 67.5481 151.243 67.7748 151.15C68.0081 151.05 68.2781 151 68.5848 151ZM74.5147 156.1C73.9547 156.1 73.4747 155.987 73.0747 155.76C72.6814 155.527 72.3814 155.213 72.1747 154.82C71.968 154.427 71.8647 153.99 71.8647 153.51C71.8647 153.05 71.958 152.63 72.1447 152.25C72.338 151.863 72.6147 151.56 72.9747 151.34C73.3414 151.113 73.7714 151 74.2647 151C74.8914 151 75.398 151.183 75.7847 151.55C76.178 151.917 76.3747 152.423 76.3747 153.07C76.3747 153.237 76.3614 153.397 76.3347 153.55H72.7847C72.8447 154.183 73.038 154.633 73.3647 154.9C73.6914 155.167 74.1114 155.3 74.6247 155.3C75.138 155.3 75.608 155.203 76.0347 155.01L76.1547 155.72C75.588 155.973 75.0414 156.1 74.5147 156.1ZM75.4447 152.93C75.4447 152.577 75.3447 152.3 75.1447 152.1C74.9447 151.9 74.6447 151.8 74.2447 151.8C73.858 151.8 73.5547 151.897 73.3347 152.09C73.1147 152.277 72.958 152.557 72.8647 152.93H75.4447ZM77.7819 151.1H78.5219L78.6319 151.91C78.8852 151.597 79.1252 151.367 79.3519 151.22C79.5852 151.073 79.8285 151 80.0819 151C80.1619 151 80.2385 151.01 80.3119 151.03L80.2219 152.02C80.1352 152 80.0352 151.99 79.9219 151.99C79.6752 151.99 79.4419 152.047 79.2219 152.16C79.0019 152.267 78.8419 152.393 78.7419 152.54V156H77.7819V151.1ZM83.669 156.1C83.109 156.1 82.629 155.987 82.229 155.76C81.8357 155.527 81.5357 155.213 81.329 154.82C81.1223 154.427 81.019 153.99 81.019 153.51C81.019 153.05 81.1123 152.63 81.299 152.25C81.4923 151.863 81.769 151.56 82.129 151.34C82.4957 151.113 82.9257 151 83.419 151C84.0457 151 84.5523 151.183 84.939 151.55C85.3323 151.917 85.529 152.423 85.529 153.07C85.529 153.237 85.5157 153.397 85.489 153.55H81.939C81.999 154.183 82.1923 154.633 82.519 154.9C82.8457 155.167 83.2657 155.3 83.779 155.3C84.2923 155.3 84.7623 155.203 85.189 155.01L85.309 155.72C84.7423 155.973 84.1957 156.1 83.669 156.1ZM84.599 152.93C84.599 152.577 84.499 152.3 84.299 152.1C84.099 151.9 83.799 151.8 83.399 151.8C83.0123 151.8 82.709 151.897 82.489 152.09C82.269 152.277 82.1123 152.557 82.019 152.93H84.599Z" fill="#969696" fill-opacity="0.7"/>
<path d="M26.77 116H28.03L31.02 120.52V116H32.3V123H31.25L28.05 118.2V123H26.77V116ZM35.1327 123.1C34.7193 123.1 34.3727 122.967 34.0927 122.7C33.8193 122.427 33.6827 122.06 33.6827 121.6C33.6827 121.167 33.8393 120.82 34.1527 120.56C34.466 120.293 34.836 120.107 35.2627 120C35.6893 119.887 36.0993 119.823 36.4927 119.81C36.4793 119.517 36.4027 119.307 36.2627 119.18C36.1293 119.053 35.906 118.99 35.5927 118.99C35.3727 118.99 35.156 119.02 34.9427 119.08C34.736 119.14 34.496 119.237 34.2227 119.37L34.1127 118.36C34.7193 118.067 35.326 117.92 35.9327 117.92C36.5193 117.92 36.966 118.08 37.2727 118.4C37.586 118.72 37.7427 119.23 37.7427 119.93V121.28C37.7427 121.533 37.7527 121.717 37.7727 121.83C37.7993 121.937 37.8393 122.007 37.8927 122.04C37.9527 122.067 38.0493 122.08 38.1827 122.08H38.3427L38.2327 123.1H37.7827C37.5093 123.1 37.2793 123.05 37.0927 122.95C36.906 122.843 36.7627 122.7 36.6627 122.52C36.5027 122.7 36.2827 122.843 36.0027 122.95C35.7293 123.05 35.4393 123.1 35.1327 123.1ZM35.6527 122.15C35.7793 122.15 35.9227 122.12 36.0827 122.06C36.2427 121.993 36.3827 121.903 36.5027 121.79V120.65C36.1027 120.67 35.7493 120.757 35.4427 120.91C35.136 121.063 34.9827 121.277 34.9827 121.55C34.9827 121.757 35.036 121.91 35.1427 122.01C35.2493 122.103 35.4193 122.15 35.6527 122.15ZM45.1431 117.92C45.8098 117.92 46.3031 118.123 46.6231 118.53C46.9498 118.93 47.1131 119.493 47.1131 120.22V123H45.8731V120.31C45.8731 119.837 45.7998 119.49 45.6531 119.27C45.5065 119.05 45.2665 118.94 44.9331 118.94C44.6065 118.94 44.3598 119.053 44.1931 119.28C44.0265 119.5 43.9431 119.813 43.9431 120.22V123H42.7031V120.31C42.7031 119.837 42.6265 119.49 42.4731 119.27C42.3198 119.05 42.0765 118.94 41.7431 118.94C41.3498 118.94 41.0265 119.083 40.7731 119.37V123H39.5331V118H40.5931L40.6331 118.4C41.0865 118.08 41.5765 117.92 42.1031 117.92C42.7431 117.92 43.2198 118.15 43.5331 118.61C43.7065 118.39 43.9331 118.22 44.2131 118.1C44.4931 117.98 44.8031 117.92 45.1431 117.92ZM51.1345 123.1C50.5545 123.1 50.0579 122.983 49.6445 122.75C49.2379 122.51 48.9312 122.193 48.7245 121.8C48.5245 121.4 48.4245 120.957 48.4245 120.47C48.4245 120.003 48.5212 119.577 48.7145 119.19C48.9079 118.803 49.1879 118.497 49.5545 118.27C49.9212 118.037 50.3579 117.92 50.8645 117.92C51.3312 117.92 51.7245 118.017 52.0445 118.21C52.3712 118.403 52.6145 118.663 52.7745 118.99C52.9412 119.317 53.0245 119.683 53.0245 120.09C53.0245 120.29 52.9979 120.517 52.9445 120.77H49.7145C49.7812 121.21 49.9545 121.54 50.2345 121.76C50.5145 121.973 50.8512 122.08 51.2445 122.08C51.7845 122.08 52.2845 121.943 52.7445 121.67L52.8045 122.72C52.5912 122.833 52.3412 122.927 52.0545 123C51.7745 123.067 51.4679 123.1 51.1345 123.1ZM51.7645 119.93C51.7645 119.67 51.6912 119.44 51.5445 119.24C51.3979 119.04 51.1712 118.94 50.8645 118.94C50.5579 118.94 50.3112 119.03 50.1245 119.21C49.9379 119.39 49.8112 119.63 49.7445 119.93H51.7645Z" fill="white"/>
<rect x="26" y="349" width="323" height="38" rx="5.5" fill="white" fill-opacity="0.1"/>
<path d="M42.8638 364.86H40.8238V364H45.8538V364.86H43.8138V371H42.8638V364.86ZM47.7663 370.78L45.7263 366.1H46.7263L48.2563 369.74L49.6363 366.1H50.6363L47.6363 373.42H46.6363L47.7663 370.78ZM54.3051 366C54.7384 366 55.1151 366.113 55.4351 366.34C55.7617 366.56 56.0117 366.863 56.1851 367.25C56.3584 367.637 56.4451 368.07 56.4451 368.55C56.4451 369.037 56.3617 369.473 56.1951 369.86C56.0351 370.24 55.7951 370.543 55.4751 370.77C55.1551 370.99 54.7651 371.1 54.3051 371.1C53.9651 371.1 53.6551 371.04 53.3751 370.92C53.0951 370.8 52.8751 370.627 52.7151 370.4V373.42H51.8151V366.1H52.5151L52.6151 366.78C53.0284 366.26 53.5917 366 54.3051 366ZM54.1351 370.3C54.5684 370.3 54.9084 370.147 55.1551 369.84C55.4017 369.527 55.5251 369.097 55.5251 368.55C55.5251 368.003 55.4017 367.577 55.1551 367.27C54.9084 366.957 54.5684 366.8 54.1351 366.8C53.7084 366.8 53.3551 366.95 53.0751 367.25C52.8017 367.55 52.6651 367.983 52.6651 368.55C52.6651 369.137 52.8017 369.577 53.0751 369.87C53.3484 370.157 53.7017 370.3 54.1351 370.3ZM60.2315 371.1C59.6715 371.1 59.1915 370.987 58.7915 370.76C58.3982 370.527 58.0982 370.213 57.8915 369.82C57.6848 369.427 57.5815 368.99 57.5815 368.51C57.5815 368.05 57.6748 367.63 57.8615 367.25C58.0548 366.863 58.3315 366.56 58.6915 366.34C59.0582 366.113 59.4882 366 59.9815 366C60.6082 366 61.1148 366.183 61.5015 366.55C61.8948 366.917 62.0915 367.423 62.0915 368.07C62.0915 368.237 62.0782 368.397 62.0515 368.55H58.5015C58.5615 369.183 58.7548 369.633 59.0815 369.9C59.4082 370.167 59.8282 370.3 60.3415 370.3C60.8548 370.3 61.3248 370.203 61.7515 370.01L61.8715 370.72C61.3048 370.973 60.7582 371.1 60.2315 371.1ZM61.1615 367.93C61.1615 367.577 61.0615 367.3 60.8615 367.1C60.6615 366.9 60.3615 366.8 59.9615 366.8C59.5748 366.8 59.2715 366.897 59.0515 367.09C58.8315 367.277 58.6748 367.557 58.5815 367.93H61.1615ZM68.5848 366C69.2048 366 69.6781 366.203 70.0048 366.61C70.3314 367.017 70.4948 367.57 70.4948 368.27V371H69.5948V368.38C69.5948 367.84 69.4948 367.443 69.2948 367.19C69.1014 366.93 68.7981 366.8 68.3848 366.8C68.1314 366.8 67.8981 366.86 67.6848 366.98C67.4714 367.093 67.2914 367.257 67.1448 367.47V371H66.2348V363.5H67.1448V366.57C67.3381 366.383 67.5481 366.243 67.7748 366.15C68.0081 366.05 68.2781 366 68.5848 366ZM74.5147 371.1C73.9547 371.1 73.4747 370.987 73.0747 370.76C72.6814 370.527 72.3814 370.213 72.1747 369.82C71.968 369.427 71.8647 368.99 71.8647 368.51C71.8647 368.05 71.958 367.63 72.1447 367.25C72.338 366.863 72.6147 366.56 72.9747 366.34C73.3414 366.113 73.7714 366 74.2647 366C74.8914 366 75.398 366.183 75.7847 366.55C76.178 366.917 76.3747 367.423 76.3747 368.07C76.3747 368.237 76.3614 368.397 76.3347 368.55H72.7847C72.8447 369.183 73.038 369.633 73.3647 369.9C73.6914 370.167 74.1114 370.3 74.6247 370.3C75.138 370.3 75.608 370.203 76.0347 370.01L76.1547 370.72C75.588 370.973 75.0414 371.1 74.5147 371.1ZM75.4447 367.93C75.4447 367.577 75.3447 367.3 75.1447 367.1C74.9447 366.9 74.6447 366.8 74.2447 366.8C73.858 366.8 73.5547 366.897 73.3347 367.09C73.1147 367.277 72.958 367.557 72.8647 367.93H75.4447ZM77.7819 366.1H78.5219L78.6319 366.91C78.8852 366.597 79.1252 366.367 79.3519 366.22C79.5852 366.073 79.8285 366 80.0819 366C80.1619 366 80.2385 366.01 80.3119 366.03L80.2219 367.02C80.1352 367 80.0352 366.99 79.9219 366.99C79.6752 366.99 79.4419 367.047 79.2219 367.16C79.0019 367.267 78.8419 367.393 78.7419 367.54V371H77.7819V366.1ZM83.669 371.1C83.109 371.1 82.629 370.987 82.229 370.76C81.8357 370.527 81.5357 370.213 81.329 369.82C81.1223 369.427 81.019 368.99 81.019 368.51C81.019 368.05 81.1123 367.63 81.299 367.25C81.4923 366.863 81.769 366.56 82.129 366.34C82.4957 366.113 82.9257 366 83.419 366C84.0457 366 84.5523 366.183 84.939 366.55C85.3323 366.917 85.529 367.423 85.529 368.07C85.529 368.237 85.5157 368.397 85.489 368.55H81.939C81.999 369.183 82.1923 369.633 82.519 369.9C82.8457 370.167 83.2657 370.3 83.779 370.3C84.2923 370.3 84.7623 370.203 85.189 370.01L85.309 370.72C84.7423 370.973 84.1957 371.1 83.669 371.1ZM84.599 367.93C84.599 367.577 84.499 367.3 84.299 367.1C84.099 366.9 83.799 366.8 83.399 366.8C83.0123 366.8 82.709 366.897 82.489 367.09C82.269 367.277 82.1123 367.557 82.019 367.93H84.599Z" fill="#969696" fill-opacity="0.7"/>
<path d="M32.56 338L31.96 333.31L30.17 336.53L28.37 333.32L27.77 338H26.44L27.41 331H28.46L30.17 334.19L31.87 331H32.92L33.89 338H32.56ZM37.6931 338.1C37.1131 338.1 36.6165 337.983 36.2031 337.75C35.7965 337.51 35.4898 337.193 35.2831 336.8C35.0831 336.4 34.9831 335.957 34.9831 335.47C34.9831 335.003 35.0798 334.577 35.2731 334.19C35.4665 333.803 35.7465 333.497 36.1131 333.27C36.4798 333.037 36.9165 332.92 37.4231 332.92C37.8898 332.92 38.2831 333.017 38.6031 333.21C38.9298 333.403 39.1731 333.663 39.3331 333.99C39.4998 334.317 39.5831 334.683 39.5831 335.09C39.5831 335.29 39.5565 335.517 39.5031 335.77H36.2731C36.3398 336.21 36.5131 336.54 36.7931 336.76C37.0731 336.973 37.4098 337.08 37.8031 337.08C38.3431 337.08 38.8431 336.943 39.3031 336.67L39.3631 337.72C39.1498 337.833 38.8998 337.927 38.6131 338C38.3331 338.067 38.0265 338.1 37.6931 338.1ZM38.3231 334.93C38.3231 334.67 38.2498 334.44 38.1031 334.24C37.9565 334.04 37.7298 333.94 37.4231 333.94C37.1165 333.94 36.8698 334.03 36.6831 334.21C36.4965 334.39 36.3698 334.63 36.3031 334.93H38.3231ZM46.5396 332.92C47.2063 332.92 47.6996 333.123 48.0196 333.53C48.3463 333.93 48.5096 334.493 48.5096 335.22V338H47.2696V335.31C47.2696 334.837 47.1963 334.49 47.0496 334.27C46.9029 334.05 46.6629 333.94 46.3296 333.94C46.0029 333.94 45.7563 334.053 45.5896 334.28C45.4229 334.5 45.3396 334.813 45.3396 335.22V338H44.0996V335.31C44.0996 334.837 44.0229 334.49 43.8696 334.27C43.7163 334.05 43.4729 333.94 43.1396 333.94C42.7463 333.94 42.4229 334.083 42.1696 334.37V338H40.9296V333H41.9896L42.0296 333.4C42.4829 333.08 42.9729 332.92 43.4996 332.92C44.1396 332.92 44.6163 333.15 44.9296 333.61C45.1029 333.39 45.3296 333.22 45.6096 333.1C45.8896 332.98 46.1996 332.92 46.5396 332.92ZM52.391 338.1C51.8643 338.1 51.4077 337.983 51.021 337.75C50.6343 337.517 50.3377 337.203 50.131 336.81C49.9243 336.417 49.821 335.983 49.821 335.51C49.821 335.037 49.9243 334.6 50.131 334.2C50.3377 333.8 50.6343 333.483 51.021 333.25C51.4077 333.017 51.8643 332.9 52.391 332.9C52.9177 332.9 53.3743 333.017 53.761 333.25C54.1477 333.483 54.4443 333.8 54.651 334.2C54.8577 334.6 54.961 335.037 54.961 335.51C54.961 335.983 54.8577 336.417 54.651 336.81C54.4443 337.203 54.1477 337.517 53.761 337.75C53.3743 337.983 52.9177 338.1 52.391 338.1ZM52.391 337.08C52.7977 337.08 53.1143 336.937 53.341 336.65C53.5743 336.363 53.691 335.983 53.691 335.51C53.691 335.03 53.5743 334.647 53.341 334.36C53.1143 334.067 52.7977 333.92 52.391 333.92C51.9843 333.92 51.6643 334.067 51.431 334.36C51.2043 334.647 51.091 335.03 51.091 335.51C51.091 335.983 51.2043 336.363 51.431 336.65C51.6643 336.937 51.9843 337.08 52.391 337.08Z" fill="white"/>
<rect x="26" y="205" width="323" height="38" rx="5.5" fill="white" fill-opacity="0.1"/>
<path d="M42.8638 220.86H40.8238V220H45.8538V220.86H43.8138V227H42.8638V220.86ZM47.7663 226.78L45.7263 222.1H46.7263L48.2563 225.74L49.6363 222.1H50.6363L47.6363 229.42H46.6363L47.7663 226.78ZM54.3051 222C54.7384 222 55.1151 222.113 55.4351 222.34C55.7617 222.56 56.0117 222.863 56.1851 223.25C56.3584 223.637 56.4451 224.07 56.4451 224.55C56.4451 225.037 56.3617 225.473 56.1951 225.86C56.0351 226.24 55.7951 226.543 55.4751 226.77C55.1551 226.99 54.7651 227.1 54.3051 227.1C53.9651 227.1 53.6551 227.04 53.3751 226.92C53.0951 226.8 52.8751 226.627 52.7151 226.4V229.42H51.8151V222.1H52.5151L52.6151 222.78C53.0284 222.26 53.5917 222 54.3051 222ZM54.1351 226.3C54.5684 226.3 54.9084 226.147 55.1551 225.84C55.4017 225.527 55.5251 225.097 55.5251 224.55C55.5251 224.003 55.4017 223.577 55.1551 223.27C54.9084 222.957 54.5684 222.8 54.1351 222.8C53.7084 222.8 53.3551 222.95 53.0751 223.25C52.8017 223.55 52.6651 223.983 52.6651 224.55C52.6651 225.137 52.8017 225.577 53.0751 225.87C53.3484 226.157 53.7017 226.3 54.1351 226.3ZM60.2315 227.1C59.6715 227.1 59.1915 226.987 58.7915 226.76C58.3982 226.527 58.0982 226.213 57.8915 225.82C57.6848 225.427 57.5815 224.99 57.5815 224.51C57.5815 224.05 57.6748 223.63 57.8615 223.25C58.0548 222.863 58.3315 222.56 58.6915 222.34C59.0582 222.113 59.4882 222 59.9815 222C60.6082 222 61.1148 222.183 61.5015 222.55C61.8948 222.917 62.0915 223.423 62.0915 224.07C62.0915 224.237 62.0782 224.397 62.0515 224.55H58.5015C58.5615 225.183 58.7548 225.633 59.0815 225.9C59.4082 226.167 59.8282 226.3 60.3415 226.3C60.8548 226.3 61.3248 226.203 61.7515 226.01L61.8715 226.72C61.3048 226.973 60.7582 227.1 60.2315 227.1ZM61.1615 223.93C61.1615 223.577 61.0615 223.3 60.8615 223.1C60.6615 222.9 60.3615 222.8 59.9615 222.8C59.5748 222.8 59.2715 222.897 59.0515 223.09C58.8315 223.277 58.6748 223.557 58.5815 223.93H61.1615ZM68.5848 222C69.2048 222 69.6781 222.203 70.0048 222.61C70.3314 223.017 70.4948 223.57 70.4948 224.27V227H69.5948V224.38C69.5948 223.84 69.4948 223.443 69.2948 223.19C69.1014 222.93 68.7981 222.8 68.3848 222.8C68.1314 222.8 67.8981 222.86 67.6848 222.98C67.4714 223.093 67.2914 223.257 67.1448 223.47V227H66.2348V219.5H67.1448V222.57C67.3381 222.383 67.5481 222.243 67.7748 222.15C68.0081 222.05 68.2781 222 68.5848 222ZM74.5147 227.1C73.9547 227.1 73.4747 226.987 73.0747 226.76C72.6814 226.527 72.3814 226.213 72.1747 225.82C71.968 225.427 71.8647 224.99 71.8647 224.51C71.8647 224.05 71.958 223.63 72.1447 223.25C72.338 222.863 72.6147 222.56 72.9747 222.34C73.3414 222.113 73.7714 222 74.2647 222C74.8914 222 75.398 222.183 75.7847 222.55C76.178 222.917 76.3747 223.423 76.3747 224.07C76.3747 224.237 76.3614 224.397 76.3347 224.55H72.7847C72.8447 225.183 73.038 225.633 73.3647 225.9C73.6914 226.167 74.1114 226.3 74.6247 226.3C75.138 226.3 75.608 226.203 76.0347 226.01L76.1547 226.72C75.588 226.973 75.0414 227.1 74.5147 227.1ZM75.4447 223.93C75.4447 223.577 75.3447 223.3 75.1447 223.1C74.9447 222.9 74.6447 222.8 74.2447 222.8C73.858 222.8 73.5547 222.897 73.3347 223.09C73.1147 223.277 72.958 223.557 72.8647 223.93H75.4447ZM77.7819 222.1H78.5219L78.6319 222.91C78.8852 222.597 79.1252 222.367 79.3519 222.22C79.5852 222.073 79.8285 222 80.0819 222C80.1619 222 80.2385 222.01 80.3119 222.03L80.2219 223.02C80.1352 223 80.0352 222.99 79.9219 222.99C79.6752 222.99 79.4419 223.047 79.2219 223.16C79.0019 223.267 78.8419 223.393 78.7419 223.54V227H77.7819V222.1ZM83.669 227.1C83.109 227.1 82.629 226.987 82.229 226.76C81.8357 226.527 81.5357 226.213 81.329 225.82C81.1223 225.427 81.019 224.99 81.019 224.51C81.019 224.05 81.1123 223.63 81.299 223.25C81.4923 222.863 81.769 222.56 82.129 222.34C82.4957 222.113 82.9257 222 83.419 222C84.0457 222 84.5523 222.183 84.939 222.55C85.3323 222.917 85.529 223.423 85.529 224.07C85.529 224.237 85.5157 224.397 85.489 224.55H81.939C81.999 225.183 82.1923 225.633 82.519 225.9C82.8457 226.167 83.2657 226.3 83.779 226.3C84.2923 226.3 84.7623 226.203 85.189 226.01L85.309 226.72C84.7423 226.973 84.1957 227.1 83.669 227.1ZM84.599 223.93C84.599 223.577 84.499 223.3 84.299 223.1C84.099 222.9 83.799 222.8 83.399 222.8C83.0123 222.8 82.709 222.897 82.489 223.09C82.269 223.277 82.1123 223.557 82.019 223.93H84.599Z" fill="#969696" fill-opacity="0.7"/>
<path d="M26.77 187H31.25V188.24H28.08V189.73H30.54V190.97H28.08V192.76H31.35V194H26.77V187ZM38.3248 188.92C38.9914 188.92 39.4848 189.123 39.8048 189.53C40.1314 189.93 40.2948 190.493 40.2948 191.22V194H39.0548V191.31C39.0548 190.837 38.9814 190.49 38.8348 190.27C38.6881 190.05 38.4481 189.94 38.1148 189.94C37.7881 189.94 37.5414 190.053 37.3748 190.28C37.2081 190.5 37.1248 190.813 37.1248 191.22V194H35.8848V191.31C35.8848 190.837 35.8081 190.49 35.6548 190.27C35.5014 190.05 35.2581 189.94 34.9248 189.94C34.5314 189.94 34.2081 190.083 33.9548 190.37V194H32.7148V189H33.7748L33.8148 189.4C34.2681 189.08 34.7581 188.92 35.2848 188.92C35.9248 188.92 36.4014 189.15 36.7148 189.61C36.8881 189.39 37.1148 189.22 37.3948 189.1C37.6748 188.98 37.9848 188.92 38.3248 188.92ZM42.9862 194.1C42.5728 194.1 42.2262 193.967 41.9462 193.7C41.6728 193.427 41.5362 193.06 41.5362 192.6C41.5362 192.167 41.6928 191.82 42.0062 191.56C42.3195 191.293 42.6895 191.107 43.1162 191C43.5428 190.887 43.9528 190.823 44.3462 190.81C44.3328 190.517 44.2562 190.307 44.1162 190.18C43.9828 190.053 43.7595 189.99 43.4462 189.99C43.2262 189.99 43.0095 190.02 42.7962 190.08C42.5895 190.14 42.3495 190.237 42.0762 190.37L41.9662 189.36C42.5728 189.067 43.1795 188.92 43.7862 188.92C44.3728 188.92 44.8195 189.08 45.1262 189.4C45.4395 189.72 45.5962 190.23 45.5962 190.93V192.28C45.5962 192.533 45.6062 192.717 45.6262 192.83C45.6528 192.937 45.6928 193.007 45.7462 193.04C45.8062 193.067 45.9028 193.08 46.0362 193.08H46.1962L46.0862 194.1H45.6362C45.3628 194.1 45.1328 194.05 44.9462 193.95C44.7595 193.843 44.6162 193.7 44.5162 193.52C44.3562 193.7 44.1362 193.843 43.8562 193.95C43.5828 194.05 43.2928 194.1 42.9862 194.1ZM43.5062 193.15C43.6328 193.15 43.7762 193.12 43.9362 193.06C44.0962 192.993 44.2362 192.903 44.3562 192.79V191.65C43.9562 191.67 43.6028 191.757 43.2962 191.91C42.9895 192.063 42.8362 192.277 42.8362 192.55C42.8362 192.757 42.8895 192.91 42.9962 193.01C43.1028 193.103 43.2728 193.15 43.5062 193.15ZM47.3866 187H48.6266V188.24H47.3866V187ZM47.3866 189H48.6266V194H47.3866V189ZM51.569 194.1C51.1423 194.1 50.8223 193.98 50.609 193.74C50.3957 193.493 50.289 193.177 50.289 192.79V186.5H51.529V192.28C51.529 192.547 51.5423 192.737 51.569 192.85C51.6023 192.957 51.6557 193.023 51.729 193.05C51.809 193.07 51.9423 193.08 52.129 193.08L52.019 194.1H51.569Z" fill="white"/>
<g filter="url(#filter1_d)">
<rect x="16" y="411" width="343" height="52" rx="10" fill="url(#paint2_linear)"/>
</g>
<path d="M169.092 443.252C167.82 443.252 166.692 442.982 165.708 442.442C164.736 441.902 163.98 441.14 163.44 440.156C162.9 439.16 162.63 438.008 162.63 436.7C162.63 435.404 162.906 434.264 163.458 433.28C164.022 432.284 164.796 431.516 165.78 430.976C166.776 430.424 167.904 430.148 169.164 430.148C170.376 430.148 171.462 430.394 172.422 430.886L172.17 433.082C171.654 432.854 171.156 432.68 170.676 432.56C170.208 432.428 169.698 432.362 169.146 432.362C167.862 432.362 166.872 432.758 166.176 433.55C165.492 434.342 165.15 435.392 165.15 436.7C165.15 438.008 165.486 439.058 166.158 439.85C166.842 440.642 167.82 441.038 169.092 441.038C169.656 441.038 170.172 440.978 170.64 440.858C171.12 440.738 171.63 440.558 172.17 440.318L172.422 442.514C171.378 443.006 170.268 443.252 169.092 443.252ZM174.013 434H176.101L176.155 434.954C176.419 434.654 176.755 434.39 177.163 434.162C177.583 433.934 178.021 433.82 178.477 433.82C178.621 433.82 178.753 433.832 178.873 433.856L178.711 436.052C178.483 435.992 178.225 435.962 177.937 435.962C177.565 435.962 177.223 436.052 176.911 436.232C176.599 436.4 176.377 436.61 176.245 436.862V443H174.013V434ZM184.134 443.18C183.09 443.18 182.196 442.97 181.452 442.55C180.72 442.118 180.168 441.548 179.796 440.84C179.436 440.12 179.256 439.322 179.256 438.446C179.256 437.606 179.43 436.838 179.778 436.142C180.126 435.446 180.63 434.894 181.29 434.486C181.95 434.066 182.736 433.856 183.648 433.856C184.488 433.856 185.196 434.03 185.772 434.378C186.36 434.726 186.798 435.194 187.086 435.782C187.386 436.37 187.536 437.03 187.536 437.762C187.536 438.122 187.488 438.53 187.392 438.986H181.578C181.698 439.778 182.01 440.372 182.514 440.768C183.018 441.152 183.624 441.344 184.332 441.344C185.304 441.344 186.204 441.098 187.032 440.606L187.14 442.496C186.756 442.7 186.306 442.868 185.79 443C185.286 443.12 184.734 443.18 184.134 443.18ZM185.268 437.474C185.268 437.006 185.136 436.592 184.872 436.232C184.608 435.872 184.2 435.692 183.648 435.692C183.096 435.692 182.652 435.854 182.316 436.178C181.98 436.502 181.752 436.934 181.632 437.474H185.268ZM191.004 443.18C190.26 443.18 189.636 442.94 189.132 442.46C188.64 441.968 188.394 441.308 188.394 440.48C188.394 439.7 188.676 439.076 189.24 438.608C189.804 438.128 190.47 437.792 191.238 437.6C192.006 437.396 192.744 437.282 193.452 437.258C193.428 436.73 193.29 436.352 193.038 436.124C192.798 435.896 192.396 435.782 191.832 435.782C191.436 435.782 191.046 435.836 190.662 435.944C190.29 436.052 189.858 436.226 189.366 436.466L189.168 434.648C190.26 434.12 191.352 433.856 192.444 433.856C193.5 433.856 194.304 434.144 194.856 434.72C195.42 435.296 195.702 436.214 195.702 437.474V439.904C195.702 440.36 195.72 440.69 195.756 440.894C195.804 441.086 195.876 441.212 195.972 441.272C196.08 441.32 196.254 441.344 196.494 441.344H196.782L196.584 443.18H195.774C195.282 443.18 194.868 443.09 194.532 442.91C194.196 442.718 193.938 442.46 193.758 442.136C193.47 442.46 193.074 442.718 192.57 442.91C192.078 443.09 191.556 443.18 191.004 443.18ZM191.94 441.47C192.168 441.47 192.426 441.416 192.714 441.308C193.002 441.188 193.254 441.026 193.47 440.822V438.77C192.75 438.806 192.114 438.962 191.562 439.238C191.01 439.514 190.734 439.898 190.734 440.39C190.734 440.762 190.83 441.038 191.022 441.218C191.214 441.386 191.52 441.47 191.94 441.47ZM200.818 443.18C200.026 443.18 199.426 442.952 199.018 442.496C198.61 442.028 198.406 441.47 198.406 440.822V435.836H197.128L197.326 434H198.406V432.02L200.638 431.786V434H202.618V435.836H200.638V439.904C200.638 440.384 200.662 440.72 200.71 440.912C200.77 441.092 200.884 441.212 201.052 441.272C201.232 441.32 201.55 441.344 202.006 441.344H202.618L202.42 443.18H200.818ZM208.409 443.18C207.365 443.18 206.471 442.97 205.727 442.55C204.995 442.118 204.443 441.548 204.071 440.84C203.711 440.12 203.531 439.322 203.531 438.446C203.531 437.606 203.705 436.838 204.053 436.142C204.401 435.446 204.905 434.894 205.565 434.486C206.225 434.066 207.011 433.856 207.923 433.856C208.763 433.856 209.471 434.03 210.047 434.378C210.635 434.726 211.073 435.194 211.361 435.782C211.661 436.37 211.811 437.03 211.811 437.762C211.811 438.122 211.763 438.53 211.667 438.986H205.853C205.973 439.778 206.285 440.372 206.789 440.768C207.293 441.152 207.899 441.344 208.607 441.344C209.579 441.344 210.479 441.098 211.307 440.606L211.415 442.496C211.031 442.7 210.581 442.868 210.065 443C209.561 443.12 209.009 443.18 208.409 443.18ZM209.543 437.474C209.543 437.006 209.411 436.592 209.147 436.232C208.883 435.872 208.475 435.692 207.923 435.692C207.371 435.692 206.927 435.854 206.591 436.178C206.255 436.502 206.027 436.934 205.907 437.474H209.543Z" fill="white"/>
<path fill-rule="evenodd" clip-rule="evenodd" d="M340 294C344.971 294 349 289.971 349 285C349 280.029 344.971 276 340 276C335.029 276 331 280.029 331 285C331 289.971 335.029 294 340 294ZM339.036 280.471C339.036 280.027 339.395 279.667 339.839 279.667C340.283 279.667 340.643 280.027 340.643 280.471V284.001H344.31C344.77 284.001 345.143 284.374 345.143 284.834C345.143 285.294 344.77 285.668 344.31 285.668H340.643V289.53C340.643 289.974 340.283 290.334 339.839 290.334C339.395 290.334 339.036 289.974 339.036 289.53V285.668H335.691C335.23 285.668 334.857 285.294 334.857 284.834C334.857 284.374 335.23 284.001 335.691 284.001H339.036V280.471Z" fill="white"/>
<path d="M340 77C340.962 77 341.75 76.1692 341.75 75.1538H338.25C338.25 76.1692 339.029 77 340 77ZM345.25 71.4615V66.8462C345.25 64.0123 343.815 61.64 341.312 61.0123V60.3846C341.312 59.6185 340.726 59 340 59C339.274 59 338.687 59.6185 338.687 60.3846V61.0123C336.176 61.64 334.75 64.0031 334.75 66.8462V71.4615L333 73.3077V74.2308H347V73.3077L345.25 71.4615Z" fill="white"/>
<path d="M309.2 61H294.8C293.81 61 293.009 61.7875 293.009 62.75L293 73.25C293 74.2125 293.81 75 294.8 75H309.2C310.19 75 311 74.2125 311 73.25V62.75C311 61.7875 310.19 61 309.2 61ZM309.2 64.5L302 68.875L294.8 64.5V62.75L302 67.125L309.2 62.75V64.5Z" fill="white"/>
<circle opacity="0.3" cx="313.5" cy="59.5" r="12.5" fill="url(#paint3_linear)"/>
<circle cx="313.5" cy="59.5" r="7.5" fill="url(#paint4_linear)"/>
<path d="M313.28 60.17C313.667 59.5767 313.93 59.13 314.07 58.83C314.217 58.53 314.29 58.2467 314.29 57.98C314.29 57.6933 314.207 57.47 314.04 57.31C313.88 57.1433 313.657 57.06 313.37 57.06C313.05 57.06 312.753 57.1367 312.48 57.29C312.207 57.4433 311.94 57.65 311.68 57.91L311.52 56.62C311.833 56.3667 312.16 56.1767 312.5 56.05C312.84 55.9233 313.217 55.86 313.63 55.86C314.037 55.86 314.383 55.9467 314.67 56.12C314.957 56.2867 315.17 56.5133 315.31 56.8C315.457 57.0867 315.53 57.4033 315.53 57.75C315.53 58.1433 315.443 58.5467 315.27 58.96C315.103 59.3733 314.807 59.9033 314.38 60.55L313.56 61.8H315.78V63H311.44L313.28 60.17Z" fill="white"/>
<path d="M99.4137 74.252C98.1417 74.252 97.0137 73.982 96.0297 73.442C95.0577 72.902 94.3017 72.14 93.7617 71.156C93.2217 70.16 92.9517 69.008 92.9517 67.7C92.9517 66.404 93.2277 65.264 93.7797 64.28C94.3437 63.284 95.1177 62.516 96.1017 61.976C97.0977 61.424 98.2257 61.148 99.4857 61.148C100.698 61.148 101.784 61.394 102.744 61.886L102.492 64.082C101.976 63.854 101.478 63.68 100.998 63.56C100.53 63.428 100.02 63.362 99.4677 63.362C98.1837 63.362 97.1937 63.758 96.4977 64.55C95.8137 65.342 95.4717 66.392 95.4717 67.7C95.4717 69.008 95.8077 70.058 96.4797 70.85C97.1637 71.642 98.1417 72.038 99.4137 72.038C99.9777 72.038 100.494 71.978 100.962 71.858C101.442 71.738 101.952 71.558 102.492 71.318L102.744 73.514C101.7 74.006 100.59 74.252 99.4137 74.252ZM105.234 65H107.322L107.376 65.954C107.64 65.654 107.976 65.39 108.384 65.162C108.804 64.934 109.242 64.82 109.698 64.82C109.842 64.82 109.974 64.832 110.094 64.856L109.932 67.052C109.704 66.992 109.446 66.962 109.158 66.962C108.786 66.962 108.444 67.052 108.132 67.232C107.82 67.4 107.598 67.61 107.466 67.862V74H105.234V65ZM116.256 74.18C115.212 74.18 114.318 73.97 113.574 73.55C112.842 73.118 112.29 72.548 111.918 71.84C111.558 71.12 111.378 70.322 111.378 69.446C111.378 68.606 111.552 67.838 111.9 67.142C112.248 66.446 112.752 65.894 113.412 65.486C114.072 65.066 114.858 64.856 115.77 64.856C116.61 64.856 117.318 65.03 117.894 65.378C118.482 65.726 118.92 66.194 119.208 66.782C119.508 67.37 119.658 68.03 119.658 68.762C119.658 69.122 119.61 69.53 119.514 69.986H113.7C113.82 70.778 114.132 71.372 114.636 71.768C115.14 72.152 115.746 72.344 116.454 72.344C117.426 72.344 118.326 72.098 119.154 71.606L119.262 73.496C118.878 73.7 118.428 73.868 117.912 74C117.408 74.12 116.856 74.18 116.256 74.18ZM117.39 68.474C117.39 68.006 117.258 67.592 116.994 67.232C116.73 66.872 116.322 66.692 115.77 66.692C115.218 66.692 114.774 66.854 114.438 67.178C114.102 67.502 113.874 67.934 113.754 68.474H117.39ZM124.025 74.18C123.281 74.18 122.657 73.94 122.153 73.46C121.661 72.968 121.415 72.308 121.415 71.48C121.415 70.7 121.697 70.076 122.261 69.608C122.825 69.128 123.491 68.792 124.259 68.6C125.027 68.396 125.765 68.282 126.473 68.258C126.449 67.73 126.311 67.352 126.059 67.124C125.819 66.896 125.417 66.782 124.853 66.782C124.457 66.782 124.067 66.836 123.683 66.944C123.311 67.052 122.879 67.226 122.387 67.466L122.189 65.648C123.281 65.12 124.373 64.856 125.465 64.856C126.521 64.856 127.325 65.144 127.877 65.72C128.441 66.296 128.723 67.214 128.723 68.474V70.904C128.723 71.36 128.741 71.69 128.777 71.894C128.825 72.086 128.897 72.212 128.993 72.272C129.101 72.32 129.275 72.344 129.515 72.344H129.803L129.605 74.18H128.795C128.303 74.18 127.889 74.09 127.553 73.91C127.217 73.718 126.959 73.46 126.779 73.136C126.491 73.46 126.095 73.718 125.591 73.91C125.099 74.09 124.577 74.18 124.025 74.18ZM124.961 72.47C125.189 72.47 125.447 72.416 125.735 72.308C126.023 72.188 126.275 72.026 126.491 71.822V69.77C125.771 69.806 125.135 69.962 124.583 70.238C124.031 70.514 123.755 70.898 123.755 71.39C123.755 71.762 123.851 72.038 124.043 72.218C124.235 72.386 124.541 72.47 124.961 72.47ZM134.74 74.18C133.948 74.18 133.348 73.952 132.94 73.496C132.532 73.028 132.328 72.47 132.328 71.822V66.836H131.05L131.248 65H132.328V63.02L134.56 62.786V65H136.54V66.836H134.56V70.904C134.56 71.384 134.584 71.72 134.632 71.912C134.692 72.092 134.806 72.212 134.974 72.272C135.154 72.32 135.472 72.344 135.928 72.344H136.54L136.342 74.18H134.74ZM143.231 74.18C142.187 74.18 141.293 73.97 140.549 73.55C139.817 73.118 139.265 72.548 138.893 71.84C138.533 71.12 138.353 70.322 138.353 69.446C138.353 68.606 138.527 67.838 138.875 67.142C139.223 66.446 139.727 65.894 140.387 65.486C141.047 65.066 141.833 64.856 142.745 64.856C143.585 64.856 144.293 65.03 144.869 65.378C145.457 65.726 145.895 66.194 146.183 66.782C146.483 67.37 146.633 68.03 146.633 68.762C146.633 69.122 146.585 69.53 146.489 69.986H140.675C140.795 70.778 141.107 71.372 141.611 71.768C142.115 72.152 142.721 72.344 143.429 72.344C144.401 72.344 145.301 72.098 146.129 71.606L146.237 73.496C145.853 73.7 145.403 73.868 144.887 74C144.383 74.12 143.831 74.18 143.231 74.18ZM144.365 68.474C144.365 68.006 144.233 67.592 143.969 67.232C143.705 66.872 143.297 66.692 142.745 66.692C142.193 66.692 141.749 66.854 141.413 67.178C141.077 67.502 140.849 67.934 140.729 68.474H144.365ZM154.342 61.4H156.61L161.992 69.536V61.4H164.296V74H162.406L156.646 65.36V74H154.342V61.4ZM171.718 74.18C170.674 74.18 169.78 73.97 169.036 73.55C168.304 73.118 167.752 72.548 167.38 71.84C167.02 71.12 166.84 70.322 166.84 69.446C166.84 68.606 167.014 67.838 167.362 67.142C167.71 66.446 168.214 65.894 168.874 65.486C169.534 65.066 170.32 64.856 171.232 64.856C172.072 64.856 172.78 65.03 173.356 65.378C173.944 65.726 174.382 66.194 174.67 66.782C174.97 67.37 175.12 68.03 175.12 68.762C175.12 69.122 175.072 69.53 174.976 69.986H169.162C169.282 70.778 169.594 71.372 170.098 71.768C170.602 72.152 171.208 72.344 171.916 72.344C172.888 72.344 173.788 72.098 174.616 71.606L174.724 73.496C174.34 73.7 173.89 73.868 173.374 74C172.87 74.12 172.318 74.18 171.718 74.18ZM172.852 68.474C172.852 68.006 172.72 67.592 172.456 67.232C172.192 66.872 171.784 66.692 171.232 66.692C170.68 66.692 170.236 66.854 169.9 67.178C169.564 67.502 169.336 67.934 169.216 68.474H172.852ZM176.68 65H178.858L180.406 71.282L182.098 65.18H183.97L185.644 71.282L187.21 65H189.388L186.76 74H184.888L183.034 68.132L181.18 74H179.308L176.68 65ZM203.323 71.012H198.733L197.689 74H195.457L199.939 61.4H202.117L206.599 74H204.367L203.323 71.012ZM202.603 68.996L201.037 64.496L199.453 68.996H202.603ZM216.594 60.5V74H214.488L214.452 73.424C214.104 73.676 213.738 73.868 213.354 74C212.982 74.12 212.538 74.18 212.022 74.18C211.146 74.18 210.39 73.97 209.754 73.55C209.13 73.13 208.656 72.566 208.332 71.858C208.008 71.15 207.846 70.37 207.846 69.518C207.846 68.666 208.008 67.886 208.332 67.178C208.656 66.47 209.13 65.906 209.754 65.486C210.39 65.066 211.146 64.856 212.022 64.856C212.898 64.856 213.678 65.096 214.362 65.576V60.5H216.594ZM212.346 72.344C213.054 72.344 213.582 72.092 213.93 71.588C214.29 71.084 214.47 70.394 214.47 69.518C214.47 68.642 214.29 67.952 213.93 67.448C213.582 66.944 213.054 66.692 212.346 66.692C211.65 66.692 211.104 66.95 210.708 67.466C210.324 67.982 210.132 68.666 210.132 69.518C210.132 70.37 210.324 71.054 210.708 71.57C211.104 72.086 211.65 72.344 212.346 72.344ZM227.778 60.5V74H225.672L225.636 73.424C225.288 73.676 224.922 73.868 224.538 74C224.166 74.12 223.722 74.18 223.206 74.18C222.33 74.18 221.574 73.97 220.938 73.55C220.314 73.13 219.84 72.566 219.516 71.858C219.192 71.15 219.03 70.37 219.03 69.518C219.03 68.666 219.192 67.886 219.516 67.178C219.84 66.47 220.314 65.906 220.938 65.486C221.574 65.066 222.33 64.856 223.206 64.856C224.082 64.856 224.862 65.096 225.546 65.576V60.5H227.778ZM223.53 72.344C224.238 72.344 224.766 72.092 225.114 71.588C225.474 71.084 225.654 70.394 225.654 69.518C225.654 68.642 225.474 67.952 225.114 67.448C224.766 66.944 224.238 66.692 223.53 66.692C222.834 66.692 222.288 66.95 221.892 67.466C221.508 67.982 221.316 68.666 221.316 69.518C221.316 70.37 221.508 71.054 221.892 71.57C222.288 72.086 222.834 72.344 223.53 72.344ZM230.753 65H232.841L232.895 65.954C233.159 65.654 233.495 65.39 233.903 65.162C234.323 64.934 234.761 64.82 235.217 64.82C235.361 64.82 235.493 64.832 235.613 64.856L235.451 67.052C235.223 66.992 234.965 66.962 234.677 66.962C234.305 66.962 233.963 67.052 233.651 67.232C233.339 67.4 233.117 67.61 232.985 67.862V74H230.753V65ZM241.774 74.18C240.73 74.18 239.836 73.97 239.092 73.55C238.36 73.118 237.808 72.548 237.436 71.84C237.076 71.12 236.896 70.322 236.896 69.446C236.896 68.606 237.07 67.838 237.418 67.142C237.766 66.446 238.27 65.894 238.93 65.486C239.59 65.066 240.376 64.856 241.288 64.856C242.128 64.856 242.836 65.03 243.412 65.378C244 65.726 244.438 66.194 244.726 66.782C245.026 67.37 245.176 68.03 245.176 68.762C245.176 69.122 245.128 69.53 245.032 69.986H239.218C239.338 70.778 239.65 71.372 240.154 71.768C240.658 72.152 241.264 72.344 241.972 72.344C242.944 72.344 243.844 72.098 244.672 71.606L244.78 73.496C244.396 73.7 243.946 73.868 243.43 74C242.926 74.12 242.374 74.18 241.774 74.18ZM242.908 68.474C242.908 68.006 242.776 67.592 242.512 67.232C242.248 66.872 241.84 66.692 241.288 66.692C240.736 66.692 240.292 66.854 239.956 67.178C239.62 67.502 239.392 67.934 239.272 68.474H242.908ZM250.156 74.18C249.58 74.18 249.052 74.126 248.572 74.018C248.104 73.91 247.618 73.742 247.114 73.514L247.312 71.606C247.816 71.906 248.284 72.134 248.716 72.29C249.16 72.434 249.616 72.506 250.084 72.506C250.996 72.506 251.452 72.206 251.452 71.606C251.452 71.282 251.332 71.036 251.092 70.868C250.852 70.688 250.42 70.478 249.796 70.238C248.908 69.914 248.254 69.548 247.834 69.14C247.414 68.72 247.204 68.156 247.204 67.448C247.204 66.668 247.504 66.038 248.104 65.558C248.704 65.066 249.514 64.82 250.534 64.82C251.554 64.82 252.484 65.054 253.324 65.522L253.126 67.43C252.67 67.118 252.238 66.878 251.83 66.71C251.434 66.542 251.014 66.458 250.57 66.458C250.186 66.458 249.886 66.536 249.67 66.692C249.466 66.848 249.364 67.07 249.364 67.358C249.364 67.586 249.424 67.772 249.544 67.916C249.676 68.06 249.856 68.192 250.084 68.312C250.312 68.42 250.69 68.576 251.218 68.78C252.094 69.116 252.724 69.488 253.108 69.896C253.492 70.292 253.684 70.826 253.684 71.498C253.684 72.35 253.378 73.01 252.766 73.478C252.154 73.946 251.284 74.18 250.156 74.18ZM258.667 74.18C258.091 74.18 257.563 74.126 257.083 74.018C256.615 73.91 256.129 73.742 255.625 73.514L255.823 71.606C256.327 71.906 256.795 72.134 257.227 72.29C257.671 72.434 258.127 72.506 258.595 72.506C259.507 72.506 259.963 72.206 259.963 71.606C259.963 71.282 259.843 71.036 259.603 70.868C259.363 70.688 258.931 70.478 258.307 70.238C257.419 69.914 256.765 69.548 256.345 69.14C255.925 68.72 255.715 68.156 255.715 67.448C255.715 66.668 256.015 66.038 256.615 65.558C257.215 65.066 258.025 64.82 259.045 64.82C260.065 64.82 260.995 65.054 261.835 65.522L261.637 67.43C261.181 67.118 260.749 66.878 260.341 66.71C259.945 66.542 259.525 66.458 259.081 66.458C258.697 66.458 258.397 66.536 258.181 66.692C257.977 66.848 257.875 67.07 257.875 67.358C257.875 67.586 257.935 67.772 258.055 67.916C258.187 68.06 258.367 68.192 258.595 68.312C258.823 68.42 259.201 68.576 259.729 68.78C260.605 69.116 261.235 69.488 261.619 69.896C262.003 70.292 262.195 70.826 262.195 71.498C262.195 72.35 261.889 73.01 261.277 73.478C260.665 73.946 259.795 74.18 258.667 74.18Z" fill="white"/>
</g>
<defs>
<filter id="filter0_d" x="-20" y="698" width="415" height="133" filterUnits="userSpaceOnUse" color-interpolation-filters="sRGB">
<feFlood flood-opacity="0" result="BackgroundImageFix"/>
<feColorMatrix in="SourceAlpha" type="matrix" values="0 0 0 0 0 0 0 0 0 0 0 0 0 0 0 0 0 0 127 0"/>
<feOffset dy="-1"/>
<feGaussianBlur stdDeviation="10"/>
<feColorMatrix type="matrix" values="0 0 0 0 0 0 0 0 0 0 0 0 0 0 0 0 0 0 0.1 0"/>
<feBlend mode="normal" in2="BackgroundImageFix" result="effect1_dropShadow"/>
<feBlend mode="normal" in="SourceGraphic" in2="effect1_dropShadow" result="shape"/>
</filter>
<filter id="filter1_d" x="8" y="407" width="359" height="68" filterUnits="userSpaceOnUse" color-interpolation-filters="sRGB">
<feFlood flood-opacity="0" result="BackgroundImageFix"/>
<feColorMatrix in="SourceAlpha" type="matrix" values="0 0 0 0 0 0 0 0 0 0 0 0 0 0 0 0 0 0 127 0"/>
<feOffset dy="4"/>
<feGaussianBlur stdDeviation="4"/>
<feColorMatrix type="matrix" values="0 0 0 0 0.886275 0 0 0 0 0.509804 0 0 0 0 0.529412 0 0 0 0.26 0"/>
<feBlend mode="normal" in2="BackgroundImageFix" result="effect1_dropShadow"/>
<feBlend mode="normal" in="SourceGraphic" in2="effect1_dropShadow" result="shape"/>
</filter>
<linearGradient id="paint0_linear" x1="266" y1="758" x2="266" y2="768" gradientUnits="userSpaceOnUse">
<stop stop-color="#926CB3"/>
<stop offset="1" stop-color="#E18B8B"/>
</linearGradient>
<linearGradient id="paint1_linear" x1="266" y1="731" x2="266" y2="753" gradientUnits="userSpaceOnUse">
<stop stop-color="#926CB3"/>
<stop offset="1" stop-color="#E18B8B"/>
</linearGradient>
<linearGradient id="paint2_linear" x1="187.5" y1="411" x2="187.5" y2="463" gradientUnits="userSpaceOnUse">
<stop stop-color="#926CB3"/>
<stop offset="1" stop-color="#E18B8B"/>
</linearGradient>
<linearGradient id="paint3_linear" x1="313.5" y1="47" x2="313.5" y2="72" gradientUnits="userSpaceOnUse">
<stop stop-color="#926CB3"/>
<stop offset="1" stop-color="#E18B8B"/>
</linearGradient>
<linearGradient id="paint4_linear" x1="313.5" y1="52" x2="313.5" y2="67" gradientUnits="userSpaceOnUse">
<stop stop-color="#926CB3"/>
<stop offset="1" stop-color="#E18B8B"/>
</linearGradient>
<clipPath id="clip0">
<rect width="375" height="812" fill="white"/>
</clipPath>
</defs>
</svg>
