<svg width="375" height="812" viewBox="0 0 375 812" fill="none" xmlns="http://www.w3.org/2000/svg">
<rect width="375" height="812" fill="#36393E"/>
<path opacity="0.5" fill-rule="evenodd" clip-rule="evenodd" d="M228.213 738.527C259.207 684.843 316.78 656.071 374.713 659.236V811.828L207 811.828C207.954 786.832 214.836 761.696 228.213 738.527Z" fill="url(#paint0_linear)"/>
<path opacity="0.5" fill-rule="evenodd" clip-rule="evenodd" d="M0 9.20871e-06V268.359C32.6167 272.867 66.8107 269.273 99.6099 256.289C201.023 216.143 250.719 101.428 210.671 0L0 9.20871e-06Z" fill="url(#paint1_linear)"/>
<rect x="120" y="799" width="135" height="5" rx="2.5" fill="#D6D9E4"/>
<path d="M117.633 785.646C117.58 786.098 117.413 786.446 117.132 786.692C116.853 786.937 116.48 787.059 116.016 787.059C115.512 787.059 115.107 786.878 114.803 786.517C114.5 786.155 114.349 785.672 114.349 785.066V784.656C114.349 784.26 114.419 783.911 114.56 783.61C114.702 783.31 114.903 783.079 115.163 782.919C115.423 782.757 115.724 782.676 116.065 782.676C116.519 782.676 116.882 782.803 117.155 783.057C117.429 783.309 117.588 783.658 117.633 784.105H117.067C117.019 783.766 116.912 783.52 116.748 783.367C116.586 783.215 116.358 783.139 116.065 783.139C115.706 783.139 115.424 783.271 115.219 783.537C115.016 783.803 114.914 784.181 114.914 784.671V785.084C114.914 785.547 115.011 785.915 115.204 786.188C115.397 786.462 115.668 786.599 116.016 786.599C116.328 786.599 116.567 786.528 116.733 786.388C116.901 786.245 117.013 785.998 117.067 785.646H117.633ZM118.175 785.386C118.175 785.075 118.235 784.796 118.356 784.548C118.479 784.3 118.649 784.108 118.866 783.974C119.085 783.839 119.334 783.771 119.613 783.771C120.045 783.771 120.394 783.921 120.659 784.22C120.927 784.519 121.061 784.916 121.061 785.412V785.45C121.061 785.759 121.001 786.036 120.882 786.282C120.765 786.526 120.596 786.717 120.375 786.854C120.156 786.99 119.904 787.059 119.619 787.059C119.189 787.059 118.841 786.909 118.573 786.61C118.308 786.312 118.175 785.916 118.175 785.424V785.386ZM118.72 785.45C118.72 785.802 118.801 786.084 118.963 786.297C119.127 786.51 119.346 786.616 119.619 786.616C119.895 786.616 120.113 786.509 120.275 786.294C120.438 786.077 120.519 785.774 120.519 785.386C120.519 785.038 120.436 784.757 120.27 784.542C120.105 784.325 119.887 784.217 119.613 784.217C119.346 784.217 119.13 784.323 118.966 784.536C118.802 784.749 118.72 785.054 118.72 785.45ZM124.418 785.45C124.418 785.933 124.308 786.321 124.087 786.616C123.866 786.911 123.567 787.059 123.19 787.059C122.806 787.059 122.503 786.937 122.282 786.692V788.219H121.74V783.83H122.235L122.262 784.182C122.482 783.908 122.789 783.771 123.182 783.771C123.562 783.771 123.863 783.915 124.084 784.202C124.307 784.489 124.418 784.889 124.418 785.4V785.45ZM123.876 785.389C123.876 785.031 123.8 784.749 123.647 784.542C123.495 784.335 123.286 784.231 123.021 784.231C122.692 784.231 122.446 784.377 122.282 784.668V786.183C122.444 786.472 122.692 786.616 123.026 786.616C123.286 786.616 123.492 786.514 123.645 786.309C123.799 786.102 123.876 785.795 123.876 785.389ZM126.111 786.206L126.85 783.83H127.43L126.155 787.489C125.958 788.017 125.645 788.28 125.215 788.28L125.112 788.271L124.91 788.233V787.794L125.057 787.806C125.24 787.806 125.383 787.769 125.484 787.694C125.588 787.62 125.673 787.484 125.739 787.287L125.859 786.965L124.729 783.83H125.32L126.111 786.206ZM129.448 784.316C129.366 784.303 129.277 784.296 129.182 784.296C128.826 784.296 128.585 784.447 128.458 784.75V787H127.916V783.83H128.443L128.452 784.196C128.63 783.913 128.882 783.771 129.208 783.771C129.313 783.771 129.394 783.785 129.448 783.812V784.316ZM130.538 787H129.996V783.83H130.538V787ZM129.952 782.989C129.952 782.901 129.979 782.827 130.031 782.767C130.086 782.706 130.166 782.676 130.271 782.676C130.377 782.676 130.457 782.706 130.512 782.767C130.566 782.827 130.594 782.901 130.594 782.989C130.594 783.077 130.566 783.15 130.512 783.209C130.457 783.268 130.377 783.297 130.271 783.297C130.166 783.297 130.086 783.268 130.031 783.209C129.979 783.15 129.952 783.077 129.952 782.989ZM131.279 785.389C131.279 784.895 131.394 784.502 131.622 784.211C131.851 783.918 132.153 783.771 132.53 783.771C132.917 783.771 133.219 783.908 133.436 784.182L133.462 783.83H133.957V786.924C133.957 787.334 133.835 787.657 133.591 787.894C133.349 788.13 133.022 788.248 132.612 788.248C132.384 788.248 132.16 788.199 131.941 788.102C131.723 788.004 131.556 787.87 131.44 787.7L131.722 787.375C131.954 787.662 132.238 787.806 132.574 787.806C132.838 787.806 133.043 787.731 133.189 787.583C133.338 787.435 133.412 787.226 133.412 786.956V786.684C133.195 786.934 132.899 787.059 132.524 787.059C132.153 787.059 131.853 786.909 131.622 786.61C131.394 786.312 131.279 785.904 131.279 785.389ZM131.824 785.45C131.824 785.808 131.897 786.089 132.044 786.294C132.19 786.497 132.396 786.599 132.659 786.599C133.001 786.599 133.252 786.443 133.412 786.133V784.686C133.246 784.383 132.997 784.231 132.665 784.231C132.401 784.231 132.195 784.334 132.047 784.539C131.898 784.744 131.824 785.048 131.824 785.45ZM135.319 784.214C135.56 783.919 135.872 783.771 136.257 783.771C136.927 783.771 137.265 784.149 137.271 784.905V787H136.729V784.902C136.727 784.674 136.674 784.505 136.57 784.396C136.469 784.286 136.31 784.231 136.093 784.231C135.917 784.231 135.763 784.278 135.63 784.372C135.497 784.466 135.394 784.589 135.319 784.741V787H134.777V782.5H135.319V784.214ZM138.817 783.062V783.83H139.409V784.249H138.817V786.215C138.817 786.342 138.844 786.438 138.896 786.502C138.949 786.564 139.039 786.596 139.166 786.596C139.229 786.596 139.314 786.584 139.424 786.561V787C139.281 787.039 139.143 787.059 139.008 787.059C138.766 787.059 138.583 786.985 138.46 786.839C138.337 786.692 138.275 786.484 138.275 786.215V784.249H137.698V783.83H138.275V783.062H138.817ZM144.217 785.45C144.217 785.935 144.105 786.324 143.883 786.619C143.66 786.912 143.361 787.059 142.986 787.059C142.586 787.059 142.276 786.917 142.058 786.634L142.031 787H141.533V782.5H142.075V784.179C142.294 783.907 142.596 783.771 142.98 783.771C143.365 783.771 143.667 783.917 143.886 784.208C144.106 784.499 144.217 784.897 144.217 785.403V785.45ZM143.675 785.389C143.675 785.02 143.604 784.734 143.461 784.533C143.318 784.332 143.113 784.231 142.846 784.231C142.488 784.231 142.231 784.397 142.075 784.729V786.101C142.241 786.433 142.5 786.599 142.852 786.599C143.111 786.599 143.313 786.498 143.458 786.297C143.603 786.096 143.675 785.793 143.675 785.389ZM145.904 786.206L146.643 783.83H147.223L145.948 787.489C145.751 788.017 145.438 788.28 145.008 788.28L144.905 788.271L144.703 788.233V787.794L144.85 787.806C145.033 787.806 145.176 787.769 145.277 787.694C145.381 787.62 145.466 787.484 145.532 787.287L145.652 786.965L144.521 783.83H145.113L145.904 786.206ZM151.693 785.028H149.845V786.54H151.992V787H149.282V782.734H151.963V783.197H149.845V784.568H151.693V785.028ZM152.417 785.389C152.417 784.902 152.532 784.512 152.763 784.217C152.993 783.92 153.295 783.771 153.668 783.771C154.039 783.771 154.333 783.898 154.55 784.152V782.5H155.092V787H154.594L154.567 786.66C154.351 786.926 154.049 787.059 153.662 787.059C153.295 787.059 152.995 786.908 152.763 786.607C152.532 786.307 152.417 785.914 152.417 785.43V785.389ZM152.959 785.45C152.959 785.81 153.033 786.091 153.182 786.294C153.33 786.497 153.535 786.599 153.797 786.599C154.141 786.599 154.392 786.444 154.55 786.136V784.68C154.388 784.381 154.139 784.231 153.803 784.231C153.537 784.231 153.33 784.334 153.182 784.539C153.033 784.744 152.959 785.048 152.959 785.45ZM157.251 787.059C156.821 787.059 156.472 786.918 156.202 786.637C155.933 786.354 155.798 785.976 155.798 785.503V785.403C155.798 785.089 155.857 784.809 155.977 784.562C156.098 784.314 156.266 784.121 156.48 783.982C156.697 783.842 156.932 783.771 157.184 783.771C157.596 783.771 157.916 783.907 158.145 784.179C158.373 784.45 158.487 784.839 158.487 785.345V785.57H156.34C156.348 785.883 156.438 786.136 156.612 786.329C156.788 786.521 157.011 786.616 157.28 786.616C157.472 786.616 157.634 786.577 157.767 786.499C157.899 786.421 158.016 786.317 158.115 786.188L158.446 786.446C158.181 786.854 157.782 787.059 157.251 787.059ZM157.184 784.217C156.965 784.217 156.781 784.297 156.633 784.457C156.484 784.615 156.393 784.838 156.357 785.125H157.945V785.084C157.93 784.809 157.855 784.596 157.723 784.445C157.59 784.293 157.41 784.217 157.184 784.217ZM159.63 783.83L159.647 784.229C159.89 783.924 160.206 783.771 160.597 783.771C161.267 783.771 161.604 784.149 161.61 784.905V787H161.068V784.902C161.066 784.674 161.014 784.505 160.91 784.396C160.809 784.286 160.649 784.231 160.433 784.231C160.257 784.231 160.103 784.278 159.97 784.372C159.837 784.466 159.733 784.589 159.659 784.741V787H159.117V783.83H159.63ZM164.563 785.33V787H164.001V782.734H165.574C166.041 782.734 166.406 782.854 166.67 783.092C166.936 783.33 167.068 783.646 167.068 784.038C167.068 784.452 166.938 784.771 166.679 784.996C166.421 785.219 166.051 785.33 165.568 785.33H164.563ZM164.563 784.87H165.574C165.875 784.87 166.105 784.8 166.266 784.659C166.426 784.517 166.506 784.312 166.506 784.044C166.506 783.79 166.426 783.587 166.266 783.435C166.105 783.282 165.886 783.203 165.606 783.197H164.563V784.87ZM169.623 787C169.592 786.938 169.566 786.826 169.547 786.666C169.295 786.928 168.994 787.059 168.645 787.059C168.332 787.059 168.075 786.971 167.874 786.795C167.675 786.617 167.575 786.393 167.575 786.121C167.575 785.791 167.7 785.535 167.95 785.354C168.202 785.17 168.556 785.078 169.011 785.078H169.538V784.829C169.538 784.64 169.481 784.489 169.368 784.378C169.255 784.265 169.088 784.208 168.867 784.208C168.674 784.208 168.512 784.257 168.381 784.354C168.25 784.452 168.185 784.57 168.185 784.709H167.64C167.64 784.551 167.695 784.398 167.807 784.252C167.92 784.104 168.072 783.986 168.264 783.9C168.457 783.814 168.669 783.771 168.899 783.771C169.265 783.771 169.551 783.863 169.758 784.047C169.965 784.229 170.072 784.479 170.08 784.8V786.259C170.08 786.55 170.117 786.781 170.191 786.953V787H169.623ZM168.724 786.587C168.894 786.587 169.055 786.543 169.207 786.455C169.359 786.367 169.47 786.253 169.538 786.112V785.462H169.113C168.449 785.462 168.117 785.656 168.117 786.045C168.117 786.215 168.174 786.348 168.287 786.443C168.4 786.539 168.546 786.587 168.724 786.587ZM172.462 784.316C172.38 784.303 172.291 784.296 172.195 784.296C171.84 784.296 171.599 784.447 171.472 784.75V787H170.93V783.83H171.457L171.466 784.196C171.644 783.913 171.896 783.771 172.222 783.771C172.327 783.771 172.407 783.785 172.462 783.812V784.316ZM173.845 783.062V783.83H174.437V784.249H173.845V786.215C173.845 786.342 173.871 786.438 173.924 786.502C173.977 786.564 174.066 786.596 174.193 786.596C174.256 786.596 174.342 786.584 174.451 786.561V787C174.309 787.039 174.17 787.059 174.035 787.059C173.793 787.059 173.61 786.985 173.487 786.839C173.364 786.692 173.303 786.484 173.303 786.215V784.249H172.726V783.83H173.303V783.062H173.845ZM175.585 783.83L175.603 784.229C175.845 783.924 176.161 783.771 176.552 783.771C177.222 783.771 177.56 784.149 177.565 784.905V787H177.023V784.902C177.021 784.674 176.969 784.505 176.865 784.396C176.764 784.286 176.604 784.231 176.388 784.231C176.212 784.231 176.058 784.278 175.925 784.372C175.792 784.466 175.688 784.589 175.614 784.741V787H175.072V783.83H175.585ZM179.698 787.059C179.269 787.059 178.919 786.918 178.649 786.637C178.38 786.354 178.245 785.976 178.245 785.503V785.403C178.245 785.089 178.305 784.809 178.424 784.562C178.545 784.314 178.713 784.121 178.928 783.982C179.145 783.842 179.379 783.771 179.631 783.771C180.043 783.771 180.363 783.907 180.592 784.179C180.82 784.45 180.935 784.839 180.935 785.345V785.57H178.787C178.795 785.883 178.886 786.136 179.06 786.329C179.235 786.521 179.458 786.616 179.728 786.616C179.919 786.616 180.081 786.577 180.214 786.499C180.347 786.421 180.463 786.317 180.562 786.188L180.894 786.446C180.628 786.854 180.229 787.059 179.698 787.059ZM179.631 784.217C179.412 784.217 179.229 784.297 179.08 784.457C178.932 784.615 178.84 784.838 178.805 785.125H180.393V785.084C180.377 784.809 180.303 784.596 180.17 784.445C180.037 784.293 179.857 784.217 179.631 784.217ZM183.097 784.316C183.015 784.303 182.926 784.296 182.83 784.296C182.475 784.296 182.233 784.447 182.106 784.75V787H181.564V783.83H182.092L182.101 784.196C182.278 783.913 182.53 783.771 182.856 783.771C182.962 783.771 183.042 783.785 183.097 783.812V784.316ZM185.443 786.159C185.443 786.013 185.388 785.899 185.276 785.819C185.167 785.737 184.975 785.667 184.699 785.608C184.426 785.55 184.208 785.479 184.046 785.397C183.886 785.315 183.767 785.218 183.688 785.104C183.612 784.991 183.574 784.856 183.574 784.7C183.574 784.44 183.684 784.221 183.902 784.041C184.123 783.861 184.404 783.771 184.746 783.771C185.105 783.771 185.396 783.864 185.619 784.05C185.844 784.235 185.956 784.473 185.956 784.762H185.411C185.411 784.613 185.348 784.485 185.221 784.378C185.096 784.271 184.938 784.217 184.746 784.217C184.549 784.217 184.395 784.26 184.283 784.346C184.172 784.432 184.116 784.544 184.116 784.683C184.116 784.813 184.168 784.912 184.271 784.979C184.375 785.045 184.562 785.108 184.831 785.169C185.103 785.229 185.322 785.302 185.49 785.386C185.658 785.47 185.782 785.571 185.862 785.69C185.944 785.808 185.985 785.951 185.985 786.121C185.985 786.404 185.872 786.632 185.646 786.804C185.419 786.974 185.125 787.059 184.764 787.059C184.51 787.059 184.285 787.014 184.09 786.924C183.895 786.834 183.741 786.709 183.63 786.549C183.521 786.387 183.466 786.212 183.466 786.024H184.008C184.018 786.206 184.09 786.351 184.225 786.458C184.361 786.563 184.541 786.616 184.764 786.616C184.969 786.616 185.133 786.575 185.256 786.493C185.381 786.409 185.443 786.298 185.443 786.159ZM186.674 787.85L186.366 787.639C186.55 787.383 186.646 787.119 186.653 786.848V786.358H187.184V786.783C187.184 786.98 187.135 787.178 187.037 787.375C186.941 787.572 186.82 787.73 186.674 787.85ZM190.046 787H189.483V782.734H190.046V787ZM191.505 783.83L191.522 784.229C191.765 783.924 192.081 783.771 192.472 783.771C193.142 783.771 193.479 784.149 193.485 784.905V787H192.943V784.902C192.941 784.674 192.889 784.505 192.785 784.396C192.684 784.286 192.524 784.231 192.308 784.231C192.132 784.231 191.978 784.278 191.845 784.372C191.712 784.466 191.608 784.589 191.534 784.741V787H190.992V783.83H191.505ZM195.574 786.616C195.768 786.616 195.937 786.558 196.081 786.44C196.226 786.323 196.306 786.177 196.321 786.001H196.834C196.824 786.183 196.762 786.355 196.646 786.52C196.531 786.684 196.377 786.814 196.184 786.912C195.992 787.01 195.789 787.059 195.574 787.059C195.143 787.059 194.799 786.915 194.543 786.628C194.289 786.339 194.162 785.944 194.162 785.444V785.354C194.162 785.045 194.219 784.771 194.332 784.53C194.445 784.29 194.607 784.104 194.818 783.971C195.031 783.838 195.282 783.771 195.571 783.771C195.927 783.771 196.222 783.878 196.456 784.091C196.692 784.304 196.818 784.58 196.834 784.92H196.321C196.306 784.715 196.228 784.547 196.087 784.416C195.948 784.283 195.776 784.217 195.571 784.217C195.296 784.217 195.082 784.316 194.93 784.516C194.779 784.713 194.704 784.999 194.704 785.374V785.477C194.704 785.842 194.779 786.123 194.93 786.32C195.08 786.518 195.295 786.616 195.574 786.616ZM197.455 786.716C197.455 786.622 197.482 786.544 197.537 786.481C197.594 786.419 197.678 786.388 197.789 786.388C197.9 786.388 197.984 786.419 198.041 786.481C198.1 786.544 198.129 786.622 198.129 786.716C198.129 786.806 198.1 786.881 198.041 786.941C197.984 787.002 197.9 787.032 197.789 787.032C197.678 787.032 197.594 787.002 197.537 786.941C197.482 786.881 197.455 786.806 197.455 786.716ZM203.736 785.646C203.684 786.098 203.517 786.446 203.235 786.692C202.956 786.937 202.584 787.059 202.119 787.059C201.615 787.059 201.211 786.878 200.906 786.517C200.604 786.155 200.452 785.672 200.452 785.066V784.656C200.452 784.26 200.522 783.911 200.663 783.61C200.806 783.31 201.007 783.079 201.267 782.919C201.526 782.757 201.827 782.676 202.169 782.676C202.622 782.676 202.985 782.803 203.259 783.057C203.532 783.309 203.691 783.658 203.736 784.105H203.171C203.122 783.766 203.016 783.52 202.852 783.367C202.689 783.215 202.462 783.139 202.169 783.139C201.81 783.139 201.527 783.271 201.322 783.537C201.119 783.803 201.018 784.181 201.018 784.671V785.084C201.018 785.547 201.114 785.915 201.308 786.188C201.501 786.462 201.771 786.599 202.119 786.599C202.432 786.599 202.671 786.528 202.837 786.388C203.005 786.245 203.116 785.998 203.171 785.646H203.736ZM204.278 785.386C204.278 785.075 204.339 784.796 204.46 784.548C204.583 784.3 204.753 784.108 204.97 783.974C205.188 783.839 205.438 783.771 205.717 783.771C206.148 783.771 206.497 783.921 206.763 784.22C207.03 784.519 207.164 784.916 207.164 785.412V785.45C207.164 785.759 207.104 786.036 206.985 786.282C206.868 786.526 206.699 786.717 206.479 786.854C206.26 786.99 206.008 787.059 205.723 787.059C205.293 787.059 204.944 786.909 204.677 786.61C204.411 786.312 204.278 785.916 204.278 785.424V785.386ZM204.823 785.45C204.823 785.802 204.904 786.084 205.066 786.297C205.23 786.51 205.449 786.616 205.723 786.616C205.998 786.616 206.217 786.509 206.379 786.294C206.541 786.077 206.622 785.774 206.622 785.386C206.622 785.038 206.539 784.757 206.373 784.542C206.209 784.325 205.99 784.217 205.717 784.217C205.449 784.217 205.233 784.323 205.069 784.536C204.905 784.749 204.823 785.054 204.823 785.45ZM208.354 783.83L208.368 784.182C208.601 783.908 208.914 783.771 209.309 783.771C209.752 783.771 210.054 783.941 210.214 784.281C210.319 784.129 210.456 784.006 210.624 783.912C210.794 783.818 210.994 783.771 211.225 783.771C211.92 783.771 212.273 784.14 212.285 784.876V787H211.743V784.908C211.743 784.682 211.691 784.513 211.588 784.401C211.484 784.288 211.311 784.231 211.066 784.231C210.865 784.231 210.698 784.292 210.565 784.413C210.433 784.532 210.355 784.693 210.334 784.896V787H209.789V784.923C209.789 784.462 209.563 784.231 209.112 784.231C208.757 784.231 208.514 784.383 208.383 784.686V787H207.841V783.83H208.354ZM215.783 785.45C215.783 785.933 215.673 786.321 215.452 786.616C215.231 786.911 214.933 787.059 214.556 787.059C214.171 787.059 213.868 786.937 213.647 786.692V788.219H213.105V783.83H213.601L213.627 784.182C213.848 783.908 214.154 783.771 214.547 783.771C214.928 783.771 215.229 783.915 215.449 784.202C215.672 784.489 215.783 784.889 215.783 785.4V785.45ZM215.241 785.389C215.241 785.031 215.165 784.749 215.013 784.542C214.86 784.335 214.651 784.231 214.386 784.231C214.058 784.231 213.812 784.377 213.647 784.668V786.183C213.81 786.472 214.058 786.616 214.392 786.616C214.651 786.616 214.857 786.514 215.01 786.309C215.164 786.102 215.241 785.795 215.241 785.389ZM218.432 787C218.4 786.938 218.375 786.826 218.355 786.666C218.104 786.928 217.803 787.059 217.453 787.059C217.141 787.059 216.884 786.971 216.683 786.795C216.483 786.617 216.384 786.393 216.384 786.121C216.384 785.791 216.509 785.535 216.759 785.354C217.011 785.17 217.364 785.078 217.819 785.078H218.347V784.829C218.347 784.64 218.29 784.489 218.177 784.378C218.063 784.265 217.896 784.208 217.676 784.208C217.482 784.208 217.32 784.257 217.189 784.354C217.059 784.452 216.993 784.57 216.993 784.709H216.448C216.448 784.551 216.504 784.398 216.615 784.252C216.729 784.104 216.881 783.986 217.072 783.9C217.266 783.814 217.478 783.771 217.708 783.771C218.073 783.771 218.359 783.863 218.566 784.047C218.773 784.229 218.881 784.479 218.889 784.8V786.259C218.889 786.55 218.926 786.781 219 786.953V787H218.432ZM217.532 786.587C217.702 786.587 217.863 786.543 218.016 786.455C218.168 786.367 218.278 786.253 218.347 786.112V785.462H217.922C217.258 785.462 216.926 785.656 216.926 786.045C216.926 786.215 216.982 786.348 217.096 786.443C217.209 786.539 217.354 786.587 217.532 786.587ZM220.251 783.83L220.269 784.229C220.511 783.924 220.827 783.771 221.218 783.771C221.888 783.771 222.226 784.149 222.231 784.905V787H221.689V784.902C221.688 784.674 221.635 784.505 221.531 784.396C221.43 784.286 221.271 784.231 221.054 784.231C220.878 784.231 220.724 784.278 220.591 784.372C220.458 784.466 220.354 784.589 220.28 784.741V787H219.738V783.83H220.251ZM224.086 786.206L224.824 783.83H225.404L224.13 787.489C223.933 788.017 223.619 788.28 223.189 788.28L223.087 788.271L222.885 788.233V787.794L223.031 787.806C223.215 787.806 223.357 787.769 223.459 787.694C223.562 787.62 223.647 787.484 223.714 787.287L223.834 786.965L222.703 783.83H223.295L224.086 786.206ZM230.602 785.646C230.549 786.098 230.382 786.446 230.101 786.692C229.821 786.937 229.449 787.059 228.984 787.059C228.48 787.059 228.076 786.878 227.771 786.517C227.469 786.155 227.317 785.672 227.317 785.066V784.656C227.317 784.26 227.388 783.911 227.528 783.61C227.671 783.31 227.872 783.079 228.132 782.919C228.392 782.757 228.692 782.676 229.034 782.676C229.487 782.676 229.851 782.803 230.124 783.057C230.397 783.309 230.557 783.658 230.602 784.105H230.036C229.987 783.766 229.881 783.52 229.717 783.367C229.555 783.215 229.327 783.139 229.034 783.139C228.675 783.139 228.393 783.271 228.188 783.537C227.984 783.803 227.883 784.181 227.883 784.671V785.084C227.883 785.547 227.979 785.915 228.173 786.188C228.366 786.462 228.637 786.599 228.984 786.599C229.297 786.599 229.536 786.528 229.702 786.388C229.87 786.245 229.981 785.998 230.036 785.646H230.602ZM231.144 785.386C231.144 785.075 231.204 784.796 231.325 784.548C231.448 784.3 231.618 784.108 231.835 783.974C232.054 783.839 232.303 783.771 232.582 783.771C233.014 783.771 233.362 783.921 233.628 784.22C233.896 784.519 234.029 784.916 234.029 785.412V785.45C234.029 785.759 233.97 786.036 233.851 786.282C233.733 786.526 233.564 786.717 233.344 786.854C233.125 786.99 232.873 787.059 232.588 787.059C232.158 787.059 231.81 786.909 231.542 786.61C231.276 786.312 231.144 785.916 231.144 785.424V785.386ZM231.688 785.45C231.688 785.802 231.77 786.084 231.932 786.297C232.096 786.51 232.314 786.616 232.588 786.616C232.863 786.616 233.082 786.509 233.244 786.294C233.406 786.077 233.487 785.774 233.487 785.386C233.487 785.038 233.404 784.757 233.238 784.542C233.074 784.325 232.855 784.217 232.582 784.217C232.314 784.217 232.099 784.323 231.935 784.536C231.771 784.749 231.688 785.054 231.688 785.45ZM235.222 783.83L235.239 784.229C235.481 783.924 235.798 783.771 236.188 783.771C236.858 783.771 237.196 784.149 237.202 784.905V787H236.66V784.902C236.658 784.674 236.605 784.505 236.502 784.396C236.4 784.286 236.241 784.231 236.024 784.231C235.849 784.231 235.694 784.278 235.562 784.372C235.429 784.466 235.325 784.589 235.251 784.741V787H234.709V783.83H235.222ZM238.201 787V784.249H237.7V783.83H238.201V783.561C238.201 783.207 238.302 782.932 238.503 782.734C238.706 782.537 238.992 782.438 239.361 782.438C239.58 782.438 239.856 782.498 240.19 782.617L240.1 783.074C239.855 782.977 239.623 782.928 239.402 782.928C239.17 782.928 239.002 782.98 238.898 783.086C238.797 783.189 238.746 783.346 238.746 783.555V783.83H239.394V784.249H238.746V787H238.201ZM240.46 787H239.915V783.83H240.46V787ZM241.21 785.389C241.21 784.902 241.325 784.512 241.556 784.217C241.786 783.92 242.088 783.771 242.461 783.771C242.832 783.771 243.126 783.898 243.343 784.152V782.5H243.885V787H243.387L243.36 786.66C243.144 786.926 242.842 787.059 242.455 787.059C242.088 787.059 241.788 786.908 241.556 786.607C241.325 786.307 241.21 785.914 241.21 785.43V785.389ZM241.752 785.45C241.752 785.81 241.826 786.091 241.975 786.294C242.123 786.497 242.328 786.599 242.59 786.599C242.934 786.599 243.185 786.444 243.343 786.136V784.68C243.181 784.381 242.932 784.231 242.596 784.231C242.33 784.231 242.123 784.334 241.975 784.539C241.826 784.744 241.752 785.048 241.752 785.45ZM246.044 787.059C245.614 787.059 245.265 786.918 244.995 786.637C244.726 786.354 244.591 785.976 244.591 785.503V785.403C244.591 785.089 244.65 784.809 244.77 784.562C244.891 784.314 245.059 784.121 245.273 783.982C245.49 783.842 245.725 783.771 245.977 783.771C246.389 783.771 246.709 783.907 246.938 784.179C247.166 784.45 247.28 784.839 247.28 785.345V785.57H245.133C245.141 785.883 245.231 786.136 245.405 786.329C245.581 786.521 245.804 786.616 246.073 786.616C246.265 786.616 246.427 786.577 246.56 786.499C246.692 786.421 246.809 786.317 246.908 786.188L247.239 786.446C246.974 786.854 246.575 787.059 246.044 787.059ZM245.977 784.217C245.758 784.217 245.574 784.297 245.426 784.457C245.277 784.615 245.186 784.838 245.15 785.125H246.738V785.084C246.723 784.809 246.648 784.596 246.516 784.445C246.383 784.293 246.203 784.217 245.977 784.217ZM248.423 783.83L248.44 784.229C248.683 783.924 248.999 783.771 249.39 783.771C250.06 783.771 250.397 784.149 250.403 784.905V787H249.861V784.902C249.859 784.674 249.807 784.505 249.703 784.396C249.602 784.286 249.442 784.231 249.226 784.231C249.05 784.231 248.896 784.278 248.763 784.372C248.63 784.466 248.526 784.589 248.452 784.741V787H247.91V783.83H248.423ZM251.956 783.062V783.83H252.548V784.249H251.956V786.215C251.956 786.342 251.982 786.438 252.035 786.502C252.088 786.564 252.178 786.596 252.305 786.596C252.367 786.596 252.453 786.584 252.562 786.561V787C252.42 787.039 252.281 787.059 252.146 787.059C251.904 787.059 251.722 786.985 251.599 786.839C251.476 786.692 251.414 786.484 251.414 786.215V784.249H250.837V783.83H251.414V783.062H251.956ZM253.772 787H253.23V783.83H253.772V787ZM253.187 782.989C253.187 782.901 253.213 782.827 253.266 782.767C253.32 782.706 253.4 782.676 253.506 782.676C253.611 782.676 253.691 782.706 253.746 782.767C253.801 782.827 253.828 782.901 253.828 782.989C253.828 783.077 253.801 783.15 253.746 783.209C253.691 783.268 253.611 783.297 253.506 783.297C253.4 783.297 253.32 783.268 253.266 783.209C253.213 783.15 253.187 783.077 253.187 782.989ZM256.6 787C256.568 786.938 256.543 786.826 256.523 786.666C256.271 786.928 255.971 787.059 255.621 787.059C255.309 787.059 255.052 786.971 254.851 786.795C254.651 786.617 254.552 786.393 254.552 786.121C254.552 785.791 254.677 785.535 254.927 785.354C255.179 785.17 255.532 785.078 255.987 785.078H256.515V784.829C256.515 784.64 256.458 784.489 256.345 784.378C256.231 784.265 256.064 784.208 255.844 784.208C255.65 784.208 255.488 784.257 255.357 784.354C255.227 784.452 255.161 784.57 255.161 784.709H254.616C254.616 784.551 254.672 784.398 254.783 784.252C254.896 784.104 255.049 783.986 255.24 783.9C255.434 783.814 255.646 783.771 255.876 783.771C256.241 783.771 256.527 783.863 256.734 784.047C256.941 784.229 257.049 784.479 257.057 784.8V786.259C257.057 786.55 257.094 786.781 257.168 786.953V787H256.6ZM255.7 786.587C255.87 786.587 256.031 786.543 256.184 786.455C256.336 786.367 256.446 786.253 256.515 786.112V785.462H256.09C255.426 785.462 255.094 785.656 255.094 786.045C255.094 786.215 255.15 786.348 255.264 786.443C255.377 786.539 255.522 786.587 255.7 786.587ZM258.495 787H257.953V782.5H258.495V787ZM259.377 786.716C259.377 786.622 259.404 786.544 259.459 786.481C259.516 786.419 259.6 786.388 259.711 786.388C259.822 786.388 259.906 786.419 259.963 786.481C260.021 786.544 260.051 786.622 260.051 786.716C260.051 786.806 260.021 786.881 259.963 786.941C259.906 787.002 259.822 787.032 259.711 787.032C259.6 787.032 259.516 787.002 259.459 786.941C259.404 786.881 259.377 786.806 259.377 786.716Z" fill="white"/>
<path opacity="0.35" d="M336.5 20.0002C336.5 18.8035 337.47 17.8335 338.667 17.8335H355.333C356.53 17.8335 357.5 18.8035 357.5 20.0002V26.0002C357.5 27.1968 356.53 28.1668 355.333 28.1668H338.667C337.47 28.1668 336.5 27.1968 336.5 26.0002V20.0002Z" stroke="white"/>
<path opacity="0.4" d="M359 21V25C359.805 24.6612 360.328 23.8731 360.328 23C360.328 22.1269 359.805 21.3388 359 21Z" fill="white"/>
<path d="M338 20.6668C338 19.9305 338.597 19.3335 339.333 19.3335H354.667C355.403 19.3335 356 19.9304 356 20.6668V25.3335C356 26.0699 355.403 26.6668 354.667 26.6668H339.333C338.597 26.6668 338 26.0699 338 25.3335V20.6668Z" fill="white"/>
<path d="M323.33 19.6079C325.546 19.608 327.677 20.4594 329.283 21.9862C329.404 22.1041 329.597 22.1026 329.716 21.9829L330.872 20.8162C330.933 20.7555 330.966 20.6733 330.966 20.5877C330.965 20.5021 330.931 20.4202 330.87 20.3602C326.655 16.3207 320.005 16.3207 315.79 20.3602C315.729 20.4202 315.694 20.502 315.693 20.5876C315.693 20.6732 315.726 20.7555 315.787 20.8162L316.943 21.9829C317.062 22.1028 317.255 22.1043 317.376 21.9862C318.982 20.4593 321.114 19.6079 323.33 19.6079Z" fill="white"/>
<path d="M323.331 23.4035C324.548 23.4034 325.722 23.8559 326.625 24.6731C326.747 24.7891 326.939 24.7866 327.058 24.6675L328.213 23.5008C328.274 23.4396 328.307 23.3566 328.306 23.2703C328.306 23.1841 328.27 23.1017 328.208 23.0418C325.46 20.4854 321.204 20.4854 318.456 23.0418C318.394 23.1017 318.358 23.1841 318.357 23.2704C318.357 23.3567 318.39 23.4397 318.451 23.5008L319.606 24.6675C319.725 24.7866 319.917 24.7891 320.039 24.6731C320.941 23.8565 322.114 23.404 323.331 23.4035Z" fill="white"/>
<path d="M325.55 26.188C325.612 26.1274 325.646 26.044 325.644 25.9575C325.642 25.871 325.605 25.7891 325.54 25.731C324.265 24.6522 322.397 24.6522 321.121 25.731C321.057 25.789 321.019 25.8709 321.018 25.9575C321.016 26.044 321.05 26.1274 321.111 26.188L323.109 28.2037C323.168 28.2629 323.248 28.2963 323.331 28.2963C323.414 28.2963 323.494 28.2629 323.552 28.2037L325.55 26.188Z" fill="white"/>
<path d="M294.666 24.333H295.666C296.218 24.333 296.666 24.7807 296.666 25.333V27.333C296.666 27.8853 296.218 28.333 295.666 28.333H294.666C294.114 28.333 293.666 27.8853 293.666 27.333V25.333C293.666 24.7807 294.114 24.333 294.666 24.333Z" fill="white"/>
<path d="M299.333 22.333H300.333C300.885 22.333 301.333 22.7807 301.333 23.333V27.333C301.333 27.8853 300.885 28.333 300.333 28.333H299.333C298.781 28.333 298.333 27.8853 298.333 27.333V23.333C298.333 22.7807 298.781 22.333 299.333 22.333Z" fill="white"/>
<path d="M304 20H305C305.552 20 306 20.4477 306 21V27.3333C306 27.8856 305.552 28.3333 305 28.3333H304C303.448 28.3333 303 27.8856 303 27.3333V21C303 20.4477 303.448 20 304 20Z" fill="white"/>
<path d="M308.666 17.6665H309.666C310.218 17.6665 310.666 18.1142 310.666 18.6665V27.3332C310.666 27.8855 310.218 28.3332 309.666 28.3332H308.666C308.114 28.3332 307.666 27.8855 307.666 27.3332V18.6665C307.666 18.1142 308.114 17.6665 308.666 17.6665V17.6665Z" fill="white"/>
<path d="M39.5278 17.29C40.2478 17.29 40.8828 17.455 41.4328 17.785C41.9828 18.105 42.4078 18.56 42.7078 19.15C43.0078 19.74 43.1578 20.425 43.1578 21.205C43.1578 22.225 42.9228 23.19 42.4528 24.1C41.9928 25 41.4078 25.78 40.6978 26.44C39.9878 27.1 39.2578 27.62 38.5078 28L37.1728 26.95C37.8628 26.61 38.5828 26.12 39.3328 25.48C40.0928 24.84 40.6578 24.12 41.0278 23.32C40.5278 23.65 39.9028 23.815 39.1528 23.815C38.5728 23.815 38.0478 23.68 37.5778 23.41C37.1078 23.14 36.7378 22.765 36.4678 22.285C36.2078 21.805 36.0778 21.26 36.0778 20.65C36.0778 19.99 36.2178 19.405 36.4978 18.895C36.7778 18.385 37.1778 17.99 37.6978 17.71C38.2178 17.43 38.8278 17.29 39.5278 17.29ZM39.4978 22.165C39.9778 22.165 40.3728 22.015 40.6828 21.715C40.9928 21.415 41.1478 21.035 41.1478 20.575C41.1478 20.115 40.9928 19.73 40.6828 19.42C40.3728 19.1 39.9778 18.94 39.4978 18.94C39.0278 18.94 38.6328 19.1 38.3128 19.42C38.0028 19.73 37.8478 20.115 37.8478 20.575C37.8478 21.035 38.0028 21.415 38.3128 21.715C38.6328 22.015 39.0278 22.165 39.4978 22.165ZM44.1707 20.5H46.1207V22.54H44.1707V20.5ZM44.1707 25.96H46.1207V28H44.1707V25.96ZM55.0409 24.04V25.6H53.6909V28H51.8459V25.6H46.6109L52.3859 17.5H53.6909V24.04H55.0409ZM51.8459 24.04V20.815L49.5809 24.04H51.8459ZM57.5651 20.215C57.1451 20.495 56.7051 20.675 56.2451 20.755L56.0801 19.135C56.4101 19.065 56.7801 18.865 57.1901 18.535C57.6001 18.195 57.8751 17.85 58.0151 17.5H59.4851V28H57.5651V20.215Z" fill="white"/>
<g filter="url(#filter0_d)">
<rect x="41" y="469" width="295" height="41" rx="10" fill="url(#paint2_linear)"/>
</g>
<path d="M168.289 492.481C168.653 492.481 168.978 492.42 169.262 492.299C169.552 492.178 169.794 492.007 169.99 491.788C170.191 491.569 170.343 491.303 170.445 490.99C170.553 490.677 170.606 490.327 170.606 489.94V483.878H172.489V489.94C172.489 490.542 172.391 491.1 172.195 491.613C172.004 492.122 171.726 492.563 171.362 492.936C170.998 493.305 170.557 493.594 170.039 493.804C169.521 494.009 168.938 494.112 168.289 494.112C167.641 494.112 167.057 494.009 166.539 493.804C166.021 493.594 165.58 493.305 165.216 492.936C164.857 492.563 164.579 492.122 164.383 491.613C164.192 491.1 164.096 490.542 164.096 489.94V483.878H165.979V489.933C165.979 490.32 166.031 490.67 166.133 490.983C166.241 491.296 166.392 491.564 166.588 491.788C166.784 492.007 167.025 492.178 167.309 492.299C167.599 492.42 167.925 492.481 168.289 492.481ZM175.003 496.345V486.818H176.06C176.172 486.818 176.268 486.844 176.347 486.895C176.426 486.946 176.478 487.026 176.501 487.133L176.641 487.798C176.93 487.467 177.262 487.198 177.635 486.993C178.013 486.788 178.454 486.685 178.958 486.685C179.35 486.685 179.707 486.767 180.029 486.93C180.356 487.093 180.636 487.331 180.869 487.644C181.107 487.952 181.289 488.335 181.415 488.792C181.546 489.245 181.611 489.765 181.611 490.353C181.611 490.89 181.539 491.387 181.394 491.844C181.249 492.301 181.042 492.698 180.771 493.034C180.505 493.37 180.181 493.634 179.798 493.825C179.42 494.012 178.995 494.105 178.524 494.105C178.118 494.105 177.773 494.044 177.488 493.923C177.208 493.797 176.956 493.624 176.732 493.405V496.345H175.003ZM178.363 488.05C178.004 488.05 177.696 488.127 177.439 488.281C177.187 488.43 176.951 488.643 176.732 488.918V492.138C176.928 492.381 177.14 492.551 177.369 492.649C177.602 492.742 177.852 492.789 178.118 492.789C178.379 492.789 178.615 492.74 178.825 492.642C179.04 492.544 179.219 492.395 179.364 492.194C179.513 491.993 179.628 491.741 179.707 491.438C179.786 491.13 179.826 490.768 179.826 490.353C179.826 489.933 179.791 489.578 179.721 489.289C179.656 488.995 179.56 488.757 179.434 488.575C179.308 488.393 179.154 488.26 178.972 488.176C178.795 488.092 178.592 488.05 178.363 488.05ZM188.673 494C188.449 494 188.302 493.895 188.232 493.685L188.092 492.992C187.943 493.16 187.786 493.312 187.623 493.447C187.46 493.582 187.282 493.699 187.091 493.797C186.904 493.895 186.701 493.97 186.482 494.021C186.267 494.077 186.034 494.105 185.782 494.105C185.39 494.105 185.031 494.023 184.704 493.86C184.377 493.697 184.095 493.461 183.857 493.153C183.624 492.84 183.442 492.455 183.311 491.998C183.185 491.541 183.122 491.018 183.122 490.43C183.122 489.898 183.194 489.403 183.339 488.946C183.484 488.489 183.691 488.092 183.962 487.756C184.233 487.42 184.557 487.159 184.935 486.972C185.313 486.781 185.738 486.685 186.209 486.685C186.61 486.685 186.953 486.75 187.238 486.881C187.523 487.007 187.777 487.177 188.001 487.392V483.598H189.73V494H188.673ZM186.37 492.733C186.729 492.733 187.035 492.658 187.287 492.509C187.539 492.36 187.777 492.147 188.001 491.872V488.652C187.805 488.414 187.59 488.246 187.357 488.148C187.128 488.05 186.881 488.001 186.615 488.001C186.354 488.001 186.116 488.05 185.901 488.148C185.691 488.246 185.511 488.395 185.362 488.596C185.217 488.792 185.105 489.044 185.026 489.352C184.947 489.655 184.907 490.015 184.907 490.43C184.907 490.85 184.94 491.207 185.005 491.501C185.075 491.79 185.173 492.028 185.299 492.215C185.425 492.397 185.579 492.53 185.761 492.614C185.943 492.693 186.146 492.733 186.37 492.733ZM197.931 494H197.154C196.991 494 196.863 493.977 196.769 493.93C196.676 493.879 196.606 493.778 196.559 493.629L196.405 493.118C196.223 493.281 196.044 493.426 195.866 493.552C195.694 493.673 195.514 493.776 195.327 493.86C195.141 493.944 194.942 494.007 194.732 494.049C194.522 494.091 194.289 494.112 194.032 494.112C193.729 494.112 193.449 494.072 193.192 493.993C192.936 493.909 192.714 493.785 192.527 493.622C192.345 493.459 192.203 493.256 192.1 493.013C191.998 492.77 191.946 492.488 191.946 492.166C191.946 491.895 192.016 491.629 192.156 491.368C192.301 491.102 192.539 490.864 192.87 490.654C193.202 490.439 193.643 490.262 194.193 490.122C194.744 489.982 195.428 489.903 196.244 489.884V489.464C196.244 488.983 196.142 488.629 195.936 488.4C195.736 488.167 195.442 488.05 195.054 488.05C194.774 488.05 194.541 488.083 194.354 488.148C194.168 488.213 194.004 488.288 193.864 488.372C193.729 488.451 193.603 488.524 193.486 488.589C193.37 488.654 193.241 488.687 193.101 488.687C192.985 488.687 192.884 488.657 192.8 488.596C192.716 488.535 192.649 488.461 192.597 488.372L192.282 487.819C193.108 487.063 194.105 486.685 195.271 486.685C195.691 486.685 196.065 486.755 196.391 486.895C196.723 487.03 197.003 487.222 197.231 487.469C197.46 487.712 197.633 488.003 197.749 488.344C197.871 488.685 197.931 489.058 197.931 489.464V494ZM194.571 492.922C194.749 492.922 194.912 492.906 195.061 492.873C195.211 492.84 195.351 492.791 195.481 492.726C195.617 492.661 195.745 492.581 195.866 492.488C195.992 492.39 196.118 492.276 196.244 492.145V490.934C195.74 490.957 195.318 491.002 194.977 491.067C194.641 491.128 194.371 491.207 194.165 491.305C193.96 491.403 193.813 491.517 193.724 491.648C193.64 491.779 193.598 491.921 193.598 492.075C193.598 492.378 193.687 492.595 193.864 492.726C194.046 492.857 194.282 492.922 194.571 492.922ZM202.69 494.112C202.07 494.112 201.591 493.937 201.255 493.587C200.919 493.232 200.751 492.745 200.751 492.124V488.113H200.023C199.93 488.113 199.848 488.083 199.778 488.022C199.713 487.961 199.68 487.87 199.68 487.749V487.063L200.835 486.874L201.199 484.914C201.218 484.821 201.26 484.748 201.325 484.697C201.395 484.646 201.482 484.62 201.584 484.62H202.48V486.881H204.37V488.113H202.48V492.005C202.48 492.229 202.536 492.404 202.648 492.53C202.76 492.656 202.91 492.719 203.096 492.719C203.204 492.719 203.292 492.707 203.362 492.684C203.437 492.656 203.5 492.628 203.551 492.6C203.607 492.572 203.656 492.546 203.698 492.523C203.74 492.495 203.782 492.481 203.824 492.481C203.876 492.481 203.918 492.495 203.95 492.523C203.983 492.546 204.018 492.584 204.055 492.635L204.573 493.475C204.321 493.685 204.032 493.844 203.705 493.951C203.379 494.058 203.04 494.112 202.69 494.112ZM209.413 486.706C209.866 486.706 210.281 486.778 210.659 486.923C211.042 487.068 211.371 487.28 211.646 487.56C211.922 487.835 212.136 488.176 212.29 488.582C212.444 488.983 212.521 489.443 212.521 489.961C212.521 490.092 212.514 490.201 212.5 490.29C212.491 490.374 212.47 490.442 212.437 490.493C212.409 490.54 212.37 490.575 212.318 490.598C212.267 490.617 212.202 490.626 212.122 490.626H207.684C207.736 491.363 207.934 491.905 208.279 492.25C208.625 492.595 209.082 492.768 209.651 492.768C209.931 492.768 210.172 492.735 210.372 492.67C210.578 492.605 210.755 492.532 210.904 492.453C211.058 492.374 211.191 492.301 211.303 492.236C211.42 492.171 211.532 492.138 211.639 492.138C211.709 492.138 211.77 492.152 211.821 492.18C211.873 492.208 211.917 492.248 211.954 492.299L212.458 492.929C212.267 493.153 212.052 493.342 211.814 493.496C211.576 493.645 211.327 493.767 211.065 493.86C210.809 493.949 210.545 494.012 210.274 494.049C210.008 494.086 209.749 494.105 209.497 494.105C208.998 494.105 208.534 494.023 208.104 493.86C207.675 493.692 207.302 493.447 206.984 493.125C206.667 492.798 206.417 492.397 206.235 491.921C206.053 491.44 205.962 490.885 205.962 490.255C205.962 489.765 206.042 489.305 206.2 488.876C206.359 488.442 206.585 488.066 206.879 487.749C207.178 487.427 207.54 487.173 207.964 486.986C208.394 486.799 208.877 486.706 209.413 486.706ZM209.448 487.945C208.944 487.945 208.55 488.087 208.265 488.372C207.981 488.657 207.799 489.06 207.719 489.583H210.967C210.967 489.359 210.937 489.149 210.876 488.953C210.816 488.752 210.722 488.577 210.596 488.428C210.47 488.279 210.312 488.162 210.12 488.078C209.929 487.989 209.705 487.945 209.448 487.945Z" fill="white"/>
<path d="M122.068 354.196C120.715 354.196 119.697 353.818 119.016 353.062C118.344 352.297 118.008 351.223 118.008 349.842V344.2H119.338V349.478C119.338 350.551 119.529 351.405 119.912 352.04C120.295 352.675 121.013 352.992 122.068 352.992C123.123 352.992 123.841 352.675 124.224 352.04C124.607 351.396 124.798 350.542 124.798 349.478V344.2H126.128V349.842C126.128 351.223 125.787 352.297 125.106 353.062C124.434 353.818 123.421 354.196 122.068 354.196ZM131.952 347C132.559 347 133.086 347.159 133.534 347.476C133.991 347.784 134.341 348.209 134.584 348.75C134.827 349.291 134.948 349.898 134.948 350.57C134.948 351.251 134.831 351.863 134.598 352.404C134.374 352.936 134.038 353.361 133.59 353.678C133.142 353.986 132.596 354.14 131.952 354.14C131.476 354.14 131.042 354.056 130.65 353.888C130.258 353.72 129.95 353.477 129.726 353.16V357.388H128.466V347.14H129.446L129.586 348.092C130.165 347.364 130.953 347 131.952 347ZM131.714 353.02C132.321 353.02 132.797 352.805 133.142 352.376C133.487 351.937 133.66 351.335 133.66 350.57C133.66 349.805 133.487 349.207 133.142 348.778C132.797 348.339 132.321 348.12 131.714 348.12C131.117 348.12 130.622 348.33 130.23 348.75C129.847 349.17 129.656 349.777 129.656 350.57C129.656 351.391 129.847 352.007 130.23 352.418C130.613 352.819 131.107 353.02 131.714 353.02ZM143.035 343.5V354H141.915L141.775 353.16C141.542 353.477 141.238 353.72 140.865 353.888C140.492 354.056 140.095 354.14 139.675 354.14C139.096 354.14 138.569 353.981 138.093 353.664C137.617 353.347 137.239 352.917 136.959 352.376C136.688 351.835 136.553 351.237 136.553 350.584C136.553 349.949 136.679 349.357 136.931 348.806C137.192 348.255 137.561 347.817 138.037 347.49C138.513 347.163 139.059 347 139.675 347C140.086 347 140.473 347.075 140.837 347.224C141.201 347.373 141.514 347.602 141.775 347.91V343.5H143.035ZM139.899 353.02C140.235 353.02 140.557 352.936 140.865 352.768C141.173 352.591 141.425 352.32 141.621 351.956C141.817 351.592 141.915 351.135 141.915 350.584C141.915 350.071 141.817 349.627 141.621 349.254C141.425 348.881 141.168 348.601 140.851 348.414C140.543 348.218 140.226 348.12 139.899 348.12C139.264 348.12 138.76 348.353 138.387 348.82C138.023 349.277 137.841 349.865 137.841 350.584C137.841 351.275 138.028 351.853 138.401 352.32C138.774 352.787 139.274 353.02 139.899 353.02ZM147.021 354.14C146.386 354.14 145.873 353.953 145.481 353.58C145.098 353.207 144.907 352.731 144.907 352.152C144.907 351.284 145.317 350.663 146.139 350.29C146.96 349.917 147.917 349.721 149.009 349.702C149.009 349.086 148.887 348.671 148.645 348.456C148.411 348.232 148.033 348.12 147.511 348.12C147.221 348.12 146.932 348.167 146.643 348.26C146.353 348.344 146.041 348.503 145.705 348.736L145.523 347.714C145.803 347.499 146.148 347.327 146.559 347.196C146.969 347.065 147.399 347 147.847 347C148.435 347 148.901 347.103 149.247 347.308C149.601 347.513 149.858 347.854 150.017 348.33C150.185 348.806 150.269 349.459 150.269 350.29V351.69C150.269 352.063 150.283 352.348 150.311 352.544C150.348 352.731 150.423 352.875 150.535 352.978C150.647 353.081 150.819 353.132 151.053 353.132H151.179L150.983 354.14H150.885C150.493 354.14 150.185 354.103 149.961 354.028C149.737 353.953 149.564 353.846 149.443 353.706C149.331 353.566 149.223 353.375 149.121 353.132C148.542 353.804 147.842 354.14 147.021 354.14ZM147.259 353.132C147.595 353.132 147.917 353.048 148.225 352.88C148.542 352.712 148.803 352.488 149.009 352.208V350.57C148.001 350.607 147.277 350.743 146.839 350.976C146.409 351.2 146.195 351.569 146.195 352.082C146.195 352.437 146.288 352.703 146.475 352.88C146.671 353.048 146.932 353.132 147.259 353.132ZM155.081 354.14C154.474 354.14 154.021 353.981 153.723 353.664C153.433 353.347 153.289 352.959 153.289 352.502V348.12H152.113L152.225 347.14H153.289V345.446L154.549 345.32V347.14H156.355V348.12H154.549V351.732C154.549 352.208 154.577 352.535 154.633 352.712C154.689 352.889 154.805 353.006 154.983 353.062C155.169 353.109 155.505 353.132 155.991 353.132H156.313L156.215 354.14H155.081ZM161.367 354.14C160.583 354.14 159.911 353.981 159.351 353.664C158.8 353.337 158.38 352.899 158.091 352.348C157.801 351.797 157.657 351.186 157.657 350.514C157.657 349.87 157.787 349.282 158.049 348.75C158.319 348.209 158.707 347.784 159.211 347.476C159.724 347.159 160.326 347 161.017 347C161.894 347 162.603 347.257 163.145 347.77C163.695 348.283 163.971 348.993 163.971 349.898C163.971 350.131 163.952 350.355 163.915 350.57H158.945C159.029 351.457 159.299 352.087 159.757 352.46C160.214 352.833 160.802 353.02 161.521 353.02C162.239 353.02 162.897 352.885 163.495 352.614L163.663 353.608C162.869 353.963 162.104 354.14 161.367 354.14ZM162.669 349.702C162.669 349.207 162.529 348.82 162.249 348.54C161.969 348.26 161.549 348.12 160.989 348.12C160.447 348.12 160.023 348.255 159.715 348.526C159.407 348.787 159.187 349.179 159.057 349.702H162.669ZM171.885 353.692L169.029 347.14H170.429L172.571 352.236L174.503 347.14H175.903L171.703 357.388H170.303L171.885 353.692ZM180.413 354.14C179.713 354.14 179.106 353.986 178.593 353.678C178.08 353.361 177.688 352.931 177.417 352.39C177.146 351.849 177.011 351.242 177.011 350.57C177.011 349.898 177.146 349.291 177.417 348.75C177.688 348.209 178.08 347.784 178.593 347.476C179.106 347.159 179.713 347 180.413 347C181.104 347 181.706 347.159 182.219 347.476C182.742 347.784 183.138 348.209 183.409 348.75C183.68 349.291 183.815 349.898 183.815 350.57C183.815 351.242 183.68 351.849 183.409 352.39C183.138 352.931 182.742 353.361 182.219 353.678C181.706 353.986 181.104 354.14 180.413 354.14ZM180.413 353.02C181.085 353.02 181.603 352.805 181.967 352.376C182.34 351.947 182.527 351.345 182.527 350.57C182.527 349.795 182.34 349.193 181.967 348.764C181.603 348.335 181.085 348.12 180.413 348.12C179.741 348.12 179.218 348.335 178.845 348.764C178.481 349.193 178.299 349.795 178.299 350.57C178.299 351.345 178.481 351.947 178.845 352.376C179.218 352.805 179.741 353.02 180.413 353.02ZM191.442 347.14V354H190.322L190.182 353.244C189.958 353.552 189.692 353.781 189.384 353.93C189.085 354.07 188.717 354.14 188.278 354.14C187.457 354.14 186.827 353.893 186.388 353.398C185.959 352.894 185.744 352.138 185.744 351.13V347.14H187.004V350.78C187.004 351.527 187.13 352.087 187.382 352.46C187.643 352.833 188.049 353.02 188.6 353.02C188.927 353.02 189.23 352.955 189.51 352.824C189.799 352.693 190.023 352.502 190.182 352.25V347.14H191.442ZM193.856 347.14H194.892L195.046 348.274C195.401 347.835 195.737 347.513 196.054 347.308C196.381 347.103 196.721 347 197.076 347C197.188 347 197.295 347.014 197.398 347.042L197.272 348.428C197.151 348.4 197.011 348.386 196.852 348.386C196.507 348.386 196.18 348.465 195.872 348.624C195.564 348.773 195.34 348.951 195.2 349.156V354H193.856V347.14ZM206.316 347C206.923 347 207.45 347.159 207.898 347.476C208.356 347.784 208.706 348.209 208.948 348.75C209.191 349.291 209.312 349.898 209.312 350.57C209.312 351.251 209.196 351.863 208.962 352.404C208.738 352.936 208.402 353.361 207.954 353.678C207.506 353.986 206.96 354.14 206.316 354.14C205.84 354.14 205.406 354.056 205.014 353.888C204.622 353.72 204.314 353.477 204.09 353.16V357.388H202.83V347.14H203.81L203.95 348.092C204.529 347.364 205.318 347 206.316 347ZM206.078 353.02C206.685 353.02 207.161 352.805 207.506 352.376C207.852 351.937 208.024 351.335 208.024 350.57C208.024 349.805 207.852 349.207 207.506 348.778C207.161 348.339 206.685 348.12 206.078 348.12C205.481 348.12 204.986 348.33 204.594 348.75C204.212 349.17 204.02 349.777 204.02 350.57C204.02 351.391 204.212 352.007 204.594 352.418C204.977 352.819 205.472 353.02 206.078 353.02ZM212.919 354.14C212.284 354.14 211.771 353.953 211.379 353.58C210.996 353.207 210.805 352.731 210.805 352.152C210.805 351.284 211.216 350.663 212.037 350.29C212.858 349.917 213.815 349.721 214.907 349.702C214.907 349.086 214.786 348.671 214.543 348.456C214.31 348.232 213.932 348.12 213.409 348.12C213.12 348.12 212.83 348.167 212.541 348.26C212.252 348.344 211.939 348.503 211.603 348.736L211.421 347.714C211.701 347.499 212.046 347.327 212.457 347.196C212.868 347.065 213.297 347 213.745 347C214.333 347 214.8 347.103 215.145 347.308C215.5 347.513 215.756 347.854 215.915 348.33C216.083 348.806 216.167 349.459 216.167 350.29V351.69C216.167 352.063 216.181 352.348 216.209 352.544C216.246 352.731 216.321 352.875 216.433 352.978C216.545 353.081 216.718 353.132 216.951 353.132H217.077L216.881 354.14H216.783C216.391 354.14 216.083 354.103 215.859 354.028C215.635 353.953 215.462 353.846 215.341 353.706C215.229 353.566 215.122 353.375 215.019 353.132C214.44 353.804 213.74 354.14 212.919 354.14ZM213.157 353.132C213.493 353.132 213.815 353.048 214.123 352.88C214.44 352.712 214.702 352.488 214.907 352.208V350.57C213.899 350.607 213.176 350.743 212.737 350.976C212.308 351.2 212.093 351.569 212.093 352.082C212.093 352.437 212.186 352.703 212.373 352.88C212.569 353.048 212.83 353.132 213.157 353.132ZM220.696 354.14C220.154 354.14 219.678 354.079 219.268 353.958C218.866 353.827 218.558 353.687 218.344 353.538L218.498 352.32C218.684 352.488 218.969 352.647 219.352 352.796C219.744 352.945 220.173 353.02 220.64 353.02C221.078 353.02 221.414 352.945 221.648 352.796C221.89 352.647 222.012 352.437 222.012 352.166C222.012 351.849 221.881 351.611 221.62 351.452C221.358 351.284 221.032 351.144 220.64 351.032C220.21 350.92 219.846 350.803 219.548 350.682C219.258 350.551 219.006 350.355 218.792 350.094C218.586 349.833 218.484 349.487 218.484 349.058C218.484 348.47 218.694 347.98 219.114 347.588C219.534 347.196 220.182 347 221.06 347C221.461 347 221.802 347.042 222.082 347.126C222.362 347.201 222.642 347.308 222.922 347.448L222.768 348.596C222.544 348.409 222.296 348.265 222.026 348.162C221.755 348.05 221.442 347.994 221.088 347.994C220.677 347.994 220.35 348.073 220.108 348.232C219.874 348.381 219.758 348.61 219.758 348.918C219.758 349.123 219.814 349.291 219.926 349.422C220.038 349.543 220.196 349.646 220.402 349.73C220.607 349.814 220.924 349.921 221.354 350.052C221.886 350.211 222.343 350.435 222.726 350.724C223.118 351.013 223.314 351.471 223.314 352.096C223.314 352.656 223.113 353.137 222.712 353.538C222.32 353.939 221.648 354.14 220.696 354.14ZM224.561 347.14H226.045L227.361 352.614L228.817 347.35H230.119L231.589 352.614L232.905 347.14H234.389L232.317 354H230.903L229.475 348.932L228.033 354H226.619L224.561 347.14ZM239.019 354.14C238.319 354.14 237.712 353.986 237.199 353.678C236.685 353.361 236.293 352.931 236.023 352.39C235.752 351.849 235.617 351.242 235.617 350.57C235.617 349.898 235.752 349.291 236.023 348.75C236.293 348.209 236.685 347.784 237.199 347.476C237.712 347.159 238.319 347 239.019 347C239.709 347 240.311 347.159 240.825 347.476C241.347 347.784 241.744 348.209 242.015 348.75C242.285 349.291 242.421 349.898 242.421 350.57C242.421 351.242 242.285 351.849 242.015 352.39C241.744 352.931 241.347 353.361 240.825 353.678C240.311 353.986 239.709 354.14 239.019 354.14ZM239.019 353.02C239.691 353.02 240.209 352.805 240.573 352.376C240.946 351.947 241.133 351.345 241.133 350.57C241.133 349.795 240.946 349.193 240.573 348.764C240.209 348.335 239.691 348.12 239.019 348.12C238.347 348.12 237.824 348.335 237.451 348.764C237.087 349.193 236.905 349.795 236.905 350.57C236.905 351.345 237.087 351.947 237.451 352.376C237.824 352.805 238.347 353.02 239.019 353.02ZM244.42 347.14H245.456L245.61 348.274C245.965 347.835 246.301 347.513 246.618 347.308C246.945 347.103 247.285 347 247.64 347C247.752 347 247.859 347.014 247.962 347.042L247.836 348.428C247.715 348.4 247.575 348.386 247.416 348.386C247.071 348.386 246.744 348.465 246.436 348.624C246.128 348.773 245.904 348.951 245.764 349.156V354H244.42V347.14ZM255.448 343.5V354H254.328L254.188 353.16C253.955 353.477 253.651 353.72 253.278 353.888C252.905 354.056 252.508 354.14 252.088 354.14C251.509 354.14 250.982 353.981 250.506 353.664C250.03 353.347 249.652 352.917 249.372 352.376C249.101 351.835 248.966 351.237 248.966 350.584C248.966 349.949 249.092 349.357 249.344 348.806C249.605 348.255 249.974 347.817 250.45 347.49C250.926 347.163 251.472 347 252.088 347C252.499 347 252.886 347.075 253.25 347.224C253.614 347.373 253.927 347.602 254.188 347.91V343.5H255.448ZM252.312 353.02C252.648 353.02 252.97 352.936 253.278 352.768C253.586 352.591 253.838 352.32 254.034 351.956C254.23 351.592 254.328 351.135 254.328 350.584C254.328 350.071 254.23 349.627 254.034 349.254C253.838 348.881 253.581 348.601 253.264 348.414C252.956 348.218 252.639 348.12 252.312 348.12C251.677 348.12 251.173 348.353 250.8 348.82C250.436 349.277 250.254 349.865 250.254 350.584C250.254 351.275 250.441 351.853 250.814 352.32C251.187 352.787 251.687 353.02 252.312 353.02Z" fill="white"/>
<path d="M40 431C40 425.477 44.4772 421 50 421H325C330.523 421 335 425.477 335 431V447C335 452.523 330.523 457 325 457H50C44.4771 457 40 452.523 40 447V431Z" fill="#BEBEBE" fill-opacity="0.28"/>
<path d="M141.96 434.6H144.684C145.596 434.6 146.308 434.812 146.82 435.236C147.332 435.652 147.588 436.292 147.588 437.156C147.588 438.276 147.1 439.064 146.124 439.52L148.008 443H146.616L144.912 439.724H144.852H143.16V443H141.96V434.6ZM144.672 438.704C145.232 438.704 145.66 438.568 145.956 438.296C146.252 438.024 146.4 437.644 146.4 437.156C146.4 436.668 146.252 436.292 145.956 436.028C145.668 435.756 145.24 435.62 144.672 435.62H143.16V438.704H144.672ZM151.56 443.12C150.888 443.12 150.312 442.984 149.832 442.712C149.36 442.432 149 442.056 148.752 441.584C148.504 441.112 148.38 440.588 148.38 440.012C148.38 439.46 148.492 438.956 148.716 438.5C148.948 438.036 149.28 437.672 149.712 437.408C150.152 437.136 150.668 437 151.26 437C152.012 437 152.62 437.22 153.084 437.66C153.556 438.1 153.792 438.708 153.792 439.484C153.792 439.684 153.776 439.876 153.744 440.06H149.484C149.556 440.82 149.788 441.36 150.18 441.68C150.572 442 151.076 442.16 151.692 442.16C152.308 442.16 152.872 442.044 153.384 441.812L153.528 442.664C152.848 442.968 152.192 443.12 151.56 443.12ZM152.676 439.316C152.676 438.892 152.556 438.56 152.316 438.32C152.076 438.08 151.716 437.96 151.236 437.96C150.772 437.96 150.408 438.076 150.144 438.308C149.88 438.532 149.692 438.868 149.58 439.316H152.676ZM154.832 438.752H158.552V439.784H154.832V438.752ZM161.901 443.12C161.381 443.12 160.993 442.984 160.737 442.712C160.489 442.44 160.365 442.108 160.365 441.716V437.96H159.357L159.453 437.12H160.365V435.668L161.445 435.56V437.12H162.993V437.96H161.445V441.056C161.445 441.464 161.469 441.744 161.517 441.896C161.565 442.048 161.665 442.148 161.817 442.196C161.977 442.236 162.265 442.256 162.681 442.256H162.957L162.873 443.12H161.901ZM165.716 442.736L163.268 437.12H164.468L166.304 441.488L167.96 437.12H169.16L165.56 445.904H164.36L165.716 442.736ZM172.962 437C173.482 437 173.934 437.136 174.318 437.408C174.71 437.672 175.01 438.036 175.218 438.5C175.426 438.964 175.53 439.484 175.53 440.06C175.53 440.644 175.43 441.168 175.23 441.632C175.038 442.088 174.75 442.452 174.366 442.724C173.982 442.988 173.514 443.12 172.962 443.12C172.554 443.12 172.182 443.048 171.846 442.904C171.51 442.76 171.246 442.552 171.054 442.28V445.904H169.974V437.12H170.814L170.934 437.936C171.43 437.312 172.106 437 172.962 437ZM172.758 442.16C173.278 442.16 173.686 441.976 173.982 441.608C174.278 441.232 174.426 440.716 174.426 440.06C174.426 439.404 174.278 438.892 173.982 438.524C173.686 438.148 173.278 437.96 172.758 437.96C172.246 437.96 171.822 438.14 171.486 438.5C171.158 438.86 170.994 439.38 170.994 440.06C170.994 440.764 171.158 441.292 171.486 441.644C171.814 441.988 172.238 442.16 172.758 442.16ZM179.474 443.12C178.802 443.12 178.226 442.984 177.746 442.712C177.274 442.432 176.914 442.056 176.666 441.584C176.418 441.112 176.294 440.588 176.294 440.012C176.294 439.46 176.406 438.956 176.63 438.5C176.862 438.036 177.194 437.672 177.626 437.408C178.066 437.136 178.582 437 179.174 437C179.926 437 180.534 437.22 180.998 437.66C181.47 438.1 181.706 438.708 181.706 439.484C181.706 439.684 181.69 439.876 181.658 440.06H177.398C177.47 440.82 177.702 441.36 178.094 441.68C178.486 442 178.99 442.16 179.606 442.16C180.222 442.16 180.786 442.044 181.298 441.812L181.442 442.664C180.762 442.968 180.106 443.12 179.474 443.12ZM180.59 439.316C180.59 438.892 180.47 438.56 180.23 438.32C179.99 438.08 179.63 437.96 179.15 437.96C178.686 437.96 178.322 438.076 178.058 438.308C177.794 438.532 177.606 438.868 177.494 439.316H180.59ZM188.478 437C188.998 437 189.45 437.136 189.834 437.408C190.226 437.672 190.526 438.036 190.734 438.5C190.942 438.964 191.046 439.484 191.046 440.06C191.046 440.644 190.946 441.168 190.746 441.632C190.554 442.088 190.266 442.452 189.882 442.724C189.498 442.988 189.03 443.12 188.478 443.12C188.07 443.12 187.698 443.048 187.362 442.904C187.026 442.76 186.762 442.552 186.57 442.28V445.904H185.49V437.12H186.33L186.45 437.936C186.946 437.312 187.622 437 188.478 437ZM188.274 442.16C188.794 442.16 189.202 441.976 189.498 441.608C189.794 441.232 189.942 440.716 189.942 440.06C189.942 439.404 189.794 438.892 189.498 438.524C189.202 438.148 188.794 437.96 188.274 437.96C187.762 437.96 187.338 438.14 187.002 438.5C186.674 438.86 186.51 439.38 186.51 440.06C186.51 440.764 186.674 441.292 187.002 441.644C187.33 441.988 187.754 442.16 188.274 442.16ZM193.538 443.12C192.994 443.12 192.554 442.96 192.218 442.64C191.89 442.32 191.726 441.912 191.726 441.416C191.726 440.672 192.078 440.14 192.782 439.82C193.486 439.5 194.306 439.332 195.242 439.316C195.242 438.788 195.138 438.432 194.93 438.248C194.73 438.056 194.406 437.96 193.958 437.96C193.71 437.96 193.462 438 193.214 438.08C192.966 438.152 192.698 438.288 192.41 438.488L192.254 437.612C192.494 437.428 192.79 437.28 193.142 437.168C193.494 437.056 193.862 437 194.246 437C194.75 437 195.15 437.088 195.446 437.264C195.75 437.44 195.97 437.732 196.106 438.14C196.25 438.548 196.322 439.108 196.322 439.82V441.02C196.322 441.34 196.334 441.584 196.358 441.752C196.39 441.912 196.454 442.036 196.55 442.124C196.646 442.212 196.794 442.256 196.994 442.256H197.102L196.934 443.12H196.85C196.514 443.12 196.25 443.088 196.058 443.024C195.866 442.96 195.718 442.868 195.614 442.748C195.518 442.628 195.426 442.464 195.338 442.256C194.842 442.832 194.242 443.12 193.538 443.12ZM193.742 442.256C194.03 442.256 194.306 442.184 194.57 442.04C194.842 441.896 195.066 441.704 195.242 441.464V440.06C194.378 440.092 193.758 440.208 193.382 440.408C193.014 440.6 192.83 440.916 192.83 441.356C192.83 441.66 192.91 441.888 193.07 442.04C193.238 442.184 193.462 442.256 193.742 442.256ZM199.603 443.12C199.139 443.12 198.731 443.068 198.379 442.964C198.035 442.852 197.771 442.732 197.587 442.604L197.719 441.56C197.879 441.704 198.123 441.84 198.451 441.968C198.787 442.096 199.155 442.16 199.555 442.16C199.931 442.16 200.219 442.096 200.419 441.968C200.627 441.84 200.731 441.66 200.731 441.428C200.731 441.156 200.619 440.952 200.395 440.816C200.171 440.672 199.891 440.552 199.555 440.456C199.187 440.36 198.875 440.26 198.619 440.156C198.371 440.044 198.155 439.876 197.971 439.652C197.795 439.428 197.707 439.132 197.707 438.764C197.707 438.26 197.887 437.84 198.247 437.504C198.607 437.168 199.163 437 199.915 437C200.259 437 200.551 437.036 200.791 437.108C201.031 437.172 201.271 437.264 201.511 437.384L201.379 438.368C201.187 438.208 200.975 438.084 200.743 437.996C200.511 437.9 200.243 437.852 199.939 437.852C199.587 437.852 199.307 437.92 199.099 438.056C198.899 438.184 198.799 438.38 198.799 438.644C198.799 438.82 198.847 438.964 198.943 439.076C199.039 439.18 199.175 439.268 199.351 439.34C199.527 439.412 199.799 439.504 200.167 439.616C200.623 439.752 201.015 439.944 201.343 440.192C201.679 440.44 201.847 440.832 201.847 441.368C201.847 441.848 201.675 442.26 201.331 442.604C200.995 442.948 200.419 443.12 199.603 443.12ZM204.572 443.12C204.108 443.12 203.7 443.068 203.348 442.964C203.004 442.852 202.74 442.732 202.556 442.604L202.688 441.56C202.848 441.704 203.092 441.84 203.42 441.968C203.756 442.096 204.124 442.16 204.524 442.16C204.9 442.16 205.188 442.096 205.388 441.968C205.596 441.84 205.7 441.66 205.7 441.428C205.7 441.156 205.588 440.952 205.364 440.816C205.14 440.672 204.86 440.552 204.524 440.456C204.156 440.36 203.844 440.26 203.588 440.156C203.34 440.044 203.124 439.876 202.94 439.652C202.764 439.428 202.676 439.132 202.676 438.764C202.676 438.26 202.856 437.84 203.216 437.504C203.576 437.168 204.132 437 204.884 437C205.228 437 205.52 437.036 205.76 437.108C206 437.172 206.24 437.264 206.48 437.384L206.348 438.368C206.156 438.208 205.944 438.084 205.712 437.996C205.48 437.9 205.212 437.852 204.908 437.852C204.556 437.852 204.276 437.92 204.068 438.056C203.868 438.184 203.768 438.38 203.768 438.644C203.768 438.82 203.816 438.964 203.912 439.076C204.008 439.18 204.144 439.268 204.32 439.34C204.496 439.412 204.768 439.504 205.136 439.616C205.592 439.752 205.984 439.944 206.312 440.192C206.648 440.44 206.816 440.832 206.816 441.368C206.816 441.848 206.644 442.26 206.3 442.604C205.964 442.948 205.388 443.12 204.572 443.12ZM207.285 437.12H208.557L209.685 441.812L210.933 437.3H212.049L213.309 441.812L214.437 437.12H215.709L213.933 443H212.721L211.497 438.656L210.261 443H209.049L207.285 437.12ZM219.077 443.12C218.477 443.12 217.957 442.988 217.517 442.724C217.077 442.452 216.741 442.084 216.509 441.62C216.277 441.156 216.161 440.636 216.161 440.06C216.161 439.484 216.277 438.964 216.509 438.5C216.741 438.036 217.077 437.672 217.517 437.408C217.957 437.136 218.477 437 219.077 437C219.669 437 220.185 437.136 220.625 437.408C221.073 437.672 221.413 438.036 221.645 438.5C221.877 438.964 221.993 439.484 221.993 440.06C221.993 440.636 221.877 441.156 221.645 441.62C221.413 442.084 221.073 442.452 220.625 442.724C220.185 442.988 219.669 443.12 219.077 443.12ZM219.077 442.16C219.653 442.16 220.097 441.976 220.409 441.608C220.729 441.24 220.889 440.724 220.889 440.06C220.889 439.396 220.729 438.88 220.409 438.512C220.097 438.144 219.653 437.96 219.077 437.96C218.501 437.96 218.053 438.144 217.733 438.512C217.421 438.88 217.265 439.396 217.265 440.06C217.265 440.724 217.421 441.24 217.733 441.608C218.053 441.976 218.501 442.16 219.077 442.16ZM223.107 437.12H223.995L224.127 438.092C224.431 437.716 224.719 437.44 224.991 437.264C225.271 437.088 225.563 437 225.867 437C225.963 437 226.055 437.012 226.143 437.036L226.035 438.224C225.931 438.2 225.811 438.188 225.675 438.188C225.379 438.188 225.099 438.256 224.835 438.392C224.571 438.52 224.379 438.672 224.259 438.848V443H223.107V437.12ZM231.96 434V443H231L230.88 442.28C230.68 442.552 230.42 442.76 230.1 442.904C229.78 443.048 229.44 443.12 229.08 443.12C228.584 443.12 228.132 442.984 227.724 442.712C227.316 442.44 226.992 442.072 226.752 441.608C226.52 441.144 226.404 440.632 226.404 440.072C226.404 439.528 226.512 439.02 226.728 438.548C226.952 438.076 227.268 437.7 227.676 437.42C228.084 437.14 228.552 437 229.08 437C229.432 437 229.764 437.064 230.076 437.192C230.388 437.32 230.656 437.516 230.88 437.78V434H231.96ZM229.272 442.16C229.56 442.16 229.836 442.088 230.1 441.944C230.364 441.792 230.58 441.56 230.748 441.248C230.916 440.936 231 440.544 231 440.072C231 439.632 230.916 439.252 230.748 438.932C230.58 438.612 230.36 438.372 230.088 438.212C229.824 438.044 229.552 437.96 229.272 437.96C228.728 437.96 228.296 438.16 227.976 438.56C227.664 438.952 227.508 439.456 227.508 440.072C227.508 440.664 227.668 441.16 227.988 441.56C228.308 441.96 228.736 442.16 229.272 442.16Z" fill="white" fill-opacity="0.2"/>
<path d="M41 384C41 378.477 45.4772 374 51 374H326C331.523 374 336 378.477 336 384V400C336 405.523 331.523 410 326 410H51C45.4771 410 41 405.523 41 400V384Z" fill="#BEBEBE" fill-opacity="0.28"/>
<path d="M151.96 387.6H153.196L157.336 393.888V387.6H158.488V396H157.516L153.1 389.364V396H151.96V387.6ZM162.837 396.12C162.165 396.12 161.589 395.984 161.109 395.712C160.637 395.432 160.277 395.056 160.029 394.584C159.781 394.112 159.657 393.588 159.657 393.012C159.657 392.46 159.769 391.956 159.993 391.5C160.225 391.036 160.557 390.672 160.989 390.408C161.429 390.136 161.945 390 162.537 390C163.289 390 163.897 390.22 164.361 390.66C164.833 391.1 165.069 391.708 165.069 392.484C165.069 392.684 165.053 392.876 165.021 393.06H160.761C160.833 393.82 161.065 394.36 161.457 394.68C161.849 395 162.353 395.16 162.969 395.16C163.585 395.16 164.149 395.044 164.661 394.812L164.805 395.664C164.125 395.968 163.469 396.12 162.837 396.12ZM163.953 392.316C163.953 391.892 163.833 391.56 163.593 391.32C163.353 391.08 162.993 390.96 162.513 390.96C162.049 390.96 161.685 391.076 161.421 391.308C161.157 391.532 160.969 391.868 160.857 392.316H163.953ZM165.57 390.12H166.842L167.97 394.812L169.218 390.3H170.334L171.594 394.812L172.722 390.12H173.994L172.218 396H171.006L169.782 391.656L168.546 396H167.334L165.57 390.12ZM177.776 387.6H180.548C181.444 387.6 182.14 387.82 182.636 388.26C183.14 388.692 183.392 389.38 183.392 390.324C183.392 391.252 183.14 391.94 182.636 392.388C182.132 392.836 181.436 393.06 180.548 393.06H178.976V396H177.776V387.6ZM180.38 392.04C180.996 392.04 181.456 391.9 181.76 391.62C182.064 391.34 182.216 390.912 182.216 390.336C182.216 389.752 182.068 389.32 181.772 389.04C181.484 388.76 181.02 388.62 180.38 388.62H178.976V392.04H180.38ZM185.62 396.12C185.076 396.12 184.636 395.96 184.3 395.64C183.972 395.32 183.808 394.912 183.808 394.416C183.808 393.672 184.16 393.14 184.864 392.82C185.568 392.5 186.388 392.332 187.324 392.316C187.324 391.788 187.22 391.432 187.012 391.248C186.812 391.056 186.488 390.96 186.04 390.96C185.792 390.96 185.544 391 185.296 391.08C185.048 391.152 184.78 391.288 184.492 391.488L184.336 390.612C184.576 390.428 184.872 390.28 185.224 390.168C185.576 390.056 185.944 390 186.328 390C186.832 390 187.232 390.088 187.528 390.264C187.832 390.44 188.052 390.732 188.188 391.14C188.332 391.548 188.404 392.108 188.404 392.82V394.02C188.404 394.34 188.416 394.584 188.44 394.752C188.472 394.912 188.536 395.036 188.632 395.124C188.728 395.212 188.876 395.256 189.076 395.256H189.184L189.016 396.12H188.932C188.596 396.12 188.332 396.088 188.14 396.024C187.948 395.96 187.8 395.868 187.696 395.748C187.6 395.628 187.508 395.464 187.42 395.256C186.924 395.832 186.324 396.12 185.62 396.12ZM185.824 395.256C186.112 395.256 186.388 395.184 186.652 395.04C186.924 394.896 187.148 394.704 187.324 394.464V393.06C186.46 393.092 185.84 393.208 185.464 393.408C185.096 393.6 184.912 393.916 184.912 394.356C184.912 394.66 184.992 394.888 185.152 395.04C185.32 395.184 185.544 395.256 185.824 395.256ZM191.685 396.12C191.221 396.12 190.813 396.068 190.461 395.964C190.117 395.852 189.853 395.732 189.669 395.604L189.801 394.56C189.961 394.704 190.205 394.84 190.533 394.968C190.869 395.096 191.237 395.16 191.637 395.16C192.013 395.16 192.301 395.096 192.501 394.968C192.709 394.84 192.813 394.66 192.813 394.428C192.813 394.156 192.701 393.952 192.477 393.816C192.253 393.672 191.973 393.552 191.637 393.456C191.269 393.36 190.957 393.26 190.701 393.156C190.453 393.044 190.237 392.876 190.053 392.652C189.877 392.428 189.789 392.132 189.789 391.764C189.789 391.26 189.969 390.84 190.329 390.504C190.689 390.168 191.245 390 191.997 390C192.341 390 192.633 390.036 192.873 390.108C193.113 390.172 193.353 390.264 193.593 390.384L193.461 391.368C193.269 391.208 193.057 391.084 192.825 390.996C192.593 390.9 192.325 390.852 192.021 390.852C191.669 390.852 191.389 390.92 191.181 391.056C190.981 391.184 190.881 391.38 190.881 391.644C190.881 391.82 190.929 391.964 191.025 392.076C191.121 392.18 191.257 392.268 191.433 392.34C191.609 392.412 191.881 392.504 192.249 392.616C192.705 392.752 193.097 392.944 193.425 393.192C193.761 393.44 193.929 393.832 193.929 394.368C193.929 394.848 193.757 395.26 193.413 395.604C193.077 395.948 192.501 396.12 191.685 396.12ZM196.654 396.12C196.19 396.12 195.782 396.068 195.43 395.964C195.086 395.852 194.822 395.732 194.638 395.604L194.77 394.56C194.93 394.704 195.174 394.84 195.502 394.968C195.838 395.096 196.206 395.16 196.606 395.16C196.982 395.16 197.27 395.096 197.47 394.968C197.678 394.84 197.782 394.66 197.782 394.428C197.782 394.156 197.67 393.952 197.446 393.816C197.222 393.672 196.942 393.552 196.606 393.456C196.238 393.36 195.926 393.26 195.67 393.156C195.422 393.044 195.206 392.876 195.022 392.652C194.846 392.428 194.758 392.132 194.758 391.764C194.758 391.26 194.938 390.84 195.298 390.504C195.658 390.168 196.214 390 196.966 390C197.31 390 197.602 390.036 197.842 390.108C198.082 390.172 198.322 390.264 198.562 390.384L198.43 391.368C198.238 391.208 198.026 391.084 197.794 390.996C197.562 390.9 197.294 390.852 196.99 390.852C196.638 390.852 196.358 390.92 196.15 391.056C195.95 391.184 195.85 391.38 195.85 391.644C195.85 391.82 195.898 391.964 195.994 392.076C196.09 392.18 196.226 392.268 196.402 392.34C196.578 392.412 196.85 392.504 197.218 392.616C197.674 392.752 198.066 392.944 198.394 393.192C198.73 393.44 198.898 393.832 198.898 394.368C198.898 394.848 198.726 395.26 198.382 395.604C198.046 395.948 197.47 396.12 196.654 396.12ZM199.367 390.12H200.639L201.767 394.812L203.015 390.3H204.131L205.391 394.812L206.519 390.12H207.791L206.015 396H204.803L203.579 391.656L202.343 396H201.131L199.367 390.12ZM211.159 396.12C210.559 396.12 210.039 395.988 209.599 395.724C209.159 395.452 208.823 395.084 208.591 394.62C208.359 394.156 208.243 393.636 208.243 393.06C208.243 392.484 208.359 391.964 208.591 391.5C208.823 391.036 209.159 390.672 209.599 390.408C210.039 390.136 210.559 390 211.159 390C211.751 390 212.267 390.136 212.707 390.408C213.155 390.672 213.495 391.036 213.727 391.5C213.959 391.964 214.075 392.484 214.075 393.06C214.075 393.636 213.959 394.156 213.727 394.62C213.495 395.084 213.155 395.452 212.707 395.724C212.267 395.988 211.751 396.12 211.159 396.12ZM211.159 395.16C211.735 395.16 212.179 394.976 212.491 394.608C212.811 394.24 212.971 393.724 212.971 393.06C212.971 392.396 212.811 391.88 212.491 391.512C212.179 391.144 211.735 390.96 211.159 390.96C210.583 390.96 210.135 391.144 209.815 391.512C209.503 391.88 209.347 392.396 209.347 393.06C209.347 393.724 209.503 394.24 209.815 394.608C210.135 394.976 210.583 395.16 211.159 395.16ZM215.189 390.12H216.077L216.209 391.092C216.513 390.716 216.801 390.44 217.073 390.264C217.353 390.088 217.645 390 217.949 390C218.045 390 218.137 390.012 218.225 390.036L218.117 391.224C218.013 391.2 217.893 391.188 217.757 391.188C217.461 391.188 217.181 391.256 216.917 391.392C216.653 391.52 216.461 391.672 216.341 391.848V396H215.189V390.12ZM224.042 387V396H223.082L222.962 395.28C222.762 395.552 222.502 395.76 222.182 395.904C221.862 396.048 221.522 396.12 221.162 396.12C220.666 396.12 220.214 395.984 219.806 395.712C219.398 395.44 219.074 395.072 218.834 394.608C218.602 394.144 218.486 393.632 218.486 393.072C218.486 392.528 218.594 392.02 218.81 391.548C219.034 391.076 219.35 390.7 219.758 390.42C220.166 390.14 220.634 390 221.162 390C221.514 390 221.846 390.064 222.158 390.192C222.47 390.32 222.738 390.516 222.962 390.78V387H224.042ZM221.354 395.16C221.642 395.16 221.918 395.088 222.182 394.944C222.446 394.792 222.662 394.56 222.83 394.248C222.998 393.936 223.082 393.544 223.082 393.072C223.082 392.632 222.998 392.252 222.83 391.932C222.662 391.612 222.442 391.372 222.17 391.212C221.906 391.044 221.634 390.96 221.354 390.96C220.81 390.96 220.378 391.16 220.058 391.56C219.746 391.952 219.59 392.456 219.59 393.072C219.59 393.664 219.75 394.16 220.07 394.56C220.39 394.96 220.818 395.16 221.354 395.16Z" fill="white" fill-opacity="0.2"/>
<path d="M181.621 173.592H177.468V153.338H181.621V154.556C181.797 154.433 181.982 154.314 182.173 154.206C183.387 153.622 184.716 153.318 186.062 153.318C187.407 153.318 188.736 153.622 189.951 154.206C191.073 154.78 192.035 155.627 192.75 156.671C193.322 155.636 194.168 154.783 195.193 154.206C196.407 153.622 197.735 153.319 199.08 153.319C200.425 153.319 201.753 153.622 202.967 154.206C204.469 154.97 205.688 156.203 206.44 157.721C207.308 159.498 207.735 161.46 207.686 163.44V173.592H203.553V163.455C203.619 162.075 203.324 160.701 202.698 159.472C201.962 158.157 200.761 157.499 199.097 157.499C197.433 157.499 196.239 158.14 195.516 159.422C194.898 160.641 194.602 161.999 194.656 163.366V173.592H190.503V163.455C190.565 162.077 190.276 160.705 189.663 159.472C188.925 158.165 187.708 157.499 186.062 157.499C184.415 157.499 183.238 158.135 182.5 159.398C181.872 160.599 181.569 161.945 181.621 163.302V173.592Z" fill="white"/>
<path d="M223.453 153.319C226.306 153.319 228.586 154.241 230.293 156.085C232 157.928 232.852 160.394 232.848 163.48C232.848 166.566 231.997 169.023 230.293 170.851C228.59 172.678 226.31 173.6 223.453 173.617C220.603 173.617 218.323 172.695 216.613 170.851C214.903 169.007 214.049 166.55 214.053 163.48C214.053 160.4 214.906 157.935 216.613 156.085C218.32 154.234 220.6 153.312 223.453 153.319ZM223.453 169.401C225.407 169.401 226.826 168.755 227.708 167.464C228.43 166.258 228.779 164.862 228.71 163.455C228.779 162.05 228.43 160.656 227.708 159.452C226.839 158.157 225.42 157.509 223.453 157.509C221.486 157.509 220.067 158.157 219.197 159.452C218.491 160.661 218.151 162.053 218.22 163.455C218.152 164.859 218.491 166.252 219.197 167.464C220.07 168.755 221.489 169.401 223.453 169.401Z" fill="white"/>
<path d="M253.847 153.338H258V173.592H253.847V171.921C252.989 172.638 251.971 173.134 250.881 173.365L250.656 173.41C249.302 173.653 247.916 173.653 246.562 173.41L246.337 173.365C244.247 172.975 242.387 171.787 241.144 170.047C239.86 168.302 239.219 166.106 239.219 163.46C239.219 160.814 239.86 158.606 241.144 156.834C242.41 155.095 244.294 153.918 246.401 153.55L246.606 153.491C247.934 153.268 249.289 153.268 250.617 153.491L250.822 153.55C251.934 153.769 252.974 154.266 253.847 154.995V153.338ZM253.847 163.436C253.918 162.036 253.569 160.648 252.845 159.452C251.972 158.157 250.56 157.509 248.609 157.509C246.658 157.509 245.24 158.157 244.354 159.452C243.647 160.661 243.308 162.053 243.377 163.455C243.305 164.851 243.645 166.238 244.354 167.439C245.23 168.754 246.648 169.411 248.609 169.411C250.57 169.411 251.982 168.765 252.845 167.474C253.569 166.276 253.918 164.886 253.847 163.485V163.436Z" fill="white"/>
<path d="M158.604 161.71V159.94L158.506 148.778V148.433C158.506 148.373 158.506 148.309 158.506 148.255C158.437 146.493 157.933 144.777 157.04 143.261C156.199 141.831 155.04 140.618 153.654 139.718C152.269 138.818 150.695 138.255 149.057 138.074L148.735 138.044L148.407 138C148.183 138 147.953 138 147.723 138C147.494 138 147.293 138 147.078 138.025H147.039L146.741 138.049L146.438 138.089L146.179 138.128L145.916 138.173C145.769 138.197 145.627 138.227 145.481 138.261L144.992 138.38C144.222 138.582 143.478 138.873 142.774 139.247C142.73 139.272 142.681 139.292 142.637 139.321L137.346 142.437L131.84 139.267L131.703 139.198C130.355 138.49 128.872 138.081 127.355 138C127.149 138 126.944 138 126.749 138C126.636 138 126.519 138 126.407 138H126.065C123.35 138.169 120.8 139.372 118.931 141.367C117.062 143.362 116.015 145.998 116 148.743L116.093 160.29V162.06L116.2 173.222V173.567C116.2 173.627 116.2 173.686 116.2 173.745C116.269 175.505 116.773 177.22 117.666 178.734C118.506 180.163 119.662 181.375 121.045 182.276C122.428 183.177 123.999 183.742 125.635 183.926L125.947 183.956L126.289 183.98C126.514 183.98 126.744 183.98 126.973 183.98C127.203 183.98 127.403 183.98 127.618 183.98H127.657H127.955L128.258 183.946L128.517 183.906L128.781 183.862L129.216 183.773L129.705 183.655C130.474 183.452 131.219 183.161 131.923 182.787C131.967 182.787 132.016 182.743 132.06 182.713L137.351 179.607L142.872 182.733L143.009 182.802C144.359 183.501 145.841 183.903 147.357 183.98C147.562 183.98 147.767 183.98 147.968 183.98C148.085 183.98 148.202 183.98 148.314 183.98H148.656C151.364 183.806 153.905 182.602 155.768 180.613C157.631 178.623 158.678 175.994 158.697 173.257L158.604 161.71ZM144.337 141.944C144.435 141.895 144.533 141.846 144.635 141.806L144.806 141.727L145.105 141.604H145.163L145.422 141.515L145.681 141.436C145.768 141.407 145.856 141.383 145.945 141.362L146.248 141.293C146.423 141.246 146.601 141.21 146.78 141.185C146.942 141.185 147.098 141.146 147.269 141.136H147.508C149.49 141.041 151.429 141.738 152.905 143.075C154.382 144.412 155.278 146.282 155.399 148.28V148.536C155.399 148.664 155.399 148.783 155.399 148.906L155.433 153.215C155.36 153.141 155.286 153.067 155.208 152.998L154.925 152.742C154.832 152.653 154.729 152.569 154.632 152.49L154.383 152.298C154.207 152.165 154.026 152.032 153.845 151.913L153.537 151.716C153.464 151.667 153.386 151.623 153.308 151.578L153.215 151.524L152.897 151.346H152.858L140.453 144.207L144.337 141.944ZM119.093 148.719C119.106 146.729 119.887 144.823 121.27 143.404C122.653 141.986 124.528 141.167 126.5 141.121H126.988C127.061 141.116 127.135 141.116 127.208 141.121L127.589 141.146H127.667L127.892 141.175H128.034C128.056 141.172 128.079 141.172 128.102 141.175C128.824 141.316 129.52 141.565 130.169 141.915L134.243 144.252L121.731 151.588H121.702L121.374 151.805L121.286 151.859L121.057 151.997L120.754 152.199C120.573 152.323 120.392 152.456 120.216 152.594C120.041 152.732 119.992 152.766 119.884 152.86C119.777 152.954 119.65 153.057 119.537 153.166C119.425 153.274 119.254 153.437 119.122 153.575L119.093 148.719ZM119.205 161.991C119.203 161.966 119.203 161.942 119.205 161.917L119.171 161.666C119.154 161.337 119.154 161.008 119.171 160.68C119.171 160.606 119.171 160.537 119.171 160.463C119.171 160.389 119.171 160.379 119.171 160.339C119.171 160.182 119.21 160.029 119.234 159.846C119.259 159.664 119.293 159.536 119.327 159.383C119.361 159.23 119.405 159.067 119.449 158.89L119.523 158.663C119.523 158.584 119.571 158.51 119.601 158.436C119.63 158.362 119.679 158.234 119.723 158.131C119.767 158.027 119.821 157.899 119.874 157.785C119.928 157.672 119.948 157.638 119.987 157.564C120.026 157.49 120.06 157.421 120.104 157.347C120.148 157.273 120.104 157.347 120.104 157.347C120.104 157.307 120.148 157.273 120.172 157.233C120.246 157.105 120.324 156.982 120.407 156.854C120.49 156.725 120.549 156.647 120.622 156.548L120.661 156.494L120.935 156.153L120.964 156.119C121.071 155.996 121.184 155.868 121.296 155.754C121.757 155.284 122.276 154.877 122.84 154.541L123.329 154.27L129.46 150.671L137.365 146.027L145.124 150.464L151.295 154.004L151.783 154.28C152.328 154.6 152.831 154.986 153.283 155.429L153.332 155.473L153.581 155.744L153.669 155.848C153.767 155.956 153.86 156.07 153.948 156.188L153.987 156.237C154.055 156.326 154.119 156.415 154.177 156.504C154.212 156.553 154.246 156.597 154.275 156.647C154.368 156.785 154.451 156.928 154.534 157.071L154.656 157.287C154.69 157.361 154.729 157.44 154.769 157.509C154.808 157.578 154.876 157.736 154.925 157.85C154.974 157.963 155.008 158.052 155.047 158.155C155.163 158.454 155.258 158.76 155.33 159.072C155.365 159.23 155.399 159.383 155.428 159.565C155.457 159.748 155.477 159.876 155.497 160.029C155.497 160.029 155.497 160.078 155.497 160.103C155.497 160.127 155.497 160.28 155.497 160.369C155.518 160.697 155.518 161.027 155.497 161.355C155.497 161.424 155.497 161.498 155.497 161.572C155.497 161.646 155.497 161.656 155.497 161.695C155.497 161.853 155.457 162.006 155.433 162.164C155.409 162.321 155.374 162.474 155.34 162.627C155.306 162.78 155.262 162.943 155.218 163.095L155.145 163.322L155.067 163.549C155.028 163.653 154.988 163.751 154.944 163.855C154.9 163.958 154.847 164.081 154.793 164.195C154.739 164.308 154.72 164.343 154.681 164.422C154.642 164.501 154.607 164.565 154.563 164.634C154.519 164.703 154.563 164.634 154.563 164.634L154.495 164.747C154.422 164.875 154.344 164.999 154.26 165.122C154.177 165.245 154.119 165.334 154.045 165.432L154.006 165.482C153.918 165.6 153.826 165.713 153.733 165.827C153.724 165.841 153.712 165.852 153.699 165.861C153.596 165.985 153.484 166.108 153.371 166.221C152.92 166.683 152.41 167.084 151.857 167.414L151.368 167.695L145.236 171.295L137.331 175.964L129.573 171.526L123.397 167.991L122.908 167.715C122.363 167.395 121.859 167.007 121.409 166.561L121.36 166.517C121.277 166.428 121.189 166.34 121.111 166.251C121.032 166.162 121.052 166.182 121.023 166.147C120.925 166.039 120.832 165.925 120.744 165.807L120.705 165.758L120.51 165.492L120.417 165.349C120.324 165.206 120.241 165.068 120.158 164.925L120.036 164.708C119.997 164.629 119.962 164.555 119.923 164.486C119.884 164.417 119.816 164.259 119.767 164.141C119.718 164.022 119.684 163.943 119.645 163.84C119.529 163.54 119.434 163.232 119.361 162.918C119.327 162.765 119.288 162.612 119.264 162.454C119.239 162.297 119.225 162.159 119.205 161.991ZM130.374 180.066C130.276 180.115 130.174 180.164 130.076 180.204L129.905 180.283L129.602 180.406H129.548L129.289 180.495L129.03 180.573L128.767 180.647L128.464 180.716C128.281 180.758 128.097 180.789 127.912 180.81C127.75 180.81 127.594 180.85 127.423 180.859H127.184C125.203 180.953 123.267 180.256 121.791 178.92C120.316 177.584 119.42 175.717 119.298 173.72V173.464C119.298 173.336 119.298 173.217 119.298 173.094L119.264 168.785C119.335 168.859 119.41 168.93 119.488 168.997C119.581 169.086 119.674 169.174 119.772 169.258C119.87 169.342 119.962 169.426 120.065 169.51L120.324 169.712C120.5 169.845 120.681 169.973 120.861 170.096L121.169 170.294C121.242 170.343 121.321 170.387 121.399 170.432L121.487 170.486L121.809 170.659C121.822 170.661 121.835 170.661 121.848 170.659L134.243 177.793L130.374 180.066ZM151.871 179.824C150.757 180.491 149.492 180.859 148.197 180.894H147.709C147.634 180.899 147.559 180.899 147.484 180.894L147.108 180.864H147.03C146.951 180.864 146.878 180.864 146.805 180.835H146.663H146.595C145.868 180.715 145.163 180.486 144.504 180.154L140.429 177.763L152.961 170.407H152.995L153.313 170.225L153.401 170.175L153.63 170.032L153.933 169.835C154.114 169.712 154.295 169.579 154.471 169.441C154.646 169.303 154.695 169.263 154.803 169.174C154.91 169.086 155.037 168.977 155.15 168.864C155.262 168.75 155.428 168.598 155.565 168.46L155.604 173.296C155.59 174.617 155.238 175.913 154.583 177.056C153.927 178.2 152.99 179.153 151.862 179.824H151.871Z" fill="white"/>
<defs>
<filter id="filter0_d" x="33" y="465" width="311" height="57" filterUnits="userSpaceOnUse" color-interpolation-filters="sRGB">
<feFlood flood-opacity="0" result="BackgroundImageFix"/>
<feColorMatrix in="SourceAlpha" type="matrix" values="0 0 0 0 0 0 0 0 0 0 0 0 0 0 0 0 0 0 127 0"/>
<feOffset dy="4"/>
<feGaussianBlur stdDeviation="4"/>
<feColorMatrix type="matrix" values="0 0 0 0 0.886275 0 0 0 0 0.509804 0 0 0 0 0.529412 0 0 0 0.26 0"/>
<feBlend mode="normal" in2="BackgroundImageFix" result="effect1_dropShadow"/>
<feBlend mode="normal" in="SourceGraphic" in2="effect1_dropShadow" result="shape"/>
</filter>
<linearGradient id="paint0_linear" x1="300.713" y1="828.329" x2="349.713" y2="653.829" gradientUnits="userSpaceOnUse">
<stop stop-color="#926CB3"/>
<stop offset="1" stop-color="#E18B8B"/>
</linearGradient>
<linearGradient id="paint1_linear" x1="195" y1="12.5" x2="134" y2="208" gradientUnits="userSpaceOnUse">
<stop stop-color="#926CB3"/>
<stop offset="1" stop-color="#E18B8B"/>
</linearGradient>
<linearGradient id="paint2_linear" x1="188.5" y1="469" x2="188.5" y2="510" gradientUnits="userSpaceOnUse">
<stop stop-color="#926CB3"/>
<stop offset="1" stop-color="#E18B8B"/>
</linearGradient>
</defs>
</svg>
