<svg width="375" height="812" viewBox="0 0 375 812" fill="none" xmlns="http://www.w3.org/2000/svg">
<g clip-path="url(#clip0)">
<rect width="375" height="812" fill="#36393E"/>
<path opacity="0.35" d="M336.5 20.0002C336.5 18.8035 337.47 17.8335 338.667 17.8335H355.333C356.53 17.8335 357.5 18.8035 357.5 20.0002V26.0002C357.5 27.1968 356.53 28.1668 355.333 28.1668H338.667C337.47 28.1668 336.5 27.1968 336.5 26.0002V20.0002Z" stroke="white"/>
<path opacity="0.4" d="M359 21V25C359.805 24.6612 360.328 23.8731 360.328 23C360.328 22.1269 359.805 21.3388 359 21Z" fill="white"/>
<path d="M338 20.6668C338 19.9305 338.597 19.3335 339.333 19.3335H354.667C355.403 19.3335 356 19.9304 356 20.6668V25.3335C356 26.0699 355.403 26.6668 354.667 26.6668H339.333C338.597 26.6668 338 26.0699 338 25.3335V20.6668Z" fill="white"/>
<path d="M323.33 19.6079C325.546 19.608 327.677 20.4594 329.283 21.9862C329.404 22.1041 329.597 22.1026 329.716 21.9829L330.872 20.8162C330.933 20.7555 330.966 20.6733 330.966 20.5877C330.965 20.5021 330.931 20.4202 330.87 20.3602C326.655 16.3207 320.005 16.3207 315.79 20.3602C315.729 20.4202 315.694 20.502 315.693 20.5876C315.693 20.6732 315.726 20.7555 315.787 20.8162L316.943 21.9829C317.062 22.1028 317.255 22.1043 317.376 21.9862C318.982 20.4593 321.114 19.6079 323.33 19.6079Z" fill="white"/>
<path d="M323.331 23.4035C324.548 23.4034 325.722 23.8559 326.625 24.6731C326.747 24.7891 326.939 24.7866 327.058 24.6675L328.213 23.5008C328.274 23.4396 328.307 23.3566 328.306 23.2703C328.306 23.1841 328.27 23.1017 328.208 23.0418C325.46 20.4854 321.204 20.4854 318.456 23.0418C318.394 23.1017 318.358 23.1841 318.357 23.2704C318.357 23.3567 318.39 23.4397 318.451 23.5008L319.606 24.6675C319.725 24.7866 319.917 24.7891 320.039 24.6731C320.941 23.8565 322.114 23.404 323.331 23.4035Z" fill="white"/>
<path d="M325.55 26.188C325.612 26.1274 325.646 26.044 325.644 25.9575C325.642 25.871 325.605 25.7891 325.54 25.731C324.265 24.6522 322.397 24.6522 321.121 25.731C321.057 25.789 321.019 25.8709 321.018 25.9575C321.016 26.044 321.05 26.1274 321.111 26.188L323.109 28.2037C323.168 28.2629 323.248 28.2963 323.331 28.2963C323.414 28.2963 323.494 28.2629 323.552 28.2037L325.55 26.188Z" fill="white"/>
<path d="M294.666 24.333H295.666C296.218 24.333 296.666 24.7807 296.666 25.333V27.333C296.666 27.8853 296.218 28.333 295.666 28.333H294.666C294.114 28.333 293.666 27.8853 293.666 27.333V25.333C293.666 24.7807 294.114 24.333 294.666 24.333Z" fill="white"/>
<path d="M299.332 22.333H300.332C300.884 22.333 301.332 22.7807 301.332 23.333V27.333C301.332 27.8853 300.884 28.333 300.332 28.333H299.332C298.78 28.333 298.332 27.8853 298.332 27.333V23.333C298.332 22.7807 298.78 22.333 299.332 22.333Z" fill="white"/>
<path d="M304 20H305C305.552 20 306 20.4477 306 21V27.3333C306 27.8856 305.552 28.3333 305 28.3333H304C303.448 28.3333 303 27.8856 303 27.3333V21C303 20.4477 303.448 20 304 20Z" fill="white"/>
<path d="M308.666 17.6665H309.666C310.218 17.6665 310.666 18.1142 310.666 18.6665V27.3332C310.666 27.8855 310.218 28.3332 309.666 28.3332H308.666C308.114 28.3332 307.666 27.8855 307.666 27.3332V18.6665C307.666 18.1142 308.114 17.6665 308.666 17.6665V17.6665Z" fill="white"/>
<path d="M39.5278 17.29C40.2478 17.29 40.8828 17.455 41.4328 17.785C41.9828 18.105 42.4078 18.56 42.7078 19.15C43.0078 19.74 43.1578 20.425 43.1578 21.205C43.1578 22.225 42.9228 23.19 42.4528 24.1C41.9928 25 41.4078 25.78 40.6978 26.44C39.9878 27.1 39.2578 27.62 38.5078 28L37.1728 26.95C37.8628 26.61 38.5828 26.12 39.3328 25.48C40.0928 24.84 40.6578 24.12 41.0278 23.32C40.5278 23.65 39.9028 23.815 39.1528 23.815C38.5728 23.815 38.0478 23.68 37.5778 23.41C37.1078 23.14 36.7378 22.765 36.4678 22.285C36.2078 21.805 36.0778 21.26 36.0778 20.65C36.0778 19.99 36.2178 19.405 36.4978 18.895C36.7778 18.385 37.1778 17.99 37.6978 17.71C38.2178 17.43 38.8278 17.29 39.5278 17.29ZM39.4978 22.165C39.9778 22.165 40.3728 22.015 40.6828 21.715C40.9928 21.415 41.1478 21.035 41.1478 20.575C41.1478 20.115 40.9928 19.73 40.6828 19.42C40.3728 19.1 39.9778 18.94 39.4978 18.94C39.0278 18.94 38.6328 19.1 38.3128 19.42C38.0028 19.73 37.8478 20.115 37.8478 20.575C37.8478 21.035 38.0028 21.415 38.3128 21.715C38.6328 22.015 39.0278 22.165 39.4978 22.165ZM44.1707 20.5H46.1207V22.54H44.1707V20.5ZM44.1707 25.96H46.1207V28H44.1707V25.96ZM55.0409 24.04V25.6H53.6909V28H51.8459V25.6H46.6109L52.3859 17.5H53.6909V24.04H55.0409ZM51.8459 24.04V20.815L49.5809 24.04H51.8459ZM57.5651 20.215C57.1451 20.495 56.7051 20.675 56.2451 20.755L56.0801 19.135C56.4101 19.065 56.7801 18.865 57.1901 18.535C57.6001 18.195 57.8751 17.85 58.0151 17.5H59.4851V28H57.5651V20.215Z" fill="white"/>
<path d="M163.894 74L162.814 65.558L159.592 71.354L156.352 65.576L155.272 74H152.878L154.624 61.4H156.514L159.592 67.142L162.652 61.4H164.542L166.288 74H163.894ZM173.134 74.18C172.09 74.18 171.196 73.97 170.452 73.55C169.72 73.118 169.168 72.548 168.796 71.84C168.436 71.12 168.256 70.322 168.256 69.446C168.256 68.606 168.43 67.838 168.778 67.142C169.126 66.446 169.63 65.894 170.29 65.486C170.95 65.066 171.736 64.856 172.648 64.856C173.488 64.856 174.196 65.03 174.772 65.378C175.36 65.726 175.798 66.194 176.086 66.782C176.386 67.37 176.536 68.03 176.536 68.762C176.536 69.122 176.488 69.53 176.392 69.986H170.578C170.698 70.778 171.01 71.372 171.514 71.768C172.018 72.152 172.624 72.344 173.332 72.344C174.304 72.344 175.204 72.098 176.032 71.606L176.14 73.496C175.756 73.7 175.306 73.868 174.79 74C174.286 74.12 173.734 74.18 173.134 74.18ZM174.268 68.474C174.268 68.006 174.136 67.592 173.872 67.232C173.608 66.872 173.2 66.692 172.648 66.692C172.096 66.692 171.652 66.854 171.316 67.178C170.98 67.502 170.752 67.934 170.632 68.474H174.268ZM181.515 74.18C180.939 74.18 180.411 74.126 179.931 74.018C179.463 73.91 178.977 73.742 178.473 73.514L178.671 71.606C179.175 71.906 179.643 72.134 180.075 72.29C180.519 72.434 180.975 72.506 181.443 72.506C182.355 72.506 182.811 72.206 182.811 71.606C182.811 71.282 182.691 71.036 182.451 70.868C182.211 70.688 181.779 70.478 181.155 70.238C180.267 69.914 179.613 69.548 179.193 69.14C178.773 68.72 178.563 68.156 178.563 67.448C178.563 66.668 178.863 66.038 179.463 65.558C180.063 65.066 180.873 64.82 181.893 64.82C182.913 64.82 183.843 65.054 184.683 65.522L184.485 67.43C184.029 67.118 183.597 66.878 183.189 66.71C182.793 66.542 182.373 66.458 181.929 66.458C181.545 66.458 181.245 66.536 181.029 66.692C180.825 66.848 180.723 67.07 180.723 67.358C180.723 67.586 180.783 67.772 180.903 67.916C181.035 68.06 181.215 68.192 181.443 68.312C181.671 68.42 182.049 68.576 182.577 68.78C183.453 69.116 184.083 69.488 184.467 69.896C184.851 70.292 185.043 70.826 185.043 71.498C185.043 72.35 184.737 73.01 184.125 73.478C183.513 73.946 182.643 74.18 181.515 74.18ZM190.027 74.18C189.451 74.18 188.923 74.126 188.443 74.018C187.975 73.91 187.489 73.742 186.985 73.514L187.183 71.606C187.687 71.906 188.155 72.134 188.587 72.29C189.031 72.434 189.487 72.506 189.955 72.506C190.867 72.506 191.323 72.206 191.323 71.606C191.323 71.282 191.203 71.036 190.963 70.868C190.723 70.688 190.291 70.478 189.667 70.238C188.779 69.914 188.125 69.548 187.705 69.14C187.285 68.72 187.075 68.156 187.075 67.448C187.075 66.668 187.375 66.038 187.975 65.558C188.575 65.066 189.385 64.82 190.405 64.82C191.425 64.82 192.355 65.054 193.195 65.522L192.997 67.43C192.541 67.118 192.109 66.878 191.701 66.71C191.305 66.542 190.885 66.458 190.441 66.458C190.057 66.458 189.757 66.536 189.541 66.692C189.337 66.848 189.235 67.07 189.235 67.358C189.235 67.586 189.295 67.772 189.415 67.916C189.547 68.06 189.727 68.192 189.955 68.312C190.183 68.42 190.561 68.576 191.089 68.78C191.965 69.116 192.595 69.488 192.979 69.896C193.363 70.292 193.555 70.826 193.555 71.498C193.555 72.35 193.249 73.01 192.637 73.478C192.025 73.946 191.155 74.18 190.027 74.18ZM197.926 74.18C197.182 74.18 196.558 73.94 196.054 73.46C195.562 72.968 195.316 72.308 195.316 71.48C195.316 70.7 195.598 70.076 196.162 69.608C196.726 69.128 197.392 68.792 198.16 68.6C198.928 68.396 199.666 68.282 200.374 68.258C200.35 67.73 200.212 67.352 199.96 67.124C199.72 66.896 199.318 66.782 198.754 66.782C198.358 66.782 197.968 66.836 197.584 66.944C197.212 67.052 196.78 67.226 196.288 67.466L196.09 65.648C197.182 65.12 198.274 64.856 199.366 64.856C200.422 64.856 201.226 65.144 201.778 65.72C202.342 66.296 202.624 67.214 202.624 68.474V70.904C202.624 71.36 202.642 71.69 202.678 71.894C202.726 72.086 202.798 72.212 202.894 72.272C203.002 72.32 203.176 72.344 203.416 72.344H203.704L203.506 74.18H202.696C202.204 74.18 201.79 74.09 201.454 73.91C201.118 73.718 200.86 73.46 200.68 73.136C200.392 73.46 199.996 73.718 199.492 73.91C199 74.09 198.478 74.18 197.926 74.18ZM198.862 72.47C199.09 72.47 199.348 72.416 199.636 72.308C199.924 72.188 200.176 72.026 200.392 71.822V69.77C199.672 69.806 199.036 69.962 198.484 70.238C197.932 70.514 197.656 70.898 197.656 71.39C197.656 71.762 197.752 72.038 197.944 72.218C198.136 72.386 198.442 72.47 198.862 72.47ZM209.411 78.536C208.139 78.536 207.125 78.302 206.369 77.834C205.613 77.378 205.235 76.754 205.235 75.962C205.235 75.098 205.721 74.39 206.693 73.838C206.165 73.514 205.901 73.088 205.901 72.56C205.901 72.284 205.979 72.038 206.135 71.822C206.303 71.606 206.525 71.432 206.801 71.3C206.345 70.976 205.997 70.562 205.757 70.058C205.529 69.554 205.415 69.002 205.415 68.402C205.415 67.742 205.559 67.142 205.847 66.602C206.135 66.05 206.555 65.618 207.107 65.306C207.659 64.982 208.313 64.82 209.069 64.82C209.861 64.82 210.545 65.012 211.121 65.396C211.325 65.288 211.595 65.198 211.931 65.126C212.279 65.042 212.651 65 213.047 65H213.623L213.479 66.404H212.669C212.465 66.404 212.297 66.41 212.165 66.422C212.525 66.974 212.705 67.634 212.705 68.402C212.705 69.062 212.561 69.668 212.273 70.22C211.997 70.76 211.583 71.192 211.031 71.516C210.479 71.828 209.825 71.984 209.069 71.984C208.793 71.984 208.475 71.942 208.115 71.858C207.983 71.918 207.917 72.014 207.917 72.146C207.917 72.302 208.007 72.428 208.187 72.524C208.379 72.608 208.697 72.68 209.141 72.74L210.689 72.938C212.753 73.214 213.785 74.084 213.785 75.548C213.785 76.46 213.395 77.186 212.615 77.726C211.847 78.266 210.779 78.536 209.411 78.536ZM209.069 70.328C209.585 70.328 209.981 70.16 210.257 69.824C210.545 69.476 210.689 69.002 210.689 68.402C210.689 67.802 210.545 67.334 210.257 66.998C209.981 66.65 209.585 66.476 209.069 66.476C208.541 66.476 208.133 66.65 207.845 66.998C207.569 67.334 207.431 67.802 207.431 68.402C207.431 69.002 207.569 69.476 207.845 69.824C208.133 70.16 208.541 70.328 209.069 70.328ZM209.501 76.844C211.037 76.844 211.805 76.466 211.805 75.71C211.805 75.374 211.673 75.122 211.409 74.954C211.145 74.798 210.707 74.672 210.095 74.576L208.115 74.288C207.431 74.564 207.089 74.984 207.089 75.548C207.089 75.98 207.299 76.304 207.719 76.52C208.139 76.736 208.733 76.844 209.501 76.844ZM220.032 74.18C218.988 74.18 218.094 73.97 217.35 73.55C216.618 73.118 216.066 72.548 215.694 71.84C215.334 71.12 215.154 70.322 215.154 69.446C215.154 68.606 215.328 67.838 215.676 67.142C216.024 66.446 216.528 65.894 217.188 65.486C217.848 65.066 218.634 64.856 219.546 64.856C220.386 64.856 221.094 65.03 221.67 65.378C222.258 65.726 222.696 66.194 222.984 66.782C223.284 67.37 223.434 68.03 223.434 68.762C223.434 69.122 223.386 69.53 223.29 69.986H217.476C217.596 70.778 217.908 71.372 218.412 71.768C218.916 72.152 219.522 72.344 220.23 72.344C221.202 72.344 222.102 72.098 222.93 71.606L223.038 73.496C222.654 73.7 222.204 73.868 221.688 74C221.184 74.12 220.632 74.18 220.032 74.18ZM221.166 68.474C221.166 68.006 221.034 67.592 220.77 67.232C220.506 66.872 220.098 66.692 219.546 66.692C218.994 66.692 218.55 66.854 218.214 67.178C217.878 67.502 217.65 67.934 217.53 68.474H221.166Z" fill="white"/>
<rect x="29" y="709" width="297" height="10" fill="#36393E"/>
<g filter="url(#filter0_d)">
<rect y="719" width="375" height="93" fill="#474A4F"/>
</g>
<path d="M27 734.375C27 733.069 28.125 732 29.5 732H48.25C48.9403 732 49.5 732.532 49.5 733.188V734.375H29.5V735.563H50.75C51.4403 735.563 52 736.094 52 736.75V748.625C52 749.937 50.8806 751 49.5 751H29.5C28.1194 751 27 749.937 27 748.625V734.375ZM47.625 745.063C48.6606 745.063 49.5 744.265 49.5 743.281C49.5 742.297 48.6606 741.5 47.625 741.5C46.5894 741.5 45.75 742.297 45.75 743.281C45.75 744.265 46.5894 745.063 47.625 745.063Z" fill="#AAAAAA"/>
<path d="M28.08 760.4H29.144L30.264 764.376L31.512 760.4H32.224L33.52 764.272L34.592 760.4H35.656L34.016 766H33.112L31.864 762.264L30.624 766H29.656L28.08 760.4ZM36.7421 766.08C36.4114 766.08 36.1341 765.973 35.9101 765.76C35.6914 765.541 35.5821 765.248 35.5821 764.88C35.5821 764.533 35.7074 764.256 35.9581 764.048C36.2087 763.835 36.5047 763.685 36.8461 763.6C37.1874 763.509 37.5154 763.459 37.8301 763.448C37.8194 763.213 37.7581 763.045 37.6461 762.944C37.5394 762.843 37.3607 762.792 37.1101 762.792C36.9341 762.792 36.7607 762.816 36.5901 762.864C36.4247 762.912 36.2327 762.989 36.0141 763.096L35.9261 762.288C36.4114 762.053 36.8967 761.936 37.3821 761.936C37.8514 761.936 38.2087 762.064 38.4541 762.32C38.7047 762.576 38.8301 762.984 38.8301 763.544V764.624C38.8301 764.827 38.8381 764.973 38.8541 765.064C38.8754 765.149 38.9074 765.205 38.9501 765.232C38.9981 765.253 39.0754 765.264 39.1821 765.264H39.3101L39.2221 766.08H38.8621C38.6434 766.08 38.4594 766.04 38.3101 765.96C38.1607 765.875 38.0461 765.76 37.9661 765.616C37.8381 765.76 37.6621 765.875 37.4381 765.96C37.2194 766.04 36.9874 766.08 36.7421 766.08ZM37.1581 765.32C37.2594 765.32 37.3741 765.296 37.5021 765.248C37.6301 765.195 37.7421 765.123 37.8381 765.032V764.12C37.5181 764.136 37.2354 764.205 36.9901 764.328C36.7447 764.451 36.6221 764.621 36.6221 764.84C36.6221 765.005 36.6647 765.128 36.7501 765.208C36.8354 765.283 36.9714 765.32 37.1581 765.32ZM40.8864 766.08C40.5451 766.08 40.2891 765.984 40.1184 765.792C39.9478 765.595 39.8624 765.341 39.8624 765.032V760H40.8544V764.624C40.8544 764.837 40.8651 764.989 40.8864 765.08C40.9131 765.165 40.9558 765.219 41.0144 765.24C41.0784 765.256 41.1851 765.264 41.3344 765.264L41.2464 766.08H40.8864ZM42.988 766.08C42.6467 766.08 42.3907 765.984 42.22 765.792C42.0493 765.595 41.964 765.341 41.964 765.032V760H42.956V764.624C42.956 764.837 42.9667 764.989 42.988 765.08C43.0147 765.165 43.0573 765.219 43.116 765.24C43.18 765.256 43.2867 765.264 43.436 765.264L43.348 766.08H42.988ZM45.9545 766.08C45.4905 766.08 45.0932 765.987 44.7625 765.8C44.4372 765.608 44.1918 765.355 44.0265 765.04C43.8665 764.72 43.7865 764.365 43.7865 763.976C43.7865 763.603 43.8638 763.261 44.0185 762.952C44.1732 762.643 44.3972 762.397 44.6905 762.216C44.9838 762.029 45.3332 761.936 45.7385 761.936C46.1118 761.936 46.4265 762.013 46.6825 762.168C46.9438 762.323 47.1385 762.531 47.2665 762.792C47.3998 763.053 47.4665 763.347 47.4665 763.672C47.4665 763.832 47.4452 764.013 47.4025 764.216H44.8185C44.8718 764.568 45.0105 764.832 45.2345 765.008C45.4585 765.179 45.7278 765.264 46.0425 765.264C46.4745 765.264 46.8745 765.155 47.2425 764.936L47.2905 765.776C47.1198 765.867 46.9198 765.941 46.6905 766C46.4665 766.053 46.2212 766.08 45.9545 766.08ZM46.4585 763.544C46.4585 763.336 46.3998 763.152 46.2825 762.992C46.1652 762.832 45.9838 762.752 45.7385 762.752C45.4932 762.752 45.2958 762.824 45.1465 762.968C44.9972 763.112 44.8958 763.304 44.8425 763.544H46.4585ZM49.4477 766.08C49.0957 766.08 48.829 765.979 48.6477 765.776C48.4664 765.568 48.3757 765.32 48.3757 765.032V762.816H47.8077L47.8957 762H48.3757V761.12L49.3677 761.016V762H50.2477V762.816H49.3677V764.624C49.3677 764.837 49.3784 764.987 49.3997 765.072C49.4264 765.152 49.477 765.205 49.5517 765.232C49.6317 765.253 49.773 765.264 49.9757 765.264H50.2477L50.1597 766.08H49.4477Z" fill="#AAAAAA"/>
<path d="M329 749H352V746.5H329V749ZM329 742.75H352V740.25H329V742.75ZM329 734V736.5H352V734H329Z" fill="#A6A6A6"/>
<path d="M335.248 766L334.768 762.248L333.336 764.824L331.896 762.256L331.416 766H330.352L331.128 760.4H331.968L333.336 762.952L334.696 760.4H335.536L336.312 766H335.248ZM338.955 766.08C338.491 766.08 338.093 765.987 337.763 765.8C337.437 765.608 337.192 765.355 337.027 765.04C336.867 764.72 336.787 764.365 336.787 763.976C336.787 763.603 336.864 763.261 337.019 762.952C337.173 762.643 337.397 762.397 337.691 762.216C337.984 762.029 338.333 761.936 338.739 761.936C339.112 761.936 339.427 762.013 339.683 762.168C339.944 762.323 340.139 762.531 340.267 762.792C340.4 763.053 340.467 763.347 340.467 763.672C340.467 763.832 340.445 764.013 340.403 764.216H337.819C337.872 764.568 338.011 764.832 338.235 765.008C338.459 765.179 338.728 765.264 339.043 765.264C339.475 765.264 339.875 765.155 340.243 764.936L340.291 765.776C340.12 765.867 339.92 765.941 339.691 766C339.467 766.053 339.221 766.08 338.955 766.08ZM339.459 763.544C339.459 763.336 339.4 763.152 339.283 762.992C339.165 762.832 338.984 762.752 338.739 762.752C338.493 762.752 338.296 762.824 338.147 762.968C337.997 763.112 337.896 763.304 337.843 763.544H339.459ZM343.16 761.936C343.656 761.936 344.032 762.101 344.288 762.432C344.544 762.763 344.672 763.208 344.672 763.768V766H343.68V763.848C343.68 763.475 343.616 763.2 343.488 763.024C343.365 762.843 343.165 762.752 342.888 762.752C342.584 762.752 342.333 762.867 342.136 763.096V766H341.144V762H342.072L342.088 762.28C342.424 762.051 342.781 761.936 343.16 761.936ZM349.015 762V766H348.087L348.071 765.76C347.948 765.851 347.807 765.928 347.647 765.992C347.487 766.051 347.332 766.08 347.183 766.08C346.591 766.08 346.159 765.909 345.887 765.568C345.62 765.227 345.487 764.755 345.487 764.152V762H346.479V764.152C346.479 764.525 346.54 764.803 346.663 764.984C346.791 765.16 346.993 765.248 347.271 765.248C347.58 765.248 347.831 765.136 348.023 764.912V762H349.015Z" fill="#AAAAAA"/>
<path d="M245.52 764.672H243.48L243.016 766H242.024L244.016 760.4H244.984L246.976 766H245.984L245.52 764.672ZM245.2 763.776L244.504 761.776L243.8 763.776H245.2ZM251.018 760V766H250.082L250.066 765.744C249.912 765.856 249.749 765.941 249.578 766C249.413 766.053 249.216 766.08 248.986 766.08C248.597 766.08 248.261 765.987 247.978 765.8C247.701 765.613 247.49 765.363 247.346 765.048C247.202 764.733 247.13 764.387 247.13 764.008C247.13 763.629 247.202 763.283 247.346 762.968C247.49 762.653 247.701 762.403 247.978 762.216C248.261 762.029 248.597 761.936 248.986 761.936C249.376 761.936 249.722 762.043 250.026 762.256V760H251.018ZM249.13 765.264C249.445 765.264 249.68 765.152 249.834 764.928C249.994 764.704 250.074 764.397 250.074 764.008C250.074 763.619 249.994 763.312 249.834 763.088C249.68 762.864 249.445 762.752 249.13 762.752C248.821 762.752 248.578 762.867 248.402 763.096C248.232 763.325 248.146 763.629 248.146 764.008C248.146 764.387 248.232 764.691 248.402 764.92C248.578 765.149 248.821 765.264 249.13 765.264ZM255.589 760V766H254.653L254.637 765.744C254.482 765.856 254.319 765.941 254.149 766C253.983 766.053 253.786 766.08 253.557 766.08C253.167 766.08 252.831 765.987 252.549 765.8C252.271 765.613 252.061 765.363 251.917 765.048C251.773 764.733 251.701 764.387 251.701 764.008C251.701 763.629 251.773 763.283 251.917 762.968C252.061 762.653 252.271 762.403 252.549 762.216C252.831 762.029 253.167 761.936 253.557 761.936C253.946 761.936 254.293 762.043 254.597 762.256V760H255.589ZM253.701 765.264C254.015 765.264 254.25 765.152 254.405 764.928C254.565 764.704 254.645 764.397 254.645 764.008C254.645 763.619 254.565 763.312 254.405 763.088C254.25 762.864 254.015 762.752 253.701 762.752C253.391 762.752 253.149 762.867 252.973 763.096C252.802 763.325 252.717 763.629 252.717 764.008C252.717 764.387 252.802 764.691 252.973 764.92C253.149 765.149 253.391 765.264 253.701 765.264ZM256.511 762H257.439L257.463 762.424C257.58 762.291 257.73 762.173 257.911 762.072C258.098 761.971 258.292 761.92 258.495 761.92C258.559 761.92 258.618 761.925 258.671 761.936L258.599 762.912C258.498 762.885 258.383 762.872 258.255 762.872C258.09 762.872 257.938 762.912 257.799 762.992C257.66 763.067 257.562 763.16 257.503 763.272V766H256.511V762ZM261.009 766.08C260.545 766.08 260.148 765.987 259.817 765.8C259.492 765.608 259.247 765.355 259.081 765.04C258.921 764.72 258.841 764.365 258.841 763.976C258.841 763.603 258.919 763.261 259.073 762.952C259.228 762.643 259.452 762.397 259.745 762.216C260.039 762.029 260.388 761.936 260.793 761.936C261.167 761.936 261.481 762.013 261.737 762.168C261.999 762.323 262.193 762.531 262.321 762.792C262.455 763.053 262.521 763.347 262.521 763.672C262.521 763.832 262.5 764.013 262.457 764.216H259.873C259.927 764.568 260.065 764.832 260.289 765.008C260.513 765.179 260.783 765.264 261.097 765.264C261.529 765.264 261.929 765.155 262.297 764.936L262.345 765.776C262.175 765.867 261.975 765.941 261.745 766C261.521 766.053 261.276 766.08 261.009 766.08ZM261.513 763.544C261.513 763.336 261.455 763.152 261.337 762.992C261.22 762.832 261.039 762.752 260.793 762.752C260.548 762.752 260.351 762.824 260.201 762.968C260.052 763.112 259.951 763.304 259.897 763.544H261.513ZM264.334 766.08C264.078 766.08 263.844 766.056 263.63 766.008C263.422 765.96 263.206 765.885 262.982 765.784L263.07 764.936C263.294 765.069 263.502 765.171 263.694 765.24C263.892 765.304 264.094 765.336 264.302 765.336C264.708 765.336 264.91 765.203 264.91 764.936C264.91 764.792 264.857 764.683 264.75 764.608C264.644 764.528 264.452 764.435 264.174 764.328C263.78 764.184 263.489 764.021 263.302 763.84C263.116 763.653 263.022 763.403 263.022 763.088C263.022 762.741 263.156 762.461 263.422 762.248C263.689 762.029 264.049 761.92 264.502 761.92C264.956 761.92 265.369 762.024 265.742 762.232L265.654 763.08C265.452 762.941 265.26 762.835 265.078 762.76C264.902 762.685 264.716 762.648 264.518 762.648C264.348 762.648 264.214 762.683 264.118 762.752C264.028 762.821 263.982 762.92 263.982 763.048C263.982 763.149 264.009 763.232 264.062 763.296C264.121 763.36 264.201 763.419 264.302 763.472C264.404 763.52 264.572 763.589 264.806 763.68C265.196 763.829 265.476 763.995 265.646 764.176C265.817 764.352 265.902 764.589 265.902 764.888C265.902 765.267 265.766 765.56 265.494 765.768C265.222 765.976 264.836 766.08 264.334 766.08ZM267.717 766.08C267.461 766.08 267.227 766.056 267.013 766.008C266.805 765.96 266.589 765.885 266.365 765.784L266.453 764.936C266.677 765.069 266.885 765.171 267.077 765.24C267.275 765.304 267.477 765.336 267.685 765.336C268.091 765.336 268.293 765.203 268.293 764.936C268.293 764.792 268.24 764.683 268.133 764.608C268.027 764.528 267.835 764.435 267.557 764.328C267.163 764.184 266.872 764.021 266.685 763.84C266.499 763.653 266.405 763.403 266.405 763.088C266.405 762.741 266.539 762.461 266.805 762.248C267.072 762.029 267.432 761.92 267.885 761.92C268.339 761.92 268.752 762.024 269.125 762.232L269.037 763.08C268.835 762.941 268.643 762.835 268.461 762.76C268.285 762.685 268.099 762.648 267.901 762.648C267.731 762.648 267.597 762.683 267.501 762.752C267.411 762.821 267.365 762.92 267.365 763.048C267.365 763.149 267.392 763.232 267.445 763.296C267.504 763.36 267.584 763.419 267.685 763.472C267.787 763.52 267.955 763.589 268.189 763.68C268.579 763.829 268.859 763.995 269.029 764.176C269.2 764.352 269.285 764.589 269.285 764.888C269.285 765.267 269.149 765.56 268.877 765.768C268.605 765.976 268.219 766.08 267.717 766.08ZM275.009 762.936C275.718 763.165 276.073 763.656 276.073 764.408C276.073 764.909 275.91 765.301 275.585 765.584C275.26 765.861 274.814 766 274.249 766H271.913V760.4H274.025C275.092 760.4 275.625 760.851 275.625 761.752C275.625 762.307 275.42 762.701 275.009 762.936ZM272.937 762.6H273.873C274.124 762.6 274.31 762.549 274.433 762.448C274.556 762.341 274.617 762.179 274.617 761.96C274.617 761.731 274.556 761.565 274.433 761.464C274.31 761.363 274.124 761.312 273.873 761.312H272.937V762.6ZM274.097 765.088C274.396 765.088 274.622 765.029 274.777 764.912C274.937 764.789 275.017 764.584 275.017 764.296C275.017 764.013 274.934 763.813 274.769 763.696C274.609 763.573 274.385 763.512 274.097 763.512H272.937V765.088H274.097ZM278.585 766.08C278.163 766.08 277.798 765.987 277.489 765.8C277.179 765.613 276.942 765.363 276.777 765.048C276.611 764.733 276.529 764.387 276.529 764.008C276.529 763.629 276.611 763.28 276.777 762.96C276.942 762.64 277.179 762.387 277.489 762.2C277.798 762.013 278.163 761.92 278.585 761.92C279.006 761.92 279.371 762.013 279.681 762.2C279.99 762.387 280.227 762.64 280.393 762.96C280.558 763.28 280.641 763.629 280.641 764.008C280.641 764.387 280.558 764.733 280.393 765.048C280.227 765.363 279.99 765.613 279.681 765.8C279.371 765.987 279.006 766.08 278.585 766.08ZM278.585 765.264C278.91 765.264 279.163 765.149 279.345 764.92C279.531 764.691 279.625 764.387 279.625 764.008C279.625 763.624 279.531 763.317 279.345 763.088C279.163 762.853 278.91 762.736 278.585 762.736C278.259 762.736 278.003 762.853 277.817 763.088C277.635 763.317 277.545 763.624 277.545 764.008C277.545 764.387 277.635 764.691 277.817 764.92C278.003 765.149 278.259 765.264 278.585 765.264ZM283.147 766.08C282.726 766.08 282.361 765.987 282.051 765.8C281.742 765.613 281.505 765.363 281.339 765.048C281.174 764.733 281.091 764.387 281.091 764.008C281.091 763.629 281.174 763.28 281.339 762.96C281.505 762.64 281.742 762.387 282.051 762.2C282.361 762.013 282.726 761.92 283.147 761.92C283.569 761.92 283.934 762.013 284.243 762.2C284.553 762.387 284.79 762.64 284.955 762.96C285.121 763.28 285.203 763.629 285.203 764.008C285.203 764.387 285.121 764.733 284.955 765.048C284.79 765.363 284.553 765.613 284.243 765.8C283.934 765.987 283.569 766.08 283.147 766.08ZM283.147 765.264C283.473 765.264 283.726 765.149 283.907 764.92C284.094 764.691 284.187 764.387 284.187 764.008C284.187 763.624 284.094 763.317 283.907 763.088C283.726 762.853 283.473 762.736 283.147 762.736C282.822 762.736 282.566 762.853 282.379 763.088C282.198 763.317 282.107 763.624 282.107 764.008C282.107 764.387 282.198 764.691 282.379 764.92C282.566 765.149 282.822 765.264 283.147 765.264ZM285.886 760H286.878V763.64L288.118 762H289.238L287.782 763.92L289.27 766H288.15L286.878 764.224V766H285.886V760Z" fill="#AAAAAA"/>
<path d="M257.2 735.4H255V750.8C255 752.01 255.99 753 257.2 753H272.6V750.8H257.2V735.4ZM274.8 731H261.6C260.39 731 259.4 731.99 259.4 733.2V746.4C259.4 747.61 260.39 748.6 261.6 748.6H274.8C276.01 748.6 277 747.61 277 746.4V733.2C277 731.99 276.01 731 274.8 731ZM273.7 740.9H262.7V738.7H273.7V740.9ZM269.3 745.3H262.7V743.1H269.3V745.3ZM273.7 736.5H262.7V734.3H273.7V736.5Z" fill="#AAAAAA"/>
<path d="M97.24 766.112C96.9253 766.112 96.5867 766.069 96.224 765.984C95.8667 765.899 95.5867 765.805 95.384 765.704L95.504 764.616C96.208 764.957 96.8267 765.128 97.36 765.128C97.6427 765.128 97.864 765.075 98.024 764.968C98.184 764.856 98.264 764.693 98.264 764.48C98.264 764.32 98.2187 764.189 98.128 764.088C98.0427 763.981 97.9173 763.893 97.752 763.824C97.5867 763.749 97.3227 763.648 96.96 763.52C96.6187 763.403 96.336 763.28 96.112 763.152C95.888 763.019 95.7093 762.851 95.576 762.648C95.448 762.44 95.384 762.187 95.384 761.888C95.384 761.408 95.56 761.021 95.912 760.728C96.264 760.435 96.768 760.288 97.424 760.288C97.7333 760.288 98.04 760.323 98.344 760.392C98.6533 760.461 98.936 760.547 99.192 760.648L99.088 761.696C98.7573 761.552 98.4533 761.445 98.176 761.376C97.904 761.301 97.632 761.264 97.36 761.264C97.056 761.264 96.824 761.315 96.664 761.416C96.504 761.517 96.424 761.664 96.424 761.856C96.424 762.005 96.4667 762.128 96.552 762.224C96.6373 762.32 96.752 762.4 96.896 762.464C97.0453 762.528 97.264 762.605 97.552 762.696C98.1973 762.899 98.6667 763.133 98.96 763.4C99.2587 763.661 99.408 764.021 99.408 764.48C99.408 764.917 99.256 765.299 98.952 765.624C98.648 765.949 98.0773 766.112 97.24 766.112ZM99.6503 762H100.618L101.306 764.792L102.058 762.08H102.89L103.634 764.792L104.33 762H105.298L104.13 766H103.298L102.474 763.392L101.65 766H100.818L99.6503 762ZM106.672 766.08C106.341 766.08 106.064 765.973 105.84 765.76C105.621 765.541 105.512 765.248 105.512 764.88C105.512 764.533 105.637 764.256 105.888 764.048C106.138 763.835 106.434 763.685 106.776 763.6C107.117 763.509 107.445 763.459 107.76 763.448C107.749 763.213 107.688 763.045 107.576 762.944C107.469 762.843 107.29 762.792 107.04 762.792C106.864 762.792 106.69 762.816 106.52 762.864C106.354 762.912 106.162 762.989 105.944 763.096L105.856 762.288C106.341 762.053 106.826 761.936 107.312 761.936C107.781 761.936 108.138 762.064 108.384 762.32C108.634 762.576 108.76 762.984 108.76 763.544V764.624C108.76 764.827 108.768 764.973 108.784 765.064C108.805 765.149 108.837 765.205 108.88 765.232C108.928 765.253 109.005 765.264 109.112 765.264H109.24L109.152 766.08H108.792C108.573 766.08 108.389 766.04 108.24 765.96C108.09 765.875 107.976 765.76 107.896 765.616C107.768 765.76 107.592 765.875 107.368 765.96C107.149 766.04 106.917 766.08 106.672 766.08ZM107.088 765.32C107.189 765.32 107.304 765.296 107.432 765.248C107.56 765.195 107.672 765.123 107.768 765.032V764.12C107.448 764.136 107.165 764.205 106.92 764.328C106.674 764.451 106.552 764.621 106.552 764.84C106.552 765.005 106.594 765.128 106.68 765.208C106.765 765.283 106.901 765.32 107.088 765.32ZM111.88 761.936C112.259 761.936 112.584 762.029 112.856 762.216C113.128 762.403 113.333 762.653 113.472 762.968C113.611 763.283 113.68 763.629 113.68 764.008C113.68 764.387 113.611 764.733 113.472 765.048C113.333 765.363 113.128 765.613 112.856 765.8C112.584 765.987 112.259 766.08 111.88 766.08C111.64 766.08 111.435 766.053 111.264 766C111.099 765.952 110.939 765.872 110.784 765.76V767.936H109.792V762H110.592L110.696 762.368C110.867 762.224 111.045 762.117 111.232 762.048C111.419 761.973 111.635 761.936 111.88 761.936ZM111.728 765.264C112.021 765.264 112.251 765.149 112.416 764.92C112.581 764.691 112.664 764.387 112.664 764.008C112.664 763.629 112.581 763.325 112.416 763.096C112.251 762.867 112.021 762.752 111.728 762.752C111.397 762.752 111.149 762.864 110.984 763.088C110.819 763.312 110.736 763.619 110.736 764.008C110.736 764.397 110.819 764.704 110.984 764.928C111.149 765.152 111.397 765.264 111.728 765.264ZM115.506 766.08C115.25 766.08 115.016 766.056 114.802 766.008C114.594 765.96 114.378 765.885 114.154 765.784L114.242 764.936C114.466 765.069 114.674 765.171 114.866 765.24C115.064 765.304 115.266 765.336 115.474 765.336C115.88 765.336 116.082 765.203 116.082 764.936C116.082 764.792 116.029 764.683 115.922 764.608C115.816 764.528 115.624 764.435 115.346 764.328C114.952 764.184 114.661 764.021 114.474 763.84C114.288 763.653 114.194 763.403 114.194 763.088C114.194 762.741 114.328 762.461 114.594 762.248C114.861 762.029 115.221 761.92 115.674 761.92C116.128 761.92 116.541 762.024 116.914 762.232L116.826 763.08C116.624 762.941 116.432 762.835 116.25 762.76C116.074 762.685 115.888 762.648 115.69 762.648C115.52 762.648 115.386 762.683 115.29 762.752C115.2 762.821 115.154 762.92 115.154 763.048C115.154 763.149 115.181 763.232 115.234 763.296C115.293 763.36 115.373 763.419 115.474 763.472C115.576 763.52 115.744 763.589 115.978 763.68C116.368 763.829 116.648 763.995 116.818 764.176C116.989 764.352 117.074 764.589 117.074 764.888C117.074 765.267 116.938 765.56 116.666 765.768C116.394 765.976 116.008 766.08 115.506 766.08Z" fill="#AAAAAA"/>
<path d="M114.35 734.929L102.667 734.929L102.667 738.214L114.35 738.214L114.35 743.143L121 736.571L114.35 730L114.35 734.929ZM91 746.429L97.65 753L97.65 748.071L109.333 748.071L109.333 744.786L97.65 744.786L97.65 739.857L91 746.429Z" fill="#AAAAAA"/>
<path d="M159.616 760.4H161.712C162.245 760.4 162.72 760.512 163.136 760.736C163.557 760.96 163.885 761.283 164.12 761.704C164.355 762.125 164.472 762.624 164.472 763.2C164.472 763.776 164.355 764.275 164.12 764.696C163.885 765.117 163.557 765.44 163.136 765.664C162.72 765.888 162.245 766 161.712 766H159.616V760.4ZM161.712 765.088C162.245 765.088 162.651 764.923 162.928 764.592C163.211 764.256 163.352 763.792 163.352 763.2C163.352 762.608 163.211 762.147 162.928 761.816C162.651 761.48 162.245 761.312 161.712 761.312H160.64V765.088H161.712ZM167.103 766.08C166.639 766.08 166.242 765.987 165.911 765.8C165.586 765.608 165.34 765.355 165.175 765.04C165.015 764.72 164.935 764.365 164.935 763.976C164.935 763.603 165.012 763.261 165.167 762.952C165.322 762.643 165.546 762.397 165.839 762.216C166.132 762.029 166.482 761.936 166.887 761.936C167.26 761.936 167.575 762.013 167.831 762.168C168.092 762.323 168.287 762.531 168.415 762.792C168.548 763.053 168.615 763.347 168.615 763.672C168.615 763.832 168.594 764.013 168.551 764.216H165.967C166.02 764.568 166.159 764.832 166.383 765.008C166.607 765.179 166.876 765.264 167.191 765.264C167.623 765.264 168.023 765.155 168.391 764.936L168.439 765.776C168.268 765.867 168.068 765.941 167.839 766C167.615 766.053 167.37 766.08 167.103 766.08ZM167.607 763.544C167.607 763.336 167.548 763.152 167.431 762.992C167.314 762.832 167.132 762.752 166.887 762.752C166.642 762.752 166.444 762.824 166.295 762.968C166.146 763.112 166.044 763.304 165.991 763.544H167.607ZM170.876 768.016C170.311 768.016 169.86 767.912 169.524 767.704C169.188 767.501 169.02 767.224 169.02 766.872C169.02 766.488 169.236 766.173 169.668 765.928C169.433 765.784 169.316 765.595 169.316 765.36C169.316 765.237 169.351 765.128 169.42 765.032C169.495 764.936 169.593 764.859 169.716 764.8C169.513 764.656 169.359 764.472 169.252 764.248C169.151 764.024 169.1 763.779 169.1 763.512C169.1 763.219 169.164 762.952 169.292 762.712C169.42 762.467 169.607 762.275 169.852 762.136C170.097 761.992 170.388 761.92 170.724 761.92C171.076 761.92 171.38 762.005 171.636 762.176C171.727 762.128 171.847 762.088 171.996 762.056C172.151 762.019 172.316 762 172.492 762H172.748L172.684 762.624H172.324C172.233 762.624 172.159 762.627 172.1 762.632C172.26 762.877 172.34 763.171 172.34 763.512C172.34 763.805 172.276 764.075 172.148 764.32C172.025 764.56 171.841 764.752 171.596 764.896C171.351 765.035 171.06 765.104 170.724 765.104C170.601 765.104 170.46 765.085 170.3 765.048C170.241 765.075 170.212 765.117 170.212 765.176C170.212 765.245 170.252 765.301 170.332 765.344C170.417 765.381 170.559 765.413 170.756 765.44L171.444 765.528C172.361 765.651 172.82 766.037 172.82 766.688C172.82 767.093 172.647 767.416 172.3 767.656C171.959 767.896 171.484 768.016 170.876 768.016ZM170.724 764.368C170.953 764.368 171.129 764.293 171.252 764.144C171.38 763.989 171.444 763.779 171.444 763.512C171.444 763.245 171.38 763.037 171.252 762.888C171.129 762.733 170.953 762.656 170.724 762.656C170.489 762.656 170.308 762.733 170.18 762.888C170.057 763.037 169.996 763.245 169.996 763.512C169.996 763.779 170.057 763.989 170.18 764.144C170.308 764.293 170.489 764.368 170.724 764.368ZM170.916 767.264C171.599 767.264 171.94 767.096 171.94 766.76C171.94 766.611 171.881 766.499 171.764 766.424C171.647 766.355 171.452 766.299 171.18 766.256L170.3 766.128C169.996 766.251 169.844 766.437 169.844 766.688C169.844 766.88 169.937 767.024 170.124 767.12C170.311 767.216 170.575 767.264 170.916 767.264ZM173.3 760.4H174.292V761.392H173.3V760.4ZM173.3 762H174.292V766H173.3V762ZM176.526 766.08C176.174 766.08 175.907 765.979 175.726 765.776C175.544 765.568 175.454 765.32 175.454 765.032V762.816H174.886L174.974 762H175.454V761.12L176.446 761.016V762H177.326V762.816H176.446V764.624C176.446 764.837 176.456 764.987 176.478 765.072C176.504 765.152 176.555 765.205 176.63 765.232C176.71 765.253 176.851 765.264 177.054 765.264H177.326L177.238 766.08H176.526ZM178.836 766.08C178.505 766.08 178.228 765.973 178.004 765.76C177.785 765.541 177.676 765.248 177.676 764.88C177.676 764.533 177.801 764.256 178.052 764.048C178.302 763.835 178.598 763.685 178.94 763.6C179.281 763.509 179.609 763.459 179.924 763.448C179.913 763.213 179.852 763.045 179.74 762.944C179.633 762.843 179.454 762.792 179.204 762.792C179.028 762.792 178.854 762.816 178.684 762.864C178.518 762.912 178.326 762.989 178.108 763.096L178.02 762.288C178.505 762.053 178.99 761.936 179.476 761.936C179.945 761.936 180.302 762.064 180.548 762.32C180.798 762.576 180.924 762.984 180.924 763.544V764.624C180.924 764.827 180.932 764.973 180.948 765.064C180.969 765.149 181.001 765.205 181.044 765.232C181.092 765.253 181.169 765.264 181.276 765.264H181.404L181.316 766.08H180.956C180.737 766.08 180.553 766.04 180.404 765.96C180.254 765.875 180.14 765.76 180.06 765.616C179.932 765.76 179.756 765.875 179.532 765.96C179.313 766.04 179.081 766.08 178.836 766.08ZM179.252 765.32C179.353 765.32 179.468 765.296 179.596 765.248C179.724 765.195 179.836 765.123 179.932 765.032V764.12C179.612 764.136 179.329 764.205 179.084 764.328C178.838 764.451 178.716 764.621 178.716 764.84C178.716 765.005 178.758 765.128 178.844 765.208C178.929 765.283 179.065 765.32 179.252 765.32ZM182.98 766.08C182.639 766.08 182.383 765.984 182.212 765.792C182.042 765.595 181.956 765.341 181.956 765.032V760H182.948V764.624C182.948 764.837 182.959 764.989 182.98 765.08C183.007 765.165 183.05 765.219 183.108 765.24C183.172 765.256 183.279 765.264 183.428 765.264L183.34 766.08H182.98ZM188.911 764.672H186.871L186.407 766H185.415L187.407 760.4H188.375L190.367 766H189.375L188.911 764.672ZM188.591 763.776L187.895 761.776L187.191 763.776H188.591ZM191.991 766.08C191.735 766.08 191.5 766.056 191.287 766.008C191.079 765.96 190.863 765.885 190.639 765.784L190.727 764.936C190.951 765.069 191.159 765.171 191.351 765.24C191.548 765.304 191.751 765.336 191.959 765.336C192.364 765.336 192.567 765.203 192.567 764.936C192.567 764.792 192.513 764.683 192.407 764.608C192.3 764.528 192.108 764.435 191.831 764.328C191.436 764.184 191.145 764.021 190.959 763.84C190.772 763.653 190.679 763.403 190.679 763.088C190.679 762.741 190.812 762.461 191.079 762.248C191.345 762.029 191.705 761.92 192.159 761.92C192.612 761.92 193.025 762.024 193.399 762.232L193.311 763.08C193.108 762.941 192.916 762.835 192.735 762.76C192.559 762.685 192.372 762.648 192.175 762.648C192.004 762.648 191.871 762.683 191.775 762.752C191.684 762.821 191.639 762.92 191.639 763.048C191.639 763.149 191.665 763.232 191.719 763.296C191.777 763.36 191.857 763.419 191.959 763.472C192.06 763.52 192.228 763.589 192.463 763.68C192.852 763.829 193.132 763.995 193.303 764.176C193.473 764.352 193.559 764.589 193.559 764.888C193.559 765.267 193.423 765.56 193.151 765.768C192.879 765.976 192.492 766.08 191.991 766.08ZM195.373 766.08C195.117 766.08 194.883 766.056 194.669 766.008C194.461 765.96 194.245 765.885 194.021 765.784L194.109 764.936C194.333 765.069 194.541 765.171 194.733 765.24C194.931 765.304 195.133 765.336 195.341 765.336C195.747 765.336 195.949 765.203 195.949 764.936C195.949 764.792 195.896 764.683 195.789 764.608C195.683 764.528 195.491 764.435 195.213 764.328C194.819 764.184 194.528 764.021 194.341 763.84C194.155 763.653 194.061 763.403 194.061 763.088C194.061 762.741 194.195 762.461 194.461 762.248C194.728 762.029 195.088 761.92 195.541 761.92C195.995 761.92 196.408 762.024 196.781 762.232L196.693 763.08C196.491 762.941 196.299 762.835 196.117 762.76C195.941 762.685 195.755 762.648 195.557 762.648C195.387 762.648 195.253 762.683 195.157 762.752C195.067 762.821 195.021 762.92 195.021 763.048C195.021 763.149 195.048 763.232 195.101 763.296C195.16 763.36 195.24 763.419 195.341 763.472C195.443 763.52 195.611 763.589 195.845 763.68C196.235 763.829 196.515 763.995 196.685 764.176C196.856 764.352 196.941 764.589 196.941 764.888C196.941 765.267 196.805 765.56 196.533 765.768C196.261 765.976 195.875 766.08 195.373 766.08ZM199.548 766.08C199.084 766.08 198.687 765.987 198.356 765.8C198.031 765.608 197.786 765.355 197.62 765.04C197.46 764.72 197.38 764.365 197.38 763.976C197.38 763.603 197.458 763.261 197.612 762.952C197.767 762.643 197.991 762.397 198.284 762.216C198.578 762.029 198.927 761.936 199.332 761.936C199.706 761.936 200.02 762.013 200.276 762.168C200.538 762.323 200.732 762.531 200.86 762.792C200.994 763.053 201.06 763.347 201.06 763.672C201.06 763.832 201.039 764.013 200.996 764.216H198.412C198.466 764.568 198.604 764.832 198.828 765.008C199.052 765.179 199.322 765.264 199.636 765.264C200.068 765.264 200.468 765.155 200.836 764.936L200.884 765.776C200.714 765.867 200.514 765.941 200.284 766C200.06 766.053 199.815 766.08 199.548 766.08ZM200.052 763.544C200.052 763.336 199.994 763.152 199.876 762.992C199.759 762.832 199.578 762.752 199.332 762.752C199.087 762.752 198.89 762.824 198.74 762.968C198.591 763.112 198.49 763.304 198.436 763.544H200.052ZM203.041 766.08C202.689 766.08 202.423 765.979 202.241 765.776C202.06 765.568 201.969 765.32 201.969 765.032V762.816H201.401L201.489 762H201.969V761.12L202.961 761.016V762H203.841V762.816H202.961V764.624C202.961 764.837 202.972 764.987 202.993 765.072C203.02 765.152 203.071 765.205 203.145 765.232C203.225 765.253 203.367 765.264 203.569 765.264H203.841L203.753 766.08H203.041Z" fill="#AAAAAA"/>
<path d="M192.514 738.195C193.709 739.489 194.406 741.182 194.505 742.925H195.999C195.9 740.784 195.053 738.693 193.609 737.099L192.514 738.195Z" fill="#AAAAAA"/>
<path d="M179.865 750.144C181.508 751.787 183.699 752.783 186.04 752.883V751.389C184.396 751.289 182.803 750.692 181.558 749.646C181.01 749.845 180.463 749.995 179.865 750.144Z" fill="#AAAAAA"/>
<path d="M187.035 751.338V752.832C189.176 752.732 191.268 751.886 192.861 750.442L191.815 749.396C190.471 750.541 188.778 751.239 187.035 751.338Z" fill="#AAAAAA"/>
<path d="M192.514 748.7L193.559 749.746C195.003 748.153 195.85 746.061 195.949 743.92H194.456C194.356 745.663 193.659 747.356 192.514 748.7Z" fill="#AAAAAA"/>
<path d="M182.852 745.911C181.508 747.106 179.865 747.754 178.072 747.903V749.397C180.213 749.297 182.305 748.451 183.898 747.007L182.852 745.911Z" fill="#AAAAAA"/>
<path d="M186.987 739.438C186.887 737.297 186.04 735.205 184.596 733.612L183.551 734.658C184.746 736.002 185.393 737.645 185.543 739.438H186.987Z" fill="#AAAAAA"/>
<path d="M177.078 732.019V730.525C174.937 730.625 172.845 731.471 171.252 732.915L172.298 733.961C173.642 732.816 175.335 732.119 177.078 732.019Z" fill="#AAAAAA"/>
<path d="M178.072 732.019C179.815 732.119 181.508 732.816 182.852 734.011L183.898 732.965C182.305 731.471 180.213 730.625 178.072 730.525V732.019Z" fill="#AAAAAA"/>
<path d="M169.658 739.438C169.757 737.695 170.455 736.002 171.65 734.658L170.604 733.612C169.11 735.205 168.264 737.297 168.164 739.438H169.658Z" fill="#AAAAAA"/>
<path d="M192.861 736.403C191.118 734.809 188.877 733.963 186.537 733.963C186.437 733.963 186.288 733.963 186.139 733.963C186.487 734.461 186.786 734.959 186.985 735.457C188.728 735.556 190.421 736.253 191.765 737.448L192.861 736.403Z" fill="#AAAAAA"/>
<path d="M190.571 742.127L188.779 743.322C188.53 743.472 188.231 743.422 188.082 743.173L188.032 743.123L187.683 742.376C187.484 743.422 187.036 744.468 186.488 745.414H190.024C190.073 744.318 190.273 743.223 190.571 742.127Z" fill="#AAAAAA"/>
<path d="M184.595 746.261C186.039 744.668 186.886 742.577 186.986 740.436H185.492C185.392 742.178 184.695 743.871 183.5 745.216L184.595 746.261Z" fill="#AAAAAA"/>
<path d="M171.252 746.957C172.845 748.401 174.937 749.248 177.078 749.347V747.854C175.335 747.754 173.642 747.057 172.298 745.862L171.252 746.957Z" fill="#AAAAAA"/>
<path d="M179.417 739.939C179.267 739.889 179.168 739.789 179.118 739.64L177.574 736.204L176.031 739.64C175.931 739.889 175.632 739.988 175.383 739.889C175.334 739.889 175.334 739.839 175.334 739.839L173.541 738.644C173.89 739.69 174.039 740.785 174.089 741.93H181.06C181.11 740.835 181.309 739.739 181.608 738.644L179.815 739.839C179.715 739.939 179.566 739.939 179.417 739.939Z" fill="#AAAAAA"/>
<path d="M177.575 732.966C173.741 732.966 170.604 736.103 170.604 739.937C170.604 743.772 173.741 746.909 177.575 746.909C181.409 746.909 184.546 743.772 184.546 739.937C184.546 736.103 181.409 732.966 177.575 732.966Z" fill="#AAAAAA"/>
<path d="M169.658 740.436H168.164C168.264 742.577 169.11 744.668 170.554 746.261L171.6 745.216C170.455 743.871 169.757 742.178 169.658 740.436Z" fill="#AAAAAA"/>
<path d="M187.433 736.501C187.483 736.7 187.533 736.849 187.583 737.048C188.081 738.891 189.126 745.165 182.504 749.099C185.641 751.289 189.973 750.543 192.214 747.406C193.06 746.211 193.459 744.816 193.459 743.372C193.508 739.937 190.919 736.999 187.433 736.501Z" fill="#AAAAAA"/>
<rect x="120" y="799" width="135" height="5" rx="2.5" fill="#D6D9E4"/>
<rect width="375" height="1" transform="matrix(1 0 0 -1 0 104)" fill="#2E3033"/>
<path d="M353.4 178H340.6C339.72 178 339 178.72 339 179.6V194L342.2 190.8H353.4C354.28 190.8 355 190.08 355 189.2V179.6C355 178.72 354.28 178 353.4 178ZM353.4 189.2H342.2L340.6 190.8V179.6H353.4V189.2Z" fill="white"/>
<rect x="346.785" y="181" width="1.07143" height="6.85714" rx="0.535714" fill="white"/>
<rect x="344" y="184.857" width="1.07143" height="6.85714" rx="0.535714" transform="rotate(-90 344 184.857)" fill="white"/>
<path d="M353.4 285H340.6C339.72 285 339 285.72 339 286.6V301L342.2 297.8H353.4C354.28 297.8 355 297.08 355 296.2V286.6C355 285.72 354.28 285 353.4 285ZM353.4 296.2H342.2L340.6 297.8V286.6H353.4V296.2Z" fill="white"/>
<rect x="346.785" y="288" width="1.07143" height="6.85714" rx="0.535714" fill="white"/>
<rect x="344" y="291.857" width="1.07143" height="6.85714" rx="0.535714" transform="rotate(-90 344 291.857)" fill="white"/>
<rect y="212" width="375" height="54" fill="#44474C"/>
<rect y="320" width="375" height="108" fill="#44474C"/>
<path d="M0 374L375 374" stroke="#4B4F56"/>
<path d="M23.5 179C19.36 179 16 182.36 16 186.5C16 190.64 19.36 194 23.5 194C27.64 194 31 190.64 31 186.5C31 182.36 27.64 179 23.5 179ZM23.5 181.25C24.745 181.25 25.75 182.255 25.75 183.5C25.75 184.745 24.745 185.75 23.5 185.75C22.255 185.75 21.25 184.745 21.25 183.5C21.25 182.255 22.255 181.25 23.5 181.25ZM23.5 191.9C21.625 191.9 19.9675 190.94 19 189.485C19.0225 187.992 22 187.175 23.5 187.175C24.9925 187.175 27.9775 187.992 28 189.485C27.0325 190.94 25.375 191.9 23.5 191.9Z" fill="white"/>
<path d="M53.3485 191L52.5085 184.434L50.0025 188.942L47.4825 184.448L46.6425 191H44.7805L46.1385 181.2H47.6085L50.0025 185.666L52.3825 181.2H53.8525L55.2105 191H53.3485ZM59.1108 190.538L56.1988 184H58.1308L59.9228 188.508L61.7428 184H63.6748L59.2928 194.388H57.5568L59.1108 190.538ZM72.3088 191.14C71.5342 191.14 70.8668 190.981 70.3068 190.664C69.7562 190.337 69.3408 189.899 69.0608 189.348C68.7808 188.797 68.6408 188.186 68.6408 187.514C68.6408 186.833 68.7808 186.217 69.0608 185.666C69.3408 185.106 69.7608 184.667 70.3208 184.35C70.8808 184.023 71.5622 183.86 72.3648 183.86C73.0835 183.86 73.7088 184.009 74.2408 184.308L74.1008 185.708C73.5968 185.447 73.0742 185.316 72.5328 185.316C71.8702 185.316 71.3522 185.517 70.9788 185.918C70.6055 186.319 70.4188 186.851 70.4188 187.514C70.4188 188.149 70.6102 188.676 70.9928 189.096C71.3755 189.507 71.8842 189.712 72.5188 189.712C73.0508 189.712 73.5828 189.558 74.1148 189.25L74.2688 190.72C74.0168 190.851 73.7182 190.953 73.3728 191.028C73.0368 191.103 72.6822 191.14 72.3088 191.14ZM79.6599 183.888C80.5466 183.888 81.2046 184.177 81.6339 184.756C82.0726 185.325 82.2919 186.109 82.2919 187.108V191H80.5559V187.234C80.5559 186.571 80.4486 186.086 80.2339 185.778C80.0193 185.47 79.6786 185.316 79.2119 185.316C78.6613 185.316 78.2086 185.517 77.8539 185.918V191H76.1179V180.5H77.8539V184.448C78.1339 184.271 78.4186 184.135 78.7079 184.042C78.9973 183.939 79.3146 183.888 79.6599 183.888ZM86.0549 191.14C85.4762 191.14 84.9909 190.953 84.5989 190.58C84.2162 190.197 84.0249 189.684 84.0249 189.04C84.0249 188.433 84.2442 187.948 84.6829 187.584C85.1215 187.211 85.6395 186.949 86.2369 186.8C86.8342 186.641 87.4082 186.553 87.9589 186.534C87.9402 186.123 87.8329 185.829 87.6369 185.652C87.4502 185.475 87.1375 185.386 86.6989 185.386C86.3909 185.386 86.0875 185.428 85.7889 185.512C85.4995 185.596 85.1635 185.731 84.7809 185.918L84.6269 184.504C85.4762 184.093 86.3255 183.888 87.1749 183.888C87.9962 183.888 88.6215 184.112 89.0509 184.56C89.4895 185.008 89.7089 185.722 89.7089 186.702V188.592C89.7089 188.947 89.7229 189.203 89.7509 189.362C89.7882 189.511 89.8442 189.609 89.9189 189.656C90.0029 189.693 90.1382 189.712 90.3249 189.712H90.5489L90.3949 191.14H89.7649C89.3822 191.14 89.0602 191.07 88.7989 190.93C88.5375 190.781 88.3369 190.58 88.1969 190.328C87.9729 190.58 87.6649 190.781 87.2729 190.93C86.8902 191.07 86.4842 191.14 86.0549 191.14ZM86.7829 189.81C86.9602 189.81 87.1609 189.768 87.3849 189.684C87.6089 189.591 87.8049 189.465 87.9729 189.306V187.71C87.4129 187.738 86.9182 187.859 86.4889 188.074C86.0595 188.289 85.8449 188.587 85.8449 188.97C85.8449 189.259 85.9195 189.474 86.0689 189.614C86.2182 189.745 86.4562 189.81 86.7829 189.81ZM95.7435 183.888C96.6115 183.888 97.2695 184.177 97.7175 184.756C98.1655 185.335 98.3895 186.114 98.3895 187.094V191H96.6535V187.234C96.6535 186.581 96.5415 186.1 96.3175 185.792C96.1028 185.475 95.7528 185.316 95.2675 185.316C94.7355 185.316 94.2968 185.517 93.9515 185.918V191H92.2155V184H93.8395L93.8675 184.49C94.4555 184.089 95.0808 183.888 95.7435 183.888ZM104.168 183.888C105.036 183.888 105.694 184.177 106.142 184.756C106.59 185.335 106.814 186.114 106.814 187.094V191H105.078V187.234C105.078 186.581 104.966 186.1 104.742 185.792C104.527 185.475 104.177 185.316 103.692 185.316C103.16 185.316 102.721 185.517 102.376 185.918V191H100.64V184H102.264L102.292 184.49C102.88 184.089 103.505 183.888 104.168 183.888ZM112.439 191.14C111.627 191.14 110.931 190.977 110.353 190.65C109.783 190.314 109.354 189.871 109.065 189.32C108.785 188.76 108.645 188.139 108.645 187.458C108.645 186.805 108.78 186.207 109.051 185.666C109.321 185.125 109.713 184.695 110.227 184.378C110.74 184.051 111.351 183.888 112.061 183.888C112.714 183.888 113.265 184.023 113.713 184.294C114.17 184.565 114.511 184.929 114.735 185.386C114.968 185.843 115.085 186.357 115.085 186.926C115.085 187.206 115.047 187.523 114.973 187.878H110.451C110.544 188.494 110.787 188.956 111.179 189.264C111.571 189.563 112.042 189.712 112.593 189.712C113.349 189.712 114.049 189.521 114.693 189.138L114.777 190.608C114.478 190.767 114.128 190.897 113.727 191C113.335 191.093 112.905 191.14 112.439 191.14ZM113.321 186.702C113.321 186.338 113.218 186.016 113.013 185.736C112.807 185.456 112.49 185.316 112.061 185.316C111.631 185.316 111.286 185.442 111.025 185.694C110.763 185.946 110.586 186.282 110.493 186.702H113.321ZM118.762 191.14C118.164 191.14 117.716 190.972 117.418 190.636C117.119 190.291 116.97 189.847 116.97 189.306V180.5H118.706V188.592C118.706 188.965 118.724 189.231 118.762 189.39C118.808 189.539 118.883 189.633 118.986 189.67C119.098 189.698 119.284 189.712 119.546 189.712L119.392 191.14H118.762Z" fill="white"/>
<path d="M45.078 288.2H48.746C49.6793 288.2 50.51 288.396 51.238 288.788C51.9753 289.18 52.5493 289.745 52.96 290.482C53.3707 291.219 53.576 292.092 53.576 293.1C53.576 294.108 53.3707 294.981 52.96 295.718C52.5493 296.455 51.9753 297.02 51.238 297.412C50.51 297.804 49.6793 298 48.746 298H45.078V288.2ZM48.746 296.404C49.6793 296.404 50.3887 296.115 50.874 295.536C51.3687 294.948 51.616 294.136 51.616 293.1C51.616 292.064 51.3687 291.257 50.874 290.678C50.3887 290.09 49.6793 289.796 48.746 289.796H46.87V296.404H48.746ZM55.4788 288.2H57.2148V289.936H55.4788V288.2ZM55.4788 291H57.2148V298H55.4788V291ZM59.5421 291H61.1661L61.2081 291.742C61.4134 291.509 61.6747 291.303 61.9921 291.126C62.3187 290.949 62.6594 290.86 63.0141 290.86C63.1261 290.86 63.2287 290.869 63.3221 290.888L63.1961 292.596C63.0187 292.549 62.8181 292.526 62.5941 292.526C62.3047 292.526 62.0387 292.596 61.7961 292.736C61.5534 292.867 61.3807 293.03 61.2781 293.226V298H59.5421V291ZM68.1141 298.14C67.3021 298.14 66.6068 297.977 66.0281 297.65C65.4588 297.314 65.0295 296.871 64.7401 296.32C64.4601 295.76 64.3201 295.139 64.3201 294.458C64.3201 293.805 64.4555 293.207 64.7261 292.666C64.9968 292.125 65.3888 291.695 65.9021 291.378C66.4155 291.051 67.0268 290.888 67.7361 290.888C68.3895 290.888 68.9401 291.023 69.3881 291.294C69.8455 291.565 70.1861 291.929 70.4101 292.386C70.6435 292.843 70.7601 293.357 70.7601 293.926C70.7601 294.206 70.7228 294.523 70.6481 294.878H66.1261C66.2195 295.494 66.4621 295.956 66.8541 296.264C67.2461 296.563 67.7175 296.712 68.2681 296.712C69.0241 296.712 69.7241 296.521 70.3681 296.138L70.4521 297.608C70.1535 297.767 69.8035 297.897 69.4021 298C69.0101 298.093 68.5808 298.14 68.1141 298.14ZM68.9961 293.702C68.9961 293.338 68.8935 293.016 68.6881 292.736C68.4828 292.456 68.1655 292.316 67.7361 292.316C67.3068 292.316 66.9615 292.442 66.7001 292.694C66.4388 292.946 66.2615 293.282 66.1681 293.702H68.9961ZM75.8932 298.14C75.1185 298.14 74.4512 297.981 73.8912 297.664C73.3405 297.337 72.9252 296.899 72.6452 296.348C72.3652 295.797 72.2252 295.186 72.2252 294.514C72.2252 293.833 72.3652 293.217 72.6452 292.666C72.9252 292.106 73.3452 291.667 73.9052 291.35C74.4652 291.023 75.1465 290.86 75.9492 290.86C76.6679 290.86 77.2932 291.009 77.8252 291.308L77.6852 292.708C77.1812 292.447 76.6585 292.316 76.1172 292.316C75.4545 292.316 74.9365 292.517 74.5632 292.918C74.1899 293.319 74.0032 293.851 74.0032 294.514C74.0032 295.149 74.1945 295.676 74.5772 296.096C74.9599 296.507 75.4685 296.712 76.1032 296.712C76.6352 296.712 77.1672 296.558 77.6992 296.25L77.8532 297.72C77.6012 297.851 77.3025 297.953 76.9572 298.028C76.6212 298.103 76.2665 298.14 75.8932 298.14ZM81.9983 298.14C81.3823 298.14 80.9156 297.963 80.5983 297.608C80.281 297.244 80.1223 296.81 80.1223 296.306V292.428H79.1283L79.2823 291H80.1223V289.46L81.8583 289.278V291H83.3983V292.428H81.8583V295.592C81.8583 295.965 81.877 296.227 81.9143 296.376C81.961 296.516 82.0496 296.609 82.1803 296.656C82.3203 296.693 82.5676 296.712 82.9223 296.712H83.3983L83.2443 298.14H81.9983ZM97.4453 298L96.6053 291.434L94.0993 295.942L91.5793 291.448L90.7393 298H88.8773L90.2353 288.2H91.7053L94.0993 292.666L96.4793 288.2H97.9493L99.3073 298H97.4453ZM104.632 298.14C103.82 298.14 103.124 297.977 102.546 297.65C101.976 297.314 101.547 296.871 101.258 296.32C100.978 295.76 100.838 295.139 100.838 294.458C100.838 293.805 100.973 293.207 101.244 292.666C101.514 292.125 101.906 291.695 102.42 291.378C102.933 291.051 103.544 290.888 104.254 290.888C104.907 290.888 105.458 291.023 105.906 291.294C106.363 291.565 106.704 291.929 106.928 292.386C107.161 292.843 107.278 293.357 107.278 293.926C107.278 294.206 107.24 294.523 107.166 294.878H102.644C102.737 295.494 102.98 295.956 103.372 296.264C103.764 296.563 104.235 296.712 104.786 296.712C105.542 296.712 106.242 296.521 106.886 296.138L106.97 297.608C106.671 297.767 106.321 297.897 105.92 298C105.528 298.093 105.098 298.14 104.632 298.14ZM105.514 293.702C105.514 293.338 105.411 293.016 105.206 292.736C105 292.456 104.683 292.316 104.254 292.316C103.824 292.316 103.479 292.442 103.218 292.694C102.956 292.946 102.779 293.282 102.686 293.702H105.514ZM111.151 298.14C110.703 298.14 110.292 298.098 109.919 298.014C109.555 297.93 109.177 297.799 108.785 297.622L108.939 296.138C109.331 296.371 109.695 296.549 110.031 296.67C110.376 296.782 110.731 296.838 111.095 296.838C111.804 296.838 112.159 296.605 112.159 296.138C112.159 295.886 112.065 295.695 111.879 295.564C111.692 295.424 111.356 295.261 110.871 295.074C110.18 294.822 109.671 294.537 109.345 294.22C109.018 293.893 108.855 293.455 108.855 292.904C108.855 292.297 109.088 291.807 109.555 291.434C110.021 291.051 110.651 290.86 111.445 290.86C112.238 290.86 112.961 291.042 113.615 291.406L113.461 292.89C113.106 292.647 112.77 292.461 112.453 292.33C112.145 292.199 111.818 292.134 111.473 292.134C111.174 292.134 110.941 292.195 110.773 292.316C110.614 292.437 110.535 292.61 110.535 292.834C110.535 293.011 110.581 293.156 110.675 293.268C110.777 293.38 110.917 293.483 111.095 293.576C111.272 293.66 111.566 293.781 111.977 293.94C112.658 294.201 113.148 294.491 113.447 294.808C113.745 295.116 113.895 295.531 113.895 296.054C113.895 296.717 113.657 297.23 113.181 297.594C112.705 297.958 112.028 298.14 111.151 298.14ZM117.771 298.14C117.323 298.14 116.912 298.098 116.539 298.014C116.175 297.93 115.797 297.799 115.405 297.622L115.559 296.138C115.951 296.371 116.315 296.549 116.651 296.67C116.996 296.782 117.351 296.838 117.715 296.838C118.424 296.838 118.779 296.605 118.779 296.138C118.779 295.886 118.685 295.695 118.499 295.564C118.312 295.424 117.976 295.261 117.491 295.074C116.8 294.822 116.291 294.537 115.965 294.22C115.638 293.893 115.475 293.455 115.475 292.904C115.475 292.297 115.708 291.807 116.175 291.434C116.641 291.051 117.271 290.86 118.065 290.86C118.858 290.86 119.581 291.042 120.235 291.406L120.081 292.89C119.726 292.647 119.39 292.461 119.073 292.33C118.765 292.199 118.438 292.134 118.093 292.134C117.794 292.134 117.561 292.195 117.393 292.316C117.234 292.437 117.155 292.61 117.155 292.834C117.155 293.011 117.201 293.156 117.295 293.268C117.397 293.38 117.537 293.483 117.715 293.576C117.892 293.66 118.186 293.781 118.597 293.94C119.278 294.201 119.768 294.491 120.067 294.808C120.365 295.116 120.515 295.531 120.515 296.054C120.515 296.717 120.277 297.23 119.801 297.594C119.325 297.958 118.648 298.14 117.771 298.14ZM123.915 298.14C123.336 298.14 122.851 297.953 122.459 297.58C122.076 297.197 121.885 296.684 121.885 296.04C121.885 295.433 122.104 294.948 122.543 294.584C122.981 294.211 123.499 293.949 124.097 293.8C124.694 293.641 125.268 293.553 125.819 293.534C125.8 293.123 125.693 292.829 125.497 292.652C125.31 292.475 124.997 292.386 124.559 292.386C124.251 292.386 123.947 292.428 123.649 292.512C123.359 292.596 123.023 292.731 122.641 292.918L122.487 291.504C123.336 291.093 124.185 290.888 125.035 290.888C125.856 290.888 126.481 291.112 126.911 291.56C127.349 292.008 127.569 292.722 127.569 293.702V295.592C127.569 295.947 127.583 296.203 127.611 296.362C127.648 296.511 127.704 296.609 127.779 296.656C127.863 296.693 127.998 296.712 128.185 296.712H128.409L128.255 298.14H127.625C127.242 298.14 126.92 298.07 126.659 297.93C126.397 297.781 126.197 297.58 126.057 297.328C125.833 297.58 125.525 297.781 125.133 297.93C124.75 298.07 124.344 298.14 123.915 298.14ZM124.643 296.81C124.82 296.81 125.021 296.768 125.245 296.684C125.469 296.591 125.665 296.465 125.833 296.306V294.71C125.273 294.738 124.778 294.859 124.349 295.074C123.919 295.289 123.705 295.587 123.705 295.97C123.705 296.259 123.779 296.474 123.929 296.614C124.078 296.745 124.316 296.81 124.643 296.81ZM132.847 301.528C131.858 301.528 131.069 301.346 130.481 300.982C129.893 300.627 129.599 300.142 129.599 299.526C129.599 298.854 129.977 298.303 130.733 297.874C130.323 297.622 130.117 297.291 130.117 296.88C130.117 296.665 130.178 296.474 130.299 296.306C130.43 296.138 130.603 296.003 130.817 295.9C130.463 295.648 130.192 295.326 130.005 294.934C129.828 294.542 129.739 294.113 129.739 293.646C129.739 293.133 129.851 292.666 130.075 292.246C130.299 291.817 130.626 291.481 131.055 291.238C131.485 290.986 131.993 290.86 132.581 290.86C133.197 290.86 133.729 291.009 134.177 291.308C134.336 291.224 134.546 291.154 134.807 291.098C135.078 291.033 135.367 291 135.675 291H136.123L136.011 292.092H135.381C135.223 292.092 135.092 292.097 134.989 292.106C135.269 292.535 135.409 293.049 135.409 293.646C135.409 294.159 135.297 294.631 135.073 295.06C134.859 295.48 134.537 295.816 134.107 296.068C133.678 296.311 133.169 296.432 132.581 296.432C132.367 296.432 132.119 296.399 131.839 296.334C131.737 296.381 131.685 296.455 131.685 296.558C131.685 296.679 131.755 296.777 131.895 296.852C132.045 296.917 132.292 296.973 132.637 297.02L133.841 297.174C135.447 297.389 136.249 298.065 136.249 299.204C136.249 299.913 135.946 300.478 135.339 300.898C134.742 301.318 133.911 301.528 132.847 301.528ZM132.581 295.144C132.983 295.144 133.291 295.013 133.505 294.752C133.729 294.481 133.841 294.113 133.841 293.646C133.841 293.179 133.729 292.815 133.505 292.554C133.291 292.283 132.983 292.148 132.581 292.148C132.171 292.148 131.853 292.283 131.629 292.554C131.415 292.815 131.307 293.179 131.307 293.646C131.307 294.113 131.415 294.481 131.629 294.752C131.853 295.013 132.171 295.144 132.581 295.144ZM132.917 300.212C134.112 300.212 134.709 299.918 134.709 299.33C134.709 299.069 134.607 298.873 134.401 298.742C134.196 298.621 133.855 298.523 133.379 298.448L131.839 298.224C131.307 298.439 131.041 298.765 131.041 299.204C131.041 299.54 131.205 299.792 131.531 299.96C131.858 300.128 132.32 300.212 132.917 300.212ZM141.108 298.14C140.296 298.14 139.601 297.977 139.022 297.65C138.453 297.314 138.024 296.871 137.734 296.32C137.454 295.76 137.314 295.139 137.314 294.458C137.314 293.805 137.45 293.207 137.72 292.666C137.991 292.125 138.383 291.695 138.896 291.378C139.41 291.051 140.021 290.888 140.73 290.888C141.384 290.888 141.934 291.023 142.382 291.294C142.84 291.565 143.18 291.929 143.404 292.386C143.638 292.843 143.754 293.357 143.754 293.926C143.754 294.206 143.717 294.523 143.642 294.878H139.12C139.214 295.494 139.456 295.956 139.848 296.264C140.24 296.563 140.712 296.712 141.262 296.712C142.018 296.712 142.718 296.521 143.362 296.138L143.446 297.608C143.148 297.767 142.798 297.897 142.396 298C142.004 298.093 141.575 298.14 141.108 298.14ZM141.99 293.702C141.99 293.338 141.888 293.016 141.682 292.736C141.477 292.456 141.16 292.316 140.73 292.316C140.301 292.316 139.956 292.442 139.694 292.694C139.433 292.946 139.256 293.282 139.162 293.702H141.99Z" fill="white"/>
<path d="M45.836 241.408H44.396L44.876 240.316H46.256L46.796 238.936H45.284L45.632 237.916H47.18L48.068 235.6H49.04L48.14 237.916H49.736L50.636 235.6H51.596L50.708 237.916H52.064L51.716 238.936H50.324L49.784 240.316H51.32L50.828 241.408H49.364L48.332 244.132H47.36L48.404 241.408H46.808L45.764 244.132H44.804L45.836 241.408ZM48.812 240.316L49.352 238.936H47.768L47.228 240.316H48.812ZM56.4812 244.12C55.8412 244.12 55.2892 243.988 54.8252 243.724C54.3692 243.46 54.0252 243.1 53.7932 242.644C53.5612 242.18 53.4452 241.664 53.4452 241.096C53.4452 240.168 53.7052 239.42 54.2252 238.852C54.7532 238.284 55.5332 238 56.5652 238C57.1732 238 57.7092 238.116 58.1732 238.348L58.0052 239.296C57.5172 239.072 57.0292 238.96 56.5412 238.96C55.9012 238.96 55.4092 239.144 55.0652 239.512C54.7212 239.872 54.5492 240.384 54.5492 241.048C54.5492 241.712 54.7132 242.232 55.0412 242.608C55.3772 242.984 55.8692 243.172 56.5172 243.172C57.0372 243.172 57.5372 243.052 58.0172 242.812L58.1612 243.676C57.9852 243.796 57.7412 243.9 57.4292 243.988C57.1252 244.076 56.8092 244.12 56.4812 244.12ZM62.6384 238C63.3824 238 63.9504 238.244 64.3424 238.732C64.7344 239.22 64.9304 239.884 64.9304 240.724V244H63.8504V240.856C63.8504 240.208 63.7304 239.732 63.4904 239.428C63.2584 239.116 62.8944 238.96 62.3984 238.96C62.0944 238.96 61.8144 239.032 61.5584 239.176C61.3024 239.312 61.0864 239.508 60.9104 239.764V244H59.8184V235H60.9104V238.684C61.1424 238.46 61.3944 238.292 61.6664 238.18C61.9464 238.06 62.2704 238 62.6384 238ZM68.3023 244.12C67.7583 244.12 67.3183 243.96 66.9823 243.64C66.6543 243.32 66.4903 242.912 66.4903 242.416C66.4903 241.672 66.8423 241.14 67.5463 240.82C68.2503 240.5 69.0703 240.332 70.0063 240.316C70.0063 239.788 69.9023 239.432 69.6943 239.248C69.4943 239.056 69.1703 238.96 68.7223 238.96C68.4743 238.96 68.2263 239 67.9783 239.08C67.7303 239.152 67.4623 239.288 67.1743 239.488L67.0183 238.612C67.2583 238.428 67.5543 238.28 67.9063 238.168C68.2583 238.056 68.6263 238 69.0103 238C69.5143 238 69.9143 238.088 70.2103 238.264C70.5143 238.44 70.7343 238.732 70.8703 239.14C71.0143 239.548 71.0863 240.108 71.0863 240.82V242.02C71.0863 242.34 71.0983 242.584 71.1223 242.752C71.1543 242.912 71.2183 243.036 71.3143 243.124C71.4103 243.212 71.5583 243.256 71.7583 243.256H71.8663L71.6983 244.12H71.6143C71.2783 244.12 71.0143 244.088 70.8223 244.024C70.6303 243.96 70.4823 243.868 70.3783 243.748C70.2823 243.628 70.1903 243.464 70.1023 243.256C69.6063 243.832 69.0063 244.12 68.3023 244.12ZM68.5063 243.256C68.7943 243.256 69.0703 243.184 69.3343 243.04C69.6063 242.896 69.8303 242.704 70.0063 242.464V241.06C69.1423 241.092 68.5223 241.208 68.1463 241.408C67.7783 241.6 67.5943 241.916 67.5943 242.356C67.5943 242.66 67.6743 242.888 67.8343 243.04C68.0023 243.184 68.2263 243.256 68.5063 243.256ZM76.204 238C77.804 238 78.604 238.92 78.604 240.76V244H77.524V240.76C77.524 240.128 77.404 239.672 77.164 239.392C76.932 239.104 76.54 238.96 75.988 238.96C75.636 238.96 75.316 239.024 75.028 239.152C74.74 239.28 74.524 239.472 74.38 239.728V244H73.3V238.12H74.14L74.26 238.744C74.572 238.464 74.884 238.272 75.196 238.168C75.516 238.056 75.852 238 76.204 238ZM83.5071 238C85.1071 238 85.9071 238.92 85.9071 240.76V244H84.8271V240.76C84.8271 240.128 84.7071 239.672 84.4671 239.392C84.2351 239.104 83.8431 238.96 83.2911 238.96C82.9391 238.96 82.6191 239.024 82.3311 239.152C82.0431 239.28 81.8271 239.472 81.6831 239.728V244H80.6031V238.12H81.4431L81.5631 238.744C81.8751 238.464 82.1871 238.272 82.4991 238.168C82.8191 238.056 83.1551 238 83.5071 238ZM90.7262 244.12C90.0542 244.12 89.4782 243.984 88.9982 243.712C88.5262 243.432 88.1662 243.056 87.9182 242.584C87.6702 242.112 87.5462 241.588 87.5462 241.012C87.5462 240.46 87.6582 239.956 87.8822 239.5C88.1142 239.036 88.4462 238.672 88.8782 238.408C89.3182 238.136 89.8342 238 90.4262 238C91.1782 238 91.7862 238.22 92.2502 238.66C92.7222 239.1 92.9582 239.708 92.9582 240.484C92.9582 240.684 92.9422 240.876 92.9102 241.06H88.6502C88.7222 241.82 88.9542 242.36 89.3462 242.68C89.7382 243 90.2422 243.16 90.8582 243.16C91.4742 243.16 92.0382 243.044 92.5502 242.812L92.6942 243.664C92.0142 243.968 91.3582 244.12 90.7262 244.12ZM91.8422 240.316C91.8422 239.892 91.7222 239.56 91.4822 239.32C91.2422 239.08 90.8822 238.96 90.4022 238.96C89.9382 238.96 89.5742 239.076 89.3102 239.308C89.0462 239.532 88.8582 239.868 88.7462 240.316H91.8422ZM96.1588 244.12C95.6308 244.12 95.2428 243.984 94.9948 243.712C94.7548 243.44 94.6348 243.104 94.6348 242.704V235H95.7148V242.08C95.7148 242.432 95.7348 242.688 95.7748 242.848C95.8228 243.008 95.9108 243.116 96.0388 243.172C96.1668 243.228 96.3748 243.256 96.6628 243.256L96.5068 244.12H96.1588ZM99.1988 237.244C98.9348 237.46 98.7068 237.62 98.5148 237.724C98.3308 237.828 98.1428 237.912 97.9508 237.976L97.7588 236.908C98.0948 236.796 98.4268 236.62 98.7548 236.38C99.0908 236.132 99.3468 235.872 99.5228 235.6H100.303V244H99.1988V237.244Z" fill="white"/>
<path d="M48.344 352.168C47.184 352.168 46.312 351.844 45.728 351.196C45.152 350.54 44.864 349.62 44.864 348.436V343.6H46.004V348.124C46.004 349.044 46.168 349.776 46.496 350.32C46.824 350.864 47.44 351.136 48.344 351.136C49.248 351.136 49.864 350.864 50.192 350.32C50.52 349.768 50.684 349.036 50.684 348.124V343.6H51.824V348.436C51.824 349.62 51.532 350.54 50.948 351.196C50.372 351.844 49.504 352.168 48.344 352.168ZM56.6833 352.12C56.0113 352.12 55.4353 351.984 54.9553 351.712C54.4833 351.432 54.1233 351.056 53.8753 350.584C53.6273 350.112 53.5033 349.588 53.5033 349.012C53.5033 348.46 53.6153 347.956 53.8393 347.5C54.0713 347.036 54.4033 346.672 54.8353 346.408C55.2753 346.136 55.7913 346 56.3833 346C57.1353 346 57.7433 346.22 58.2073 346.66C58.6793 347.1 58.9153 347.708 58.9153 348.484C58.9153 348.684 58.8993 348.876 58.8673 349.06H54.6073C54.6793 349.82 54.9113 350.36 55.3033 350.68C55.6953 351 56.1993 351.16 56.8153 351.16C57.4313 351.16 57.9953 351.044 58.5073 350.812L58.6513 351.664C57.9713 351.968 57.3153 352.12 56.6833 352.12ZM57.7993 348.316C57.7993 347.892 57.6793 347.56 57.4393 347.32C57.1993 347.08 56.8393 346.96 56.3593 346.96C55.8953 346.96 55.5313 347.076 55.2673 347.308C55.0033 347.532 54.8153 347.868 54.7033 348.316H57.7993ZM62.2719 352.12C61.8079 352.12 61.3999 352.068 61.0479 351.964C60.7039 351.852 60.4399 351.732 60.2559 351.604L60.3879 350.56C60.5479 350.704 60.7919 350.84 61.1199 350.968C61.4559 351.096 61.8239 351.16 62.2239 351.16C62.5999 351.16 62.8879 351.096 63.0879 350.968C63.2959 350.84 63.3999 350.66 63.3999 350.428C63.3999 350.156 63.2879 349.952 63.0639 349.816C62.8399 349.672 62.5599 349.552 62.2239 349.456C61.8559 349.36 61.5439 349.26 61.2879 349.156C61.0399 349.044 60.8239 348.876 60.6399 348.652C60.4639 348.428 60.3759 348.132 60.3759 347.764C60.3759 347.26 60.5559 346.84 60.9159 346.504C61.2759 346.168 61.8319 346 62.5839 346C62.9279 346 63.2199 346.036 63.4599 346.108C63.6999 346.172 63.9399 346.264 64.1799 346.384L64.0479 347.368C63.8559 347.208 63.6439 347.084 63.4119 346.996C63.1799 346.9 62.9119 346.852 62.6079 346.852C62.2559 346.852 61.9759 346.92 61.7679 347.056C61.5679 347.184 61.4679 347.38 61.4679 347.644C61.4679 347.82 61.5159 347.964 61.6119 348.076C61.7079 348.18 61.8439 348.268 62.0199 348.34C62.1959 348.412 62.4679 348.504 62.8359 348.616C63.2919 348.752 63.6839 348.944 64.0119 349.192C64.3479 349.44 64.5159 349.832 64.5159 350.368C64.5159 350.848 64.3439 351.26 63.9999 351.604C63.6639 351.948 63.0879 352.12 62.2719 352.12ZM66.1726 346.12H67.0606L67.1926 347.092C67.4966 346.716 67.7846 346.44 68.0566 346.264C68.3366 346.088 68.6286 346 68.9326 346C69.0286 346 69.1206 346.012 69.2086 346.036L69.1006 347.224C68.9966 347.2 68.8766 347.188 68.7406 347.188C68.4446 347.188 68.1646 347.256 67.9006 347.392C67.6366 347.52 67.4446 347.672 67.3246 347.848V352H66.1726V346.12ZM73.4735 346C75.0735 346 75.8735 346.92 75.8735 348.76V352H74.7935V348.76C74.7935 348.128 74.6735 347.672 74.4335 347.392C74.2015 347.104 73.8095 346.96 73.2575 346.96C72.9055 346.96 72.5855 347.024 72.2975 347.152C72.0095 347.28 71.7935 347.472 71.6495 347.728V352H70.5695V346.12H71.4095L71.5295 346.744C71.8415 346.464 72.1535 346.272 72.4655 346.168C72.7855 346.056 73.1215 346 73.4735 346ZM79.2406 352.12C78.6966 352.12 78.2566 351.96 77.9206 351.64C77.5926 351.32 77.4286 350.912 77.4286 350.416C77.4286 349.672 77.7806 349.14 78.4846 348.82C79.1886 348.5 80.0086 348.332 80.9446 348.316C80.9446 347.788 80.8406 347.432 80.6326 347.248C80.4326 347.056 80.1086 346.96 79.6606 346.96C79.4126 346.96 79.1646 347 78.9166 347.08C78.6686 347.152 78.4006 347.288 78.1126 347.488L77.9566 346.612C78.1966 346.428 78.4926 346.28 78.8446 346.168C79.1966 346.056 79.5646 346 79.9486 346C80.4526 346 80.8526 346.088 81.1486 346.264C81.4526 346.44 81.6726 346.732 81.8086 347.14C81.9526 347.548 82.0246 348.108 82.0246 348.82V350.02C82.0246 350.34 82.0366 350.584 82.0606 350.752C82.0926 350.912 82.1566 351.036 82.2526 351.124C82.3486 351.212 82.4966 351.256 82.6966 351.256H82.8046L82.6366 352.12H82.5526C82.2166 352.12 81.9526 352.088 81.7606 352.024C81.5686 351.96 81.4206 351.868 81.3166 351.748C81.2206 351.628 81.1286 351.464 81.0406 351.256C80.5446 351.832 79.9446 352.12 79.2406 352.12ZM79.4446 351.256C79.7326 351.256 80.0086 351.184 80.2726 351.04C80.5446 350.896 80.7686 350.704 80.9446 350.464V349.06C80.0806 349.092 79.4606 349.208 79.0846 349.408C78.7166 349.6 78.5326 349.916 78.5326 350.356C78.5326 350.66 78.6126 350.888 78.7726 351.04C78.9406 351.184 79.1646 351.256 79.4446 351.256ZM91.1022 346C92.6062 346 93.3582 346.844 93.3582 348.532V352H92.2782V348.544C92.2782 347.992 92.1702 347.592 91.9542 347.344C91.7382 347.088 91.3862 346.96 90.8982 346.96C89.8582 346.96 89.3382 347.504 89.3382 348.592V352H88.2582V348.76C88.2582 348.088 88.1382 347.62 87.8982 347.356C87.6662 347.092 87.3262 346.96 86.8782 346.96C86.5262 346.96 86.2142 347.024 85.9422 347.152C85.6702 347.28 85.4622 347.472 85.3182 347.728V352H84.2382V346.12H85.0782L85.1982 346.744C85.4942 346.48 85.7902 346.292 86.0862 346.18C86.3902 346.06 86.7142 346 87.0582 346C87.9542 346 88.5862 346.392 88.9542 347.176C89.3622 346.392 90.0782 346 91.1022 346ZM98.1817 352.12C97.5097 352.12 96.9337 351.984 96.4537 351.712C95.9817 351.432 95.6217 351.056 95.3737 350.584C95.1257 350.112 95.0017 349.588 95.0017 349.012C95.0017 348.46 95.1137 347.956 95.3377 347.5C95.5697 347.036 95.9017 346.672 96.3337 346.408C96.7737 346.136 97.2897 346 97.8817 346C98.6337 346 99.2417 346.22 99.7057 346.66C100.178 347.1 100.414 347.708 100.414 348.484C100.414 348.684 100.398 348.876 100.366 349.06H96.1057C96.1777 349.82 96.4097 350.36 96.8017 350.68C97.1937 351 97.6977 351.16 98.3137 351.16C98.9297 351.16 99.4937 351.044 100.006 350.812L100.15 351.664C99.4697 351.968 98.8137 352.12 98.1817 352.12ZM99.2977 348.316C99.2977 347.892 99.1777 347.56 98.9377 347.32C98.6977 347.08 98.3377 346.96 97.8577 346.96C97.3937 346.96 97.0297 347.076 96.7657 347.308C96.5017 347.532 96.3137 347.868 96.2017 348.316H99.2977ZM102.96 345.244C102.696 345.46 102.468 345.62 102.276 345.724C102.092 345.828 101.904 345.912 101.712 345.976L101.52 344.908C101.856 344.796 102.188 344.62 102.516 344.38C102.852 344.132 103.108 343.872 103.284 343.6H104.064V352H102.96V345.244Z" fill="white"/>
<path d="M48.344 406.168C47.184 406.168 46.312 405.844 45.728 405.196C45.152 404.54 44.864 403.62 44.864 402.436V397.6H46.004V402.124C46.004 403.044 46.168 403.776 46.496 404.32C46.824 404.864 47.44 405.136 48.344 405.136C49.248 405.136 49.864 404.864 50.192 404.32C50.52 403.768 50.684 403.036 50.684 402.124V397.6H51.824V402.436C51.824 403.62 51.532 404.54 50.948 405.196C50.372 405.844 49.504 406.168 48.344 406.168ZM56.6833 406.12C56.0113 406.12 55.4353 405.984 54.9553 405.712C54.4833 405.432 54.1233 405.056 53.8753 404.584C53.6273 404.112 53.5033 403.588 53.5033 403.012C53.5033 402.46 53.6153 401.956 53.8393 401.5C54.0713 401.036 54.4033 400.672 54.8353 400.408C55.2753 400.136 55.7913 400 56.3833 400C57.1353 400 57.7433 400.22 58.2073 400.66C58.6793 401.1 58.9153 401.708 58.9153 402.484C58.9153 402.684 58.8993 402.876 58.8673 403.06H54.6073C54.6793 403.82 54.9113 404.36 55.3033 404.68C55.6953 405 56.1993 405.16 56.8153 405.16C57.4313 405.16 57.9953 405.044 58.5073 404.812L58.6513 405.664C57.9713 405.968 57.3153 406.12 56.6833 406.12ZM57.7993 402.316C57.7993 401.892 57.6793 401.56 57.4393 401.32C57.1993 401.08 56.8393 400.96 56.3593 400.96C55.8953 400.96 55.5313 401.076 55.2673 401.308C55.0033 401.532 54.8153 401.868 54.7033 402.316H57.7993ZM62.2719 406.12C61.8079 406.12 61.3999 406.068 61.0479 405.964C60.7039 405.852 60.4399 405.732 60.2559 405.604L60.3879 404.56C60.5479 404.704 60.7919 404.84 61.1199 404.968C61.4559 405.096 61.8239 405.16 62.2239 405.16C62.5999 405.16 62.8879 405.096 63.0879 404.968C63.2959 404.84 63.3999 404.66 63.3999 404.428C63.3999 404.156 63.2879 403.952 63.0639 403.816C62.8399 403.672 62.5599 403.552 62.2239 403.456C61.8559 403.36 61.5439 403.26 61.2879 403.156C61.0399 403.044 60.8239 402.876 60.6399 402.652C60.4639 402.428 60.3759 402.132 60.3759 401.764C60.3759 401.26 60.5559 400.84 60.9159 400.504C61.2759 400.168 61.8319 400 62.5839 400C62.9279 400 63.2199 400.036 63.4599 400.108C63.6999 400.172 63.9399 400.264 64.1799 400.384L64.0479 401.368C63.8559 401.208 63.6439 401.084 63.4119 400.996C63.1799 400.9 62.9119 400.852 62.6079 400.852C62.2559 400.852 61.9759 400.92 61.7679 401.056C61.5679 401.184 61.4679 401.38 61.4679 401.644C61.4679 401.82 61.5159 401.964 61.6119 402.076C61.7079 402.18 61.8439 402.268 62.0199 402.34C62.1959 402.412 62.4679 402.504 62.8359 402.616C63.2919 402.752 63.6839 402.944 64.0119 403.192C64.3479 403.44 64.5159 403.832 64.5159 404.368C64.5159 404.848 64.3439 405.26 63.9999 405.604C63.6639 405.948 63.0879 406.12 62.2719 406.12ZM66.1726 400.12H67.0606L67.1926 401.092C67.4966 400.716 67.7846 400.44 68.0566 400.264C68.3366 400.088 68.6286 400 68.9326 400C69.0286 400 69.1206 400.012 69.2086 400.036L69.1006 401.224C68.9966 401.2 68.8766 401.188 68.7406 401.188C68.4446 401.188 68.1646 401.256 67.9006 401.392C67.6366 401.52 67.4446 401.672 67.3246 401.848V406H66.1726V400.12ZM73.4735 400C75.0735 400 75.8735 400.92 75.8735 402.76V406H74.7935V402.76C74.7935 402.128 74.6735 401.672 74.4335 401.392C74.2015 401.104 73.8095 400.96 73.2575 400.96C72.9055 400.96 72.5855 401.024 72.2975 401.152C72.0095 401.28 71.7935 401.472 71.6495 401.728V406H70.5695V400.12H71.4095L71.5295 400.744C71.8415 400.464 72.1535 400.272 72.4655 400.168C72.7855 400.056 73.1215 400 73.4735 400ZM79.2406 406.12C78.6966 406.12 78.2566 405.96 77.9206 405.64C77.5926 405.32 77.4286 404.912 77.4286 404.416C77.4286 403.672 77.7806 403.14 78.4846 402.82C79.1886 402.5 80.0086 402.332 80.9446 402.316C80.9446 401.788 80.8406 401.432 80.6326 401.248C80.4326 401.056 80.1086 400.96 79.6606 400.96C79.4126 400.96 79.1646 401 78.9166 401.08C78.6686 401.152 78.4006 401.288 78.1126 401.488L77.9566 400.612C78.1966 400.428 78.4926 400.28 78.8446 400.168C79.1966 400.056 79.5646 400 79.9486 400C80.4526 400 80.8526 400.088 81.1486 400.264C81.4526 400.44 81.6726 400.732 81.8086 401.14C81.9526 401.548 82.0246 402.108 82.0246 402.82V404.02C82.0246 404.34 82.0366 404.584 82.0606 404.752C82.0926 404.912 82.1566 405.036 82.2526 405.124C82.3486 405.212 82.4966 405.256 82.6966 405.256H82.8046L82.6366 406.12H82.5526C82.2166 406.12 81.9526 406.088 81.7606 406.024C81.5686 405.96 81.4206 405.868 81.3166 405.748C81.2206 405.628 81.1286 405.464 81.0406 405.256C80.5446 405.832 79.9446 406.12 79.2406 406.12ZM79.4446 405.256C79.7326 405.256 80.0086 405.184 80.2726 405.04C80.5446 404.896 80.7686 404.704 80.9446 404.464V403.06C80.0806 403.092 79.4606 403.208 79.0846 403.408C78.7166 403.6 78.5326 403.916 78.5326 404.356C78.5326 404.66 78.6126 404.888 78.7726 405.04C78.9406 405.184 79.1646 405.256 79.4446 405.256ZM91.1022 400C92.6062 400 93.3582 400.844 93.3582 402.532V406H92.2782V402.544C92.2782 401.992 92.1702 401.592 91.9542 401.344C91.7382 401.088 91.3862 400.96 90.8982 400.96C89.8582 400.96 89.3382 401.504 89.3382 402.592V406H88.2582V402.76C88.2582 402.088 88.1382 401.62 87.8982 401.356C87.6662 401.092 87.3262 400.96 86.8782 400.96C86.5262 400.96 86.2142 401.024 85.9422 401.152C85.6702 401.28 85.4622 401.472 85.3182 401.728V406H84.2382V400.12H85.0782L85.1982 400.744C85.4942 400.48 85.7902 400.292 86.0862 400.18C86.3902 400.06 86.7142 400 87.0582 400C87.9542 400 88.5862 400.392 88.9542 401.176C89.3622 400.392 90.0782 400 91.1022 400ZM98.1817 406.12C97.5097 406.12 96.9337 405.984 96.4537 405.712C95.9817 405.432 95.6217 405.056 95.3737 404.584C95.1257 404.112 95.0017 403.588 95.0017 403.012C95.0017 402.46 95.1137 401.956 95.3377 401.5C95.5697 401.036 95.9017 400.672 96.3337 400.408C96.7737 400.136 97.2897 400 97.8817 400C98.6337 400 99.2417 400.22 99.7057 400.66C100.178 401.1 100.414 401.708 100.414 402.484C100.414 402.684 100.398 402.876 100.366 403.06H96.1057C96.1777 403.82 96.4097 404.36 96.8017 404.68C97.1937 405 97.6977 405.16 98.3137 405.16C98.9297 405.16 99.4937 405.044 100.006 404.812L100.15 405.664C99.4697 405.968 98.8137 406.12 98.1817 406.12ZM99.2977 402.316C99.2977 401.892 99.1777 401.56 98.9377 401.32C98.6977 401.08 98.3377 400.96 97.8577 400.96C97.3937 400.96 97.0297 401.076 96.7657 401.308C96.5017 401.532 96.3137 401.868 96.2017 402.316H99.2977ZM102.96 399.244C102.696 399.46 102.468 399.62 102.276 399.724C102.092 399.828 101.904 399.912 101.712 399.976L101.52 398.908C101.856 398.796 102.188 398.62 102.516 398.38C102.852 398.132 103.108 397.872 103.284 397.6H104.064V406H102.96V399.244Z" fill="white"/>
<path d="M0 158L375 158" stroke="#4B4F56"/>
<circle opacity="0.3" cx="346.5" cy="239.5" r="12.5" fill="url(#paint0_linear)"/>
<path d="M25 231.5C29.1355 231.5 32.5 234.865 32.5 239C32.5 243.135 29.1355 246.5 25 246.5C20.8645 246.5 17.5 243.135 17.5 239C17.5 234.865 20.8645 231.5 25 231.5ZM25 230C20.0297 230 16 234.03 16 239C16 243.97 20.0297 248 25 248C29.9703 248 34 243.97 34 239C34 234.03 29.9703 230 25 230ZM20.5 236.75C20.5 236.336 20.836 236 21.25 236C21.8125 236 22.2483 236.632 21.8492 237.198C21.6482 237.483 21.697 237.654 21.8327 237.854C22.1192 238.276 22.5347 238.625 23.125 238.625C24.0708 238.625 24.5702 237.844 24.6737 237.182C24.7097 236.952 24.73 236.779 24.5103 236.565C24.3595 236.419 24.25 236.227 24.25 236C24.25 235.586 24.586 235.25 25 235.25C25.414 235.25 25.75 235.586 25.75 236C25.75 236.227 25.6405 236.419 25.489 236.565C25.2692 236.779 25.2895 236.952 25.3255 237.182C25.4298 237.844 25.9292 238.625 26.8742 238.625C27.4645 238.625 27.88 238.276 28.1672 237.853C28.303 237.654 28.351 237.482 28.1508 237.197C27.7517 236.632 28.1875 236 28.75 236C29.164 236 29.5 236.336 29.5 236.75C29.5 237.049 29.326 237.31 29.071 237.428C28.762 237.571 28.75 237.922 28.75 238.242V240.5H21.25V238.242C21.25 237.922 21.238 237.57 20.929 237.428C20.674 237.31 20.5 237.049 20.5 236.75ZM21.25 241.25V242.75H28.75V241.25H21.25Z" fill="#F2C94C"/>
<circle cx="346.5" cy="239.5" r="7.5" fill="url(#paint1_linear)"/>
<path d="M346.28 240.17C346.667 239.577 346.93 239.13 347.07 238.83C347.217 238.53 347.29 238.247 347.29 237.98C347.29 237.693 347.207 237.47 347.04 237.31C346.88 237.143 346.657 237.06 346.37 237.06C346.05 237.06 345.753 237.137 345.48 237.29C345.207 237.443 344.94 237.65 344.68 237.91L344.52 236.62C344.833 236.367 345.16 236.177 345.5 236.05C345.84 235.923 346.217 235.86 346.63 235.86C347.037 235.86 347.383 235.947 347.67 236.12C347.957 236.287 348.17 236.513 348.31 236.8C348.457 237.087 348.53 237.403 348.53 237.75C348.53 238.143 348.443 238.547 348.27 238.96C348.103 239.373 347.807 239.903 347.38 240.55L346.56 241.8H348.78V243H344.44L346.28 240.17Z" fill="white"/>
<circle opacity="0.3" cx="346.5" cy="347.5" r="12.5" fill="url(#paint2_linear)"/>
<circle cx="346.5" cy="347.5" r="7.5" fill="url(#paint3_linear)"/>
<path d="M346.28 348.17C346.667 347.577 346.93 347.13 347.07 346.83C347.217 346.53 347.29 346.247 347.29 345.98C347.29 345.693 347.207 345.47 347.04 345.31C346.88 345.143 346.657 345.06 346.37 345.06C346.05 345.06 345.753 345.137 345.48 345.29C345.207 345.443 344.94 345.65 344.68 345.91L344.52 344.62C344.833 344.367 345.16 344.177 345.5 344.05C345.84 343.923 346.217 343.86 346.63 343.86C347.037 343.86 347.383 343.947 347.67 344.12C347.957 344.287 348.17 344.513 348.31 344.8C348.457 345.087 348.53 345.403 348.53 345.75C348.53 346.143 348.443 346.547 348.27 346.96C348.103 347.373 347.807 347.903 347.38 348.55L346.56 349.8H348.78V351H344.44L346.28 348.17Z" fill="white"/>
<path d="M17.34 289.02L22.3467 291.167L17.3333 290.5L17.34 289.02ZM22.34 294.833L17.3333 296.98V295.5L22.34 294.833ZM16.0067 287L16 291.667L26 293L16 294.333L16.0067 299L30 293L16.0067 287Z" fill="white"/>
<path d="M28 59.4675L20.583 67.5L28 75.5325L25.7166 78L16 67.5L25.7166 57L28 59.4675Z" fill="white"/>
<path d="M340 77C340.962 77 341.75 76.1692 341.75 75.1538H338.25C338.25 76.1692 339.029 77 340 77ZM345.25 71.4615V66.8462C345.25 64.0123 343.815 61.64 341.312 61.0123V60.3846C341.312 59.6185 340.726 59 340 59C339.274 59 338.687 59.6185 338.687 60.3846V61.0123C336.176 61.64 334.75 64.0031 334.75 66.8462V71.4615L333 73.3077V74.2308H347V73.3077L345.25 71.4615Z" fill="white"/>
<path d="M309.2 61H294.8C293.81 61 293.009 61.7875 293.009 62.75L293 73.25C293 74.2125 293.81 75 294.8 75H309.2C310.19 75 311 74.2125 311 73.25V62.75C311 61.7875 310.19 61 309.2 61ZM309.2 64.5L302 68.875L294.8 64.5V62.75L302 67.125L309.2 62.75V64.5Z" fill="url(#paint4_linear)"/>
<circle opacity="0.3" cx="313.5" cy="59.5" r="12.5" fill="url(#paint5_linear)"/>
<circle cx="313.5" cy="59.5" r="7.5" fill="url(#paint6_linear)"/>
<path d="M313.28 60.17C313.667 59.5767 313.93 59.13 314.07 58.83C314.217 58.53 314.29 58.2467 314.29 57.98C314.29 57.6933 314.207 57.47 314.04 57.31C313.88 57.1433 313.657 57.06 313.37 57.06C313.05 57.06 312.753 57.1367 312.48 57.29C312.207 57.4433 311.94 57.65 311.68 57.91L311.52 56.62C311.833 56.3667 312.16 56.1767 312.5 56.05C312.84 55.9233 313.217 55.86 313.63 55.86C314.037 55.86 314.383 55.9467 314.67 56.12C314.957 56.2867 315.17 56.5133 315.31 56.8C315.457 57.0867 315.53 57.4033 315.53 57.75C315.53 58.1433 315.443 58.5467 315.27 58.96C315.103 59.3733 314.807 59.9033 314.38 60.55L313.56 61.8H315.78V63H311.44L313.28 60.17Z" fill="white"/>
<rect x="16" y="115" width="343" height="29" rx="10" fill="white" fill-opacity="0.1"/>
<path d="M349.568 130.805H348.963L348.749 130.589C349.499 129.676 349.951 128.492 349.951 127.203C349.951 124.329 347.723 122 344.975 122C342.227 122 340 124.329 340 127.203C340 130.077 342.227 132.406 344.975 132.406C346.208 132.406 347.341 131.934 348.213 131.149L348.42 131.373V132.006L352.247 136L353.388 134.807L349.568 130.805ZM344.975 130.805C343.069 130.805 341.531 129.196 341.531 127.203C341.531 125.21 343.069 123.601 344.975 123.601C346.881 123.601 348.42 125.21 348.42 127.203C348.42 129.196 346.881 130.805 344.975 130.805Z" fill="#969696" fill-opacity="0.7"/>
<path d="M174.42 133.14C174.007 133.14 173.587 133.093 173.16 133C172.733 132.913 172.39 132.81 172.13 132.69L172.26 131.68C172.593 131.84 172.97 131.98 173.39 132.1C173.81 132.22 174.227 132.28 174.64 132.28C175.107 132.28 175.467 132.197 175.72 132.03C175.98 131.857 176.11 131.6 176.11 131.26C176.11 131.007 176.043 130.797 175.91 130.63C175.783 130.457 175.593 130.313 175.34 130.2C175.093 130.08 174.747 129.953 174.3 129.82C173.847 129.687 173.47 129.543 173.17 129.39C172.87 129.237 172.627 129.027 172.44 128.76C172.26 128.493 172.17 128.157 172.17 127.75C172.17 127.183 172.387 126.727 172.82 126.38C173.26 126.033 173.877 125.86 174.67 125.86C175.097 125.86 175.5 125.907 175.88 126C176.267 126.093 176.603 126.207 176.89 126.34L176.79 127.35C176.417 127.13 176.057 126.97 175.71 126.87C175.363 126.77 175.003 126.72 174.63 126.72C174.197 126.72 173.85 126.8 173.59 126.96C173.337 127.12 173.21 127.367 173.21 127.7C173.21 127.927 173.267 128.113 173.38 128.26C173.5 128.407 173.67 128.533 173.89 128.64C174.11 128.74 174.417 128.85 174.81 128.97C175.597 129.21 176.183 129.497 176.57 129.83C176.957 130.157 177.15 130.61 177.15 131.19C177.15 131.803 176.92 132.283 176.46 132.63C176 132.97 175.32 133.14 174.42 133.14ZM180.92 133.1C180.36 133.1 179.88 132.987 179.48 132.76C179.087 132.527 178.787 132.213 178.58 131.82C178.373 131.427 178.27 130.99 178.27 130.51C178.27 130.05 178.363 129.63 178.55 129.25C178.743 128.863 179.02 128.56 179.38 128.34C179.747 128.113 180.177 128 180.67 128C181.297 128 181.803 128.183 182.19 128.55C182.583 128.917 182.78 129.423 182.78 130.07C182.78 130.237 182.767 130.397 182.74 130.55H179.19C179.25 131.183 179.443 131.633 179.77 131.9C180.097 132.167 180.517 132.3 181.03 132.3C181.543 132.3 182.013 132.203 182.44 132.01L182.56 132.72C181.993 132.973 181.447 133.1 180.92 133.1ZM181.85 129.93C181.85 129.577 181.75 129.3 181.55 129.1C181.35 128.9 181.05 128.8 180.65 128.8C180.263 128.8 179.96 128.897 179.74 129.09C179.52 129.277 179.363 129.557 179.27 129.93H181.85ZM185.327 133.1C184.874 133.1 184.507 132.967 184.227 132.7C183.954 132.433 183.817 132.093 183.817 131.68C183.817 131.06 184.11 130.617 184.697 130.35C185.284 130.083 185.967 129.943 186.747 129.93C186.747 129.49 186.66 129.193 186.487 129.04C186.32 128.88 186.05 128.8 185.677 128.8C185.47 128.8 185.264 128.833 185.057 128.9C184.85 128.96 184.627 129.073 184.387 129.24L184.257 128.51C184.457 128.357 184.704 128.233 184.997 128.14C185.29 128.047 185.597 128 185.917 128C186.337 128 186.67 128.073 186.917 128.22C187.17 128.367 187.354 128.61 187.467 128.95C187.587 129.29 187.647 129.757 187.647 130.35V131.35C187.647 131.617 187.657 131.82 187.677 131.96C187.704 132.093 187.757 132.197 187.837 132.27C187.917 132.343 188.04 132.38 188.207 132.38H188.297L188.157 133.1H188.087C187.807 133.1 187.587 133.073 187.427 133.02C187.267 132.967 187.144 132.89 187.057 132.79C186.977 132.69 186.9 132.553 186.827 132.38C186.414 132.86 185.914 133.1 185.327 133.1ZM185.497 132.38C185.737 132.38 185.967 132.32 186.187 132.2C186.414 132.08 186.6 131.92 186.747 131.72V130.55C186.027 130.577 185.51 130.673 185.197 130.84C184.89 131 184.737 131.263 184.737 131.63C184.737 131.883 184.804 132.073 184.937 132.2C185.077 132.32 185.264 132.38 185.497 132.38ZM189.492 128.1H190.232L190.342 128.91C190.595 128.597 190.835 128.367 191.062 128.22C191.295 128.073 191.539 128 191.792 128C191.872 128 191.949 128.01 192.022 128.03L191.932 129.02C191.845 129 191.745 128.99 191.632 128.99C191.385 128.99 191.152 129.047 190.932 129.16C190.712 129.267 190.552 129.393 190.452 129.54V133H189.492V128.1ZM195.279 133.1C194.746 133.1 194.286 132.99 193.899 132.77C193.519 132.55 193.232 132.25 193.039 131.87C192.846 131.483 192.749 131.053 192.749 130.58C192.749 129.807 192.966 129.183 193.399 128.71C193.839 128.237 194.489 128 195.349 128C195.856 128 196.302 128.097 196.689 128.29L196.549 129.08C196.142 128.893 195.736 128.8 195.329 128.8C194.796 128.8 194.386 128.953 194.099 129.26C193.812 129.56 193.669 129.987 193.669 130.54C193.669 131.093 193.806 131.527 194.079 131.84C194.359 132.153 194.769 132.31 195.309 132.31C195.742 132.31 196.159 132.21 196.559 132.01L196.679 132.73C196.532 132.83 196.329 132.917 196.069 132.99C195.816 133.063 195.552 133.1 195.279 133.1ZM200.41 128C201.03 128 201.503 128.203 201.83 128.61C202.157 129.017 202.32 129.57 202.32 130.27V133H201.42V130.38C201.42 129.84 201.32 129.443 201.12 129.19C200.927 128.93 200.623 128.8 200.21 128.8C199.957 128.8 199.723 128.86 199.51 128.98C199.297 129.093 199.117 129.257 198.97 129.47V133H198.06V125.5H198.97V128.57C199.163 128.383 199.373 128.243 199.6 128.15C199.833 128.05 200.103 128 200.41 128Z" fill="#969696" fill-opacity="0.7"/>
</g>
<defs>
<filter id="filter0_d" x="-20" y="698" width="415" height="133" filterUnits="userSpaceOnUse" color-interpolation-filters="sRGB">
<feFlood flood-opacity="0" result="BackgroundImageFix"/>
<feColorMatrix in="SourceAlpha" type="matrix" values="0 0 0 0 0 0 0 0 0 0 0 0 0 0 0 0 0 0 127 0"/>
<feOffset dy="-1"/>
<feGaussianBlur stdDeviation="10"/>
<feColorMatrix type="matrix" values="0 0 0 0 0 0 0 0 0 0 0 0 0 0 0 0 0 0 0.1 0"/>
<feBlend mode="normal" in2="BackgroundImageFix" result="effect1_dropShadow"/>
<feBlend mode="normal" in="SourceGraphic" in2="effect1_dropShadow" result="shape"/>
</filter>
<linearGradient id="paint0_linear" x1="346.5" y1="227" x2="346.5" y2="252" gradientUnits="userSpaceOnUse">
<stop stop-color="#926CB3"/>
<stop offset="1" stop-color="#E18B8B"/>
</linearGradient>
<linearGradient id="paint1_linear" x1="346.5" y1="232" x2="346.5" y2="247" gradientUnits="userSpaceOnUse">
<stop stop-color="#926CB3"/>
<stop offset="1" stop-color="#E18B8B"/>
</linearGradient>
<linearGradient id="paint2_linear" x1="346.5" y1="335" x2="346.5" y2="360" gradientUnits="userSpaceOnUse">
<stop stop-color="#926CB3"/>
<stop offset="1" stop-color="#E18B8B"/>
</linearGradient>
<linearGradient id="paint3_linear" x1="346.5" y1="340" x2="346.5" y2="355" gradientUnits="userSpaceOnUse">
<stop stop-color="#926CB3"/>
<stop offset="1" stop-color="#E18B8B"/>
</linearGradient>
<linearGradient id="paint4_linear" x1="302" y1="61" x2="302" y2="75" gradientUnits="userSpaceOnUse">
<stop stop-color="#926CB3"/>
<stop offset="1" stop-color="#E18B8B"/>
</linearGradient>
<linearGradient id="paint5_linear" x1="313.5" y1="47" x2="313.5" y2="72" gradientUnits="userSpaceOnUse">
<stop stop-color="#926CB3"/>
<stop offset="1" stop-color="#E18B8B"/>
</linearGradient>
<linearGradient id="paint6_linear" x1="313.5" y1="52" x2="313.5" y2="67" gradientUnits="userSpaceOnUse">
<stop stop-color="#926CB3"/>
<stop offset="1" stop-color="#E18B8B"/>
</linearGradient>
<clipPath id="clip0">
<rect width="375" height="812" fill="white"/>
</clipPath>
</defs>
</svg>
