<svg width="375" height="812" viewBox="0 0 375 812" fill="none" xmlns="http://www.w3.org/2000/svg">
<rect width="375" height="812" fill="#36393E"/>
<rect x="120" y="799" width="135" height="5" rx="2.5" fill="#D6D9E4"/>
<path fill-rule="evenodd" clip-rule="evenodd" d="M40 0H0V40C0 17.9086 17.9086 0 40 0ZM78 0L78.8918 0.216238C80.7796 0.67396 82.3333 2.08608 83.0044 3.9C83.0375 3.98943 83.0457 4.08563 83.0455 4.18098L83.0391 7.96098C83.0391 20.7025 93.3365 31 106.039 31H268.961C281.664 31 291.961 20.7025 291.961 8L291.954 4.18082C291.954 4.08452 291.969 3.99048 292.002 3.9C292.668 2.07301 294.211 0.676168 296.108 0.216238L297 0H78ZM335 0C357.091 0 375 17.9086 375 40V0H335ZM375 772C375 794.091 357.091 812 335 812H375V772ZM40 812C17.9086 812 0 794.091 0 772V812H40Z" fill="black"/>
<path opacity="0.35" d="M336.5 20.0002C336.5 18.8035 337.47 17.8335 338.667 17.8335H355.333C356.53 17.8335 357.5 18.8035 357.5 20.0002V26.0002C357.5 27.1968 356.53 28.1668 355.333 28.1668H338.667C337.47 28.1668 336.5 27.1968 336.5 26.0002V20.0002Z" stroke="white"/>
<path opacity="0.4" d="M359 21V25C359.805 24.6612 360.328 23.8731 360.328 23C360.328 22.1269 359.805 21.3388 359 21Z" fill="white"/>
<path d="M338 20.6668C338 19.9305 338.597 19.3335 339.333 19.3335H354.667C355.403 19.3335 356 19.9304 356 20.6668V25.3335C356 26.0699 355.403 26.6668 354.667 26.6668H339.333C338.597 26.6668 338 26.0699 338 25.3335V20.6668Z" fill="white"/>
<path d="M323.33 19.6079C325.546 19.608 327.678 20.4594 329.283 21.9862C329.404 22.1041 329.598 22.1026 329.717 21.9829L330.873 20.8162C330.933 20.7555 330.967 20.6733 330.966 20.5877C330.966 20.5021 330.931 20.4202 330.87 20.3602C326.655 16.3207 320.005 16.3207 315.79 20.3602C315.729 20.4202 315.694 20.502 315.694 20.5876C315.693 20.6732 315.727 20.7555 315.787 20.8162L316.943 21.9829C317.062 22.1028 317.256 22.1043 317.377 21.9862C318.983 20.4593 321.114 19.6079 323.33 19.6079Z" fill="white"/>
<path d="M323.33 23.4035C324.548 23.4034 325.722 23.8559 326.624 24.6731C326.746 24.7891 326.939 24.7866 327.058 24.6675L328.212 23.5008C328.273 23.4396 328.307 23.3566 328.306 23.2703C328.305 23.1841 328.27 23.1017 328.208 23.0418C325.459 20.4854 321.203 20.4854 318.455 23.0418C318.393 23.1017 318.358 23.1841 318.357 23.2704C318.356 23.3567 318.39 23.4397 318.451 23.5008L319.605 24.6675C319.724 24.7866 319.917 24.7891 320.039 24.6731C320.94 23.8565 322.114 23.404 323.33 23.4035Z" fill="white"/>
<path d="M325.549 26.188C325.611 26.1274 325.645 26.044 325.643 25.9575C325.642 25.871 325.604 25.7891 325.54 25.731C324.264 24.6522 322.396 24.6522 321.121 25.731C321.056 25.789 321.019 25.8709 321.017 25.9575C321.015 26.044 321.049 26.1274 321.111 26.188L323.109 28.2037C323.167 28.2629 323.247 28.2963 323.33 28.2963C323.414 28.2963 323.493 28.2629 323.552 28.2037L325.549 26.188Z" fill="white"/>
<path d="M294.667 24.333H295.667C296.219 24.333 296.667 24.7807 296.667 25.333V27.333C296.667 27.8853 296.219 28.333 295.667 28.333H294.667C294.114 28.333 293.667 27.8853 293.667 27.333V25.333C293.667 24.7807 294.114 24.333 294.667 24.333Z" fill="white"/>
<path d="M299.333 22.333H300.333C300.885 22.333 301.333 22.7807 301.333 23.333V27.333C301.333 27.8853 300.885 28.333 300.333 28.333H299.333C298.781 28.333 298.333 27.8853 298.333 27.333V23.333C298.333 22.7807 298.781 22.333 299.333 22.333Z" fill="white"/>
<path d="M304 20H305C305.552 20 306 20.4477 306 21V27.3333C306 27.8856 305.552 28.3333 305 28.3333H304C303.448 28.3333 303 27.8856 303 27.3333V21C303 20.4477 303.448 20 304 20Z" fill="white"/>
<path d="M308.667 17.6665H309.667C310.219 17.6665 310.667 18.1142 310.667 18.6665V27.3332C310.667 27.8855 310.219 28.3332 309.667 28.3332H308.667C308.114 28.3332 307.667 27.8855 307.667 27.3332V18.6665C307.667 18.1142 308.114 17.6665 308.667 17.6665V17.6665Z" fill="white"/>
<path d="M39.5278 17.29C40.2478 17.29 40.8828 17.455 41.4328 17.785C41.9828 18.105 42.4078 18.56 42.7078 19.15C43.0078 19.74 43.1578 20.425 43.1578 21.205C43.1578 22.225 42.9228 23.19 42.4528 24.1C41.9928 25 41.4078 25.78 40.6978 26.44C39.9878 27.1 39.2578 27.62 38.5078 28L37.1728 26.95C37.8628 26.61 38.5828 26.12 39.3328 25.48C40.0928 24.84 40.6578 24.12 41.0278 23.32C40.5278 23.65 39.9028 23.815 39.1528 23.815C38.5728 23.815 38.0478 23.68 37.5778 23.41C37.1078 23.14 36.7378 22.765 36.4678 22.285C36.2078 21.805 36.0778 21.26 36.0778 20.65C36.0778 19.99 36.2178 19.405 36.4978 18.895C36.7778 18.385 37.1778 17.99 37.6978 17.71C38.2178 17.43 38.8278 17.29 39.5278 17.29ZM39.4978 22.165C39.9778 22.165 40.3728 22.015 40.6828 21.715C40.9928 21.415 41.1478 21.035 41.1478 20.575C41.1478 20.115 40.9928 19.73 40.6828 19.42C40.3728 19.1 39.9778 18.94 39.4978 18.94C39.0278 18.94 38.6328 19.1 38.3128 19.42C38.0028 19.73 37.8478 20.115 37.8478 20.575C37.8478 21.035 38.0028 21.415 38.3128 21.715C38.6328 22.015 39.0278 22.165 39.4978 22.165ZM44.1707 20.5H46.1207V22.54H44.1707V20.5ZM44.1707 25.96H46.1207V28H44.1707V25.96ZM55.0409 24.04V25.6H53.6909V28H51.8459V25.6H46.6109L52.3859 17.5H53.6909V24.04H55.0409ZM51.8459 24.04V20.815L49.5809 24.04H51.8459ZM57.5651 20.215C57.1451 20.495 56.7051 20.675 56.2451 20.755L56.0801 19.135C56.4101 19.065 56.7801 18.865 57.1901 18.535C57.6001 18.195 57.8751 17.85 58.0151 17.5H59.4851V28H57.5651V20.215Z" fill="white"/>
<path d="M82.0928 106.6H91.9488V109.328H84.9748V112.606H90.3868V115.334H84.9748V119.272H92.1688V122H82.0928V106.6ZM100.715 110.824C102.079 110.824 103.113 111.279 103.817 112.188C104.521 113.097 104.873 114.322 104.873 115.862V122H102.145V116.082C102.145 115.055 101.969 114.3 101.617 113.816C101.28 113.317 100.73 113.068 99.9673 113.068C99.1313 113.068 98.442 113.383 97.8993 114.014V122H95.1713V111H97.7233L97.7673 111.77C98.6913 111.139 99.674 110.824 100.715 110.824ZM111.867 122.22C110.899 122.22 110.166 121.941 109.667 121.384C109.168 120.812 108.919 120.13 108.919 119.338V113.244H107.357L107.599 111H108.919V108.58L111.647 108.294V111H114.067V113.244H111.647V118.216C111.647 118.803 111.676 119.213 111.735 119.448C111.808 119.668 111.948 119.815 112.153 119.888C112.373 119.947 112.762 119.976 113.319 119.976H114.067L113.825 122.22H111.867ZM122.246 122.22C120.97 122.22 119.877 121.963 118.968 121.45C118.073 120.922 117.398 120.225 116.944 119.36C116.504 118.48 116.284 117.505 116.284 116.434C116.284 115.407 116.496 114.469 116.922 113.618C117.347 112.767 117.963 112.093 118.77 111.594C119.576 111.081 120.537 110.824 121.652 110.824C122.678 110.824 123.544 111.037 124.248 111.462C124.966 111.887 125.502 112.459 125.854 113.178C126.22 113.897 126.404 114.703 126.404 115.598C126.404 116.038 126.345 116.537 126.228 117.094H119.122C119.268 118.062 119.65 118.788 120.266 119.272C120.882 119.741 121.622 119.976 122.488 119.976C123.676 119.976 124.776 119.675 125.788 119.074L125.92 121.384C125.45 121.633 124.9 121.839 124.27 122C123.654 122.147 122.979 122.22 122.246 122.22ZM123.632 115.246C123.632 114.674 123.47 114.168 123.148 113.728C122.825 113.288 122.326 113.068 121.652 113.068C120.977 113.068 120.434 113.266 120.024 113.662C119.613 114.058 119.334 114.586 119.188 115.246H123.632ZM129.366 111H131.918L131.984 112.166C132.307 111.799 132.717 111.477 133.216 111.198C133.729 110.919 134.265 110.78 134.822 110.78C134.998 110.78 135.159 110.795 135.306 110.824L135.108 113.508C134.829 113.435 134.514 113.398 134.162 113.398C133.707 113.398 133.289 113.508 132.908 113.728C132.527 113.933 132.255 114.19 132.094 114.498V122H129.366V111ZM147.091 121.274L142.515 111H145.551L148.367 118.084L151.227 111H154.263L147.377 127.324H144.649L147.091 121.274ZM161.443 122.22C160.284 122.22 159.28 121.963 158.429 121.45C157.578 120.937 156.926 120.247 156.471 119.382C156.016 118.517 155.789 117.563 155.789 116.522C155.789 115.481 156.016 114.52 156.471 113.64C156.926 112.76 157.578 112.063 158.429 111.55C159.28 111.037 160.284 110.78 161.443 110.78C162.602 110.78 163.606 111.037 164.457 111.55C165.308 112.063 165.96 112.76 166.415 113.64C166.87 114.52 167.097 115.481 167.097 116.522C167.097 117.563 166.87 118.517 166.415 119.382C165.96 120.247 165.308 120.937 164.457 121.45C163.606 121.963 162.602 122.22 161.443 122.22ZM161.443 119.976C162.338 119.976 163.034 119.661 163.533 119.03C164.046 118.399 164.303 117.563 164.303 116.522C164.303 115.466 164.046 114.623 163.533 113.992C163.034 113.347 162.338 113.024 161.443 113.024C160.548 113.024 159.844 113.347 159.331 113.992C158.832 114.623 158.583 115.466 158.583 116.522C158.583 117.563 158.832 118.399 159.331 119.03C159.844 119.661 160.548 119.976 161.443 119.976ZM179.688 111V122H177.136L177.092 121.34C176.755 121.589 176.366 121.802 175.926 121.978C175.486 122.139 175.061 122.22 174.65 122.22C173.022 122.22 171.834 121.751 171.086 120.812C170.353 119.873 169.986 118.575 169.986 116.918V111H172.714V116.918C172.714 117.945 172.883 118.707 173.22 119.206C173.572 119.69 174.129 119.932 174.892 119.932C175.743 119.932 176.432 119.624 176.96 119.008V111H179.688ZM183.335 111H185.887L185.953 112.166C186.275 111.799 186.686 111.477 187.185 111.198C187.698 110.919 188.233 110.78 188.791 110.78C188.967 110.78 189.128 110.795 189.275 110.824L189.077 113.508C188.798 113.435 188.483 113.398 188.131 113.398C187.676 113.398 187.258 113.508 186.877 113.728C186.495 113.933 186.224 114.19 186.063 114.498V122H183.335V111ZM198.156 106.6H203.634C207.286 106.6 209.112 108.257 209.112 111.572C209.112 113.288 208.65 114.564 207.726 115.4C206.802 116.236 205.46 116.654 203.7 116.654H200.972V122H198.156V106.6ZM203.37 114.3C204.338 114.3 205.056 114.08 205.526 113.64C206.01 113.2 206.252 112.525 206.252 111.616C206.252 110.707 206.01 110.039 205.526 109.614C205.042 109.174 204.301 108.954 203.304 108.954H200.972V114.3H203.37ZM212.361 106.6H215.177V122H212.361V106.6ZM219.67 106.6H222.442L229.02 116.544V106.6H231.836V122H229.526L222.486 111.44V122H219.67V106.6ZM249.34 122.308C247.786 122.308 246.407 121.978 245.204 121.318C244.016 120.658 243.092 119.727 242.432 118.524C241.772 117.307 241.442 115.899 241.442 114.3C241.442 112.716 241.78 111.323 242.454 110.12C243.144 108.903 244.09 107.964 245.292 107.304C246.51 106.629 247.888 106.292 249.428 106.292C250.91 106.292 252.237 106.593 253.41 107.194L253.102 109.878C252.472 109.599 251.863 109.387 251.276 109.24C250.704 109.079 250.081 108.998 249.406 108.998C247.837 108.998 246.627 109.482 245.776 110.45C244.94 111.418 244.522 112.701 244.522 114.3C244.522 115.899 244.933 117.182 245.754 118.15C246.59 119.118 247.786 119.602 249.34 119.602C250.03 119.602 250.66 119.529 251.232 119.382C251.819 119.235 252.442 119.015 253.102 118.722L253.41 121.406C252.134 122.007 250.778 122.308 249.34 122.308ZM261.234 122.22C260.075 122.22 259.07 121.963 258.22 121.45C257.369 120.937 256.716 120.247 256.262 119.382C255.807 118.517 255.58 117.563 255.58 116.522C255.58 115.481 255.807 114.52 256.262 113.64C256.716 112.76 257.369 112.063 258.22 111.55C259.07 111.037 260.075 110.78 261.234 110.78C262.392 110.78 263.397 111.037 264.248 111.55C265.098 112.063 265.751 112.76 266.206 113.64C266.66 114.52 266.888 115.481 266.888 116.522C266.888 117.563 266.66 118.517 266.206 119.382C265.751 120.247 265.098 120.937 264.248 121.45C263.397 121.963 262.392 122.22 261.234 122.22ZM261.234 119.976C262.128 119.976 262.825 119.661 263.324 119.03C263.837 118.399 264.094 117.563 264.094 116.522C264.094 115.466 263.837 114.623 263.324 113.992C262.825 113.347 262.128 113.024 261.234 113.024C260.339 113.024 259.635 113.347 259.122 113.992C258.623 114.623 258.374 115.466 258.374 116.522C258.374 117.563 258.623 118.399 259.122 119.03C259.635 119.661 260.339 119.976 261.234 119.976ZM279.919 105.5V122H277.345L277.301 121.296C276.875 121.604 276.428 121.839 275.959 122C275.504 122.147 274.961 122.22 274.331 122.22C273.26 122.22 272.336 121.963 271.559 121.45C270.796 120.937 270.217 120.247 269.821 119.382C269.425 118.517 269.227 117.563 269.227 116.522C269.227 115.481 269.425 114.527 269.821 113.662C270.217 112.797 270.796 112.107 271.559 111.594C272.336 111.081 273.26 110.824 274.331 110.824C275.401 110.824 276.355 111.117 277.191 111.704V105.5H279.919ZM274.727 119.976C275.592 119.976 276.237 119.668 276.663 119.052C277.103 118.436 277.323 117.593 277.323 116.522C277.323 115.451 277.103 114.608 276.663 113.992C276.237 113.376 275.592 113.068 274.727 113.068C273.876 113.068 273.209 113.383 272.725 114.014C272.255 114.645 272.021 115.481 272.021 116.522C272.021 117.563 272.255 118.399 272.725 119.03C273.209 119.661 273.876 119.976 274.727 119.976ZM288.857 122.22C287.581 122.22 286.488 121.963 285.579 121.45C284.684 120.922 284.01 120.225 283.555 119.36C283.115 118.48 282.895 117.505 282.895 116.434C282.895 115.407 283.108 114.469 283.533 113.618C283.958 112.767 284.574 112.093 285.381 111.594C286.188 111.081 287.148 110.824 288.263 110.824C289.29 110.824 290.155 111.037 290.859 111.462C291.578 111.887 292.113 112.459 292.465 113.178C292.832 113.897 293.015 114.703 293.015 115.598C293.015 116.038 292.956 116.537 292.839 117.094H285.733C285.88 118.062 286.261 118.788 286.877 119.272C287.493 119.741 288.234 119.976 289.099 119.976C290.287 119.976 291.387 119.675 292.399 119.074L292.531 121.384C292.062 121.633 291.512 121.839 290.881 122C290.265 122.147 289.59 122.22 288.857 122.22ZM290.243 115.246C290.243 114.674 290.082 114.168 289.759 113.728C289.436 113.288 288.938 113.068 288.263 113.068C287.588 113.068 287.046 113.266 286.635 113.662C286.224 114.058 285.946 114.586 285.799 115.246H290.243Z" fill="white"/>
<circle cx="87" cy="270" r="30" fill="#32353B"/>
<circle cx="187" cy="270" r="30" fill="#32353B"/>
<circle cx="287" cy="270" r="30" fill="#32353B"/>
<circle cx="87" cy="366" r="30" fill="#32353B"/>
<circle cx="187" cy="366" r="30" fill="#32353B"/>
<circle cx="287" cy="366" r="30" fill="#32353B"/>
<circle cx="87" cy="462" r="30" fill="#32353B"/>
<circle cx="187" cy="462" r="30" fill="#32353B"/>
<circle cx="287" cy="462" r="30" fill="#32353B"/>
<circle cx="187" cy="558" r="30" fill="#32353B"/>
<circle cx="287" cy="558" r="30" fill="#32353B"/>
<path d="M85.6075 266.582C84.9915 266.993 84.3461 267.257 83.6715 267.374L83.4295 264.998C83.9135 264.895 84.4561 264.602 85.0575 264.118C85.6588 263.619 86.0621 263.113 86.2675 262.6H88.4235V278H85.6075V266.582Z" fill="white" fill-opacity="0.5"/>
<path d="M186.194 271.774C187.044 270.469 187.624 269.486 187.932 268.826C188.254 268.166 188.416 267.543 188.416 266.956C188.416 266.325 188.232 265.834 187.866 265.482C187.514 265.115 187.022 264.932 186.392 264.932C185.688 264.932 185.035 265.101 184.434 265.438C183.832 265.775 183.246 266.23 182.674 266.802L182.322 263.964C183.011 263.407 183.73 262.989 184.478 262.71C185.226 262.431 186.054 262.292 186.964 262.292C187.858 262.292 188.621 262.483 189.252 262.864C189.882 263.231 190.352 263.729 190.66 264.36C190.982 264.991 191.144 265.687 191.144 266.45C191.144 267.315 190.953 268.203 190.572 269.112C190.205 270.021 189.552 271.187 188.614 272.61L186.81 275.36H191.694V278H182.146L186.194 271.774Z" fill="white" fill-opacity="0.5"/>
<path d="M288.88 269.86C289.731 270.139 290.398 270.601 290.882 271.246C291.381 271.891 291.63 272.683 291.63 273.622C291.63 275.103 291.132 276.255 290.134 277.076C289.152 277.897 287.824 278.308 286.152 278.308C285.302 278.308 284.495 278.213 283.732 278.022C282.984 277.831 282.346 277.597 281.818 277.318L282.5 274.942C283.762 275.573 284.979 275.888 286.152 275.888C286.974 275.888 287.619 275.697 288.088 275.316C288.572 274.935 288.814 274.37 288.814 273.622C288.814 272.067 287.868 271.29 285.976 271.29H284.414V268.65H285.954C286.746 268.65 287.348 268.474 287.758 268.122C288.184 267.755 288.396 267.242 288.396 266.582C288.396 266.01 288.198 265.555 287.802 265.218C287.421 264.881 286.871 264.712 286.152 264.712C285.566 264.712 284.994 264.8 284.436 264.976C283.894 265.152 283.329 265.409 282.742 265.746L282.324 263.26C283.556 262.615 284.928 262.292 286.438 262.292C287.905 262.292 289.042 262.659 289.848 263.392C290.67 264.111 291.08 265.057 291.08 266.23C291.08 267.066 290.89 267.799 290.508 268.43C290.127 269.046 289.584 269.523 288.88 269.86Z" fill="white" fill-opacity="0.5"/>
<path d="M92.686 368.192V370.48H90.706V374H88V370.48H80.322L88.792 358.6H90.706V368.192H92.686ZM88 368.192V363.462L84.678 368.192H88Z" fill="white" fill-opacity="0.5"/>
<path d="M186.812 364.32C188.308 364.32 189.51 364.76 190.42 365.64C191.344 366.505 191.806 367.693 191.806 369.204C191.806 370.245 191.571 371.147 191.102 371.91C190.647 372.673 190.009 373.259 189.188 373.67C188.381 374.081 187.45 374.286 186.394 374.286C184.78 374.286 183.372 373.875 182.17 373.054L182.83 370.502C183.416 370.869 183.988 371.155 184.546 371.36C185.103 371.551 185.704 371.646 186.35 371.646C187.186 371.646 187.846 371.426 188.33 370.986C188.828 370.546 189.078 369.952 189.078 369.204C189.078 368.397 188.792 367.767 188.22 367.312C187.662 366.857 186.863 366.63 185.822 366.63C185 366.63 184.04 366.733 182.94 366.938L183.93 358.6H191.19L191.014 361.328H186.042L185.668 364.386C186.02 364.342 186.401 364.32 186.812 364.32Z" fill="white" fill-opacity="0.5"/>
<path d="M287.253 364.738C288.104 364.738 288.874 364.936 289.563 365.332C290.253 365.728 290.788 366.278 291.169 366.982C291.565 367.686 291.763 368.485 291.763 369.38C291.763 370.348 291.558 371.206 291.147 371.954C290.737 372.702 290.15 373.281 289.387 373.692C288.625 374.103 287.73 374.308 286.703 374.308C285.647 374.308 284.716 374.073 283.909 373.604C283.103 373.12 282.479 372.445 282.039 371.58C281.599 370.715 281.379 369.71 281.379 368.566C281.379 367.011 281.731 365.552 282.435 364.188C283.139 362.824 284.027 361.643 285.097 360.646C286.183 359.649 287.29 358.864 288.419 358.292L290.377 359.832C289.307 360.36 288.192 361.123 287.033 362.12C285.875 363.103 285.024 364.225 284.481 365.486C285.244 364.987 286.168 364.738 287.253 364.738ZM286.747 371.976C287.451 371.976 288.038 371.741 288.507 371.272C288.977 370.788 289.211 370.194 289.211 369.49C289.211 368.801 288.977 368.229 288.507 367.774C288.038 367.305 287.451 367.07 286.747 367.07C286.029 367.07 285.435 367.305 284.965 367.774C284.511 368.229 284.283 368.801 284.283 369.49C284.283 370.194 284.518 370.788 284.987 371.272C285.457 371.741 286.043 371.976 286.747 371.976Z" fill="white" fill-opacity="0.5"/>
<path d="M92.4586 454.6L86.0346 470H83.0866L88.4106 457.24H82.3386V454.6H92.4586Z" fill="white" fill-opacity="0.5"/>
<path d="M190.085 461.618C190.819 462.014 191.391 462.557 191.801 463.246C192.212 463.935 192.417 464.713 192.417 465.578C192.417 466.502 192.197 467.323 191.757 468.042C191.317 468.761 190.687 469.318 189.865 469.714C189.044 470.11 188.091 470.308 187.005 470.308C185.905 470.308 184.945 470.11 184.123 469.714C183.317 469.318 182.693 468.761 182.253 468.042C181.813 467.323 181.593 466.502 181.593 465.578C181.593 464.698 181.799 463.921 182.209 463.246C182.635 462.557 183.221 462.014 183.969 461.618C183.441 461.251 183.031 460.797 182.737 460.254C182.444 459.697 182.297 459.095 182.297 458.45C182.297 457.731 182.466 457.057 182.803 456.426C183.141 455.795 183.661 455.282 184.365 454.886C185.069 454.49 185.949 454.292 187.005 454.292C188.061 454.292 188.934 454.49 189.623 454.886C190.313 455.282 190.819 455.795 191.141 456.426C191.464 457.057 191.625 457.731 191.625 458.45C191.625 459.11 191.493 459.711 191.229 460.254C190.965 460.797 190.584 461.251 190.085 461.618ZM187.005 456.492C186.301 456.492 185.751 456.675 185.355 457.042C184.959 457.394 184.761 457.871 184.761 458.472C184.761 459.044 184.959 459.521 185.355 459.902C185.766 460.283 186.316 460.474 187.005 460.474C187.695 460.474 188.223 460.283 188.589 459.902C188.971 459.521 189.161 459.044 189.161 458.472C189.161 457.871 188.971 457.394 188.589 457.042C188.223 456.675 187.695 456.492 187.005 456.492ZM187.005 467.888C187.885 467.888 188.575 467.668 189.073 467.228C189.572 466.773 189.821 466.165 189.821 465.402C189.821 464.683 189.565 464.097 189.051 463.642C188.553 463.187 187.871 462.96 187.005 462.96C186.14 462.96 185.451 463.187 184.937 463.642C184.439 464.097 184.189 464.683 184.189 465.402C184.189 466.165 184.439 466.773 184.937 467.228C185.436 467.668 186.125 467.888 187.005 467.888Z" fill="white" fill-opacity="0.5"/>
<path d="M186.999 566.308C185.709 566.308 184.572 565.971 183.589 565.296C182.621 564.621 181.866 563.668 181.323 562.436C180.781 561.204 180.509 559.781 180.509 558.168C180.509 556.628 180.781 555.264 181.323 554.076C181.866 552.873 182.629 551.942 183.611 551.282C184.594 550.622 185.723 550.292 186.999 550.292C188.29 550.292 189.427 550.629 190.409 551.304C191.392 551.964 192.147 552.888 192.675 554.076C193.218 555.264 193.489 556.628 193.489 558.168C193.489 559.781 193.218 561.204 192.675 562.436C192.147 563.668 191.392 564.621 190.409 565.296C189.427 565.971 188.29 566.308 186.999 566.308ZM186.999 563.778C188.114 563.778 189.001 563.316 189.661 562.392C190.336 561.468 190.673 560.06 190.673 558.168C190.673 556.408 190.336 555.073 189.661 554.164C188.987 553.24 188.099 552.778 186.999 552.778C185.899 552.778 185.012 553.24 184.337 554.164C183.663 555.073 183.325 556.408 183.325 558.168C183.325 560.045 183.655 561.453 184.315 562.392C184.99 563.316 185.885 563.778 186.999 563.778Z" fill="white" fill-opacity="0.5"/>
<path d="M286.439 454.292C287.495 454.292 288.427 454.534 289.233 455.018C290.04 455.487 290.663 456.155 291.103 457.02C291.543 457.885 291.763 458.89 291.763 460.034C291.763 461.53 291.419 462.945 290.729 464.28C290.055 465.6 289.197 466.744 288.155 467.712C287.114 468.68 286.043 469.443 284.943 470L282.985 468.46C283.997 467.961 285.053 467.243 286.153 466.304C287.268 465.365 288.097 464.309 288.639 463.136C287.906 463.62 286.989 463.862 285.889 463.862C285.039 463.862 284.269 463.664 283.579 463.268C282.89 462.872 282.347 462.322 281.951 461.618C281.57 460.914 281.379 460.115 281.379 459.22C281.379 458.252 281.585 457.394 281.995 456.646C282.406 455.898 282.993 455.319 283.755 454.908C284.518 454.497 285.413 454.292 286.439 454.292ZM286.395 461.442C287.099 461.442 287.679 461.222 288.133 460.782C288.588 460.342 288.815 459.785 288.815 459.11C288.815 458.435 288.588 457.871 288.133 457.416C287.679 456.947 287.099 456.712 286.395 456.712C285.706 456.712 285.127 456.947 284.657 457.416C284.203 457.871 283.975 458.435 283.975 459.11C283.975 459.785 284.203 460.342 284.657 460.782C285.127 461.222 285.706 461.442 286.395 461.442Z" fill="white" fill-opacity="0.5"/>
<path d="M296.917 543.125H281.292C280.573 543.125 280.01 543.49 279.635 544.042L274 552.5L279.635 560.948C280.01 561.5 280.573 561.875 281.292 561.875H296.917C298.062 561.875 299 560.938 299 559.792V545.208C299 544.062 298.062 543.125 296.917 543.125ZM293.792 556.24L292.323 557.708L288.583 553.969L284.844 557.708L283.375 556.24L287.115 552.5L283.375 548.76L284.844 547.292L288.583 551.031L292.323 547.292L293.792 548.76L290.052 552.5L293.792 556.24Z" fill="white" fill-opacity="0.5"/>
<path d="M274.859 568.4H276.931C277.475 568.4 277.957 568.512 278.379 568.736C278.8 568.955 279.128 569.277 279.363 569.704C279.597 570.125 279.715 570.624 279.715 571.2C279.715 571.776 279.597 572.277 279.363 572.704C279.128 573.125 278.8 573.448 278.379 573.672C277.957 573.891 277.475 574 276.931 574H274.859V568.4ZM276.931 573.312C277.555 573.312 278.035 573.123 278.371 572.744C278.712 572.36 278.883 571.845 278.883 571.2C278.883 570.555 278.712 570.043 278.371 569.664C278.035 569.28 277.555 569.088 276.931 569.088H275.619V573.312H276.931ZM282.752 574.08C282.304 574.08 281.92 573.989 281.6 573.808C281.286 573.621 281.046 573.371 280.88 573.056C280.715 572.741 280.632 572.392 280.632 572.008C280.632 571.64 280.707 571.304 280.856 571C281.011 570.691 281.232 570.448 281.52 570.272C281.814 570.091 282.158 570 282.552 570C283.054 570 283.459 570.147 283.768 570.44C284.083 570.733 284.24 571.139 284.24 571.656C284.24 571.789 284.23 571.917 284.208 572.04H281.368C281.416 572.547 281.571 572.907 281.832 573.12C282.094 573.333 282.43 573.44 282.84 573.44C283.251 573.44 283.627 573.363 283.968 573.208L284.064 573.776C283.611 573.979 283.174 574.08 282.752 574.08ZM283.496 571.544C283.496 571.261 283.416 571.04 283.256 570.88C283.096 570.72 282.856 570.64 282.536 570.64C282.227 570.64 281.984 570.717 281.808 570.872C281.632 571.021 281.507 571.245 281.432 571.544H283.496ZM286.374 574.08C286.022 574.08 285.763 573.989 285.598 573.808C285.438 573.627 285.358 573.403 285.358 573.136V568H286.078V572.72C286.078 572.955 286.091 573.125 286.118 573.232C286.15 573.339 286.209 573.411 286.294 573.448C286.379 573.485 286.518 573.504 286.71 573.504L286.606 574.08H286.374ZM289.498 574.08C289.05 574.08 288.666 573.989 288.346 573.808C288.031 573.621 287.791 573.371 287.626 573.056C287.46 572.741 287.378 572.392 287.378 572.008C287.378 571.64 287.452 571.304 287.602 571C287.756 570.691 287.978 570.448 288.266 570.272C288.559 570.091 288.903 570 289.298 570C289.799 570 290.204 570.147 290.514 570.44C290.828 570.733 290.986 571.139 290.986 571.656C290.986 571.789 290.975 571.917 290.954 572.04H288.114C288.162 572.547 288.316 572.907 288.578 573.12C288.839 573.333 289.175 573.44 289.586 573.44C289.996 573.44 290.372 573.363 290.714 573.208L290.81 573.776C290.356 573.979 289.919 574.08 289.498 574.08ZM290.242 571.544C290.242 571.261 290.162 571.04 290.002 570.88C289.842 570.72 289.602 570.64 289.282 570.64C288.972 570.64 288.73 570.717 288.554 570.872C288.378 571.021 288.252 571.245 288.178 571.544H290.242ZM293.463 574.08C293.117 574.08 292.858 573.989 292.687 573.808C292.522 573.627 292.439 573.405 292.439 573.144V570.64H291.767L291.831 570.08H292.439V569.112L293.159 569.04V570.08H294.191V570.64H293.159V572.704C293.159 572.976 293.175 573.163 293.207 573.264C293.239 573.365 293.306 573.432 293.407 573.464C293.514 573.491 293.706 573.504 293.983 573.504H294.167L294.111 574.08H293.463ZM297.056 574.08C296.608 574.08 296.224 573.989 295.904 573.808C295.589 573.621 295.349 573.371 295.184 573.056C295.018 572.741 294.936 572.392 294.936 572.008C294.936 571.64 295.01 571.304 295.16 571C295.314 570.691 295.536 570.448 295.824 570.272C296.117 570.091 296.461 570 296.856 570C297.357 570 297.762 570.147 298.072 570.44C298.386 570.733 298.544 571.139 298.544 571.656C298.544 571.789 298.533 571.917 298.512 572.04H295.672C295.72 572.547 295.874 572.907 296.136 573.12C296.397 573.333 296.733 573.44 297.144 573.44C297.554 573.44 297.93 573.363 298.272 573.208L298.368 573.776C297.914 573.979 297.477 574.08 297.056 574.08ZM297.8 571.544C297.8 571.261 297.72 571.04 297.56 570.88C297.4 570.72 297.16 570.64 296.84 570.64C296.53 570.64 296.288 570.717 296.112 570.872C295.936 571.021 295.81 571.245 295.736 571.544H297.8Z" fill="white" fill-opacity="0.5"/>
<circle cx="67" cy="184" r="5" fill="white"/>
<circle cx="115" cy="184" r="5" fill="white"/>
<circle cx="163" cy="184" r="5" fill="white"/>
<circle cx="211" cy="184" r="5" fill="white"/>
<circle cx="259" cy="184" r="5" fill="white"/>
<circle cx="307" cy="184" r="5" fill="white"/>
<path d="M28 59.4675L20.583 67.5L28 75.5325L25.7166 78L16 67.5L25.7166 57L28 59.4675Z" fill="white"/>
</svg>
