<svg width="375" height="812" viewBox="0 0 375 812" fill="none" xmlns="http://www.w3.org/2000/svg">
<g clip-path="url(#clip0)">
<rect width="375" height="812" fill="#36393E"/>
<path opacity="0.35" d="M338.667 17.8335H355.333C356.53 17.8335 357.5 18.8035 357.5 20.0002V26.0002C357.5 27.1968 356.53 28.1668 355.333 28.1668H338.667C337.47 28.1668 336.5 27.1968 336.5 26.0002V20.0002C336.5 18.8035 337.47 17.8335 338.667 17.8335Z" stroke="white"/>
<path opacity="0.4" d="M359 21V25C359.805 24.6612 360.328 23.8731 360.328 23C360.328 22.1269 359.805 21.3388 359 21" fill="white"/>
<path d="M338 20.6668C338 19.9305 338.597 19.3335 339.333 19.3335H354.667C355.403 19.3335 356 19.9304 356 20.6668V25.3335C356 26.0699 355.403 26.6668 354.667 26.6668H339.333C338.597 26.6668 338 26.0699 338 25.3335V20.6668Z" fill="white"/>
<path d="M323.33 19.6079C325.546 19.608 327.677 20.4594 329.283 21.9862C329.404 22.1041 329.597 22.1026 329.716 21.9829L330.872 20.8162C330.933 20.7555 330.966 20.6733 330.966 20.5877C330.965 20.5021 330.931 20.4202 330.87 20.3602C326.655 16.3207 320.005 16.3207 315.79 20.3602C315.729 20.4202 315.694 20.502 315.693 20.5876C315.693 20.6732 315.726 20.7555 315.787 20.8162L316.943 21.9829C317.062 22.1028 317.255 22.1043 317.376 21.9862C318.982 20.4593 321.114 19.6079 323.33 19.6079V19.6079Z" fill="white"/>
<path d="M323.331 23.4035C324.548 23.4034 325.722 23.8559 326.625 24.6731C326.747 24.7891 326.939 24.7866 327.058 24.6675L328.213 23.5008C328.274 23.4396 328.307 23.3566 328.306 23.2703C328.306 23.1841 328.27 23.1017 328.208 23.0418C325.46 20.4854 321.204 20.4854 318.456 23.0418C318.394 23.1017 318.358 23.1841 318.357 23.2704C318.357 23.3567 318.39 23.4397 318.451 23.5008L319.606 24.6675C319.725 24.7866 319.917 24.7891 320.039 24.6731C320.941 23.8565 322.114 23.404 323.331 23.4035V23.4035Z" fill="white"/>
<path d="M325.55 26.188C325.612 26.1274 325.646 26.044 325.644 25.9575C325.642 25.871 325.605 25.7891 325.54 25.731C324.265 24.6522 322.397 24.6522 321.121 25.731C321.057 25.789 321.019 25.8709 321.018 25.9575C321.016 26.044 321.05 26.1274 321.111 26.188L323.109 28.2037C323.168 28.2629 323.248 28.2963 323.331 28.2963C323.414 28.2963 323.494 28.2629 323.552 28.2037L325.55 26.188Z" fill="white"/>
<path d="M294.666 24.333H295.666C296.218 24.333 296.666 24.7807 296.666 25.333V27.333C296.666 27.8853 296.218 28.333 295.666 28.333H294.666C294.114 28.333 293.666 27.8853 293.666 27.333V25.333C293.666 24.7807 294.114 24.333 294.666 24.333V24.333Z" fill="white"/>
<path d="M299.333 22.333H300.333C300.885 22.333 301.333 22.7807 301.333 23.333V27.333C301.333 27.8853 300.885 28.333 300.333 28.333H299.333C298.781 28.333 298.333 27.8853 298.333 27.333V23.333C298.333 22.7807 298.781 22.333 299.333 22.333Z" fill="white"/>
<path d="M304 20H305C305.552 20 306 20.4477 306 21V27.3333C306 27.8856 305.552 28.3333 305 28.3333H304C303.448 28.3333 303 27.8856 303 27.3333V21C303 20.4477 303.448 20 304 20Z" fill="white"/>
<path d="M308.666 17.6665H309.666C310.218 17.6665 310.666 18.1142 310.666 18.6665V27.3332C310.666 27.8855 310.218 28.3332 309.666 28.3332H308.666C308.114 28.3332 307.666 27.8855 307.666 27.3332V18.6665C307.666 18.1142 308.114 17.6665 308.666 17.6665V17.6665Z" fill="white"/>
<path d="M39.5278 17.29C40.2478 17.29 40.8828 17.455 41.4328 17.785C41.9828 18.105 42.4078 18.56 42.7078 19.15C43.0078 19.74 43.1578 20.425 43.1578 21.205C43.1578 22.225 42.9228 23.19 42.4528 24.1C41.9928 25 41.4078 25.78 40.6978 26.44C39.9878 27.1 39.2578 27.62 38.5078 28L37.1728 26.95C37.8628 26.61 38.5828 26.12 39.3328 25.48C40.0928 24.84 40.6578 24.12 41.0278 23.32C40.5278 23.65 39.9028 23.815 39.1528 23.815C38.5728 23.815 38.0478 23.68 37.5778 23.41C37.1078 23.14 36.7378 22.765 36.4678 22.285C36.2078 21.805 36.0778 21.26 36.0778 20.65C36.0778 19.99 36.2178 19.405 36.4978 18.895C36.7778 18.385 37.1778 17.99 37.6978 17.71C38.2178 17.43 38.8278 17.29 39.5278 17.29ZM39.4978 22.165C39.9778 22.165 40.3728 22.015 40.6828 21.715C40.9928 21.415 41.1478 21.035 41.1478 20.575C41.1478 20.115 40.9928 19.73 40.6828 19.42C40.3728 19.1 39.9778 18.94 39.4978 18.94C39.0278 18.94 38.6328 19.1 38.3128 19.42C38.0028 19.73 37.8478 20.115 37.8478 20.575C37.8478 21.035 38.0028 21.415 38.3128 21.715C38.6328 22.015 39.0278 22.165 39.4978 22.165ZM44.1707 20.5H46.1207V22.54H44.1707V20.5ZM44.1707 25.96H46.1207V28H44.1707V25.96ZM55.0409 24.04V25.6H53.6909V28H51.8459V25.6H46.6109L52.3859 17.5H53.6909V24.04H55.0409ZM51.8459 24.04V20.815L49.5809 24.04H51.8459ZM57.5651 20.215C57.1451 20.495 56.7051 20.675 56.2451 20.755L56.0801 19.135C56.4101 19.065 56.7801 18.865 57.1901 18.535C57.6001 18.195 57.8751 17.85 58.0151 17.5H59.4851V28H57.5651V20.215Z" fill="white"/>
<path d="M28 59.4675L20.583 67.5L28 75.5325L25.7166 78L16 67.5L25.7166 57L28 59.4675Z" fill="white"/>
<path d="M159.505 61.4H161.809V74H159.505V61.4ZM175.083 64.856C176.283 64.856 177.171 65.222 177.747 65.954C178.335 66.674 178.629 67.688 178.629 68.996V74H176.397V69.158C176.397 68.306 176.265 67.682 176.001 67.286C175.737 66.89 175.305 66.692 174.705 66.692C174.117 66.692 173.673 66.896 173.373 67.304C173.073 67.7 172.923 68.264 172.923 68.996V74H170.691V69.158C170.691 68.306 170.553 67.682 170.277 67.286C170.001 66.89 169.563 66.692 168.963 66.692C168.255 66.692 167.673 66.95 167.217 67.466V74H164.985V65H166.893L166.965 65.72C167.781 65.144 168.663 64.856 169.611 64.856C170.763 64.856 171.621 65.27 172.185 66.098C172.497 65.702 172.905 65.396 173.409 65.18C173.913 64.964 174.471 64.856 175.083 64.856ZM186.228 64.856C187.08 64.856 187.812 65.066 188.424 65.486C189.036 65.906 189.498 66.47 189.81 67.178C190.122 67.886 190.278 68.666 190.278 69.518C190.278 70.37 190.122 71.15 189.81 71.858C189.498 72.566 189.036 73.13 188.424 73.55C187.812 73.97 187.08 74.18 186.228 74.18C185.688 74.18 185.226 74.12 184.842 74C184.47 73.892 184.11 73.712 183.762 73.46V78.356H181.53V65H183.33L183.564 65.828C183.948 65.504 184.35 65.264 184.77 65.108C185.19 64.94 185.676 64.856 186.228 64.856ZM185.886 72.344C186.546 72.344 187.062 72.086 187.434 71.57C187.806 71.054 187.992 70.37 187.992 69.518C187.992 68.666 187.806 67.982 187.434 67.466C187.062 66.95 186.546 66.692 185.886 66.692C185.142 66.692 184.584 66.944 184.212 67.448C183.84 67.952 183.654 68.642 183.654 69.518C183.654 70.394 183.84 71.084 184.212 71.588C184.584 72.092 185.142 72.344 185.886 72.344ZM196.816 74.18C195.868 74.18 195.046 73.97 194.35 73.55C193.654 73.13 193.12 72.566 192.748 71.858C192.376 71.15 192.19 70.37 192.19 69.518C192.19 68.666 192.376 67.88 192.748 67.16C193.12 66.44 193.654 65.87 194.35 65.45C195.046 65.03 195.868 64.82 196.816 64.82C197.764 64.82 198.586 65.03 199.282 65.45C199.978 65.87 200.512 66.44 200.884 67.16C201.256 67.88 201.442 68.666 201.442 69.518C201.442 70.37 201.256 71.15 200.884 71.858C200.512 72.566 199.978 73.13 199.282 73.55C198.586 73.97 197.764 74.18 196.816 74.18ZM196.816 72.344C197.548 72.344 198.118 72.086 198.526 71.57C198.946 71.054 199.156 70.37 199.156 69.518C199.156 68.654 198.946 67.964 198.526 67.448C198.118 66.92 197.548 66.656 196.816 66.656C196.084 66.656 195.508 66.92 195.088 67.448C194.68 67.964 194.476 68.654 194.476 69.518C194.476 70.37 194.68 71.054 195.088 71.57C195.508 72.086 196.084 72.344 196.816 72.344ZM203.896 65H205.984L206.038 65.954C206.302 65.654 206.638 65.39 207.046 65.162C207.466 64.934 207.904 64.82 208.36 64.82C208.504 64.82 208.636 64.832 208.756 64.856L208.594 67.052C208.366 66.992 208.108 66.962 207.82 66.962C207.448 66.962 207.106 67.052 206.794 67.232C206.482 67.4 206.26 67.61 206.128 67.862V74H203.896V65ZM213.671 74.18C212.879 74.18 212.279 73.952 211.871 73.496C211.463 73.028 211.259 72.47 211.259 71.822V66.836H209.981L210.179 65H211.259V63.02L213.491 62.786V65H215.471V66.836H213.491V70.904C213.491 71.384 213.515 71.72 213.563 71.912C213.623 72.092 213.737 72.212 213.905 72.272C214.085 72.32 214.403 72.344 214.859 72.344H215.471L215.273 74.18H213.671Z" fill="white"/>
<path d="M340 77C340.962 77 341.75 76.1692 341.75 75.1538H338.25C338.25 76.1692 339.029 77 340 77ZM345.25 71.4615V66.8462C345.25 64.0123 343.815 61.64 341.312 61.0123V60.3846C341.312 59.6185 340.726 59 340 59C339.274 59 338.687 59.6185 338.687 60.3846V61.0123C336.176 61.64 334.75 64.0031 334.75 66.8462V71.4615L333 73.3077V74.2308H347V73.3077L345.25 71.4615Z" fill="white"/>
<path d="M309.2 61H294.8C293.81 61 293.009 61.7875 293.009 62.75L293 73.25C293 74.2125 293.81 75 294.8 75H309.2C310.19 75 311 74.2125 311 73.25V62.75C311 61.7875 310.19 61 309.2 61ZM309.2 64.5L302 68.875L294.8 64.5V62.75L302 67.125L309.2 62.75V64.5Z" fill="white"/>
<circle opacity="0.3" cx="313.5" cy="59.5" r="12.5" fill="url(#paint0_linear)"/>
<circle cx="313.5" cy="59.5" r="7.5" fill="url(#paint1_linear)"/>
<path d="M313.28 60.17C313.667 59.5767 313.93 59.13 314.07 58.83C314.217 58.53 314.29 58.2467 314.29 57.98C314.29 57.6933 314.207 57.47 314.04 57.31C313.88 57.1433 313.657 57.06 313.37 57.06C313.05 57.06 312.753 57.1367 312.48 57.29C312.207 57.4433 311.94 57.65 311.68 57.91L311.52 56.62C311.833 56.3667 312.16 56.1767 312.5 56.05C312.84 55.9233 313.217 55.86 313.63 55.86C314.037 55.86 314.383 55.9467 314.67 56.12C314.957 56.2867 315.17 56.5133 315.31 56.8C315.457 57.0867 315.53 57.4033 315.53 57.75C315.53 58.1433 315.443 58.5467 315.27 58.96C315.103 59.3733 314.807 59.9033 314.38 60.55L313.56 61.8H315.78V63H311.44L313.28 60.17Z" fill="white"/>
<g filter="url(#filter0_d)">
<rect y="719" width="375" height="93" fill="#474A4F"/>
</g>
<path d="M27 734.375C27 733.069 28.125 732 29.5 732H48.25C48.9403 732 49.5 732.532 49.5 733.188V734.375H29.5V735.563H50.75C51.4403 735.563 52 736.094 52 736.75V748.625C52 749.937 50.8806 751 49.5 751H29.5C28.1194 751 27 749.937 27 748.625V734.375ZM47.625 745.063C48.6606 745.063 49.5 744.265 49.5 743.281C49.5 742.297 48.6606 741.5 47.625 741.5C46.5894 741.5 45.75 742.297 45.75 743.281C45.75 744.265 46.5894 745.063 47.625 745.063Z" fill="url(#paint2_linear)"/>
<path d="M28.08 760.4H29.144L30.264 764.376L31.512 760.4H32.224L33.52 764.272L34.592 760.4H35.656L34.016 766H33.112L31.864 762.264L30.624 766H29.656L28.08 760.4ZM36.7421 766.08C36.4114 766.08 36.1341 765.973 35.9101 765.76C35.6914 765.541 35.5821 765.248 35.5821 764.88C35.5821 764.533 35.7074 764.256 35.9581 764.048C36.2087 763.835 36.5047 763.685 36.8461 763.6C37.1874 763.509 37.5154 763.459 37.8301 763.448C37.8194 763.213 37.7581 763.045 37.6461 762.944C37.5394 762.843 37.3607 762.792 37.1101 762.792C36.9341 762.792 36.7607 762.816 36.5901 762.864C36.4247 762.912 36.2327 762.989 36.0141 763.096L35.9261 762.288C36.4114 762.053 36.8967 761.936 37.3821 761.936C37.8514 761.936 38.2087 762.064 38.4541 762.32C38.7047 762.576 38.8301 762.984 38.8301 763.544V764.624C38.8301 764.827 38.8381 764.973 38.8541 765.064C38.8754 765.149 38.9074 765.205 38.9501 765.232C38.9981 765.253 39.0754 765.264 39.1821 765.264H39.3101L39.2221 766.08H38.8621C38.6434 766.08 38.4594 766.04 38.3101 765.96C38.1607 765.875 38.0461 765.76 37.9661 765.616C37.8381 765.76 37.6621 765.875 37.4381 765.96C37.2194 766.04 36.9874 766.08 36.7421 766.08ZM37.1581 765.32C37.2594 765.32 37.3741 765.296 37.5021 765.248C37.6301 765.195 37.7421 765.123 37.8381 765.032V764.12C37.5181 764.136 37.2354 764.205 36.9901 764.328C36.7447 764.451 36.6221 764.621 36.6221 764.84C36.6221 765.005 36.6647 765.128 36.7501 765.208C36.8354 765.283 36.9714 765.32 37.1581 765.32ZM40.8864 766.08C40.5451 766.08 40.2891 765.984 40.1184 765.792C39.9478 765.595 39.8624 765.341 39.8624 765.032V760H40.8544V764.624C40.8544 764.837 40.8651 764.989 40.8864 765.08C40.9131 765.165 40.9558 765.219 41.0144 765.24C41.0784 765.256 41.1851 765.264 41.3344 765.264L41.2464 766.08H40.8864ZM42.988 766.08C42.6467 766.08 42.3907 765.984 42.22 765.792C42.0493 765.595 41.964 765.341 41.964 765.032V760H42.956V764.624C42.956 764.837 42.9667 764.989 42.988 765.08C43.0147 765.165 43.0573 765.219 43.116 765.24C43.18 765.256 43.2867 765.264 43.436 765.264L43.348 766.08H42.988ZM45.9545 766.08C45.4905 766.08 45.0932 765.987 44.7625 765.8C44.4372 765.608 44.1918 765.355 44.0265 765.04C43.8665 764.72 43.7865 764.365 43.7865 763.976C43.7865 763.603 43.8638 763.261 44.0185 762.952C44.1732 762.643 44.3972 762.397 44.6905 762.216C44.9838 762.029 45.3332 761.936 45.7385 761.936C46.1118 761.936 46.4265 762.013 46.6825 762.168C46.9438 762.323 47.1385 762.531 47.2665 762.792C47.3998 763.053 47.4665 763.347 47.4665 763.672C47.4665 763.832 47.4452 764.013 47.4025 764.216H44.8185C44.8718 764.568 45.0105 764.832 45.2345 765.008C45.4585 765.179 45.7278 765.264 46.0425 765.264C46.4745 765.264 46.8745 765.155 47.2425 764.936L47.2905 765.776C47.1198 765.867 46.9198 765.941 46.6905 766C46.4665 766.053 46.2212 766.08 45.9545 766.08ZM46.4585 763.544C46.4585 763.336 46.3998 763.152 46.2825 762.992C46.1652 762.832 45.9838 762.752 45.7385 762.752C45.4932 762.752 45.2958 762.824 45.1465 762.968C44.9972 763.112 44.8958 763.304 44.8425 763.544H46.4585ZM49.4477 766.08C49.0957 766.08 48.829 765.979 48.6477 765.776C48.4664 765.568 48.3757 765.32 48.3757 765.032V762.816H47.8077L47.8957 762H48.3757V761.12L49.3677 761.016V762H50.2477V762.816H49.3677V764.624C49.3677 764.837 49.3784 764.987 49.3997 765.072C49.4264 765.152 49.477 765.205 49.5517 765.232C49.6317 765.253 49.773 765.264 49.9757 765.264H50.2477L50.1597 766.08H49.4477Z" fill="url(#paint3_linear)"/>
<path d="M329 749H352V746.5H329V749ZM329 742.75H352V740.25H329V742.75ZM329 734V736.5H352V734H329Z" fill="#A6A6A6"/>
<path d="M335.248 766L334.768 762.248L333.336 764.824L331.896 762.256L331.416 766H330.352L331.128 760.4H331.968L333.336 762.952L334.696 760.4H335.536L336.312 766H335.248ZM338.955 766.08C338.491 766.08 338.093 765.987 337.763 765.8C337.437 765.608 337.192 765.355 337.027 765.04C336.867 764.72 336.787 764.365 336.787 763.976C336.787 763.603 336.864 763.261 337.019 762.952C337.173 762.643 337.397 762.397 337.691 762.216C337.984 762.029 338.333 761.936 338.739 761.936C339.112 761.936 339.427 762.013 339.683 762.168C339.944 762.323 340.139 762.531 340.267 762.792C340.4 763.053 340.467 763.347 340.467 763.672C340.467 763.832 340.445 764.013 340.403 764.216H337.819C337.872 764.568 338.011 764.832 338.235 765.008C338.459 765.179 338.728 765.264 339.043 765.264C339.475 765.264 339.875 765.155 340.243 764.936L340.291 765.776C340.12 765.867 339.92 765.941 339.691 766C339.467 766.053 339.221 766.08 338.955 766.08ZM339.459 763.544C339.459 763.336 339.4 763.152 339.283 762.992C339.165 762.832 338.984 762.752 338.739 762.752C338.493 762.752 338.296 762.824 338.147 762.968C337.997 763.112 337.896 763.304 337.843 763.544H339.459ZM343.16 761.936C343.656 761.936 344.032 762.101 344.288 762.432C344.544 762.763 344.672 763.208 344.672 763.768V766H343.68V763.848C343.68 763.475 343.616 763.2 343.488 763.024C343.365 762.843 343.165 762.752 342.888 762.752C342.584 762.752 342.333 762.867 342.136 763.096V766H341.144V762H342.072L342.088 762.28C342.424 762.051 342.781 761.936 343.16 761.936ZM349.015 762V766H348.087L348.071 765.76C347.948 765.851 347.807 765.928 347.647 765.992C347.487 766.051 347.332 766.08 347.183 766.08C346.591 766.08 346.159 765.909 345.887 765.568C345.62 765.227 345.487 764.755 345.487 764.152V762H346.479V764.152C346.479 764.525 346.54 764.803 346.663 764.984C346.791 765.16 346.993 765.248 347.271 765.248C347.58 765.248 347.831 765.136 348.023 764.912V762H349.015Z" fill="#AAAAAA"/>
<path d="M245.52 764.672H243.48L243.016 766H242.024L244.016 760.4H244.984L246.976 766H245.984L245.52 764.672ZM245.2 763.776L244.504 761.776L243.8 763.776H245.2ZM251.018 760V766H250.082L250.066 765.744C249.912 765.856 249.749 765.941 249.578 766C249.413 766.053 249.216 766.08 248.986 766.08C248.597 766.08 248.261 765.987 247.978 765.8C247.701 765.613 247.49 765.363 247.346 765.048C247.202 764.733 247.13 764.387 247.13 764.008C247.13 763.629 247.202 763.283 247.346 762.968C247.49 762.653 247.701 762.403 247.978 762.216C248.261 762.029 248.597 761.936 248.986 761.936C249.376 761.936 249.722 762.043 250.026 762.256V760H251.018ZM249.13 765.264C249.445 765.264 249.68 765.152 249.834 764.928C249.994 764.704 250.074 764.397 250.074 764.008C250.074 763.619 249.994 763.312 249.834 763.088C249.68 762.864 249.445 762.752 249.13 762.752C248.821 762.752 248.578 762.867 248.402 763.096C248.232 763.325 248.146 763.629 248.146 764.008C248.146 764.387 248.232 764.691 248.402 764.92C248.578 765.149 248.821 765.264 249.13 765.264ZM255.589 760V766H254.653L254.637 765.744C254.482 765.856 254.319 765.941 254.149 766C253.983 766.053 253.786 766.08 253.557 766.08C253.167 766.08 252.831 765.987 252.549 765.8C252.271 765.613 252.061 765.363 251.917 765.048C251.773 764.733 251.701 764.387 251.701 764.008C251.701 763.629 251.773 763.283 251.917 762.968C252.061 762.653 252.271 762.403 252.549 762.216C252.831 762.029 253.167 761.936 253.557 761.936C253.946 761.936 254.293 762.043 254.597 762.256V760H255.589ZM253.701 765.264C254.015 765.264 254.25 765.152 254.405 764.928C254.565 764.704 254.645 764.397 254.645 764.008C254.645 763.619 254.565 763.312 254.405 763.088C254.25 762.864 254.015 762.752 253.701 762.752C253.391 762.752 253.149 762.867 252.973 763.096C252.802 763.325 252.717 763.629 252.717 764.008C252.717 764.387 252.802 764.691 252.973 764.92C253.149 765.149 253.391 765.264 253.701 765.264ZM256.511 762H257.439L257.463 762.424C257.58 762.291 257.73 762.173 257.911 762.072C258.098 761.971 258.292 761.92 258.495 761.92C258.559 761.92 258.618 761.925 258.671 761.936L258.599 762.912C258.498 762.885 258.383 762.872 258.255 762.872C258.09 762.872 257.938 762.912 257.799 762.992C257.66 763.067 257.562 763.16 257.503 763.272V766H256.511V762ZM261.009 766.08C260.545 766.08 260.148 765.987 259.817 765.8C259.492 765.608 259.247 765.355 259.081 765.04C258.921 764.72 258.841 764.365 258.841 763.976C258.841 763.603 258.919 763.261 259.073 762.952C259.228 762.643 259.452 762.397 259.745 762.216C260.039 762.029 260.388 761.936 260.793 761.936C261.167 761.936 261.481 762.013 261.737 762.168C261.999 762.323 262.193 762.531 262.321 762.792C262.455 763.053 262.521 763.347 262.521 763.672C262.521 763.832 262.5 764.013 262.457 764.216H259.873C259.927 764.568 260.065 764.832 260.289 765.008C260.513 765.179 260.783 765.264 261.097 765.264C261.529 765.264 261.929 765.155 262.297 764.936L262.345 765.776C262.175 765.867 261.975 765.941 261.745 766C261.521 766.053 261.276 766.08 261.009 766.08ZM261.513 763.544C261.513 763.336 261.455 763.152 261.337 762.992C261.22 762.832 261.039 762.752 260.793 762.752C260.548 762.752 260.351 762.824 260.201 762.968C260.052 763.112 259.951 763.304 259.897 763.544H261.513ZM264.334 766.08C264.078 766.08 263.844 766.056 263.63 766.008C263.422 765.96 263.206 765.885 262.982 765.784L263.07 764.936C263.294 765.069 263.502 765.171 263.694 765.24C263.892 765.304 264.094 765.336 264.302 765.336C264.708 765.336 264.91 765.203 264.91 764.936C264.91 764.792 264.857 764.683 264.75 764.608C264.644 764.528 264.452 764.435 264.174 764.328C263.78 764.184 263.489 764.021 263.302 763.84C263.116 763.653 263.022 763.403 263.022 763.088C263.022 762.741 263.156 762.461 263.422 762.248C263.689 762.029 264.049 761.92 264.502 761.92C264.956 761.92 265.369 762.024 265.742 762.232L265.654 763.08C265.452 762.941 265.26 762.835 265.078 762.76C264.902 762.685 264.716 762.648 264.518 762.648C264.348 762.648 264.214 762.683 264.118 762.752C264.028 762.821 263.982 762.92 263.982 763.048C263.982 763.149 264.009 763.232 264.062 763.296C264.121 763.36 264.201 763.419 264.302 763.472C264.404 763.52 264.572 763.589 264.806 763.68C265.196 763.829 265.476 763.995 265.646 764.176C265.817 764.352 265.902 764.589 265.902 764.888C265.902 765.267 265.766 765.56 265.494 765.768C265.222 765.976 264.836 766.08 264.334 766.08ZM267.717 766.08C267.461 766.08 267.227 766.056 267.013 766.008C266.805 765.96 266.589 765.885 266.365 765.784L266.453 764.936C266.677 765.069 266.885 765.171 267.077 765.24C267.275 765.304 267.477 765.336 267.685 765.336C268.091 765.336 268.293 765.203 268.293 764.936C268.293 764.792 268.24 764.683 268.133 764.608C268.027 764.528 267.835 764.435 267.557 764.328C267.163 764.184 266.872 764.021 266.685 763.84C266.499 763.653 266.405 763.403 266.405 763.088C266.405 762.741 266.539 762.461 266.805 762.248C267.072 762.029 267.432 761.92 267.885 761.92C268.339 761.92 268.752 762.024 269.125 762.232L269.037 763.08C268.835 762.941 268.643 762.835 268.461 762.76C268.285 762.685 268.099 762.648 267.901 762.648C267.731 762.648 267.597 762.683 267.501 762.752C267.411 762.821 267.365 762.92 267.365 763.048C267.365 763.149 267.392 763.232 267.445 763.296C267.504 763.36 267.584 763.419 267.685 763.472C267.787 763.52 267.955 763.589 268.189 763.68C268.579 763.829 268.859 763.995 269.029 764.176C269.2 764.352 269.285 764.589 269.285 764.888C269.285 765.267 269.149 765.56 268.877 765.768C268.605 765.976 268.219 766.08 267.717 766.08ZM275.009 762.936C275.718 763.165 276.073 763.656 276.073 764.408C276.073 764.909 275.91 765.301 275.585 765.584C275.26 765.861 274.814 766 274.249 766H271.913V760.4H274.025C275.092 760.4 275.625 760.851 275.625 761.752C275.625 762.307 275.42 762.701 275.009 762.936ZM272.937 762.6H273.873C274.124 762.6 274.31 762.549 274.433 762.448C274.556 762.341 274.617 762.179 274.617 761.96C274.617 761.731 274.556 761.565 274.433 761.464C274.31 761.363 274.124 761.312 273.873 761.312H272.937V762.6ZM274.097 765.088C274.396 765.088 274.622 765.029 274.777 764.912C274.937 764.789 275.017 764.584 275.017 764.296C275.017 764.013 274.934 763.813 274.769 763.696C274.609 763.573 274.385 763.512 274.097 763.512H272.937V765.088H274.097ZM278.585 766.08C278.163 766.08 277.798 765.987 277.489 765.8C277.179 765.613 276.942 765.363 276.777 765.048C276.611 764.733 276.529 764.387 276.529 764.008C276.529 763.629 276.611 763.28 276.777 762.96C276.942 762.64 277.179 762.387 277.489 762.2C277.798 762.013 278.163 761.92 278.585 761.92C279.006 761.92 279.371 762.013 279.681 762.2C279.99 762.387 280.227 762.64 280.393 762.96C280.558 763.28 280.641 763.629 280.641 764.008C280.641 764.387 280.558 764.733 280.393 765.048C280.227 765.363 279.99 765.613 279.681 765.8C279.371 765.987 279.006 766.08 278.585 766.08ZM278.585 765.264C278.91 765.264 279.163 765.149 279.345 764.92C279.531 764.691 279.625 764.387 279.625 764.008C279.625 763.624 279.531 763.317 279.345 763.088C279.163 762.853 278.91 762.736 278.585 762.736C278.259 762.736 278.003 762.853 277.817 763.088C277.635 763.317 277.545 763.624 277.545 764.008C277.545 764.387 277.635 764.691 277.817 764.92C278.003 765.149 278.259 765.264 278.585 765.264ZM283.147 766.08C282.726 766.08 282.361 765.987 282.051 765.8C281.742 765.613 281.505 765.363 281.339 765.048C281.174 764.733 281.091 764.387 281.091 764.008C281.091 763.629 281.174 763.28 281.339 762.96C281.505 762.64 281.742 762.387 282.051 762.2C282.361 762.013 282.726 761.92 283.147 761.92C283.569 761.92 283.934 762.013 284.243 762.2C284.553 762.387 284.79 762.64 284.955 762.96C285.121 763.28 285.203 763.629 285.203 764.008C285.203 764.387 285.121 764.733 284.955 765.048C284.79 765.363 284.553 765.613 284.243 765.8C283.934 765.987 283.569 766.08 283.147 766.08ZM283.147 765.264C283.473 765.264 283.726 765.149 283.907 764.92C284.094 764.691 284.187 764.387 284.187 764.008C284.187 763.624 284.094 763.317 283.907 763.088C283.726 762.853 283.473 762.736 283.147 762.736C282.822 762.736 282.566 762.853 282.379 763.088C282.198 763.317 282.107 763.624 282.107 764.008C282.107 764.387 282.198 764.691 282.379 764.92C282.566 765.149 282.822 765.264 283.147 765.264ZM285.886 760H286.878V763.64L288.118 762H289.238L287.782 763.92L289.27 766H288.15L286.878 764.224V766H285.886V760Z" fill="#AAAAAA"/>
<path d="M257.2 735.4H255V750.8C255 752.01 255.99 753 257.2 753H272.6V750.8H257.2V735.4ZM274.8 731H261.6C260.39 731 259.4 731.99 259.4 733.2V746.4C259.4 747.61 260.39 748.6 261.6 748.6H274.8C276.01 748.6 277 747.61 277 746.4V733.2C277 731.99 276.01 731 274.8 731ZM273.7 740.9H262.7V738.7H273.7V740.9ZM269.3 745.3H262.7V743.1H269.3V745.3ZM273.7 736.5H262.7V734.3H273.7V736.5Z" fill="#AAAAAA"/>
<path d="M97.24 766.112C96.9253 766.112 96.5867 766.069 96.224 765.984C95.8667 765.899 95.5867 765.805 95.384 765.704L95.504 764.616C96.208 764.957 96.8267 765.128 97.36 765.128C97.6427 765.128 97.864 765.075 98.024 764.968C98.184 764.856 98.264 764.693 98.264 764.48C98.264 764.32 98.2187 764.189 98.128 764.088C98.0427 763.981 97.9173 763.893 97.752 763.824C97.5867 763.749 97.3227 763.648 96.96 763.52C96.6187 763.403 96.336 763.28 96.112 763.152C95.888 763.019 95.7093 762.851 95.576 762.648C95.448 762.44 95.384 762.187 95.384 761.888C95.384 761.408 95.56 761.021 95.912 760.728C96.264 760.435 96.768 760.288 97.424 760.288C97.7333 760.288 98.04 760.323 98.344 760.392C98.6533 760.461 98.936 760.547 99.192 760.648L99.088 761.696C98.7573 761.552 98.4533 761.445 98.176 761.376C97.904 761.301 97.632 761.264 97.36 761.264C97.056 761.264 96.824 761.315 96.664 761.416C96.504 761.517 96.424 761.664 96.424 761.856C96.424 762.005 96.4667 762.128 96.552 762.224C96.6373 762.32 96.752 762.4 96.896 762.464C97.0453 762.528 97.264 762.605 97.552 762.696C98.1973 762.899 98.6667 763.133 98.96 763.4C99.2587 763.661 99.408 764.021 99.408 764.48C99.408 764.917 99.256 765.299 98.952 765.624C98.648 765.949 98.0773 766.112 97.24 766.112ZM99.6503 762H100.618L101.306 764.792L102.058 762.08H102.89L103.634 764.792L104.33 762H105.298L104.13 766H103.298L102.474 763.392L101.65 766H100.818L99.6503 762ZM106.672 766.08C106.341 766.08 106.064 765.973 105.84 765.76C105.621 765.541 105.512 765.248 105.512 764.88C105.512 764.533 105.637 764.256 105.888 764.048C106.138 763.835 106.434 763.685 106.776 763.6C107.117 763.509 107.445 763.459 107.76 763.448C107.749 763.213 107.688 763.045 107.576 762.944C107.469 762.843 107.29 762.792 107.04 762.792C106.864 762.792 106.69 762.816 106.52 762.864C106.354 762.912 106.162 762.989 105.944 763.096L105.856 762.288C106.341 762.053 106.826 761.936 107.312 761.936C107.781 761.936 108.138 762.064 108.384 762.32C108.634 762.576 108.76 762.984 108.76 763.544V764.624C108.76 764.827 108.768 764.973 108.784 765.064C108.805 765.149 108.837 765.205 108.88 765.232C108.928 765.253 109.005 765.264 109.112 765.264H109.24L109.152 766.08H108.792C108.573 766.08 108.389 766.04 108.24 765.96C108.09 765.875 107.976 765.76 107.896 765.616C107.768 765.76 107.592 765.875 107.368 765.96C107.149 766.04 106.917 766.08 106.672 766.08ZM107.088 765.32C107.189 765.32 107.304 765.296 107.432 765.248C107.56 765.195 107.672 765.123 107.768 765.032V764.12C107.448 764.136 107.165 764.205 106.92 764.328C106.674 764.451 106.552 764.621 106.552 764.84C106.552 765.005 106.594 765.128 106.68 765.208C106.765 765.283 106.901 765.32 107.088 765.32ZM111.88 761.936C112.259 761.936 112.584 762.029 112.856 762.216C113.128 762.403 113.333 762.653 113.472 762.968C113.611 763.283 113.68 763.629 113.68 764.008C113.68 764.387 113.611 764.733 113.472 765.048C113.333 765.363 113.128 765.613 112.856 765.8C112.584 765.987 112.259 766.08 111.88 766.08C111.64 766.08 111.435 766.053 111.264 766C111.099 765.952 110.939 765.872 110.784 765.76V767.936H109.792V762H110.592L110.696 762.368C110.867 762.224 111.045 762.117 111.232 762.048C111.419 761.973 111.635 761.936 111.88 761.936ZM111.728 765.264C112.021 765.264 112.251 765.149 112.416 764.92C112.581 764.691 112.664 764.387 112.664 764.008C112.664 763.629 112.581 763.325 112.416 763.096C112.251 762.867 112.021 762.752 111.728 762.752C111.397 762.752 111.149 762.864 110.984 763.088C110.819 763.312 110.736 763.619 110.736 764.008C110.736 764.397 110.819 764.704 110.984 764.928C111.149 765.152 111.397 765.264 111.728 765.264ZM115.506 766.08C115.25 766.08 115.016 766.056 114.802 766.008C114.594 765.96 114.378 765.885 114.154 765.784L114.242 764.936C114.466 765.069 114.674 765.171 114.866 765.24C115.064 765.304 115.266 765.336 115.474 765.336C115.88 765.336 116.082 765.203 116.082 764.936C116.082 764.792 116.029 764.683 115.922 764.608C115.816 764.528 115.624 764.435 115.346 764.328C114.952 764.184 114.661 764.021 114.474 763.84C114.288 763.653 114.194 763.403 114.194 763.088C114.194 762.741 114.328 762.461 114.594 762.248C114.861 762.029 115.221 761.92 115.674 761.92C116.128 761.92 116.541 762.024 116.914 762.232L116.826 763.08C116.624 762.941 116.432 762.835 116.25 762.76C116.074 762.685 115.888 762.648 115.69 762.648C115.52 762.648 115.386 762.683 115.29 762.752C115.2 762.821 115.154 762.92 115.154 763.048C115.154 763.149 115.181 763.232 115.234 763.296C115.293 763.36 115.373 763.419 115.474 763.472C115.576 763.52 115.744 763.589 115.978 763.68C116.368 763.829 116.648 763.995 116.818 764.176C116.989 764.352 117.074 764.589 117.074 764.888C117.074 765.267 116.938 765.56 116.666 765.768C116.394 765.976 116.008 766.08 115.506 766.08Z" fill="#AAAAAA"/>
<path d="M114.35 734.929L102.667 734.929L102.667 738.214L114.35 738.214L114.35 743.143L121 736.571L114.35 730L114.35 734.929V734.929ZM91 746.429L97.65 753L97.65 748.071L109.333 748.071L109.333 744.786L97.65 744.786L97.65 739.857L91 746.429Z" fill="#AAAAAA"/>
<path d="M159.616 760.4H161.712C162.245 760.4 162.72 760.512 163.136 760.736C163.557 760.96 163.885 761.283 164.12 761.704C164.355 762.125 164.472 762.624 164.472 763.2C164.472 763.776 164.355 764.275 164.12 764.696C163.885 765.117 163.557 765.44 163.136 765.664C162.72 765.888 162.245 766 161.712 766H159.616V760.4ZM161.712 765.088C162.245 765.088 162.651 764.923 162.928 764.592C163.211 764.256 163.352 763.792 163.352 763.2C163.352 762.608 163.211 762.147 162.928 761.816C162.651 761.48 162.245 761.312 161.712 761.312H160.64V765.088H161.712ZM167.103 766.08C166.639 766.08 166.242 765.987 165.911 765.8C165.586 765.608 165.34 765.355 165.175 765.04C165.015 764.72 164.935 764.365 164.935 763.976C164.935 763.603 165.012 763.261 165.167 762.952C165.322 762.643 165.546 762.397 165.839 762.216C166.132 762.029 166.482 761.936 166.887 761.936C167.26 761.936 167.575 762.013 167.831 762.168C168.092 762.323 168.287 762.531 168.415 762.792C168.548 763.053 168.615 763.347 168.615 763.672C168.615 763.832 168.594 764.013 168.551 764.216H165.967C166.02 764.568 166.159 764.832 166.383 765.008C166.607 765.179 166.876 765.264 167.191 765.264C167.623 765.264 168.023 765.155 168.391 764.936L168.439 765.776C168.268 765.867 168.068 765.941 167.839 766C167.615 766.053 167.37 766.08 167.103 766.08ZM167.607 763.544C167.607 763.336 167.548 763.152 167.431 762.992C167.314 762.832 167.132 762.752 166.887 762.752C166.642 762.752 166.444 762.824 166.295 762.968C166.146 763.112 166.044 763.304 165.991 763.544H167.607ZM170.876 768.016C170.311 768.016 169.86 767.912 169.524 767.704C169.188 767.501 169.02 767.224 169.02 766.872C169.02 766.488 169.236 766.173 169.668 765.928C169.433 765.784 169.316 765.595 169.316 765.36C169.316 765.237 169.351 765.128 169.42 765.032C169.495 764.936 169.593 764.859 169.716 764.8C169.513 764.656 169.359 764.472 169.252 764.248C169.151 764.024 169.1 763.779 169.1 763.512C169.1 763.219 169.164 762.952 169.292 762.712C169.42 762.467 169.607 762.275 169.852 762.136C170.097 761.992 170.388 761.92 170.724 761.92C171.076 761.92 171.38 762.005 171.636 762.176C171.727 762.128 171.847 762.088 171.996 762.056C172.151 762.019 172.316 762 172.492 762H172.748L172.684 762.624H172.324C172.233 762.624 172.159 762.627 172.1 762.632C172.26 762.877 172.34 763.171 172.34 763.512C172.34 763.805 172.276 764.075 172.148 764.32C172.025 764.56 171.841 764.752 171.596 764.896C171.351 765.035 171.06 765.104 170.724 765.104C170.601 765.104 170.46 765.085 170.3 765.048C170.241 765.075 170.212 765.117 170.212 765.176C170.212 765.245 170.252 765.301 170.332 765.344C170.417 765.381 170.559 765.413 170.756 765.44L171.444 765.528C172.361 765.651 172.82 766.037 172.82 766.688C172.82 767.093 172.647 767.416 172.3 767.656C171.959 767.896 171.484 768.016 170.876 768.016ZM170.724 764.368C170.953 764.368 171.129 764.293 171.252 764.144C171.38 763.989 171.444 763.779 171.444 763.512C171.444 763.245 171.38 763.037 171.252 762.888C171.129 762.733 170.953 762.656 170.724 762.656C170.489 762.656 170.308 762.733 170.18 762.888C170.057 763.037 169.996 763.245 169.996 763.512C169.996 763.779 170.057 763.989 170.18 764.144C170.308 764.293 170.489 764.368 170.724 764.368ZM170.916 767.264C171.599 767.264 171.94 767.096 171.94 766.76C171.94 766.611 171.881 766.499 171.764 766.424C171.647 766.355 171.452 766.299 171.18 766.256L170.3 766.128C169.996 766.251 169.844 766.437 169.844 766.688C169.844 766.88 169.937 767.024 170.124 767.12C170.311 767.216 170.575 767.264 170.916 767.264ZM173.3 760.4H174.292V761.392H173.3V760.4ZM173.3 762H174.292V766H173.3V762ZM176.526 766.08C176.174 766.08 175.907 765.979 175.726 765.776C175.544 765.568 175.454 765.32 175.454 765.032V762.816H174.886L174.974 762H175.454V761.12L176.446 761.016V762H177.326V762.816H176.446V764.624C176.446 764.837 176.456 764.987 176.478 765.072C176.504 765.152 176.555 765.205 176.63 765.232C176.71 765.253 176.851 765.264 177.054 765.264H177.326L177.238 766.08H176.526ZM178.836 766.08C178.505 766.08 178.228 765.973 178.004 765.76C177.785 765.541 177.676 765.248 177.676 764.88C177.676 764.533 177.801 764.256 178.052 764.048C178.302 763.835 178.598 763.685 178.94 763.6C179.281 763.509 179.609 763.459 179.924 763.448C179.913 763.213 179.852 763.045 179.74 762.944C179.633 762.843 179.454 762.792 179.204 762.792C179.028 762.792 178.854 762.816 178.684 762.864C178.518 762.912 178.326 762.989 178.108 763.096L178.02 762.288C178.505 762.053 178.99 761.936 179.476 761.936C179.945 761.936 180.302 762.064 180.548 762.32C180.798 762.576 180.924 762.984 180.924 763.544V764.624C180.924 764.827 180.932 764.973 180.948 765.064C180.969 765.149 181.001 765.205 181.044 765.232C181.092 765.253 181.169 765.264 181.276 765.264H181.404L181.316 766.08H180.956C180.737 766.08 180.553 766.04 180.404 765.96C180.254 765.875 180.14 765.76 180.06 765.616C179.932 765.76 179.756 765.875 179.532 765.96C179.313 766.04 179.081 766.08 178.836 766.08ZM179.252 765.32C179.353 765.32 179.468 765.296 179.596 765.248C179.724 765.195 179.836 765.123 179.932 765.032V764.12C179.612 764.136 179.329 764.205 179.084 764.328C178.838 764.451 178.716 764.621 178.716 764.84C178.716 765.005 178.758 765.128 178.844 765.208C178.929 765.283 179.065 765.32 179.252 765.32ZM182.98 766.08C182.639 766.08 182.383 765.984 182.212 765.792C182.042 765.595 181.956 765.341 181.956 765.032V760H182.948V764.624C182.948 764.837 182.959 764.989 182.98 765.08C183.007 765.165 183.05 765.219 183.108 765.24C183.172 765.256 183.279 765.264 183.428 765.264L183.34 766.08H182.98ZM188.911 764.672H186.871L186.407 766H185.415L187.407 760.4H188.375L190.367 766H189.375L188.911 764.672ZM188.591 763.776L187.895 761.776L187.191 763.776H188.591ZM191.991 766.08C191.735 766.08 191.5 766.056 191.287 766.008C191.079 765.96 190.863 765.885 190.639 765.784L190.727 764.936C190.951 765.069 191.159 765.171 191.351 765.24C191.548 765.304 191.751 765.336 191.959 765.336C192.364 765.336 192.567 765.203 192.567 764.936C192.567 764.792 192.513 764.683 192.407 764.608C192.3 764.528 192.108 764.435 191.831 764.328C191.436 764.184 191.145 764.021 190.959 763.84C190.772 763.653 190.679 763.403 190.679 763.088C190.679 762.741 190.812 762.461 191.079 762.248C191.345 762.029 191.705 761.92 192.159 761.92C192.612 761.92 193.025 762.024 193.399 762.232L193.311 763.08C193.108 762.941 192.916 762.835 192.735 762.76C192.559 762.685 192.372 762.648 192.175 762.648C192.004 762.648 191.871 762.683 191.775 762.752C191.684 762.821 191.639 762.92 191.639 763.048C191.639 763.149 191.665 763.232 191.719 763.296C191.777 763.36 191.857 763.419 191.959 763.472C192.06 763.52 192.228 763.589 192.463 763.68C192.852 763.829 193.132 763.995 193.303 764.176C193.473 764.352 193.559 764.589 193.559 764.888C193.559 765.267 193.423 765.56 193.151 765.768C192.879 765.976 192.492 766.08 191.991 766.08ZM195.373 766.08C195.117 766.08 194.883 766.056 194.669 766.008C194.461 765.96 194.245 765.885 194.021 765.784L194.109 764.936C194.333 765.069 194.541 765.171 194.733 765.24C194.931 765.304 195.133 765.336 195.341 765.336C195.747 765.336 195.949 765.203 195.949 764.936C195.949 764.792 195.896 764.683 195.789 764.608C195.683 764.528 195.491 764.435 195.213 764.328C194.819 764.184 194.528 764.021 194.341 763.84C194.155 763.653 194.061 763.403 194.061 763.088C194.061 762.741 194.195 762.461 194.461 762.248C194.728 762.029 195.088 761.92 195.541 761.92C195.995 761.92 196.408 762.024 196.781 762.232L196.693 763.08C196.491 762.941 196.299 762.835 196.117 762.76C195.941 762.685 195.755 762.648 195.557 762.648C195.387 762.648 195.253 762.683 195.157 762.752C195.067 762.821 195.021 762.92 195.021 763.048C195.021 763.149 195.048 763.232 195.101 763.296C195.16 763.36 195.24 763.419 195.341 763.472C195.443 763.52 195.611 763.589 195.845 763.68C196.235 763.829 196.515 763.995 196.685 764.176C196.856 764.352 196.941 764.589 196.941 764.888C196.941 765.267 196.805 765.56 196.533 765.768C196.261 765.976 195.875 766.08 195.373 766.08ZM199.548 766.08C199.084 766.08 198.687 765.987 198.356 765.8C198.031 765.608 197.786 765.355 197.62 765.04C197.46 764.72 197.38 764.365 197.38 763.976C197.38 763.603 197.458 763.261 197.612 762.952C197.767 762.643 197.991 762.397 198.284 762.216C198.578 762.029 198.927 761.936 199.332 761.936C199.706 761.936 200.02 762.013 200.276 762.168C200.538 762.323 200.732 762.531 200.86 762.792C200.994 763.053 201.06 763.347 201.06 763.672C201.06 763.832 201.039 764.013 200.996 764.216H198.412C198.466 764.568 198.604 764.832 198.828 765.008C199.052 765.179 199.322 765.264 199.636 765.264C200.068 765.264 200.468 765.155 200.836 764.936L200.884 765.776C200.714 765.867 200.514 765.941 200.284 766C200.06 766.053 199.815 766.08 199.548 766.08ZM200.052 763.544C200.052 763.336 199.994 763.152 199.876 762.992C199.759 762.832 199.578 762.752 199.332 762.752C199.087 762.752 198.89 762.824 198.74 762.968C198.591 763.112 198.49 763.304 198.436 763.544H200.052ZM203.041 766.08C202.689 766.08 202.423 765.979 202.241 765.776C202.06 765.568 201.969 765.32 201.969 765.032V762.816H201.401L201.489 762H201.969V761.12L202.961 761.016V762H203.841V762.816H202.961V764.624C202.961 764.837 202.972 764.987 202.993 765.072C203.02 765.152 203.071 765.205 203.145 765.232C203.225 765.253 203.367 765.264 203.569 765.264H203.841L203.753 766.08H203.041Z" fill="#AAAAAA"/>
<path d="M192.515 738.195C193.71 739.489 194.407 741.182 194.506 742.925H196C195.901 740.784 195.054 738.693 193.61 737.099L192.515 738.195Z" fill="#AAAAAA"/>
<path d="M179.866 750.144C181.509 751.787 183.7 752.783 186.041 752.883V751.389C184.397 751.289 182.804 750.692 181.559 749.646C181.011 749.845 180.464 749.995 179.866 750.144Z" fill="#AAAAAA"/>
<path d="M187.037 751.338V752.832C189.178 752.732 191.27 751.886 192.863 750.442L191.817 749.396C190.473 750.541 188.78 751.239 187.037 751.338Z" fill="#AAAAAA"/>
<path d="M192.515 748.701L193.56 749.746C195.004 748.153 195.851 746.062 195.95 743.92H194.457C194.357 745.663 193.66 747.356 192.515 748.701Z" fill="#AAAAAA"/>
<path d="M182.854 745.911C181.51 747.106 179.867 747.754 178.074 747.903V749.397C180.215 749.297 182.307 748.451 183.9 747.007L182.854 745.911Z" fill="#AAAAAA"/>
<path d="M186.987 739.438C186.887 737.297 186.04 735.205 184.596 733.612L183.551 734.658C184.746 736.002 185.393 737.645 185.543 739.438H186.987Z" fill="#AAAAAA"/>
<path d="M177.079 732.019V730.525C174.938 730.625 172.846 731.471 171.253 732.915L172.299 733.961C173.643 732.816 175.336 732.119 177.079 732.019Z" fill="#AAAAAA"/>
<path d="M178.074 732.019C179.817 732.119 181.51 732.816 182.854 734.011L183.9 732.965C182.307 731.471 180.215 730.625 178.074 730.525V732.019Z" fill="#AAAAAA"/>
<path d="M169.659 739.438C169.758 737.695 170.456 736.002 171.651 734.658L170.605 733.612C169.111 735.205 168.265 737.297 168.165 739.438H169.659Z" fill="#AAAAAA"/>
<path d="M192.863 736.403C191.12 734.809 188.879 733.963 186.539 733.963C186.439 733.963 186.29 733.963 186.141 733.963C186.489 734.461 186.788 734.959 186.987 735.457C188.73 735.556 190.423 736.253 191.767 737.448L192.863 736.403Z" fill="#AAAAAA"/>
<path d="M190.572 742.127L188.78 743.322C188.531 743.472 188.232 743.422 188.083 743.173L188.033 743.123L187.684 742.376C187.485 743.422 187.037 744.468 186.489 745.414H190.025C190.074 744.318 190.274 743.223 190.572 742.127Z" fill="#AAAAAA"/>
<path d="M184.597 746.261C186.041 744.668 186.888 742.577 186.988 740.436H185.494C185.394 742.178 184.697 743.871 183.502 745.216L184.597 746.261Z" fill="#AAAAAA"/>
<path d="M171.253 746.957C172.846 748.401 174.938 749.248 177.079 749.347V747.854C175.336 747.754 173.643 747.057 172.299 745.862L171.253 746.957Z" fill="#AAAAAA"/>
<path d="M179.418 739.939C179.268 739.889 179.169 739.789 179.119 739.64L177.575 736.204L176.032 739.64C175.932 739.889 175.633 739.988 175.384 739.889C175.335 739.889 175.335 739.839 175.335 739.839L173.542 738.644C173.891 739.69 174.04 740.785 174.09 741.93H181.061C181.111 740.835 181.31 739.739 181.609 738.644L179.816 739.839C179.716 739.939 179.567 739.939 179.418 739.939Z" fill="#AAAAAA"/>
<path d="M177.576 732.966C173.741 732.966 170.604 736.103 170.604 739.937C170.604 743.772 173.741 746.909 177.576 746.909C181.41 746.909 184.547 743.772 184.547 739.937C184.547 736.103 181.41 732.966 177.576 732.966Z" fill="#AAAAAA"/>
<path d="M169.659 740.436H168.165C168.265 742.577 169.111 744.668 170.555 746.261L171.601 745.216C170.456 743.871 169.758 742.178 169.659 740.436Z" fill="#AAAAAA"/>
<path d="M187.435 736.501C187.485 736.7 187.535 736.849 187.585 737.048C188.083 738.891 189.128 745.165 182.506 749.099C185.643 751.289 189.975 750.543 192.216 747.406C193.062 746.211 193.46 744.816 193.46 743.372C193.51 739.937 190.921 736.999 187.435 736.501Z" fill="#AAAAAA"/>
<rect x="120" y="799" width="135" height="5" rx="2.5" fill="#D6D9E4"/>
<path d="M16 164C16 158.477 20.4772 154 26 154H349C354.523 154 359 158.477 359 164V250C359 255.523 354.523 260 349 260H26C20.4772 260 16 255.523 16 250V164Z" fill="#44474C"/>
<path d="M16 113C16 107.477 20.4772 103 26 103H349C354.523 103 359 107.477 359 113V133C359 138.523 354.523 143 349 143H26C20.4772 143 16 138.523 16 133V113Z" fill="#44474C"/>
<g clip-path="url(#clip1)">
<path d="M54.6256 126.524C52.9556 133.22 46.1726 137.296 39.4746 135.626C32.7796 133.956 28.7036 127.174 30.3746 120.477C32.0416 113.78 38.8256 109.705 45.5216 111.374C52.2186 113.044 56.2956 119.827 54.6256 126.524Z" fill="#F7931A"/>
<path d="M47.744 122.266C47.989 120.628 46.742 119.748 45.037 119.16L45.59 116.942L44.24 116.605L43.701 118.765C43.3412 118.677 42.9805 118.592 42.619 118.511L43.162 116.337L41.812 116L41.258 118.218C40.97 118.153 40.6827 118.085 40.396 118.015L40.398 118.008L38.535 117.543L38.176 118.985C38.176 118.985 39.178 119.215 39.156 119.229C39.704 119.366 39.803 119.728 39.786 120.015L39.156 122.542C39.194 122.552 39.243 122.565 39.296 122.587C39.252 122.576 39.203 122.563 39.154 122.552L38.271 126.092C38.204 126.258 38.034 126.507 37.651 126.412C37.665 126.432 36.671 126.168 36.671 126.168L36 127.713L37.757 128.152C38.084 128.233 38.405 128.319 38.72 128.4L38.161 130.644L39.51 130.98L40.063 128.76C40.432 128.86 40.79 128.953 41.14 129.04L40.588 131.25L41.938 131.586L42.498 129.346C44.8 129.782 46.532 129.606 47.26 127.523C47.848 125.847 47.231 124.879 46.02 124.248C46.902 124.045 47.567 123.465 47.744 122.266V122.266ZM44.658 126.592C44.241 128.269 41.418 127.362 40.502 127.135L41.244 124.163C42.159 124.391 45.094 124.843 44.658 126.593V126.592ZM45.076 122.242C44.696 123.767 42.346 122.992 41.583 122.802L42.255 120.106C43.018 120.296 45.473 120.65 45.076 122.242V122.242Z" fill="white"/>
</g>
<path d="M94.496 123.638C95.7373 124.039 96.358 124.898 96.358 126.214C96.358 127.091 96.0733 127.777 95.504 128.272C94.9347 128.757 94.1553 129 93.166 129H89.078V119.2H92.774C94.6407 119.2 95.574 119.989 95.574 121.566C95.574 122.537 95.2147 123.227 94.496 123.638ZM90.87 123.05H92.508C92.9467 123.05 93.2733 122.961 93.488 122.784C93.7027 122.597 93.81 122.313 93.81 121.93C93.81 121.529 93.7027 121.239 93.488 121.062C93.2733 120.885 92.9467 120.796 92.508 120.796H90.87V123.05ZM92.9 127.404C93.4227 127.404 93.8193 127.301 94.09 127.096C94.37 126.881 94.51 126.522 94.51 126.018C94.51 125.523 94.3653 125.173 94.076 124.968C93.796 124.753 93.404 124.646 92.9 124.646H90.87V127.404H92.9ZM98.1936 119.2H99.9296V120.936H98.1936V119.2ZM98.1936 122H99.9296V129H98.1936V122ZM104.539 129.14C103.923 129.14 103.456 128.963 103.139 128.608C102.822 128.244 102.663 127.81 102.663 127.306V123.428H101.669L101.823 122H102.663V120.46L104.399 120.278V122H105.939V123.428H104.399V126.592C104.399 126.965 104.418 127.227 104.455 127.376C104.502 127.516 104.59 127.609 104.721 127.656C104.861 127.693 105.108 127.712 105.463 127.712H105.939L105.785 129.14H104.539ZM111.017 129.14C110.243 129.14 109.575 128.981 109.015 128.664C108.465 128.337 108.049 127.899 107.769 127.348C107.489 126.797 107.349 126.186 107.349 125.514C107.349 124.833 107.489 124.217 107.769 123.666C108.049 123.106 108.469 122.667 109.029 122.35C109.589 122.023 110.271 121.86 111.073 121.86C111.792 121.86 112.417 122.009 112.949 122.308L112.809 123.708C112.305 123.447 111.783 123.316 111.241 123.316C110.579 123.316 110.061 123.517 109.687 123.918C109.314 124.319 109.127 124.851 109.127 125.514C109.127 126.149 109.319 126.676 109.701 127.096C110.084 127.507 110.593 127.712 111.227 127.712C111.759 127.712 112.291 127.558 112.823 127.25L112.977 128.72C112.725 128.851 112.427 128.953 112.081 129.028C111.745 129.103 111.391 129.14 111.017 129.14ZM117.964 129.14C117.226 129.14 116.587 128.977 116.046 128.65C115.504 128.323 115.089 127.885 114.8 127.334C114.51 126.783 114.366 126.177 114.366 125.514C114.366 124.851 114.51 124.24 114.8 123.68C115.089 123.12 115.504 122.677 116.046 122.35C116.587 122.023 117.226 121.86 117.964 121.86C118.701 121.86 119.34 122.023 119.882 122.35C120.423 122.677 120.838 123.12 121.128 123.68C121.417 124.24 121.562 124.851 121.562 125.514C121.562 126.177 121.417 126.783 121.128 127.334C120.838 127.885 120.423 128.323 119.882 128.65C119.34 128.977 118.701 129.14 117.964 129.14ZM117.964 127.712C118.533 127.712 118.976 127.511 119.294 127.11C119.62 126.709 119.784 126.177 119.784 125.514C119.784 124.842 119.62 124.305 119.294 123.904C118.976 123.493 118.533 123.288 117.964 123.288C117.394 123.288 116.946 123.493 116.62 123.904C116.302 124.305 116.144 124.842 116.144 125.514C116.144 126.177 116.302 126.709 116.62 127.11C116.946 127.511 117.394 127.712 117.964 127.712ZM123.47 119.2H125.206V120.936H123.47V119.2ZM123.47 122H125.206V129H123.47V122ZM131.061 121.888C131.929 121.888 132.587 122.177 133.035 122.756C133.483 123.335 133.707 124.114 133.707 125.094V129H131.971V125.234C131.971 124.581 131.859 124.1 131.635 123.792C131.421 123.475 131.071 123.316 130.585 123.316C130.053 123.316 129.615 123.517 129.269 123.918V129H127.533V122H129.157L129.185 122.49C129.773 122.089 130.399 121.888 131.061 121.888Z" fill="white"/>
<path d="M31.1528 229.2H32.9448V239H31.1528V229.2ZM33.0848 233.82L36.7108 229.2H38.8108L35.1568 233.82L38.8108 239H36.7108L33.0848 233.82ZM43.246 239.14C42.434 239.14 41.7386 238.977 41.16 238.65C40.5906 238.314 40.1613 237.871 39.872 237.32C39.592 236.76 39.452 236.139 39.452 235.458C39.452 234.805 39.5873 234.207 39.858 233.666C40.1286 233.125 40.5206 232.695 41.034 232.378C41.5473 232.051 42.1586 231.888 42.868 231.888C43.5213 231.888 44.072 232.023 44.52 232.294C44.9773 232.565 45.318 232.929 45.542 233.386C45.7753 233.843 45.892 234.357 45.892 234.926C45.892 235.206 45.8546 235.523 45.78 235.878H41.258C41.3513 236.494 41.594 236.956 41.986 237.264C42.378 237.563 42.8493 237.712 43.4 237.712C44.156 237.712 44.856 237.521 45.5 237.138L45.584 238.608C45.2853 238.767 44.9353 238.897 44.534 239C44.142 239.093 43.7126 239.14 43.246 239.14ZM44.128 234.702C44.128 234.338 44.0253 234.016 43.82 233.736C43.6146 233.456 43.2973 233.316 42.868 233.316C42.4386 233.316 42.0933 233.442 41.832 233.694C41.5706 233.946 41.3933 234.282 41.3 234.702H44.128ZM49.7953 238.538L46.8833 232H48.8153L50.6073 236.508L52.4273 232H54.3593L49.9773 242.388H48.2413L49.7953 238.538ZM57.8342 239.14C57.3862 239.14 56.9755 239.098 56.6022 239.014C56.2382 238.93 55.8602 238.799 55.4682 238.622L55.6222 237.138C56.0142 237.371 56.3782 237.549 56.7142 237.67C57.0595 237.782 57.4142 237.838 57.7782 237.838C58.4875 237.838 58.8422 237.605 58.8422 237.138C58.8422 236.886 58.7488 236.695 58.5622 236.564C58.3755 236.424 58.0395 236.261 57.5542 236.074C56.8635 235.822 56.3548 235.537 56.0282 235.22C55.7015 234.893 55.5382 234.455 55.5382 233.904C55.5382 233.297 55.7715 232.807 56.2382 232.434C56.7048 232.051 57.3348 231.86 58.1282 231.86C58.9215 231.86 59.6448 232.042 60.2982 232.406L60.1442 233.89C59.7895 233.647 59.4535 233.461 59.1362 233.33C58.8282 233.199 58.5015 233.134 58.1562 233.134C57.8575 233.134 57.6242 233.195 57.4562 233.316C57.2975 233.437 57.2182 233.61 57.2182 233.834C57.2182 234.011 57.2648 234.156 57.3582 234.268C57.4608 234.38 57.6008 234.483 57.7782 234.576C57.9555 234.66 58.2495 234.781 58.6602 234.94C59.3415 235.201 59.8315 235.491 60.1302 235.808C60.4288 236.116 60.5782 236.531 60.5782 237.054C60.5782 237.717 60.3402 238.23 59.8642 238.594C59.3882 238.958 58.7115 239.14 57.8342 239.14ZM64.7481 239.14C64.1321 239.14 63.6654 238.963 63.3481 238.608C63.0308 238.244 62.8721 237.81 62.8721 237.306V233.428H61.8781L62.0321 232H62.8721V230.46L64.6081 230.278V232H66.1481V233.428H64.6081V236.592C64.6081 236.965 64.6268 237.227 64.6641 237.376C64.7108 237.516 64.7994 237.609 64.9301 237.656C65.0701 237.693 65.3174 237.712 65.6721 237.712H66.1481L65.9941 239.14H64.7481ZM71.1566 239.14C70.4193 239.14 69.7799 238.977 69.2386 238.65C68.6973 238.323 68.2819 237.885 67.9926 237.334C67.7033 236.783 67.5586 236.177 67.5586 235.514C67.5586 234.851 67.7033 234.24 67.9926 233.68C68.2819 233.12 68.6973 232.677 69.2386 232.35C69.7799 232.023 70.4193 231.86 71.1566 231.86C71.8939 231.86 72.5333 232.023 73.0746 232.35C73.6159 232.677 74.0313 233.12 74.3206 233.68C74.6099 234.24 74.7546 234.851 74.7546 235.514C74.7546 236.177 74.6099 236.783 74.3206 237.334C74.0313 237.885 73.6159 238.323 73.0746 238.65C72.5333 238.977 71.8939 239.14 71.1566 239.14ZM71.1566 237.712C71.7259 237.712 72.1693 237.511 72.4866 237.11C72.8133 236.709 72.9766 236.177 72.9766 235.514C72.9766 234.842 72.8133 234.305 72.4866 233.904C72.1693 233.493 71.7259 233.288 71.1566 233.288C70.5873 233.288 70.1393 233.493 69.8126 233.904C69.4953 234.305 69.3366 234.842 69.3366 235.514C69.3366 236.177 69.4953 236.709 69.8126 237.11C70.1393 237.511 70.5873 237.712 71.1566 237.712ZM76.663 232H78.287L78.329 232.742C78.5343 232.509 78.7956 232.303 79.113 232.126C79.4396 231.949 79.7803 231.86 80.135 231.86C80.247 231.86 80.3496 231.869 80.443 231.888L80.317 233.596C80.1396 233.549 79.939 233.526 79.715 233.526C79.4256 233.526 79.1596 233.596 78.917 233.736C78.6743 233.867 78.5016 234.03 78.399 234.226V239H76.663V232ZM85.235 239.14C84.423 239.14 83.7277 238.977 83.149 238.65C82.5797 238.314 82.1504 237.871 81.861 237.32C81.581 236.76 81.441 236.139 81.441 235.458C81.441 234.805 81.5764 234.207 81.847 233.666C82.1177 233.125 82.5097 232.695 83.023 232.378C83.5364 232.051 84.1477 231.888 84.857 231.888C85.5104 231.888 86.061 232.023 86.509 232.294C86.9664 232.565 87.307 232.929 87.531 233.386C87.7644 233.843 87.881 234.357 87.881 234.926C87.881 235.206 87.8437 235.523 87.769 235.878H83.247C83.3404 236.494 83.583 236.956 83.975 237.264C84.367 237.563 84.8384 237.712 85.389 237.712C86.145 237.712 86.845 237.521 87.489 237.138L87.573 238.608C87.2744 238.767 86.9244 238.897 86.523 239C86.131 239.093 85.7017 239.14 85.235 239.14ZM86.117 234.702C86.117 234.338 86.0144 234.016 85.809 233.736C85.6037 233.456 85.2864 233.316 84.857 233.316C84.4277 233.316 84.0824 233.442 83.821 233.694C83.5597 233.946 83.3824 234.282 83.289 234.702H86.117ZM96.4386 229.2H98.1886L94.4366 240.19H92.6866L96.4386 229.2ZM108.87 233.638C110.112 234.039 110.732 234.898 110.732 236.214C110.732 237.091 110.448 237.777 109.878 238.272C109.309 238.757 108.53 239 107.54 239H103.452V229.2H107.148C109.015 229.2 109.948 229.989 109.948 231.566C109.948 232.537 109.589 233.227 108.87 233.638ZM105.244 233.05H106.882C107.321 233.05 107.648 232.961 107.862 232.784C108.077 232.597 108.184 232.313 108.184 231.93C108.184 231.529 108.077 231.239 107.862 231.062C107.648 230.885 107.321 230.796 106.882 230.796H105.244V233.05ZM107.274 237.404C107.797 237.404 108.194 237.301 108.464 237.096C108.744 236.881 108.884 236.522 108.884 236.018C108.884 235.523 108.74 235.173 108.45 234.968C108.17 234.753 107.778 234.646 107.274 234.646H105.244V237.404H107.274ZM112.916 229.2H114.708V239H112.916V229.2ZM117.567 229.2H121.053C123.377 229.2 124.539 230.255 124.539 232.364C124.539 233.456 124.245 234.268 123.657 234.8C123.069 235.332 122.215 235.598 121.095 235.598H119.359V239H117.567V229.2ZM120.885 234.1C121.501 234.1 121.959 233.96 122.257 233.68C122.565 233.4 122.719 232.971 122.719 232.392C122.719 231.813 122.565 231.389 122.257 231.118C121.949 230.838 121.478 230.698 120.843 230.698H119.359V234.1H120.885ZM130.499 233.82C131.04 233.997 131.465 234.291 131.773 234.702C132.09 235.113 132.249 235.617 132.249 236.214C132.249 237.157 131.932 237.889 131.297 238.412C130.672 238.935 129.827 239.196 128.763 239.196C128.222 239.196 127.708 239.135 127.223 239.014C126.747 238.893 126.341 238.743 126.005 238.566L126.439 237.054C127.242 237.455 128.016 237.656 128.763 237.656C129.286 237.656 129.696 237.535 129.995 237.292C130.303 237.049 130.457 236.69 130.457 236.214C130.457 235.225 129.855 234.73 128.651 234.73H127.657V233.05H128.637C129.141 233.05 129.524 232.938 129.785 232.714C130.056 232.481 130.191 232.154 130.191 231.734C130.191 231.37 130.065 231.081 129.813 230.866C129.57 230.651 129.22 230.544 128.763 230.544C128.39 230.544 128.026 230.6 127.671 230.712C127.326 230.824 126.966 230.987 126.593 231.202L126.327 229.62C127.111 229.209 127.984 229.004 128.945 229.004C129.878 229.004 130.602 229.237 131.115 229.704C131.638 230.161 131.899 230.763 131.899 231.51C131.899 232.042 131.778 232.509 131.535 232.91C131.292 233.302 130.947 233.605 130.499 233.82ZM139.964 233.666C140.431 233.918 140.795 234.263 141.056 234.702C141.317 235.141 141.448 235.635 141.448 236.186C141.448 236.774 141.308 237.297 141.028 237.754C140.748 238.211 140.347 238.566 139.824 238.818C139.301 239.07 138.695 239.196 138.004 239.196C137.304 239.196 136.693 239.07 136.17 238.818C135.657 238.566 135.26 238.211 134.98 237.754C134.7 237.297 134.56 236.774 134.56 236.186C134.56 235.626 134.691 235.131 134.952 234.702C135.223 234.263 135.596 233.918 136.072 233.666C135.736 233.433 135.475 233.143 135.288 232.798C135.101 232.443 135.008 232.061 135.008 231.65C135.008 231.193 135.115 230.763 135.33 230.362C135.545 229.961 135.876 229.634 136.324 229.382C136.772 229.13 137.332 229.004 138.004 229.004C138.676 229.004 139.231 229.13 139.67 229.382C140.109 229.634 140.431 229.961 140.636 230.362C140.841 230.763 140.944 231.193 140.944 231.65C140.944 232.07 140.86 232.453 140.692 232.798C140.524 233.143 140.281 233.433 139.964 233.666ZM138.004 230.404C137.556 230.404 137.206 230.521 136.954 230.754C136.702 230.978 136.576 231.281 136.576 231.664C136.576 232.028 136.702 232.331 136.954 232.574C137.215 232.817 137.565 232.938 138.004 232.938C138.443 232.938 138.779 232.817 139.012 232.574C139.255 232.331 139.376 232.028 139.376 231.664C139.376 231.281 139.255 230.978 139.012 230.754C138.779 230.521 138.443 230.404 138.004 230.404ZM138.004 237.656C138.564 237.656 139.003 237.516 139.32 237.236C139.637 236.947 139.796 236.559 139.796 236.074C139.796 235.617 139.633 235.243 139.306 234.954C138.989 234.665 138.555 234.52 138.004 234.52C137.453 234.52 137.015 234.665 136.688 234.954C136.371 235.243 136.212 235.617 136.212 236.074C136.212 236.559 136.371 236.947 136.688 237.236C137.005 237.516 137.444 237.656 138.004 237.656Z" fill="white"/>
<path d="M31.2151 176.2H34.7011C37.0251 176.2 38.1871 177.255 38.1871 179.364C38.1871 180.456 37.8931 181.268 37.3051 181.8C36.7171 182.332 35.8631 182.598 34.7431 182.598H33.0071V186H31.2151V176.2ZM34.5331 181.1C35.1491 181.1 35.6064 180.96 35.9051 180.68C36.2131 180.4 36.3671 179.971 36.3671 179.392C36.3671 178.813 36.2131 178.389 35.9051 178.118C35.5971 177.838 35.1258 177.698 34.4911 177.698H33.0071V181.1H34.5331ZM39.8796 179H41.5036L41.5456 179.742C41.7509 179.509 42.0122 179.303 42.3296 179.126C42.6562 178.949 42.9969 178.86 43.3516 178.86C43.4636 178.86 43.5662 178.869 43.6596 178.888L43.5336 180.596C43.3562 180.549 43.1556 180.526 42.9316 180.526C42.6422 180.526 42.3762 180.596 42.1336 180.736C41.8909 180.867 41.7182 181.03 41.6156 181.226V186H39.8796V179ZM45.2007 176.2H46.9367V177.936H45.2007V176.2ZM45.2007 179H46.9367V186H45.2007V179ZM48.494 179H50.202L51.924 183.844L53.646 179H55.354L52.666 186H51.182L48.494 179ZM58.3529 186.14C57.7742 186.14 57.2889 185.953 56.8969 185.58C56.5142 185.197 56.3229 184.684 56.3229 184.04C56.3229 183.433 56.5422 182.948 56.9809 182.584C57.4196 182.211 57.9376 181.949 58.5349 181.8C59.1322 181.641 59.7062 181.553 60.2569 181.534C60.2382 181.123 60.1309 180.829 59.9349 180.652C59.7482 180.475 59.4356 180.386 58.9969 180.386C58.6889 180.386 58.3856 180.428 58.0869 180.512C57.7976 180.596 57.4616 180.731 57.0789 180.918L56.9249 179.504C57.7742 179.093 58.6236 178.888 59.4729 178.888C60.2942 178.888 60.9196 179.112 61.3489 179.56C61.7876 180.008 62.0069 180.722 62.0069 181.702V183.592C62.0069 183.947 62.0209 184.203 62.0489 184.362C62.0862 184.511 62.1422 184.609 62.2169 184.656C62.3009 184.693 62.4362 184.712 62.6229 184.712H62.8469L62.6929 186.14H62.0629C61.6802 186.14 61.3582 186.07 61.0969 185.93C60.8356 185.781 60.6349 185.58 60.4949 185.328C60.2709 185.58 59.9629 185.781 59.5709 185.93C59.1882 186.07 58.7822 186.14 58.3529 186.14ZM59.0809 184.81C59.2582 184.81 59.4589 184.768 59.6829 184.684C59.9069 184.591 60.1029 184.465 60.2709 184.306V182.71C59.7109 182.738 59.2162 182.859 58.7869 183.074C58.3576 183.289 58.1429 183.587 58.1429 183.97C58.1429 184.259 58.2176 184.474 58.3669 184.614C58.5162 184.745 58.7542 184.81 59.0809 184.81ZM66.6862 186.14C66.0702 186.14 65.6035 185.963 65.2862 185.608C64.9689 185.244 64.8102 184.81 64.8102 184.306V180.428H63.8162L63.9702 179H64.8102V177.46L66.5462 177.278V179H68.0862V180.428H66.5462V183.592C66.5462 183.965 66.5649 184.227 66.6022 184.376C66.6489 184.516 66.7375 184.609 66.8682 184.656C67.0082 184.693 67.2555 184.712 67.6102 184.712H68.0862L67.9322 186.14H66.6862ZM73.2907 186.14C72.4787 186.14 71.7834 185.977 71.2047 185.65C70.6354 185.314 70.206 184.871 69.9167 184.32C69.6367 183.76 69.4967 183.139 69.4967 182.458C69.4967 181.805 69.632 181.207 69.9027 180.666C70.1734 180.125 70.5654 179.695 71.0787 179.378C71.592 179.051 72.2034 178.888 72.9127 178.888C73.566 178.888 74.1167 179.023 74.5647 179.294C75.022 179.565 75.3627 179.929 75.5867 180.386C75.82 180.843 75.9367 181.357 75.9367 181.926C75.9367 182.206 75.8994 182.523 75.8247 182.878H71.3027C71.396 183.494 71.6387 183.956 72.0307 184.264C72.4227 184.563 72.894 184.712 73.4447 184.712C74.2007 184.712 74.9007 184.521 75.5447 184.138L75.6287 185.608C75.33 185.767 74.98 185.897 74.5787 186C74.1867 186.093 73.7574 186.14 73.2907 186.14ZM74.1727 181.702C74.1727 181.338 74.07 181.016 73.8647 180.736C73.6594 180.456 73.342 180.316 72.9127 180.316C72.4834 180.316 72.138 180.442 71.8767 180.694C71.6154 180.946 71.438 181.282 71.3447 181.702H74.1727ZM81.9323 176.2H83.7243V186H81.9323V176.2ZM83.8643 180.82L87.4903 176.2H89.5903L85.9363 180.82L89.5903 186H87.4903L83.8643 180.82ZM94.0255 186.14C93.2135 186.14 92.5181 185.977 91.9395 185.65C91.3701 185.314 90.9408 184.871 90.6515 184.32C90.3715 183.76 90.2315 183.139 90.2315 182.458C90.2315 181.805 90.3668 181.207 90.6375 180.666C90.9081 180.125 91.3001 179.695 91.8135 179.378C92.3268 179.051 92.9381 178.888 93.6475 178.888C94.3008 178.888 94.8515 179.023 95.2995 179.294C95.7568 179.565 96.0975 179.929 96.3215 180.386C96.5548 180.843 96.6715 181.357 96.6715 181.926C96.6715 182.206 96.6341 182.523 96.5595 182.878H92.0375C92.1308 183.494 92.3735 183.956 92.7655 184.264C93.1575 184.563 93.6288 184.712 94.1795 184.712C94.9355 184.712 95.6355 184.521 96.2795 184.138L96.3635 185.608C96.0648 185.767 95.7148 185.897 95.3135 186C94.9215 186.093 94.4921 186.14 94.0255 186.14ZM94.9075 181.702C94.9075 181.338 94.8048 181.016 94.5995 180.736C94.3941 180.456 94.0768 180.316 93.6475 180.316C93.2181 180.316 92.8728 180.442 92.6115 180.694C92.3501 180.946 92.1728 181.282 92.0795 181.702H94.9075ZM100.575 185.538L97.6628 179H99.5948L101.387 183.508L103.207 179H105.139L100.757 189.388H99.0208L100.575 185.538ZM113.353 176.2H115.103L111.351 187.19H109.601L113.353 176.2ZM122.691 180.974L119.429 176.2H121.417L123.671 179.532L125.925 176.2H127.913L124.651 180.974L128.081 186H126.093L123.671 182.43L121.249 186H119.261L122.691 180.974ZM129.83 176.2H133.316C135.64 176.2 136.802 177.255 136.802 179.364C136.802 180.456 136.508 181.268 135.92 181.8C135.332 182.332 134.478 182.598 133.358 182.598H131.622V186H129.83V176.2ZM133.148 181.1C133.764 181.1 134.222 180.96 134.52 180.68C134.828 180.4 134.982 179.971 134.982 179.392C134.982 178.813 134.828 178.389 134.52 178.118C134.212 177.838 133.741 177.698 133.106 177.698H131.622V181.1H133.148ZM138.87 176.2H142.454C143.5 176.2 144.321 176.452 144.918 176.956C145.525 177.451 145.828 178.188 145.828 179.168C145.828 179.849 145.684 180.409 145.394 180.848C145.105 181.277 144.694 181.623 144.162 181.884L146.374 186H144.372L142.482 182.36H142.412H140.662V186H138.87V176.2ZM141.978 180.862C143.294 180.862 143.952 180.33 143.952 179.266C143.952 178.753 143.803 178.365 143.504 178.104C143.206 177.833 142.72 177.698 142.048 177.698H140.662V180.862H141.978ZM155.854 176.2L152.368 186H150.674L147.188 176.2H148.994L151.514 183.41L154.048 176.2H155.854ZM164.04 176.2H165.79L162.038 187.19H160.288L164.04 176.2ZM170.116 176.2H171.978L173.938 183.158L176.122 176.2H177.368L179.636 182.976L181.512 176.2H183.374L180.504 186H178.922L176.738 179.462L174.568 186H172.874L170.116 176.2ZM185.234 176.2H187.026V186H185.234V176.2ZM189.885 176.2H195.919V177.936H191.677V180.022H194.953V181.758H191.677V186H189.885V176.2Z" fill="white"/>
<path d="M16 207L359 207" stroke="#3C4047"/>
</g>
<defs>
<filter id="filter0_d" x="-20" y="698" width="415" height="133" filterUnits="userSpaceOnUse" color-interpolation-filters="sRGB">
<feFlood flood-opacity="0" result="BackgroundImageFix"/>
<feColorMatrix in="SourceAlpha" type="matrix" values="0 0 0 0 0 0 0 0 0 0 0 0 0 0 0 0 0 0 127 0"/>
<feOffset dy="-1"/>
<feGaussianBlur stdDeviation="10"/>
<feColorMatrix type="matrix" values="0 0 0 0 0 0 0 0 0 0 0 0 0 0 0 0 0 0 0.1 0"/>
<feBlend mode="normal" in2="BackgroundImageFix" result="effect1_dropShadow"/>
<feBlend mode="normal" in="SourceGraphic" in2="effect1_dropShadow" result="shape"/>
</filter>
<linearGradient id="paint0_linear" x1="313.5" y1="47" x2="313.5" y2="72" gradientUnits="userSpaceOnUse">
<stop stop-color="#926CB3"/>
<stop offset="1" stop-color="#E18B8B"/>
</linearGradient>
<linearGradient id="paint1_linear" x1="313.5" y1="52" x2="313.5" y2="67" gradientUnits="userSpaceOnUse">
<stop stop-color="#926CB3"/>
<stop offset="1" stop-color="#E18B8B"/>
</linearGradient>
<linearGradient id="paint2_linear" x1="39.5" y1="732" x2="39.5" y2="751" gradientUnits="userSpaceOnUse">
<stop stop-color="#926CB3"/>
<stop offset="1" stop-color="#E18B8B"/>
</linearGradient>
<linearGradient id="paint3_linear" x1="39.5" y1="758" x2="39.5" y2="768" gradientUnits="userSpaceOnUse">
<stop stop-color="#926CB3"/>
<stop offset="1" stop-color="#E18B8B"/>
</linearGradient>
<clipPath id="clip0">
<rect width="375" height="812" fill="white"/>
</clipPath>
<clipPath id="clip1">
<rect width="25" height="25" fill="white" transform="translate(30 111)"/>
</clipPath>
</defs>
</svg>
