<svg width="375" height="812" viewBox="0 0 375 812" fill="none" xmlns="http://www.w3.org/2000/svg">
<g clip-path="url(#clip0)">
<rect width="375" height="812" fill="#36393E"/>
<path opacity="0.35" d="M338.667 17.8335H355.333C356.53 17.8335 357.5 18.8035 357.5 20.0002V26.0002C357.5 27.1968 356.53 28.1668 355.333 28.1668H338.667C337.47 28.1668 336.5 27.1968 336.5 26.0002V20.0002C336.5 18.8035 337.47 17.8335 338.667 17.8335Z" stroke="white"/>
<path opacity="0.4" d="M359 21V25C359.805 24.6612 360.328 23.8731 360.328 23C360.328 22.1269 359.805 21.3388 359 21" fill="white"/>
<path d="M338 20.6668C338 19.9305 338.597 19.3335 339.333 19.3335H354.667C355.403 19.3335 356 19.9304 356 20.6668V25.3335C356 26.0699 355.403 26.6668 354.667 26.6668H339.333C338.597 26.6668 338 26.0699 338 25.3335V20.6668Z" fill="white"/>
<path d="M323.33 19.6079C325.546 19.608 327.677 20.4594 329.283 21.9862C329.404 22.1041 329.597 22.1026 329.716 21.9829L330.872 20.8162C330.933 20.7555 330.966 20.6733 330.966 20.5877C330.965 20.5021 330.931 20.4202 330.87 20.3602C326.655 16.3207 320.005 16.3207 315.79 20.3602C315.729 20.4202 315.694 20.502 315.693 20.5876C315.693 20.6732 315.726 20.7555 315.787 20.8162L316.943 21.9829C317.062 22.1028 317.255 22.1043 317.376 21.9862C318.982 20.4593 321.114 19.6079 323.33 19.6079V19.6079Z" fill="white"/>
<path d="M323.331 23.4035C324.548 23.4034 325.722 23.8559 326.625 24.6731C326.747 24.7891 326.939 24.7866 327.058 24.6675L328.213 23.5008C328.274 23.4396 328.307 23.3566 328.306 23.2703C328.306 23.1841 328.27 23.1017 328.208 23.0418C325.46 20.4854 321.204 20.4854 318.456 23.0418C318.394 23.1017 318.358 23.1841 318.357 23.2704C318.357 23.3567 318.39 23.4397 318.451 23.5008L319.606 24.6675C319.725 24.7866 319.917 24.7891 320.039 24.6731C320.941 23.8565 322.114 23.404 323.331 23.4035V23.4035Z" fill="white"/>
<path d="M325.55 26.188C325.612 26.1274 325.646 26.044 325.644 25.9575C325.642 25.871 325.605 25.7891 325.54 25.731C324.265 24.6522 322.397 24.6522 321.121 25.731C321.057 25.789 321.019 25.8709 321.018 25.9575C321.016 26.044 321.05 26.1274 321.111 26.188L323.109 28.2037C323.168 28.2629 323.248 28.2963 323.331 28.2963C323.414 28.2963 323.494 28.2629 323.552 28.2037L325.55 26.188Z" fill="white"/>
<path d="M294.666 24.333H295.666C296.218 24.333 296.666 24.7807 296.666 25.333V27.333C296.666 27.8853 296.218 28.333 295.666 28.333H294.666C294.114 28.333 293.666 27.8853 293.666 27.333V25.333C293.666 24.7807 294.114 24.333 294.666 24.333V24.333Z" fill="white"/>
<path d="M299.333 22.333H300.333C300.885 22.333 301.333 22.7807 301.333 23.333V27.333C301.333 27.8853 300.885 28.333 300.333 28.333H299.333C298.781 28.333 298.333 27.8853 298.333 27.333V23.333C298.333 22.7807 298.781 22.333 299.333 22.333Z" fill="white"/>
<path d="M304 20H305C305.552 20 306 20.4477 306 21V27.3333C306 27.8856 305.552 28.3333 305 28.3333H304C303.448 28.3333 303 27.8856 303 27.3333V21C303 20.4477 303.448 20 304 20Z" fill="white"/>
<path d="M308.666 17.6665H309.666C310.218 17.6665 310.666 18.1142 310.666 18.6665V27.3332C310.666 27.8855 310.218 28.3332 309.666 28.3332H308.666C308.114 28.3332 307.666 27.8855 307.666 27.3332V18.6665C307.666 18.1142 308.114 17.6665 308.666 17.6665V17.6665Z" fill="white"/>
<path d="M39.5278 17.29C40.2478 17.29 40.8828 17.455 41.4328 17.785C41.9828 18.105 42.4078 18.56 42.7078 19.15C43.0078 19.74 43.1578 20.425 43.1578 21.205C43.1578 22.225 42.9228 23.19 42.4528 24.1C41.9928 25 41.4078 25.78 40.6978 26.44C39.9878 27.1 39.2578 27.62 38.5078 28L37.1728 26.95C37.8628 26.61 38.5828 26.12 39.3328 25.48C40.0928 24.84 40.6578 24.12 41.0278 23.32C40.5278 23.65 39.9028 23.815 39.1528 23.815C38.5728 23.815 38.0478 23.68 37.5778 23.41C37.1078 23.14 36.7378 22.765 36.4678 22.285C36.2078 21.805 36.0778 21.26 36.0778 20.65C36.0778 19.99 36.2178 19.405 36.4978 18.895C36.7778 18.385 37.1778 17.99 37.6978 17.71C38.2178 17.43 38.8278 17.29 39.5278 17.29ZM39.4978 22.165C39.9778 22.165 40.3728 22.015 40.6828 21.715C40.9928 21.415 41.1478 21.035 41.1478 20.575C41.1478 20.115 40.9928 19.73 40.6828 19.42C40.3728 19.1 39.9778 18.94 39.4978 18.94C39.0278 18.94 38.6328 19.1 38.3128 19.42C38.0028 19.73 37.8478 20.115 37.8478 20.575C37.8478 21.035 38.0028 21.415 38.3128 21.715C38.6328 22.015 39.0278 22.165 39.4978 22.165ZM44.1707 20.5H46.1207V22.54H44.1707V20.5ZM44.1707 25.96H46.1207V28H44.1707V25.96ZM55.0409 24.04V25.6H53.6909V28H51.8459V25.6H46.6109L52.3859 17.5H53.6909V24.04H55.0409ZM51.8459 24.04V20.815L49.5809 24.04H51.8459ZM57.5651 20.215C57.1451 20.495 56.7051 20.675 56.2451 20.755L56.0801 19.135C56.4101 19.065 56.7801 18.865 57.1901 18.535C57.6001 18.195 57.8751 17.85 58.0151 17.5H59.4851V28H57.5651V20.215Z" fill="white"/>
<path d="M28 59.4675L20.583 67.5L28 75.5325L25.7166 78L16 67.5L25.7166 57L28 59.4675Z" fill="white"/>
<path d="M159.505 61.4H161.809V74H159.505V61.4ZM175.083 64.856C176.283 64.856 177.171 65.222 177.747 65.954C178.335 66.674 178.629 67.688 178.629 68.996V74H176.397V69.158C176.397 68.306 176.265 67.682 176.001 67.286C175.737 66.89 175.305 66.692 174.705 66.692C174.117 66.692 173.673 66.896 173.373 67.304C173.073 67.7 172.923 68.264 172.923 68.996V74H170.691V69.158C170.691 68.306 170.553 67.682 170.277 67.286C170.001 66.89 169.563 66.692 168.963 66.692C168.255 66.692 167.673 66.95 167.217 67.466V74H164.985V65H166.893L166.965 65.72C167.781 65.144 168.663 64.856 169.611 64.856C170.763 64.856 171.621 65.27 172.185 66.098C172.497 65.702 172.905 65.396 173.409 65.18C173.913 64.964 174.471 64.856 175.083 64.856ZM186.228 64.856C187.08 64.856 187.812 65.066 188.424 65.486C189.036 65.906 189.498 66.47 189.81 67.178C190.122 67.886 190.278 68.666 190.278 69.518C190.278 70.37 190.122 71.15 189.81 71.858C189.498 72.566 189.036 73.13 188.424 73.55C187.812 73.97 187.08 74.18 186.228 74.18C185.688 74.18 185.226 74.12 184.842 74C184.47 73.892 184.11 73.712 183.762 73.46V78.356H181.53V65H183.33L183.564 65.828C183.948 65.504 184.35 65.264 184.77 65.108C185.19 64.94 185.676 64.856 186.228 64.856ZM185.886 72.344C186.546 72.344 187.062 72.086 187.434 71.57C187.806 71.054 187.992 70.37 187.992 69.518C187.992 68.666 187.806 67.982 187.434 67.466C187.062 66.95 186.546 66.692 185.886 66.692C185.142 66.692 184.584 66.944 184.212 67.448C183.84 67.952 183.654 68.642 183.654 69.518C183.654 70.394 183.84 71.084 184.212 71.588C184.584 72.092 185.142 72.344 185.886 72.344ZM196.816 74.18C195.868 74.18 195.046 73.97 194.35 73.55C193.654 73.13 193.12 72.566 192.748 71.858C192.376 71.15 192.19 70.37 192.19 69.518C192.19 68.666 192.376 67.88 192.748 67.16C193.12 66.44 193.654 65.87 194.35 65.45C195.046 65.03 195.868 64.82 196.816 64.82C197.764 64.82 198.586 65.03 199.282 65.45C199.978 65.87 200.512 66.44 200.884 67.16C201.256 67.88 201.442 68.666 201.442 69.518C201.442 70.37 201.256 71.15 200.884 71.858C200.512 72.566 199.978 73.13 199.282 73.55C198.586 73.97 197.764 74.18 196.816 74.18ZM196.816 72.344C197.548 72.344 198.118 72.086 198.526 71.57C198.946 71.054 199.156 70.37 199.156 69.518C199.156 68.654 198.946 67.964 198.526 67.448C198.118 66.92 197.548 66.656 196.816 66.656C196.084 66.656 195.508 66.92 195.088 67.448C194.68 67.964 194.476 68.654 194.476 69.518C194.476 70.37 194.68 71.054 195.088 71.57C195.508 72.086 196.084 72.344 196.816 72.344ZM203.896 65H205.984L206.038 65.954C206.302 65.654 206.638 65.39 207.046 65.162C207.466 64.934 207.904 64.82 208.36 64.82C208.504 64.82 208.636 64.832 208.756 64.856L208.594 67.052C208.366 66.992 208.108 66.962 207.82 66.962C207.448 66.962 207.106 67.052 206.794 67.232C206.482 67.4 206.26 67.61 206.128 67.862V74H203.896V65ZM213.671 74.18C212.879 74.18 212.279 73.952 211.871 73.496C211.463 73.028 211.259 72.47 211.259 71.822V66.836H209.981L210.179 65H211.259V63.02L213.491 62.786V65H215.471V66.836H213.491V70.904C213.491 71.384 213.515 71.72 213.563 71.912C213.623 72.092 213.737 72.212 213.905 72.272C214.085 72.32 214.403 72.344 214.859 72.344H215.471L215.273 74.18H213.671Z" fill="white"/>
<path d="M340 77C340.962 77 341.75 76.1692 341.75 75.1538H338.25C338.25 76.1692 339.029 77 340 77ZM345.25 71.4615V66.8462C345.25 64.0123 343.815 61.64 341.312 61.0123V60.3846C341.312 59.6185 340.726 59 340 59C339.274 59 338.687 59.6185 338.687 60.3846V61.0123C336.176 61.64 334.75 64.0031 334.75 66.8462V71.4615L333 73.3077V74.2308H347V73.3077L345.25 71.4615Z" fill="white"/>
<path d="M309.2 61H294.8C293.81 61 293.009 61.7875 293.009 62.75L293 73.25C293 74.2125 293.81 75 294.8 75H309.2C310.19 75 311 74.2125 311 73.25V62.75C311 61.7875 310.19 61 309.2 61ZM309.2 64.5L302 68.875L294.8 64.5V62.75L302 67.125L309.2 62.75V64.5Z" fill="white"/>
<circle opacity="0.3" cx="313.5" cy="59.5" r="12.5" fill="url(#paint0_linear)"/>
<circle cx="313.5" cy="59.5" r="7.5" fill="url(#paint1_linear)"/>
<path d="M313.28 60.17C313.667 59.5767 313.93 59.13 314.07 58.83C314.217 58.53 314.29 58.2467 314.29 57.98C314.29 57.6933 314.207 57.47 314.04 57.31C313.88 57.1433 313.657 57.06 313.37 57.06C313.05 57.06 312.753 57.1367 312.48 57.29C312.207 57.4433 311.94 57.65 311.68 57.91L311.52 56.62C311.833 56.3667 312.16 56.1767 312.5 56.05C312.84 55.9233 313.217 55.86 313.63 55.86C314.037 55.86 314.383 55.9467 314.67 56.12C314.957 56.2867 315.17 56.5133 315.31 56.8C315.457 57.0867 315.53 57.4033 315.53 57.75C315.53 58.1433 315.443 58.5467 315.27 58.96C315.103 59.3733 314.807 59.9033 314.38 60.55L313.56 61.8H315.78V63H311.44L313.28 60.17Z" fill="white"/>
<g filter="url(#filter0_d)">
<rect y="719" width="375" height="93" fill="#474A4F"/>
</g>
<path d="M27 734.375C27 733.069 28.125 732 29.5 732H48.25C48.9403 732 49.5 732.532 49.5 733.188V734.375H29.5V735.563H50.75C51.4403 735.563 52 736.094 52 736.75V748.625C52 749.937 50.8806 751 49.5 751H29.5C28.1194 751 27 749.937 27 748.625V734.375ZM47.625 745.063C48.6606 745.063 49.5 744.265 49.5 743.281C49.5 742.297 48.6606 741.5 47.625 741.5C46.5894 741.5 45.75 742.297 45.75 743.281C45.75 744.265 46.5894 745.063 47.625 745.063Z" fill="url(#paint2_linear)"/>
<path d="M28.08 760.4H29.144L30.264 764.376L31.512 760.4H32.224L33.52 764.272L34.592 760.4H35.656L34.016 766H33.112L31.864 762.264L30.624 766H29.656L28.08 760.4ZM36.7421 766.08C36.4114 766.08 36.1341 765.973 35.9101 765.76C35.6914 765.541 35.5821 765.248 35.5821 764.88C35.5821 764.533 35.7074 764.256 35.9581 764.048C36.2087 763.835 36.5047 763.685 36.8461 763.6C37.1874 763.509 37.5154 763.459 37.8301 763.448C37.8194 763.213 37.7581 763.045 37.6461 762.944C37.5394 762.843 37.3607 762.792 37.1101 762.792C36.9341 762.792 36.7607 762.816 36.5901 762.864C36.4247 762.912 36.2327 762.989 36.0141 763.096L35.9261 762.288C36.4114 762.053 36.8967 761.936 37.3821 761.936C37.8514 761.936 38.2087 762.064 38.4541 762.32C38.7047 762.576 38.8301 762.984 38.8301 763.544V764.624C38.8301 764.827 38.8381 764.973 38.8541 765.064C38.8754 765.149 38.9074 765.205 38.9501 765.232C38.9981 765.253 39.0754 765.264 39.1821 765.264H39.3101L39.2221 766.08H38.8621C38.6434 766.08 38.4594 766.04 38.3101 765.96C38.1607 765.875 38.0461 765.76 37.9661 765.616C37.8381 765.76 37.6621 765.875 37.4381 765.96C37.2194 766.04 36.9874 766.08 36.7421 766.08ZM37.1581 765.32C37.2594 765.32 37.3741 765.296 37.5021 765.248C37.6301 765.195 37.7421 765.123 37.8381 765.032V764.12C37.5181 764.136 37.2354 764.205 36.9901 764.328C36.7447 764.451 36.6221 764.621 36.6221 764.84C36.6221 765.005 36.6647 765.128 36.7501 765.208C36.8354 765.283 36.9714 765.32 37.1581 765.32ZM40.8864 766.08C40.5451 766.08 40.2891 765.984 40.1184 765.792C39.9478 765.595 39.8624 765.341 39.8624 765.032V760H40.8544V764.624C40.8544 764.837 40.8651 764.989 40.8864 765.08C40.9131 765.165 40.9558 765.219 41.0144 765.24C41.0784 765.256 41.1851 765.264 41.3344 765.264L41.2464 766.08H40.8864ZM42.988 766.08C42.6467 766.08 42.3907 765.984 42.22 765.792C42.0493 765.595 41.964 765.341 41.964 765.032V760H42.956V764.624C42.956 764.837 42.9667 764.989 42.988 765.08C43.0147 765.165 43.0573 765.219 43.116 765.24C43.18 765.256 43.2867 765.264 43.436 765.264L43.348 766.08H42.988ZM45.9545 766.08C45.4905 766.08 45.0932 765.987 44.7625 765.8C44.4372 765.608 44.1918 765.355 44.0265 765.04C43.8665 764.72 43.7865 764.365 43.7865 763.976C43.7865 763.603 43.8638 763.261 44.0185 762.952C44.1732 762.643 44.3972 762.397 44.6905 762.216C44.9838 762.029 45.3332 761.936 45.7385 761.936C46.1118 761.936 46.4265 762.013 46.6825 762.168C46.9438 762.323 47.1385 762.531 47.2665 762.792C47.3998 763.053 47.4665 763.347 47.4665 763.672C47.4665 763.832 47.4452 764.013 47.4025 764.216H44.8185C44.8718 764.568 45.0105 764.832 45.2345 765.008C45.4585 765.179 45.7278 765.264 46.0425 765.264C46.4745 765.264 46.8745 765.155 47.2425 764.936L47.2905 765.776C47.1198 765.867 46.9198 765.941 46.6905 766C46.4665 766.053 46.2212 766.08 45.9545 766.08ZM46.4585 763.544C46.4585 763.336 46.3998 763.152 46.2825 762.992C46.1652 762.832 45.9838 762.752 45.7385 762.752C45.4932 762.752 45.2958 762.824 45.1465 762.968C44.9972 763.112 44.8958 763.304 44.8425 763.544H46.4585ZM49.4477 766.08C49.0957 766.08 48.829 765.979 48.6477 765.776C48.4664 765.568 48.3757 765.32 48.3757 765.032V762.816H47.8077L47.8957 762H48.3757V761.12L49.3677 761.016V762H50.2477V762.816H49.3677V764.624C49.3677 764.837 49.3784 764.987 49.3997 765.072C49.4264 765.152 49.477 765.205 49.5517 765.232C49.6317 765.253 49.773 765.264 49.9757 765.264H50.2477L50.1597 766.08H49.4477Z" fill="url(#paint3_linear)"/>
<path d="M329 749H352V746.5H329V749ZM329 742.75H352V740.25H329V742.75ZM329 734V736.5H352V734H329Z" fill="#A6A6A6"/>
<path d="M335.248 766L334.768 762.248L333.336 764.824L331.896 762.256L331.416 766H330.352L331.128 760.4H331.968L333.336 762.952L334.696 760.4H335.536L336.312 766H335.248ZM338.955 766.08C338.491 766.08 338.093 765.987 337.763 765.8C337.437 765.608 337.192 765.355 337.027 765.04C336.867 764.72 336.787 764.365 336.787 763.976C336.787 763.603 336.864 763.261 337.019 762.952C337.173 762.643 337.397 762.397 337.691 762.216C337.984 762.029 338.333 761.936 338.739 761.936C339.112 761.936 339.427 762.013 339.683 762.168C339.944 762.323 340.139 762.531 340.267 762.792C340.4 763.053 340.467 763.347 340.467 763.672C340.467 763.832 340.445 764.013 340.403 764.216H337.819C337.872 764.568 338.011 764.832 338.235 765.008C338.459 765.179 338.728 765.264 339.043 765.264C339.475 765.264 339.875 765.155 340.243 764.936L340.291 765.776C340.12 765.867 339.92 765.941 339.691 766C339.467 766.053 339.221 766.08 338.955 766.08ZM339.459 763.544C339.459 763.336 339.4 763.152 339.283 762.992C339.165 762.832 338.984 762.752 338.739 762.752C338.493 762.752 338.296 762.824 338.147 762.968C337.997 763.112 337.896 763.304 337.843 763.544H339.459ZM343.16 761.936C343.656 761.936 344.032 762.101 344.288 762.432C344.544 762.763 344.672 763.208 344.672 763.768V766H343.68V763.848C343.68 763.475 343.616 763.2 343.488 763.024C343.365 762.843 343.165 762.752 342.888 762.752C342.584 762.752 342.333 762.867 342.136 763.096V766H341.144V762H342.072L342.088 762.28C342.424 762.051 342.781 761.936 343.16 761.936ZM349.015 762V766H348.087L348.071 765.76C347.948 765.851 347.807 765.928 347.647 765.992C347.487 766.051 347.332 766.08 347.183 766.08C346.591 766.08 346.159 765.909 345.887 765.568C345.62 765.227 345.487 764.755 345.487 764.152V762H346.479V764.152C346.479 764.525 346.54 764.803 346.663 764.984C346.791 765.16 346.993 765.248 347.271 765.248C347.58 765.248 347.831 765.136 348.023 764.912V762H349.015Z" fill="#AAAAAA"/>
<path d="M245.52 764.672H243.48L243.016 766H242.024L244.016 760.4H244.984L246.976 766H245.984L245.52 764.672ZM245.2 763.776L244.504 761.776L243.8 763.776H245.2ZM251.018 760V766H250.082L250.066 765.744C249.912 765.856 249.749 765.941 249.578 766C249.413 766.053 249.216 766.08 248.986 766.08C248.597 766.08 248.261 765.987 247.978 765.8C247.701 765.613 247.49 765.363 247.346 765.048C247.202 764.733 247.13 764.387 247.13 764.008C247.13 763.629 247.202 763.283 247.346 762.968C247.49 762.653 247.701 762.403 247.978 762.216C248.261 762.029 248.597 761.936 248.986 761.936C249.376 761.936 249.722 762.043 250.026 762.256V760H251.018ZM249.13 765.264C249.445 765.264 249.68 765.152 249.834 764.928C249.994 764.704 250.074 764.397 250.074 764.008C250.074 763.619 249.994 763.312 249.834 763.088C249.68 762.864 249.445 762.752 249.13 762.752C248.821 762.752 248.578 762.867 248.402 763.096C248.232 763.325 248.146 763.629 248.146 764.008C248.146 764.387 248.232 764.691 248.402 764.92C248.578 765.149 248.821 765.264 249.13 765.264ZM255.589 760V766H254.653L254.637 765.744C254.482 765.856 254.319 765.941 254.149 766C253.983 766.053 253.786 766.08 253.557 766.08C253.167 766.08 252.831 765.987 252.549 765.8C252.271 765.613 252.061 765.363 251.917 765.048C251.773 764.733 251.701 764.387 251.701 764.008C251.701 763.629 251.773 763.283 251.917 762.968C252.061 762.653 252.271 762.403 252.549 762.216C252.831 762.029 253.167 761.936 253.557 761.936C253.946 761.936 254.293 762.043 254.597 762.256V760H255.589ZM253.701 765.264C254.015 765.264 254.25 765.152 254.405 764.928C254.565 764.704 254.645 764.397 254.645 764.008C254.645 763.619 254.565 763.312 254.405 763.088C254.25 762.864 254.015 762.752 253.701 762.752C253.391 762.752 253.149 762.867 252.973 763.096C252.802 763.325 252.717 763.629 252.717 764.008C252.717 764.387 252.802 764.691 252.973 764.92C253.149 765.149 253.391 765.264 253.701 765.264ZM256.511 762H257.439L257.463 762.424C257.58 762.291 257.73 762.173 257.911 762.072C258.098 761.971 258.292 761.92 258.495 761.92C258.559 761.92 258.618 761.925 258.671 761.936L258.599 762.912C258.498 762.885 258.383 762.872 258.255 762.872C258.09 762.872 257.938 762.912 257.799 762.992C257.66 763.067 257.562 763.16 257.503 763.272V766H256.511V762ZM261.009 766.08C260.545 766.08 260.148 765.987 259.817 765.8C259.492 765.608 259.247 765.355 259.081 765.04C258.921 764.72 258.841 764.365 258.841 763.976C258.841 763.603 258.919 763.261 259.073 762.952C259.228 762.643 259.452 762.397 259.745 762.216C260.039 762.029 260.388 761.936 260.793 761.936C261.167 761.936 261.481 762.013 261.737 762.168C261.999 762.323 262.193 762.531 262.321 762.792C262.455 763.053 262.521 763.347 262.521 763.672C262.521 763.832 262.5 764.013 262.457 764.216H259.873C259.927 764.568 260.065 764.832 260.289 765.008C260.513 765.179 260.783 765.264 261.097 765.264C261.529 765.264 261.929 765.155 262.297 764.936L262.345 765.776C262.175 765.867 261.975 765.941 261.745 766C261.521 766.053 261.276 766.08 261.009 766.08ZM261.513 763.544C261.513 763.336 261.455 763.152 261.337 762.992C261.22 762.832 261.039 762.752 260.793 762.752C260.548 762.752 260.351 762.824 260.201 762.968C260.052 763.112 259.951 763.304 259.897 763.544H261.513ZM264.334 766.08C264.078 766.08 263.844 766.056 263.63 766.008C263.422 765.96 263.206 765.885 262.982 765.784L263.07 764.936C263.294 765.069 263.502 765.171 263.694 765.24C263.892 765.304 264.094 765.336 264.302 765.336C264.708 765.336 264.91 765.203 264.91 764.936C264.91 764.792 264.857 764.683 264.75 764.608C264.644 764.528 264.452 764.435 264.174 764.328C263.78 764.184 263.489 764.021 263.302 763.84C263.116 763.653 263.022 763.403 263.022 763.088C263.022 762.741 263.156 762.461 263.422 762.248C263.689 762.029 264.049 761.92 264.502 761.92C264.956 761.92 265.369 762.024 265.742 762.232L265.654 763.08C265.452 762.941 265.26 762.835 265.078 762.76C264.902 762.685 264.716 762.648 264.518 762.648C264.348 762.648 264.214 762.683 264.118 762.752C264.028 762.821 263.982 762.92 263.982 763.048C263.982 763.149 264.009 763.232 264.062 763.296C264.121 763.36 264.201 763.419 264.302 763.472C264.404 763.52 264.572 763.589 264.806 763.68C265.196 763.829 265.476 763.995 265.646 764.176C265.817 764.352 265.902 764.589 265.902 764.888C265.902 765.267 265.766 765.56 265.494 765.768C265.222 765.976 264.836 766.08 264.334 766.08ZM267.717 766.08C267.461 766.08 267.227 766.056 267.013 766.008C266.805 765.96 266.589 765.885 266.365 765.784L266.453 764.936C266.677 765.069 266.885 765.171 267.077 765.24C267.275 765.304 267.477 765.336 267.685 765.336C268.091 765.336 268.293 765.203 268.293 764.936C268.293 764.792 268.24 764.683 268.133 764.608C268.027 764.528 267.835 764.435 267.557 764.328C267.163 764.184 266.872 764.021 266.685 763.84C266.499 763.653 266.405 763.403 266.405 763.088C266.405 762.741 266.539 762.461 266.805 762.248C267.072 762.029 267.432 761.92 267.885 761.92C268.339 761.92 268.752 762.024 269.125 762.232L269.037 763.08C268.835 762.941 268.643 762.835 268.461 762.76C268.285 762.685 268.099 762.648 267.901 762.648C267.731 762.648 267.597 762.683 267.501 762.752C267.411 762.821 267.365 762.92 267.365 763.048C267.365 763.149 267.392 763.232 267.445 763.296C267.504 763.36 267.584 763.419 267.685 763.472C267.787 763.52 267.955 763.589 268.189 763.68C268.579 763.829 268.859 763.995 269.029 764.176C269.2 764.352 269.285 764.589 269.285 764.888C269.285 765.267 269.149 765.56 268.877 765.768C268.605 765.976 268.219 766.08 267.717 766.08ZM275.009 762.936C275.718 763.165 276.073 763.656 276.073 764.408C276.073 764.909 275.91 765.301 275.585 765.584C275.26 765.861 274.814 766 274.249 766H271.913V760.4H274.025C275.092 760.4 275.625 760.851 275.625 761.752C275.625 762.307 275.42 762.701 275.009 762.936ZM272.937 762.6H273.873C274.124 762.6 274.31 762.549 274.433 762.448C274.556 762.341 274.617 762.179 274.617 761.96C274.617 761.731 274.556 761.565 274.433 761.464C274.31 761.363 274.124 761.312 273.873 761.312H272.937V762.6ZM274.097 765.088C274.396 765.088 274.622 765.029 274.777 764.912C274.937 764.789 275.017 764.584 275.017 764.296C275.017 764.013 274.934 763.813 274.769 763.696C274.609 763.573 274.385 763.512 274.097 763.512H272.937V765.088H274.097ZM278.585 766.08C278.163 766.08 277.798 765.987 277.489 765.8C277.179 765.613 276.942 765.363 276.777 765.048C276.611 764.733 276.529 764.387 276.529 764.008C276.529 763.629 276.611 763.28 276.777 762.96C276.942 762.64 277.179 762.387 277.489 762.2C277.798 762.013 278.163 761.92 278.585 761.92C279.006 761.92 279.371 762.013 279.681 762.2C279.99 762.387 280.227 762.64 280.393 762.96C280.558 763.28 280.641 763.629 280.641 764.008C280.641 764.387 280.558 764.733 280.393 765.048C280.227 765.363 279.99 765.613 279.681 765.8C279.371 765.987 279.006 766.08 278.585 766.08ZM278.585 765.264C278.91 765.264 279.163 765.149 279.345 764.92C279.531 764.691 279.625 764.387 279.625 764.008C279.625 763.624 279.531 763.317 279.345 763.088C279.163 762.853 278.91 762.736 278.585 762.736C278.259 762.736 278.003 762.853 277.817 763.088C277.635 763.317 277.545 763.624 277.545 764.008C277.545 764.387 277.635 764.691 277.817 764.92C278.003 765.149 278.259 765.264 278.585 765.264ZM283.147 766.08C282.726 766.08 282.361 765.987 282.051 765.8C281.742 765.613 281.505 765.363 281.339 765.048C281.174 764.733 281.091 764.387 281.091 764.008C281.091 763.629 281.174 763.28 281.339 762.96C281.505 762.64 281.742 762.387 282.051 762.2C282.361 762.013 282.726 761.92 283.147 761.92C283.569 761.92 283.934 762.013 284.243 762.2C284.553 762.387 284.79 762.64 284.955 762.96C285.121 763.28 285.203 763.629 285.203 764.008C285.203 764.387 285.121 764.733 284.955 765.048C284.79 765.363 284.553 765.613 284.243 765.8C283.934 765.987 283.569 766.08 283.147 766.08ZM283.147 765.264C283.473 765.264 283.726 765.149 283.907 764.92C284.094 764.691 284.187 764.387 284.187 764.008C284.187 763.624 284.094 763.317 283.907 763.088C283.726 762.853 283.473 762.736 283.147 762.736C282.822 762.736 282.566 762.853 282.379 763.088C282.198 763.317 282.107 763.624 282.107 764.008C282.107 764.387 282.198 764.691 282.379 764.92C282.566 765.149 282.822 765.264 283.147 765.264ZM285.886 760H286.878V763.64L288.118 762H289.238L287.782 763.92L289.27 766H288.15L286.878 764.224V766H285.886V760Z" fill="#AAAAAA"/>
<path d="M257.2 735.4H255V750.8C255 752.01 255.99 753 257.2 753H272.6V750.8H257.2V735.4ZM274.8 731H261.6C260.39 731 259.4 731.99 259.4 733.2V746.4C259.4 747.61 260.39 748.6 261.6 748.6H274.8C276.01 748.6 277 747.61 277 746.4V733.2C277 731.99 276.01 731 274.8 731ZM273.7 740.9H262.7V738.7H273.7V740.9ZM269.3 745.3H262.7V743.1H269.3V745.3ZM273.7 736.5H262.7V734.3H273.7V736.5Z" fill="#AAAAAA"/>
<path d="M97.24 766.112C96.9253 766.112 96.5867 766.069 96.224 765.984C95.8667 765.899 95.5867 765.805 95.384 765.704L95.504 764.616C96.208 764.957 96.8267 765.128 97.36 765.128C97.6427 765.128 97.864 765.075 98.024 764.968C98.184 764.856 98.264 764.693 98.264 764.48C98.264 764.32 98.2187 764.189 98.128 764.088C98.0427 763.981 97.9173 763.893 97.752 763.824C97.5867 763.749 97.3227 763.648 96.96 763.52C96.6187 763.403 96.336 763.28 96.112 763.152C95.888 763.019 95.7093 762.851 95.576 762.648C95.448 762.44 95.384 762.187 95.384 761.888C95.384 761.408 95.56 761.021 95.912 760.728C96.264 760.435 96.768 760.288 97.424 760.288C97.7333 760.288 98.04 760.323 98.344 760.392C98.6533 760.461 98.936 760.547 99.192 760.648L99.088 761.696C98.7573 761.552 98.4533 761.445 98.176 761.376C97.904 761.301 97.632 761.264 97.36 761.264C97.056 761.264 96.824 761.315 96.664 761.416C96.504 761.517 96.424 761.664 96.424 761.856C96.424 762.005 96.4667 762.128 96.552 762.224C96.6373 762.32 96.752 762.4 96.896 762.464C97.0453 762.528 97.264 762.605 97.552 762.696C98.1973 762.899 98.6667 763.133 98.96 763.4C99.2587 763.661 99.408 764.021 99.408 764.48C99.408 764.917 99.256 765.299 98.952 765.624C98.648 765.949 98.0773 766.112 97.24 766.112ZM99.6503 762H100.618L101.306 764.792L102.058 762.08H102.89L103.634 764.792L104.33 762H105.298L104.13 766H103.298L102.474 763.392L101.65 766H100.818L99.6503 762ZM106.672 766.08C106.341 766.08 106.064 765.973 105.84 765.76C105.621 765.541 105.512 765.248 105.512 764.88C105.512 764.533 105.637 764.256 105.888 764.048C106.138 763.835 106.434 763.685 106.776 763.6C107.117 763.509 107.445 763.459 107.76 763.448C107.749 763.213 107.688 763.045 107.576 762.944C107.469 762.843 107.29 762.792 107.04 762.792C106.864 762.792 106.69 762.816 106.52 762.864C106.354 762.912 106.162 762.989 105.944 763.096L105.856 762.288C106.341 762.053 106.826 761.936 107.312 761.936C107.781 761.936 108.138 762.064 108.384 762.32C108.634 762.576 108.76 762.984 108.76 763.544V764.624C108.76 764.827 108.768 764.973 108.784 765.064C108.805 765.149 108.837 765.205 108.88 765.232C108.928 765.253 109.005 765.264 109.112 765.264H109.24L109.152 766.08H108.792C108.573 766.08 108.389 766.04 108.24 765.96C108.09 765.875 107.976 765.76 107.896 765.616C107.768 765.76 107.592 765.875 107.368 765.96C107.149 766.04 106.917 766.08 106.672 766.08ZM107.088 765.32C107.189 765.32 107.304 765.296 107.432 765.248C107.56 765.195 107.672 765.123 107.768 765.032V764.12C107.448 764.136 107.165 764.205 106.92 764.328C106.674 764.451 106.552 764.621 106.552 764.84C106.552 765.005 106.594 765.128 106.68 765.208C106.765 765.283 106.901 765.32 107.088 765.32ZM111.88 761.936C112.259 761.936 112.584 762.029 112.856 762.216C113.128 762.403 113.333 762.653 113.472 762.968C113.611 763.283 113.68 763.629 113.68 764.008C113.68 764.387 113.611 764.733 113.472 765.048C113.333 765.363 113.128 765.613 112.856 765.8C112.584 765.987 112.259 766.08 111.88 766.08C111.64 766.08 111.435 766.053 111.264 766C111.099 765.952 110.939 765.872 110.784 765.76V767.936H109.792V762H110.592L110.696 762.368C110.867 762.224 111.045 762.117 111.232 762.048C111.419 761.973 111.635 761.936 111.88 761.936ZM111.728 765.264C112.021 765.264 112.251 765.149 112.416 764.92C112.581 764.691 112.664 764.387 112.664 764.008C112.664 763.629 112.581 763.325 112.416 763.096C112.251 762.867 112.021 762.752 111.728 762.752C111.397 762.752 111.149 762.864 110.984 763.088C110.819 763.312 110.736 763.619 110.736 764.008C110.736 764.397 110.819 764.704 110.984 764.928C111.149 765.152 111.397 765.264 111.728 765.264ZM115.506 766.08C115.25 766.08 115.016 766.056 114.802 766.008C114.594 765.96 114.378 765.885 114.154 765.784L114.242 764.936C114.466 765.069 114.674 765.171 114.866 765.24C115.064 765.304 115.266 765.336 115.474 765.336C115.88 765.336 116.082 765.203 116.082 764.936C116.082 764.792 116.029 764.683 115.922 764.608C115.816 764.528 115.624 764.435 115.346 764.328C114.952 764.184 114.661 764.021 114.474 763.84C114.288 763.653 114.194 763.403 114.194 763.088C114.194 762.741 114.328 762.461 114.594 762.248C114.861 762.029 115.221 761.92 115.674 761.92C116.128 761.92 116.541 762.024 116.914 762.232L116.826 763.08C116.624 762.941 116.432 762.835 116.25 762.76C116.074 762.685 115.888 762.648 115.69 762.648C115.52 762.648 115.386 762.683 115.29 762.752C115.2 762.821 115.154 762.92 115.154 763.048C115.154 763.149 115.181 763.232 115.234 763.296C115.293 763.36 115.373 763.419 115.474 763.472C115.576 763.52 115.744 763.589 115.978 763.68C116.368 763.829 116.648 763.995 116.818 764.176C116.989 764.352 117.074 764.589 117.074 764.888C117.074 765.267 116.938 765.56 116.666 765.768C116.394 765.976 116.008 766.08 115.506 766.08Z" fill="#AAAAAA"/>
<path d="M114.35 734.929L102.667 734.929L102.667 738.214L114.35 738.214L114.35 743.143L121 736.571L114.35 730L114.35 734.929V734.929ZM91 746.429L97.65 753L97.65 748.071L109.333 748.071L109.333 744.786L97.65 744.786L97.65 739.857L91 746.429Z" fill="#AAAAAA"/>
<path d="M159.616 760.4H161.712C162.245 760.4 162.72 760.512 163.136 760.736C163.557 760.96 163.885 761.283 164.12 761.704C164.355 762.125 164.472 762.624 164.472 763.2C164.472 763.776 164.355 764.275 164.12 764.696C163.885 765.117 163.557 765.44 163.136 765.664C162.72 765.888 162.245 766 161.712 766H159.616V760.4ZM161.712 765.088C162.245 765.088 162.651 764.923 162.928 764.592C163.211 764.256 163.352 763.792 163.352 763.2C163.352 762.608 163.211 762.147 162.928 761.816C162.651 761.48 162.245 761.312 161.712 761.312H160.64V765.088H161.712ZM167.103 766.08C166.639 766.08 166.242 765.987 165.911 765.8C165.586 765.608 165.34 765.355 165.175 765.04C165.015 764.72 164.935 764.365 164.935 763.976C164.935 763.603 165.012 763.261 165.167 762.952C165.322 762.643 165.546 762.397 165.839 762.216C166.132 762.029 166.482 761.936 166.887 761.936C167.26 761.936 167.575 762.013 167.831 762.168C168.092 762.323 168.287 762.531 168.415 762.792C168.548 763.053 168.615 763.347 168.615 763.672C168.615 763.832 168.594 764.013 168.551 764.216H165.967C166.02 764.568 166.159 764.832 166.383 765.008C166.607 765.179 166.876 765.264 167.191 765.264C167.623 765.264 168.023 765.155 168.391 764.936L168.439 765.776C168.268 765.867 168.068 765.941 167.839 766C167.615 766.053 167.37 766.08 167.103 766.08ZM167.607 763.544C167.607 763.336 167.548 763.152 167.431 762.992C167.314 762.832 167.132 762.752 166.887 762.752C166.642 762.752 166.444 762.824 166.295 762.968C166.146 763.112 166.044 763.304 165.991 763.544H167.607ZM170.876 768.016C170.311 768.016 169.86 767.912 169.524 767.704C169.188 767.501 169.02 767.224 169.02 766.872C169.02 766.488 169.236 766.173 169.668 765.928C169.433 765.784 169.316 765.595 169.316 765.36C169.316 765.237 169.351 765.128 169.42 765.032C169.495 764.936 169.593 764.859 169.716 764.8C169.513 764.656 169.359 764.472 169.252 764.248C169.151 764.024 169.1 763.779 169.1 763.512C169.1 763.219 169.164 762.952 169.292 762.712C169.42 762.467 169.607 762.275 169.852 762.136C170.097 761.992 170.388 761.92 170.724 761.92C171.076 761.92 171.38 762.005 171.636 762.176C171.727 762.128 171.847 762.088 171.996 762.056C172.151 762.019 172.316 762 172.492 762H172.748L172.684 762.624H172.324C172.233 762.624 172.159 762.627 172.1 762.632C172.26 762.877 172.34 763.171 172.34 763.512C172.34 763.805 172.276 764.075 172.148 764.32C172.025 764.56 171.841 764.752 171.596 764.896C171.351 765.035 171.06 765.104 170.724 765.104C170.601 765.104 170.46 765.085 170.3 765.048C170.241 765.075 170.212 765.117 170.212 765.176C170.212 765.245 170.252 765.301 170.332 765.344C170.417 765.381 170.559 765.413 170.756 765.44L171.444 765.528C172.361 765.651 172.82 766.037 172.82 766.688C172.82 767.093 172.647 767.416 172.3 767.656C171.959 767.896 171.484 768.016 170.876 768.016ZM170.724 764.368C170.953 764.368 171.129 764.293 171.252 764.144C171.38 763.989 171.444 763.779 171.444 763.512C171.444 763.245 171.38 763.037 171.252 762.888C171.129 762.733 170.953 762.656 170.724 762.656C170.489 762.656 170.308 762.733 170.18 762.888C170.057 763.037 169.996 763.245 169.996 763.512C169.996 763.779 170.057 763.989 170.18 764.144C170.308 764.293 170.489 764.368 170.724 764.368ZM170.916 767.264C171.599 767.264 171.94 767.096 171.94 766.76C171.94 766.611 171.881 766.499 171.764 766.424C171.647 766.355 171.452 766.299 171.18 766.256L170.3 766.128C169.996 766.251 169.844 766.437 169.844 766.688C169.844 766.88 169.937 767.024 170.124 767.12C170.311 767.216 170.575 767.264 170.916 767.264ZM173.3 760.4H174.292V761.392H173.3V760.4ZM173.3 762H174.292V766H173.3V762ZM176.526 766.08C176.174 766.08 175.907 765.979 175.726 765.776C175.544 765.568 175.454 765.32 175.454 765.032V762.816H174.886L174.974 762H175.454V761.12L176.446 761.016V762H177.326V762.816H176.446V764.624C176.446 764.837 176.456 764.987 176.478 765.072C176.504 765.152 176.555 765.205 176.63 765.232C176.71 765.253 176.851 765.264 177.054 765.264H177.326L177.238 766.08H176.526ZM178.836 766.08C178.505 766.08 178.228 765.973 178.004 765.76C177.785 765.541 177.676 765.248 177.676 764.88C177.676 764.533 177.801 764.256 178.052 764.048C178.302 763.835 178.598 763.685 178.94 763.6C179.281 763.509 179.609 763.459 179.924 763.448C179.913 763.213 179.852 763.045 179.74 762.944C179.633 762.843 179.454 762.792 179.204 762.792C179.028 762.792 178.854 762.816 178.684 762.864C178.518 762.912 178.326 762.989 178.108 763.096L178.02 762.288C178.505 762.053 178.99 761.936 179.476 761.936C179.945 761.936 180.302 762.064 180.548 762.32C180.798 762.576 180.924 762.984 180.924 763.544V764.624C180.924 764.827 180.932 764.973 180.948 765.064C180.969 765.149 181.001 765.205 181.044 765.232C181.092 765.253 181.169 765.264 181.276 765.264H181.404L181.316 766.08H180.956C180.737 766.08 180.553 766.04 180.404 765.96C180.254 765.875 180.14 765.76 180.06 765.616C179.932 765.76 179.756 765.875 179.532 765.96C179.313 766.04 179.081 766.08 178.836 766.08ZM179.252 765.32C179.353 765.32 179.468 765.296 179.596 765.248C179.724 765.195 179.836 765.123 179.932 765.032V764.12C179.612 764.136 179.329 764.205 179.084 764.328C178.838 764.451 178.716 764.621 178.716 764.84C178.716 765.005 178.758 765.128 178.844 765.208C178.929 765.283 179.065 765.32 179.252 765.32ZM182.98 766.08C182.639 766.08 182.383 765.984 182.212 765.792C182.042 765.595 181.956 765.341 181.956 765.032V760H182.948V764.624C182.948 764.837 182.959 764.989 182.98 765.08C183.007 765.165 183.05 765.219 183.108 765.24C183.172 765.256 183.279 765.264 183.428 765.264L183.34 766.08H182.98ZM188.911 764.672H186.871L186.407 766H185.415L187.407 760.4H188.375L190.367 766H189.375L188.911 764.672ZM188.591 763.776L187.895 761.776L187.191 763.776H188.591ZM191.991 766.08C191.735 766.08 191.5 766.056 191.287 766.008C191.079 765.96 190.863 765.885 190.639 765.784L190.727 764.936C190.951 765.069 191.159 765.171 191.351 765.24C191.548 765.304 191.751 765.336 191.959 765.336C192.364 765.336 192.567 765.203 192.567 764.936C192.567 764.792 192.513 764.683 192.407 764.608C192.3 764.528 192.108 764.435 191.831 764.328C191.436 764.184 191.145 764.021 190.959 763.84C190.772 763.653 190.679 763.403 190.679 763.088C190.679 762.741 190.812 762.461 191.079 762.248C191.345 762.029 191.705 761.92 192.159 761.92C192.612 761.92 193.025 762.024 193.399 762.232L193.311 763.08C193.108 762.941 192.916 762.835 192.735 762.76C192.559 762.685 192.372 762.648 192.175 762.648C192.004 762.648 191.871 762.683 191.775 762.752C191.684 762.821 191.639 762.92 191.639 763.048C191.639 763.149 191.665 763.232 191.719 763.296C191.777 763.36 191.857 763.419 191.959 763.472C192.06 763.52 192.228 763.589 192.463 763.68C192.852 763.829 193.132 763.995 193.303 764.176C193.473 764.352 193.559 764.589 193.559 764.888C193.559 765.267 193.423 765.56 193.151 765.768C192.879 765.976 192.492 766.08 191.991 766.08ZM195.373 766.08C195.117 766.08 194.883 766.056 194.669 766.008C194.461 765.96 194.245 765.885 194.021 765.784L194.109 764.936C194.333 765.069 194.541 765.171 194.733 765.24C194.931 765.304 195.133 765.336 195.341 765.336C195.747 765.336 195.949 765.203 195.949 764.936C195.949 764.792 195.896 764.683 195.789 764.608C195.683 764.528 195.491 764.435 195.213 764.328C194.819 764.184 194.528 764.021 194.341 763.84C194.155 763.653 194.061 763.403 194.061 763.088C194.061 762.741 194.195 762.461 194.461 762.248C194.728 762.029 195.088 761.92 195.541 761.92C195.995 761.92 196.408 762.024 196.781 762.232L196.693 763.08C196.491 762.941 196.299 762.835 196.117 762.76C195.941 762.685 195.755 762.648 195.557 762.648C195.387 762.648 195.253 762.683 195.157 762.752C195.067 762.821 195.021 762.92 195.021 763.048C195.021 763.149 195.048 763.232 195.101 763.296C195.16 763.36 195.24 763.419 195.341 763.472C195.443 763.52 195.611 763.589 195.845 763.68C196.235 763.829 196.515 763.995 196.685 764.176C196.856 764.352 196.941 764.589 196.941 764.888C196.941 765.267 196.805 765.56 196.533 765.768C196.261 765.976 195.875 766.08 195.373 766.08ZM199.548 766.08C199.084 766.08 198.687 765.987 198.356 765.8C198.031 765.608 197.786 765.355 197.62 765.04C197.46 764.72 197.38 764.365 197.38 763.976C197.38 763.603 197.458 763.261 197.612 762.952C197.767 762.643 197.991 762.397 198.284 762.216C198.578 762.029 198.927 761.936 199.332 761.936C199.706 761.936 200.02 762.013 200.276 762.168C200.538 762.323 200.732 762.531 200.86 762.792C200.994 763.053 201.06 763.347 201.06 763.672C201.06 763.832 201.039 764.013 200.996 764.216H198.412C198.466 764.568 198.604 764.832 198.828 765.008C199.052 765.179 199.322 765.264 199.636 765.264C200.068 765.264 200.468 765.155 200.836 764.936L200.884 765.776C200.714 765.867 200.514 765.941 200.284 766C200.06 766.053 199.815 766.08 199.548 766.08ZM200.052 763.544C200.052 763.336 199.994 763.152 199.876 762.992C199.759 762.832 199.578 762.752 199.332 762.752C199.087 762.752 198.89 762.824 198.74 762.968C198.591 763.112 198.49 763.304 198.436 763.544H200.052ZM203.041 766.08C202.689 766.08 202.423 765.979 202.241 765.776C202.06 765.568 201.969 765.32 201.969 765.032V762.816H201.401L201.489 762H201.969V761.12L202.961 761.016V762H203.841V762.816H202.961V764.624C202.961 764.837 202.972 764.987 202.993 765.072C203.02 765.152 203.071 765.205 203.145 765.232C203.225 765.253 203.367 765.264 203.569 765.264H203.841L203.753 766.08H203.041Z" fill="#AAAAAA"/>
<path d="M192.515 738.195C193.71 739.489 194.407 741.182 194.506 742.925H196C195.901 740.784 195.054 738.693 193.61 737.099L192.515 738.195Z" fill="#AAAAAA"/>
<path d="M179.866 750.144C181.509 751.787 183.7 752.783 186.041 752.883V751.389C184.397 751.289 182.804 750.692 181.559 749.646C181.011 749.845 180.464 749.995 179.866 750.144Z" fill="#AAAAAA"/>
<path d="M187.037 751.338V752.832C189.178 752.732 191.27 751.886 192.863 750.442L191.817 749.396C190.473 750.541 188.78 751.239 187.037 751.338Z" fill="#AAAAAA"/>
<path d="M192.515 748.701L193.56 749.746C195.004 748.153 195.851 746.062 195.95 743.92H194.457C194.357 745.663 193.66 747.356 192.515 748.701Z" fill="#AAAAAA"/>
<path d="M182.854 745.911C181.51 747.106 179.867 747.754 178.074 747.903V749.397C180.215 749.297 182.307 748.451 183.9 747.007L182.854 745.911Z" fill="#AAAAAA"/>
<path d="M186.987 739.438C186.887 737.297 186.04 735.205 184.596 733.612L183.551 734.658C184.746 736.002 185.393 737.645 185.543 739.438H186.987Z" fill="#AAAAAA"/>
<path d="M177.079 732.019V730.525C174.938 730.625 172.846 731.471 171.253 732.915L172.299 733.961C173.643 732.816 175.336 732.119 177.079 732.019Z" fill="#AAAAAA"/>
<path d="M178.074 732.019C179.817 732.119 181.51 732.816 182.854 734.011L183.9 732.965C182.307 731.471 180.215 730.625 178.074 730.525V732.019Z" fill="#AAAAAA"/>
<path d="M169.659 739.438C169.758 737.695 170.456 736.002 171.651 734.658L170.605 733.612C169.111 735.205 168.265 737.297 168.165 739.438H169.659Z" fill="#AAAAAA"/>
<path d="M192.863 736.403C191.12 734.809 188.879 733.963 186.539 733.963C186.439 733.963 186.29 733.963 186.141 733.963C186.489 734.461 186.788 734.959 186.987 735.457C188.73 735.556 190.423 736.253 191.767 737.448L192.863 736.403Z" fill="#AAAAAA"/>
<path d="M190.572 742.127L188.78 743.322C188.531 743.472 188.232 743.422 188.083 743.173L188.033 743.123L187.684 742.376C187.485 743.422 187.037 744.468 186.489 745.414H190.025C190.074 744.318 190.274 743.223 190.572 742.127Z" fill="#AAAAAA"/>
<path d="M184.597 746.261C186.041 744.668 186.888 742.577 186.988 740.436H185.494C185.394 742.178 184.697 743.871 183.502 745.216L184.597 746.261Z" fill="#AAAAAA"/>
<path d="M171.253 746.957C172.846 748.401 174.938 749.248 177.079 749.347V747.854C175.336 747.754 173.643 747.057 172.299 745.862L171.253 746.957Z" fill="#AAAAAA"/>
<path d="M179.418 739.939C179.268 739.889 179.169 739.789 179.119 739.64L177.575 736.204L176.032 739.64C175.932 739.889 175.633 739.988 175.384 739.889C175.335 739.889 175.335 739.839 175.335 739.839L173.542 738.644C173.891 739.69 174.04 740.785 174.09 741.93H181.061C181.111 740.835 181.31 739.739 181.609 738.644L179.816 739.839C179.716 739.939 179.567 739.939 179.418 739.939Z" fill="#AAAAAA"/>
<path d="M177.576 732.966C173.741 732.966 170.604 736.103 170.604 739.937C170.604 743.772 173.741 746.909 177.576 746.909C181.41 746.909 184.547 743.772 184.547 739.937C184.547 736.103 181.41 732.966 177.576 732.966Z" fill="#AAAAAA"/>
<path d="M169.659 740.436H168.165C168.265 742.577 169.111 744.668 170.555 746.261L171.601 745.216C170.456 743.871 169.758 742.178 169.659 740.436Z" fill="#AAAAAA"/>
<path d="M187.435 736.501C187.485 736.7 187.535 736.849 187.585 737.048C188.083 738.891 189.128 745.165 182.506 749.099C185.643 751.289 189.975 750.543 192.216 747.406C193.062 746.211 193.46 744.816 193.46 743.372C193.51 739.937 190.921 736.999 187.435 736.501Z" fill="#AAAAAA"/>
<rect x="120" y="799" width="135" height="5" rx="2.5" fill="#D6D9E4"/>
<path d="M16 164C16 158.477 20.4772 154 26 154H349C354.523 154 359 158.477 359 164V207H16V164Z" fill="#44474C"/>
<path d="M16 207H359V262C359 267.523 354.523 272 349 272H26C20.4772 272 16 267.523 16 262V207Z" fill="#52565C"/>
<path d="M16 113C16 107.477 20.4772 103 26 103H349C354.523 103 359 107.477 359 113V133C359 138.523 354.523 143 349 143H26C20.4772 143 16 138.523 16 133V113Z" fill="#44474C"/>
<g clip-path="url(#clip1)">
<path d="M52.6256 126.524C50.9556 133.22 44.1726 137.296 37.4746 135.626C30.7796 133.956 26.7036 127.174 28.3746 120.477C30.0416 113.78 36.8256 109.705 43.5216 111.374C50.2186 113.044 54.2956 119.827 52.6256 126.524Z" fill="#F7931A"/>
<path d="M45.744 122.266C45.989 120.628 44.742 119.748 43.037 119.16L43.59 116.942L42.24 116.605L41.701 118.765C41.3412 118.677 40.9805 118.592 40.619 118.511L41.162 116.337L39.812 116L39.258 118.218C38.97 118.153 38.6827 118.085 38.396 118.015L38.398 118.008L36.535 117.543L36.176 118.985C36.176 118.985 37.178 119.215 37.156 119.229C37.704 119.366 37.803 119.728 37.786 120.015L37.156 122.542C37.194 122.552 37.243 122.565 37.296 122.587C37.252 122.576 37.203 122.563 37.154 122.552L36.271 126.092C36.204 126.258 36.034 126.507 35.651 126.412C35.665 126.432 34.671 126.168 34.671 126.168L34 127.713L35.757 128.152C36.084 128.233 36.405 128.319 36.72 128.4L36.161 130.644L37.51 130.98L38.063 128.76C38.432 128.86 38.79 128.953 39.14 129.04L38.588 131.25L39.938 131.586L40.498 129.346C42.8 129.782 44.532 129.606 45.26 127.523C45.848 125.847 45.231 124.879 44.02 124.248C44.902 124.045 45.567 123.465 45.744 122.266V122.266ZM42.658 126.592C42.241 128.269 39.418 127.362 38.502 127.135L39.244 124.163C40.159 124.391 43.094 124.843 42.658 126.593V126.592ZM43.076 122.242C42.696 123.767 40.346 122.992 39.583 122.802L40.255 120.106C41.018 120.296 43.473 120.65 43.076 122.242V122.242Z" fill="white"/>
</g>
<path d="M92.496 123.638C93.7373 124.039 94.358 124.898 94.358 126.214C94.358 127.091 94.0733 127.777 93.504 128.272C92.9347 128.757 92.1553 129 91.166 129H87.078V119.2H90.774C92.6407 119.2 93.574 119.989 93.574 121.566C93.574 122.537 93.2147 123.227 92.496 123.638ZM88.87 123.05H90.508C90.9467 123.05 91.2733 122.961 91.488 122.784C91.7027 122.597 91.81 122.313 91.81 121.93C91.81 121.529 91.7027 121.239 91.488 121.062C91.2733 120.885 90.9467 120.796 90.508 120.796H88.87V123.05ZM90.9 127.404C91.4227 127.404 91.8193 127.301 92.09 127.096C92.37 126.881 92.51 126.522 92.51 126.018C92.51 125.523 92.3653 125.173 92.076 124.968C91.796 124.753 91.404 124.646 90.9 124.646H88.87V127.404H90.9ZM96.1936 119.2H97.9296V120.936H96.1936V119.2ZM96.1936 122H97.9296V129H96.1936V122ZM102.539 129.14C101.923 129.14 101.456 128.963 101.139 128.608C100.822 128.244 100.663 127.81 100.663 127.306V123.428H99.6689L99.8229 122H100.663V120.46L102.399 120.278V122H103.939V123.428H102.399V126.592C102.399 126.965 102.418 127.227 102.455 127.376C102.502 127.516 102.59 127.609 102.721 127.656C102.861 127.693 103.108 127.712 103.463 127.712H103.939L103.785 129.14H102.539ZM109.017 129.14C108.243 129.14 107.575 128.981 107.015 128.664C106.465 128.337 106.049 127.899 105.769 127.348C105.489 126.797 105.349 126.186 105.349 125.514C105.349 124.833 105.489 124.217 105.769 123.666C106.049 123.106 106.469 122.667 107.029 122.35C107.589 122.023 108.271 121.86 109.073 121.86C109.792 121.86 110.417 122.009 110.949 122.308L110.809 123.708C110.305 123.447 109.783 123.316 109.241 123.316C108.579 123.316 108.061 123.517 107.687 123.918C107.314 124.319 107.127 124.851 107.127 125.514C107.127 126.149 107.319 126.676 107.701 127.096C108.084 127.507 108.593 127.712 109.227 127.712C109.759 127.712 110.291 127.558 110.823 127.25L110.977 128.72C110.725 128.851 110.427 128.953 110.081 129.028C109.745 129.103 109.391 129.14 109.017 129.14ZM115.964 129.14C115.226 129.14 114.587 128.977 114.046 128.65C113.504 128.323 113.089 127.885 112.8 127.334C112.51 126.783 112.366 126.177 112.366 125.514C112.366 124.851 112.51 124.24 112.8 123.68C113.089 123.12 113.504 122.677 114.046 122.35C114.587 122.023 115.226 121.86 115.964 121.86C116.701 121.86 117.34 122.023 117.882 122.35C118.423 122.677 118.838 123.12 119.128 123.68C119.417 124.24 119.562 124.851 119.562 125.514C119.562 126.177 119.417 126.783 119.128 127.334C118.838 127.885 118.423 128.323 117.882 128.65C117.34 128.977 116.701 129.14 115.964 129.14ZM115.964 127.712C116.533 127.712 116.976 127.511 117.294 127.11C117.62 126.709 117.784 126.177 117.784 125.514C117.784 124.842 117.62 124.305 117.294 123.904C116.976 123.493 116.533 123.288 115.964 123.288C115.394 123.288 114.946 123.493 114.62 123.904C114.302 124.305 114.144 124.842 114.144 125.514C114.144 126.177 114.302 126.709 114.62 127.11C114.946 127.511 115.394 127.712 115.964 127.712ZM121.47 119.2H123.206V120.936H121.47V119.2ZM121.47 122H123.206V129H121.47V122ZM129.061 121.888C129.929 121.888 130.587 122.177 131.035 122.756C131.483 123.335 131.707 124.114 131.707 125.094V129H129.971V125.234C129.971 124.581 129.859 124.1 129.635 123.792C129.421 123.475 129.071 123.316 128.585 123.316C128.053 123.316 127.615 123.517 127.269 123.918V129H125.533V122H127.157L127.185 122.49C127.773 122.089 128.399 121.888 129.061 121.888Z" fill="white"/>
<path d="M31.2151 176.2H34.7011C37.0251 176.2 38.1871 177.255 38.1871 179.364C38.1871 180.456 37.8931 181.268 37.3051 181.8C36.7171 182.332 35.8631 182.598 34.7431 182.598H33.0071V186H31.2151V176.2ZM34.5331 181.1C35.1491 181.1 35.6064 180.96 35.9051 180.68C36.2131 180.4 36.3671 179.971 36.3671 179.392C36.3671 178.813 36.2131 178.389 35.9051 178.118C35.5971 177.838 35.1258 177.698 34.4911 177.698H33.0071V181.1H34.5331ZM39.8796 179H41.5036L41.5456 179.742C41.7509 179.509 42.0122 179.303 42.3296 179.126C42.6562 178.949 42.9969 178.86 43.3516 178.86C43.4636 178.86 43.5662 178.869 43.6596 178.888L43.5336 180.596C43.3562 180.549 43.1556 180.526 42.9316 180.526C42.6422 180.526 42.3762 180.596 42.1336 180.736C41.8909 180.867 41.7182 181.03 41.6156 181.226V186H39.8796V179ZM45.2007 176.2H46.9367V177.936H45.2007V176.2ZM45.2007 179H46.9367V186H45.2007V179ZM48.494 179H50.202L51.924 183.844L53.646 179H55.354L52.666 186H51.182L48.494 179ZM58.3529 186.14C57.7742 186.14 57.2889 185.953 56.8969 185.58C56.5142 185.197 56.3229 184.684 56.3229 184.04C56.3229 183.433 56.5422 182.948 56.9809 182.584C57.4196 182.211 57.9376 181.949 58.5349 181.8C59.1322 181.641 59.7062 181.553 60.2569 181.534C60.2382 181.123 60.1309 180.829 59.9349 180.652C59.7482 180.475 59.4356 180.386 58.9969 180.386C58.6889 180.386 58.3856 180.428 58.0869 180.512C57.7976 180.596 57.4616 180.731 57.0789 180.918L56.9249 179.504C57.7742 179.093 58.6236 178.888 59.4729 178.888C60.2942 178.888 60.9196 179.112 61.3489 179.56C61.7876 180.008 62.0069 180.722 62.0069 181.702V183.592C62.0069 183.947 62.0209 184.203 62.0489 184.362C62.0862 184.511 62.1422 184.609 62.2169 184.656C62.3009 184.693 62.4362 184.712 62.6229 184.712H62.8469L62.6929 186.14H62.0629C61.6802 186.14 61.3582 186.07 61.0969 185.93C60.8356 185.781 60.6349 185.58 60.4949 185.328C60.2709 185.58 59.9629 185.781 59.5709 185.93C59.1882 186.07 58.7822 186.14 58.3529 186.14ZM59.0809 184.81C59.2582 184.81 59.4589 184.768 59.6829 184.684C59.9069 184.591 60.1029 184.465 60.2709 184.306V182.71C59.7109 182.738 59.2162 182.859 58.7869 183.074C58.3576 183.289 58.1429 183.587 58.1429 183.97C58.1429 184.259 58.2176 184.474 58.3669 184.614C58.5162 184.745 58.7542 184.81 59.0809 184.81ZM66.6862 186.14C66.0702 186.14 65.6035 185.963 65.2862 185.608C64.9689 185.244 64.8102 184.81 64.8102 184.306V180.428H63.8162L63.9702 179H64.8102V177.46L66.5462 177.278V179H68.0862V180.428H66.5462V183.592C66.5462 183.965 66.5649 184.227 66.6022 184.376C66.6489 184.516 66.7375 184.609 66.8682 184.656C67.0082 184.693 67.2555 184.712 67.6102 184.712H68.0862L67.9322 186.14H66.6862ZM73.2907 186.14C72.4787 186.14 71.7834 185.977 71.2047 185.65C70.6354 185.314 70.206 184.871 69.9167 184.32C69.6367 183.76 69.4967 183.139 69.4967 182.458C69.4967 181.805 69.632 181.207 69.9027 180.666C70.1734 180.125 70.5654 179.695 71.0787 179.378C71.592 179.051 72.2034 178.888 72.9127 178.888C73.566 178.888 74.1167 179.023 74.5647 179.294C75.022 179.565 75.3627 179.929 75.5867 180.386C75.82 180.843 75.9367 181.357 75.9367 181.926C75.9367 182.206 75.8994 182.523 75.8247 182.878H71.3027C71.396 183.494 71.6387 183.956 72.0307 184.264C72.4227 184.563 72.894 184.712 73.4447 184.712C74.2007 184.712 74.9007 184.521 75.5447 184.138L75.6287 185.608C75.33 185.767 74.98 185.897 74.5787 186C74.1867 186.093 73.7574 186.14 73.2907 186.14ZM74.1727 181.702C74.1727 181.338 74.07 181.016 73.8647 180.736C73.6594 180.456 73.342 180.316 72.9127 180.316C72.4834 180.316 72.138 180.442 71.8767 180.694C71.6154 180.946 71.438 181.282 71.3447 181.702H74.1727ZM81.9323 176.2H83.7243V186H81.9323V176.2ZM83.8643 180.82L87.4903 176.2H89.5903L85.9363 180.82L89.5903 186H87.4903L83.8643 180.82ZM94.0255 186.14C93.2135 186.14 92.5181 185.977 91.9395 185.65C91.3701 185.314 90.9408 184.871 90.6515 184.32C90.3715 183.76 90.2315 183.139 90.2315 182.458C90.2315 181.805 90.3668 181.207 90.6375 180.666C90.9081 180.125 91.3001 179.695 91.8135 179.378C92.3268 179.051 92.9381 178.888 93.6475 178.888C94.3008 178.888 94.8515 179.023 95.2995 179.294C95.7568 179.565 96.0975 179.929 96.3215 180.386C96.5548 180.843 96.6715 181.357 96.6715 181.926C96.6715 182.206 96.6341 182.523 96.5595 182.878H92.0375C92.1308 183.494 92.3735 183.956 92.7655 184.264C93.1575 184.563 93.6288 184.712 94.1795 184.712C94.9355 184.712 95.6355 184.521 96.2795 184.138L96.3635 185.608C96.0648 185.767 95.7148 185.897 95.3135 186C94.9215 186.093 94.4921 186.14 94.0255 186.14ZM94.9075 181.702C94.9075 181.338 94.8048 181.016 94.5995 180.736C94.3941 180.456 94.0768 180.316 93.6475 180.316C93.2181 180.316 92.8728 180.442 92.6115 180.694C92.3501 180.946 92.1728 181.282 92.0795 181.702H94.9075ZM100.575 185.538L97.6628 179H99.5948L101.387 183.508L103.207 179H105.139L100.757 189.388H99.0208L100.575 185.538ZM113.353 176.2H115.103L111.351 187.19H109.601L113.353 176.2ZM122.691 180.974L119.429 176.2H121.417L123.671 179.532L125.925 176.2H127.913L124.651 180.974L128.081 186H126.093L123.671 182.43L121.249 186H119.261L122.691 180.974ZM129.83 176.2H133.316C135.64 176.2 136.802 177.255 136.802 179.364C136.802 180.456 136.508 181.268 135.92 181.8C135.332 182.332 134.478 182.598 133.358 182.598H131.622V186H129.83V176.2ZM133.148 181.1C133.764 181.1 134.222 180.96 134.52 180.68C134.828 180.4 134.982 179.971 134.982 179.392C134.982 178.813 134.828 178.389 134.52 178.118C134.212 177.838 133.741 177.698 133.106 177.698H131.622V181.1H133.148ZM138.87 176.2H142.454C143.5 176.2 144.321 176.452 144.918 176.956C145.525 177.451 145.828 178.188 145.828 179.168C145.828 179.849 145.684 180.409 145.394 180.848C145.105 181.277 144.694 181.623 144.162 181.884L146.374 186H144.372L142.482 182.36H142.412H140.662V186H138.87V176.2ZM141.978 180.862C143.294 180.862 143.952 180.33 143.952 179.266C143.952 178.753 143.803 178.365 143.504 178.104C143.206 177.833 142.72 177.698 142.048 177.698H140.662V180.862H141.978ZM155.854 176.2L152.368 186H150.674L147.188 176.2H148.994L151.514 183.41L154.048 176.2H155.854ZM164.04 176.2H165.79L162.038 187.19H160.288L164.04 176.2ZM170.116 176.2H171.978L173.938 183.158L176.122 176.2H177.368L179.636 182.976L181.512 176.2H183.374L180.504 186H178.922L176.738 179.462L174.568 186H172.874L170.116 176.2ZM185.234 176.2H187.026V186H185.234V176.2ZM189.885 176.2H195.919V177.936H191.677V180.022H194.953V181.758H191.677V186H189.885V176.2Z" fill="white"/>
<rect x="30" y="225" width="315" height="29" rx="5.5" fill="white" fill-opacity="0.1"/>
<path d="M45.4904 236H47.8004C48.5471 236 49.1271 236.183 49.5404 236.55C49.9604 236.91 50.1704 237.483 50.1704 238.27C50.1704 239.043 49.9604 239.617 49.5404 239.99C49.1204 240.363 48.5404 240.55 47.8004 240.55H46.4904V243H45.4904V236ZM47.6604 239.7C48.1738 239.7 48.5571 239.583 48.8104 239.35C49.0638 239.117 49.1904 238.76 49.1904 238.28C49.1904 237.793 49.0671 237.433 48.8204 237.2C48.5804 236.967 48.1938 236.85 47.6604 236.85H46.4904V239.7H47.6604ZM52.7343 243.1C52.2943 243.1 51.9709 242.987 51.7643 242.76C51.5643 242.533 51.4643 242.253 51.4643 241.92V235.5H52.3643V241.4C52.3643 241.693 52.3809 241.907 52.4143 242.04C52.4543 242.173 52.5276 242.263 52.6343 242.31C52.7409 242.357 52.9143 242.38 53.1543 242.38L53.0243 243.1H52.7343ZM56.6387 243.1C56.0787 243.1 55.5987 242.987 55.1987 242.76C54.8054 242.527 54.5054 242.213 54.2987 241.82C54.092 241.427 53.9887 240.99 53.9887 240.51C53.9887 240.05 54.082 239.63 54.2687 239.25C54.462 238.863 54.7387 238.56 55.0987 238.34C55.4654 238.113 55.8954 238 56.3887 238C57.0154 238 57.522 238.183 57.9087 238.55C58.302 238.917 58.4987 239.423 58.4987 240.07C58.4987 240.237 58.4854 240.397 58.4587 240.55H54.9087C54.9687 241.183 55.162 241.633 55.4887 241.9C55.8154 242.167 56.2354 242.3 56.7487 242.3C57.262 242.3 57.732 242.203 58.1587 242.01L58.2787 242.72C57.712 242.973 57.1654 243.1 56.6387 243.1ZM57.5687 239.93C57.5687 239.577 57.4687 239.3 57.2687 239.1C57.0687 238.9 56.7687 238.8 56.3687 238.8C55.982 238.8 55.6787 238.897 55.4587 239.09C55.2387 239.277 55.082 239.557 54.9887 239.93H57.5687ZM61.0459 243.1C60.5926 243.1 60.2259 242.967 59.9459 242.7C59.6726 242.433 59.5359 242.093 59.5359 241.68C59.5359 241.06 59.8292 240.617 60.4159 240.35C61.0026 240.083 61.6859 239.943 62.4659 239.93C62.4659 239.49 62.3792 239.193 62.2059 239.04C62.0392 238.88 61.7692 238.8 61.3959 238.8C61.1892 238.8 60.9826 238.833 60.7759 238.9C60.5692 238.96 60.3459 239.073 60.1059 239.24L59.9759 238.51C60.1759 238.357 60.4226 238.233 60.7159 238.14C61.0092 238.047 61.3159 238 61.6359 238C62.0559 238 62.3892 238.073 62.6359 238.22C62.8892 238.367 63.0726 238.61 63.1859 238.95C63.3059 239.29 63.3659 239.757 63.3659 240.35V241.35C63.3659 241.617 63.3759 241.82 63.3959 241.96C63.4226 242.093 63.4759 242.197 63.5559 242.27C63.6359 242.343 63.7592 242.38 63.9259 242.38H64.0159L63.8759 243.1H63.8059C63.5259 243.1 63.3059 243.073 63.1459 243.02C62.9859 242.967 62.8626 242.89 62.7759 242.79C62.6959 242.69 62.6192 242.553 62.5459 242.38C62.1326 242.86 61.6326 243.1 61.0459 243.1ZM61.2159 242.38C61.4559 242.38 61.6859 242.32 61.9059 242.2C62.1326 242.08 62.3192 241.92 62.4659 241.72V240.55C61.7459 240.577 61.2292 240.673 60.9159 240.84C60.6092 241 60.4559 241.263 60.4559 241.63C60.4559 241.883 60.5226 242.073 60.6559 242.2C60.7959 242.32 60.9826 242.38 61.2159 242.38ZM66.6006 243.1C66.2139 243.1 65.8739 243.057 65.5806 242.97C65.2939 242.877 65.0739 242.777 64.9206 242.67L65.0306 241.8C65.1639 241.92 65.3673 242.033 65.6406 242.14C65.9206 242.247 66.2273 242.3 66.5606 242.3C66.8739 242.3 67.1139 242.247 67.2806 242.14C67.4539 242.033 67.5406 241.883 67.5406 241.69C67.5406 241.463 67.4473 241.293 67.2606 241.18C67.0739 241.06 66.8406 240.96 66.5606 240.88C66.2539 240.8 65.9939 240.717 65.7806 240.63C65.5739 240.537 65.3939 240.397 65.2406 240.21C65.0939 240.023 65.0206 239.777 65.0206 239.47C65.0206 239.05 65.1706 238.7 65.4706 238.42C65.7706 238.14 66.2339 238 66.8606 238C67.1473 238 67.3906 238.03 67.5906 238.09C67.7906 238.143 67.9906 238.22 68.1906 238.32L68.0806 239.14C67.9206 239.007 67.7439 238.903 67.5506 238.83C67.3573 238.75 67.1339 238.71 66.8806 238.71C66.5873 238.71 66.3539 238.767 66.1806 238.88C66.0139 238.987 65.9306 239.15 65.9306 239.37C65.9306 239.517 65.9706 239.637 66.0506 239.73C66.1306 239.817 66.2439 239.89 66.3906 239.95C66.5373 240.01 66.7639 240.087 67.0706 240.18C67.4506 240.293 67.7773 240.453 68.0506 240.66C68.3306 240.867 68.4706 241.193 68.4706 241.64C68.4706 242.04 68.3273 242.383 68.0406 242.67C67.7606 242.957 67.2806 243.1 66.6006 243.1ZM72.2012 243.1C71.6412 243.1 71.1612 242.987 70.7612 242.76C70.3679 242.527 70.0679 242.213 69.8612 241.82C69.6545 241.427 69.5512 240.99 69.5512 240.51C69.5512 240.05 69.6445 239.63 69.8312 239.25C70.0245 238.863 70.3012 238.56 70.6612 238.34C71.0279 238.113 71.4579 238 71.9512 238C72.5779 238 73.0845 238.183 73.4712 238.55C73.8645 238.917 74.0612 239.423 74.0612 240.07C74.0612 240.237 74.0479 240.397 74.0212 240.55H70.4712C70.5312 241.183 70.7245 241.633 71.0512 241.9C71.3779 242.167 71.7979 242.3 72.3112 242.3C72.8245 242.3 73.2945 242.203 73.7212 242.01L73.8412 242.72C73.2745 242.973 72.7279 243.1 72.2012 243.1ZM73.1312 239.93C73.1312 239.577 73.0312 239.3 72.8312 239.1C72.6312 238.9 72.3312 238.8 71.9312 238.8C71.5445 238.8 71.2412 238.897 71.0212 239.09C70.8012 239.277 70.6445 239.557 70.5512 239.93H73.1312ZM80.5645 243.1C80.0045 243.1 79.5245 242.987 79.1245 242.76C78.7312 242.527 78.4312 242.213 78.2245 241.82C78.0178 241.427 77.9145 240.99 77.9145 240.51C77.9145 240.05 78.0078 239.63 78.1945 239.25C78.3878 238.863 78.6645 238.56 79.0245 238.34C79.3912 238.113 79.8212 238 80.3145 238C80.9412 238 81.4478 238.183 81.8345 238.55C82.2278 238.917 82.4245 239.423 82.4245 240.07C82.4245 240.237 82.4112 240.397 82.3845 240.55H78.8345C78.8945 241.183 79.0878 241.633 79.4145 241.9C79.7412 242.167 80.1612 242.3 80.6745 242.3C81.1878 242.3 81.6578 242.203 82.0845 242.01L82.2045 242.72C81.6378 242.973 81.0912 243.1 80.5645 243.1ZM81.4945 239.93C81.4945 239.577 81.3945 239.3 81.1945 239.1C80.9945 238.9 80.6945 238.8 80.2945 238.8C79.9078 238.8 79.6045 238.897 79.3845 239.09C79.1645 239.277 79.0078 239.557 78.9145 239.93H81.4945ZM86.2517 238C87.585 238 88.2517 238.767 88.2517 240.3V243H87.3517V240.3C87.3517 239.773 87.2517 239.393 87.0517 239.16C86.8583 238.92 86.5317 238.8 86.0717 238.8C85.7783 238.8 85.5117 238.853 85.2717 238.96C85.0317 239.067 84.8517 239.227 84.7317 239.44V243H83.8317V238.1H84.5317L84.6317 238.62C84.8917 238.387 85.1517 238.227 85.4117 238.14C85.6783 238.047 85.9583 238 86.2517 238ZM91.5295 243.1C91.0962 243.1 90.7728 242.987 90.5595 242.76C90.3528 242.533 90.2495 242.257 90.2495 241.93V238.8H89.4095L89.4895 238.1H90.2495V236.89L91.1495 236.8V238.1H92.4395V238.8H91.1495V241.38C91.1495 241.72 91.1695 241.953 91.2095 242.08C91.2495 242.207 91.3328 242.29 91.4595 242.33C91.5928 242.363 91.8328 242.38 92.1795 242.38H92.4095L92.3395 243.1H91.5295ZM96.0196 243.1C95.4596 243.1 94.9796 242.987 94.5796 242.76C94.1862 242.527 93.8862 242.213 93.6796 241.82C93.4729 241.427 93.3696 240.99 93.3696 240.51C93.3696 240.05 93.4629 239.63 93.6496 239.25C93.8429 238.863 94.1196 238.56 94.4796 238.34C94.8462 238.113 95.2762 238 95.7696 238C96.3962 238 96.9029 238.183 97.2896 238.55C97.6829 238.917 97.8796 239.423 97.8796 240.07C97.8796 240.237 97.8662 240.397 97.8396 240.55H94.2896C94.3496 241.183 94.5429 241.633 94.8696 241.9C95.1962 242.167 95.6162 242.3 96.1296 242.3C96.6429 242.3 97.1129 242.203 97.5396 242.01L97.6596 242.72C97.0929 242.973 96.5462 243.1 96.0196 243.1ZM96.9496 239.93C96.9496 239.577 96.8496 239.3 96.6496 239.1C96.4496 238.9 96.1496 238.8 95.7496 238.8C95.3629 238.8 95.0596 238.897 94.8396 239.09C94.6196 239.277 94.4629 239.557 94.3696 239.93H96.9496ZM99.2868 238.1H100.027L100.137 238.91C100.39 238.597 100.63 238.367 100.857 238.22C101.09 238.073 101.333 238 101.587 238C101.667 238 101.743 238.01 101.817 238.03L101.727 239.02C101.64 239 101.54 238.99 101.427 238.99C101.18 238.99 100.947 239.047 100.727 239.16C100.507 239.267 100.347 239.393 100.247 239.54V243H99.2868V238.1ZM106.747 236L106.387 237.07H106.737V238.13H105.657V237.17L106.177 236H106.747ZM108.347 236L107.987 237.07H108.337V238.13H107.257V237.17L107.777 236H108.347ZM109.951 236H112.261C113.008 236 113.588 236.183 114.001 236.55C114.421 236.91 114.631 237.483 114.631 238.27C114.631 239.043 114.421 239.617 114.001 239.99C113.581 240.363 113.001 240.55 112.261 240.55H110.951V243H109.951V236ZM112.121 239.7C112.635 239.7 113.018 239.583 113.271 239.35C113.525 239.117 113.651 238.76 113.651 238.28C113.651 237.793 113.528 237.433 113.281 237.2C113.041 236.967 112.655 236.85 112.121 236.85H110.951V239.7H112.121ZM115.906 238.1H116.646L116.756 238.91C117.009 238.597 117.249 238.367 117.476 238.22C117.709 238.073 117.953 238 118.206 238C118.286 238 118.363 238.01 118.436 238.03L118.346 239.02C118.259 239 118.159 238.99 118.046 238.99C117.799 238.99 117.566 239.047 117.346 239.16C117.126 239.267 116.966 239.393 116.866 239.54V243H115.906V238.1ZM119.57 236H120.47V237H119.57V236ZM119.57 238.1H120.47V243H119.57V238.1ZM121.669 238.1H122.669L124.039 242.01L125.399 238.1H126.409L124.549 243H123.539L121.669 238.1ZM128.692 243.1C128.239 243.1 127.872 242.967 127.592 242.7C127.319 242.433 127.182 242.093 127.182 241.68C127.182 241.06 127.476 240.617 128.062 240.35C128.649 240.083 129.332 239.943 130.112 239.93C130.112 239.49 130.026 239.193 129.852 239.04C129.686 238.88 129.416 238.8 129.042 238.8C128.836 238.8 128.629 238.833 128.422 238.9C128.216 238.96 127.992 239.073 127.752 239.24L127.622 238.51C127.822 238.357 128.069 238.233 128.362 238.14C128.656 238.047 128.962 238 129.282 238C129.702 238 130.036 238.073 130.282 238.22C130.536 238.367 130.719 238.61 130.832 238.95C130.952 239.29 131.012 239.757 131.012 240.35V241.35C131.012 241.617 131.022 241.82 131.042 241.96C131.069 242.093 131.122 242.197 131.202 242.27C131.282 242.343 131.406 242.38 131.572 242.38H131.662L131.522 243.1H131.452C131.172 243.1 130.952 243.073 130.792 243.02C130.632 242.967 130.509 242.89 130.422 242.79C130.342 242.69 130.266 242.553 130.192 242.38C129.779 242.86 129.279 243.1 128.692 243.1ZM128.862 242.38C129.102 242.38 129.332 242.32 129.552 242.2C129.779 242.08 129.966 241.92 130.112 241.72V240.55C129.392 240.577 128.876 240.673 128.562 240.84C128.256 241 128.102 241.263 128.102 241.63C128.102 241.883 128.169 242.073 128.302 242.2C128.442 242.32 128.629 242.38 128.862 242.38ZM134.449 243.1C134.016 243.1 133.693 242.987 133.479 242.76C133.273 242.533 133.169 242.257 133.169 241.93V238.8H132.329L132.409 238.1H133.169V236.89L134.069 236.8V238.1H135.359V238.8H134.069V241.38C134.069 241.72 134.089 241.953 134.129 242.08C134.169 242.207 134.253 242.29 134.379 242.33C134.513 242.363 134.753 242.38 135.099 242.38H135.329L135.259 243.1H134.449ZM138.939 243.1C138.379 243.1 137.899 242.987 137.499 242.76C137.106 242.527 136.806 242.213 136.599 241.82C136.393 241.427 136.289 240.99 136.289 240.51C136.289 240.05 136.383 239.63 136.569 239.25C136.763 238.863 137.039 238.56 137.399 238.34C137.766 238.113 138.196 238 138.689 238C139.316 238 139.823 238.183 140.209 238.55C140.603 238.917 140.799 239.423 140.799 240.07C140.799 240.237 140.786 240.397 140.759 240.55H137.209C137.269 241.183 137.463 241.633 137.789 241.9C138.116 242.167 138.536 242.3 139.049 242.3C139.563 242.3 140.033 242.203 140.459 242.01L140.579 242.72C140.013 242.973 139.466 243.1 138.939 243.1ZM139.869 239.93C139.869 239.577 139.769 239.3 139.569 239.1C139.369 238.9 139.069 238.8 138.669 238.8C138.283 238.8 137.979 238.897 137.759 239.09C137.539 239.277 137.383 239.557 137.289 239.93H139.869ZM145.143 236H146.093V243H145.143V236ZM146.193 239.29L148.783 236H149.933L147.273 239.27L149.963 243H148.783L146.193 239.29ZM153.125 243.1C152.565 243.1 152.085 242.987 151.685 242.76C151.292 242.527 150.992 242.213 150.785 241.82C150.578 241.427 150.475 240.99 150.475 240.51C150.475 240.05 150.568 239.63 150.755 239.25C150.948 238.863 151.225 238.56 151.585 238.34C151.952 238.113 152.382 238 152.875 238C153.502 238 154.008 238.183 154.395 238.55C154.788 238.917 154.985 239.423 154.985 240.07C154.985 240.237 154.972 240.397 154.945 240.55H151.395C151.455 241.183 151.648 241.633 151.975 241.9C152.302 242.167 152.722 242.3 153.235 242.3C153.748 242.3 154.218 242.203 154.645 242.01L154.765 242.72C154.198 242.973 153.652 243.1 153.125 243.1ZM154.055 239.93C154.055 239.577 153.955 239.3 153.755 239.1C153.555 238.9 153.255 238.8 152.855 238.8C152.468 238.8 152.165 238.897 151.945 239.09C151.725 239.277 151.568 239.557 151.475 239.93H154.055ZM157.843 242.78L155.803 238.1H156.803L158.333 241.74L159.713 238.1H160.713L157.713 245.42H156.713L157.843 242.78ZM166.608 236H167.558L164.878 243.85H163.928L166.608 236ZM172.927 239.47L170.587 236H171.687L173.477 238.65L175.257 236H176.357L174.027 239.47L176.397 243H175.297L173.477 240.29L171.647 243H170.547L172.927 239.47ZM177.735 236H180.045C180.791 236 181.371 236.183 181.785 236.55C182.205 236.91 182.415 237.483 182.415 238.27C182.415 239.043 182.205 239.617 181.785 239.99C181.365 240.363 180.785 240.55 180.045 240.55H178.735V243H177.735V236ZM179.905 239.7C180.418 239.7 180.801 239.583 181.055 239.35C181.308 239.117 181.435 238.76 181.435 238.28C181.435 237.793 181.311 237.433 181.065 237.2C180.825 236.967 180.438 236.85 179.905 236.85H178.735V239.7H179.905ZM183.957 236H186.227C186.987 236 187.581 236.177 188.007 236.53C188.434 236.877 188.647 237.41 188.647 238.13C188.647 239.063 188.241 239.72 187.427 240.1L188.997 243H187.837L186.417 240.27H186.367H184.957V243H183.957V236ZM186.217 239.42C186.684 239.42 187.041 239.307 187.287 239.08C187.534 238.853 187.657 238.537 187.657 238.13C187.657 237.723 187.534 237.41 187.287 237.19C187.047 236.963 186.691 236.85 186.217 236.85H184.957V239.42H186.217ZM195.694 236L193.184 243H192.184L189.674 236H190.674L192.684 241.67L194.694 236H195.694ZM201.563 236H202.513L199.833 243.85H198.883L201.563 236ZM205.502 236H206.502L207.982 241.77L209.692 236.14H210.692L212.402 241.77L213.882 236H214.882L212.902 243H211.892L210.192 237.37L208.492 243H207.482L205.502 236ZM216.225 236H217.175V243H216.225V236ZM219.274 236H223.544V236.86H220.224V238.91H222.784V239.77H220.224V243H219.274V236ZM224.508 238.13L224.868 237.06H224.518V236H225.598V236.96L225.078 238.13H224.508ZM226.108 238.13L226.468 237.06H226.118V236H227.198V236.96L226.678 238.13H226.108ZM227.229 241.94H228.309V243H227.229V241.94Z" fill="#969696" fill-opacity="0.7"/>
<g filter="url(#filter1_d)">
<rect x="16" y="282" width="343" height="52" rx="10" fill="url(#paint4_linear)"/>
</g>
<path d="M162.092 314.252C160.82 314.252 159.692 313.982 158.708 313.442C157.736 312.902 156.98 312.14 156.44 311.156C155.9 310.16 155.63 309.008 155.63 307.7C155.63 306.404 155.906 305.264 156.458 304.28C157.022 303.284 157.796 302.516 158.78 301.976C159.776 301.424 160.904 301.148 162.164 301.148C163.376 301.148 164.462 301.394 165.422 301.886L165.17 304.082C164.654 303.854 164.156 303.68 163.676 303.56C163.208 303.428 162.698 303.362 162.146 303.362C160.862 303.362 159.872 303.758 159.176 304.55C158.492 305.342 158.15 306.392 158.15 307.7C158.15 309.008 158.486 310.058 159.158 310.85C159.842 311.642 160.82 312.038 162.092 312.038C162.656 312.038 163.172 311.978 163.64 311.858C164.12 311.738 164.63 311.558 165.17 311.318L165.422 313.514C164.378 314.006 163.268 314.252 162.092 314.252ZM170.923 314.18C169.975 314.18 169.153 313.97 168.457 313.55C167.761 313.13 167.227 312.566 166.855 311.858C166.483 311.15 166.297 310.37 166.297 309.518C166.297 308.666 166.483 307.88 166.855 307.16C167.227 306.44 167.761 305.87 168.457 305.45C169.153 305.03 169.975 304.82 170.923 304.82C171.871 304.82 172.693 305.03 173.389 305.45C174.085 305.87 174.619 306.44 174.991 307.16C175.363 307.88 175.549 308.666 175.549 309.518C175.549 310.37 175.363 311.15 174.991 311.858C174.619 312.566 174.085 313.13 173.389 313.55C172.693 313.97 171.871 314.18 170.923 314.18ZM170.923 312.344C171.655 312.344 172.225 312.086 172.633 311.57C173.053 311.054 173.263 310.37 173.263 309.518C173.263 308.654 173.053 307.964 172.633 307.448C172.225 306.92 171.655 306.656 170.923 306.656C170.191 306.656 169.615 306.92 169.195 307.448C168.787 307.964 168.583 308.654 168.583 309.518C168.583 310.37 168.787 311.054 169.195 311.57C169.615 312.086 170.191 312.344 170.923 312.344ZM181.639 304.856C182.755 304.856 183.601 305.228 184.177 305.972C184.753 306.716 185.041 307.718 185.041 308.978V314H182.809V309.158C182.809 308.318 182.665 307.7 182.377 307.304C182.101 306.896 181.651 306.692 181.027 306.692C180.343 306.692 179.779 306.95 179.335 307.466V314H177.103V305H179.191L179.227 305.63C179.983 305.114 180.787 304.856 181.639 304.856ZM187.486 306.836H186.208L186.406 305H187.486V303.092C187.486 302.288 187.72 301.658 188.188 301.202C188.668 300.734 189.346 300.5 190.222 300.5C190.714 300.5 191.2 300.554 191.68 300.662L191.482 302.462C191.278 302.402 191.044 302.372 190.78 302.372C190.072 302.372 189.718 302.744 189.718 303.488V305H191.698V306.836H189.718V314H187.486V306.836ZM193.064 301.4H195.296V303.632H193.064V301.4ZM193.064 305H195.296V314H193.064V305ZM197.388 305H199.476L199.53 305.954C199.794 305.654 200.13 305.39 200.538 305.162C200.958 304.934 201.396 304.82 201.852 304.82C201.996 304.82 202.128 304.832 202.248 304.856L202.086 307.052C201.858 306.992 201.6 306.962 201.312 306.962C200.94 306.962 200.598 307.052 200.286 307.232C199.974 307.4 199.752 307.61 199.62 307.862V314H197.388V305ZM213.427 304.856C214.627 304.856 215.515 305.222 216.091 305.954C216.679 306.674 216.973 307.688 216.973 308.996V314H214.741V309.158C214.741 308.306 214.609 307.682 214.345 307.286C214.081 306.89 213.649 306.692 213.049 306.692C212.461 306.692 212.017 306.896 211.717 307.304C211.417 307.7 211.267 308.264 211.267 308.996V314H209.035V309.158C209.035 308.306 208.897 307.682 208.621 307.286C208.345 306.89 207.907 306.692 207.307 306.692C206.599 306.692 206.017 306.95 205.561 307.466V314H203.329V305H205.237L205.309 305.72C206.125 305.144 207.007 304.856 207.955 304.856C209.107 304.856 209.965 305.27 210.529 306.098C210.841 305.702 211.249 305.396 211.753 305.18C212.257 304.964 212.815 304.856 213.427 304.856Z" fill="white"/>
</g>
<defs>
<filter id="filter0_d" x="-20" y="698" width="415" height="133" filterUnits="userSpaceOnUse" color-interpolation-filters="sRGB">
<feFlood flood-opacity="0" result="BackgroundImageFix"/>
<feColorMatrix in="SourceAlpha" type="matrix" values="0 0 0 0 0 0 0 0 0 0 0 0 0 0 0 0 0 0 127 0"/>
<feOffset dy="-1"/>
<feGaussianBlur stdDeviation="10"/>
<feColorMatrix type="matrix" values="0 0 0 0 0 0 0 0 0 0 0 0 0 0 0 0 0 0 0.1 0"/>
<feBlend mode="normal" in2="BackgroundImageFix" result="effect1_dropShadow"/>
<feBlend mode="normal" in="SourceGraphic" in2="effect1_dropShadow" result="shape"/>
</filter>
<filter id="filter1_d" x="8" y="278" width="359" height="68" filterUnits="userSpaceOnUse" color-interpolation-filters="sRGB">
<feFlood flood-opacity="0" result="BackgroundImageFix"/>
<feColorMatrix in="SourceAlpha" type="matrix" values="0 0 0 0 0 0 0 0 0 0 0 0 0 0 0 0 0 0 127 0"/>
<feOffset dy="4"/>
<feGaussianBlur stdDeviation="4"/>
<feColorMatrix type="matrix" values="0 0 0 0 0.886275 0 0 0 0 0.509804 0 0 0 0 0.529412 0 0 0 0.26 0"/>
<feBlend mode="normal" in2="BackgroundImageFix" result="effect1_dropShadow"/>
<feBlend mode="normal" in="SourceGraphic" in2="effect1_dropShadow" result="shape"/>
</filter>
<linearGradient id="paint0_linear" x1="313.5" y1="47" x2="313.5" y2="72" gradientUnits="userSpaceOnUse">
<stop stop-color="#926CB3"/>
<stop offset="1" stop-color="#E18B8B"/>
</linearGradient>
<linearGradient id="paint1_linear" x1="313.5" y1="52" x2="313.5" y2="67" gradientUnits="userSpaceOnUse">
<stop stop-color="#926CB3"/>
<stop offset="1" stop-color="#E18B8B"/>
</linearGradient>
<linearGradient id="paint2_linear" x1="39.5" y1="732" x2="39.5" y2="751" gradientUnits="userSpaceOnUse">
<stop stop-color="#926CB3"/>
<stop offset="1" stop-color="#E18B8B"/>
</linearGradient>
<linearGradient id="paint3_linear" x1="39.5" y1="758" x2="39.5" y2="768" gradientUnits="userSpaceOnUse">
<stop stop-color="#926CB3"/>
<stop offset="1" stop-color="#E18B8B"/>
</linearGradient>
<linearGradient id="paint4_linear" x1="187.5" y1="282" x2="187.5" y2="334" gradientUnits="userSpaceOnUse">
<stop stop-color="#926CB3"/>
<stop offset="1" stop-color="#E18B8B"/>
</linearGradient>
<clipPath id="clip0">
<rect width="375" height="812" fill="white"/>
</clipPath>
<clipPath id="clip1">
<rect width="25" height="25" fill="white" transform="translate(28 111)"/>
</clipPath>
</defs>
</svg>
