<svg width="375" height="812" viewBox="0 0 375 812" fill="none" xmlns="http://www.w3.org/2000/svg">
<path d="M340 77C340.962 77 341.75 76.1692 341.75 75.1538H338.25C338.25 76.1692 339.029 77 340 77ZM345.25 71.4615V66.8462C345.25 64.0123 343.815 61.64 341.312 61.0123V60.3846C341.312 59.6185 340.726 59 340 59C339.274 59 338.687 59.6185 338.687 60.3846V61.0123C336.176 61.64 334.75 64.0031 334.75 66.8462V71.4615L333 73.3077V74.2308H347V73.3077L345.25 71.4615Z" fill="white"/>
<path d="M309.2 61H294.8C293.81 61 293.009 61.7875 293.009 62.75L293 73.25C293 74.2125 293.81 75 294.8 75H309.2C310.19 75 311 74.2125 311 73.25V62.75C311 61.7875 310.19 61 309.2 61ZM309.2 64.5L302 68.875L294.8 64.5V62.75L302 67.125L309.2 62.75V64.5Z" fill="url(#paint0_linear)"/>
<circle opacity="0.3" cx="313.5" cy="59.5" r="12.5" fill="url(#paint1_linear)"/>
<circle cx="313.5" cy="59.5" r="7.5" fill="url(#paint2_linear)"/>
<path d="M313.28 60.17C313.667 59.5767 313.93 59.13 314.07 58.83C314.217 58.53 314.29 58.2467 314.29 57.98C314.29 57.6933 314.207 57.47 314.04 57.31C313.88 57.1433 313.657 57.06 313.37 57.06C313.05 57.06 312.753 57.1367 312.48 57.29C312.207 57.4433 311.94 57.65 311.68 57.91L311.52 56.62C311.833 56.3667 312.16 56.1767 312.5 56.05C312.84 55.9233 313.217 55.86 313.63 55.86C314.037 55.86 314.383 55.9467 314.67 56.12C314.957 56.2867 315.17 56.5133 315.31 56.8C315.457 57.0867 315.53 57.4033 315.53 57.75C315.53 58.1433 315.443 58.5467 315.27 58.96C315.103 59.3733 314.807 59.9033 314.38 60.55L313.56 61.8H315.78V63H311.44L313.28 60.17Z" fill="white"/>
<path opacity="0.35" d="M336.5 20.0002C336.5 18.8035 337.47 17.8335 338.667 17.8335H355.333C356.53 17.8335 357.5 18.8035 357.5 20.0002V26.0002C357.5 27.1968 356.53 28.1668 355.333 28.1668H338.667C337.47 28.1668 336.5 27.1968 336.5 26.0002V20.0002Z" stroke="white"/>
<path opacity="0.4" d="M359 21V25C359.805 24.6612 360.328 23.8731 360.328 23C360.328 22.1269 359.805 21.3388 359 21Z" fill="white"/>
<path d="M338 20.6668C338 19.9305 338.597 19.3335 339.333 19.3335H354.667C355.403 19.3335 356 19.9304 356 20.6668V25.3335C356 26.0699 355.403 26.6668 354.667 26.6668H339.333C338.597 26.6668 338 26.0699 338 25.3335V20.6668Z" fill="white"/>
<path d="M323.33 19.6079C325.546 19.608 327.677 20.4594 329.283 21.9862C329.404 22.1041 329.597 22.1026 329.716 21.9829L330.872 20.8162C330.933 20.7555 330.966 20.6733 330.966 20.5877C330.965 20.5021 330.931 20.4202 330.87 20.3602C326.655 16.3207 320.005 16.3207 315.79 20.3602C315.729 20.4202 315.694 20.502 315.693 20.5876C315.693 20.6732 315.726 20.7555 315.787 20.8162L316.943 21.9829C317.062 22.1028 317.255 22.1043 317.376 21.9862C318.982 20.4593 321.114 19.6079 323.33 19.6079Z" fill="white"/>
<path d="M323.331 23.4035C324.548 23.4034 325.722 23.8559 326.625 24.6731C326.747 24.7891 326.939 24.7866 327.058 24.6675L328.213 23.5008C328.274 23.4396 328.307 23.3566 328.306 23.2703C328.306 23.1841 328.27 23.1017 328.208 23.0418C325.46 20.4854 321.204 20.4854 318.456 23.0418C318.394 23.1017 318.358 23.1841 318.357 23.2704C318.357 23.3567 318.39 23.4397 318.451 23.5008L319.606 24.6675C319.725 24.7866 319.917 24.7891 320.039 24.6731C320.941 23.8565 322.114 23.404 323.331 23.4035Z" fill="white"/>
<path d="M325.55 26.188C325.612 26.1274 325.646 26.044 325.644 25.9575C325.642 25.871 325.605 25.7891 325.54 25.731C324.265 24.6522 322.397 24.6522 321.121 25.731C321.057 25.789 321.019 25.8709 321.018 25.9575C321.016 26.044 321.05 26.1274 321.111 26.188L323.109 28.2037C323.168 28.2629 323.248 28.2963 323.331 28.2963C323.414 28.2963 323.494 28.2629 323.552 28.2037L325.55 26.188Z" fill="white"/>
<path d="M294.666 24.333H295.666C296.218 24.333 296.666 24.7807 296.666 25.333V27.333C296.666 27.8853 296.218 28.333 295.666 28.333H294.666C294.114 28.333 293.666 27.8853 293.666 27.333V25.333C293.666 24.7807 294.114 24.333 294.666 24.333Z" fill="white"/>
<path d="M299.332 22.333H300.332C300.884 22.333 301.332 22.7807 301.332 23.333V27.333C301.332 27.8853 300.884 28.333 300.332 28.333H299.332C298.78 28.333 298.332 27.8853 298.332 27.333V23.333C298.332 22.7807 298.78 22.333 299.332 22.333Z" fill="white"/>
<path d="M304 20H305C305.552 20 306 20.4477 306 21V27.3333C306 27.8856 305.552 28.3333 305 28.3333H304C303.448 28.3333 303 27.8856 303 27.3333V21C303 20.4477 303.448 20 304 20Z" fill="white"/>
<path d="M308.666 17.6665H309.666C310.218 17.6665 310.666 18.1142 310.666 18.6665V27.3332C310.666 27.8855 310.218 28.3332 309.666 28.3332H308.666C308.114 28.3332 307.666 27.8855 307.666 27.3332V18.6665C307.666 18.1142 308.114 17.6665 308.666 17.6665V17.6665Z" fill="white"/>
<path d="M39.5278 17.29C40.2478 17.29 40.8828 17.455 41.4328 17.785C41.9828 18.105 42.4078 18.56 42.7078 19.15C43.0078 19.74 43.1578 20.425 43.1578 21.205C43.1578 22.225 42.9228 23.19 42.4528 24.1C41.9928 25 41.4078 25.78 40.6978 26.44C39.9878 27.1 39.2578 27.62 38.5078 28L37.1728 26.95C37.8628 26.61 38.5828 26.12 39.3328 25.48C40.0928 24.84 40.6578 24.12 41.0278 23.32C40.5278 23.65 39.9028 23.815 39.1528 23.815C38.5728 23.815 38.0478 23.68 37.5778 23.41C37.1078 23.14 36.7378 22.765 36.4678 22.285C36.2078 21.805 36.0778 21.26 36.0778 20.65C36.0778 19.99 36.2178 19.405 36.4978 18.895C36.7778 18.385 37.1778 17.99 37.6978 17.71C38.2178 17.43 38.8278 17.29 39.5278 17.29ZM39.4978 22.165C39.9778 22.165 40.3728 22.015 40.6828 21.715C40.9928 21.415 41.1478 21.035 41.1478 20.575C41.1478 20.115 40.9928 19.73 40.6828 19.42C40.3728 19.1 39.9778 18.94 39.4978 18.94C39.0278 18.94 38.6328 19.1 38.3128 19.42C38.0028 19.73 37.8478 20.115 37.8478 20.575C37.8478 21.035 38.0028 21.415 38.3128 21.715C38.6328 22.015 39.0278 22.165 39.4978 22.165ZM44.1707 20.5H46.1207V22.54H44.1707V20.5ZM44.1707 25.96H46.1207V28H44.1707V25.96ZM55.0409 24.04V25.6H53.6909V28H51.8459V25.6H46.6109L52.3859 17.5H53.6909V24.04H55.0409ZM51.8459 24.04V20.815L49.5809 24.04H51.8459ZM57.5651 20.215C57.1451 20.495 56.7051 20.675 56.2451 20.755L56.0801 19.135C56.4101 19.065 56.7801 18.865 57.1901 18.535C57.6001 18.195 57.8751 17.85 58.0151 17.5H59.4851V28H57.5651V20.215Z" fill="white"/>
<path d="M163.894 74L162.814 65.558L159.592 71.354L156.352 65.576L155.272 74H152.878L154.624 61.4H156.514L159.592 67.142L162.652 61.4H164.542L166.288 74H163.894ZM173.134 74.18C172.09 74.18 171.196 73.97 170.452 73.55C169.72 73.118 169.168 72.548 168.796 71.84C168.436 71.12 168.256 70.322 168.256 69.446C168.256 68.606 168.43 67.838 168.778 67.142C169.126 66.446 169.63 65.894 170.29 65.486C170.95 65.066 171.736 64.856 172.648 64.856C173.488 64.856 174.196 65.03 174.772 65.378C175.36 65.726 175.798 66.194 176.086 66.782C176.386 67.37 176.536 68.03 176.536 68.762C176.536 69.122 176.488 69.53 176.392 69.986H170.578C170.698 70.778 171.01 71.372 171.514 71.768C172.018 72.152 172.624 72.344 173.332 72.344C174.304 72.344 175.204 72.098 176.032 71.606L176.14 73.496C175.756 73.7 175.306 73.868 174.79 74C174.286 74.12 173.734 74.18 173.134 74.18ZM174.268 68.474C174.268 68.006 174.136 67.592 173.872 67.232C173.608 66.872 173.2 66.692 172.648 66.692C172.096 66.692 171.652 66.854 171.316 67.178C170.98 67.502 170.752 67.934 170.632 68.474H174.268ZM181.515 74.18C180.939 74.18 180.411 74.126 179.931 74.018C179.463 73.91 178.977 73.742 178.473 73.514L178.671 71.606C179.175 71.906 179.643 72.134 180.075 72.29C180.519 72.434 180.975 72.506 181.443 72.506C182.355 72.506 182.811 72.206 182.811 71.606C182.811 71.282 182.691 71.036 182.451 70.868C182.211 70.688 181.779 70.478 181.155 70.238C180.267 69.914 179.613 69.548 179.193 69.14C178.773 68.72 178.563 68.156 178.563 67.448C178.563 66.668 178.863 66.038 179.463 65.558C180.063 65.066 180.873 64.82 181.893 64.82C182.913 64.82 183.843 65.054 184.683 65.522L184.485 67.43C184.029 67.118 183.597 66.878 183.189 66.71C182.793 66.542 182.373 66.458 181.929 66.458C181.545 66.458 181.245 66.536 181.029 66.692C180.825 66.848 180.723 67.07 180.723 67.358C180.723 67.586 180.783 67.772 180.903 67.916C181.035 68.06 181.215 68.192 181.443 68.312C181.671 68.42 182.049 68.576 182.577 68.78C183.453 69.116 184.083 69.488 184.467 69.896C184.851 70.292 185.043 70.826 185.043 71.498C185.043 72.35 184.737 73.01 184.125 73.478C183.513 73.946 182.643 74.18 181.515 74.18ZM190.027 74.18C189.451 74.18 188.923 74.126 188.443 74.018C187.975 73.91 187.489 73.742 186.985 73.514L187.183 71.606C187.687 71.906 188.155 72.134 188.587 72.29C189.031 72.434 189.487 72.506 189.955 72.506C190.867 72.506 191.323 72.206 191.323 71.606C191.323 71.282 191.203 71.036 190.963 70.868C190.723 70.688 190.291 70.478 189.667 70.238C188.779 69.914 188.125 69.548 187.705 69.14C187.285 68.72 187.075 68.156 187.075 67.448C187.075 66.668 187.375 66.038 187.975 65.558C188.575 65.066 189.385 64.82 190.405 64.82C191.425 64.82 192.355 65.054 193.195 65.522L192.997 67.43C192.541 67.118 192.109 66.878 191.701 66.71C191.305 66.542 190.885 66.458 190.441 66.458C190.057 66.458 189.757 66.536 189.541 66.692C189.337 66.848 189.235 67.07 189.235 67.358C189.235 67.586 189.295 67.772 189.415 67.916C189.547 68.06 189.727 68.192 189.955 68.312C190.183 68.42 190.561 68.576 191.089 68.78C191.965 69.116 192.595 69.488 192.979 69.896C193.363 70.292 193.555 70.826 193.555 71.498C193.555 72.35 193.249 73.01 192.637 73.478C192.025 73.946 191.155 74.18 190.027 74.18ZM197.926 74.18C197.182 74.18 196.558 73.94 196.054 73.46C195.562 72.968 195.316 72.308 195.316 71.48C195.316 70.7 195.598 70.076 196.162 69.608C196.726 69.128 197.392 68.792 198.16 68.6C198.928 68.396 199.666 68.282 200.374 68.258C200.35 67.73 200.212 67.352 199.96 67.124C199.72 66.896 199.318 66.782 198.754 66.782C198.358 66.782 197.968 66.836 197.584 66.944C197.212 67.052 196.78 67.226 196.288 67.466L196.09 65.648C197.182 65.12 198.274 64.856 199.366 64.856C200.422 64.856 201.226 65.144 201.778 65.72C202.342 66.296 202.624 67.214 202.624 68.474V70.904C202.624 71.36 202.642 71.69 202.678 71.894C202.726 72.086 202.798 72.212 202.894 72.272C203.002 72.32 203.176 72.344 203.416 72.344H203.704L203.506 74.18H202.696C202.204 74.18 201.79 74.09 201.454 73.91C201.118 73.718 200.86 73.46 200.68 73.136C200.392 73.46 199.996 73.718 199.492 73.91C199 74.09 198.478 74.18 197.926 74.18ZM198.862 72.47C199.09 72.47 199.348 72.416 199.636 72.308C199.924 72.188 200.176 72.026 200.392 71.822V69.77C199.672 69.806 199.036 69.962 198.484 70.238C197.932 70.514 197.656 70.898 197.656 71.39C197.656 71.762 197.752 72.038 197.944 72.218C198.136 72.386 198.442 72.47 198.862 72.47ZM209.411 78.536C208.139 78.536 207.125 78.302 206.369 77.834C205.613 77.378 205.235 76.754 205.235 75.962C205.235 75.098 205.721 74.39 206.693 73.838C206.165 73.514 205.901 73.088 205.901 72.56C205.901 72.284 205.979 72.038 206.135 71.822C206.303 71.606 206.525 71.432 206.801 71.3C206.345 70.976 205.997 70.562 205.757 70.058C205.529 69.554 205.415 69.002 205.415 68.402C205.415 67.742 205.559 67.142 205.847 66.602C206.135 66.05 206.555 65.618 207.107 65.306C207.659 64.982 208.313 64.82 209.069 64.82C209.861 64.82 210.545 65.012 211.121 65.396C211.325 65.288 211.595 65.198 211.931 65.126C212.279 65.042 212.651 65 213.047 65H213.623L213.479 66.404H212.669C212.465 66.404 212.297 66.41 212.165 66.422C212.525 66.974 212.705 67.634 212.705 68.402C212.705 69.062 212.561 69.668 212.273 70.22C211.997 70.76 211.583 71.192 211.031 71.516C210.479 71.828 209.825 71.984 209.069 71.984C208.793 71.984 208.475 71.942 208.115 71.858C207.983 71.918 207.917 72.014 207.917 72.146C207.917 72.302 208.007 72.428 208.187 72.524C208.379 72.608 208.697 72.68 209.141 72.74L210.689 72.938C212.753 73.214 213.785 74.084 213.785 75.548C213.785 76.46 213.395 77.186 212.615 77.726C211.847 78.266 210.779 78.536 209.411 78.536ZM209.069 70.328C209.585 70.328 209.981 70.16 210.257 69.824C210.545 69.476 210.689 69.002 210.689 68.402C210.689 67.802 210.545 67.334 210.257 66.998C209.981 66.65 209.585 66.476 209.069 66.476C208.541 66.476 208.133 66.65 207.845 66.998C207.569 67.334 207.431 67.802 207.431 68.402C207.431 69.002 207.569 69.476 207.845 69.824C208.133 70.16 208.541 70.328 209.069 70.328ZM209.501 76.844C211.037 76.844 211.805 76.466 211.805 75.71C211.805 75.374 211.673 75.122 211.409 74.954C211.145 74.798 210.707 74.672 210.095 74.576L208.115 74.288C207.431 74.564 207.089 74.984 207.089 75.548C207.089 75.98 207.299 76.304 207.719 76.52C208.139 76.736 208.733 76.844 209.501 76.844ZM220.032 74.18C218.988 74.18 218.094 73.97 217.35 73.55C216.618 73.118 216.066 72.548 215.694 71.84C215.334 71.12 215.154 70.322 215.154 69.446C215.154 68.606 215.328 67.838 215.676 67.142C216.024 66.446 216.528 65.894 217.188 65.486C217.848 65.066 218.634 64.856 219.546 64.856C220.386 64.856 221.094 65.03 221.67 65.378C222.258 65.726 222.696 66.194 222.984 66.782C223.284 67.37 223.434 68.03 223.434 68.762C223.434 69.122 223.386 69.53 223.29 69.986H217.476C217.596 70.778 217.908 71.372 218.412 71.768C218.916 72.152 219.522 72.344 220.23 72.344C221.202 72.344 222.102 72.098 222.93 71.606L223.038 73.496C222.654 73.7 222.204 73.868 221.688 74C221.184 74.12 220.632 74.18 220.032 74.18ZM221.166 68.474C221.166 68.006 221.034 67.592 220.77 67.232C220.506 66.872 220.098 66.692 219.546 66.692C218.994 66.692 218.55 66.854 218.214 67.178C217.878 67.502 217.65 67.934 217.53 68.474H221.166Z" fill="white"/>
<g filter="url(#filter0_d)">
<rect y="719" width="375" height="93" fill="#474A4F"/>
</g>
<path d="M27 734.375C27 733.069 28.125 732 29.5 732H48.25C48.9403 732 49.5 732.532 49.5 733.188V734.375H29.5V735.563H50.75C51.4403 735.563 52 736.094 52 736.75V748.625C52 749.937 50.8806 751 49.5 751H29.5C28.1194 751 27 749.937 27 748.625V734.375ZM47.625 745.063C48.6606 745.063 49.5 744.265 49.5 743.281C49.5 742.297 48.6606 741.5 47.625 741.5C46.5894 741.5 45.75 742.297 45.75 743.281C45.75 744.265 46.5894 745.063 47.625 745.063Z" fill="#AAAAAA"/>
<path d="M28.08 760.4H29.144L30.264 764.376L31.512 760.4H32.224L33.52 764.272L34.592 760.4H35.656L34.016 766H33.112L31.864 762.264L30.624 766H29.656L28.08 760.4ZM36.7421 766.08C36.4114 766.08 36.1341 765.973 35.9101 765.76C35.6914 765.541 35.5821 765.248 35.5821 764.88C35.5821 764.533 35.7074 764.256 35.9581 764.048C36.2087 763.835 36.5047 763.685 36.8461 763.6C37.1874 763.509 37.5154 763.459 37.8301 763.448C37.8194 763.213 37.7581 763.045 37.6461 762.944C37.5394 762.843 37.3607 762.792 37.1101 762.792C36.9341 762.792 36.7607 762.816 36.5901 762.864C36.4247 762.912 36.2327 762.989 36.0141 763.096L35.9261 762.288C36.4114 762.053 36.8967 761.936 37.3821 761.936C37.8514 761.936 38.2087 762.064 38.4541 762.32C38.7047 762.576 38.8301 762.984 38.8301 763.544V764.624C38.8301 764.827 38.8381 764.973 38.8541 765.064C38.8754 765.149 38.9074 765.205 38.9501 765.232C38.9981 765.253 39.0754 765.264 39.1821 765.264H39.3101L39.2221 766.08H38.8621C38.6434 766.08 38.4594 766.04 38.3101 765.96C38.1607 765.875 38.0461 765.76 37.9661 765.616C37.8381 765.76 37.6621 765.875 37.4381 765.96C37.2194 766.04 36.9874 766.08 36.7421 766.08ZM37.1581 765.32C37.2594 765.32 37.3741 765.296 37.5021 765.248C37.6301 765.195 37.7421 765.123 37.8381 765.032V764.12C37.5181 764.136 37.2354 764.205 36.9901 764.328C36.7447 764.451 36.6221 764.621 36.6221 764.84C36.6221 765.005 36.6647 765.128 36.7501 765.208C36.8354 765.283 36.9714 765.32 37.1581 765.32ZM40.8864 766.08C40.5451 766.08 40.2891 765.984 40.1184 765.792C39.9478 765.595 39.8624 765.341 39.8624 765.032V760H40.8544V764.624C40.8544 764.837 40.8651 764.989 40.8864 765.08C40.9131 765.165 40.9558 765.219 41.0144 765.24C41.0784 765.256 41.1851 765.264 41.3344 765.264L41.2464 766.08H40.8864ZM42.988 766.08C42.6467 766.08 42.3907 765.984 42.22 765.792C42.0493 765.595 41.964 765.341 41.964 765.032V760H42.956V764.624C42.956 764.837 42.9667 764.989 42.988 765.08C43.0147 765.165 43.0573 765.219 43.116 765.24C43.18 765.256 43.2867 765.264 43.436 765.264L43.348 766.08H42.988ZM45.9545 766.08C45.4905 766.08 45.0932 765.987 44.7625 765.8C44.4372 765.608 44.1918 765.355 44.0265 765.04C43.8665 764.72 43.7865 764.365 43.7865 763.976C43.7865 763.603 43.8638 763.261 44.0185 762.952C44.1732 762.643 44.3972 762.397 44.6905 762.216C44.9838 762.029 45.3332 761.936 45.7385 761.936C46.1118 761.936 46.4265 762.013 46.6825 762.168C46.9438 762.323 47.1385 762.531 47.2665 762.792C47.3998 763.053 47.4665 763.347 47.4665 763.672C47.4665 763.832 47.4452 764.013 47.4025 764.216H44.8185C44.8718 764.568 45.0105 764.832 45.2345 765.008C45.4585 765.179 45.7278 765.264 46.0425 765.264C46.4745 765.264 46.8745 765.155 47.2425 764.936L47.2905 765.776C47.1198 765.867 46.9198 765.941 46.6905 766C46.4665 766.053 46.2212 766.08 45.9545 766.08ZM46.4585 763.544C46.4585 763.336 46.3998 763.152 46.2825 762.992C46.1652 762.832 45.9838 762.752 45.7385 762.752C45.4932 762.752 45.2958 762.824 45.1465 762.968C44.9972 763.112 44.8958 763.304 44.8425 763.544H46.4585ZM49.4477 766.08C49.0957 766.08 48.829 765.979 48.6477 765.776C48.4664 765.568 48.3757 765.32 48.3757 765.032V762.816H47.8077L47.8957 762H48.3757V761.12L49.3677 761.016V762H50.2477V762.816H49.3677V764.624C49.3677 764.837 49.3784 764.987 49.3997 765.072C49.4264 765.152 49.477 765.205 49.5517 765.232C49.6317 765.253 49.773 765.264 49.9757 765.264H50.2477L50.1597 766.08H49.4477Z" fill="#AAAAAA"/>
<path d="M329 749H352V746.5H329V749ZM329 742.75H352V740.25H329V742.75ZM329 734V736.5H352V734H329Z" fill="#A6A6A6"/>
<path d="M335.248 766L334.768 762.248L333.336 764.824L331.896 762.256L331.416 766H330.352L331.128 760.4H331.968L333.336 762.952L334.696 760.4H335.536L336.312 766H335.248ZM338.955 766.08C338.491 766.08 338.093 765.987 337.763 765.8C337.437 765.608 337.192 765.355 337.027 765.04C336.867 764.72 336.787 764.365 336.787 763.976C336.787 763.603 336.864 763.261 337.019 762.952C337.173 762.643 337.397 762.397 337.691 762.216C337.984 762.029 338.333 761.936 338.739 761.936C339.112 761.936 339.427 762.013 339.683 762.168C339.944 762.323 340.139 762.531 340.267 762.792C340.4 763.053 340.467 763.347 340.467 763.672C340.467 763.832 340.445 764.013 340.403 764.216H337.819C337.872 764.568 338.011 764.832 338.235 765.008C338.459 765.179 338.728 765.264 339.043 765.264C339.475 765.264 339.875 765.155 340.243 764.936L340.291 765.776C340.12 765.867 339.92 765.941 339.691 766C339.467 766.053 339.221 766.08 338.955 766.08ZM339.459 763.544C339.459 763.336 339.4 763.152 339.283 762.992C339.165 762.832 338.984 762.752 338.739 762.752C338.493 762.752 338.296 762.824 338.147 762.968C337.997 763.112 337.896 763.304 337.843 763.544H339.459ZM343.16 761.936C343.656 761.936 344.032 762.101 344.288 762.432C344.544 762.763 344.672 763.208 344.672 763.768V766H343.68V763.848C343.68 763.475 343.616 763.2 343.488 763.024C343.365 762.843 343.165 762.752 342.888 762.752C342.584 762.752 342.333 762.867 342.136 763.096V766H341.144V762H342.072L342.088 762.28C342.424 762.051 342.781 761.936 343.16 761.936ZM349.015 762V766H348.087L348.071 765.76C347.948 765.851 347.807 765.928 347.647 765.992C347.487 766.051 347.332 766.08 347.183 766.08C346.591 766.08 346.159 765.909 345.887 765.568C345.62 765.227 345.487 764.755 345.487 764.152V762H346.479V764.152C346.479 764.525 346.54 764.803 346.663 764.984C346.791 765.16 346.993 765.248 347.271 765.248C347.58 765.248 347.831 765.136 348.023 764.912V762H349.015Z" fill="#AAAAAA"/>
<path d="M245.52 764.672H243.48L243.016 766H242.024L244.016 760.4H244.984L246.976 766H245.984L245.52 764.672ZM245.2 763.776L244.504 761.776L243.8 763.776H245.2ZM251.018 760V766H250.082L250.066 765.744C249.912 765.856 249.749 765.941 249.578 766C249.413 766.053 249.216 766.08 248.986 766.08C248.597 766.08 248.261 765.987 247.978 765.8C247.701 765.613 247.49 765.363 247.346 765.048C247.202 764.733 247.13 764.387 247.13 764.008C247.13 763.629 247.202 763.283 247.346 762.968C247.49 762.653 247.701 762.403 247.978 762.216C248.261 762.029 248.597 761.936 248.986 761.936C249.376 761.936 249.722 762.043 250.026 762.256V760H251.018ZM249.13 765.264C249.445 765.264 249.68 765.152 249.834 764.928C249.994 764.704 250.074 764.397 250.074 764.008C250.074 763.619 249.994 763.312 249.834 763.088C249.68 762.864 249.445 762.752 249.13 762.752C248.821 762.752 248.578 762.867 248.402 763.096C248.232 763.325 248.146 763.629 248.146 764.008C248.146 764.387 248.232 764.691 248.402 764.92C248.578 765.149 248.821 765.264 249.13 765.264ZM255.589 760V766H254.653L254.637 765.744C254.482 765.856 254.319 765.941 254.149 766C253.983 766.053 253.786 766.08 253.557 766.08C253.167 766.08 252.831 765.987 252.549 765.8C252.271 765.613 252.061 765.363 251.917 765.048C251.773 764.733 251.701 764.387 251.701 764.008C251.701 763.629 251.773 763.283 251.917 762.968C252.061 762.653 252.271 762.403 252.549 762.216C252.831 762.029 253.167 761.936 253.557 761.936C253.946 761.936 254.293 762.043 254.597 762.256V760H255.589ZM253.701 765.264C254.015 765.264 254.25 765.152 254.405 764.928C254.565 764.704 254.645 764.397 254.645 764.008C254.645 763.619 254.565 763.312 254.405 763.088C254.25 762.864 254.015 762.752 253.701 762.752C253.391 762.752 253.149 762.867 252.973 763.096C252.802 763.325 252.717 763.629 252.717 764.008C252.717 764.387 252.802 764.691 252.973 764.92C253.149 765.149 253.391 765.264 253.701 765.264ZM256.511 762H257.439L257.463 762.424C257.58 762.291 257.73 762.173 257.911 762.072C258.098 761.971 258.292 761.92 258.495 761.92C258.559 761.92 258.618 761.925 258.671 761.936L258.599 762.912C258.498 762.885 258.383 762.872 258.255 762.872C258.09 762.872 257.938 762.912 257.799 762.992C257.66 763.067 257.562 763.16 257.503 763.272V766H256.511V762ZM261.009 766.08C260.545 766.08 260.148 765.987 259.817 765.8C259.492 765.608 259.247 765.355 259.081 765.04C258.921 764.72 258.841 764.365 258.841 763.976C258.841 763.603 258.919 763.261 259.073 762.952C259.228 762.643 259.452 762.397 259.745 762.216C260.039 762.029 260.388 761.936 260.793 761.936C261.167 761.936 261.481 762.013 261.737 762.168C261.999 762.323 262.193 762.531 262.321 762.792C262.455 763.053 262.521 763.347 262.521 763.672C262.521 763.832 262.5 764.013 262.457 764.216H259.873C259.927 764.568 260.065 764.832 260.289 765.008C260.513 765.179 260.783 765.264 261.097 765.264C261.529 765.264 261.929 765.155 262.297 764.936L262.345 765.776C262.175 765.867 261.975 765.941 261.745 766C261.521 766.053 261.276 766.08 261.009 766.08ZM261.513 763.544C261.513 763.336 261.455 763.152 261.337 762.992C261.22 762.832 261.039 762.752 260.793 762.752C260.548 762.752 260.351 762.824 260.201 762.968C260.052 763.112 259.951 763.304 259.897 763.544H261.513ZM264.334 766.08C264.078 766.08 263.844 766.056 263.63 766.008C263.422 765.96 263.206 765.885 262.982 765.784L263.07 764.936C263.294 765.069 263.502 765.171 263.694 765.24C263.892 765.304 264.094 765.336 264.302 765.336C264.708 765.336 264.91 765.203 264.91 764.936C264.91 764.792 264.857 764.683 264.75 764.608C264.644 764.528 264.452 764.435 264.174 764.328C263.78 764.184 263.489 764.021 263.302 763.84C263.116 763.653 263.022 763.403 263.022 763.088C263.022 762.741 263.156 762.461 263.422 762.248C263.689 762.029 264.049 761.92 264.502 761.92C264.956 761.92 265.369 762.024 265.742 762.232L265.654 763.08C265.452 762.941 265.26 762.835 265.078 762.76C264.902 762.685 264.716 762.648 264.518 762.648C264.348 762.648 264.214 762.683 264.118 762.752C264.028 762.821 263.982 762.92 263.982 763.048C263.982 763.149 264.009 763.232 264.062 763.296C264.121 763.36 264.201 763.419 264.302 763.472C264.404 763.52 264.572 763.589 264.806 763.68C265.196 763.829 265.476 763.995 265.646 764.176C265.817 764.352 265.902 764.589 265.902 764.888C265.902 765.267 265.766 765.56 265.494 765.768C265.222 765.976 264.836 766.08 264.334 766.08ZM267.717 766.08C267.461 766.08 267.227 766.056 267.013 766.008C266.805 765.96 266.589 765.885 266.365 765.784L266.453 764.936C266.677 765.069 266.885 765.171 267.077 765.24C267.275 765.304 267.477 765.336 267.685 765.336C268.091 765.336 268.293 765.203 268.293 764.936C268.293 764.792 268.24 764.683 268.133 764.608C268.027 764.528 267.835 764.435 267.557 764.328C267.163 764.184 266.872 764.021 266.685 763.84C266.499 763.653 266.405 763.403 266.405 763.088C266.405 762.741 266.539 762.461 266.805 762.248C267.072 762.029 267.432 761.92 267.885 761.92C268.339 761.92 268.752 762.024 269.125 762.232L269.037 763.08C268.835 762.941 268.643 762.835 268.461 762.76C268.285 762.685 268.099 762.648 267.901 762.648C267.731 762.648 267.597 762.683 267.501 762.752C267.411 762.821 267.365 762.92 267.365 763.048C267.365 763.149 267.392 763.232 267.445 763.296C267.504 763.36 267.584 763.419 267.685 763.472C267.787 763.52 267.955 763.589 268.189 763.68C268.579 763.829 268.859 763.995 269.029 764.176C269.2 764.352 269.285 764.589 269.285 764.888C269.285 765.267 269.149 765.56 268.877 765.768C268.605 765.976 268.219 766.08 267.717 766.08ZM275.009 762.936C275.718 763.165 276.073 763.656 276.073 764.408C276.073 764.909 275.91 765.301 275.585 765.584C275.26 765.861 274.814 766 274.249 766H271.913V760.4H274.025C275.092 760.4 275.625 760.851 275.625 761.752C275.625 762.307 275.42 762.701 275.009 762.936ZM272.937 762.6H273.873C274.124 762.6 274.31 762.549 274.433 762.448C274.556 762.341 274.617 762.179 274.617 761.96C274.617 761.731 274.556 761.565 274.433 761.464C274.31 761.363 274.124 761.312 273.873 761.312H272.937V762.6ZM274.097 765.088C274.396 765.088 274.622 765.029 274.777 764.912C274.937 764.789 275.017 764.584 275.017 764.296C275.017 764.013 274.934 763.813 274.769 763.696C274.609 763.573 274.385 763.512 274.097 763.512H272.937V765.088H274.097ZM278.585 766.08C278.163 766.08 277.798 765.987 277.489 765.8C277.179 765.613 276.942 765.363 276.777 765.048C276.611 764.733 276.529 764.387 276.529 764.008C276.529 763.629 276.611 763.28 276.777 762.96C276.942 762.64 277.179 762.387 277.489 762.2C277.798 762.013 278.163 761.92 278.585 761.92C279.006 761.92 279.371 762.013 279.681 762.2C279.99 762.387 280.227 762.64 280.393 762.96C280.558 763.28 280.641 763.629 280.641 764.008C280.641 764.387 280.558 764.733 280.393 765.048C280.227 765.363 279.99 765.613 279.681 765.8C279.371 765.987 279.006 766.08 278.585 766.08ZM278.585 765.264C278.91 765.264 279.163 765.149 279.345 764.92C279.531 764.691 279.625 764.387 279.625 764.008C279.625 763.624 279.531 763.317 279.345 763.088C279.163 762.853 278.91 762.736 278.585 762.736C278.259 762.736 278.003 762.853 277.817 763.088C277.635 763.317 277.545 763.624 277.545 764.008C277.545 764.387 277.635 764.691 277.817 764.92C278.003 765.149 278.259 765.264 278.585 765.264ZM283.147 766.08C282.726 766.08 282.361 765.987 282.051 765.8C281.742 765.613 281.505 765.363 281.339 765.048C281.174 764.733 281.091 764.387 281.091 764.008C281.091 763.629 281.174 763.28 281.339 762.96C281.505 762.64 281.742 762.387 282.051 762.2C282.361 762.013 282.726 761.92 283.147 761.92C283.569 761.92 283.934 762.013 284.243 762.2C284.553 762.387 284.79 762.64 284.955 762.96C285.121 763.28 285.203 763.629 285.203 764.008C285.203 764.387 285.121 764.733 284.955 765.048C284.79 765.363 284.553 765.613 284.243 765.8C283.934 765.987 283.569 766.08 283.147 766.08ZM283.147 765.264C283.473 765.264 283.726 765.149 283.907 764.92C284.094 764.691 284.187 764.387 284.187 764.008C284.187 763.624 284.094 763.317 283.907 763.088C283.726 762.853 283.473 762.736 283.147 762.736C282.822 762.736 282.566 762.853 282.379 763.088C282.198 763.317 282.107 763.624 282.107 764.008C282.107 764.387 282.198 764.691 282.379 764.92C282.566 765.149 282.822 765.264 283.147 765.264ZM285.886 760H286.878V763.64L288.118 762H289.238L287.782 763.92L289.27 766H288.15L286.878 764.224V766H285.886V760Z" fill="#AAAAAA"/>
<path d="M257.2 735.4H255V750.8C255 752.01 255.99 753 257.2 753H272.6V750.8H257.2V735.4ZM274.8 731H261.6C260.39 731 259.4 731.99 259.4 733.2V746.4C259.4 747.61 260.39 748.6 261.6 748.6H274.8C276.01 748.6 277 747.61 277 746.4V733.2C277 731.99 276.01 731 274.8 731ZM273.7 740.9H262.7V738.7H273.7V740.9ZM269.3 745.3H262.7V743.1H269.3V745.3ZM273.7 736.5H262.7V734.3H273.7V736.5Z" fill="#AAAAAA"/>
<path d="M97.24 766.112C96.9253 766.112 96.5867 766.069 96.224 765.984C95.8667 765.899 95.5867 765.805 95.384 765.704L95.504 764.616C96.208 764.957 96.8267 765.128 97.36 765.128C97.6427 765.128 97.864 765.075 98.024 764.968C98.184 764.856 98.264 764.693 98.264 764.48C98.264 764.32 98.2187 764.189 98.128 764.088C98.0427 763.981 97.9173 763.893 97.752 763.824C97.5867 763.749 97.3227 763.648 96.96 763.52C96.6187 763.403 96.336 763.28 96.112 763.152C95.888 763.019 95.7093 762.851 95.576 762.648C95.448 762.44 95.384 762.187 95.384 761.888C95.384 761.408 95.56 761.021 95.912 760.728C96.264 760.435 96.768 760.288 97.424 760.288C97.7333 760.288 98.04 760.323 98.344 760.392C98.6533 760.461 98.936 760.547 99.192 760.648L99.088 761.696C98.7573 761.552 98.4533 761.445 98.176 761.376C97.904 761.301 97.632 761.264 97.36 761.264C97.056 761.264 96.824 761.315 96.664 761.416C96.504 761.517 96.424 761.664 96.424 761.856C96.424 762.005 96.4667 762.128 96.552 762.224C96.6373 762.32 96.752 762.4 96.896 762.464C97.0453 762.528 97.264 762.605 97.552 762.696C98.1973 762.899 98.6667 763.133 98.96 763.4C99.2587 763.661 99.408 764.021 99.408 764.48C99.408 764.917 99.256 765.299 98.952 765.624C98.648 765.949 98.0773 766.112 97.24 766.112ZM99.6503 762H100.618L101.306 764.792L102.058 762.08H102.89L103.634 764.792L104.33 762H105.298L104.13 766H103.298L102.474 763.392L101.65 766H100.818L99.6503 762ZM106.672 766.08C106.341 766.08 106.064 765.973 105.84 765.76C105.621 765.541 105.512 765.248 105.512 764.88C105.512 764.533 105.637 764.256 105.888 764.048C106.138 763.835 106.434 763.685 106.776 763.6C107.117 763.509 107.445 763.459 107.76 763.448C107.749 763.213 107.688 763.045 107.576 762.944C107.469 762.843 107.29 762.792 107.04 762.792C106.864 762.792 106.69 762.816 106.52 762.864C106.354 762.912 106.162 762.989 105.944 763.096L105.856 762.288C106.341 762.053 106.826 761.936 107.312 761.936C107.781 761.936 108.138 762.064 108.384 762.32C108.634 762.576 108.76 762.984 108.76 763.544V764.624C108.76 764.827 108.768 764.973 108.784 765.064C108.805 765.149 108.837 765.205 108.88 765.232C108.928 765.253 109.005 765.264 109.112 765.264H109.24L109.152 766.08H108.792C108.573 766.08 108.389 766.04 108.24 765.96C108.09 765.875 107.976 765.76 107.896 765.616C107.768 765.76 107.592 765.875 107.368 765.96C107.149 766.04 106.917 766.08 106.672 766.08ZM107.088 765.32C107.189 765.32 107.304 765.296 107.432 765.248C107.56 765.195 107.672 765.123 107.768 765.032V764.12C107.448 764.136 107.165 764.205 106.92 764.328C106.674 764.451 106.552 764.621 106.552 764.84C106.552 765.005 106.594 765.128 106.68 765.208C106.765 765.283 106.901 765.32 107.088 765.32ZM111.88 761.936C112.259 761.936 112.584 762.029 112.856 762.216C113.128 762.403 113.333 762.653 113.472 762.968C113.611 763.283 113.68 763.629 113.68 764.008C113.68 764.387 113.611 764.733 113.472 765.048C113.333 765.363 113.128 765.613 112.856 765.8C112.584 765.987 112.259 766.08 111.88 766.08C111.64 766.08 111.435 766.053 111.264 766C111.099 765.952 110.939 765.872 110.784 765.76V767.936H109.792V762H110.592L110.696 762.368C110.867 762.224 111.045 762.117 111.232 762.048C111.419 761.973 111.635 761.936 111.88 761.936ZM111.728 765.264C112.021 765.264 112.251 765.149 112.416 764.92C112.581 764.691 112.664 764.387 112.664 764.008C112.664 763.629 112.581 763.325 112.416 763.096C112.251 762.867 112.021 762.752 111.728 762.752C111.397 762.752 111.149 762.864 110.984 763.088C110.819 763.312 110.736 763.619 110.736 764.008C110.736 764.397 110.819 764.704 110.984 764.928C111.149 765.152 111.397 765.264 111.728 765.264ZM115.506 766.08C115.25 766.08 115.016 766.056 114.802 766.008C114.594 765.96 114.378 765.885 114.154 765.784L114.242 764.936C114.466 765.069 114.674 765.171 114.866 765.24C115.064 765.304 115.266 765.336 115.474 765.336C115.88 765.336 116.082 765.203 116.082 764.936C116.082 764.792 116.029 764.683 115.922 764.608C115.816 764.528 115.624 764.435 115.346 764.328C114.952 764.184 114.661 764.021 114.474 763.84C114.288 763.653 114.194 763.403 114.194 763.088C114.194 762.741 114.328 762.461 114.594 762.248C114.861 762.029 115.221 761.92 115.674 761.92C116.128 761.92 116.541 762.024 116.914 762.232L116.826 763.08C116.624 762.941 116.432 762.835 116.25 762.76C116.074 762.685 115.888 762.648 115.69 762.648C115.52 762.648 115.386 762.683 115.29 762.752C115.2 762.821 115.154 762.92 115.154 763.048C115.154 763.149 115.181 763.232 115.234 763.296C115.293 763.36 115.373 763.419 115.474 763.472C115.576 763.52 115.744 763.589 115.978 763.68C116.368 763.829 116.648 763.995 116.818 764.176C116.989 764.352 117.074 764.589 117.074 764.888C117.074 765.267 116.938 765.56 116.666 765.768C116.394 765.976 116.008 766.08 115.506 766.08Z" fill="#AAAAAA"/>
<path d="M114.35 734.929L102.667 734.929L102.667 738.214L114.35 738.214L114.35 743.143L121 736.571L114.35 730L114.35 734.929ZM91 746.429L97.65 753L97.65 748.071L109.333 748.071L109.333 744.786L97.65 744.786L97.65 739.857L91 746.429Z" fill="#AAAAAA"/>
<path d="M159.616 760.4H161.712C162.245 760.4 162.72 760.512 163.136 760.736C163.557 760.96 163.885 761.283 164.12 761.704C164.355 762.125 164.472 762.624 164.472 763.2C164.472 763.776 164.355 764.275 164.12 764.696C163.885 765.117 163.557 765.44 163.136 765.664C162.72 765.888 162.245 766 161.712 766H159.616V760.4ZM161.712 765.088C162.245 765.088 162.651 764.923 162.928 764.592C163.211 764.256 163.352 763.792 163.352 763.2C163.352 762.608 163.211 762.147 162.928 761.816C162.651 761.48 162.245 761.312 161.712 761.312H160.64V765.088H161.712ZM167.103 766.08C166.639 766.08 166.242 765.987 165.911 765.8C165.586 765.608 165.34 765.355 165.175 765.04C165.015 764.72 164.935 764.365 164.935 763.976C164.935 763.603 165.012 763.261 165.167 762.952C165.322 762.643 165.546 762.397 165.839 762.216C166.132 762.029 166.482 761.936 166.887 761.936C167.26 761.936 167.575 762.013 167.831 762.168C168.092 762.323 168.287 762.531 168.415 762.792C168.548 763.053 168.615 763.347 168.615 763.672C168.615 763.832 168.594 764.013 168.551 764.216H165.967C166.02 764.568 166.159 764.832 166.383 765.008C166.607 765.179 166.876 765.264 167.191 765.264C167.623 765.264 168.023 765.155 168.391 764.936L168.439 765.776C168.268 765.867 168.068 765.941 167.839 766C167.615 766.053 167.37 766.08 167.103 766.08ZM167.607 763.544C167.607 763.336 167.548 763.152 167.431 762.992C167.314 762.832 167.132 762.752 166.887 762.752C166.642 762.752 166.444 762.824 166.295 762.968C166.146 763.112 166.044 763.304 165.991 763.544H167.607ZM170.876 768.016C170.311 768.016 169.86 767.912 169.524 767.704C169.188 767.501 169.02 767.224 169.02 766.872C169.02 766.488 169.236 766.173 169.668 765.928C169.433 765.784 169.316 765.595 169.316 765.36C169.316 765.237 169.351 765.128 169.42 765.032C169.495 764.936 169.593 764.859 169.716 764.8C169.513 764.656 169.359 764.472 169.252 764.248C169.151 764.024 169.1 763.779 169.1 763.512C169.1 763.219 169.164 762.952 169.292 762.712C169.42 762.467 169.607 762.275 169.852 762.136C170.097 761.992 170.388 761.92 170.724 761.92C171.076 761.92 171.38 762.005 171.636 762.176C171.727 762.128 171.847 762.088 171.996 762.056C172.151 762.019 172.316 762 172.492 762H172.748L172.684 762.624H172.324C172.233 762.624 172.159 762.627 172.1 762.632C172.26 762.877 172.34 763.171 172.34 763.512C172.34 763.805 172.276 764.075 172.148 764.32C172.025 764.56 171.841 764.752 171.596 764.896C171.351 765.035 171.06 765.104 170.724 765.104C170.601 765.104 170.46 765.085 170.3 765.048C170.241 765.075 170.212 765.117 170.212 765.176C170.212 765.245 170.252 765.301 170.332 765.344C170.417 765.381 170.559 765.413 170.756 765.44L171.444 765.528C172.361 765.651 172.82 766.037 172.82 766.688C172.82 767.093 172.647 767.416 172.3 767.656C171.959 767.896 171.484 768.016 170.876 768.016ZM170.724 764.368C170.953 764.368 171.129 764.293 171.252 764.144C171.38 763.989 171.444 763.779 171.444 763.512C171.444 763.245 171.38 763.037 171.252 762.888C171.129 762.733 170.953 762.656 170.724 762.656C170.489 762.656 170.308 762.733 170.18 762.888C170.057 763.037 169.996 763.245 169.996 763.512C169.996 763.779 170.057 763.989 170.18 764.144C170.308 764.293 170.489 764.368 170.724 764.368ZM170.916 767.264C171.599 767.264 171.94 767.096 171.94 766.76C171.94 766.611 171.881 766.499 171.764 766.424C171.647 766.355 171.452 766.299 171.18 766.256L170.3 766.128C169.996 766.251 169.844 766.437 169.844 766.688C169.844 766.88 169.937 767.024 170.124 767.12C170.311 767.216 170.575 767.264 170.916 767.264ZM173.3 760.4H174.292V761.392H173.3V760.4ZM173.3 762H174.292V766H173.3V762ZM176.526 766.08C176.174 766.08 175.907 765.979 175.726 765.776C175.544 765.568 175.454 765.32 175.454 765.032V762.816H174.886L174.974 762H175.454V761.12L176.446 761.016V762H177.326V762.816H176.446V764.624C176.446 764.837 176.456 764.987 176.478 765.072C176.504 765.152 176.555 765.205 176.63 765.232C176.71 765.253 176.851 765.264 177.054 765.264H177.326L177.238 766.08H176.526ZM178.836 766.08C178.505 766.08 178.228 765.973 178.004 765.76C177.785 765.541 177.676 765.248 177.676 764.88C177.676 764.533 177.801 764.256 178.052 764.048C178.302 763.835 178.598 763.685 178.94 763.6C179.281 763.509 179.609 763.459 179.924 763.448C179.913 763.213 179.852 763.045 179.74 762.944C179.633 762.843 179.454 762.792 179.204 762.792C179.028 762.792 178.854 762.816 178.684 762.864C178.518 762.912 178.326 762.989 178.108 763.096L178.02 762.288C178.505 762.053 178.99 761.936 179.476 761.936C179.945 761.936 180.302 762.064 180.548 762.32C180.798 762.576 180.924 762.984 180.924 763.544V764.624C180.924 764.827 180.932 764.973 180.948 765.064C180.969 765.149 181.001 765.205 181.044 765.232C181.092 765.253 181.169 765.264 181.276 765.264H181.404L181.316 766.08H180.956C180.737 766.08 180.553 766.04 180.404 765.96C180.254 765.875 180.14 765.76 180.06 765.616C179.932 765.76 179.756 765.875 179.532 765.96C179.313 766.04 179.081 766.08 178.836 766.08ZM179.252 765.32C179.353 765.32 179.468 765.296 179.596 765.248C179.724 765.195 179.836 765.123 179.932 765.032V764.12C179.612 764.136 179.329 764.205 179.084 764.328C178.838 764.451 178.716 764.621 178.716 764.84C178.716 765.005 178.758 765.128 178.844 765.208C178.929 765.283 179.065 765.32 179.252 765.32ZM182.98 766.08C182.639 766.08 182.383 765.984 182.212 765.792C182.042 765.595 181.956 765.341 181.956 765.032V760H182.948V764.624C182.948 764.837 182.959 764.989 182.98 765.08C183.007 765.165 183.05 765.219 183.108 765.24C183.172 765.256 183.279 765.264 183.428 765.264L183.34 766.08H182.98ZM188.911 764.672H186.871L186.407 766H185.415L187.407 760.4H188.375L190.367 766H189.375L188.911 764.672ZM188.591 763.776L187.895 761.776L187.191 763.776H188.591ZM191.991 766.08C191.735 766.08 191.5 766.056 191.287 766.008C191.079 765.96 190.863 765.885 190.639 765.784L190.727 764.936C190.951 765.069 191.159 765.171 191.351 765.24C191.548 765.304 191.751 765.336 191.959 765.336C192.364 765.336 192.567 765.203 192.567 764.936C192.567 764.792 192.513 764.683 192.407 764.608C192.3 764.528 192.108 764.435 191.831 764.328C191.436 764.184 191.145 764.021 190.959 763.84C190.772 763.653 190.679 763.403 190.679 763.088C190.679 762.741 190.812 762.461 191.079 762.248C191.345 762.029 191.705 761.92 192.159 761.92C192.612 761.92 193.025 762.024 193.399 762.232L193.311 763.08C193.108 762.941 192.916 762.835 192.735 762.76C192.559 762.685 192.372 762.648 192.175 762.648C192.004 762.648 191.871 762.683 191.775 762.752C191.684 762.821 191.639 762.92 191.639 763.048C191.639 763.149 191.665 763.232 191.719 763.296C191.777 763.36 191.857 763.419 191.959 763.472C192.06 763.52 192.228 763.589 192.463 763.68C192.852 763.829 193.132 763.995 193.303 764.176C193.473 764.352 193.559 764.589 193.559 764.888C193.559 765.267 193.423 765.56 193.151 765.768C192.879 765.976 192.492 766.08 191.991 766.08ZM195.373 766.08C195.117 766.08 194.883 766.056 194.669 766.008C194.461 765.96 194.245 765.885 194.021 765.784L194.109 764.936C194.333 765.069 194.541 765.171 194.733 765.24C194.931 765.304 195.133 765.336 195.341 765.336C195.747 765.336 195.949 765.203 195.949 764.936C195.949 764.792 195.896 764.683 195.789 764.608C195.683 764.528 195.491 764.435 195.213 764.328C194.819 764.184 194.528 764.021 194.341 763.84C194.155 763.653 194.061 763.403 194.061 763.088C194.061 762.741 194.195 762.461 194.461 762.248C194.728 762.029 195.088 761.92 195.541 761.92C195.995 761.92 196.408 762.024 196.781 762.232L196.693 763.08C196.491 762.941 196.299 762.835 196.117 762.76C195.941 762.685 195.755 762.648 195.557 762.648C195.387 762.648 195.253 762.683 195.157 762.752C195.067 762.821 195.021 762.92 195.021 763.048C195.021 763.149 195.048 763.232 195.101 763.296C195.16 763.36 195.24 763.419 195.341 763.472C195.443 763.52 195.611 763.589 195.845 763.68C196.235 763.829 196.515 763.995 196.685 764.176C196.856 764.352 196.941 764.589 196.941 764.888C196.941 765.267 196.805 765.56 196.533 765.768C196.261 765.976 195.875 766.08 195.373 766.08ZM199.548 766.08C199.084 766.08 198.687 765.987 198.356 765.8C198.031 765.608 197.786 765.355 197.62 765.04C197.46 764.72 197.38 764.365 197.38 763.976C197.38 763.603 197.458 763.261 197.612 762.952C197.767 762.643 197.991 762.397 198.284 762.216C198.578 762.029 198.927 761.936 199.332 761.936C199.706 761.936 200.02 762.013 200.276 762.168C200.538 762.323 200.732 762.531 200.86 762.792C200.994 763.053 201.06 763.347 201.06 763.672C201.06 763.832 201.039 764.013 200.996 764.216H198.412C198.466 764.568 198.604 764.832 198.828 765.008C199.052 765.179 199.322 765.264 199.636 765.264C200.068 765.264 200.468 765.155 200.836 764.936L200.884 765.776C200.714 765.867 200.514 765.941 200.284 766C200.06 766.053 199.815 766.08 199.548 766.08ZM200.052 763.544C200.052 763.336 199.994 763.152 199.876 762.992C199.759 762.832 199.578 762.752 199.332 762.752C199.087 762.752 198.89 762.824 198.74 762.968C198.591 763.112 198.49 763.304 198.436 763.544H200.052ZM203.041 766.08C202.689 766.08 202.423 765.979 202.241 765.776C202.06 765.568 201.969 765.32 201.969 765.032V762.816H201.401L201.489 762H201.969V761.12L202.961 761.016V762H203.841V762.816H202.961V764.624C202.961 764.837 202.972 764.987 202.993 765.072C203.02 765.152 203.071 765.205 203.145 765.232C203.225 765.253 203.367 765.264 203.569 765.264H203.841L203.753 766.08H203.041Z" fill="url(#paint3_linear)"/>
<path d="M192.514 738.195C193.709 739.489 194.406 741.182 194.505 742.925H195.999C195.9 740.784 195.053 738.693 193.609 737.099L192.514 738.195Z" fill="url(#paint4_linear)"/>
<path d="M179.865 750.144C181.508 751.787 183.699 752.783 186.04 752.883V751.389C184.396 751.289 182.803 750.692 181.558 749.646C181.01 749.845 180.463 749.995 179.865 750.144Z" fill="url(#paint5_linear)"/>
<path d="M187.035 751.338V752.832C189.176 752.732 191.268 751.886 192.861 750.442L191.815 749.396C190.471 750.541 188.778 751.239 187.035 751.338Z" fill="url(#paint6_linear)"/>
<path d="M192.514 748.7L193.559 749.746C195.003 748.153 195.85 746.061 195.949 743.92H194.456C194.356 745.663 193.659 747.356 192.514 748.7Z" fill="url(#paint7_linear)"/>
<path d="M182.852 745.911C181.508 747.106 179.865 747.754 178.072 747.903V749.397C180.213 749.297 182.305 748.451 183.898 747.007L182.852 745.911Z" fill="url(#paint8_linear)"/>
<path d="M186.987 739.438C186.887 737.297 186.04 735.205 184.596 733.612L183.551 734.658C184.746 736.002 185.393 737.645 185.543 739.438H186.987Z" fill="url(#paint9_linear)"/>
<path d="M177.078 732.019V730.525C174.937 730.625 172.845 731.471 171.252 732.915L172.298 733.961C173.642 732.816 175.335 732.119 177.078 732.019Z" fill="url(#paint10_linear)"/>
<path d="M178.072 732.019C179.815 732.119 181.508 732.816 182.852 734.011L183.898 732.965C182.305 731.471 180.213 730.625 178.072 730.525V732.019Z" fill="url(#paint11_linear)"/>
<path d="M169.658 739.438C169.757 737.695 170.455 736.002 171.65 734.658L170.604 733.612C169.11 735.205 168.264 737.297 168.164 739.438H169.658Z" fill="url(#paint12_linear)"/>
<path d="M192.861 736.403C191.118 734.809 188.877 733.963 186.537 733.963C186.437 733.963 186.288 733.963 186.139 733.963C186.487 734.461 186.786 734.959 186.985 735.457C188.728 735.556 190.421 736.253 191.765 737.448L192.861 736.403Z" fill="url(#paint13_linear)"/>
<path d="M190.571 742.127L188.779 743.322C188.53 743.472 188.231 743.422 188.082 743.173L188.032 743.123L187.683 742.376C187.484 743.422 187.036 744.468 186.488 745.414H190.024C190.073 744.318 190.273 743.223 190.571 742.127Z" fill="url(#paint14_linear)"/>
<path d="M184.595 746.261C186.039 744.668 186.886 742.577 186.986 740.436H185.492C185.392 742.178 184.695 743.871 183.5 745.216L184.595 746.261Z" fill="url(#paint15_linear)"/>
<path d="M171.252 746.957C172.845 748.401 174.937 749.248 177.078 749.347V747.854C175.335 747.754 173.642 747.057 172.298 745.862L171.252 746.957Z" fill="url(#paint16_linear)"/>
<path d="M179.417 739.939C179.267 739.889 179.168 739.789 179.118 739.64L177.574 736.204L176.031 739.64C175.931 739.889 175.632 739.988 175.383 739.889C175.334 739.889 175.334 739.839 175.334 739.839L173.541 738.644C173.89 739.69 174.039 740.785 174.089 741.93H181.06C181.11 740.835 181.309 739.739 181.608 738.644L179.815 739.839C179.715 739.939 179.566 739.939 179.417 739.939Z" fill="url(#paint17_linear)"/>
<path d="M177.575 732.966C173.741 732.966 170.604 736.103 170.604 739.937C170.604 743.772 173.741 746.909 177.575 746.909C181.409 746.909 184.546 743.772 184.546 739.937C184.546 736.103 181.409 732.966 177.575 732.966Z" fill="url(#paint18_linear)"/>
<path d="M169.658 740.436H168.164C168.264 742.577 169.11 744.668 170.554 746.261L171.6 745.216C170.455 743.871 169.757 742.178 169.658 740.436Z" fill="url(#paint19_linear)"/>
<path d="M187.433 736.501C187.483 736.7 187.533 736.849 187.583 737.048C188.081 738.891 189.126 745.165 182.504 749.099C185.641 751.289 189.973 750.543 192.214 747.406C193.06 746.211 193.459 744.816 193.459 743.372C193.508 739.937 190.919 736.999 187.433 736.501Z" fill="url(#paint20_linear)"/>
<rect x="120" y="799" width="135" height="5" rx="2.5" fill="#D6D9E4"/>
<path d="M16 114C16 108.477 20.4772 104 26 104H349C354.523 104 359 108.477 359 114V173C359 178.523 354.523 183 349 183H26C20.4772 183 16 178.523 16 173V114Z" fill="#44474C"/>
<rect x="26" y="135" width="323" height="38" rx="5.5" fill="white" fill-opacity="0.1"/>
<path d="M42.19 150.86H40.15V150H45.18V150.86H43.14V157H42.19V150.86ZM47.0924 156.78L45.0524 152.1H46.0524L47.5824 155.74L48.9624 152.1H49.9624L46.9624 159.42H45.9624L47.0924 156.78ZM53.6313 152C54.0646 152 54.4413 152.113 54.7613 152.34C55.0879 152.56 55.3379 152.863 55.5113 153.25C55.6846 153.637 55.7713 154.07 55.7713 154.55C55.7713 155.037 55.6879 155.473 55.5213 155.86C55.3613 156.24 55.1213 156.543 54.8013 156.77C54.4813 156.99 54.0913 157.1 53.6313 157.1C53.2913 157.1 52.9813 157.04 52.7013 156.92C52.4213 156.8 52.2013 156.627 52.0413 156.4V159.42H51.1413V152.1H51.8413L51.9413 152.78C52.3546 152.26 52.9179 152 53.6313 152ZM53.4613 156.3C53.8946 156.3 54.2346 156.147 54.4813 155.84C54.7279 155.527 54.8513 155.097 54.8513 154.55C54.8513 154.003 54.7279 153.577 54.4813 153.27C54.2346 152.957 53.8946 152.8 53.4613 152.8C53.0346 152.8 52.6813 152.95 52.4013 153.25C52.1279 153.55 51.9913 153.983 51.9913 154.55C51.9913 155.137 52.1279 155.577 52.4013 155.87C52.6746 156.157 53.0279 156.3 53.4613 156.3ZM59.5577 157.1C58.9977 157.1 58.5177 156.987 58.1177 156.76C57.7243 156.527 57.4243 156.213 57.2177 155.82C57.011 155.427 56.9077 154.99 56.9077 154.51C56.9077 154.05 57.001 153.63 57.1877 153.25C57.381 152.863 57.6577 152.56 58.0177 152.34C58.3843 152.113 58.8143 152 59.3077 152C59.9343 152 60.441 152.183 60.8277 152.55C61.221 152.917 61.4177 153.423 61.4177 154.07C61.4177 154.237 61.4043 154.397 61.3777 154.55H57.8277C57.8877 155.183 58.081 155.633 58.4077 155.9C58.7343 156.167 59.1543 156.3 59.6677 156.3C60.181 156.3 60.651 156.203 61.0777 156.01L61.1977 156.72C60.631 156.973 60.0843 157.1 59.5577 157.1ZM60.4877 153.93C60.4877 153.577 60.3877 153.3 60.1877 153.1C59.9877 152.9 59.6877 152.8 59.2877 152.8C58.901 152.8 58.5977 152.897 58.3777 153.09C58.1577 153.277 58.001 153.557 57.9077 153.93H60.4877ZM67.9109 152C68.5309 152 69.0043 152.203 69.3309 152.61C69.6576 153.017 69.8209 153.57 69.8209 154.27V157H68.9209V154.38C68.9209 153.84 68.8209 153.443 68.6209 153.19C68.4276 152.93 68.1243 152.8 67.7109 152.8C67.4576 152.8 67.2243 152.86 67.0109 152.98C66.7976 153.093 66.6176 153.257 66.4709 153.47V157H65.5609V149.5H66.4709V152.57C66.6643 152.383 66.8743 152.243 67.1009 152.15C67.3343 152.05 67.6043 152 67.9109 152ZM73.8409 157.1C73.2809 157.1 72.8009 156.987 72.4009 156.76C72.0075 156.527 71.7075 156.213 71.5009 155.82C71.2942 155.427 71.1909 154.99 71.1909 154.51C71.1909 154.05 71.2842 153.63 71.4709 153.25C71.6642 152.863 71.9409 152.56 72.3009 152.34C72.6675 152.113 73.0975 152 73.5909 152C74.2175 152 74.7242 152.183 75.1109 152.55C75.5042 152.917 75.7009 153.423 75.7009 154.07C75.7009 154.237 75.6875 154.397 75.6609 154.55H72.1109C72.1709 155.183 72.3642 155.633 72.6909 155.9C73.0175 156.167 73.4375 156.3 73.9509 156.3C74.4642 156.3 74.9342 156.203 75.3609 156.01L75.4809 156.72C74.9142 156.973 74.3675 157.1 73.8409 157.1ZM74.7709 153.93C74.7709 153.577 74.6709 153.3 74.4709 153.1C74.2709 152.9 73.9709 152.8 73.5709 152.8C73.1842 152.8 72.8809 152.897 72.6609 153.09C72.4409 153.277 72.2842 153.557 72.1909 153.93H74.7709ZM77.108 152.1H77.848L77.958 152.91C78.2114 152.597 78.4514 152.367 78.678 152.22C78.9114 152.073 79.1547 152 79.408 152C79.488 152 79.5647 152.01 79.638 152.03L79.548 153.02C79.4614 153 79.3614 152.99 79.248 152.99C79.0014 152.99 78.768 153.047 78.548 153.16C78.328 153.267 78.168 153.393 78.068 153.54V157H77.108V152.1ZM82.9952 157.1C82.4352 157.1 81.9552 156.987 81.5552 156.76C81.1618 156.527 80.8618 156.213 80.6552 155.82C80.4485 155.427 80.3452 154.99 80.3452 154.51C80.3452 154.05 80.4385 153.63 80.6252 153.25C80.8185 152.863 81.0952 152.56 81.4552 152.34C81.8218 152.113 82.2518 152 82.7452 152C83.3718 152 83.8785 152.183 84.2652 152.55C84.6585 152.917 84.8552 153.423 84.8552 154.07C84.8552 154.237 84.8418 154.397 84.8152 154.55H81.2652C81.3252 155.183 81.5185 155.633 81.8452 155.9C82.1718 156.167 82.5918 156.3 83.1052 156.3C83.6185 156.3 84.0885 156.203 84.5152 156.01L84.6352 156.72C84.0685 156.973 83.5218 157.1 82.9952 157.1ZM83.9252 153.93C83.9252 153.577 83.8252 153.3 83.6252 153.1C83.4252 152.9 83.1252 152.8 82.7252 152.8C82.3385 152.8 82.0352 152.897 81.8152 153.09C81.5952 153.277 81.4385 153.557 81.3452 153.93H83.9252Z" fill="#969696" fill-opacity="0.7"/>
<path d="M29.94 124.14C29.2333 124.14 28.6067 123.99 28.06 123.69C27.52 123.39 27.1 122.967 26.8 122.42C26.5 121.867 26.35 121.227 26.35 120.5C26.35 119.78 26.5033 119.147 26.81 118.6C27.1233 118.047 27.5533 117.62 28.1 117.32C28.6533 117.013 29.28 116.86 29.98 116.86C30.6533 116.86 31.2567 116.997 31.79 117.27L31.65 118.49C31.3633 118.363 31.0867 118.267 30.82 118.2C30.56 118.127 30.2767 118.09 29.97 118.09C29.2567 118.09 28.7067 118.31 28.32 118.75C27.94 119.19 27.75 119.773 27.75 120.5C27.75 121.227 27.9367 121.81 28.31 122.25C28.69 122.69 29.2333 122.91 29.94 122.91C30.2533 122.91 30.54 122.877 30.8 122.81C31.0667 122.743 31.35 122.643 31.65 122.51L31.79 123.73C31.21 124.003 30.5933 124.14 29.94 124.14ZM35.6938 118.92C36.3271 118.92 36.7971 119.127 37.1038 119.54C37.4171 119.947 37.5738 120.507 37.5738 121.22V124H36.3338V121.31C36.3338 120.837 36.2571 120.49 36.1038 120.27C35.9504 120.05 35.7071 119.94 35.3738 119.94C34.9804 119.94 34.6571 120.083 34.4038 120.37V124H33.1638V116.5H34.4038V119.32C34.6038 119.193 34.8071 119.097 35.0138 119.03C35.2204 118.957 35.4471 118.92 35.6938 118.92ZM41.5916 124.1C41.0116 124.1 40.5149 123.983 40.1016 123.75C39.6949 123.51 39.3882 123.193 39.1816 122.8C38.9816 122.4 38.8816 121.957 38.8816 121.47C38.8816 121.003 38.9782 120.577 39.1716 120.19C39.3649 119.803 39.6449 119.497 40.0116 119.27C40.3782 119.037 40.8149 118.92 41.3216 118.92C41.7882 118.92 42.1816 119.017 42.5016 119.21C42.8282 119.403 43.0716 119.663 43.2316 119.99C43.3982 120.317 43.4816 120.683 43.4816 121.09C43.4816 121.29 43.4549 121.517 43.4016 121.77H40.1716C40.2382 122.21 40.4116 122.54 40.6916 122.76C40.9716 122.973 41.3082 123.08 41.7016 123.08C42.2416 123.08 42.7416 122.943 43.2016 122.67L43.2616 123.72C43.0482 123.833 42.7982 123.927 42.5116 124C42.2316 124.067 41.9249 124.1 41.5916 124.1ZM42.2216 120.93C42.2216 120.67 42.1482 120.44 42.0016 120.24C41.8549 120.04 41.6282 119.94 41.3216 119.94C41.0149 119.94 40.7682 120.03 40.5816 120.21C40.3949 120.39 40.2682 120.63 40.2016 120.93H42.2216ZM47.348 118.92C47.968 118.92 48.438 119.127 48.758 119.54C49.078 119.953 49.238 120.51 49.238 121.21V124H47.998V121.31C47.998 120.843 47.918 120.5 47.758 120.28C47.6047 120.053 47.3547 119.94 47.008 119.94C46.628 119.94 46.3147 120.083 46.068 120.37V124H44.828V119H45.988L46.008 119.35C46.428 119.063 46.8747 118.92 47.348 118.92ZM53.3656 118.92C53.9856 118.92 54.4556 119.127 54.7756 119.54C55.0956 119.953 55.2556 120.51 55.2556 121.21V124H54.0156V121.31C54.0156 120.843 53.9356 120.5 53.7756 120.28C53.6223 120.053 53.3723 119.94 53.0256 119.94C52.6456 119.94 52.3323 120.083 52.0856 120.37V124H50.8456V119H52.0056L52.0256 119.35C52.4456 119.063 52.8923 118.92 53.3656 118.92ZM59.2732 124.1C58.6932 124.1 58.1965 123.983 57.7832 123.75C57.3765 123.51 57.0699 123.193 56.8632 122.8C56.6632 122.4 56.5632 121.957 56.5632 121.47C56.5632 121.003 56.6599 120.577 56.8532 120.19C57.0465 119.803 57.3265 119.497 57.6932 119.27C58.0599 119.037 58.4965 118.92 59.0032 118.92C59.4699 118.92 59.8632 119.017 60.1832 119.21C60.5099 119.403 60.7532 119.663 60.9132 119.99C61.0799 120.317 61.1632 120.683 61.1632 121.09C61.1632 121.29 61.1365 121.517 61.0832 121.77H57.8532C57.9199 122.21 58.0932 122.54 58.3732 122.76C58.6532 122.973 58.9899 123.08 59.3832 123.08C59.9232 123.08 60.4232 122.943 60.8832 122.67L60.9432 123.72C60.7299 123.833 60.4799 123.927 60.1932 124C59.9132 124.067 59.6065 124.1 59.2732 124.1ZM59.9032 120.93C59.9032 120.67 59.8299 120.44 59.6832 120.24C59.5365 120.04 59.3099 119.94 59.0032 119.94C58.6965 119.94 58.4499 120.03 58.2632 120.21C58.0765 120.39 57.9499 120.63 57.8832 120.93H59.9032ZM63.7897 124.1C63.363 124.1 63.043 123.98 62.8297 123.74C62.6164 123.493 62.5097 123.177 62.5097 122.79V116.5H63.7497V122.28C63.7497 122.547 63.763 122.737 63.7897 122.85C63.823 122.957 63.8764 123.023 63.9497 123.05C64.0297 123.07 64.163 123.08 64.3497 123.08L64.2397 124.1H63.7897ZM70.9027 118.92C71.5227 118.92 71.9927 119.127 72.3127 119.54C72.6327 119.953 72.7927 120.51 72.7927 121.21V124H71.5527V121.31C71.5527 120.843 71.4727 120.5 71.3127 120.28C71.1594 120.053 70.9094 119.94 70.5627 119.94C70.1827 119.94 69.8694 120.083 69.6227 120.37V124H68.3827V119H69.5427L69.5627 119.35C69.9827 119.063 70.4294 118.92 70.9027 118.92ZM75.4803 124.1C75.067 124.1 74.7203 123.967 74.4403 123.7C74.167 123.427 74.0303 123.06 74.0303 122.6C74.0303 122.167 74.187 121.82 74.5003 121.56C74.8136 121.293 75.1836 121.107 75.6103 121C76.037 120.887 76.447 120.823 76.8403 120.81C76.827 120.517 76.7503 120.307 76.6103 120.18C76.477 120.053 76.2536 119.99 75.9403 119.99C75.7203 119.99 75.5036 120.02 75.2903 120.08C75.0836 120.14 74.8436 120.237 74.5703 120.37L74.4603 119.36C75.067 119.067 75.6736 118.92 76.2803 118.92C76.867 118.92 77.3136 119.08 77.6203 119.4C77.9336 119.72 78.0903 120.23 78.0903 120.93V122.28C78.0903 122.533 78.1003 122.717 78.1203 122.83C78.147 122.937 78.187 123.007 78.2403 123.04C78.3003 123.067 78.397 123.08 78.5303 123.08H78.6903L78.5803 124.1H78.1303C77.857 124.1 77.627 124.05 77.4403 123.95C77.2536 123.843 77.1103 123.7 77.0103 123.52C76.8503 123.7 76.6303 123.843 76.3503 123.95C76.077 124.05 75.787 124.1 75.4803 124.1ZM76.0003 123.15C76.127 123.15 76.2703 123.12 76.4303 123.06C76.5903 122.993 76.7303 122.903 76.8503 122.79V121.65C76.4503 121.67 76.097 121.757 75.7903 121.91C75.4836 122.063 75.3303 122.277 75.3303 122.55C75.3303 122.757 75.3836 122.91 75.4903 123.01C75.597 123.103 75.767 123.15 76.0003 123.15ZM85.4908 118.92C86.1574 118.92 86.6508 119.123 86.9708 119.53C87.2974 119.93 87.4608 120.493 87.4608 121.22V124H86.2208V121.31C86.2208 120.837 86.1474 120.49 86.0008 120.27C85.8541 120.05 85.6141 119.94 85.2808 119.94C84.9541 119.94 84.7074 120.053 84.5408 120.28C84.3741 120.5 84.2908 120.813 84.2908 121.22V124H83.0508V121.31C83.0508 120.837 82.9741 120.49 82.8208 120.27C82.6674 120.05 82.4241 119.94 82.0908 119.94C81.6974 119.94 81.3741 120.083 81.1208 120.37V124H79.8808V119H80.9408L80.9808 119.4C81.4341 119.08 81.9241 118.92 82.4508 118.92C83.0908 118.92 83.5674 119.15 83.8808 119.61C84.0541 119.39 84.2808 119.22 84.5608 119.1C84.8408 118.98 85.1508 118.92 85.4908 118.92ZM91.4822 124.1C90.9022 124.1 90.4055 123.983 89.9922 123.75C89.5855 123.51 89.2789 123.193 89.0722 122.8C88.8722 122.4 88.7722 121.957 88.7722 121.47C88.7722 121.003 88.8689 120.577 89.0622 120.19C89.2555 119.803 89.5355 119.497 89.9022 119.27C90.2689 119.037 90.7055 118.92 91.2122 118.92C91.6789 118.92 92.0722 119.017 92.3922 119.21C92.7189 119.403 92.9622 119.663 93.1222 119.99C93.2889 120.317 93.3722 120.683 93.3722 121.09C93.3722 121.29 93.3455 121.517 93.2922 121.77H90.0622C90.1289 122.21 90.3022 122.54 90.5822 122.76C90.8622 122.973 91.1989 123.08 91.5922 123.08C92.1322 123.08 92.6322 122.943 93.0922 122.67L93.1522 123.72C92.9389 123.833 92.6889 123.927 92.4022 124C92.1222 124.067 91.8155 124.1 91.4822 124.1ZM92.1122 120.93C92.1122 120.67 92.0389 120.44 91.8922 120.24C91.7455 120.04 91.5189 119.94 91.2122 119.94C90.9055 119.94 90.6589 120.03 90.4722 120.21C90.2855 120.39 90.1589 120.63 90.0922 120.93H92.1122Z" fill="white"/>
<path d="M28 59.4675L20.583 67.5L28 75.5325L25.7166 78L16 67.5L25.7166 57L28 59.4675Z" fill="white"/>
<g filter="url(#filter1_d)">
<rect x="16" y="195" width="343" height="52" rx="10" fill="url(#paint21_linear)"/>
</g>
<path d="M169.092 227.252C167.82 227.252 166.692 226.982 165.708 226.442C164.736 225.902 163.98 225.14 163.44 224.156C162.9 223.16 162.63 222.008 162.63 220.7C162.63 219.404 162.906 218.264 163.458 217.28C164.022 216.284 164.796 215.516 165.78 214.976C166.776 214.424 167.904 214.148 169.164 214.148C170.376 214.148 171.462 214.394 172.422 214.886L172.17 217.082C171.654 216.854 171.156 216.68 170.676 216.56C170.208 216.428 169.698 216.362 169.146 216.362C167.862 216.362 166.872 216.758 166.176 217.55C165.492 218.342 165.15 219.392 165.15 220.7C165.15 222.008 165.486 223.058 166.158 223.85C166.842 224.642 167.82 225.038 169.092 225.038C169.656 225.038 170.172 224.978 170.64 224.858C171.12 224.738 171.63 224.558 172.17 224.318L172.422 226.514C171.378 227.006 170.268 227.252 169.092 227.252ZM174.013 218H176.101L176.155 218.954C176.419 218.654 176.755 218.39 177.163 218.162C177.583 217.934 178.021 217.82 178.477 217.82C178.621 217.82 178.753 217.832 178.873 217.856L178.711 220.052C178.483 219.992 178.225 219.962 177.937 219.962C177.565 219.962 177.223 220.052 176.911 220.232C176.599 220.4 176.377 220.61 176.245 220.862V227H174.013V218ZM184.134 227.18C183.09 227.18 182.196 226.97 181.452 226.55C180.72 226.118 180.168 225.548 179.796 224.84C179.436 224.12 179.256 223.322 179.256 222.446C179.256 221.606 179.43 220.838 179.778 220.142C180.126 219.446 180.63 218.894 181.29 218.486C181.95 218.066 182.736 217.856 183.648 217.856C184.488 217.856 185.196 218.03 185.772 218.378C186.36 218.726 186.798 219.194 187.086 219.782C187.386 220.37 187.536 221.03 187.536 221.762C187.536 222.122 187.488 222.53 187.392 222.986H181.578C181.698 223.778 182.01 224.372 182.514 224.768C183.018 225.152 183.624 225.344 184.332 225.344C185.304 225.344 186.204 225.098 187.032 224.606L187.14 226.496C186.756 226.7 186.306 226.868 185.79 227C185.286 227.12 184.734 227.18 184.134 227.18ZM185.268 221.474C185.268 221.006 185.136 220.592 184.872 220.232C184.608 219.872 184.2 219.692 183.648 219.692C183.096 219.692 182.652 219.854 182.316 220.178C181.98 220.502 181.752 220.934 181.632 221.474H185.268ZM191.004 227.18C190.26 227.18 189.636 226.94 189.132 226.46C188.64 225.968 188.394 225.308 188.394 224.48C188.394 223.7 188.676 223.076 189.24 222.608C189.804 222.128 190.47 221.792 191.238 221.6C192.006 221.396 192.744 221.282 193.452 221.258C193.428 220.73 193.29 220.352 193.038 220.124C192.798 219.896 192.396 219.782 191.832 219.782C191.436 219.782 191.046 219.836 190.662 219.944C190.29 220.052 189.858 220.226 189.366 220.466L189.168 218.648C190.26 218.12 191.352 217.856 192.444 217.856C193.5 217.856 194.304 218.144 194.856 218.72C195.42 219.296 195.702 220.214 195.702 221.474V223.904C195.702 224.36 195.72 224.69 195.756 224.894C195.804 225.086 195.876 225.212 195.972 225.272C196.08 225.32 196.254 225.344 196.494 225.344H196.782L196.584 227.18H195.774C195.282 227.18 194.868 227.09 194.532 226.91C194.196 226.718 193.938 226.46 193.758 226.136C193.47 226.46 193.074 226.718 192.57 226.91C192.078 227.09 191.556 227.18 191.004 227.18ZM191.94 225.47C192.168 225.47 192.426 225.416 192.714 225.308C193.002 225.188 193.254 225.026 193.47 224.822V222.77C192.75 222.806 192.114 222.962 191.562 223.238C191.01 223.514 190.734 223.898 190.734 224.39C190.734 224.762 190.83 225.038 191.022 225.218C191.214 225.386 191.52 225.47 191.94 225.47ZM200.818 227.18C200.026 227.18 199.426 226.952 199.018 226.496C198.61 226.028 198.406 225.47 198.406 224.822V219.836H197.128L197.326 218H198.406V216.02L200.638 215.786V218H202.618V219.836H200.638V223.904C200.638 224.384 200.662 224.72 200.71 224.912C200.77 225.092 200.884 225.212 201.052 225.272C201.232 225.32 201.55 225.344 202.006 225.344H202.618L202.42 227.18H200.818ZM208.409 227.18C207.365 227.18 206.471 226.97 205.727 226.55C204.995 226.118 204.443 225.548 204.071 224.84C203.711 224.12 203.531 223.322 203.531 222.446C203.531 221.606 203.705 220.838 204.053 220.142C204.401 219.446 204.905 218.894 205.565 218.486C206.225 218.066 207.011 217.856 207.923 217.856C208.763 217.856 209.471 218.03 210.047 218.378C210.635 218.726 211.073 219.194 211.361 219.782C211.661 220.37 211.811 221.03 211.811 221.762C211.811 222.122 211.763 222.53 211.667 222.986H205.853C205.973 223.778 206.285 224.372 206.789 224.768C207.293 225.152 207.899 225.344 208.607 225.344C209.579 225.344 210.479 225.098 211.307 224.606L211.415 226.496C211.031 226.7 210.581 226.868 210.065 227C209.561 227.12 209.009 227.18 208.409 227.18ZM209.543 221.474C209.543 221.006 209.411 220.592 209.147 220.232C208.883 219.872 208.475 219.692 207.923 219.692C207.371 219.692 206.927 219.854 206.591 220.178C206.255 220.502 206.027 220.934 205.907 221.474H209.543Z" fill="white"/>
<g filter="url(#filter2_b)">
<rect width="375" height="812" fill="black" fill-opacity="0.6"/>
</g>
<path d="M159.516 444.196C158.527 444.196 157.649 443.986 156.884 443.566C156.128 443.146 155.54 442.553 155.12 441.788C154.7 441.013 154.49 440.117 154.49 439.1C154.49 438.092 154.705 437.205 155.134 436.44C155.573 435.665 156.175 435.068 156.94 434.648C157.715 434.219 158.592 434.004 159.572 434.004C160.515 434.004 161.359 434.195 162.106 434.578L161.91 436.286C161.509 436.109 161.121 435.973 160.748 435.88C160.384 435.777 159.987 435.726 159.558 435.726C158.559 435.726 157.789 436.034 157.248 436.65C156.716 437.266 156.45 438.083 156.45 439.1C156.45 440.117 156.711 440.934 157.234 441.55C157.766 442.166 158.527 442.474 159.516 442.474C159.955 442.474 160.356 442.427 160.72 442.334C161.093 442.241 161.49 442.101 161.91 441.914L162.106 443.622C161.294 444.005 160.431 444.196 159.516 444.196ZM166.385 444.14C165.647 444.14 165.008 443.977 164.467 443.65C163.925 443.323 163.51 442.885 163.221 442.334C162.931 441.783 162.787 441.177 162.787 440.514C162.787 439.851 162.931 439.24 163.221 438.68C163.51 438.12 163.925 437.677 164.467 437.35C165.008 437.023 165.647 436.86 166.385 436.86C167.122 436.86 167.761 437.023 168.303 437.35C168.844 437.677 169.259 438.12 169.549 438.68C169.838 439.24 169.983 439.851 169.983 440.514C169.983 441.177 169.838 441.783 169.549 442.334C169.259 442.885 168.844 443.323 168.303 443.65C167.761 443.977 167.122 444.14 166.385 444.14ZM166.385 442.712C166.954 442.712 167.397 442.511 167.715 442.11C168.041 441.709 168.205 441.177 168.205 440.514C168.205 439.842 168.041 439.305 167.715 438.904C167.397 438.493 166.954 438.288 166.385 438.288C165.815 438.288 165.367 438.493 165.041 438.904C164.723 439.305 164.565 439.842 164.565 440.514C164.565 441.177 164.723 441.709 165.041 442.11C165.367 442.511 165.815 442.712 166.385 442.712ZM179.045 436.888C179.978 436.888 180.669 437.173 181.117 437.742C181.574 438.302 181.803 439.091 181.803 440.108V444H180.067V440.234C180.067 439.571 179.964 439.086 179.759 438.778C179.554 438.47 179.218 438.316 178.751 438.316C178.294 438.316 177.948 438.475 177.715 438.792C177.482 439.1 177.365 439.539 177.365 440.108V444H175.629V440.234C175.629 439.571 175.522 439.086 175.307 438.778C175.092 438.47 174.752 438.316 174.285 438.316C173.734 438.316 173.282 438.517 172.927 438.918V444H171.191V437H172.675L172.731 437.56C173.366 437.112 174.052 436.888 174.789 436.888C175.685 436.888 176.352 437.21 176.791 437.854C177.034 437.546 177.351 437.308 177.743 437.14C178.135 436.972 178.569 436.888 179.045 436.888ZM187.013 436.888C187.676 436.888 188.245 437.051 188.721 437.378C189.197 437.705 189.556 438.143 189.799 438.694C190.042 439.245 190.163 439.851 190.163 440.514C190.163 441.177 190.042 441.783 189.799 442.334C189.556 442.885 189.197 443.323 188.721 443.65C188.245 443.977 187.676 444.14 187.013 444.14C186.593 444.14 186.234 444.093 185.935 444C185.646 443.916 185.366 443.776 185.095 443.58V447.388H183.359V437H184.759L184.941 437.644C185.24 437.392 185.552 437.205 185.879 437.084C186.206 436.953 186.584 436.888 187.013 436.888ZM186.747 442.712C187.26 442.712 187.662 442.511 187.951 442.11C188.24 441.709 188.385 441.177 188.385 440.514C188.385 439.851 188.24 439.319 187.951 438.918C187.662 438.517 187.26 438.316 186.747 438.316C186.168 438.316 185.734 438.512 185.445 438.904C185.156 439.296 185.011 439.833 185.011 440.514C185.011 441.195 185.156 441.732 185.445 442.124C185.734 442.516 186.168 442.712 186.747 442.712ZM193.163 444.14C192.565 444.14 192.117 443.972 191.819 443.636C191.52 443.291 191.371 442.847 191.371 442.306V433.5H193.107V441.592C193.107 441.965 193.125 442.231 193.163 442.39C193.209 442.539 193.284 442.633 193.387 442.67C193.499 442.698 193.685 442.712 193.947 442.712L193.793 444.14H193.163ZM198.354 444.14C197.542 444.14 196.847 443.977 196.268 443.65C195.699 443.314 195.269 442.871 194.98 442.32C194.7 441.76 194.56 441.139 194.56 440.458C194.56 439.805 194.695 439.207 194.966 438.666C195.237 438.125 195.629 437.695 196.142 437.378C196.655 437.051 197.267 436.888 197.976 436.888C198.629 436.888 199.18 437.023 199.628 437.294C200.085 437.565 200.426 437.929 200.65 438.386C200.883 438.843 201 439.357 201 439.926C201 440.206 200.963 440.523 200.888 440.878H196.366C196.459 441.494 196.702 441.956 197.094 442.264C197.486 442.563 197.957 442.712 198.508 442.712C199.264 442.712 199.964 442.521 200.608 442.138L200.692 443.608C200.393 443.767 200.043 443.897 199.642 444C199.25 444.093 198.821 444.14 198.354 444.14ZM199.236 439.702C199.236 439.338 199.133 439.016 198.928 438.736C198.723 438.456 198.405 438.316 197.976 438.316C197.547 438.316 197.201 438.442 196.94 438.694C196.679 438.946 196.501 439.282 196.408 439.702H199.236ZM204.467 444.14C203.851 444.14 203.384 443.963 203.067 443.608C202.75 443.244 202.591 442.81 202.591 442.306V438.428H201.597L201.751 437H202.591V435.46L204.327 435.278V437H205.867V438.428H204.327V441.592C204.327 441.965 204.346 442.227 204.383 442.376C204.43 442.516 204.518 442.609 204.649 442.656C204.789 442.693 205.036 442.712 205.391 442.712H205.867L205.713 444.14H204.467ZM210.372 444.14C209.56 444.14 208.864 443.977 208.286 443.65C207.716 443.314 207.287 442.871 206.998 442.32C206.718 441.76 206.578 441.139 206.578 440.458C206.578 439.805 206.713 439.207 206.984 438.666C207.254 438.125 207.646 437.695 208.16 437.378C208.673 437.051 209.284 436.888 209.994 436.888C210.647 436.888 211.198 437.023 211.646 437.294C212.103 437.565 212.444 437.929 212.668 438.386C212.901 438.843 213.018 439.357 213.018 439.926C213.018 440.206 212.98 440.523 212.906 440.878H208.384C208.477 441.494 208.72 441.956 209.112 442.264C209.504 442.563 209.975 442.712 210.526 442.712C211.282 442.712 211.982 442.521 212.626 442.138L212.71 443.608C212.411 443.767 212.061 443.897 211.66 444C211.268 444.093 210.838 444.14 210.372 444.14ZM211.254 439.702C211.254 439.338 211.151 439.016 210.946 438.736C210.74 438.456 210.423 438.316 209.994 438.316C209.564 438.316 209.219 438.442 208.958 438.694C208.696 438.946 208.519 439.282 208.426 439.702H211.254ZM220.587 433.5V444H218.949L218.921 443.552C218.65 443.748 218.365 443.897 218.067 444C217.777 444.093 217.432 444.14 217.031 444.14C216.349 444.14 215.761 443.977 215.267 443.65C214.781 443.323 214.413 442.885 214.161 442.334C213.909 441.783 213.783 441.177 213.783 440.514C213.783 439.851 213.909 439.245 214.161 438.694C214.413 438.143 214.781 437.705 215.267 437.378C215.761 437.051 216.349 436.888 217.031 436.888C217.712 436.888 218.319 437.075 218.851 437.448V433.5H220.587ZM217.283 442.712C217.833 442.712 218.244 442.516 218.515 442.124C218.795 441.732 218.935 441.195 218.935 440.514C218.935 439.833 218.795 439.296 218.515 438.904C218.244 438.512 217.833 438.316 217.283 438.316C216.741 438.316 216.317 438.517 216.009 438.918C215.71 439.319 215.561 439.851 215.561 440.514C215.561 441.177 215.71 441.709 216.009 442.11C216.317 442.511 216.741 442.712 217.283 442.712Z" fill="white"/>
<path d="M213.5 391C213.5 405.083 202.083 416.5 188 416.5C173.917 416.5 162.5 405.083 162.5 391C162.5 376.917 173.917 365.5 188 365.5C202.083 365.5 213.5 376.917 213.5 391Z" stroke="url(#paint22_linear)"/>
<path d="M188 415.5C201.531 415.5 212.5 404.531 212.5 391C212.5 377.469 201.531 366.5 188 366.5C174.469 366.5 163.5 377.469 163.5 391C163.5 404.531 174.469 415.5 188 415.5Z" stroke="url(#paint23_linear)" stroke-width="3"/>
<path d="M181.644 399.164L181.997 399.517L182.35 399.164L202.83 378.707L204.897 380.774L182 403.677L171.708 393.385L173.789 391.316L181.644 399.164Z" fill="url(#paint24_linear)" stroke="url(#paint25_linear)"/>
<defs>
<filter id="filter0_d" x="-20" y="698" width="415" height="133" filterUnits="userSpaceOnUse" color-interpolation-filters="sRGB">
<feFlood flood-opacity="0" result="BackgroundImageFix"/>
<feColorMatrix in="SourceAlpha" type="matrix" values="0 0 0 0 0 0 0 0 0 0 0 0 0 0 0 0 0 0 127 0"/>
<feOffset dy="-1"/>
<feGaussianBlur stdDeviation="10"/>
<feColorMatrix type="matrix" values="0 0 0 0 0 0 0 0 0 0 0 0 0 0 0 0 0 0 0.1 0"/>
<feBlend mode="normal" in2="BackgroundImageFix" result="effect1_dropShadow"/>
<feBlend mode="normal" in="SourceGraphic" in2="effect1_dropShadow" result="shape"/>
</filter>
<filter id="filter1_d" x="8" y="191" width="359" height="68" filterUnits="userSpaceOnUse" color-interpolation-filters="sRGB">
<feFlood flood-opacity="0" result="BackgroundImageFix"/>
<feColorMatrix in="SourceAlpha" type="matrix" values="0 0 0 0 0 0 0 0 0 0 0 0 0 0 0 0 0 0 127 0"/>
<feOffset dy="4"/>
<feGaussianBlur stdDeviation="4"/>
<feColorMatrix type="matrix" values="0 0 0 0 0.886275 0 0 0 0 0.509804 0 0 0 0 0.529412 0 0 0 0.26 0"/>
<feBlend mode="normal" in2="BackgroundImageFix" result="effect1_dropShadow"/>
<feBlend mode="normal" in="SourceGraphic" in2="effect1_dropShadow" result="shape"/>
</filter>
<filter id="filter2_b" x="-4" y="-4" width="383" height="820" filterUnits="userSpaceOnUse" color-interpolation-filters="sRGB">
<feFlood flood-opacity="0" result="BackgroundImageFix"/>
<feGaussianBlur in="BackgroundImage" stdDeviation="2"/>
<feComposite in2="SourceAlpha" operator="in" result="effect1_backgroundBlur"/>
<feBlend mode="normal" in="SourceGraphic" in2="effect1_backgroundBlur" result="shape"/>
</filter>
<linearGradient id="paint0_linear" x1="302" y1="61" x2="302" y2="75" gradientUnits="userSpaceOnUse">
<stop stop-color="#926CB3"/>
<stop offset="1" stop-color="#E18B8B"/>
</linearGradient>
<linearGradient id="paint1_linear" x1="313.5" y1="47" x2="313.5" y2="72" gradientUnits="userSpaceOnUse">
<stop stop-color="#926CB3"/>
<stop offset="1" stop-color="#E18B8B"/>
</linearGradient>
<linearGradient id="paint2_linear" x1="313.5" y1="52" x2="313.5" y2="67" gradientUnits="userSpaceOnUse">
<stop stop-color="#926CB3"/>
<stop offset="1" stop-color="#E18B8B"/>
</linearGradient>
<linearGradient id="paint3_linear" x1="182" y1="758" x2="182" y2="768" gradientUnits="userSpaceOnUse">
<stop stop-color="#926CB3"/>
<stop offset="1" stop-color="#E18B8B"/>
</linearGradient>
<linearGradient id="paint4_linear" x1="194.256" y1="737.099" x2="194.256" y2="742.925" gradientUnits="userSpaceOnUse">
<stop stop-color="#926CB3"/>
<stop offset="1" stop-color="#E18B8B"/>
</linearGradient>
<linearGradient id="paint5_linear" x1="182.952" y1="749.646" x2="182.952" y2="752.883" gradientUnits="userSpaceOnUse">
<stop stop-color="#926CB3"/>
<stop offset="1" stop-color="#E18B8B"/>
</linearGradient>
<linearGradient id="paint6_linear" x1="189.948" y1="749.396" x2="189.948" y2="752.832" gradientUnits="userSpaceOnUse">
<stop stop-color="#926CB3"/>
<stop offset="1" stop-color="#E18B8B"/>
</linearGradient>
<linearGradient id="paint7_linear" x1="194.232" y1="743.92" x2="194.232" y2="749.746" gradientUnits="userSpaceOnUse">
<stop stop-color="#926CB3"/>
<stop offset="1" stop-color="#E18B8B"/>
</linearGradient>
<linearGradient id="paint8_linear" x1="180.985" y1="745.911" x2="180.985" y2="749.397" gradientUnits="userSpaceOnUse">
<stop stop-color="#926CB3"/>
<stop offset="1" stop-color="#E18B8B"/>
</linearGradient>
<linearGradient id="paint9_linear" x1="185.269" y1="733.612" x2="185.269" y2="739.438" gradientUnits="userSpaceOnUse">
<stop stop-color="#926CB3"/>
<stop offset="1" stop-color="#E18B8B"/>
</linearGradient>
<linearGradient id="paint10_linear" x1="174.165" y1="730.525" x2="174.165" y2="733.961" gradientUnits="userSpaceOnUse">
<stop stop-color="#926CB3"/>
<stop offset="1" stop-color="#E18B8B"/>
</linearGradient>
<linearGradient id="paint11_linear" x1="180.985" y1="730.525" x2="180.985" y2="734.011" gradientUnits="userSpaceOnUse">
<stop stop-color="#926CB3"/>
<stop offset="1" stop-color="#E18B8B"/>
</linearGradient>
<linearGradient id="paint12_linear" x1="169.907" y1="733.612" x2="169.907" y2="739.438" gradientUnits="userSpaceOnUse">
<stop stop-color="#926CB3"/>
<stop offset="1" stop-color="#E18B8B"/>
</linearGradient>
<linearGradient id="paint13_linear" x1="189.5" y1="733.963" x2="189.5" y2="737.448" gradientUnits="userSpaceOnUse">
<stop stop-color="#926CB3"/>
<stop offset="1" stop-color="#E18B8B"/>
</linearGradient>
<linearGradient id="paint14_linear" x1="188.53" y1="742.127" x2="188.53" y2="745.414" gradientUnits="userSpaceOnUse">
<stop stop-color="#926CB3"/>
<stop offset="1" stop-color="#E18B8B"/>
</linearGradient>
<linearGradient id="paint15_linear" x1="185.243" y1="740.436" x2="185.243" y2="746.261" gradientUnits="userSpaceOnUse">
<stop stop-color="#926CB3"/>
<stop offset="1" stop-color="#E18B8B"/>
</linearGradient>
<linearGradient id="paint16_linear" x1="174.165" y1="745.862" x2="174.165" y2="749.347" gradientUnits="userSpaceOnUse">
<stop stop-color="#926CB3"/>
<stop offset="1" stop-color="#E18B8B"/>
</linearGradient>
<linearGradient id="paint17_linear" x1="177.574" y1="736.204" x2="177.574" y2="741.93" gradientUnits="userSpaceOnUse">
<stop stop-color="#926CB3"/>
<stop offset="1" stop-color="#E18B8B"/>
</linearGradient>
<linearGradient id="paint18_linear" x1="177.575" y1="732.966" x2="177.575" y2="746.909" gradientUnits="userSpaceOnUse">
<stop stop-color="#926CB3"/>
<stop offset="1" stop-color="#E18B8B"/>
</linearGradient>
<linearGradient id="paint19_linear" x1="169.882" y1="740.436" x2="169.882" y2="746.261" gradientUnits="userSpaceOnUse">
<stop stop-color="#926CB3"/>
<stop offset="1" stop-color="#E18B8B"/>
</linearGradient>
<linearGradient id="paint20_linear" x1="187.982" y1="736.501" x2="187.982" y2="750.354" gradientUnits="userSpaceOnUse">
<stop stop-color="#926CB3"/>
<stop offset="1" stop-color="#E18B8B"/>
</linearGradient>
<linearGradient id="paint21_linear" x1="187.5" y1="195" x2="187.5" y2="247" gradientUnits="userSpaceOnUse">
<stop stop-color="#926CB3"/>
<stop offset="1" stop-color="#E18B8B"/>
</linearGradient>
<linearGradient id="paint22_linear" x1="188" y1="365" x2="188" y2="417" gradientUnits="userSpaceOnUse">
<stop stop-color="#926CB3"/>
<stop offset="1" stop-color="#E18B8B"/>
</linearGradient>
<linearGradient id="paint23_linear" x1="188" y1="366.5" x2="188" y2="415.5" gradientUnits="userSpaceOnUse">
<stop stop-color="#926CB3"/>
<stop offset="1" stop-color="#E18B8B"/>
</linearGradient>
<linearGradient id="paint24_linear" x1="188.302" y1="378" x2="188.302" y2="404.384" gradientUnits="userSpaceOnUse">
<stop stop-color="#926CB3"/>
<stop offset="1" stop-color="#E18B8B"/>
</linearGradient>
<linearGradient id="paint25_linear" x1="188.302" y1="378" x2="188.302" y2="404.384" gradientUnits="userSpaceOnUse">
<stop stop-color="#926CB3"/>
<stop offset="1" stop-color="#E18B8B"/>
</linearGradient>
</defs>
</svg>
