<svg id="구성_요소_64_1" data-name="구성 요소 64 – 1" xmlns="http://www.w3.org/2000/svg" width="24" height="24" viewBox="0 0 24 24">
  <rect id="사각형_676" data-name="사각형 676" width="24" height="24" fill="none"/>
  <path id="패스_929" data-name="패스 929" d="M6.32,13.01a3.08,3.08,0,0,1,2.45,1.34,3.979,3.979,0,0,0,6.46-.01A3.08,3.08,0,0,1,17.68,13c-.72-1.22-3.6-2-5.68-2S7.04,11.78,6.32,13.01Z" fill="#8fc4ff"/>
  <path id="패스_930" data-name="패스 930" d="M4,13H4a3,3,0,1,0-3-3A3,3,0,0,0,4,13Z" fill="#8fc4ff"/>
  <path id="패스_931" data-name="패스 931" d="M20,13h0a3,3,0,1,0-3-3A3,3,0,0,0,20,13Z" fill="#8fc4ff"/>
  <path id="패스_932" data-name="패스 932" d="M12,10A3,3,0,1,0,9,7,3,3,0,0,0,12,10Z" fill="#8fc4ff"/>
  <path id="패스_933" data-name="패스 933" d="M21,14H17.73a2.071,2.071,0,0,0-1.68.92,4.983,4.983,0,0,1-8.1,0A2.084,2.084,0,0,0,6.27,14H3a2.006,2.006,0,0,0-2,2v3a1,1,0,0,0,1,1H7a1,1,0,0,0,1-1V17.74a6.979,6.979,0,0,0,8,0V19a1,1,0,0,0,1,1h5a1,1,0,0,0,1-1V16A2.006,2.006,0,0,0,21,14Z" fill="#8fc4ff"/>
</svg>
