<svg id="구성_요소_59_1" data-name="구성 요소 59 – 1" xmlns="http://www.w3.org/2000/svg" width="24" height="24" viewBox="0 0 24 24">
  <rect id="사각형_674" data-name="사각형 674" width="24" height="24" fill="none"/>
  <path id="패스_925" data-name="패스 925" d="M14,10.5V11H11v-.5A1.5,1.5,0,0,0,9.5,9h-1V7h1A1.5,1.5,0,0,0,11,5.5v-3A1.5,1.5,0,0,0,9.5,1h-4A1.5,1.5,0,0,0,4,2.5v3A1.5,1.5,0,0,0,5.5,7h1V9h-1A1.5,1.5,0,0,0,4,10.5v3A1.5,1.5,0,0,0,5.5,15h1v2h-1A1.5,1.5,0,0,0,4,18.5v3A1.5,1.5,0,0,0,5.5,23h4A1.5,1.5,0,0,0,11,21.5v-3A1.5,1.5,0,0,0,9.5,17h-1V15h1A1.5,1.5,0,0,0,11,13.5V13h3v.5A1.5,1.5,0,0,0,15.5,15h4A1.5,1.5,0,0,0,21,13.5v-3A1.5,1.5,0,0,0,19.5,9h-4A1.5,1.5,0,0,0,14,10.5Z" fill="#8fc4ff"/>
</svg>
