<svg id="구성_요소_62_1" data-name="구성 요소 62 – 1" xmlns="http://www.w3.org/2000/svg" width="24" height="24" viewBox="0 0 24 24">
  <rect id="사각형_673" data-name="사각형 673" width="24" height="24" fill="none"/>
  <path id="패스_921" data-name="패스 921" d="M8.4,18.2A2.952,2.952,0,0,1,9,20a2.989,2.989,0,1,1-1.77-2.74l1.41-1.77A4.5,4.5,0,0,1,7.55,11.8l-2.03-.68A2.994,2.994,0,1,1,6,9.5a1.477,1.477,0,0,1-.01.21l2.03.68a4.468,4.468,0,0,1,3.22-2.32V5.91a3.005,3.005,0,1,1,1.51,0V8.07a4.468,4.468,0,0,1,3.22,2.32L18,9.71V9.5a3,3,0,1,1,.48,1.63l-2.03.68a4.49,4.49,0,0,1-1.09,3.69l1.41,1.77A2.837,2.837,0,0,1,18,17a3,3,0,1,1-3,3,2.952,2.952,0,0,1,.6-1.8l-1.41-1.77a4.5,4.5,0,0,1-4.37,0Z" fill="#2189ff"/>
</svg>
