<svg id="구성_요소_60_1" data-name="구성 요소 60 – 1" xmlns="http://www.w3.org/2000/svg" width="24" height="24" viewBox="0 0 24 24">
  <rect id="사각형_668" data-name="사각형 668" width="24" height="24" fill="none"/>
  <rect id="사각형_669" data-name="사각형 669" width="24" height="24" fill="none"/>
  <path id="패스_913" data-name="패스 913" d="M20,3H4A2.006,2.006,0,0,0,2,5V19a2.006,2.006,0,0,0,2,2H20a2.006,2.006,0,0,0,2-2V5A2.006,2.006,0,0,0,20,3ZM9,17H6a1,1,0,0,1,0-2H9a1,1,0,0,1,0,2Zm0-4H6a1,1,0,0,1,0-2H9a1,1,0,0,1,0,2ZM9,9H6A1,1,0,0,1,6,7H9A1,1,0,0,1,9,9Zm9.7,2.12-3.17,3.17a1.008,1.008,0,0,1-1.42,0L12.7,12.87a1,1,0,1,1,1.41-1.41l.71.71L17.29,9.7a1,1,0,0,1,1.41,0l.01.01A1,1,0,0,1,18.7,11.12Z" fill="#72787f" fill-rule="evenodd"/>
</svg>
